M48
INCH
T11C0.020
T19C0.060
T24C0.050
T28C0.030
T29C0.043
T31C0.028
T32C0.042
T33C0.038
T34C0.130
T35C0.022
T36C0.035
%
T11
X006250Y015950
X016950Y014200
X016950Y011200
X006250Y018950
X017300Y043600
X016800Y042900
X016300Y043950
X016800Y044300
X015300Y044300
X019300Y042900
X018300Y043250
X018300Y044300
X022000Y044650
X025150Y055300
X024500Y049700
X023000Y049700
X020350Y050250
X020350Y053900
X021050Y052650
X021050Y057900
X021050Y054700
X025500Y043950
X024500Y045000
X024850Y044300
X021050Y041000
X021050Y041550
X020350Y040400
X020350Y039850
X020200Y038250
X029750Y041000
X029750Y041550
X029050Y040400
X029050Y039850
X022000Y036750
X021050Y048050
X029750Y048050
X021050Y047500
X029750Y047500
X020350Y046900
X029050Y046900
X020350Y046350
X029050Y046350
X025500Y049350
X026400Y050350
X027350Y050850
X029050Y050350
X029750Y052650
X029050Y053900
X029750Y057000
X029750Y055450
X029750Y054700
X028000Y053900
X029750Y056200
X020100Y033700
X029050Y036750
X029050Y038250
X029750Y037450
X029750Y035950
X029750Y035400
X025350Y031600
X024300Y029850
X026150Y029850
X025550Y026450
X026100Y020800
X002950Y039850
X002950Y040400
X003650Y041550
X003650Y041000
X006100Y045000
X006150Y037950
X002950Y046350
X002950Y046900
X003650Y047500
X002950Y036750
X002950Y038100
X003650Y035950
X004600Y035950
X004250Y029900
X004250Y028900
X005600Y027950
X003650Y048050
X006100Y049850
X002950Y053900
X003650Y052650
X004300Y053900
X003650Y054700
X003650Y055550
X003650Y057250
X002950Y057900
X003650Y056400
X006900Y059650
X002950Y059650
X002950Y051450
X005400Y053900
X004300Y051450
X005400Y051450
X014800Y044300
X013800Y042900
X014300Y045000
X012350Y048050
X012350Y047500
X011650Y046900
X011650Y046350
X012350Y041000
X012350Y041550
X011650Y040400
X009100Y044650
X008100Y044300
X010100Y045000
X009600Y042900
X009100Y043600
X007650Y043950
X012350Y052650
X011650Y051450
X011650Y053900
X012350Y054700
X013050Y050850
X012750Y058900
X012350Y058900
X010950Y058200
X011650Y059650
X015550Y059650
X010150Y059650
X013450Y059650
X010100Y038500
X007600Y038300
X009100Y038150
X007100Y038300
X011650Y039850
X011650Y036750
X008300Y034050
X007100Y034350
X009000Y035300
X013900Y035500
X012350Y033700
X014450Y035000
X011650Y030300
X011650Y029150
X011700Y027400
X011150Y027400
T35
X010000Y024500
X010000Y026000
X010000Y021500
X010000Y023000
X007000Y021500
X007000Y023000
X007000Y024500
X007000Y026000
T31
X025000Y042200
X024000Y042200
X023000Y042200
X022000Y042200
X017300Y039200
X018300Y039200
X019300Y039200
X019300Y042200
X018300Y042200
X017300Y042200
X025000Y039200
X026000Y039200
X027000Y039200
X028000Y039200
X022000Y039200
X023000Y039200
X024000Y039200
X028000Y042200
X027000Y042200
X026000Y042200
X013300Y039200
X014300Y039200
X015300Y039200
X016300Y039200
X016300Y042200
X016300Y045700
X017300Y045700
X018300Y045700
X015300Y042200
X015300Y045700
X019300Y045700
X024000Y045700
X024000Y048700
X025000Y045700
X025000Y048700
X026000Y045700
X026000Y048700
X027000Y045700
X027000Y048700
X028000Y045700
X028000Y048700
X022000Y045700
X023000Y045700
X023000Y048700
X022000Y048700
X019300Y048700
X004600Y045700
X004600Y039200
X004600Y042200
X005600Y045700
X005600Y039200
X005600Y042200
X006600Y045700
X006600Y039200
X006600Y042200
X014300Y042200
X014300Y045700
X014300Y048700
X013300Y042200
X013300Y045700
X013300Y048700
X018300Y048700
X017300Y048700
X016300Y048700
X015300Y048700
X010600Y048700
X008600Y042200
X007600Y042200
X009600Y048700
X008600Y048700
X007600Y048700
X006600Y048700
X005600Y048700
X004600Y048700
X007600Y045700
X008600Y045700
X009600Y045700
X010600Y045700
X007600Y039200
X008600Y039200
X009600Y039200
X010600Y039200
X010600Y042200
X009600Y042200
T28
X023150Y055900
X023150Y053200
X018150Y055900
X018150Y050850
X018150Y053200
X014450Y058200
X014450Y053200
X014450Y050850
X014450Y055850
X009450Y058200
X009450Y053200
X009450Y050850
X009450Y055850
X018300Y037450
X028000Y043950
X027000Y043950
X023150Y050850
X021000Y035950
X022000Y035950
X023300Y037450
X023000Y034450
X028000Y034450
X028000Y035950
X028000Y037450
X004600Y043950
X005600Y043950
X004600Y037450
X005600Y032950
X005600Y034450
X005600Y035950
X005600Y037450
X010600Y032950
X013300Y032950
X010600Y034450
X013300Y034450
X018300Y034450
X010600Y035950
X008300Y037450
X013300Y037450
X013300Y035950
X018300Y032950
X023000Y032950
X028000Y032950
X021000Y032950
X022000Y032950
X021000Y034450
X022000Y034450
X023000Y035950
X018300Y035950
X027000Y037450
X023000Y029950
X023000Y031450
X019900Y026000
X019900Y024500
X028000Y028450
X027000Y028450
X028000Y029950
X028000Y031450
X019900Y023000
X019900Y021450
X025250Y019200
X025250Y017200
X012400Y026000
X010900Y026000
X010900Y024500
X010900Y023000
X012400Y023000
X012400Y024500
X013400Y026000
X014900Y026000
X014900Y024500
X014900Y023000
X013400Y023000
X013400Y024500
X016950Y020200
X016950Y015200
X014900Y021450
X009250Y015100
X007750Y015100
X004500Y019750
X005500Y019750
X009250Y020100
X007750Y020100
X005900Y021500
X010900Y021500
X012400Y021500
X013400Y021500
X005900Y023000
X005900Y026000
X005900Y024500
T36
X017600Y026150
X018350Y026150
X018650Y020150
X017950Y020150
X015200Y016750
X015200Y019300
X013950Y015900
X011700Y028500
T33
X021400Y026450
X021400Y025450
X021400Y025450
X021400Y024450
X021400Y024450
X019600Y028900
X020600Y028900
X020600Y029900
X019600Y029900
X027000Y024950
X028000Y024950
X027000Y026850
X028000Y026850
X024800Y024450
X024800Y023450
X024800Y027450
X024800Y026450
X024800Y025450
X023800Y027450
X023800Y026450
X023800Y025450
X023800Y024450
X024800Y022450
X023800Y023450
X023800Y022450
X024800Y021450
X023800Y021450
X021400Y023450
X021400Y022450
X021400Y021450
X021400Y022450
X021400Y023450
X004500Y017950
X004500Y016950
X004500Y015950
X004600Y026000
X005600Y029900
X005600Y028900
X004600Y025000
X004600Y024000
X004600Y023000
X004600Y022000
X006600Y028900
X006600Y029900
X007600Y029900
X008600Y029900
X009600Y029900
X007600Y028900
X008600Y028900
X009600Y028900
X010600Y028900
X013600Y028900
X014600Y028900
X015600Y028900
X016600Y028900
X017600Y028900
X017600Y029900
X018600Y028900
X018600Y029900
X010600Y029900
X013600Y029900
X014600Y029900
X015600Y029900
X016600Y029900
T32
X016850Y037450
X015850Y037450
X014850Y037450
T29
X020150Y062050
X021150Y062050
X024500Y057050
X025500Y057050
X024500Y052050
X025500Y052050
X011450Y062050
X012450Y062050
X015800Y052050
X015800Y057050
X016800Y052050
X016800Y057050
X007100Y052050
X008100Y052050
X007100Y057050
X008100Y057050
T24
X027750Y015350
X027750Y023350
T19
X021900Y018850
X020900Y018850
X019900Y018850
X014000Y018900
X013000Y018900
X012000Y018900
T34
X020900Y012150
X013000Y012200
M30
