G04 start of page 14 for group -4015 idx -4015 *
G04 Title: (unknown), toppaste *
G04 Creator: pcb 20091103 *
G04 CreationDate: Sun Dec 17 12:14:22 2023 UTC *
G04 For: bh *
G04 Format: Gerber/RS-274X *
G04 PCB-Dimensions: 380000 700000 *
G04 PCB-Coordinate-Origin: lower left *
%MOIN*%
%FSLAX25Y25*%
%LNTOPPASTE*%
%ADD13C,0.0400*%
%ADD37C,0.0060*%
G54D13*X230000Y152500D02*X178500D01*
G54D37*X246000Y153000D02*X257000D01*
X241500Y148500D02*Y137500D01*
X22500Y123000D02*Y626500D01*
X304500D02*Y123000D01*
X51500Y94000D02*X275500D01*
X87000Y136500D02*X93500D01*
X98000Y132000D02*Y116500D01*
X87000Y112000D02*X93500D01*
X82500Y132000D02*Y116500D01*
X51500Y655500D02*X275500D01*
X277500Y96000D02*G75*G02X302500Y121000I25000J0D01*G01*
X275500Y94000D02*G75*G03X277500Y96000I0J2000D01*G01*
X302500Y121000D02*G75*G03X304500Y123000I0J2000D01*G01*
X302500Y628500D02*G75*G02X277500Y653500I0J25000D01*G01*
G75*G03X275500Y655500I-2000J0D01*G01*
X304500Y626500D02*G75*G03X302500Y628500I-2000J0D01*G01*
X49500Y96000D02*G75*G03X51500Y94000I2000J0D01*G01*
X49500Y653500D02*G75*G02X24500Y628500I-25000J0D01*G01*
Y121000D02*G75*G02X49500Y96000I0J-25000D01*G01*
X51500Y655500D02*G75*G03X49500Y653500I0J-2000D01*G01*
X24500Y628500D02*G75*G03X22500Y626500I0J-2000D01*G01*
X241500Y148500D02*G75*G02X246000Y153000I4500J0D01*G01*
Y133000D02*G75*G02X241500Y137500I0J4500D01*G01*
X250500D02*G75*G02X246000Y133000I-4500J0D01*G01*
X257000Y153000D02*G75*G02X261500Y148500I0J-4500D01*G01*
G75*G02X257000Y144000I-4500J0D01*G01*
G75*G03X250500Y137500I0J-6500D01*G01*
X93500Y136500D02*G75*G02X98000Y132000I0J-4500D01*G01*
X82500D02*G75*G02X87000Y136500I4500J0D01*G01*
Y112000D02*G75*G02X82500Y116500I0J4500D01*G01*
X22500Y123000D02*G75*G03X24500Y121000I2000J0D01*G01*
X98000Y116500D02*G75*G02X93500Y112000I-4500J0D01*G01*
M02*
