G04 start of page 7 for group -4063 idx -4063 *
G04 Title: (unknown), componentmask *
G04 Creator: pcb 20091103 *
G04 CreationDate: Sun Dec 17 12:14:22 2023 UTC *
G04 For: bh *
G04 Format: Gerber/RS-274X *
G04 PCB-Dimensions: 380000 700000 *
G04 PCB-Coordinate-Origin: lower left *
%MOIN*%
%FSLAX25Y25*%
%LNTOPMASK*%
%ADD11C,0.0200*%
%ADD13C,0.0400*%
%ADD30C,0.1220*%
%ADD37C,0.0060*%
%ADD39C,0.0610*%
%ADD40C,0.0710*%
%ADD41C,0.0660*%
%ADD42C,0.0780*%
%ADD43C,0.1560*%
%ADD44C,0.0860*%
%ADD45C,0.0960*%
%ADD46C,0.0560*%
%ADD47C,0.0580*%
G54D11*G36*
X228450Y562050D02*Y555950D01*
X234550D01*
Y562050D01*
X228450D01*
G37*
G54D39*X231500Y532000D03*
G54D11*G36*
X197950Y624050D02*Y616950D01*
X205050D01*
Y624050D01*
X197950D01*
G37*
G54D40*X211500Y620500D03*
G54D30*X274500Y625500D03*
G54D11*G36*
X241450Y574050D02*Y566950D01*
X248550D01*
Y574050D01*
X241450D01*
G37*
G54D40*X255000Y570500D03*
G54D11*G36*
X241450Y524050D02*Y516950D01*
X248550D01*
Y524050D01*
X241450D01*
G37*
G54D40*X255000Y520500D03*
G54D39*X181500Y559000D03*
Y508500D03*
G54D11*G36*
X178450Y535050D02*Y528950D01*
X184550D01*
Y535050D01*
X178450D01*
G37*
G36*
X141450Y585050D02*Y578950D01*
X147550D01*
Y585050D01*
X141450D01*
G37*
G54D39*X144500Y532000D03*
G54D11*G36*
X141450Y511550D02*Y505450D01*
X147550D01*
Y511550D01*
X141450D01*
G37*
G36*
Y561550D02*Y555450D01*
X147550D01*
Y561550D01*
X141450D01*
G37*
G54D39*X94500Y582000D03*
G54D11*G36*
X91450Y535050D02*Y528950D01*
X97550D01*
Y535050D01*
X91450D01*
G37*
G54D39*X94500Y508500D03*
Y558500D03*
G54D11*G36*
X110950Y624050D02*Y616950D01*
X118050D01*
Y624050D01*
X110950D01*
G37*
G54D40*X124500Y620500D03*
G54D11*G36*
X154450Y524050D02*Y516950D01*
X161550D01*
Y524050D01*
X154450D01*
G37*
G36*
Y574050D02*Y566950D01*
X161550D01*
Y574050D01*
X154450D01*
G37*
G54D40*X168000Y520500D03*
Y570500D03*
G54D11*G36*
X67450Y524050D02*Y516950D01*
X74550D01*
Y524050D01*
X67450D01*
G37*
G54D40*X81000Y520500D03*
G54D11*G36*
X67450Y574050D02*Y566950D01*
X74550D01*
Y574050D01*
X67450D01*
G37*
G54D40*X81000Y570500D03*
G54D30*X52500Y625500D03*
G54D41*X250000Y422000D03*
X240000D03*
X230000D03*
X220000D03*
X173000Y392000D03*
G54D11*G36*
X164600Y378400D02*Y370600D01*
X172400D01*
Y378400D01*
X164600D01*
G37*
G54D42*X158500Y374500D03*
X148500D03*
G54D41*X183000Y392000D03*
G54D11*G36*
X179950Y377550D02*Y371450D01*
X186050D01*
Y377550D01*
X179950D01*
G37*
G54D41*X193000Y392000D03*
Y422000D03*
X183000D03*
X173000D03*
X250000Y392000D03*
X260000D03*
X270000D03*
X280000D03*
G54D11*G36*
X216700Y395300D02*Y388700D01*
X223300D01*
Y395300D01*
X216700D01*
G37*
G54D41*X230000Y392000D03*
X240000D03*
X280000Y422000D03*
X270000D03*
X260000D03*
G54D11*G36*
X276700Y442800D02*Y436200D01*
X283300D01*
Y442800D01*
X276700D01*
G37*
G54D41*X270000Y439500D03*
G54D11*G36*
X129700Y395300D02*Y388700D01*
X136300D01*
Y395300D01*
X129700D01*
G37*
G54D41*X143000Y392000D03*
X153000D03*
X163000D03*
Y422000D03*
Y457000D03*
X173000D03*
X183000D03*
X153000Y422000D03*
Y457000D03*
X193000D03*
X240000D03*
Y487000D03*
X250000Y457000D03*
Y487000D03*
X260000Y457000D03*
Y487000D03*
X270000Y457000D03*
Y487000D03*
X280000Y457000D03*
Y487000D03*
G54D11*G36*
X228450Y511550D02*Y505450D01*
X234550D01*
Y511550D01*
X228450D01*
G37*
G36*
X216700Y460300D02*Y453700D01*
X223300D01*
Y460300D01*
X216700D01*
G37*
G54D41*X230000Y457000D03*
Y487000D03*
X220000D03*
X193000D03*
G54D11*G36*
X206700Y362800D02*Y356200D01*
X213300D01*
Y362800D01*
X206700D01*
G37*
G54D41*X220000Y359500D03*
G54D39*X233000Y374500D03*
G54D11*G36*
X226950Y347550D02*Y341450D01*
X233050D01*
Y347550D01*
X226950D01*
G37*
G54D39*X280000Y344500D03*
Y359500D03*
G54D11*G36*
X276700Y377800D02*Y371200D01*
X283300D01*
Y377800D01*
X276700D01*
G37*
G36*
X42700Y442800D02*Y436200D01*
X49300D01*
Y442800D01*
X42700D01*
G37*
G54D41*X56000Y439500D03*
G54D11*G36*
X42700Y460300D02*Y453700D01*
X49300D01*
Y460300D01*
X42700D01*
G37*
G36*
Y395300D02*Y388700D01*
X49300D01*
Y395300D01*
X42700D01*
G37*
G54D41*X46000Y422000D03*
G54D11*G36*
X42700Y377800D02*Y371200D01*
X49300D01*
Y377800D01*
X42700D01*
G37*
G54D41*X56000Y457000D03*
Y392000D03*
Y422000D03*
X66000Y457000D03*
Y392000D03*
Y422000D03*
G54D11*G36*
X52950Y332550D02*Y326450D01*
X59050D01*
Y332550D01*
X52950D01*
G37*
G36*
Y347550D02*Y341450D01*
X59050D01*
Y347550D01*
X52950D01*
G37*
G36*
Y362550D02*Y356450D01*
X59050D01*
Y362550D01*
X52950D01*
G37*
G54D41*X56000Y374500D03*
X143000Y422000D03*
Y457000D03*
Y487000D03*
X133000Y422000D03*
G54D11*G36*
X129700Y460300D02*Y453700D01*
X136300D01*
Y460300D01*
X129700D01*
G37*
G54D41*X133000Y487000D03*
X183000D03*
X173000D03*
X163000D03*
X153000D03*
X106000D03*
X86000Y422000D03*
X76000D03*
X96000Y487000D03*
X86000D03*
X76000D03*
X66000D03*
X56000D03*
X46000D03*
X76000Y457000D03*
X86000D03*
X96000D03*
X106000D03*
X76000Y392000D03*
X86000D03*
X96000D03*
X106000D03*
Y422000D03*
X96000D03*
G54D39*X106000Y329500D03*
G54D11*G36*
X129950Y332550D02*Y326450D01*
X136050D01*
Y332550D01*
X129950D01*
G37*
G54D39*X106000Y344500D03*
G54D11*G36*
X129950Y347550D02*Y341450D01*
X136050D01*
Y347550D01*
X129950D01*
G37*
G54D39*X183000Y344500D03*
X106000Y359500D03*
G54D11*G36*
X79950Y377550D02*Y371450D01*
X86050D01*
Y377550D01*
X79950D01*
G37*
G54D39*X133000Y374500D03*
G54D11*G36*
X129950Y362550D02*Y356450D01*
X136050D01*
Y362550D01*
X129950D01*
G37*
G54D39*X183000Y329500D03*
G54D11*G36*
X226950Y332550D02*Y326450D01*
X233050D01*
Y332550D01*
X226950D01*
G37*
G54D39*X280000Y329500D03*
G54D11*G36*
X206700Y332800D02*Y326200D01*
X213300D01*
Y332800D01*
X206700D01*
G37*
G54D41*X220000Y329500D03*
G54D11*G36*
X206700Y347800D02*Y341200D01*
X213300D01*
Y347800D01*
X206700D01*
G37*
G54D41*X220000Y344500D03*
G54D11*G36*
X226950Y362550D02*Y356450D01*
X233050D01*
Y362550D01*
X226950D01*
G37*
G54D39*X183000Y359500D03*
G54D41*X270000Y374500D03*
G54D11*G36*
X210700Y267800D02*Y261200D01*
X217300D01*
Y267800D01*
X210700D01*
G37*
G54D41*X214000Y254500D03*
G54D11*G36*
X226950Y302550D02*Y296450D01*
X233050D01*
Y302550D01*
X226950D01*
G37*
G54D41*X214000Y254500D03*
G54D11*G36*
X226950Y317550D02*Y311450D01*
X233050D01*
Y317550D01*
X226950D01*
G37*
G54D41*X214000Y244500D03*
G54D39*X199000Y260000D03*
Y245000D03*
G54D41*X214000Y244500D03*
X196000Y289000D03*
X206000D03*
Y299000D03*
X196000D03*
G54D43*X209000Y121500D03*
G54D30*X274500Y124000D03*
G54D44*X277500Y153500D03*
G54D11*G36*
X276700Y287800D02*Y281200D01*
X283300D01*
Y287800D01*
X276700D01*
G37*
G54D41*X270000Y284500D03*
G54D39*X280000Y299500D03*
G54D11*G36*
X266700Y252800D02*Y246200D01*
X273300D01*
Y252800D01*
X266700D01*
G37*
G54D41*X280000Y249500D03*
G54D11*G36*
X273200Y237800D02*Y229200D01*
X281800D01*
Y237800D01*
X273200D01*
G37*
G36*
X266700Y271800D02*Y265200D01*
X273300D01*
Y271800D01*
X266700D01*
G37*
G54D41*X280000Y268500D03*
X248000Y244500D03*
Y234500D03*
G54D11*G36*
X244700Y277800D02*Y271200D01*
X251300D01*
Y277800D01*
X244700D01*
G37*
G54D41*X248000Y264500D03*
Y254500D03*
G54D11*G36*
X234700Y277800D02*Y271200D01*
X241300D01*
Y277800D01*
X234700D01*
G37*
G54D41*X238000Y264500D03*
Y254500D03*
Y244500D03*
G54D39*X280000Y314500D03*
G54D41*X248000Y224500D03*
X238000Y234500D03*
Y224500D03*
X248000Y214500D03*
X238000D03*
G54D39*X199000Y230000D03*
Y214500D03*
G54D11*G36*
X214200Y193300D02*Y183700D01*
X223800D01*
Y193300D01*
X214200D01*
G37*
G54D45*X209000Y188500D03*
X199000D03*
G54D11*G36*
X249200Y195300D02*Y188700D01*
X255800D01*
Y195300D01*
X249200D01*
G37*
G54D41*X252500Y172000D03*
X214000Y234500D03*
Y224500D03*
G54D11*G36*
X210700Y217800D02*Y211200D01*
X217300D01*
Y217800D01*
X210700D01*
G37*
G54D41*X214000Y224500D03*
Y234500D03*
G54D11*G36*
X120700Y263300D02*Y256700D01*
X127300D01*
Y263300D01*
X120700D01*
G37*
G54D39*X109000Y260000D03*
Y245000D03*
Y230000D03*
G54D11*G36*
X120700Y233300D02*Y226700D01*
X127300D01*
Y233300D01*
X120700D01*
G37*
G36*
Y248300D02*Y241700D01*
X127300D01*
Y248300D01*
X120700D01*
G37*
G54D41*X134000Y260000D03*
G54D11*G36*
X145950Y263050D02*Y256950D01*
X152050D01*
Y263050D01*
X145950D01*
G37*
G36*
Y248050D02*Y241950D01*
X152050D01*
Y248050D01*
X145950D01*
G37*
G36*
Y233050D02*Y226950D01*
X152050D01*
Y233050D01*
X145950D01*
G37*
G54D41*X134000Y230000D03*
Y245000D03*
G54D11*G36*
X97100Y247900D02*Y242100D01*
X102900D01*
Y247900D01*
X97100D01*
G37*
G36*
Y262900D02*Y257100D01*
X102900D01*
Y262900D01*
X97100D01*
G37*
G54D30*X52500Y124000D03*
G54D11*G36*
X59700Y162300D02*Y156700D01*
X65300D01*
Y162300D01*
X59700D01*
G37*
G36*
X166450Y205050D02*Y198950D01*
X172550D01*
Y205050D01*
X166450D01*
G37*
G54D39*X169500Y152000D03*
G54D11*G36*
X145950Y217550D02*Y211450D01*
X152050D01*
Y217550D01*
X145950D01*
G37*
G36*
X135200Y193800D02*Y184200D01*
X144800D01*
Y193800D01*
X135200D01*
G37*
G54D45*X130000Y189000D03*
X120000D03*
G54D11*G36*
X166700Y144800D02*Y139200D01*
X172300D01*
Y144800D01*
X166700D01*
G37*
G54D39*X92500Y151000D03*
G54D11*G36*
X74450Y154050D02*Y147950D01*
X80550D01*
Y154050D01*
X74450D01*
G37*
G54D46*X169500Y112000D03*
G54D43*X130000Y122000D03*
G54D11*G36*
X41700Y200800D02*Y194200D01*
X48300D01*
Y200800D01*
X41700D01*
G37*
G36*
Y182800D02*Y176200D01*
X48300D01*
Y182800D01*
X41700D01*
G37*
G54D41*X45000Y169500D03*
Y159500D03*
X55000Y197500D03*
G54D11*G36*
X89450Y204050D02*Y197950D01*
X95550D01*
Y204050D01*
X89450D01*
G37*
G54D39*X77500Y201000D03*
G54D46*X62500Y189500D03*
G54D11*G36*
X42700Y263300D02*Y256700D01*
X49300D01*
Y263300D01*
X42700D01*
G37*
G36*
X52700Y302300D02*Y295700D01*
X59300D01*
Y302300D01*
X52700D01*
G37*
G36*
Y292300D02*Y285700D01*
X59300D01*
Y292300D01*
X52700D01*
G37*
G54D41*X46000Y250000D03*
Y240000D03*
Y230000D03*
Y220000D03*
X66000Y289000D03*
Y299000D03*
X76000D03*
X86000D03*
X96000D03*
X76000Y289000D03*
X86000D03*
X96000D03*
X106000D03*
G54D11*G36*
X132700Y292300D02*Y285700D01*
X139300D01*
Y292300D01*
X132700D01*
G37*
G54D41*X146000Y289000D03*
X156000D03*
X166000D03*
X176000D03*
Y299000D03*
X186000Y289000D03*
Y299000D03*
X106000D03*
G54D11*G36*
X132700Y302300D02*Y295700D01*
X139300D01*
Y302300D01*
X132700D01*
G37*
G54D41*X146000Y299000D03*
X156000D03*
X166000D03*
G54D11*G36*
X97100Y217900D02*Y212100D01*
X102900D01*
Y217900D01*
X97100D01*
G37*
G36*
Y232900D02*Y227100D01*
X102900D01*
Y232900D01*
X97100D01*
G37*
G36*
X55950Y218050D02*Y211950D01*
X62050D01*
Y218050D01*
X55950D01*
G37*
G54D39*X109000Y215000D03*
G54D11*G36*
X120700Y218300D02*Y211700D01*
X127300D01*
Y218300D01*
X120700D01*
G37*
G54D41*X134000Y215000D03*
G54D47*X70000D03*
G54D11*G36*
X55950Y233050D02*Y226950D01*
X62050D01*
Y233050D01*
X55950D01*
G37*
G54D47*X70000Y230000D03*
G54D11*G36*
X55950Y263050D02*Y256950D01*
X62050D01*
Y263050D01*
X55950D01*
G37*
G36*
Y248050D02*Y241950D01*
X62050D01*
Y248050D01*
X55950D01*
G37*
G54D47*X70000Y245000D03*
Y260000D03*
G54D13*X230000Y152500D02*X178500D01*
G54D37*X246000Y153000D02*X257000D01*
X241500Y148500D02*Y137500D01*
X22500Y123000D02*Y626500D01*
X304500D02*Y123000D01*
X51500Y94000D02*X275500D01*
X87000Y136500D02*X93500D01*
X98000Y132000D02*Y116500D01*
X87000Y112000D02*X93500D01*
X82500Y132000D02*Y116500D01*
X51500Y655500D02*X275500D01*
X277500Y96000D02*G75*G02X302500Y121000I25000J0D01*G01*
X275500Y94000D02*G75*G03X277500Y96000I0J2000D01*G01*
X302500Y121000D02*G75*G03X304500Y123000I0J2000D01*G01*
X302500Y628500D02*G75*G02X277500Y653500I0J25000D01*G01*
G75*G03X275500Y655500I-2000J0D01*G01*
X304500Y626500D02*G75*G03X302500Y628500I-2000J0D01*G01*
X49500Y96000D02*G75*G03X51500Y94000I2000J0D01*G01*
X49500Y653500D02*G75*G02X24500Y628500I-25000J0D01*G01*
Y121000D02*G75*G02X49500Y96000I0J-25000D01*G01*
X51500Y655500D02*G75*G03X49500Y653500I0J-2000D01*G01*
X24500Y628500D02*G75*G03X22500Y626500I0J-2000D01*G01*
X241500Y148500D02*G75*G02X246000Y153000I4500J0D01*G01*
Y133000D02*G75*G02X241500Y137500I0J4500D01*G01*
X250500D02*G75*G02X246000Y133000I-4500J0D01*G01*
X257000Y153000D02*G75*G02X261500Y148500I0J-4500D01*G01*
G75*G02X257000Y144000I-4500J0D01*G01*
G75*G03X250500Y137500I0J-6500D01*G01*
X93500Y136500D02*G75*G02X98000Y132000I0J-4500D01*G01*
X82500D02*G75*G02X87000Y136500I4500J0D01*G01*
Y112000D02*G75*G02X82500Y116500I0J4500D01*G01*
X22500Y123000D02*G75*G03X24500Y121000I2000J0D01*G01*
X98000Y116500D02*G75*G02X93500Y112000I-4500J0D01*G01*
M02*
