M48
INCH
T11C0.020
T19C0.060
T21C0.050
T27C0.030
T28C0.043
T30C0.028
T31C0.042
T32C0.038
T33C0.130
T34C0.035
%
T11
X016950Y007400
X016950Y004400
X006250Y009150
X006250Y012150
X010000Y016200
X010000Y019200
X010000Y017700
X010000Y014700
X007000Y014700
X007000Y016200
X007000Y017700
X007000Y019200
X017300Y036800
X016800Y036100
X016300Y037150
X016800Y037500
X015300Y037500
X019300Y036100
X018300Y036450
X018300Y037500
X022000Y037850
X025150Y048500
X024500Y042900
X023000Y042900
X020350Y043450
X020350Y047100
X021050Y045850
X021050Y051100
X021050Y047900
X025500Y037150
X024500Y038200
X024850Y037500
X021050Y034200
X021050Y034750
X020350Y033600
X020350Y033050
X020200Y031450
X029750Y034200
X029750Y034750
X029050Y033600
X029050Y033050
X022000Y029950
X021050Y041250
X029750Y041250
X021050Y040700
X029750Y040700
X020350Y040100
X029050Y040100
X020350Y039550
X029050Y039550
X025500Y042550
X026400Y043550
X027350Y044050
X029050Y043550
X029750Y045850
X029050Y047100
X029750Y050200
X029750Y048650
X029750Y047900
X028000Y047100
X029750Y049400
X020100Y026900
X029050Y029950
X029050Y031450
X029750Y030650
X029750Y029150
X029750Y028600
X025350Y024800
X024300Y023050
X026150Y023050
X025550Y019650
X026100Y014000
X002950Y033050
X002950Y033600
X003650Y034750
X003650Y034200
X006100Y038200
X006150Y031150
X002950Y039550
X002950Y040100
X003650Y040700
X002950Y029950
X002950Y031300
X003650Y029150
X004600Y029150
X004250Y023100
X004250Y022100
X005600Y021150
X003650Y041250
X006100Y043050
X002950Y047100
X003650Y045850
X004300Y047100
X003650Y047900
X003650Y048750
X003650Y050450
X002950Y051100
X003650Y049600
X006900Y052850
X002950Y052850
X002950Y044650
X005400Y047100
X004300Y044650
X005400Y044650
X014800Y037500
X013800Y036100
X014300Y038200
X012350Y041250
X012350Y040700
X011650Y040100
X011650Y039550
X012350Y034200
X012350Y034750
X011650Y033600
X009100Y037850
X008100Y037500
X010100Y038200
X009600Y036100
X009100Y036800
X007650Y037150
X012350Y045850
X011650Y044650
X011650Y047100
X012350Y047900
X013050Y044050
X012750Y052100
X012350Y052100
X010950Y051400
X011650Y052850
X015550Y052850
X010150Y052850
X013450Y052850
X010100Y031700
X007600Y031500
X009100Y031350
X007100Y031500
X011650Y033050
X011650Y029950
X008300Y027250
X007100Y027550
X009000Y028500
X013900Y028700
X012350Y026900
X014450Y028200
X011650Y023500
X011650Y022350
X011700Y020600
X011150Y020600
T30
X025000Y035400
X024000Y035400
X023000Y035400
X022000Y035400
X017300Y032400
X018300Y032400
X019300Y032400
X019300Y035400
X018300Y035400
X017300Y035400
X025000Y032400
X026000Y032400
X027000Y032400
X028000Y032400
X022000Y032400
X023000Y032400
X024000Y032400
X028000Y035400
X027000Y035400
X026000Y035400
X013300Y032400
X014300Y032400
X015300Y032400
X016300Y032400
X016300Y035400
X016300Y038900
X017300Y038900
X018300Y038900
X015300Y035400
X015300Y038900
X019300Y038900
X024000Y038900
X024000Y041900
X025000Y038900
X025000Y041900
X026000Y038900
X026000Y041900
X027000Y038900
X027000Y041900
X028000Y038900
X028000Y041900
X022000Y038900
X023000Y038900
X023000Y041900
X022000Y041900
X019300Y041900
X004600Y038900
X004600Y032400
X004600Y035400
X005600Y038900
X005600Y032400
X005600Y035400
X006600Y038900
X006600Y032400
X006600Y035400
X014300Y035400
X014300Y038900
X014300Y041900
X013300Y035400
X013300Y038900
X013300Y041900
X018300Y041900
X017300Y041900
X016300Y041900
X015300Y041900
X010600Y041900
X008600Y035400
X007600Y035400
X009600Y041900
X008600Y041900
X007600Y041900
X006600Y041900
X005600Y041900
X004600Y041900
X007600Y038900
X008600Y038900
X009600Y038900
X010600Y038900
X007600Y032400
X008600Y032400
X009600Y032400
X010600Y032400
X010600Y035400
X009600Y035400
T27
X023150Y049100
X023150Y046400
X018150Y049100
X018150Y044050
X018150Y046400
X014450Y051400
X014450Y046400
X014450Y044050
X014450Y049050
X009450Y051400
X009450Y046400
X009450Y044050
X009450Y049050
X018300Y030650
X028000Y037150
X027000Y037150
X023150Y044050
X021000Y029150
X022000Y029150
X023300Y030650
X023000Y027650
X028000Y027650
X028000Y029150
X028000Y030650
X004600Y037150
X005600Y037150
X004600Y030650
X005600Y026150
X005600Y027650
X005600Y029150
X005600Y030650
X010600Y026150
X013300Y026150
X010600Y027650
X013300Y027650
X018300Y027650
X010600Y029150
X008300Y030650
X013300Y030650
X013300Y029150
X018300Y026150
X023000Y026150
X028000Y026150
X021000Y026150
X022000Y026150
X021000Y027650
X022000Y027650
X023000Y029150
X018300Y029150
X027000Y030650
X023000Y023150
X023000Y024650
X028000Y021650
X027000Y021650
X028000Y023150
X028000Y024650
X019900Y019200
X019900Y017700
X019900Y016200
X019900Y014650
X016950Y013400
X016950Y008400
X014900Y014650
X025250Y012400
X025250Y010400
X012400Y019200
X010900Y019200
X010900Y017700
X012400Y017700
X013400Y019200
X014900Y019200
X014900Y017700
X014900Y016200
X013400Y016200
X013400Y017700
X010900Y014700
X012400Y014700
X013400Y014700
X010900Y016200
X012400Y016200
X007750Y008300
X007750Y013300
X009250Y013300
X009250Y008300
X005900Y014700
X005900Y017700
X005900Y016200
X004500Y012950
X005500Y012950
X005900Y019200
T34
X017600Y019350
X018350Y019350
X018650Y013350
X017950Y013350
X015200Y009950
X015200Y012500
X013950Y009100
X011700Y021700
T32
X021400Y019650
X027000Y020050
X028000Y020050
X023800Y019650
X024800Y019650
X021400Y018650
X021400Y018650
X023800Y020650
X024800Y020650
X020600Y022100
X019600Y023100
X020600Y023100
X021400Y017650
X021400Y017650
X023800Y017650
X023800Y016650
X023800Y015650
X023800Y014650
X021400Y016650
X021400Y015650
X021400Y014650
X021400Y015650
X021400Y016650
X024800Y016650
X024800Y015650
X024800Y014650
X023800Y018650
X024800Y018650
X024800Y017650
X027000Y018150
X028000Y018150
X004500Y011150
X004500Y010150
X004500Y009150
X005600Y023100
X005600Y022100
X006600Y023100
X006600Y022100
X007600Y023100
X007600Y022100
X008600Y023100
X008600Y022100
X009600Y022100
X010600Y022100
X009600Y023100
X010600Y023100
X004600Y018200
X004600Y017200
X004600Y016200
X004600Y015200
X004600Y019200
X013600Y022100
X013600Y023100
X014600Y023100
X014600Y022100
X015600Y022100
X016600Y022100
X017600Y022100
X018600Y022100
X019600Y022100
X015600Y023100
X016600Y023100
X017600Y023100
X018600Y023100
T31
X016850Y030650
X015850Y030650
X014850Y030650
T28
X020150Y055250
X021150Y055250
X024500Y050250
X025500Y050250
X024500Y045250
X025500Y045250
X011450Y055250
X012450Y055250
X015800Y045250
X015800Y050250
X016800Y045250
X016800Y050250
X007100Y045250
X008100Y045250
X007100Y050250
X008100Y050250
T21
X027750Y008550
X027750Y016550
T19
X021900Y012050
X020900Y012050
X019900Y012050
X014000Y012100
X013000Y012100
X012000Y012100
T33
X020900Y005350
X013000Y005400
M30
