G04 start of page 15 for group -3984 idx -3984 *
G04 Title: (unknown), fab *
G04 Creator: pcb 20091103 *
G04 CreationDate: Sun Dec 17 12:14:22 2023 UTC *
G04 For: bh *
G04 Format: Gerber/RS-274X *
G04 PCB-Dimensions: 380000 700000 *
G04 PCB-Coordinate-Origin: lower left *
%MOIN*%
%FSLAX25Y25*%
%LNFAB*%
%ADD12C,0.0100*%
%ADD37C,0.0060*%
%ADD38C,0.0102*%
%ADD50C,0.0080*%
G54D50*X130000Y126800D02*Y117200D01*
X125200Y122000D02*X134800D01*
X128400Y123600D02*X131600D01*
X128400D02*Y120400D01*
X131600D01*
Y123600D02*Y120400D01*
X126800Y125200D02*X133200D01*
X126800D02*Y118800D01*
X133200D01*
Y125200D02*Y118800D01*
X209000Y126300D02*Y116700D01*
X204200Y121500D02*X213800D01*
X207400Y123100D02*X210600D01*
X207400D02*Y119900D01*
X210600D01*
Y123100D02*Y119900D01*
X205800Y124700D02*X212200D01*
X205800D02*Y118300D01*
X212200D01*
Y124700D02*Y118300D01*
X15000Y716050D02*Y706450D01*
X10200Y711250D02*X19800D01*
X13400Y712850D02*X16600D01*
X13400D02*Y709650D01*
X16600D01*
Y712850D02*Y709650D01*
X11800Y714450D02*X18200D01*
X11800D02*Y708050D01*
X18200D01*
Y714450D02*Y708050D01*
G54D37*X195000Y713500D02*Y712750D01*
X196500Y711250D01*
X198000Y712750D01*
Y713500D02*Y712750D01*
X196500Y711250D02*Y707500D01*
X199801Y710500D02*X202051D01*
X199801Y707500D02*X202801D01*
X199801Y713500D02*Y707500D01*
Y713500D02*X202801D01*
X207603D02*X208353Y712750D01*
X205353Y713500D02*X207603D01*
X204603Y712750D02*X205353Y713500D01*
X204603Y712750D02*Y711250D01*
X205353Y710500D01*
X207603D01*
X208353Y709750D01*
Y708250D01*
X207603Y707500D02*X208353Y708250D01*
X205353Y707500D02*X207603D01*
X204603Y708250D02*X205353Y707500D01*
X195000Y704249D02*X210154D01*
X158000Y712750D02*X158750Y713500D01*
X161000D01*
X161750Y712750D01*
Y711250D01*
X158000Y707500D02*X161750Y711250D01*
X158000Y707500D02*X161750D01*
X158000Y704249D02*X163551D01*
X41000Y708250D02*X41750Y707500D01*
X41000Y712750D02*Y708250D01*
Y712750D02*X41750Y713500D01*
X43250D01*
X44000Y712750D01*
Y708250D01*
X43250Y707500D02*X44000Y708250D01*
X41750Y707500D02*X43250D01*
X41000Y709000D02*X44000Y712000D01*
X45801Y707500D02*X46551D01*
X49103D02*X50603D01*
X49853Y713500D02*Y707500D01*
X48353Y712000D02*X49853Y713500D01*
X52404Y712750D02*X53154Y713500D01*
X54654D01*
X55404Y712750D01*
Y708250D01*
X54654Y707500D02*X55404Y708250D01*
X53154Y707500D02*X54654D01*
X52404Y708250D02*X53154Y707500D01*
Y710500D02*X55404D01*
X57206Y708250D02*X57956Y707500D01*
X57206Y712750D02*Y708250D01*
Y712750D02*X57956Y713500D01*
X59456D01*
X60206Y712750D01*
Y708250D01*
X59456Y707500D02*X60206Y708250D01*
X57956Y707500D02*X59456D01*
X57206Y709000D02*X60206Y712000D01*
X64707Y708250D02*X65457Y707500D01*
X64707Y712750D02*X65457Y713500D01*
X64707Y712750D02*Y708250D01*
X69959Y712750D02*X70709Y713500D01*
X72209D01*
X72959Y712750D01*
Y708250D01*
X72209Y707500D02*X72959Y708250D01*
X70709Y707500D02*X72209D01*
X69959Y708250D02*X70709Y707500D01*
Y710500D02*X72959D01*
X74760Y707500D02*X75510D01*
X77312Y712750D02*X78062Y713500D01*
X79562D01*
X80312Y712750D01*
Y708250D01*
X79562Y707500D02*X80312Y708250D01*
X78062Y707500D02*X79562D01*
X77312Y708250D02*X78062Y707500D01*
Y710500D02*X80312D01*
X82113Y708250D02*X82863Y707500D01*
X82113Y712750D02*Y708250D01*
Y712750D02*X82863Y713500D01*
X84363D01*
X85113Y712750D01*
Y708250D01*
X84363Y707500D02*X85113Y708250D01*
X82863Y707500D02*X84363D01*
X82113Y709000D02*X85113Y712000D01*
X86915Y712750D02*X87665Y713500D01*
X89915D01*
X90665Y712750D01*
Y711250D01*
X86915Y707500D02*X90665Y711250D01*
X86915Y707500D02*X90665D01*
X92466Y708250D02*X93216Y707500D01*
X92466Y712750D02*Y708250D01*
Y712750D02*X93216Y713500D01*
X94716D01*
X95466Y712750D01*
Y708250D01*
X94716Y707500D02*X95466Y708250D01*
X93216Y707500D02*X94716D01*
X92466Y709000D02*X95466Y712000D01*
X100718Y709750D02*Y707500D01*
Y709750D02*X101468Y710500D01*
X102218D01*
X102968Y709750D01*
Y707500D01*
Y709750D02*X103718Y710500D01*
X104468D01*
X105218Y709750D01*
Y707500D01*
X99968Y710500D02*X100718Y709750D01*
X107769D02*Y707500D01*
Y709750D02*X108519Y710500D01*
X109269D01*
X110019Y709750D01*
Y707500D01*
Y709750D02*X110769Y710500D01*
X111519D01*
X112269Y709750D01*
Y707500D01*
X107019Y710500D02*X107769Y709750D01*
X116771Y713500D02*X117521Y712750D01*
Y708250D01*
X116771Y707500D02*X117521Y708250D01*
X41000Y704249D02*X119322D01*
X274500Y124000D02*Y119200D01*
Y124000D02*X278660Y126400D01*
X274500Y124000D02*X270340Y126400D01*
X272900Y124000D02*G75*G03X276100Y124000I1600J0D01*G01*
G75*G03X272900Y124000I-1600J0D01*G01*
X271300D02*G75*G03X277700Y124000I3200J0D01*G01*
G75*G03X271300Y124000I-3200J0D01*G01*
X52500D02*Y119200D01*
Y124000D02*X56660Y126400D01*
X52500Y124000D02*X48340Y126400D01*
X50900Y124000D02*G75*G03X54100Y124000I1600J0D01*G01*
G75*G03X50900Y124000I-1600J0D01*G01*
X49300D02*G75*G03X55700Y124000I3200J0D01*G01*
G75*G03X49300Y124000I-3200J0D01*G01*
X274500Y625500D02*Y620700D01*
Y625500D02*X278660Y627900D01*
X274500Y625500D02*X270340Y627900D01*
X272900Y625500D02*G75*G03X276100Y625500I1600J0D01*G01*
G75*G03X272900Y625500I-1600J0D01*G01*
X271300D02*G75*G03X277700Y625500I3200J0D01*G01*
G75*G03X271300Y625500I-3200J0D01*G01*
X52500D02*Y620700D01*
Y625500D02*X56660Y627900D01*
X52500Y625500D02*X48340Y627900D01*
X50900Y625500D02*G75*G03X54100Y625500I1600J0D01*G01*
G75*G03X50900Y625500I-1600J0D01*G01*
X49300D02*G75*G03X55700Y625500I3200J0D01*G01*
G75*G03X49300Y625500I-3200J0D01*G01*
X15000Y726250D02*Y721450D01*
Y726250D02*X19160Y728650D01*
X15000Y726250D02*X10840Y728650D01*
X13400Y726250D02*G75*G03X16600Y726250I1600J0D01*G01*
G75*G03X13400Y726250I-1600J0D01*G01*
X11800D02*G75*G03X18200Y726250I3200J0D01*G01*
G75*G03X11800Y726250I-3200J0D01*G01*
X200000Y728500D02*Y722500D01*
Y728500D02*Y727750D01*
X203750Y724000D01*
Y728500D02*Y722500D01*
X205551Y727750D02*Y723250D01*
Y727750D02*X206301Y728500D01*
X207801D01*
X208551Y727750D01*
Y723250D01*
X207801Y722500D02*X208551Y723250D01*
X206301Y722500D02*X207801D01*
X205551Y723250D02*X206301Y722500D01*
X200000Y719249D02*X210353D01*
X158000Y725500D02*X161000Y728500D01*
X158000Y725500D02*X161750D01*
X161000Y728500D02*Y722500D01*
X158000Y719249D02*X163551D01*
X41000Y723250D02*X41750Y722500D01*
X41000Y727750D02*Y723250D01*
Y727750D02*X41750Y728500D01*
X43250D01*
X44000Y727750D01*
Y723250D01*
X43250Y722500D02*X44000Y723250D01*
X41750Y722500D02*X43250D01*
X41000Y724000D02*X44000Y727000D01*
X45801Y722500D02*X46551D01*
X49103D02*X50603D01*
X49853Y728500D02*Y722500D01*
X48353Y727000D02*X49853Y728500D01*
X52404Y727750D02*X53154Y728500D01*
X55404D01*
X56154Y727750D01*
Y726250D01*
X52404Y722500D02*X56154Y726250D01*
X52404Y722500D02*X56154D01*
X57956Y727750D02*X58706Y728500D01*
X60956D01*
X61706Y727750D01*
Y726250D01*
X57956Y722500D02*X61706Y726250D01*
X57956Y722500D02*X61706D01*
X66207Y723250D02*X66957Y722500D01*
X66207Y727750D02*X66957Y728500D01*
X66207Y727750D02*Y723250D01*
X71459Y727750D02*X72209Y728500D01*
X73709D01*
X74459Y727750D01*
Y723250D01*
X73709Y722500D02*X74459Y723250D01*
X72209Y722500D02*X73709D01*
X71459Y723250D02*X72209Y722500D01*
Y725500D02*X74459D01*
X76260Y722500D02*X77010D01*
X78812Y723250D02*X79562Y722500D01*
X78812Y727750D02*Y723250D01*
Y727750D02*X79562Y728500D01*
X81062D01*
X81812Y727750D01*
Y723250D01*
X81062Y722500D02*X81812Y723250D01*
X79562Y722500D02*X81062D01*
X78812Y724000D02*X81812Y727000D01*
X83613Y722500D02*X86613Y725500D01*
Y727750D02*Y725500D01*
X85863Y728500D02*X86613Y727750D01*
X84363Y728500D02*X85863D01*
X83613Y727750D02*X84363Y728500D01*
X83613Y727750D02*Y726250D01*
X84363Y725500D01*
X86613D01*
X88415Y723250D02*X89165Y722500D01*
X88415Y724750D02*Y723250D01*
Y724750D02*X89165Y725500D01*
X90665D01*
X91415Y724750D01*
Y723250D01*
X90665Y722500D02*X91415Y723250D01*
X89165Y722500D02*X90665D01*
X88415Y726250D02*X89165Y725500D01*
X88415Y727750D02*Y726250D01*
Y727750D02*X89165Y728500D01*
X90665D01*
X91415Y727750D01*
Y726250D01*
X90665Y725500D02*X91415Y726250D01*
X93216Y723250D02*X93966Y722500D01*
X93216Y724750D02*Y723250D01*
Y724750D02*X93966Y725500D01*
X95466D01*
X96216Y724750D01*
Y723250D01*
X95466Y722500D02*X96216Y723250D01*
X93966Y722500D02*X95466D01*
X93216Y726250D02*X93966Y725500D01*
X93216Y727750D02*Y726250D01*
Y727750D02*X93966Y728500D01*
X95466D01*
X96216Y727750D01*
Y726250D01*
X95466Y725500D02*X96216Y726250D01*
X101468Y724750D02*Y722500D01*
Y724750D02*X102218Y725500D01*
X102968D01*
X103718Y724750D01*
Y722500D01*
Y724750D02*X104468Y725500D01*
X105218D01*
X105968Y724750D01*
Y722500D01*
X100718Y725500D02*X101468Y724750D01*
X108519D02*Y722500D01*
Y724750D02*X109269Y725500D01*
X110019D01*
X110769Y724750D01*
Y722500D01*
Y724750D02*X111519Y725500D01*
X112269D01*
X113019Y724750D01*
Y722500D01*
X107769Y725500D02*X108519Y724750D01*
X117521Y728500D02*X118271Y727750D01*
Y723250D01*
X117521Y722500D02*X118271Y723250D01*
X41000Y719249D02*X120072D01*
X138400Y190600D02*X141600D01*
X138400D02*Y187400D01*
X141600D01*
Y190600D02*Y187400D01*
X136800Y192200D02*X143200D01*
X136800D02*Y185800D01*
X143200D01*
Y192200D02*Y185800D01*
X128400Y190600D02*X131600D01*
X128400D02*Y187400D01*
X131600D01*
Y190600D02*Y187400D01*
X126800Y192200D02*X133200D01*
X126800D02*Y185800D01*
X133200D01*
Y192200D02*Y185800D01*
X118400Y190600D02*X121600D01*
X118400D02*Y187400D01*
X121600D01*
Y190600D02*Y187400D01*
X116800Y192200D02*X123200D01*
X116800D02*Y185800D01*
X123200D01*
Y192200D02*Y185800D01*
X217400Y190100D02*X220600D01*
X217400D02*Y186900D01*
X220600D01*
Y190100D02*Y186900D01*
X215800Y191700D02*X222200D01*
X215800D02*Y185300D01*
X222200D01*
Y191700D02*Y185300D01*
X207400Y190100D02*X210600D01*
X207400D02*Y186900D01*
X210600D01*
Y190100D02*Y186900D01*
X205800Y191700D02*X212200D01*
X205800D02*Y185300D01*
X212200D01*
Y191700D02*Y185300D01*
X197400Y190100D02*X200600D01*
X197400D02*Y186900D01*
X200600D01*
Y190100D02*Y186900D01*
X195800Y191700D02*X202200D01*
X195800D02*Y185300D01*
X202200D01*
Y191700D02*Y185300D01*
X13400Y742850D02*X16600D01*
X13400D02*Y739650D01*
X16600D01*
Y742850D02*Y739650D01*
X11800Y744450D02*X18200D01*
X11800D02*Y738050D01*
X18200D01*
Y744450D02*Y738050D01*
X195000Y743500D02*Y742750D01*
X196500Y741250D01*
X198000Y742750D01*
Y743500D02*Y742750D01*
X196500Y741250D02*Y737500D01*
X199801Y740500D02*X202051D01*
X199801Y737500D02*X202801D01*
X199801Y743500D02*Y737500D01*
Y743500D02*X202801D01*
X207603D02*X208353Y742750D01*
X205353Y743500D02*X207603D01*
X204603Y742750D02*X205353Y743500D01*
X204603Y742750D02*Y741250D01*
X205353Y740500D01*
X207603D01*
X208353Y739750D01*
Y738250D01*
X207603Y737500D02*X208353Y738250D01*
X205353Y737500D02*X207603D01*
X204603Y738250D02*X205353Y737500D01*
X195000Y734249D02*X210154D01*
X160250Y743500D02*X161000Y742750D01*
X158750Y743500D02*X160250D01*
X158000Y742750D02*X158750Y743500D01*
X158000Y742750D02*Y738250D01*
X158750Y737500D01*
X160250Y740500D02*X161000Y739750D01*
X158000Y740500D02*X160250D01*
X158750Y737500D02*X160250D01*
X161000Y738250D01*
Y739750D02*Y738250D01*
X158000Y734249D02*X162801D01*
X41000Y738250D02*X41750Y737500D01*
X41000Y742750D02*Y738250D01*
Y742750D02*X41750Y743500D01*
X43250D01*
X44000Y742750D01*
Y738250D01*
X43250Y737500D02*X44000Y738250D01*
X41750Y737500D02*X43250D01*
X41000Y739000D02*X44000Y742000D01*
X45801Y737500D02*X46551D01*
X48353Y738250D02*X49103Y737500D01*
X48353Y742750D02*Y738250D01*
Y742750D02*X49103Y743500D01*
X50603D01*
X51353Y742750D01*
Y738250D01*
X50603Y737500D02*X51353Y738250D01*
X49103Y737500D02*X50603D01*
X48353Y739000D02*X51353Y742000D01*
X55404Y743500D02*X56154Y742750D01*
X53904Y743500D02*X55404D01*
X53154Y742750D02*X53904Y743500D01*
X53154Y742750D02*Y738250D01*
X53904Y737500D01*
X55404Y740500D02*X56154Y739750D01*
X53154Y740500D02*X55404D01*
X53904Y737500D02*X55404D01*
X56154Y738250D01*
Y739750D02*Y738250D01*
X57956D02*X58706Y737500D01*
X57956Y742750D02*Y738250D01*
Y742750D02*X58706Y743500D01*
X60206D01*
X60956Y742750D01*
Y738250D01*
X60206Y737500D02*X60956Y738250D01*
X58706Y737500D02*X60206D01*
X57956Y739000D02*X60956Y742000D01*
X65457Y738250D02*X66207Y737500D01*
X65457Y742750D02*X66207Y743500D01*
X65457Y742750D02*Y738250D01*
X71459Y737500D02*X72959D01*
X72209Y743500D02*Y737500D01*
X70709Y742000D02*X72209Y743500D01*
X74760Y737500D02*X75510D01*
X77312Y743500D02*X80312D01*
X77312D02*Y740500D01*
X78062Y741250D01*
X79562D01*
X80312Y740500D01*
Y738250D01*
X79562Y737500D02*X80312Y738250D01*
X78062Y737500D02*X79562D01*
X77312Y738250D02*X78062Y737500D01*
X82113Y742750D02*X82863Y743500D01*
X85113D01*
X85863Y742750D01*
Y741250D01*
X82113Y737500D02*X85863Y741250D01*
X82113Y737500D02*X85863D01*
X87665Y740500D02*X90665Y743500D01*
X87665Y740500D02*X91415D01*
X90665Y743500D02*Y737500D01*
X93216Y738250D02*X93966Y737500D01*
X93216Y742750D02*Y738250D01*
Y742750D02*X93966Y743500D01*
X95466D01*
X96216Y742750D01*
Y738250D01*
X95466Y737500D02*X96216Y738250D01*
X93966Y737500D02*X95466D01*
X93216Y739000D02*X96216Y742000D01*
X101468Y739750D02*Y737500D01*
Y739750D02*X102218Y740500D01*
X102968D01*
X103718Y739750D01*
Y737500D01*
Y739750D02*X104468Y740500D01*
X105218D01*
X105968Y739750D01*
Y737500D01*
X100718Y740500D02*X101468Y739750D01*
X108519D02*Y737500D01*
Y739750D02*X109269Y740500D01*
X110019D01*
X110769Y739750D01*
Y737500D01*
Y739750D02*X111519Y740500D01*
X112269D01*
X113019Y739750D01*
Y737500D01*
X107769Y740500D02*X108519Y739750D01*
X117521Y743500D02*X118271Y742750D01*
Y738250D01*
X117521Y737500D02*X118271Y738250D01*
X41000Y734249D02*X120072D01*
X276700Y233500D02*G75*G03X278300Y233500I800J0D01*G01*
G75*G03X276700Y233500I-800J0D01*G01*
X275100D02*G75*G03X279900Y233500I2400J0D01*G01*
G75*G03X275100Y233500I-2400J0D01*G01*
X276700Y153500D02*G75*G03X278300Y153500I800J0D01*G01*
G75*G03X276700Y153500I-800J0D01*G01*
X275100D02*G75*G03X279900Y153500I2400J0D01*G01*
G75*G03X275100Y153500I-2400J0D01*G01*
X14200Y756250D02*G75*G03X15800Y756250I800J0D01*G01*
G75*G03X14200Y756250I-800J0D01*G01*
X12600D02*G75*G03X17400Y756250I2400J0D01*G01*
G75*G03X12600Y756250I-2400J0D01*G01*
X195000Y758500D02*Y757750D01*
X196500Y756250D01*
X198000Y757750D01*
Y758500D02*Y757750D01*
X196500Y756250D02*Y752500D01*
X199801Y755500D02*X202051D01*
X199801Y752500D02*X202801D01*
X199801Y758500D02*Y752500D01*
Y758500D02*X202801D01*
X207603D02*X208353Y757750D01*
X205353Y758500D02*X207603D01*
X204603Y757750D02*X205353Y758500D01*
X204603Y757750D02*Y756250D01*
X205353Y755500D01*
X207603D01*
X208353Y754750D01*
Y753250D01*
X207603Y752500D02*X208353Y753250D01*
X205353Y752500D02*X207603D01*
X204603Y753250D02*X205353Y752500D01*
X195000Y749249D02*X210154D01*
X158000Y757750D02*X158750Y758500D01*
X161000D01*
X161750Y757750D01*
Y756250D01*
X158000Y752500D02*X161750Y756250D01*
X158000Y752500D02*X161750D01*
X158000Y749249D02*X163551D01*
X41000Y753250D02*X41750Y752500D01*
X41000Y757750D02*Y753250D01*
Y757750D02*X41750Y758500D01*
X43250D01*
X44000Y757750D01*
Y753250D01*
X43250Y752500D02*X44000Y753250D01*
X41750Y752500D02*X43250D01*
X41000Y754000D02*X44000Y757000D01*
X45801Y752500D02*X46551D01*
X48353Y753250D02*X49103Y752500D01*
X48353Y757750D02*Y753250D01*
Y757750D02*X49103Y758500D01*
X50603D01*
X51353Y757750D01*
Y753250D01*
X50603Y752500D02*X51353Y753250D01*
X49103Y752500D02*X50603D01*
X48353Y754000D02*X51353Y757000D01*
X53154Y758500D02*X56154D01*
X53154D02*Y755500D01*
X53904Y756250D01*
X55404D01*
X56154Y755500D01*
Y753250D01*
X55404Y752500D02*X56154Y753250D01*
X53904Y752500D02*X55404D01*
X53154Y753250D02*X53904Y752500D01*
X57956Y753250D02*X58706Y752500D01*
X57956Y757750D02*Y753250D01*
Y757750D02*X58706Y758500D01*
X60206D01*
X60956Y757750D01*
Y753250D01*
X60206Y752500D02*X60956Y753250D01*
X58706Y752500D02*X60206D01*
X57956Y754000D02*X60956Y757000D01*
X65457Y753250D02*X66207Y752500D01*
X65457Y757750D02*X66207Y758500D01*
X65457Y757750D02*Y753250D01*
X71459Y752500D02*X72959D01*
X72209Y758500D02*Y752500D01*
X70709Y757000D02*X72209Y758500D01*
X74760Y752500D02*X75510D01*
X77312Y757750D02*X78062Y758500D01*
X80312D01*
X81062Y757750D01*
Y756250D01*
X77312Y752500D02*X81062Y756250D01*
X77312Y752500D02*X81062D01*
X82863D02*X86613Y756250D01*
Y758500D02*Y756250D01*
X82863Y758500D02*X86613D01*
X88415Y753250D02*X89165Y752500D01*
X88415Y757750D02*Y753250D01*
Y757750D02*X89165Y758500D01*
X90665D01*
X91415Y757750D01*
Y753250D01*
X90665Y752500D02*X91415Y753250D01*
X89165Y752500D02*X90665D01*
X88415Y754000D02*X91415Y757000D01*
X93216Y753250D02*X93966Y752500D01*
X93216Y757750D02*Y753250D01*
Y757750D02*X93966Y758500D01*
X95466D01*
X96216Y757750D01*
Y753250D01*
X95466Y752500D02*X96216Y753250D01*
X93966Y752500D02*X95466D01*
X93216Y754000D02*X96216Y757000D01*
X101468Y754750D02*Y752500D01*
Y754750D02*X102218Y755500D01*
X102968D01*
X103718Y754750D01*
Y752500D01*
Y754750D02*X104468Y755500D01*
X105218D01*
X105968Y754750D01*
Y752500D01*
X100718Y755500D02*X101468Y754750D01*
X108519D02*Y752500D01*
Y754750D02*X109269Y755500D01*
X110019D01*
X110769Y754750D01*
Y752500D01*
Y754750D02*X111519Y755500D01*
X112269D01*
X113019Y754750D01*
Y752500D01*
X107769Y755500D02*X108519Y754750D01*
X117521Y758500D02*X118271Y757750D01*
Y753250D01*
X117521Y752500D02*X118271Y753250D01*
X41000Y749249D02*X120072D01*
X155600Y572900D02*X160400Y568100D01*
X155600D02*X160400Y572900D01*
X156400Y572100D02*X159600D01*
X156400D02*Y568900D01*
X159600D01*
Y572100D02*Y568900D01*
X165600Y572900D02*X170400Y568100D01*
X165600D02*X170400Y572900D01*
X166400Y572100D02*X169600D01*
X166400D02*Y568900D01*
X169600D01*
Y572100D02*Y568900D01*
X68600Y572900D02*X73400Y568100D01*
X68600D02*X73400Y572900D01*
X69400Y572100D02*X72600D01*
X69400D02*Y568900D01*
X72600D01*
Y572100D02*Y568900D01*
X78600Y572900D02*X83400Y568100D01*
X78600D02*X83400Y572900D01*
X79400Y572100D02*X82600D01*
X79400D02*Y568900D01*
X82600D01*
Y572100D02*Y568900D01*
X242600Y522900D02*X247400Y518100D01*
X242600D02*X247400Y522900D01*
X243400Y522100D02*X246600D01*
X243400D02*Y518900D01*
X246600D01*
Y522100D02*Y518900D01*
X252600Y522900D02*X257400Y518100D01*
X252600D02*X257400Y522900D01*
X253400Y522100D02*X256600D01*
X253400D02*Y518900D01*
X256600D01*
Y522100D02*Y518900D01*
X242600Y572900D02*X247400Y568100D01*
X242600D02*X247400Y572900D01*
X243400Y572100D02*X246600D01*
X243400D02*Y568900D01*
X246600D01*
Y572100D02*Y568900D01*
X252600Y572900D02*X257400Y568100D01*
X252600D02*X257400Y572900D01*
X253400Y572100D02*X256600D01*
X253400D02*Y568900D01*
X256600D01*
Y572100D02*Y568900D01*
X112100Y622900D02*X116900Y618100D01*
X112100D02*X116900Y622900D01*
X112900Y622100D02*X116100D01*
X112900D02*Y618900D01*
X116100D01*
Y622100D02*Y618900D01*
X122100Y622900D02*X126900Y618100D01*
X122100D02*X126900Y622900D01*
X122900Y622100D02*X126100D01*
X122900D02*Y618900D01*
X126100D01*
Y622100D02*Y618900D01*
X199100Y622900D02*X203900Y618100D01*
X199100D02*X203900Y622900D01*
X199900Y622100D02*X203100D01*
X199900D02*Y618900D01*
X203100D01*
Y622100D02*Y618900D01*
X209100Y622900D02*X213900Y618100D01*
X209100D02*X213900Y622900D01*
X209900Y622100D02*X213100D01*
X209900D02*Y618900D01*
X213100D01*
Y622100D02*Y618900D01*
X68600Y522900D02*X73400Y518100D01*
X68600D02*X73400Y522900D01*
X69400Y522100D02*X72600D01*
X69400D02*Y518900D01*
X72600D01*
Y522100D02*Y518900D01*
X78600Y522900D02*X83400Y518100D01*
X78600D02*X83400Y522900D01*
X79400Y522100D02*X82600D01*
X79400D02*Y518900D01*
X82600D01*
Y522100D02*Y518900D01*
X155600Y522900D02*X160400Y518100D01*
X155600D02*X160400Y522900D01*
X156400Y522100D02*X159600D01*
X156400D02*Y518900D01*
X159600D01*
Y522100D02*Y518900D01*
X165600Y522900D02*X170400Y518100D01*
X165600D02*X170400Y522900D01*
X166400Y522100D02*X169600D01*
X166400D02*Y518900D01*
X169600D01*
Y522100D02*Y518900D01*
X12600Y773650D02*X17400Y768850D01*
X12600D02*X17400Y773650D01*
X13400Y772850D02*X16600D01*
X13400D02*Y769650D01*
X16600D01*
Y772850D02*Y769650D01*
X195000Y773500D02*Y772750D01*
X196500Y771250D01*
X198000Y772750D01*
Y773500D02*Y772750D01*
X196500Y771250D02*Y767500D01*
X199801Y770500D02*X202051D01*
X199801Y767500D02*X202801D01*
X199801Y773500D02*Y767500D01*
Y773500D02*X202801D01*
X207603D02*X208353Y772750D01*
X205353Y773500D02*X207603D01*
X204603Y772750D02*X205353Y773500D01*
X204603Y772750D02*Y771250D01*
X205353Y770500D01*
X207603D01*
X208353Y769750D01*
Y768250D01*
X207603Y767500D02*X208353Y768250D01*
X205353Y767500D02*X207603D01*
X204603Y768250D02*X205353Y767500D01*
X195000Y764249D02*X210154D01*
X158750Y767500D02*X160250D01*
X159500Y773500D02*Y767500D01*
X158000Y772000D02*X159500Y773500D01*
X164301D02*X165051Y772750D01*
X162801Y773500D02*X164301D01*
X162051Y772750D02*X162801Y773500D01*
X162051Y772750D02*Y768250D01*
X162801Y767500D01*
X164301Y770500D02*X165051Y769750D01*
X162051Y770500D02*X164301D01*
X162801Y767500D02*X164301D01*
X165051Y768250D01*
Y769750D02*Y768250D01*
X158000Y764249D02*X166853D01*
X41000Y768250D02*X41750Y767500D01*
X41000Y772750D02*Y768250D01*
Y772750D02*X41750Y773500D01*
X43250D01*
X44000Y772750D01*
Y768250D01*
X43250Y767500D02*X44000Y768250D01*
X41750Y767500D02*X43250D01*
X41000Y769000D02*X44000Y772000D01*
X45801Y767500D02*X46551D01*
X48353Y768250D02*X49103Y767500D01*
X48353Y772750D02*Y768250D01*
Y772750D02*X49103Y773500D01*
X50603D01*
X51353Y772750D01*
Y768250D01*
X50603Y767500D02*X51353Y768250D01*
X49103Y767500D02*X50603D01*
X48353Y769000D02*X51353Y772000D01*
X53154Y770500D02*X56154Y773500D01*
X53154Y770500D02*X56904D01*
X56154Y773500D02*Y767500D01*
X58706Y772750D02*X59456Y773500D01*
X60956D01*
X61706Y772750D01*
Y768250D01*
X60956Y767500D02*X61706Y768250D01*
X59456Y767500D02*X60956D01*
X58706Y768250D02*X59456Y767500D01*
Y770500D02*X61706D01*
X66207Y768250D02*X66957Y767500D01*
X66207Y772750D02*X66957Y773500D01*
X66207Y772750D02*Y768250D01*
X72209Y767500D02*X73709D01*
X72959Y773500D02*Y767500D01*
X71459Y772000D02*X72959Y773500D01*
X75510Y767500D02*X76260D01*
X78062Y768250D02*X78812Y767500D01*
X78062Y772750D02*Y768250D01*
Y772750D02*X78812Y773500D01*
X80312D01*
X81062Y772750D01*
Y768250D01*
X80312Y767500D02*X81062Y768250D01*
X78812Y767500D02*X80312D01*
X78062Y769000D02*X81062Y772000D01*
X82863Y767500D02*X85863Y770500D01*
Y772750D02*Y770500D01*
X85113Y773500D02*X85863Y772750D01*
X83613Y773500D02*X85113D01*
X82863Y772750D02*X83613Y773500D01*
X82863Y772750D02*Y771250D01*
X83613Y770500D01*
X85863D01*
X87665Y772750D02*X88415Y773500D01*
X90665D01*
X91415Y772750D01*
Y771250D01*
X87665Y767500D02*X91415Y771250D01*
X87665Y767500D02*X91415D01*
X93216Y772750D02*X93966Y773500D01*
X96216D01*
X96966Y772750D01*
Y771250D01*
X93216Y767500D02*X96966Y771250D01*
X93216Y767500D02*X96966D01*
X102218Y769750D02*Y767500D01*
Y769750D02*X102968Y770500D01*
X103718D01*
X104468Y769750D01*
Y767500D01*
Y769750D02*X105218Y770500D01*
X105968D01*
X106718Y769750D01*
Y767500D01*
X101468Y770500D02*X102218Y769750D01*
X109269D02*Y767500D01*
Y769750D02*X110019Y770500D01*
X110769D01*
X111519Y769750D01*
Y767500D01*
Y769750D02*X112269Y770500D01*
X113019D01*
X113769Y769750D01*
Y767500D01*
X108519Y770500D02*X109269Y769750D01*
X118271Y773500D02*X119021Y772750D01*
Y768250D01*
X118271Y767500D02*X119021Y768250D01*
X41000Y764249D02*X120822D01*
X168500Y377700D02*Y371300D01*
X165300Y374500D02*X171700D01*
X166900Y376100D02*X170100D01*
X166900D02*Y372900D01*
X170100D01*
Y376100D02*Y372900D01*
X158500Y377700D02*Y371300D01*
X155300Y374500D02*X161700D01*
X156900Y376100D02*X160100D01*
X156900D02*Y372900D01*
X160100D01*
Y376100D02*Y372900D01*
X148500Y377700D02*Y371300D01*
X145300Y374500D02*X151700D01*
X146900Y376100D02*X150100D01*
X146900D02*Y372900D01*
X150100D01*
Y376100D02*Y372900D01*
X15000Y789450D02*Y783050D01*
X11800Y786250D02*X18200D01*
X13400Y787850D02*X16600D01*
X13400D02*Y784650D01*
X16600D01*
Y787850D02*Y784650D01*
X195000Y788500D02*Y787750D01*
X196500Y786250D01*
X198000Y787750D01*
Y788500D02*Y787750D01*
X196500Y786250D02*Y782500D01*
X199801Y785500D02*X202051D01*
X199801Y782500D02*X202801D01*
X199801Y788500D02*Y782500D01*
Y788500D02*X202801D01*
X207603D02*X208353Y787750D01*
X205353Y788500D02*X207603D01*
X204603Y787750D02*X205353Y788500D01*
X204603Y787750D02*Y786250D01*
X205353Y785500D01*
X207603D01*
X208353Y784750D01*
Y783250D01*
X207603Y782500D02*X208353Y783250D01*
X205353Y782500D02*X207603D01*
X204603Y783250D02*X205353Y782500D01*
X195000Y779249D02*X210154D01*
X158000Y787750D02*X158750Y788500D01*
X160250D01*
X161000Y787750D01*
Y783250D01*
X160250Y782500D02*X161000Y783250D01*
X158750Y782500D02*X160250D01*
X158000Y783250D02*X158750Y782500D01*
Y785500D02*X161000D01*
X158000Y779249D02*X162801D01*
X41000Y783250D02*X41750Y782500D01*
X41000Y787750D02*Y783250D01*
Y787750D02*X41750Y788500D01*
X43250D01*
X44000Y787750D01*
Y783250D01*
X43250Y782500D02*X44000Y783250D01*
X41750Y782500D02*X43250D01*
X41000Y784000D02*X44000Y787000D01*
X45801Y782500D02*X46551D01*
X48353Y783250D02*X49103Y782500D01*
X48353Y787750D02*Y783250D01*
Y787750D02*X49103Y788500D01*
X50603D01*
X51353Y787750D01*
Y783250D01*
X50603Y782500D02*X51353Y783250D01*
X49103Y782500D02*X50603D01*
X48353Y784000D02*X51353Y787000D01*
X53154Y785500D02*X56154Y788500D01*
X53154Y785500D02*X56904D01*
X56154Y788500D02*Y782500D01*
X58706Y787750D02*X59456Y788500D01*
X61706D01*
X62456Y787750D01*
Y786250D01*
X58706Y782500D02*X62456Y786250D01*
X58706Y782500D02*X62456D01*
X66957Y783250D02*X67707Y782500D01*
X66957Y787750D02*X67707Y788500D01*
X66957Y787750D02*Y783250D01*
X72959Y782500D02*X74459D01*
X73709Y788500D02*Y782500D01*
X72209Y787000D02*X73709Y788500D01*
X76260Y782500D02*X77010D01*
X78812Y783250D02*X79562Y782500D01*
X78812Y787750D02*Y783250D01*
Y787750D02*X79562Y788500D01*
X81062D01*
X81812Y787750D01*
Y783250D01*
X81062Y782500D02*X81812Y783250D01*
X79562Y782500D02*X81062D01*
X78812Y784000D02*X81812Y787000D01*
X85863Y788500D02*X86613Y787750D01*
X84363Y788500D02*X85863D01*
X83613Y787750D02*X84363Y788500D01*
X83613Y787750D02*Y783250D01*
X84363Y782500D01*
X85863Y785500D02*X86613Y784750D01*
X83613Y785500D02*X85863D01*
X84363Y782500D02*X85863D01*
X86613Y783250D01*
Y784750D02*Y783250D01*
X90665Y788500D02*X91415Y787750D01*
X89165Y788500D02*X90665D01*
X88415Y787750D02*X89165Y788500D01*
X88415Y787750D02*Y783250D01*
X89165Y782500D01*
X90665Y785500D02*X91415Y784750D01*
X88415Y785500D02*X90665D01*
X89165Y782500D02*X90665D01*
X91415Y783250D01*
Y784750D02*Y783250D01*
X93216D02*X93966Y782500D01*
X93216Y784750D02*Y783250D01*
Y784750D02*X93966Y785500D01*
X95466D01*
X96216Y784750D01*
Y783250D01*
X95466Y782500D02*X96216Y783250D01*
X93966Y782500D02*X95466D01*
X93216Y786250D02*X93966Y785500D01*
X93216Y787750D02*Y786250D01*
Y787750D02*X93966Y788500D01*
X95466D01*
X96216Y787750D01*
Y786250D01*
X95466Y785500D02*X96216Y786250D01*
X101468Y784750D02*Y782500D01*
Y784750D02*X102218Y785500D01*
X102968D01*
X103718Y784750D01*
Y782500D01*
Y784750D02*X104468Y785500D01*
X105218D01*
X105968Y784750D01*
Y782500D01*
X100718Y785500D02*X101468Y784750D01*
X108519D02*Y782500D01*
Y784750D02*X109269Y785500D01*
X110019D01*
X110769Y784750D01*
Y782500D01*
Y784750D02*X111519Y785500D01*
X112269D01*
X113019Y784750D01*
Y782500D01*
X107769Y785500D02*X108519Y784750D01*
X117521Y788500D02*X118271Y787750D01*
Y783250D01*
X117521Y782500D02*X118271Y783250D01*
X41000Y779249D02*X120072D01*
X214000Y214500D02*Y211300D01*
Y214500D02*X216773Y216100D01*
X214000Y214500D02*X211227Y216100D01*
X212400Y214500D02*G75*G03X215600Y214500I1600J0D01*G01*
G75*G03X212400Y214500I-1600J0D01*G01*
X214000Y224500D02*Y221300D01*
Y224500D02*X216773Y226100D01*
X214000Y224500D02*X211227Y226100D01*
X212400Y224500D02*G75*G03X215600Y224500I1600J0D01*G01*
G75*G03X212400Y224500I-1600J0D01*G01*
X214000Y234500D02*Y231300D01*
Y234500D02*X216773Y236100D01*
X214000Y234500D02*X211227Y236100D01*
X212400Y234500D02*G75*G03X215600Y234500I1600J0D01*G01*
G75*G03X212400Y234500I-1600J0D01*G01*
X214000Y244500D02*Y241300D01*
Y244500D02*X216773Y246100D01*
X214000Y244500D02*X211227Y246100D01*
X212400Y244500D02*G75*G03X215600Y244500I1600J0D01*G01*
G75*G03X212400Y244500I-1600J0D01*G01*
X214000Y254500D02*Y251300D01*
Y254500D02*X216773Y256100D01*
X214000Y254500D02*X211227Y256100D01*
X212400Y254500D02*G75*G03X215600Y254500I1600J0D01*G01*
G75*G03X212400Y254500I-1600J0D01*G01*
X45000Y179500D02*Y176300D01*
Y179500D02*X47773Y181100D01*
X45000Y179500D02*X42227Y181100D01*
X43400Y179500D02*G75*G03X46600Y179500I1600J0D01*G01*
G75*G03X43400Y179500I-1600J0D01*G01*
X45000Y169500D02*Y166300D01*
Y169500D02*X47773Y171100D01*
X45000Y169500D02*X42227Y171100D01*
X43400Y169500D02*G75*G03X46600Y169500I1600J0D01*G01*
G75*G03X43400Y169500I-1600J0D01*G01*
X45000Y159500D02*Y156300D01*
Y159500D02*X47773Y161100D01*
X45000Y159500D02*X42227Y161100D01*
X43400Y159500D02*G75*G03X46600Y159500I1600J0D01*G01*
G75*G03X43400Y159500I-1600J0D01*G01*
X136000Y299000D02*Y295800D01*
Y299000D02*X138773Y300600D01*
X136000Y299000D02*X133227Y300600D01*
X134400Y299000D02*G75*G03X137600Y299000I1600J0D01*G01*
G75*G03X134400Y299000I-1600J0D01*G01*
X146000D02*Y295800D01*
Y299000D02*X148773Y300600D01*
X146000Y299000D02*X143227Y300600D01*
X144400Y299000D02*G75*G03X147600Y299000I1600J0D01*G01*
G75*G03X144400Y299000I-1600J0D01*G01*
X156000D02*Y295800D01*
Y299000D02*X158773Y300600D01*
X156000Y299000D02*X153227Y300600D01*
X154400Y299000D02*G75*G03X157600Y299000I1600J0D01*G01*
G75*G03X154400Y299000I-1600J0D01*G01*
X166000D02*Y295800D01*
Y299000D02*X168773Y300600D01*
X166000Y299000D02*X163227Y300600D01*
X164400Y299000D02*G75*G03X167600Y299000I1600J0D01*G01*
G75*G03X164400Y299000I-1600J0D01*G01*
X176000D02*Y295800D01*
Y299000D02*X178773Y300600D01*
X176000Y299000D02*X173227Y300600D01*
X174400Y299000D02*G75*G03X177600Y299000I1600J0D01*G01*
G75*G03X174400Y299000I-1600J0D01*G01*
X186000D02*Y295800D01*
Y299000D02*X188773Y300600D01*
X186000Y299000D02*X183227Y300600D01*
X184400Y299000D02*G75*G03X187600Y299000I1600J0D01*G01*
G75*G03X184400Y299000I-1600J0D01*G01*
X196000D02*Y295800D01*
Y299000D02*X198773Y300600D01*
X196000Y299000D02*X193227Y300600D01*
X194400Y299000D02*G75*G03X197600Y299000I1600J0D01*G01*
G75*G03X194400Y299000I-1600J0D01*G01*
X206000D02*Y295800D01*
Y299000D02*X208773Y300600D01*
X206000Y299000D02*X203227Y300600D01*
X204400Y299000D02*G75*G03X207600Y299000I1600J0D01*G01*
G75*G03X204400Y299000I-1600J0D01*G01*
X136000Y289000D02*Y285800D01*
Y289000D02*X138773Y290600D01*
X136000Y289000D02*X133227Y290600D01*
X134400Y289000D02*G75*G03X137600Y289000I1600J0D01*G01*
G75*G03X134400Y289000I-1600J0D01*G01*
X146000D02*Y285800D01*
Y289000D02*X148773Y290600D01*
X146000Y289000D02*X143227Y290600D01*
X144400Y289000D02*G75*G03X147600Y289000I1600J0D01*G01*
G75*G03X144400Y289000I-1600J0D01*G01*
X156000D02*Y285800D01*
Y289000D02*X158773Y290600D01*
X156000Y289000D02*X153227Y290600D01*
X154400Y289000D02*G75*G03X157600Y289000I1600J0D01*G01*
G75*G03X154400Y289000I-1600J0D01*G01*
X166000D02*Y285800D01*
Y289000D02*X168773Y290600D01*
X166000Y289000D02*X163227Y290600D01*
X164400Y289000D02*G75*G03X167600Y289000I1600J0D01*G01*
G75*G03X164400Y289000I-1600J0D01*G01*
X176000D02*Y285800D01*
Y289000D02*X178773Y290600D01*
X176000Y289000D02*X173227Y290600D01*
X174400Y289000D02*G75*G03X177600Y289000I1600J0D01*G01*
G75*G03X174400Y289000I-1600J0D01*G01*
X186000D02*Y285800D01*
Y289000D02*X188773Y290600D01*
X186000Y289000D02*X183227Y290600D01*
X184400Y289000D02*G75*G03X187600Y289000I1600J0D01*G01*
G75*G03X184400Y289000I-1600J0D01*G01*
X196000D02*Y285800D01*
Y289000D02*X198773Y290600D01*
X196000Y289000D02*X193227Y290600D01*
X194400Y289000D02*G75*G03X197600Y289000I1600J0D01*G01*
G75*G03X194400Y289000I-1600J0D01*G01*
X206000D02*Y285800D01*
Y289000D02*X208773Y290600D01*
X206000Y289000D02*X203227Y290600D01*
X204400Y289000D02*G75*G03X207600Y289000I1600J0D01*G01*
G75*G03X204400Y289000I-1600J0D01*G01*
X56000D02*Y285800D01*
Y289000D02*X58773Y290600D01*
X56000Y289000D02*X53227Y290600D01*
X54400Y289000D02*G75*G03X57600Y289000I1600J0D01*G01*
G75*G03X54400Y289000I-1600J0D01*G01*
X66000D02*Y285800D01*
Y289000D02*X68773Y290600D01*
X66000Y289000D02*X63227Y290600D01*
X64400Y289000D02*G75*G03X67600Y289000I1600J0D01*G01*
G75*G03X64400Y289000I-1600J0D01*G01*
X76000D02*Y285800D01*
Y289000D02*X78773Y290600D01*
X76000Y289000D02*X73227Y290600D01*
X74400Y289000D02*G75*G03X77600Y289000I1600J0D01*G01*
G75*G03X74400Y289000I-1600J0D01*G01*
X86000D02*Y285800D01*
Y289000D02*X88773Y290600D01*
X86000Y289000D02*X83227Y290600D01*
X84400Y289000D02*G75*G03X87600Y289000I1600J0D01*G01*
G75*G03X84400Y289000I-1600J0D01*G01*
X96000D02*Y285800D01*
Y289000D02*X98773Y290600D01*
X96000Y289000D02*X93227Y290600D01*
X94400Y289000D02*G75*G03X97600Y289000I1600J0D01*G01*
G75*G03X94400Y289000I-1600J0D01*G01*
X106000D02*Y285800D01*
Y289000D02*X108773Y290600D01*
X106000Y289000D02*X103227Y290600D01*
X104400Y289000D02*G75*G03X107600Y289000I1600J0D01*G01*
G75*G03X104400Y289000I-1600J0D01*G01*
X56000Y299000D02*Y295800D01*
Y299000D02*X58773Y300600D01*
X56000Y299000D02*X53227Y300600D01*
X54400Y299000D02*G75*G03X57600Y299000I1600J0D01*G01*
G75*G03X54400Y299000I-1600J0D01*G01*
X66000D02*Y295800D01*
Y299000D02*X68773Y300600D01*
X66000Y299000D02*X63227Y300600D01*
X64400Y299000D02*G75*G03X67600Y299000I1600J0D01*G01*
G75*G03X64400Y299000I-1600J0D01*G01*
X76000D02*Y295800D01*
Y299000D02*X78773Y300600D01*
X76000Y299000D02*X73227Y300600D01*
X74400Y299000D02*G75*G03X77600Y299000I1600J0D01*G01*
G75*G03X74400Y299000I-1600J0D01*G01*
X86000D02*Y295800D01*
Y299000D02*X88773Y300600D01*
X86000Y299000D02*X83227Y300600D01*
X84400Y299000D02*G75*G03X87600Y299000I1600J0D01*G01*
G75*G03X84400Y299000I-1600J0D01*G01*
X96000D02*Y295800D01*
Y299000D02*X98773Y300600D01*
X96000Y299000D02*X93227Y300600D01*
X94400Y299000D02*G75*G03X97600Y299000I1600J0D01*G01*
G75*G03X94400Y299000I-1600J0D01*G01*
X106000D02*Y295800D01*
Y299000D02*X108773Y300600D01*
X106000Y299000D02*X103227Y300600D01*
X104400Y299000D02*G75*G03X107600Y299000I1600J0D01*G01*
G75*G03X104400Y299000I-1600J0D01*G01*
X238000Y274500D02*Y271300D01*
Y274500D02*X240773Y276100D01*
X238000Y274500D02*X235227Y276100D01*
X236400Y274500D02*G75*G03X239600Y274500I1600J0D01*G01*
G75*G03X236400Y274500I-1600J0D01*G01*
X238000Y264500D02*Y261300D01*
Y264500D02*X240773Y266100D01*
X238000Y264500D02*X235227Y266100D01*
X236400Y264500D02*G75*G03X239600Y264500I1600J0D01*G01*
G75*G03X236400Y264500I-1600J0D01*G01*
X238000Y254500D02*Y251300D01*
Y254500D02*X240773Y256100D01*
X238000Y254500D02*X235227Y256100D01*
X236400Y254500D02*G75*G03X239600Y254500I1600J0D01*G01*
G75*G03X236400Y254500I-1600J0D01*G01*
X238000Y244500D02*Y241300D01*
Y244500D02*X240773Y246100D01*
X238000Y244500D02*X235227Y246100D01*
X236400Y244500D02*G75*G03X239600Y244500I1600J0D01*G01*
G75*G03X236400Y244500I-1600J0D01*G01*
X238000Y234500D02*Y231300D01*
Y234500D02*X240773Y236100D01*
X238000Y234500D02*X235227Y236100D01*
X236400Y234500D02*G75*G03X239600Y234500I1600J0D01*G01*
G75*G03X236400Y234500I-1600J0D01*G01*
X238000Y224500D02*Y221300D01*
Y224500D02*X240773Y226100D01*
X238000Y224500D02*X235227Y226100D01*
X236400Y224500D02*G75*G03X239600Y224500I1600J0D01*G01*
G75*G03X236400Y224500I-1600J0D01*G01*
X238000Y214500D02*Y211300D01*
Y214500D02*X240773Y216100D01*
X238000Y214500D02*X235227Y216100D01*
X236400Y214500D02*G75*G03X239600Y214500I1600J0D01*G01*
G75*G03X236400Y214500I-1600J0D01*G01*
X248000Y274500D02*Y271300D01*
Y274500D02*X250773Y276100D01*
X248000Y274500D02*X245227Y276100D01*
X246400Y274500D02*G75*G03X249600Y274500I1600J0D01*G01*
G75*G03X246400Y274500I-1600J0D01*G01*
X248000Y264500D02*Y261300D01*
Y264500D02*X250773Y266100D01*
X248000Y264500D02*X245227Y266100D01*
X246400Y264500D02*G75*G03X249600Y264500I1600J0D01*G01*
G75*G03X246400Y264500I-1600J0D01*G01*
X248000Y254500D02*Y251300D01*
Y254500D02*X250773Y256100D01*
X248000Y254500D02*X245227Y256100D01*
X246400Y254500D02*G75*G03X249600Y254500I1600J0D01*G01*
G75*G03X246400Y254500I-1600J0D01*G01*
X248000Y244500D02*Y241300D01*
Y244500D02*X250773Y246100D01*
X248000Y244500D02*X245227Y246100D01*
X246400Y244500D02*G75*G03X249600Y244500I1600J0D01*G01*
G75*G03X246400Y244500I-1600J0D01*G01*
X248000Y234500D02*Y231300D01*
Y234500D02*X250773Y236100D01*
X248000Y234500D02*X245227Y236100D01*
X246400Y234500D02*G75*G03X249600Y234500I1600J0D01*G01*
G75*G03X246400Y234500I-1600J0D01*G01*
X248000Y224500D02*Y221300D01*
Y224500D02*X250773Y226100D01*
X248000Y224500D02*X245227Y226100D01*
X246400Y224500D02*G75*G03X249600Y224500I1600J0D01*G01*
G75*G03X246400Y224500I-1600J0D01*G01*
X248000Y214500D02*Y211300D01*
Y214500D02*X250773Y216100D01*
X248000Y214500D02*X245227Y216100D01*
X246400Y214500D02*G75*G03X249600Y214500I1600J0D01*G01*
G75*G03X246400Y214500I-1600J0D01*G01*
X46000Y260000D02*Y256800D01*
Y260000D02*X48773Y261600D01*
X46000Y260000D02*X43227Y261600D01*
X44400Y260000D02*G75*G03X47600Y260000I1600J0D01*G01*
G75*G03X44400Y260000I-1600J0D01*G01*
X46000Y250000D02*Y246800D01*
Y250000D02*X48773Y251600D01*
X46000Y250000D02*X43227Y251600D01*
X44400Y250000D02*G75*G03X47600Y250000I1600J0D01*G01*
G75*G03X44400Y250000I-1600J0D01*G01*
X46000Y240000D02*Y236800D01*
Y240000D02*X48773Y241600D01*
X46000Y240000D02*X43227Y241600D01*
X44400Y240000D02*G75*G03X47600Y240000I1600J0D01*G01*
G75*G03X44400Y240000I-1600J0D01*G01*
X46000Y230000D02*Y226800D01*
Y230000D02*X48773Y231600D01*
X46000Y230000D02*X43227Y231600D01*
X44400Y230000D02*G75*G03X47600Y230000I1600J0D01*G01*
G75*G03X44400Y230000I-1600J0D01*G01*
X46000Y220000D02*Y216800D01*
Y220000D02*X48773Y221600D01*
X46000Y220000D02*X43227Y221600D01*
X44400Y220000D02*G75*G03X47600Y220000I1600J0D01*G01*
G75*G03X44400Y220000I-1600J0D01*G01*
X270000Y249500D02*Y246300D01*
Y249500D02*X272773Y251100D01*
X270000Y249500D02*X267227Y251100D01*
X268400Y249500D02*G75*G03X271600Y249500I1600J0D01*G01*
G75*G03X268400Y249500I-1600J0D01*G01*
X280000D02*Y246300D01*
Y249500D02*X282773Y251100D01*
X280000Y249500D02*X277227Y251100D01*
X278400Y249500D02*G75*G03X281600Y249500I1600J0D01*G01*
G75*G03X278400Y249500I-1600J0D01*G01*
X270000Y268500D02*Y265300D01*
Y268500D02*X272773Y270100D01*
X270000Y268500D02*X267227Y270100D01*
X268400Y268500D02*G75*G03X271600Y268500I1600J0D01*G01*
G75*G03X268400Y268500I-1600J0D01*G01*
X280000D02*Y265300D01*
Y268500D02*X282773Y270100D01*
X280000Y268500D02*X277227Y270100D01*
X278400Y268500D02*G75*G03X281600Y268500I1600J0D01*G01*
G75*G03X278400Y268500I-1600J0D01*G01*
X214000Y264500D02*Y261300D01*
Y264500D02*X216773Y266100D01*
X214000Y264500D02*X211227Y266100D01*
X212400Y264500D02*G75*G03X215600Y264500I1600J0D01*G01*
G75*G03X212400Y264500I-1600J0D01*G01*
X214000Y254500D02*Y251300D01*
Y254500D02*X216773Y256100D01*
X214000Y254500D02*X211227Y256100D01*
X212400Y254500D02*G75*G03X215600Y254500I1600J0D01*G01*
G75*G03X212400Y254500I-1600J0D01*G01*
X214000Y244500D02*Y241300D01*
Y244500D02*X216773Y246100D01*
X214000Y244500D02*X211227Y246100D01*
X212400Y244500D02*G75*G03X215600Y244500I1600J0D01*G01*
G75*G03X212400Y244500I-1600J0D01*G01*
X214000Y234500D02*Y231300D01*
Y234500D02*X216773Y236100D01*
X214000Y234500D02*X211227Y236100D01*
X212400Y234500D02*G75*G03X215600Y234500I1600J0D01*G01*
G75*G03X212400Y234500I-1600J0D01*G01*
X214000Y224500D02*Y221300D01*
Y224500D02*X216773Y226100D01*
X214000Y224500D02*X211227Y226100D01*
X212400Y224500D02*G75*G03X215600Y224500I1600J0D01*G01*
G75*G03X212400Y224500I-1600J0D01*G01*
X15000Y801250D02*Y798050D01*
Y801250D02*X17773Y802850D01*
X15000Y801250D02*X12227Y802850D01*
X13400Y801250D02*G75*G03X16600Y801250I1600J0D01*G01*
G75*G03X13400Y801250I-1600J0D01*G01*
X195000Y803500D02*Y802750D01*
X196500Y801250D01*
X198000Y802750D01*
Y803500D02*Y802750D01*
X196500Y801250D02*Y797500D01*
X199801Y800500D02*X202051D01*
X199801Y797500D02*X202801D01*
X199801Y803500D02*Y797500D01*
Y803500D02*X202801D01*
X207603D02*X208353Y802750D01*
X205353Y803500D02*X207603D01*
X204603Y802750D02*X205353Y803500D01*
X204603Y802750D02*Y801250D01*
X205353Y800500D01*
X207603D01*
X208353Y799750D01*
Y798250D01*
X207603Y797500D02*X208353Y798250D01*
X205353Y797500D02*X207603D01*
X204603Y798250D02*X205353Y797500D01*
X195000Y794249D02*X210154D01*
X160250Y803500D02*X161000Y802750D01*
X158750Y803500D02*X160250D01*
X158000Y802750D02*X158750Y803500D01*
X158000Y802750D02*Y798250D01*
X158750Y797500D01*
X160250Y800500D02*X161000Y799750D01*
X158000Y800500D02*X160250D01*
X158750Y797500D02*X160250D01*
X161000Y798250D01*
Y799750D02*Y798250D01*
X162801Y800500D02*X165801Y803500D01*
X162801Y800500D02*X166551D01*
X165801Y803500D02*Y797500D01*
X158000Y794249D02*X168353D01*
X41000Y798250D02*X41750Y797500D01*
X41000Y802750D02*Y798250D01*
Y802750D02*X41750Y803500D01*
X43250D01*
X44000Y802750D01*
Y798250D01*
X43250Y797500D02*X44000Y798250D01*
X41750Y797500D02*X43250D01*
X41000Y799000D02*X44000Y802000D01*
X45801Y797500D02*X46551D01*
X48353Y798250D02*X49103Y797500D01*
X48353Y802750D02*Y798250D01*
Y802750D02*X49103Y803500D01*
X50603D01*
X51353Y802750D01*
Y798250D01*
X50603Y797500D02*X51353Y798250D01*
X49103Y797500D02*X50603D01*
X48353Y799000D02*X51353Y802000D01*
X53154Y802750D02*X53904Y803500D01*
X55404D01*
X56154Y802750D01*
Y798250D01*
X55404Y797500D02*X56154Y798250D01*
X53904Y797500D02*X55404D01*
X53154Y798250D02*X53904Y797500D01*
Y800500D02*X56154D01*
X57956Y798250D02*X58706Y797500D01*
X57956Y799750D02*Y798250D01*
Y799750D02*X58706Y800500D01*
X60206D01*
X60956Y799750D01*
Y798250D01*
X60206Y797500D02*X60956Y798250D01*
X58706Y797500D02*X60206D01*
X57956Y801250D02*X58706Y800500D01*
X57956Y802750D02*Y801250D01*
Y802750D02*X58706Y803500D01*
X60206D01*
X60956Y802750D01*
Y801250D01*
X60206Y800500D02*X60956Y801250D01*
X65457Y798250D02*X66207Y797500D01*
X65457Y802750D02*X66207Y803500D01*
X65457Y802750D02*Y798250D01*
X70709D02*X71459Y797500D01*
X70709Y802750D02*Y798250D01*
Y802750D02*X71459Y803500D01*
X72959D01*
X73709Y802750D01*
Y798250D01*
X72959Y797500D02*X73709Y798250D01*
X71459Y797500D02*X72959D01*
X70709Y799000D02*X73709Y802000D01*
X75510Y797500D02*X76260D01*
X78062D02*X81062Y800500D01*
Y802750D02*Y800500D01*
X80312Y803500D02*X81062Y802750D01*
X78812Y803500D02*X80312D01*
X78062Y802750D02*X78812Y803500D01*
X78062Y802750D02*Y801250D01*
X78812Y800500D01*
X81062D01*
X85113Y803500D02*X85863Y802750D01*
X83613Y803500D02*X85113D01*
X82863Y802750D02*X83613Y803500D01*
X82863Y802750D02*Y798250D01*
X83613Y797500D01*
X85113Y800500D02*X85863Y799750D01*
X82863Y800500D02*X85113D01*
X83613Y797500D02*X85113D01*
X85863Y798250D01*
Y799750D02*Y798250D01*
X87665Y803500D02*X90665D01*
X87665D02*Y800500D01*
X88415Y801250D01*
X89915D01*
X90665Y800500D01*
Y798250D01*
X89915Y797500D02*X90665Y798250D01*
X88415Y797500D02*X89915D01*
X87665Y798250D02*X88415Y797500D01*
X92466Y802750D02*X93216Y803500D01*
X95466D01*
X96216Y802750D01*
Y801250D01*
X92466Y797500D02*X96216Y801250D01*
X92466Y797500D02*X96216D01*
X101468Y799750D02*Y797500D01*
Y799750D02*X102218Y800500D01*
X102968D01*
X103718Y799750D01*
Y797500D01*
Y799750D02*X104468Y800500D01*
X105218D01*
X105968Y799750D01*
Y797500D01*
X100718Y800500D02*X101468Y799750D01*
X108519D02*Y797500D01*
Y799750D02*X109269Y800500D01*
X110019D01*
X110769Y799750D01*
Y797500D01*
Y799750D02*X111519Y800500D01*
X112269D01*
X113019Y799750D01*
Y797500D01*
X107769Y800500D02*X108519Y799750D01*
X117521Y803500D02*X118271Y802750D01*
Y798250D01*
X117521Y797500D02*X118271Y798250D01*
X41000Y794249D02*X120072D01*
X115400Y286600D02*X118600D01*
X115400D02*Y283400D01*
X118600D01*
Y286600D02*Y283400D01*
X174400Y263100D02*X177600D01*
X174400D02*Y259900D01*
X177600D01*
Y263100D02*Y259900D01*
X181900Y263100D02*X185100D01*
X181900D02*Y259900D01*
X185100D01*
Y263100D02*Y259900D01*
X184900Y203100D02*X188100D01*
X184900D02*Y199900D01*
X188100D01*
Y203100D02*Y199900D01*
X177900Y203100D02*X181100D01*
X177900D02*Y199900D01*
X181100D01*
Y203100D02*Y199900D01*
X150400Y169100D02*X153600D01*
X150400D02*Y165900D01*
X153600D01*
Y169100D02*Y165900D01*
X150400Y194600D02*X153600D01*
X150400D02*Y191400D01*
X153600D01*
Y194600D02*Y191400D01*
X137900Y160600D02*X141100D01*
X137900D02*Y157400D01*
X141100D01*
Y160600D02*Y157400D01*
X13400Y817850D02*X16600D01*
X13400D02*Y814650D01*
X16600D01*
Y817850D02*Y814650D01*
X195000Y818500D02*Y817750D01*
X196500Y816250D01*
X198000Y817750D01*
Y818500D02*Y817750D01*
X196500Y816250D02*Y812500D01*
X199801Y815500D02*X202051D01*
X199801Y812500D02*X202801D01*
X199801Y818500D02*Y812500D01*
Y818500D02*X202801D01*
X207603D02*X208353Y817750D01*
X205353Y818500D02*X207603D01*
X204603Y817750D02*X205353Y818500D01*
X204603Y817750D02*Y816250D01*
X205353Y815500D01*
X207603D01*
X208353Y814750D01*
Y813250D01*
X207603Y812500D02*X208353Y813250D01*
X205353Y812500D02*X207603D01*
X204603Y813250D02*X205353Y812500D01*
X195000Y809249D02*X210154D01*
X158000Y813250D02*X158750Y812500D01*
X158000Y814750D02*Y813250D01*
Y814750D02*X158750Y815500D01*
X160250D01*
X161000Y814750D01*
Y813250D01*
X160250Y812500D02*X161000Y813250D01*
X158750Y812500D02*X160250D01*
X158000Y816250D02*X158750Y815500D01*
X158000Y817750D02*Y816250D01*
Y817750D02*X158750Y818500D01*
X160250D01*
X161000Y817750D01*
Y816250D01*
X160250Y815500D02*X161000Y816250D01*
X158000Y809249D02*X162801D01*
X41000Y813250D02*X41750Y812500D01*
X41000Y817750D02*Y813250D01*
Y817750D02*X41750Y818500D01*
X43250D01*
X44000Y817750D01*
Y813250D01*
X43250Y812500D02*X44000Y813250D01*
X41750Y812500D02*X43250D01*
X41000Y814000D02*X44000Y817000D01*
X45801Y812500D02*X46551D01*
X48353Y813250D02*X49103Y812500D01*
X48353Y817750D02*Y813250D01*
Y817750D02*X49103Y818500D01*
X50603D01*
X51353Y817750D01*
Y813250D01*
X50603Y812500D02*X51353Y813250D01*
X49103Y812500D02*X50603D01*
X48353Y814000D02*X51353Y817000D01*
X53154Y817750D02*X53904Y818500D01*
X55404D01*
X56154Y817750D01*
Y813250D01*
X55404Y812500D02*X56154Y813250D01*
X53904Y812500D02*X55404D01*
X53154Y813250D02*X53904Y812500D01*
Y815500D02*X56154D01*
X57956Y818500D02*X60956D01*
X57956D02*Y815500D01*
X58706Y816250D01*
X60206D01*
X60956Y815500D01*
Y813250D01*
X60206Y812500D02*X60956Y813250D01*
X58706Y812500D02*X60206D01*
X57956Y813250D02*X58706Y812500D01*
X65457Y813250D02*X66207Y812500D01*
X65457Y817750D02*X66207Y818500D01*
X65457Y817750D02*Y813250D01*
X70709D02*X71459Y812500D01*
X70709Y817750D02*Y813250D01*
Y817750D02*X71459Y818500D01*
X72959D01*
X73709Y817750D01*
Y813250D01*
X72959Y812500D02*X73709Y813250D01*
X71459Y812500D02*X72959D01*
X70709Y814000D02*X73709Y817000D01*
X75510Y812500D02*X76260D01*
X78062Y813250D02*X78812Y812500D01*
X78062Y814750D02*Y813250D01*
Y814750D02*X78812Y815500D01*
X80312D01*
X81062Y814750D01*
Y813250D01*
X80312Y812500D02*X81062Y813250D01*
X78812Y812500D02*X80312D01*
X78062Y816250D02*X78812Y815500D01*
X78062Y817750D02*Y816250D01*
Y817750D02*X78812Y818500D01*
X80312D01*
X81062Y817750D01*
Y816250D01*
X80312Y815500D02*X81062Y816250D01*
X82863Y813250D02*X83613Y812500D01*
X82863Y814750D02*Y813250D01*
Y814750D02*X83613Y815500D01*
X85113D01*
X85863Y814750D01*
Y813250D01*
X85113Y812500D02*X85863Y813250D01*
X83613Y812500D02*X85113D01*
X82863Y816250D02*X83613Y815500D01*
X82863Y817750D02*Y816250D01*
Y817750D02*X83613Y818500D01*
X85113D01*
X85863Y817750D01*
Y816250D01*
X85113Y815500D02*X85863Y816250D01*
X87665Y812500D02*X90665Y815500D01*
Y817750D02*Y815500D01*
X89915Y818500D02*X90665Y817750D01*
X88415Y818500D02*X89915D01*
X87665Y817750D02*X88415Y818500D01*
X87665Y817750D02*Y816250D01*
X88415Y815500D01*
X90665D01*
X92466Y813250D02*X93216Y812500D01*
X92466Y817750D02*Y813250D01*
Y817750D02*X93216Y818500D01*
X94716D01*
X95466Y817750D01*
Y813250D01*
X94716Y812500D02*X95466Y813250D01*
X93216Y812500D02*X94716D01*
X92466Y814000D02*X95466Y817000D01*
X100718Y814750D02*Y812500D01*
Y814750D02*X101468Y815500D01*
X102218D01*
X102968Y814750D01*
Y812500D01*
Y814750D02*X103718Y815500D01*
X104468D01*
X105218Y814750D01*
Y812500D01*
X99968Y815500D02*X100718Y814750D01*
X107769D02*Y812500D01*
Y814750D02*X108519Y815500D01*
X109269D01*
X110019Y814750D01*
Y812500D01*
Y814750D02*X110769Y815500D01*
X111519D01*
X112269Y814750D01*
Y812500D01*
X107019Y815500D02*X107769Y814750D01*
X116771Y818500D02*X117521Y817750D01*
Y813250D01*
X116771Y812500D02*X117521Y813250D01*
X41000Y809249D02*X119322D01*
X229200Y314500D02*G75*G03X230800Y314500I800J0D01*G01*
G75*G03X229200Y314500I-800J0D01*G01*
X279200D02*G75*G03X280800Y314500I800J0D01*G01*
G75*G03X279200Y314500I-800J0D01*G01*
X76700Y151000D02*G75*G03X78300Y151000I800J0D01*G01*
G75*G03X76700Y151000I-800J0D01*G01*
Y201000D02*G75*G03X78300Y201000I800J0D01*G01*
G75*G03X76700Y201000I-800J0D01*G01*
X91700D02*G75*G03X93300Y201000I800J0D01*G01*
G75*G03X91700Y201000I-800J0D01*G01*
Y151000D02*G75*G03X93300Y151000I800J0D01*G01*
G75*G03X91700Y151000I-800J0D01*G01*
X44200Y197500D02*G75*G03X45800Y197500I800J0D01*G01*
G75*G03X44200Y197500I-800J0D01*G01*
X54200D02*G75*G03X55800Y197500I800J0D01*G01*
G75*G03X54200Y197500I-800J0D01*G01*
X123200Y215000D02*G75*G03X124800Y215000I800J0D01*G01*
G75*G03X123200Y215000I-800J0D01*G01*
X133200D02*G75*G03X134800Y215000I800J0D01*G01*
G75*G03X133200Y215000I-800J0D01*G01*
X123200Y245000D02*G75*G03X124800Y245000I800J0D01*G01*
G75*G03X123200Y245000I-800J0D01*G01*
X133200D02*G75*G03X134800Y245000I800J0D01*G01*
G75*G03X133200Y245000I-800J0D01*G01*
X123200Y230000D02*G75*G03X124800Y230000I800J0D01*G01*
G75*G03X123200Y230000I-800J0D01*G01*
X133200D02*G75*G03X134800Y230000I800J0D01*G01*
G75*G03X133200Y230000I-800J0D01*G01*
X58200D02*G75*G03X59800Y230000I800J0D01*G01*
G75*G03X58200Y230000I-800J0D01*G01*
X108200D02*G75*G03X109800Y230000I800J0D01*G01*
G75*G03X108200Y230000I-800J0D01*G01*
X58200Y215000D02*G75*G03X59800Y215000I800J0D01*G01*
G75*G03X58200Y215000I-800J0D01*G01*
X108200D02*G75*G03X109800Y215000I800J0D01*G01*
G75*G03X108200Y215000I-800J0D01*G01*
X251700Y192000D02*G75*G03X253300Y192000I800J0D01*G01*
G75*G03X251700Y192000I-800J0D01*G01*
Y172000D02*G75*G03X253300Y172000I800J0D01*G01*
G75*G03X251700Y172000I-800J0D01*G01*
X148200Y214500D02*G75*G03X149800Y214500I800J0D01*G01*
G75*G03X148200Y214500I-800J0D01*G01*
X198200D02*G75*G03X199800Y214500I800J0D01*G01*
G75*G03X198200Y214500I-800J0D01*G01*
X148200Y230000D02*G75*G03X149800Y230000I800J0D01*G01*
G75*G03X148200Y230000I-800J0D01*G01*
X198200D02*G75*G03X199800Y230000I800J0D01*G01*
G75*G03X198200Y230000I-800J0D01*G01*
X148200Y245000D02*G75*G03X149800Y245000I800J0D01*G01*
G75*G03X148200Y245000I-800J0D01*G01*
X198200D02*G75*G03X199800Y245000I800J0D01*G01*
G75*G03X198200Y245000I-800J0D01*G01*
X58200D02*G75*G03X59800Y245000I800J0D01*G01*
G75*G03X58200Y245000I-800J0D01*G01*
X108200D02*G75*G03X109800Y245000I800J0D01*G01*
G75*G03X108200Y245000I-800J0D01*G01*
X58200Y260000D02*G75*G03X59800Y260000I800J0D01*G01*
G75*G03X58200Y260000I-800J0D01*G01*
X108200D02*G75*G03X109800Y260000I800J0D01*G01*
G75*G03X108200Y260000I-800J0D01*G01*
X148200D02*G75*G03X149800Y260000I800J0D01*G01*
G75*G03X148200Y260000I-800J0D01*G01*
X198200D02*G75*G03X199800Y260000I800J0D01*G01*
G75*G03X198200Y260000I-800J0D01*G01*
X229200Y299500D02*G75*G03X230800Y299500I800J0D01*G01*
G75*G03X229200Y299500I-800J0D01*G01*
X279200D02*G75*G03X280800Y299500I800J0D01*G01*
G75*G03X279200Y299500I-800J0D01*G01*
X168700Y202000D02*G75*G03X170300Y202000I800J0D01*G01*
G75*G03X168700Y202000I-800J0D01*G01*
Y152000D02*G75*G03X170300Y152000I800J0D01*G01*
G75*G03X168700Y152000I-800J0D01*G01*
X279200Y284500D02*G75*G03X280800Y284500I800J0D01*G01*
G75*G03X279200Y284500I-800J0D01*G01*
X269200D02*G75*G03X270800Y284500I800J0D01*G01*
G75*G03X269200Y284500I-800J0D01*G01*
X123200Y260000D02*G75*G03X124800Y260000I800J0D01*G01*
G75*G03X123200Y260000I-800J0D01*G01*
X133200D02*G75*G03X134800Y260000I800J0D01*G01*
G75*G03X133200Y260000I-800J0D01*G01*
X45200Y374500D02*G75*G03X46800Y374500I800J0D01*G01*
G75*G03X45200Y374500I-800J0D01*G01*
X55200D02*G75*G03X56800Y374500I800J0D01*G01*
G75*G03X55200Y374500I-800J0D01*G01*
X279200D02*G75*G03X280800Y374500I800J0D01*G01*
G75*G03X279200Y374500I-800J0D01*G01*
X269200D02*G75*G03X270800Y374500I800J0D01*G01*
G75*G03X269200Y374500I-800J0D01*G01*
X209200Y344500D02*G75*G03X210800Y344500I800J0D01*G01*
G75*G03X209200Y344500I-800J0D01*G01*
X219200D02*G75*G03X220800Y344500I800J0D01*G01*
G75*G03X219200Y344500I-800J0D01*G01*
X209200Y329500D02*G75*G03X210800Y329500I800J0D01*G01*
G75*G03X209200Y329500I-800J0D01*G01*
X219200D02*G75*G03X220800Y329500I800J0D01*G01*
G75*G03X219200Y329500I-800J0D01*G01*
X229200D02*G75*G03X230800Y329500I800J0D01*G01*
G75*G03X229200Y329500I-800J0D01*G01*
X279200D02*G75*G03X280800Y329500I800J0D01*G01*
G75*G03X279200Y329500I-800J0D01*G01*
X132200Y359500D02*G75*G03X133800Y359500I800J0D01*G01*
G75*G03X132200Y359500I-800J0D01*G01*
X182200D02*G75*G03X183800Y359500I800J0D01*G01*
G75*G03X182200Y359500I-800J0D01*G01*
X132200Y344500D02*G75*G03X133800Y344500I800J0D01*G01*
G75*G03X132200Y344500I-800J0D01*G01*
X182200D02*G75*G03X183800Y344500I800J0D01*G01*
G75*G03X182200Y344500I-800J0D01*G01*
X229200Y359500D02*G75*G03X230800Y359500I800J0D01*G01*
G75*G03X229200Y359500I-800J0D01*G01*
X279200D02*G75*G03X280800Y359500I800J0D01*G01*
G75*G03X279200Y359500I-800J0D01*G01*
X132200Y329500D02*G75*G03X133800Y329500I800J0D01*G01*
G75*G03X132200Y329500I-800J0D01*G01*
X182200D02*G75*G03X183800Y329500I800J0D01*G01*
G75*G03X182200Y329500I-800J0D01*G01*
X82200Y374500D02*G75*G03X83800Y374500I800J0D01*G01*
G75*G03X82200Y374500I-800J0D01*G01*
X132200D02*G75*G03X133800Y374500I800J0D01*G01*
G75*G03X132200Y374500I-800J0D01*G01*
X55200Y359500D02*G75*G03X56800Y359500I800J0D01*G01*
G75*G03X55200Y359500I-800J0D01*G01*
X105200D02*G75*G03X106800Y359500I800J0D01*G01*
G75*G03X105200Y359500I-800J0D01*G01*
X55200Y344500D02*G75*G03X56800Y344500I800J0D01*G01*
G75*G03X55200Y344500I-800J0D01*G01*
X105200D02*G75*G03X106800Y344500I800J0D01*G01*
G75*G03X105200Y344500I-800J0D01*G01*
X55200Y329500D02*G75*G03X56800Y329500I800J0D01*G01*
G75*G03X55200Y329500I-800J0D01*G01*
X105200D02*G75*G03X106800Y329500I800J0D01*G01*
G75*G03X105200Y329500I-800J0D01*G01*
X229200Y344500D02*G75*G03X230800Y344500I800J0D01*G01*
G75*G03X229200Y344500I-800J0D01*G01*
X279200D02*G75*G03X280800Y344500I800J0D01*G01*
G75*G03X279200Y344500I-800J0D01*G01*
X182200Y374500D02*G75*G03X183800Y374500I800J0D01*G01*
G75*G03X182200Y374500I-800J0D01*G01*
X232200D02*G75*G03X233800Y374500I800J0D01*G01*
G75*G03X232200Y374500I-800J0D01*G01*
X209200Y359500D02*G75*G03X210800Y359500I800J0D01*G01*
G75*G03X209200Y359500I-800J0D01*G01*
X219200D02*G75*G03X220800Y359500I800J0D01*G01*
G75*G03X219200Y359500I-800J0D01*G01*
X180700Y532000D02*G75*G03X182300Y532000I800J0D01*G01*
G75*G03X180700Y532000I-800J0D01*G01*
X230700D02*G75*G03X232300Y532000I800J0D01*G01*
G75*G03X230700Y532000I-800J0D01*G01*
Y508500D02*G75*G03X232300Y508500I800J0D01*G01*
G75*G03X230700Y508500I-800J0D01*G01*
X180700D02*G75*G03X182300Y508500I800J0D01*G01*
G75*G03X180700Y508500I-800J0D01*G01*
X230700Y559000D02*G75*G03X232300Y559000I800J0D01*G01*
G75*G03X230700Y559000I-800J0D01*G01*
X180700D02*G75*G03X182300Y559000I800J0D01*G01*
G75*G03X180700Y559000I-800J0D01*G01*
X143700Y558500D02*G75*G03X145300Y558500I800J0D01*G01*
G75*G03X143700Y558500I-800J0D01*G01*
X93700D02*G75*G03X95300Y558500I800J0D01*G01*
G75*G03X93700Y558500I-800J0D01*G01*
X143700Y508500D02*G75*G03X145300Y508500I800J0D01*G01*
G75*G03X143700Y508500I-800J0D01*G01*
X93700D02*G75*G03X95300Y508500I800J0D01*G01*
G75*G03X93700Y508500I-800J0D01*G01*
X279200Y439500D02*G75*G03X280800Y439500I800J0D01*G01*
G75*G03X279200Y439500I-800J0D01*G01*
X269200D02*G75*G03X270800Y439500I800J0D01*G01*
G75*G03X269200Y439500I-800J0D01*G01*
X93700Y532000D02*G75*G03X95300Y532000I800J0D01*G01*
G75*G03X93700Y532000I-800J0D01*G01*
X143700D02*G75*G03X145300Y532000I800J0D01*G01*
G75*G03X143700Y532000I-800J0D01*G01*
Y582000D02*G75*G03X145300Y582000I800J0D01*G01*
G75*G03X143700Y582000I-800J0D01*G01*
X93700D02*G75*G03X95300Y582000I800J0D01*G01*
G75*G03X93700Y582000I-800J0D01*G01*
X45200Y439500D02*G75*G03X46800Y439500I800J0D01*G01*
G75*G03X45200Y439500I-800J0D01*G01*
X55200D02*G75*G03X56800Y439500I800J0D01*G01*
G75*G03X55200Y439500I-800J0D01*G01*
X14200Y831250D02*G75*G03X15800Y831250I800J0D01*G01*
G75*G03X14200Y831250I-800J0D01*G01*
X195000Y833500D02*Y832750D01*
X196500Y831250D01*
X198000Y832750D01*
Y833500D02*Y832750D01*
X196500Y831250D02*Y827500D01*
X199801Y830500D02*X202051D01*
X199801Y827500D02*X202801D01*
X199801Y833500D02*Y827500D01*
Y833500D02*X202801D01*
X207603D02*X208353Y832750D01*
X205353Y833500D02*X207603D01*
X204603Y832750D02*X205353Y833500D01*
X204603Y832750D02*Y831250D01*
X205353Y830500D01*
X207603D01*
X208353Y829750D01*
Y828250D01*
X207603Y827500D02*X208353Y828250D01*
X205353Y827500D02*X207603D01*
X204603Y828250D02*X205353Y827500D01*
X195000Y824249D02*X210154D01*
X158000Y827500D02*X161000Y830500D01*
Y832750D02*Y830500D01*
X160250Y833500D02*X161000Y832750D01*
X158750Y833500D02*X160250D01*
X158000Y832750D02*X158750Y833500D01*
X158000Y832750D02*Y831250D01*
X158750Y830500D01*
X161000D01*
X162801Y828250D02*X163551Y827500D01*
X162801Y832750D02*Y828250D01*
Y832750D02*X163551Y833500D01*
X165051D01*
X165801Y832750D01*
Y828250D01*
X165051Y827500D02*X165801Y828250D01*
X163551Y827500D02*X165051D01*
X162801Y829000D02*X165801Y832000D01*
X158000Y824249D02*X167603D01*
X41000Y828250D02*X41750Y827500D01*
X41000Y832750D02*Y828250D01*
Y832750D02*X41750Y833500D01*
X43250D01*
X44000Y832750D01*
Y828250D01*
X43250Y827500D02*X44000Y828250D01*
X41750Y827500D02*X43250D01*
X41000Y829000D02*X44000Y832000D01*
X45801Y827500D02*X46551D01*
X48353Y828250D02*X49103Y827500D01*
X48353Y832750D02*Y828250D01*
Y832750D02*X49103Y833500D01*
X50603D01*
X51353Y832750D01*
Y828250D01*
X50603Y827500D02*X51353Y828250D01*
X49103Y827500D02*X50603D01*
X48353Y829000D02*X51353Y832000D01*
X53154Y832750D02*X53904Y833500D01*
X55404D01*
X56154Y832750D01*
Y828250D01*
X55404Y827500D02*X56154Y828250D01*
X53904Y827500D02*X55404D01*
X53154Y828250D02*X53904Y827500D01*
Y830500D02*X56154D01*
X57956Y828250D02*X58706Y827500D01*
X57956Y832750D02*Y828250D01*
Y832750D02*X58706Y833500D01*
X60206D01*
X60956Y832750D01*
Y828250D01*
X60206Y827500D02*X60956Y828250D01*
X58706Y827500D02*X60206D01*
X57956Y829000D02*X60956Y832000D01*
X65457Y828250D02*X66207Y827500D01*
X65457Y832750D02*X66207Y833500D01*
X65457Y832750D02*Y828250D01*
X70709D02*X71459Y827500D01*
X70709Y832750D02*Y828250D01*
Y832750D02*X71459Y833500D01*
X72959D01*
X73709Y832750D01*
Y828250D01*
X72959Y827500D02*X73709Y828250D01*
X71459Y827500D02*X72959D01*
X70709Y829000D02*X73709Y832000D01*
X75510Y827500D02*X76260D01*
X78062D02*X81812Y831250D01*
Y833500D02*Y831250D01*
X78062Y833500D02*X81812D01*
X85863D02*X86613Y832750D01*
X84363Y833500D02*X85863D01*
X83613Y832750D02*X84363Y833500D01*
X83613Y832750D02*Y828250D01*
X84363Y827500D01*
X85863Y830500D02*X86613Y829750D01*
X83613Y830500D02*X85863D01*
X84363Y827500D02*X85863D01*
X86613Y828250D01*
Y829750D02*Y828250D01*
X88415Y832750D02*X89165Y833500D01*
X91415D01*
X92165Y832750D01*
Y831250D01*
X88415Y827500D02*X92165Y831250D01*
X88415Y827500D02*X92165D01*
X93966Y828250D02*X94716Y827500D01*
X93966Y832750D02*Y828250D01*
Y832750D02*X94716Y833500D01*
X96216D01*
X96966Y832750D01*
Y828250D01*
X96216Y827500D02*X96966Y828250D01*
X94716Y827500D02*X96216D01*
X93966Y829000D02*X96966Y832000D01*
X102218Y829750D02*Y827500D01*
Y829750D02*X102968Y830500D01*
X103718D01*
X104468Y829750D01*
Y827500D01*
Y829750D02*X105218Y830500D01*
X105968D01*
X106718Y829750D01*
Y827500D01*
X101468Y830500D02*X102218Y829750D01*
X109269D02*Y827500D01*
Y829750D02*X110019Y830500D01*
X110769D01*
X111519Y829750D01*
Y827500D01*
Y829750D02*X112269Y830500D01*
X113019D01*
X113769Y829750D01*
Y827500D01*
X108519Y830500D02*X109269Y829750D01*
X118271Y833500D02*X119021Y832750D01*
Y828250D01*
X118271Y827500D02*X119021Y828250D01*
X41000Y824249D02*X120822D01*
X44800Y393200D02*X47200Y390800D01*
X44800D02*X47200Y393200D01*
X54800D02*X57200Y390800D01*
X54800D02*X57200Y393200D01*
X64800D02*X67200Y390800D01*
X64800D02*X67200Y393200D01*
X74800D02*X77200Y390800D01*
X74800D02*X77200Y393200D01*
X84800D02*X87200Y390800D01*
X84800D02*X87200Y393200D01*
X94800D02*X97200Y390800D01*
X94800D02*X97200Y393200D01*
X104800D02*X107200Y390800D01*
X104800D02*X107200Y393200D01*
X104800Y423200D02*X107200Y420800D01*
X104800D02*X107200Y423200D01*
X94800D02*X97200Y420800D01*
X94800D02*X97200Y423200D01*
X84800D02*X87200Y420800D01*
X84800D02*X87200Y423200D01*
X74800D02*X77200Y420800D01*
X74800D02*X77200Y423200D01*
X64800D02*X67200Y420800D01*
X64800D02*X67200Y423200D01*
X54800D02*X57200Y420800D01*
X54800D02*X57200Y423200D01*
X44800D02*X47200Y420800D01*
X44800D02*X47200Y423200D01*
X44800Y458200D02*X47200Y455800D01*
X44800D02*X47200Y458200D01*
X54800D02*X57200Y455800D01*
X54800D02*X57200Y458200D01*
X64800D02*X67200Y455800D01*
X64800D02*X67200Y458200D01*
X74800D02*X77200Y455800D01*
X74800D02*X77200Y458200D01*
X84800D02*X87200Y455800D01*
X84800D02*X87200Y458200D01*
X94800D02*X97200Y455800D01*
X94800D02*X97200Y458200D01*
X104800D02*X107200Y455800D01*
X104800D02*X107200Y458200D01*
X104800Y488200D02*X107200Y485800D01*
X104800D02*X107200Y488200D01*
X94800D02*X97200Y485800D01*
X94800D02*X97200Y488200D01*
X84800D02*X87200Y485800D01*
X84800D02*X87200Y488200D01*
X74800D02*X77200Y485800D01*
X74800D02*X77200Y488200D01*
X64800D02*X67200Y485800D01*
X64800D02*X67200Y488200D01*
X54800D02*X57200Y485800D01*
X54800D02*X57200Y488200D01*
X44800D02*X47200Y485800D01*
X44800D02*X47200Y488200D01*
X131800Y458200D02*X134200Y455800D01*
X131800D02*X134200Y458200D01*
X141800D02*X144200Y455800D01*
X141800D02*X144200Y458200D01*
X151800D02*X154200Y455800D01*
X151800D02*X154200Y458200D01*
X161800D02*X164200Y455800D01*
X161800D02*X164200Y458200D01*
X171800D02*X174200Y455800D01*
X171800D02*X174200Y458200D01*
X181800D02*X184200Y455800D01*
X181800D02*X184200Y458200D01*
X191800D02*X194200Y455800D01*
X191800D02*X194200Y458200D01*
X191800Y488200D02*X194200Y485800D01*
X191800D02*X194200Y488200D01*
X181800D02*X184200Y485800D01*
X181800D02*X184200Y488200D01*
X171800D02*X174200Y485800D01*
X171800D02*X174200Y488200D01*
X161800D02*X164200Y485800D01*
X161800D02*X164200Y488200D01*
X151800D02*X154200Y485800D01*
X151800D02*X154200Y488200D01*
X141800D02*X144200Y485800D01*
X141800D02*X144200Y488200D01*
X131800D02*X134200Y485800D01*
X131800D02*X134200Y488200D01*
X218800Y458200D02*X221200Y455800D01*
X218800D02*X221200Y458200D01*
X228800D02*X231200Y455800D01*
X228800D02*X231200Y458200D01*
X238800D02*X241200Y455800D01*
X238800D02*X241200Y458200D01*
X248800D02*X251200Y455800D01*
X248800D02*X251200Y458200D01*
X258800D02*X261200Y455800D01*
X258800D02*X261200Y458200D01*
X268800D02*X271200Y455800D01*
X268800D02*X271200Y458200D01*
X278800D02*X281200Y455800D01*
X278800D02*X281200Y458200D01*
X278800Y488200D02*X281200Y485800D01*
X278800D02*X281200Y488200D01*
X268800D02*X271200Y485800D01*
X268800D02*X271200Y488200D01*
X258800D02*X261200Y485800D01*
X258800D02*X261200Y488200D01*
X248800D02*X251200Y485800D01*
X248800D02*X251200Y488200D01*
X238800D02*X241200Y485800D01*
X238800D02*X241200Y488200D01*
X228800D02*X231200Y485800D01*
X228800D02*X231200Y488200D01*
X218800D02*X221200Y485800D01*
X218800D02*X221200Y488200D01*
X131800Y393200D02*X134200Y390800D01*
X131800D02*X134200Y393200D01*
X141800D02*X144200Y390800D01*
X141800D02*X144200Y393200D01*
X151800D02*X154200Y390800D01*
X151800D02*X154200Y393200D01*
X161800D02*X164200Y390800D01*
X161800D02*X164200Y393200D01*
X171800D02*X174200Y390800D01*
X171800D02*X174200Y393200D01*
X181800D02*X184200Y390800D01*
X181800D02*X184200Y393200D01*
X191800D02*X194200Y390800D01*
X191800D02*X194200Y393200D01*
X191800Y423200D02*X194200Y420800D01*
X191800D02*X194200Y423200D01*
X181800D02*X184200Y420800D01*
X181800D02*X184200Y423200D01*
X171800D02*X174200Y420800D01*
X171800D02*X174200Y423200D01*
X161800D02*X164200Y420800D01*
X161800D02*X164200Y423200D01*
X151800D02*X154200Y420800D01*
X151800D02*X154200Y423200D01*
X141800D02*X144200Y420800D01*
X141800D02*X144200Y423200D01*
X131800D02*X134200Y420800D01*
X131800D02*X134200Y423200D01*
X218800Y393200D02*X221200Y390800D01*
X218800D02*X221200Y393200D01*
X228800D02*X231200Y390800D01*
X228800D02*X231200Y393200D01*
X238800D02*X241200Y390800D01*
X238800D02*X241200Y393200D01*
X248800D02*X251200Y390800D01*
X248800D02*X251200Y393200D01*
X258800D02*X261200Y390800D01*
X258800D02*X261200Y393200D01*
X268800D02*X271200Y390800D01*
X268800D02*X271200Y393200D01*
X278800D02*X281200Y390800D01*
X278800D02*X281200Y393200D01*
X278800Y423200D02*X281200Y420800D01*
X278800D02*X281200Y423200D01*
X268800D02*X271200Y420800D01*
X268800D02*X271200Y423200D01*
X258800D02*X261200Y420800D01*
X258800D02*X261200Y423200D01*
X248800D02*X251200Y420800D01*
X248800D02*X251200Y423200D01*
X238800D02*X241200Y420800D01*
X238800D02*X241200Y423200D01*
X228800D02*X231200Y420800D01*
X228800D02*X231200Y423200D01*
X218800D02*X221200Y420800D01*
X218800D02*X221200Y423200D01*
X13800Y847450D02*X16200Y845050D01*
X13800D02*X16200Y847450D01*
X195000Y848500D02*Y847750D01*
X196500Y846250D01*
X198000Y847750D01*
Y848500D02*Y847750D01*
X196500Y846250D02*Y842500D01*
X199801Y845500D02*X202051D01*
X199801Y842500D02*X202801D01*
X199801Y848500D02*Y842500D01*
Y848500D02*X202801D01*
X207603D02*X208353Y847750D01*
X205353Y848500D02*X207603D01*
X204603Y847750D02*X205353Y848500D01*
X204603Y847750D02*Y846250D01*
X205353Y845500D01*
X207603D01*
X208353Y844750D01*
Y843250D01*
X207603Y842500D02*X208353Y843250D01*
X205353Y842500D02*X207603D01*
X204603Y843250D02*X205353Y842500D01*
X195000Y839249D02*X210154D01*
X158000Y843250D02*X158750Y842500D01*
X158000Y844750D02*Y843250D01*
Y844750D02*X158750Y845500D01*
X160250D01*
X161000Y844750D01*
Y843250D01*
X160250Y842500D02*X161000Y843250D01*
X158750Y842500D02*X160250D01*
X158000Y846250D02*X158750Y845500D01*
X158000Y847750D02*Y846250D01*
Y847750D02*X158750Y848500D01*
X160250D01*
X161000Y847750D01*
Y846250D01*
X160250Y845500D02*X161000Y846250D01*
X162801Y845500D02*X165801Y848500D01*
X162801Y845500D02*X166551D01*
X165801Y848500D02*Y842500D01*
X158000Y839249D02*X168353D01*
X41000Y843250D02*X41750Y842500D01*
X41000Y847750D02*Y843250D01*
Y847750D02*X41750Y848500D01*
X43250D01*
X44000Y847750D01*
Y843250D01*
X43250Y842500D02*X44000Y843250D01*
X41750Y842500D02*X43250D01*
X41000Y844000D02*X44000Y847000D01*
X45801Y842500D02*X46551D01*
X48353Y843250D02*X49103Y842500D01*
X48353Y847750D02*Y843250D01*
Y847750D02*X49103Y848500D01*
X50603D01*
X51353Y847750D01*
Y843250D01*
X50603Y842500D02*X51353Y843250D01*
X49103Y842500D02*X50603D01*
X48353Y844000D02*X51353Y847000D01*
X53154Y847750D02*X53904Y848500D01*
X56154D01*
X56904Y847750D01*
Y846250D01*
X53154Y842500D02*X56904Y846250D01*
X53154Y842500D02*X56904D01*
X58706Y843250D02*X59456Y842500D01*
X58706Y844750D02*Y843250D01*
Y844750D02*X59456Y845500D01*
X60956D01*
X61706Y844750D01*
Y843250D01*
X60956Y842500D02*X61706Y843250D01*
X59456Y842500D02*X60956D01*
X58706Y846250D02*X59456Y845500D01*
X58706Y847750D02*Y846250D01*
Y847750D02*X59456Y848500D01*
X60956D01*
X61706Y847750D01*
Y846250D01*
X60956Y845500D02*X61706Y846250D01*
X66207Y843250D02*X66957Y842500D01*
X66207Y847750D02*X66957Y848500D01*
X66207Y847750D02*Y843250D01*
X71459D02*X72209Y842500D01*
X71459Y847750D02*Y843250D01*
Y847750D02*X72209Y848500D01*
X73709D01*
X74459Y847750D01*
Y843250D01*
X73709Y842500D02*X74459Y843250D01*
X72209Y842500D02*X73709D01*
X71459Y844000D02*X74459Y847000D01*
X76260Y842500D02*X77010D01*
X78812D02*X82562Y846250D01*
Y848500D02*Y846250D01*
X78812Y848500D02*X82562D01*
X85113Y842500D02*X86613D01*
X85863Y848500D02*Y842500D01*
X84363Y847000D02*X85863Y848500D01*
X89165Y842500D02*X90665D01*
X89915Y848500D02*Y842500D01*
X88415Y847000D02*X89915Y848500D01*
X92466Y847750D02*X93216Y848500D01*
X95466D01*
X96216Y847750D01*
Y846250D01*
X92466Y842500D02*X96216Y846250D01*
X92466Y842500D02*X96216D01*
X101468Y844750D02*Y842500D01*
Y844750D02*X102218Y845500D01*
X102968D01*
X103718Y844750D01*
Y842500D01*
Y844750D02*X104468Y845500D01*
X105218D01*
X105968Y844750D01*
Y842500D01*
X100718Y845500D02*X101468Y844750D01*
X108519D02*Y842500D01*
Y844750D02*X109269Y845500D01*
X110019D01*
X110769Y844750D01*
Y842500D01*
Y844750D02*X111519Y845500D01*
X112269D01*
X113019Y844750D01*
Y842500D01*
X107769Y845500D02*X108519Y844750D01*
X117521Y848500D02*X118271Y847750D01*
Y843250D01*
X117521Y842500D02*X118271Y843250D01*
X41000Y839249D02*X120072D01*
X100000Y261600D02*Y258400D01*
X98400Y260000D02*X101600D01*
X70000Y261600D02*Y258400D01*
X68400Y260000D02*X71600D01*
X100000Y246600D02*Y243400D01*
X98400Y245000D02*X101600D01*
X70000Y246600D02*Y243400D01*
X68400Y245000D02*X71600D01*
X100000Y231600D02*Y228400D01*
X98400Y230000D02*X101600D01*
X70000Y231600D02*Y228400D01*
X68400Y230000D02*X71600D01*
X100000Y216600D02*Y213400D01*
X98400Y215000D02*X101600D01*
X70000Y216600D02*Y213400D01*
X68400Y215000D02*X71600D01*
X15000Y862850D02*Y859650D01*
X13400Y861250D02*X16600D01*
X195000Y863500D02*Y862750D01*
X196500Y861250D01*
X198000Y862750D01*
Y863500D02*Y862750D01*
X196500Y861250D02*Y857500D01*
X199801Y860500D02*X202051D01*
X199801Y857500D02*X202801D01*
X199801Y863500D02*Y857500D01*
Y863500D02*X202801D01*
X207603D02*X208353Y862750D01*
X205353Y863500D02*X207603D01*
X204603Y862750D02*X205353Y863500D01*
X204603Y862750D02*Y861250D01*
X205353Y860500D01*
X207603D01*
X208353Y859750D01*
Y858250D01*
X207603Y857500D02*X208353Y858250D01*
X205353Y857500D02*X207603D01*
X204603Y858250D02*X205353Y857500D01*
X195000Y854249D02*X210154D01*
X158000Y858250D02*X158750Y857500D01*
X158000Y859750D02*Y858250D01*
Y859750D02*X158750Y860500D01*
X160250D01*
X161000Y859750D01*
Y858250D01*
X160250Y857500D02*X161000Y858250D01*
X158750Y857500D02*X160250D01*
X158000Y861250D02*X158750Y860500D01*
X158000Y862750D02*Y861250D01*
Y862750D02*X158750Y863500D01*
X160250D01*
X161000Y862750D01*
Y861250D01*
X160250Y860500D02*X161000Y861250D01*
X158000Y854249D02*X162801D01*
X41000Y858250D02*X41750Y857500D01*
X41000Y862750D02*Y858250D01*
Y862750D02*X41750Y863500D01*
X43250D01*
X44000Y862750D01*
Y858250D01*
X43250Y857500D02*X44000Y858250D01*
X41750Y857500D02*X43250D01*
X41000Y859000D02*X44000Y862000D01*
X45801Y857500D02*X46551D01*
X48353Y858250D02*X49103Y857500D01*
X48353Y862750D02*Y858250D01*
Y862750D02*X49103Y863500D01*
X50603D01*
X51353Y862750D01*
Y858250D01*
X50603Y857500D02*X51353Y858250D01*
X49103Y857500D02*X50603D01*
X48353Y859000D02*X51353Y862000D01*
X53154Y862750D02*X53904Y863500D01*
X56154D01*
X56904Y862750D01*
Y861250D01*
X53154Y857500D02*X56904Y861250D01*
X53154Y857500D02*X56904D01*
X58706Y862750D02*X59456Y863500D01*
X61706D01*
X62456Y862750D01*
Y861250D01*
X58706Y857500D02*X62456Y861250D01*
X58706Y857500D02*X62456D01*
X66957Y858250D02*X67707Y857500D01*
X66957Y862750D02*X67707Y863500D01*
X66957Y862750D02*Y858250D01*
X72209D02*X72959Y857500D01*
X72209Y862750D02*Y858250D01*
Y862750D02*X72959Y863500D01*
X74459D01*
X75209Y862750D01*
Y858250D01*
X74459Y857500D02*X75209Y858250D01*
X72959Y857500D02*X74459D01*
X72209Y859000D02*X75209Y862000D01*
X77010Y857500D02*X77760D01*
X79562Y863500D02*X82562D01*
X79562D02*Y860500D01*
X80312Y861250D01*
X81812D01*
X82562Y860500D01*
Y858250D01*
X81812Y857500D02*X82562Y858250D01*
X80312Y857500D02*X81812D01*
X79562Y858250D02*X80312Y857500D01*
X84363Y863500D02*X87363D01*
X84363D02*Y860500D01*
X85113Y861250D01*
X86613D01*
X87363Y860500D01*
Y858250D01*
X86613Y857500D02*X87363Y858250D01*
X85113Y857500D02*X86613D01*
X84363Y858250D02*X85113Y857500D01*
X89165Y858250D02*X89915Y857500D01*
X89165Y859750D02*Y858250D01*
Y859750D02*X89915Y860500D01*
X91415D01*
X92165Y859750D01*
Y858250D01*
X91415Y857500D02*X92165Y858250D01*
X89915Y857500D02*X91415D01*
X89165Y861250D02*X89915Y860500D01*
X89165Y862750D02*Y861250D01*
Y862750D02*X89915Y863500D01*
X91415D01*
X92165Y862750D01*
Y861250D01*
X91415Y860500D02*X92165Y861250D01*
X93966Y858250D02*X94716Y857500D01*
X93966Y859750D02*Y858250D01*
Y859750D02*X94716Y860500D01*
X96216D01*
X96966Y859750D01*
Y858250D01*
X96216Y857500D02*X96966Y858250D01*
X94716Y857500D02*X96216D01*
X93966Y861250D02*X94716Y860500D01*
X93966Y862750D02*Y861250D01*
Y862750D02*X94716Y863500D01*
X96216D01*
X96966Y862750D01*
Y861250D01*
X96216Y860500D02*X96966Y861250D01*
X102218Y859750D02*Y857500D01*
Y859750D02*X102968Y860500D01*
X103718D01*
X104468Y859750D01*
Y857500D01*
Y859750D02*X105218Y860500D01*
X105968D01*
X106718Y859750D01*
Y857500D01*
X101468Y860500D02*X102218Y859750D01*
X109269D02*Y857500D01*
Y859750D02*X110019Y860500D01*
X110769D01*
X111519Y859750D01*
Y857500D01*
Y859750D02*X112269Y860500D01*
X113019D01*
X113769Y859750D01*
Y857500D01*
X108519Y860500D02*X109269Y859750D01*
X118271Y863500D02*X119021Y862750D01*
Y858250D01*
X118271Y857500D02*X119021Y858250D01*
X41000Y854249D02*X120822D01*
X62500Y159500D02*Y157900D01*
Y159500D02*X63886Y160300D01*
X62500Y159500D02*X61114Y160300D01*
X62500Y189500D02*Y187900D01*
Y189500D02*X63886Y190300D01*
X62500Y189500D02*X61114Y190300D01*
X169500Y142000D02*Y140400D01*
Y142000D02*X170886Y142800D01*
X169500Y142000D02*X168114Y142800D01*
X169500Y112000D02*Y110400D01*
Y112000D02*X170886Y112800D01*
X169500Y112000D02*X168114Y112800D01*
X255000Y439500D02*Y437900D01*
Y439500D02*X256386Y440300D01*
X255000Y439500D02*X253614Y440300D01*
X230000Y497000D02*Y495400D01*
Y497000D02*X231386Y497800D01*
X230000Y497000D02*X228614Y497800D01*
X29500Y398500D02*Y396900D01*
Y398500D02*X30886Y399300D01*
X29500Y398500D02*X28114Y399300D01*
X123500Y480500D02*Y478900D01*
Y480500D02*X124886Y481300D01*
X123500Y480500D02*X122114Y481300D01*
X123500Y410000D02*Y408400D01*
Y410000D02*X124886Y410800D01*
X123500Y410000D02*X122114Y410800D01*
X193000Y429000D02*Y427400D01*
Y429000D02*X194386Y429800D01*
X193000Y429000D02*X191614Y429800D01*
X183000Y432500D02*Y430900D01*
Y432500D02*X184386Y433300D01*
X183000Y432500D02*X181614Y433300D01*
X173000Y436000D02*Y434400D01*
Y436000D02*X174386Y436800D01*
X173000Y436000D02*X171614Y436800D01*
X163000Y439500D02*Y437900D01*
Y439500D02*X164386Y440300D01*
X163000Y439500D02*X161614Y440300D01*
X153000Y443000D02*Y441400D01*
Y443000D02*X154386Y443800D01*
X153000Y443000D02*X151614Y443800D01*
X148000Y443000D02*Y441400D01*
Y443000D02*X149386Y443800D01*
X148000Y443000D02*X146614Y443800D01*
X168000Y443000D02*Y441400D01*
Y443000D02*X169386Y443800D01*
X168000Y443000D02*X166614Y443800D01*
X138000Y429000D02*Y427400D01*
Y429000D02*X139386Y429800D01*
X138000Y429000D02*X136614Y429800D01*
X168000Y429000D02*Y427400D01*
Y429000D02*X169386Y429800D01*
X168000Y429000D02*X166614Y429800D01*
X29500Y404000D02*Y402400D01*
Y404000D02*X30886Y404800D01*
X29500Y404000D02*X28114Y404800D01*
X143000Y450000D02*Y448400D01*
Y450000D02*X144386Y450800D01*
X143000Y450000D02*X141614Y450800D01*
X245000Y450000D02*Y448400D01*
Y450000D02*X246386Y450800D01*
X245000Y450000D02*X243614Y450800D01*
X183000Y443000D02*Y441400D01*
Y443000D02*X184386Y443800D01*
X183000Y443000D02*X181614Y443800D01*
X220000Y446500D02*Y444900D01*
Y446500D02*X221386Y447300D01*
X220000Y446500D02*X218614Y447300D01*
X91000Y446500D02*Y444900D01*
Y446500D02*X92386Y447300D01*
X91000Y446500D02*X89614Y447300D01*
X81000Y443000D02*Y441400D01*
Y443000D02*X82386Y443800D01*
X81000Y443000D02*X79614Y443800D01*
X251500Y553000D02*Y551400D01*
Y553000D02*X252886Y553800D01*
X251500Y553000D02*X250114Y553800D01*
X101000Y450000D02*Y448400D01*
Y450000D02*X102386Y450800D01*
X101000Y450000D02*X99614Y450800D01*
X61000Y450000D02*Y448400D01*
Y450000D02*X62386Y450800D01*
X61000Y450000D02*X59614Y450800D01*
X96000Y429000D02*Y427400D01*
Y429000D02*X97386Y429800D01*
X96000Y429000D02*X94614Y429800D01*
X91000Y436000D02*Y434400D01*
Y436000D02*X92386Y436800D01*
X91000Y436000D02*X89614Y436800D01*
X248500Y443000D02*Y441400D01*
Y443000D02*X249886Y443800D01*
X248500Y443000D02*X247114Y443800D01*
X255000Y493500D02*Y491900D01*
Y493500D02*X256386Y494300D01*
X255000Y493500D02*X253614Y494300D01*
X123500Y415500D02*Y413900D01*
Y415500D02*X124886Y416300D01*
X123500Y415500D02*X122114Y416300D01*
X29500Y463500D02*Y461900D01*
Y463500D02*X30886Y464300D01*
X29500Y463500D02*X28114Y464300D01*
X29500Y469000D02*Y467400D01*
Y469000D02*X30886Y469800D01*
X29500Y469000D02*X28114Y469800D01*
X101000Y385000D02*Y383400D01*
Y385000D02*X102386Y385800D01*
X101000Y385000D02*X99614Y385800D01*
X76000Y383000D02*Y381400D01*
Y383000D02*X77386Y383800D01*
X76000Y383000D02*X74614Y383800D01*
X91000Y381500D02*Y379900D01*
Y381500D02*X92386Y382300D01*
X91000Y381500D02*X89614Y382300D01*
X71000Y383000D02*Y381400D01*
Y383000D02*X72386Y383800D01*
X71000Y383000D02*X69614Y383800D01*
X61500Y379500D02*Y377900D01*
Y379500D02*X62886Y380300D01*
X61500Y379500D02*X60114Y380300D01*
X123500Y475000D02*Y473400D01*
Y475000D02*X124886Y475800D01*
X123500Y475000D02*X122114Y475800D01*
X116500Y469000D02*Y467400D01*
Y469000D02*X117886Y469800D01*
X116500Y469000D02*X115114Y469800D01*
X116500Y463500D02*Y461900D01*
Y463500D02*X117886Y464300D01*
X116500Y463500D02*X115114Y464300D01*
X36500Y475000D02*Y473400D01*
Y475000D02*X37886Y475800D01*
X36500Y475000D02*X35114Y475800D01*
X36500Y415500D02*Y413900D01*
Y415500D02*X37886Y416300D01*
X36500Y415500D02*X35114Y416300D01*
X116500Y404000D02*Y402400D01*
Y404000D02*X117886Y404800D01*
X116500Y404000D02*X115114Y404800D01*
X116500Y398500D02*Y396900D01*
Y398500D02*X117886Y399300D01*
X116500Y398500D02*X115114Y399300D01*
X36500Y410000D02*Y408400D01*
Y410000D02*X37886Y410800D01*
X36500Y410000D02*X35114Y410800D01*
X36500Y480500D02*Y478900D01*
Y480500D02*X37886Y481300D01*
X36500Y480500D02*X35114Y481300D01*
X245000Y497000D02*Y495400D01*
Y497000D02*X246386Y497800D01*
X245000Y497000D02*X243614Y497800D01*
X203500Y502500D02*Y500900D01*
Y502500D02*X204886Y503300D01*
X203500Y502500D02*X202114Y503300D01*
X61000Y498500D02*Y496900D01*
Y498500D02*X62386Y499300D01*
X61000Y498500D02*X59614Y499300D01*
X264000Y503500D02*Y501900D01*
Y503500D02*X265386Y504300D01*
X264000Y503500D02*X262614Y504300D01*
X273500Y508500D02*Y506900D01*
Y508500D02*X274886Y509300D01*
X273500Y508500D02*X272114Y509300D01*
X123500Y526500D02*Y524900D01*
Y526500D02*X124886Y527300D01*
X123500Y526500D02*X122114Y527300D01*
X116500Y514500D02*Y512900D01*
Y514500D02*X117886Y515300D01*
X116500Y514500D02*X115114Y515300D01*
X203500Y539000D02*Y537400D01*
Y539000D02*X204886Y539800D01*
X203500Y539000D02*X202114Y539800D01*
X210500Y526500D02*Y524900D01*
Y526500D02*X211886Y527300D01*
X210500Y526500D02*X209114Y527300D01*
X116500Y539000D02*Y537400D01*
Y539000D02*X117886Y539800D01*
X116500Y539000D02*X115114Y539800D01*
X130500Y508500D02*Y506900D01*
Y508500D02*X131886Y509300D01*
X130500Y508500D02*X129114Y509300D01*
X76500Y439500D02*Y437900D01*
Y439500D02*X77886Y440300D01*
X76500Y439500D02*X75114Y440300D01*
X210500Y480500D02*Y478900D01*
Y480500D02*X211886Y481300D01*
X210500Y480500D02*X209114Y481300D01*
X210500Y410000D02*Y408400D01*
Y410000D02*X211886Y410800D01*
X210500Y410000D02*X209114Y410800D01*
X210500Y415500D02*Y413900D01*
Y415500D02*X211886Y416300D01*
X210500Y415500D02*X209114Y416300D01*
X210500Y475000D02*Y473400D01*
Y475000D02*X211886Y475800D01*
X210500Y475000D02*X209114Y475800D01*
X203500Y469000D02*Y467400D01*
Y469000D02*X204886Y469800D01*
X203500Y469000D02*X202114Y469800D01*
X203500Y463500D02*Y461900D01*
Y463500D02*X204886Y464300D01*
X203500Y463500D02*X202114Y464300D01*
X203500Y404000D02*Y402400D01*
Y404000D02*X204886Y404800D01*
X203500Y404000D02*X202114Y404800D01*
X203500Y398500D02*Y396900D01*
Y398500D02*X204886Y399300D01*
X203500Y398500D02*X202114Y399300D01*
X297500Y480500D02*Y478900D01*
Y480500D02*X298886Y481300D01*
X297500Y480500D02*X296114Y481300D01*
X297500Y410000D02*Y408400D01*
Y410000D02*X298886Y410800D01*
X297500Y410000D02*X296114Y410800D01*
X297500Y415500D02*Y413900D01*
Y415500D02*X298886Y416300D01*
X297500Y415500D02*X296114Y416300D01*
X297500Y475000D02*Y473400D01*
Y475000D02*X298886Y475800D01*
X297500Y475000D02*X296114Y475800D01*
X290500Y469000D02*Y467400D01*
Y469000D02*X291886Y469800D01*
X290500Y469000D02*X289114Y469800D01*
X290500Y463500D02*Y461900D01*
Y463500D02*X291886Y464300D01*
X290500Y463500D02*X289114Y464300D01*
X290500Y404000D02*Y402400D01*
Y404000D02*X291886Y404800D01*
X290500Y404000D02*X289114Y404800D01*
X290500Y398500D02*Y396900D01*
Y398500D02*X291886Y399300D01*
X290500Y398500D02*X289114Y399300D01*
X290500Y503500D02*Y501900D01*
Y503500D02*X291886Y504300D01*
X290500Y503500D02*X289114Y504300D01*
X297500Y526500D02*Y524900D01*
Y526500D02*X298886Y527300D01*
X297500Y526500D02*X296114Y527300D01*
X29500Y539000D02*Y537400D01*
Y539000D02*X30886Y539800D01*
X29500Y539000D02*X28114Y539800D01*
X36500Y526500D02*Y524900D01*
Y526500D02*X37886Y527300D01*
X36500Y526500D02*X35114Y527300D01*
X29500Y514500D02*Y512900D01*
Y514500D02*X30886Y515300D01*
X29500Y514500D02*X28114Y515300D01*
X36500Y547000D02*Y545400D01*
Y547000D02*X37886Y547800D01*
X36500Y547000D02*X35114Y547800D01*
X36500Y555500D02*Y553900D01*
Y555500D02*X37886Y556300D01*
X36500Y555500D02*X35114Y556300D01*
X36500Y572500D02*Y570900D01*
Y572500D02*X37886Y573300D01*
X36500Y572500D02*X35114Y573300D01*
X210500Y579000D02*Y577400D01*
Y579000D02*X211886Y579800D01*
X210500Y579000D02*X209114Y579800D01*
X127500Y589000D02*Y587400D01*
Y589000D02*X128886Y589800D01*
X127500Y589000D02*X126114Y589800D01*
X123500Y589000D02*Y587400D01*
Y589000D02*X124886Y589800D01*
X123500Y589000D02*X122114Y589800D01*
X290500Y539000D02*Y537400D01*
Y539000D02*X291886Y539800D01*
X290500Y539000D02*X289114Y539800D01*
X297500Y570000D02*Y568400D01*
Y570000D02*X298886Y570800D01*
X297500Y570000D02*X296114Y570800D01*
X297500Y554500D02*Y552900D01*
Y554500D02*X298886Y555300D01*
X297500Y554500D02*X296114Y555300D01*
X297500Y547000D02*Y545400D01*
Y547000D02*X298886Y547800D01*
X297500Y547000D02*X296114Y547800D01*
X109500Y582000D02*Y580400D01*
Y582000D02*X110886Y582800D01*
X109500Y582000D02*X108114Y582800D01*
X116500Y596500D02*Y594900D01*
Y596500D02*X117886Y597300D01*
X116500Y596500D02*X115114Y597300D01*
X29500Y579000D02*Y577400D01*
Y579000D02*X30886Y579800D01*
X29500Y579000D02*X28114Y579800D01*
X155500Y596500D02*Y594900D01*
Y596500D02*X156886Y597300D01*
X155500Y596500D02*X154114Y597300D01*
X69000Y596500D02*Y594900D01*
Y596500D02*X70386Y597300D01*
X69000Y596500D02*X67614Y597300D01*
X29500Y596500D02*Y594900D01*
Y596500D02*X30886Y597300D01*
X29500Y596500D02*X28114Y597300D01*
X280000Y539000D02*Y537400D01*
Y539000D02*X281386Y539800D01*
X280000Y539000D02*X278614Y539800D01*
X101500Y596500D02*Y594900D01*
Y596500D02*X102886Y597300D01*
X101500Y596500D02*X100114Y597300D01*
X36500Y564000D02*Y562400D01*
Y564000D02*X37886Y564800D01*
X36500Y564000D02*X35114Y564800D01*
X297500Y562000D02*Y560400D01*
Y562000D02*X298886Y562800D01*
X297500Y562000D02*X296114Y562800D01*
X134500Y596500D02*Y594900D01*
Y596500D02*X135886Y597300D01*
X134500Y596500D02*X133114Y597300D01*
X290500Y367500D02*Y365900D01*
Y367500D02*X291886Y368300D01*
X290500Y367500D02*X289114Y368300D01*
X29500Y367500D02*Y365900D01*
Y367500D02*X30886Y368300D01*
X29500Y367500D02*X28114Y368300D01*
X29500Y381000D02*Y379400D01*
Y381000D02*X30886Y381800D01*
X29500Y381000D02*X28114Y381800D01*
X220000Y367500D02*Y365900D01*
Y367500D02*X221386Y368300D01*
X220000Y367500D02*X218614Y368300D01*
X36500Y359500D02*Y357900D01*
Y359500D02*X37886Y360300D01*
X36500Y359500D02*X35114Y360300D01*
X46000Y359500D02*Y357900D01*
Y359500D02*X47386Y360300D01*
X46000Y359500D02*X44614Y360300D01*
X43000Y539000D02*Y537400D01*
Y539000D02*X44386Y539800D01*
X43000Y539000D02*X41614Y539800D01*
X54000Y539000D02*Y537400D01*
Y539000D02*X55386Y539800D01*
X54000Y539000D02*X52614Y539800D01*
X43000Y514500D02*Y512900D01*
Y514500D02*X44386Y515300D01*
X43000Y514500D02*X41614Y515300D01*
X54000Y514500D02*Y512900D01*
Y514500D02*X55386Y515300D01*
X54000Y514500D02*X52614Y515300D01*
X123500Y547000D02*Y545400D01*
Y547000D02*X124886Y547800D01*
X123500Y547000D02*X122114Y547800D01*
X210500Y547000D02*Y545400D01*
Y547000D02*X211886Y547800D01*
X210500Y547000D02*X209114Y547800D01*
X290500Y382500D02*Y380900D01*
Y382500D02*X291886Y383300D01*
X290500Y382500D02*X289114Y383300D01*
X202000Y382500D02*Y380900D01*
Y382500D02*X203386Y383300D01*
X202000Y382500D02*X200614Y383300D01*
X116500Y367500D02*Y365900D01*
Y367500D02*X117886Y368300D01*
X116500Y367500D02*X115114Y368300D01*
X297500Y374500D02*Y372900D01*
Y374500D02*X298886Y375300D01*
X297500Y374500D02*X296114Y375300D01*
X83000Y340500D02*Y338900D01*
Y340500D02*X84386Y341300D01*
X83000Y340500D02*X81614Y341300D01*
X71000Y343500D02*Y341900D01*
Y343500D02*X72386Y344300D01*
X71000Y343500D02*X69614Y344300D01*
X90000Y353000D02*Y351400D01*
Y353000D02*X91386Y353800D01*
X90000Y353000D02*X88614Y353800D01*
X123500Y337000D02*Y335400D01*
Y337000D02*X124886Y337800D01*
X123500Y337000D02*X122114Y337800D01*
X144500Y350000D02*Y348400D01*
Y350000D02*X145886Y350800D01*
X144500Y350000D02*X143114Y350800D01*
X201000Y337000D02*Y335400D01*
Y337000D02*X202386Y337800D01*
X201000Y337000D02*X199614Y337800D01*
X139000Y355000D02*Y353400D01*
Y355000D02*X140386Y355800D01*
X139000Y355000D02*X137614Y355800D01*
X42500Y299000D02*Y297400D01*
Y299000D02*X43886Y299800D01*
X42500Y299000D02*X41114Y299800D01*
X42500Y289000D02*Y287400D01*
Y289000D02*X43886Y289800D01*
X42500Y289000D02*X41114Y289800D01*
X116500Y303000D02*Y301400D01*
Y303000D02*X117886Y303800D01*
X116500Y303000D02*X115114Y303800D01*
X116500Y291500D02*Y289900D01*
Y291500D02*X117886Y292300D01*
X116500Y291500D02*X115114Y292300D01*
X56000Y279500D02*Y277900D01*
Y279500D02*X57386Y280300D01*
X56000Y279500D02*X54614Y280300D01*
X117000Y274000D02*Y272400D01*
Y274000D02*X118386Y274800D01*
X117000Y274000D02*X115614Y274800D01*
X111500Y274000D02*Y272400D01*
Y274000D02*X112886Y274800D01*
X111500Y274000D02*X110114Y274800D01*
X253500Y316000D02*Y314400D01*
Y316000D02*X254886Y316800D01*
X253500Y316000D02*X252114Y316800D01*
X297500Y359500D02*Y357900D01*
Y359500D02*X298886Y360300D01*
X297500Y359500D02*X296114Y360300D01*
X297500Y354000D02*Y352400D01*
Y354000D02*X298886Y354800D01*
X297500Y354000D02*X296114Y354800D01*
X243000Y298500D02*Y296900D01*
Y298500D02*X244386Y299300D01*
X243000Y298500D02*X241614Y299300D01*
X261500Y298500D02*Y296900D01*
Y298500D02*X262886Y299300D01*
X261500Y298500D02*X260114Y299300D01*
X255500Y264500D02*Y262900D01*
Y264500D02*X256886Y265300D01*
X255500Y264500D02*X254114Y265300D01*
X261000Y208000D02*Y206400D01*
Y208000D02*X262386Y208800D01*
X261000Y208000D02*X259614Y208800D01*
X15000Y876250D02*Y874650D01*
Y876250D02*X16386Y877050D01*
X15000Y876250D02*X13614Y877050D01*
X195000Y878500D02*Y877750D01*
X196500Y876250D01*
X198000Y877750D01*
Y878500D02*Y877750D01*
X196500Y876250D02*Y872500D01*
X199801Y875500D02*X202051D01*
X199801Y872500D02*X202801D01*
X199801Y878500D02*Y872500D01*
Y878500D02*X202801D01*
X207603D02*X208353Y877750D01*
X205353Y878500D02*X207603D01*
X204603Y877750D02*X205353Y878500D01*
X204603Y877750D02*Y876250D01*
X205353Y875500D01*
X207603D01*
X208353Y874750D01*
Y873250D01*
X207603Y872500D02*X208353Y873250D01*
X205353Y872500D02*X207603D01*
X204603Y873250D02*X205353Y872500D01*
X195000Y869249D02*X210154D01*
X158750Y872500D02*X160250D01*
X159500Y878500D02*Y872500D01*
X158000Y877000D02*X159500Y878500D01*
X162051Y875500D02*X165051Y878500D01*
X162051Y875500D02*X165801D01*
X165051Y878500D02*Y872500D01*
X167603Y873250D02*X168353Y872500D01*
X167603Y877750D02*Y873250D01*
Y877750D02*X168353Y878500D01*
X169853D01*
X170603Y877750D01*
Y873250D01*
X169853Y872500D02*X170603Y873250D01*
X168353Y872500D02*X169853D01*
X167603Y874000D02*X170603Y877000D01*
X158000Y869249D02*X172404D01*
X41000Y873250D02*X41750Y872500D01*
X41000Y877750D02*Y873250D01*
Y877750D02*X41750Y878500D01*
X43250D01*
X44000Y877750D01*
Y873250D01*
X43250Y872500D02*X44000Y873250D01*
X41750Y872500D02*X43250D01*
X41000Y874000D02*X44000Y877000D01*
X45801Y872500D02*X46551D01*
X48353Y873250D02*X49103Y872500D01*
X48353Y877750D02*Y873250D01*
Y877750D02*X49103Y878500D01*
X50603D01*
X51353Y877750D01*
Y873250D01*
X50603Y872500D02*X51353Y873250D01*
X49103Y872500D02*X50603D01*
X48353Y874000D02*X51353Y877000D01*
X53154Y877750D02*X53904Y878500D01*
X56154D01*
X56904Y877750D01*
Y876250D01*
X53154Y872500D02*X56904Y876250D01*
X53154Y872500D02*X56904D01*
X58706Y873250D02*X59456Y872500D01*
X58706Y877750D02*Y873250D01*
Y877750D02*X59456Y878500D01*
X60956D01*
X61706Y877750D01*
Y873250D01*
X60956Y872500D02*X61706Y873250D01*
X59456Y872500D02*X60956D01*
X58706Y874000D02*X61706Y877000D01*
X66207Y873250D02*X66957Y872500D01*
X66207Y877750D02*X66957Y878500D01*
X66207Y877750D02*Y873250D01*
X71459D02*X72209Y872500D01*
X71459Y877750D02*Y873250D01*
Y877750D02*X72209Y878500D01*
X73709D01*
X74459Y877750D01*
Y873250D01*
X73709Y872500D02*X74459Y873250D01*
X72209Y872500D02*X73709D01*
X71459Y874000D02*X74459Y877000D01*
X76260Y872500D02*X77010D01*
X78812Y878500D02*X81812D01*
X78812D02*Y875500D01*
X79562Y876250D01*
X81062D01*
X81812Y875500D01*
Y873250D01*
X81062Y872500D02*X81812Y873250D01*
X79562Y872500D02*X81062D01*
X78812Y873250D02*X79562Y872500D01*
X83613Y873250D02*X84363Y872500D01*
X83613Y877750D02*Y873250D01*
Y877750D02*X84363Y878500D01*
X85863D01*
X86613Y877750D01*
Y873250D01*
X85863Y872500D02*X86613Y873250D01*
X84363Y872500D02*X85863D01*
X83613Y874000D02*X86613Y877000D01*
X88415Y873250D02*X89165Y872500D01*
X88415Y874750D02*Y873250D01*
Y874750D02*X89165Y875500D01*
X90665D01*
X91415Y874750D01*
Y873250D01*
X90665Y872500D02*X91415Y873250D01*
X89165Y872500D02*X90665D01*
X88415Y876250D02*X89165Y875500D01*
X88415Y877750D02*Y876250D01*
Y877750D02*X89165Y878500D01*
X90665D01*
X91415Y877750D01*
Y876250D01*
X90665Y875500D02*X91415Y876250D01*
X93216Y873250D02*X93966Y872500D01*
X93216Y877750D02*Y873250D01*
Y877750D02*X93966Y878500D01*
X95466D01*
X96216Y877750D01*
Y873250D01*
X95466Y872500D02*X96216Y873250D01*
X93966Y872500D02*X95466D01*
X93216Y874000D02*X96216Y877000D01*
X101468Y874750D02*Y872500D01*
Y874750D02*X102218Y875500D01*
X102968D01*
X103718Y874750D01*
Y872500D01*
Y874750D02*X104468Y875500D01*
X105218D01*
X105968Y874750D01*
Y872500D01*
X100718Y875500D02*X101468Y874750D01*
X108519D02*Y872500D01*
Y874750D02*X109269Y875500D01*
X110019D01*
X110769Y874750D01*
Y872500D01*
Y874750D02*X111519Y875500D01*
X112269D01*
X113019Y874750D01*
Y872500D01*
X107769Y875500D02*X108519Y874750D01*
X117521Y878500D02*X118271Y877750D01*
Y873250D01*
X117521Y872500D02*X118271Y873250D01*
X41000Y869249D02*X120072D01*
X3000Y893500D02*X3750Y892750D01*
X750Y893500D02*X3000D01*
X0Y892750D02*X750Y893500D01*
X0Y892750D02*Y891250D01*
X750Y890500D01*
X3000D01*
X3750Y889750D01*
Y888250D01*
X3000Y887500D02*X3750Y888250D01*
X750Y887500D02*X3000D01*
X0Y888250D02*X750Y887500D01*
X5551Y890500D02*Y888250D01*
X6301Y887500D01*
X8551Y890500D02*Y886000D01*
X7801Y885250D02*X8551Y886000D01*
X6301Y885250D02*X7801D01*
X5551Y886000D02*X6301Y885250D01*
Y887500D02*X7801D01*
X8551Y888250D01*
X11103Y889750D02*Y887500D01*
Y889750D02*X11853Y890500D01*
X12603D01*
X13353Y889750D01*
Y887500D01*
Y889750D02*X14103Y890500D01*
X14853D01*
X15603Y889750D01*
Y887500D01*
X10353Y890500D02*X11103Y889750D01*
X17404Y893500D02*Y887500D01*
Y888250D02*X18154Y887500D01*
X19654D01*
X20404Y888250D01*
Y889750D02*Y888250D01*
X19654Y890500D02*X20404Y889750D01*
X18154Y890500D02*X19654D01*
X17404Y889750D02*X18154Y890500D01*
X22206Y889750D02*Y888250D01*
Y889750D02*X22956Y890500D01*
X24456D01*
X25206Y889750D01*
Y888250D01*
X24456Y887500D02*X25206Y888250D01*
X22956Y887500D02*X24456D01*
X22206Y888250D02*X22956Y887500D01*
X27007Y893500D02*Y888250D01*
X27757Y887500D01*
X41750Y893500D02*Y887500D01*
X44000Y893500D02*X44750Y892750D01*
Y888250D01*
X44000Y887500D02*X44750Y888250D01*
X41000Y887500D02*X44000D01*
X41000Y893500D02*X44000D01*
X46551Y892000D02*Y891250D01*
Y889750D02*Y887500D01*
X50303Y890500D02*X51053Y889750D01*
X48803Y890500D02*X50303D01*
X48053Y889750D02*X48803Y890500D01*
X48053Y889750D02*Y888250D01*
X48803Y887500D01*
X51053Y890500D02*Y888250D01*
X51803Y887500D01*
X48803D02*X50303D01*
X51053Y888250D01*
X54354Y889750D02*Y887500D01*
Y889750D02*X55104Y890500D01*
X55854D01*
X56604Y889750D01*
Y887500D01*
Y889750D02*X57354Y890500D01*
X58104D01*
X58854Y889750D01*
Y887500D01*
X53604Y890500D02*X54354Y889750D01*
X60656Y887500D02*X61406D01*
X65907Y893500D02*X67407D01*
X66657D02*Y887500D01*
X65907D02*X67407D01*
X69959Y889750D02*Y887500D01*
Y889750D02*X70709Y890500D01*
X71459D01*
X72209Y889750D01*
Y887500D01*
X69209Y890500D02*X69959Y889750D01*
X74760Y890500D02*X77010D01*
X74010Y889750D02*X74760Y890500D01*
X74010Y889750D02*Y888250D01*
X74760Y887500D01*
X77010D01*
X78812Y893500D02*Y887500D01*
Y889750D02*X79562Y890500D01*
X81062D01*
X81812Y889750D01*
Y887500D01*
X86313Y888250D02*X87063Y887500D01*
X86313Y892750D02*X87063Y893500D01*
X86313Y892750D02*Y888250D01*
X89615Y889750D02*Y887500D01*
Y889750D02*X90365Y890500D01*
X91115D01*
X91865Y889750D01*
Y887500D01*
Y889750D02*X92615Y890500D01*
X93365D01*
X94115Y889750D01*
Y887500D01*
X88865Y890500D02*X89615Y889750D01*
X96666D02*Y887500D01*
Y889750D02*X97416Y890500D01*
X98166D01*
X98916Y889750D01*
Y887500D01*
Y889750D02*X99666Y890500D01*
X100416D01*
X101166Y889750D01*
Y887500D01*
X95916Y890500D02*X96666Y889750D01*
X102968Y893500D02*X103718Y892750D01*
Y888250D01*
X102968Y887500D02*X103718Y888250D01*
X155750Y887500D02*X158000D01*
X155000Y888250D02*X155750Y887500D01*
X155000Y892750D02*Y888250D01*
Y892750D02*X155750Y893500D01*
X158000D01*
X159801Y889750D02*Y888250D01*
Y889750D02*X160551Y890500D01*
X162051D01*
X162801Y889750D01*
Y888250D01*
X162051Y887500D02*X162801Y888250D01*
X160551Y887500D02*X162051D01*
X159801Y888250D02*X160551Y887500D01*
X164603Y890500D02*Y888250D01*
X165353Y887500D01*
X166853D01*
X167603Y888250D01*
Y890500D02*Y888250D01*
X170154Y889750D02*Y887500D01*
Y889750D02*X170904Y890500D01*
X171654D01*
X172404Y889750D01*
Y887500D01*
X169404Y890500D02*X170154Y889750D01*
X174956Y893500D02*Y888250D01*
X175706Y887500D01*
X174206Y891250D02*X175706D01*
X190750Y893500D02*Y887500D01*
X190000Y893500D02*X193000D01*
X193750Y892750D01*
Y891250D01*
X193000Y890500D02*X193750Y891250D01*
X190750Y890500D02*X193000D01*
X195551Y893500D02*Y888250D01*
X196301Y887500D01*
X200053Y890500D02*X200803Y889750D01*
X198553Y890500D02*X200053D01*
X197803Y889750D02*X198553Y890500D01*
X197803Y889750D02*Y888250D01*
X198553Y887500D01*
X200803Y890500D02*Y888250D01*
X201553Y887500D01*
X198553D02*X200053D01*
X200803Y888250D01*
X204104Y893500D02*Y888250D01*
X204854Y887500D01*
X203354Y891250D02*X204854D01*
X207106Y887500D02*X209356D01*
X206356Y888250D02*X207106Y887500D01*
X206356Y889750D02*Y888250D01*
Y889750D02*X207106Y890500D01*
X208606D01*
X209356Y889750D01*
X206356Y889000D02*X209356D01*
Y889750D02*Y889000D01*
X214157Y893500D02*Y887500D01*
X213407D02*X214157Y888250D01*
X211907Y887500D02*X213407D01*
X211157Y888250D02*X211907Y887500D01*
X211157Y889750D02*Y888250D01*
Y889750D02*X211907Y890500D01*
X213407D01*
X214157Y889750D01*
X217459Y890500D02*Y889750D01*
Y888250D02*Y887500D01*
X215959Y892750D02*Y892000D01*
Y892750D02*X216709Y893500D01*
X218209D01*
X218959Y892750D01*
Y892000D01*
X217459Y890500D02*X218959Y892000D01*
X0Y908500D02*X3000D01*
X1500D02*Y902500D01*
X4801Y908500D02*Y902500D01*
Y904750D02*X5551Y905500D01*
X7051D01*
X7801Y904750D01*
Y902500D01*
X10353D02*X12603D01*
X9603Y903250D02*X10353Y902500D01*
X9603Y904750D02*Y903250D01*
Y904750D02*X10353Y905500D01*
X11853D01*
X12603Y904750D01*
X9603Y904000D02*X12603D01*
Y904750D02*Y904000D01*
X15154Y904750D02*Y902500D01*
Y904750D02*X15904Y905500D01*
X17404D01*
X14404D02*X15154Y904750D01*
X19956Y902500D02*X22206D01*
X19206Y903250D02*X19956Y902500D01*
X19206Y904750D02*Y903250D01*
Y904750D02*X19956Y905500D01*
X21456D01*
X22206Y904750D01*
X19206Y904000D02*X22206D01*
Y904750D02*Y904000D01*
X28957Y905500D02*X29707Y904750D01*
X27457Y905500D02*X28957D01*
X26707Y904750D02*X27457Y905500D01*
X26707Y904750D02*Y903250D01*
X27457Y902500D01*
X29707Y905500D02*Y903250D01*
X30457Y902500D01*
X27457D02*X28957D01*
X29707Y903250D01*
X33009Y904750D02*Y902500D01*
Y904750D02*X33759Y905500D01*
X35259D01*
X32259D02*X33009Y904750D01*
X37810Y902500D02*X40060D01*
X37060Y903250D02*X37810Y902500D01*
X37060Y904750D02*Y903250D01*
Y904750D02*X37810Y905500D01*
X39310D01*
X40060Y904750D01*
X37060Y904000D02*X40060D01*
Y904750D02*Y904000D01*
X45312Y902500D02*X46812D01*
X46062Y908500D02*Y902500D01*
X44562Y907000D02*X46062Y908500D01*
X48613Y907750D02*X49363Y908500D01*
X51613D01*
X52363Y907750D01*
Y906250D01*
X48613Y902500D02*X52363Y906250D01*
X48613Y902500D02*X52363D01*
X59865Y908500D02*Y902500D01*
X59115D02*X59865Y903250D01*
X57615Y902500D02*X59115D01*
X56865Y903250D02*X57615Y902500D01*
X56865Y904750D02*Y903250D01*
Y904750D02*X57615Y905500D01*
X59115D01*
X59865Y904750D01*
X61666Y907000D02*Y906250D01*
Y904750D02*Y902500D01*
X63918Y907750D02*Y902500D01*
Y907750D02*X64668Y908500D01*
X65418D01*
X63168Y905500D02*X64668D01*
X67669Y907750D02*Y902500D01*
Y907750D02*X68419Y908500D01*
X69169D01*
X66919Y905500D02*X68419D01*
X71421Y902500D02*X73671D01*
X70671Y903250D02*X71421Y902500D01*
X70671Y904750D02*Y903250D01*
Y904750D02*X71421Y905500D01*
X72921D01*
X73671Y904750D01*
X70671Y904000D02*X73671D01*
Y904750D02*Y904000D01*
X76222Y904750D02*Y902500D01*
Y904750D02*X76972Y905500D01*
X78472D01*
X75472D02*X76222Y904750D01*
X81024Y902500D02*X83274D01*
X80274Y903250D02*X81024Y902500D01*
X80274Y904750D02*Y903250D01*
Y904750D02*X81024Y905500D01*
X82524D01*
X83274Y904750D01*
X80274Y904000D02*X83274D01*
Y904750D02*Y904000D01*
X85825Y904750D02*Y902500D01*
Y904750D02*X86575Y905500D01*
X87325D01*
X88075Y904750D01*
Y902500D01*
X85075Y905500D02*X85825Y904750D01*
X90627Y908500D02*Y903250D01*
X91377Y902500D01*
X89877Y906250D02*X91377D01*
X98578Y908500D02*Y902500D01*
X97828D02*X98578Y903250D01*
X96328Y902500D02*X97828D01*
X95578Y903250D02*X96328Y902500D01*
X95578Y904750D02*Y903250D01*
Y904750D02*X96328Y905500D01*
X97828D01*
X98578Y904750D01*
X101130D02*Y902500D01*
Y904750D02*X101880Y905500D01*
X103380D01*
X100380D02*X101130Y904750D01*
X105181Y907000D02*Y906250D01*
Y904750D02*Y902500D01*
X106683Y908500D02*Y903250D01*
X107433Y902500D01*
X108934Y908500D02*Y903250D01*
X109684Y902500D01*
X114636D02*X116886D01*
X117636Y903250D01*
X116886Y904000D02*X117636Y903250D01*
X114636Y904000D02*X116886D01*
X113886Y904750D02*X114636Y904000D01*
X113886Y904750D02*X114636Y905500D01*
X116886D01*
X117636Y904750D01*
X113886Y903250D02*X114636Y902500D01*
X119437Y907000D02*Y906250D01*
Y904750D02*Y902500D01*
X120939Y905500D02*X123939D01*
X120939Y902500D02*X123939Y905500D01*
X120939Y902500D02*X123939D01*
X126490D02*X128740D01*
X125740Y903250D02*X126490Y902500D01*
X125740Y904750D02*Y903250D01*
Y904750D02*X126490Y905500D01*
X127990D01*
X128740Y904750D01*
X125740Y904000D02*X128740D01*
Y904750D02*Y904000D01*
X131292Y902500D02*X133542D01*
X134292Y903250D01*
X133542Y904000D02*X134292Y903250D01*
X131292Y904000D02*X133542D01*
X130542Y904750D02*X131292Y904000D01*
X130542Y904750D02*X131292Y905500D01*
X133542D01*
X134292Y904750D01*
X130542Y903250D02*X131292Y902500D01*
X138793Y905500D02*Y903250D01*
X139543Y902500D01*
X141043D01*
X141793Y903250D01*
Y905500D02*Y903250D01*
X144345Y902500D02*X146595D01*
X147345Y903250D01*
X146595Y904000D02*X147345Y903250D01*
X144345Y904000D02*X146595D01*
X143595Y904750D02*X144345Y904000D01*
X143595Y904750D02*X144345Y905500D01*
X146595D01*
X147345Y904750D01*
X143595Y903250D02*X144345Y902500D01*
X149896D02*X152146D01*
X149146Y903250D02*X149896Y902500D01*
X149146Y904750D02*Y903250D01*
Y904750D02*X149896Y905500D01*
X151396D01*
X152146Y904750D01*
X149146Y904000D02*X152146D01*
Y904750D02*Y904000D01*
X156948Y908500D02*Y902500D01*
X156198D02*X156948Y903250D01*
X154698Y902500D02*X156198D01*
X153948Y903250D02*X154698Y902500D01*
X153948Y904750D02*Y903250D01*
Y904750D02*X154698Y905500D01*
X156198D01*
X156948Y904750D01*
X161449Y907000D02*Y906250D01*
Y904750D02*Y902500D01*
X163701Y904750D02*Y902500D01*
Y904750D02*X164451Y905500D01*
X165201D01*
X165951Y904750D01*
Y902500D01*
X162951Y905500D02*X163701Y904750D01*
X171202Y908500D02*Y903250D01*
X171952Y902500D01*
X170452Y906250D02*X171952D01*
X173454Y908500D02*Y902500D01*
Y904750D02*X174204Y905500D01*
X175704D01*
X176454Y904750D01*
Y902500D01*
X178255Y907000D02*Y906250D01*
Y904750D02*Y902500D01*
X180507D02*X182757D01*
X183507Y903250D01*
X182757Y904000D02*X183507Y903250D01*
X180507Y904000D02*X182757D01*
X179757Y904750D02*X180507Y904000D01*
X179757Y904750D02*X180507Y905500D01*
X182757D01*
X183507Y904750D01*
X179757Y903250D02*X180507Y902500D01*
X188008Y908500D02*Y903250D01*
X188758Y902500D01*
X192510Y905500D02*X193260Y904750D01*
X191010Y905500D02*X192510D01*
X190260Y904750D02*X191010Y905500D01*
X190260Y904750D02*Y903250D01*
X191010Y902500D01*
X193260Y905500D02*Y903250D01*
X194010Y902500D01*
X191010D02*X192510D01*
X193260Y903250D01*
X195811Y905500D02*Y903250D01*
X196561Y902500D01*
X198811Y905500D02*Y901000D01*
X198061Y900250D02*X198811Y901000D01*
X196561Y900250D02*X198061D01*
X195811Y901000D02*X196561Y900250D01*
Y902500D02*X198061D01*
X198811Y903250D01*
X200613Y904750D02*Y903250D01*
Y904750D02*X201363Y905500D01*
X202863D01*
X203613Y904750D01*
Y903250D01*
X202863Y902500D02*X203613Y903250D01*
X201363Y902500D02*X202863D01*
X200613Y903250D02*X201363Y902500D01*
X205414Y905500D02*Y903250D01*
X206164Y902500D01*
X207664D01*
X208414Y903250D01*
Y905500D02*Y903250D01*
X210966Y908500D02*Y903250D01*
X211716Y902500D01*
X210216Y906250D02*X211716D01*
X213217Y901000D02*X214717Y902500D01*
X219219Y905500D02*X222219Y908500D01*
X219219Y905500D02*X222969D01*
X222219Y908500D02*Y902500D01*
X224770Y907750D02*X225520Y908500D01*
X227770D01*
X228520Y907750D01*
Y906250D01*
X224770Y902500D02*X228520Y906250D01*
X224770Y902500D02*X228520D01*
X230322D02*X234072Y906250D01*
Y908500D02*Y906250D01*
X230322Y908500D02*X234072D01*
X238573D02*Y902500D01*
Y904750D02*X239323Y905500D01*
X240823D01*
X241573Y904750D01*
Y902500D01*
X243375Y904750D02*Y903250D01*
Y904750D02*X244125Y905500D01*
X245625D01*
X246375Y904750D01*
Y903250D01*
X245625Y902500D02*X246375Y903250D01*
X244125Y902500D02*X245625D01*
X243375Y903250D02*X244125Y902500D01*
X248176Y908500D02*Y903250D01*
X248926Y902500D01*
X251178D02*X253428D01*
X250428Y903250D02*X251178Y902500D01*
X250428Y904750D02*Y903250D01*
Y904750D02*X251178Y905500D01*
X252678D01*
X253428Y904750D01*
X250428Y904000D02*X253428D01*
Y904750D02*Y904000D01*
X255979Y902500D02*X258229D01*
X258979Y903250D01*
X258229Y904000D02*X258979Y903250D01*
X255979Y904000D02*X258229D01*
X255229Y904750D02*X255979Y904000D01*
X255229Y904750D02*X255979Y905500D01*
X258229D01*
X258979Y904750D01*
X255229Y903250D02*X255979Y902500D01*
X264231Y908500D02*Y903250D01*
X264981Y902500D01*
X263481Y906250D02*X264981D01*
X266482Y904750D02*Y903250D01*
Y904750D02*X267232Y905500D01*
X268732D01*
X269482Y904750D01*
Y903250D01*
X268732Y902500D02*X269482Y903250D01*
X267232Y902500D02*X268732D01*
X266482Y903250D02*X267232Y902500D01*
X272034Y908500D02*Y903250D01*
X272784Y902500D01*
X271284Y906250D02*X272784D01*
X276535Y905500D02*X277285Y904750D01*
X275035Y905500D02*X276535D01*
X274285Y904750D02*X275035Y905500D01*
X274285Y904750D02*Y903250D01*
X275035Y902500D01*
X277285Y905500D02*Y903250D01*
X278035Y902500D01*
X275035D02*X276535D01*
X277285Y903250D01*
X279837Y908500D02*Y903250D01*
X280587Y902500D01*
G54D12*X51500Y655500D02*X275500D01*
X82500Y132000D02*Y116500D01*
X87000Y112000D02*X93500D01*
X98000Y132000D02*Y116500D01*
X87000Y136500D02*X93500D01*
X241500Y148500D02*Y137500D01*
X246000Y153000D02*X257000D01*
X51500Y94000D02*X275500D01*
X304500Y626500D02*Y123000D01*
X230000Y152500D02*X178500D01*
X22500Y123000D02*Y626500D01*
X24500Y628500D02*G75*G03X22500Y626500I0J-2000D01*G01*
X51500Y655500D02*G75*G03X49500Y653500I0J-2000D01*G01*
X22500Y123000D02*G75*G03X24500Y121000I2000J0D01*G01*
X304500Y626500D02*G75*G03X302500Y628500I-2000J0D01*G01*
X277500Y653500D02*G75*G03X275500Y655500I-2000J0D01*G01*
X24500Y121000D02*G75*G02X49500Y96000I0J-25000D01*G01*
X302500Y628500D02*G75*G02X277500Y653500I0J25000D01*G01*
X49500D02*G75*G02X24500Y628500I-25000J0D01*G01*
X82500Y132000D02*G75*G02X87000Y136500I4500J0D01*G01*
X98000Y116500D02*G75*G02X93500Y112000I-4500J0D01*G01*
X87000D02*G75*G02X82500Y116500I0J4500D01*G01*
X93500Y136500D02*G75*G02X98000Y132000I0J-4500D01*G01*
X257000Y144000D02*G75*G03X250500Y137500I0J-6500D01*G01*
X261500Y148500D02*G75*G02X257000Y144000I-4500J0D01*G01*
Y153000D02*G75*G02X261500Y148500I0J-4500D01*G01*
X250500Y137500D02*G75*G02X246000Y133000I-4500J0D01*G01*
G75*G02X241500Y137500I0J4500D01*G01*
Y148500D02*G75*G02X246000Y153000I4500J0D01*G01*
X302500Y121000D02*G75*G03X304500Y123000I0J2000D01*G01*
X275500Y94000D02*G75*G03X277500Y96000I0J2000D01*G01*
G75*G02X302500Y121000I25000J0D01*G01*
X49500Y96000D02*G75*G03X51500Y94000I2000J0D01*G01*
G54D37*X354500Y121000D02*Y628500D01*
X334500Y625500D02*Y124000D01*
X374500Y94000D02*Y655500D01*
X49500Y93500D02*Y40000D01*
X379500Y655500D02*X277500D01*
Y93000D02*Y40000D01*
X274500Y93000D02*Y60000D01*
X277500Y44000D02*X49500D01*
X52500Y93500D02*Y60000D01*
X22500Y121000D02*Y20000D01*
X305000Y121000D02*X359500D01*
X304500Y120500D02*Y20000D01*
X305000Y124000D02*X339500D01*
X52500Y64000D02*X274500D01*
X305000Y625500D02*X339500D01*
X305000Y628500D02*X359500D01*
X304500Y26000D02*X22500D01*
X278000Y94000D02*X379500D01*
G54D38*X341540Y318580D02*Y313500D01*
X346620D01*
X345350Y314770D01*
Y317310D02*Y314770D01*
Y317310D02*X346620Y318580D01*
X350430D01*
X351700Y317310D02*X350430Y318580D01*
X351700Y317310D02*Y314770D01*
X350430Y313500D02*X351700Y314770D01*
Y322900D02*Y321630D01*
X350430Y325951D02*X351700Y327221D01*
X342810Y325951D02*X350430D01*
X342810D02*X341540Y327221D01*
Y329761D02*Y327221D01*
Y329761D02*X342810Y331031D01*
X350430D01*
X351700Y329761D02*X350430Y331031D01*
X351700Y329761D02*Y327221D01*
X349160Y325951D02*X344080Y331031D01*
X351700Y334081D02*X345350Y340431D01*
X341540D02*X345350D01*
X341540D02*Y334081D01*
Y348562D02*Y343482D01*
X346620D01*
X345350Y344752D01*
Y347292D02*Y344752D01*
Y347292D02*X346620Y348562D01*
X350430D01*
X351700Y347292D02*X350430Y348562D01*
X351700Y347292D02*Y344752D01*
X350430Y343482D02*X351700Y344752D01*
X344080Y351612D02*X345350D01*
X347890D02*X351700D01*
X347890Y355425D02*X351700D01*
X347890D02*X346620Y356695D01*
Y357965D02*Y356695D01*
Y357965D02*X347890Y359235D01*
X351700D01*
X346620Y354155D02*X347890Y355425D01*
X351700Y370667D02*Y368127D01*
X341540Y369397D02*X351700D01*
X344080Y366857D02*X341540Y369397D01*
X342810Y373718D02*X341540Y374988D01*
Y378798D02*Y374988D01*
Y378798D02*X342810Y380068D01*
X345350D01*
X351700Y373718D02*X345350Y380068D01*
X351700D02*Y373718D01*
X350430Y383118D02*X351700Y384388D01*
X347890Y383118D02*X350430D01*
X347890D02*X346620Y384388D01*
Y386928D02*Y384388D01*
Y386928D02*X347890Y388198D01*
X350430D01*
X351700Y386928D02*X350430Y388198D01*
X351700Y386928D02*Y384388D01*
X345350Y383118D02*X346620Y384388D01*
X342810Y383118D02*X345350D01*
X342810D02*X341540Y384388D01*
Y386928D02*Y384388D01*
Y386928D02*X342810Y388198D01*
X345350D01*
X346620Y386928D02*X345350Y388198D01*
X351700Y392519D02*Y391249D01*
Y395569D02*X346620Y400649D01*
X342810D02*X346620D01*
X341540Y399379D02*X342810Y400649D01*
X341540Y399379D02*Y396839D01*
X342810Y395569D02*X341540Y396839D01*
X342810Y395569D02*X345350D01*
X346620Y396839D01*
Y400649D02*Y396839D01*
X350430Y403700D02*X351700Y404970D01*
X342810Y403700D02*X350430D01*
X342810D02*X341540Y404970D01*
Y407510D02*Y404970D01*
Y407510D02*X342810Y408780D01*
X350430D01*
X351700Y407510D02*X350430Y408780D01*
X351700Y407510D02*Y404970D01*
X349160Y403700D02*X344080Y408780D01*
X341540Y416911D02*Y411831D01*
X346620D01*
X345350Y413101D01*
Y415641D02*Y413101D01*
Y415641D02*X346620Y416911D01*
X350430D01*
X351700Y415641D02*X350430Y416911D01*
X351700Y415641D02*Y413101D01*
X350430Y411831D02*X351700Y413101D01*
X347890Y421231D02*X351700D01*
X347890D02*X346620Y422501D01*
Y423771D02*Y422501D01*
Y423771D02*X347890Y425041D01*
X351700D01*
X347890D02*X346620Y426311D01*
Y427581D02*Y426311D01*
Y427581D02*X347890Y428851D01*
X351700D01*
X346620Y419961D02*X347890Y421231D01*
Y433172D02*X351700D01*
X347890D02*X346620Y434442D01*
Y435712D02*Y434442D01*
Y435712D02*X347890Y436982D01*
X351700D01*
X347890D02*X346620Y438252D01*
Y439522D02*Y438252D01*
Y439522D02*X347890Y440792D01*
X351700D01*
X346620Y431902D02*X347890Y433172D01*
X320540Y318080D02*Y313000D01*
X325620D01*
X324350Y314270D01*
Y316810D02*Y314270D01*
Y316810D02*X325620Y318080D01*
X329430D01*
X330700Y316810D02*X329430Y318080D01*
X330700Y316810D02*Y314270D01*
X329430Y313000D02*X330700Y314270D01*
Y322400D02*Y321130D01*
X329430Y325451D02*X330700Y326721D01*
X321810Y325451D02*X329430D01*
X321810D02*X320540Y326721D01*
Y329261D02*Y326721D01*
Y329261D02*X321810Y330531D01*
X329430D01*
X330700Y329261D02*X329430Y330531D01*
X330700Y329261D02*Y326721D01*
X328160Y325451D02*X323080Y330531D01*
X330700Y337391D02*Y334851D01*
X320540Y336121D02*X330700D01*
X323080Y333581D02*X320540Y336121D01*
Y345522D02*Y340442D01*
X325620D01*
X324350Y341712D01*
Y344252D02*Y341712D01*
Y344252D02*X325620Y345522D01*
X329430D01*
X330700Y344252D02*X329430Y345522D01*
X330700Y344252D02*Y341712D01*
X329430Y340442D02*X330700Y341712D01*
X323080Y348572D02*X324350D01*
X326890D02*X330700D01*
X326890Y352385D02*X330700D01*
X326890D02*X325620Y353655D01*
Y354925D02*Y353655D01*
Y354925D02*X326890Y356195D01*
X330700D01*
X325620Y351115D02*X326890Y352385D01*
X330700Y367627D02*Y365087D01*
X320540Y366357D02*X330700D01*
X323080Y363817D02*X320540Y366357D01*
X321810Y370678D02*X320540Y371948D01*
Y375758D02*Y371948D01*
Y375758D02*X321810Y377028D01*
X324350D01*
X330700Y370678D02*X324350Y377028D01*
X330700D02*Y370678D01*
Y380078D02*X324350Y386428D01*
X320540D02*X324350D01*
X320540D02*Y380078D01*
X330700Y390749D02*Y389479D01*
X321810Y393799D02*X320540Y395069D01*
Y397609D02*Y395069D01*
Y397609D02*X321810Y398879D01*
X329430D01*
X330700Y397609D02*X329430Y398879D01*
X330700Y397609D02*Y395069D01*
X329430Y393799D02*X330700Y395069D01*
X325620Y398879D02*Y395069D01*
X329430Y401930D02*X330700Y403200D01*
X326890Y401930D02*X329430D01*
X326890D02*X325620Y403200D01*
Y405740D02*Y403200D01*
Y405740D02*X326890Y407010D01*
X329430D01*
X330700Y405740D02*X329430Y407010D01*
X330700Y405740D02*Y403200D01*
X324350Y401930D02*X325620Y403200D01*
X321810Y401930D02*X324350D01*
X321810D02*X320540Y403200D01*
Y405740D02*Y403200D01*
Y405740D02*X321810Y407010D01*
X324350D01*
X325620Y405740D02*X324350Y407010D01*
X330700Y413871D02*Y411331D01*
X320540Y412601D02*X330700D01*
X323080Y410061D02*X320540Y412601D01*
X326890Y418191D02*X330700D01*
X326890D02*X325620Y419461D01*
Y420731D02*Y419461D01*
Y420731D02*X326890Y422001D01*
X330700D01*
X326890D02*X325620Y423271D01*
Y424541D02*Y423271D01*
Y424541D02*X326890Y425811D01*
X330700D01*
X325620Y416921D02*X326890Y418191D01*
Y430132D02*X330700D01*
X326890D02*X325620Y431402D01*
Y432672D02*Y431402D01*
Y432672D02*X326890Y433942D01*
X330700D01*
X326890D02*X325620Y435212D01*
Y436482D02*Y435212D01*
Y436482D02*X326890Y437752D01*
X330700D01*
X325620Y428862D02*X326890Y430132D01*
X361540Y318580D02*Y313500D01*
X366620D01*
X365350Y314770D01*
Y317310D02*Y314770D01*
Y317310D02*X366620Y318580D01*
X370430D01*
X371700Y317310D02*X370430Y318580D01*
X371700Y317310D02*Y314770D01*
X370430Y313500D02*X371700Y314770D01*
Y322900D02*Y321630D01*
X361540Y329761D02*X362810Y331031D01*
X361540Y329761D02*Y327221D01*
X362810Y325951D02*X361540Y327221D01*
X362810Y325951D02*X370430D01*
X371700Y327221D01*
X366620Y329761D02*X367890Y331031D01*
X366620Y329761D02*Y325951D01*
X371700Y329761D02*Y327221D01*
Y329761D02*X370430Y331031D01*
X367890D02*X370430D01*
X371700Y337891D02*Y335351D01*
X361540Y336621D02*X371700D01*
X364080Y334081D02*X361540Y336621D01*
Y346022D02*Y340942D01*
X366620D01*
X365350Y342212D01*
Y344752D02*Y342212D01*
Y344752D02*X366620Y346022D01*
X370430D01*
X371700Y344752D02*X370430Y346022D01*
X371700Y344752D02*Y342212D01*
X370430Y340942D02*X371700Y342212D01*
X364080Y349072D02*X365350D01*
X367890D02*X371700D01*
X367890Y352885D02*X371700D01*
X367890D02*X366620Y354155D01*
Y355425D02*Y354155D01*
Y355425D02*X367890Y356695D01*
X371700D01*
X366620Y351615D02*X367890Y352885D01*
X371700Y368127D02*Y365587D01*
X361540Y366857D02*X371700D01*
X364080Y364317D02*X361540Y366857D01*
X366620Y371178D02*X361540Y376258D01*
X366620Y377528D02*Y371178D01*
X361540Y376258D02*X371700D01*
X362810Y380578D02*X361540Y381848D01*
Y385658D02*Y381848D01*
Y385658D02*X362810Y386928D01*
X365350D01*
X371700Y380578D02*X365350Y386928D01*
X371700D02*Y380578D01*
Y391249D02*Y389979D01*
X361540Y398109D02*X362810Y399379D01*
X361540Y398109D02*Y395569D01*
X362810Y394299D02*X361540Y395569D01*
X362810Y394299D02*X370430D01*
X371700Y395569D01*
X366620Y398109D02*X367890Y399379D01*
X366620Y398109D02*Y394299D01*
X371700Y398109D02*Y395569D01*
Y398109D02*X370430Y399379D01*
X367890D02*X370430D01*
X362810Y402430D02*X361540Y403700D01*
Y407510D02*Y403700D01*
Y407510D02*X362810Y408780D01*
X365350D01*
X371700Y402430D02*X365350Y408780D01*
X371700D02*Y402430D01*
Y415641D02*Y413101D01*
X361540Y414371D02*X371700D01*
X364080Y411831D02*X361540Y414371D01*
X367890Y419961D02*X371700D01*
X367890D02*X366620Y421231D01*
Y422501D02*Y421231D01*
Y422501D02*X367890Y423771D01*
X371700D01*
X367890D02*X366620Y425041D01*
Y426311D02*Y425041D01*
Y426311D02*X367890Y427581D01*
X371700D01*
X366620Y418691D02*X367890Y419961D01*
Y431902D02*X371700D01*
X367890D02*X366620Y433172D01*
Y434442D02*Y433172D01*
Y434442D02*X367890Y435712D01*
X371700D01*
X367890D02*X366620Y436982D01*
Y438252D02*Y436982D01*
Y438252D02*X367890Y439522D01*
X371700D01*
X366620Y430632D02*X367890Y431902D01*
X103000Y56190D02*X104270Y57460D01*
X108080D01*
X109350Y56190D01*
Y53650D01*
X103000Y47300D02*X109350Y53650D01*
X103000Y47300D02*X109350D01*
X112400D02*X113670D01*
X116721Y56190D02*X117991Y57460D01*
X121801D01*
X123071Y56190D01*
Y53650D01*
X116721Y47300D02*X123071Y53650D01*
X116721Y47300D02*X123071D01*
X126121Y48570D02*X127391Y47300D01*
X126121Y51110D02*Y48570D01*
Y51110D02*X127391Y52380D01*
X129931D01*
X131201Y51110D01*
Y48570D01*
X129931Y47300D02*X131201Y48570D01*
X127391Y47300D02*X129931D01*
X126121Y53650D02*X127391Y52380D01*
X126121Y56190D02*Y53650D01*
Y56190D02*X127391Y57460D01*
X129931D01*
X131201Y56190D01*
Y53650D01*
X129931Y52380D02*X131201Y53650D01*
X134252Y48570D02*X135522Y47300D01*
X134252Y56190D02*Y48570D01*
Y56190D02*X135522Y57460D01*
X138062D01*
X139332Y56190D01*
Y48570D01*
X138062Y47300D02*X139332Y48570D01*
X135522Y47300D02*X138062D01*
X134252Y49840D02*X139332Y54920D01*
X142382D02*Y53650D01*
Y51110D02*Y47300D01*
X146195Y51110D02*Y47300D01*
Y51110D02*X147465Y52380D01*
X148735D01*
X150005Y51110D01*
Y47300D01*
X144925Y52380D02*X146195Y51110D01*
X157627Y57460D02*X162707D01*
X157627D02*Y52380D01*
X158897Y53650D01*
X161437D01*
X162707Y52380D01*
Y48570D01*
X161437Y47300D02*X162707Y48570D01*
X158897Y47300D02*X161437D01*
X157627Y48570D02*X158897Y47300D01*
X165758D02*X172108Y53650D01*
Y57460D02*Y53650D01*
X165758Y57460D02*X172108D01*
X175158Y47300D02*X176428D01*
X179479D02*X184559Y52380D01*
Y56190D02*Y52380D01*
X183289Y57460D02*X184559Y56190D01*
X180749Y57460D02*X183289D01*
X179479Y56190D02*X180749Y57460D01*
X179479Y56190D02*Y53650D01*
X180749Y52380D01*
X184559D01*
X188879Y47300D02*X191419D01*
X190149Y57460D02*Y47300D01*
X187609Y54920D02*X190149Y57460D01*
X194470Y56190D02*X195740Y57460D01*
X199550D01*
X200820Y56190D01*
Y53650D01*
X194470Y47300D02*X200820Y53650D01*
X194470Y47300D02*X200820D01*
X205141Y51110D02*Y47300D01*
Y51110D02*X206411Y52380D01*
X207681D01*
X208951Y51110D01*
Y47300D01*
Y51110D02*X210221Y52380D01*
X211491D01*
X212761Y51110D01*
Y47300D01*
X203871Y52380D02*X205141Y51110D01*
X217081D02*Y47300D01*
Y51110D02*X218351Y52380D01*
X219621D01*
X220891Y51110D01*
Y47300D01*
Y51110D02*X222161Y52380D01*
X223431D01*
X224701Y51110D01*
Y47300D01*
X215811Y52380D02*X217081Y51110D01*
X103500Y37690D02*X104770Y38960D01*
X108580D01*
X109850Y37690D01*
Y35150D01*
X103500Y28800D02*X109850Y35150D01*
X103500Y28800D02*X109850D01*
X112900D02*X114170D01*
X117221Y30070D02*X118491Y28800D01*
X117221Y32610D02*Y30070D01*
Y32610D02*X118491Y33880D01*
X121031D01*
X122301Y32610D01*
Y30070D01*
X121031Y28800D02*X122301Y30070D01*
X118491Y28800D02*X121031D01*
X117221Y35150D02*X118491Y33880D01*
X117221Y37690D02*Y35150D01*
Y37690D02*X118491Y38960D01*
X121031D01*
X122301Y37690D01*
Y35150D01*
X121031Y33880D02*X122301Y35150D01*
X125351Y37690D02*X126621Y38960D01*
X130431D01*
X131701Y37690D01*
Y35150D01*
X125351Y28800D02*X131701Y35150D01*
X125351Y28800D02*X131701D01*
X134752Y30070D02*X136022Y28800D01*
X134752Y37690D02*Y30070D01*
Y37690D02*X136022Y38960D01*
X138562D01*
X139832Y37690D01*
Y30070D01*
X138562Y28800D02*X139832Y30070D01*
X136022Y28800D02*X138562D01*
X134752Y31340D02*X139832Y36420D01*
X142882D02*Y35150D01*
Y32610D02*Y28800D01*
X146695Y32610D02*Y28800D01*
Y32610D02*X147965Y33880D01*
X149235D01*
X150505Y32610D01*
Y28800D01*
X145425Y33880D02*X146695Y32610D01*
X158127Y28800D02*X164477Y35150D01*
Y38960D02*Y35150D01*
X158127Y38960D02*X164477D01*
X168798Y28800D02*X171338D01*
X170068Y38960D02*Y28800D01*
X167528Y36420D02*X170068Y38960D01*
X174388Y28800D02*X175658D01*
X182519Y38960D02*X183789Y37690D01*
X179979Y38960D02*X182519D01*
X178709Y37690D02*X179979Y38960D01*
X178709Y37690D02*Y30070D01*
X179979Y28800D01*
X182519Y33880D02*X183789Y32610D01*
X178709Y33880D02*X182519D01*
X179979Y28800D02*X182519D01*
X183789Y30070D01*
Y32610D02*Y30070D01*
X186839Y37690D02*X188109Y38960D01*
X191919D01*
X193189Y37690D01*
Y35150D01*
X186839Y28800D02*X193189Y35150D01*
X186839Y28800D02*X193189D01*
X196240Y30070D02*X197510Y28800D01*
X196240Y32610D02*Y30070D01*
Y32610D02*X197510Y33880D01*
X200050D01*
X201320Y32610D01*
Y30070D01*
X200050Y28800D02*X201320Y30070D01*
X197510Y28800D02*X200050D01*
X196240Y35150D02*X197510Y33880D01*
X196240Y37690D02*Y35150D01*
Y37690D02*X197510Y38960D01*
X200050D01*
X201320Y37690D01*
Y35150D01*
X200050Y33880D02*X201320Y35150D01*
X205641Y32610D02*Y28800D01*
Y32610D02*X206911Y33880D01*
X208181D01*
X209451Y32610D01*
Y28800D01*
Y32610D02*X210721Y33880D01*
X211991D01*
X213261Y32610D01*
Y28800D01*
X204371Y33880D02*X205641Y32610D01*
X217581D02*Y28800D01*
Y32610D02*X218851Y33880D01*
X220121D01*
X221391Y32610D01*
Y28800D01*
Y32610D02*X222661Y33880D01*
X223931D01*
X225201Y32610D01*
Y28800D01*
X216311Y33880D02*X217581Y32610D01*
X103500Y75690D02*X104770Y76960D01*
X108580D01*
X109850Y75690D01*
Y73150D01*
X103500Y66800D02*X109850Y73150D01*
X103500Y66800D02*X109850D01*
X112900D02*X114170D01*
X117221Y75690D02*X118491Y76960D01*
X122301D01*
X123571Y75690D01*
Y73150D01*
X117221Y66800D02*X123571Y73150D01*
X117221Y66800D02*X123571D01*
X126621Y75690D02*X127891Y76960D01*
X131701D01*
X132971Y75690D01*
Y73150D01*
X126621Y66800D02*X132971Y73150D01*
X126621Y66800D02*X132971D01*
X136022Y68070D02*X137292Y66800D01*
X136022Y75690D02*Y68070D01*
Y75690D02*X137292Y76960D01*
X139832D01*
X141102Y75690D01*
Y68070D01*
X139832Y66800D02*X141102Y68070D01*
X137292Y66800D02*X139832D01*
X136022Y69340D02*X141102Y74420D01*
X144152D02*Y73150D01*
Y70610D02*Y66800D01*
X147965Y70610D02*Y66800D01*
Y70610D02*X149235Y71880D01*
X150505D01*
X151775Y70610D01*
Y66800D01*
X146695Y71880D02*X147965Y70610D01*
X159397Y76960D02*X164477D01*
X159397D02*Y71880D01*
X160667Y73150D01*
X163207D01*
X164477Y71880D01*
Y68070D01*
X163207Y66800D02*X164477Y68070D01*
X160667Y66800D02*X163207D01*
X159397Y68070D02*X160667Y66800D01*
X171338Y76960D02*X172608Y75690D01*
X168798Y76960D02*X171338D01*
X167528Y75690D02*X168798Y76960D01*
X167528Y75690D02*Y68070D01*
X168798Y66800D01*
X171338Y71880D02*X172608Y70610D01*
X167528Y71880D02*X171338D01*
X168798Y66800D02*X171338D01*
X172608Y68070D01*
Y70610D02*Y68070D01*
X175658Y66800D02*X176928D01*
X179979Y75690D02*X181249Y76960D01*
X183789D01*
X185059Y75690D01*
Y68070D01*
X183789Y66800D02*X185059Y68070D01*
X181249Y66800D02*X183789D01*
X179979Y68070D02*X181249Y66800D01*
Y71880D02*X185059D01*
X188109Y75690D02*X189379Y76960D01*
X191919D01*
X193189Y75690D01*
Y68070D01*
X191919Y66800D02*X193189Y68070D01*
X189379Y66800D02*X191919D01*
X188109Y68070D02*X189379Y66800D01*
Y71880D02*X193189D01*
X196240Y68070D02*X197510Y66800D01*
X196240Y70610D02*Y68070D01*
Y70610D02*X197510Y71880D01*
X200050D01*
X201320Y70610D01*
Y68070D01*
X200050Y66800D02*X201320Y68070D01*
X197510Y66800D02*X200050D01*
X196240Y73150D02*X197510Y71880D01*
X196240Y75690D02*Y73150D01*
Y75690D02*X197510Y76960D01*
X200050D01*
X201320Y75690D01*
Y73150D01*
X200050Y71880D02*X201320Y73150D01*
X205641Y70610D02*Y66800D01*
Y70610D02*X206911Y71880D01*
X208181D01*
X209451Y70610D01*
Y66800D01*
Y70610D02*X210721Y71880D01*
X211991D01*
X213261Y70610D01*
Y66800D01*
X204371Y71880D02*X205641Y70610D01*
X217581D02*Y66800D01*
Y70610D02*X218851Y71880D01*
X220121D01*
X221391Y70610D01*
Y66800D01*
Y70610D02*X222661Y71880D01*
X223931D01*
X225201Y70610D01*
Y66800D01*
X216311Y71880D02*X217581Y70610D01*
G54D37*X260000Y713500D02*Y707500D01*
Y713500D02*X262250Y711250D01*
X264500Y713500D01*
Y707500D01*
X268551Y710500D02*X269301Y709750D01*
X267051Y710500D02*X268551D01*
X266301Y709750D02*X267051Y710500D01*
X266301Y709750D02*Y708250D01*
X267051Y707500D01*
X269301Y710500D02*Y708250D01*
X270051Y707500D01*
X267051D02*X268551D01*
X269301Y708250D01*
X271853Y710500D02*X274853Y707500D01*
X271853D02*X274853Y710500D01*
X276654Y712000D02*Y711250D01*
Y709750D02*Y707500D01*
X278906Y709750D02*Y707500D01*
Y709750D02*X279656Y710500D01*
X280406D01*
X281156Y709750D01*
Y707500D01*
Y709750D02*X281906Y710500D01*
X282656D01*
X283406Y709750D01*
Y707500D01*
X278156Y710500D02*X278906Y709750D01*
X285207Y710500D02*Y708250D01*
X285957Y707500D01*
X287457D01*
X288207Y708250D01*
Y710500D02*Y708250D01*
X290759Y709750D02*Y707500D01*
Y709750D02*X291509Y710500D01*
X292259D01*
X293009Y709750D01*
Y707500D01*
Y709750D02*X293759Y710500D01*
X294509D01*
X295259Y709750D01*
Y707500D01*
X290009Y710500D02*X290759Y709750D01*
X300510Y713500D02*Y707500D01*
X302760Y713500D02*X303510Y712750D01*
Y708250D01*
X302760Y707500D02*X303510Y708250D01*
X299760Y707500D02*X302760D01*
X299760Y713500D02*X302760D01*
X305312Y712000D02*Y711250D01*
Y709750D02*Y707500D01*
X307563Y709750D02*Y707500D01*
Y709750D02*X308313Y710500D01*
X309063D01*
X309813Y709750D01*
Y707500D01*
Y709750D02*X310563Y710500D01*
X311313D01*
X312063Y709750D01*
Y707500D01*
X306813Y710500D02*X307563Y709750D01*
X314615Y707500D02*X316865D01*
X313865Y708250D02*X314615Y707500D01*
X313865Y709750D02*Y708250D01*
Y709750D02*X314615Y710500D01*
X316115D01*
X316865Y709750D01*
X313865Y709000D02*X316865D01*
Y709750D02*Y709000D01*
X319416Y709750D02*Y707500D01*
Y709750D02*X320166Y710500D01*
X320916D01*
X321666Y709750D01*
Y707500D01*
X318666Y710500D02*X319416Y709750D01*
X324218Y707500D02*X326468D01*
X327218Y708250D01*
X326468Y709000D02*X327218Y708250D01*
X324218Y709000D02*X326468D01*
X323468Y709750D02*X324218Y709000D01*
X323468Y709750D02*X324218Y710500D01*
X326468D01*
X327218Y709750D01*
X323468Y708250D02*X324218Y707500D01*
X329019Y712000D02*Y711250D01*
Y709750D02*Y707500D01*
X330521Y709750D02*Y708250D01*
Y709750D02*X331271Y710500D01*
X332771D01*
X333521Y709750D01*
Y708250D01*
X332771Y707500D02*X333521Y708250D01*
X331271Y707500D02*X332771D01*
X330521Y708250D02*X331271Y707500D01*
X336072Y709750D02*Y707500D01*
Y709750D02*X336822Y710500D01*
X337572D01*
X338322Y709750D01*
Y707500D01*
X335322Y710500D02*X336072Y709750D01*
X340874Y707500D02*X343124D01*
X343874Y708250D01*
X343124Y709000D02*X343874Y708250D01*
X340874Y709000D02*X343124D01*
X340124Y709750D02*X340874Y709000D01*
X340124Y709750D02*X340874Y710500D01*
X343124D01*
X343874Y709750D01*
X340124Y708250D02*X340874Y707500D01*
X345675Y711250D02*X346425D01*
X345675Y709750D02*X346425D01*
X350927Y712750D02*X351677Y713500D01*
X353927D01*
X354677Y712750D01*
Y711250D01*
X350927Y707500D02*X354677Y711250D01*
X350927Y707500D02*X354677D01*
X356478Y708250D02*X357228Y707500D01*
X356478Y709750D02*Y708250D01*
Y709750D02*X357228Y710500D01*
X358728D01*
X359478Y709750D01*
Y708250D01*
X358728Y707500D02*X359478Y708250D01*
X357228Y707500D02*X358728D01*
X356478Y711250D02*X357228Y710500D01*
X356478Y712750D02*Y711250D01*
Y712750D02*X357228Y713500D01*
X358728D01*
X359478Y712750D01*
Y711250D01*
X358728Y710500D02*X359478Y711250D01*
X361280Y712750D02*X362030Y713500D01*
X364280D01*
X365030Y712750D01*
Y711250D01*
X361280Y707500D02*X365030Y711250D01*
X361280Y707500D02*X365030D01*
X366831Y708250D02*X367581Y707500D01*
X366831Y712750D02*Y708250D01*
Y712750D02*X367581Y713500D01*
X369081D01*
X369831Y712750D01*
Y708250D01*
X369081Y707500D02*X369831Y708250D01*
X367581Y707500D02*X369081D01*
X366831Y709000D02*X369831Y712000D01*
X375083Y709750D02*Y707500D01*
Y709750D02*X375833Y710500D01*
X376583D01*
X377333Y709750D01*
Y707500D01*
Y709750D02*X378083Y710500D01*
X378833D01*
X379583Y709750D01*
Y707500D01*
X374333Y710500D02*X375083Y709750D01*
X381384Y712000D02*Y711250D01*
Y709750D02*Y707500D01*
X382886Y713500D02*Y708250D01*
X383636Y707500D01*
X385887D02*X388137D01*
X388887Y708250D01*
X388137Y709000D02*X388887Y708250D01*
X385887Y709000D02*X388137D01*
X385137Y709750D02*X385887Y709000D01*
X385137Y709750D02*X385887Y710500D01*
X388137D01*
X388887Y709750D01*
X385137Y708250D02*X385887Y707500D01*
X393389Y708250D02*X394139Y707500D01*
X393389Y712750D02*X394139Y713500D01*
X393389Y712750D02*Y708250D01*
X398640Y707500D02*X402390Y711250D01*
Y713500D02*Y711250D01*
X398640Y713500D02*X402390D01*
X404942Y707500D02*X406442D01*
X405692Y713500D02*Y707500D01*
X404192Y712000D02*X405692Y713500D01*
X408243Y707500D02*X408993D01*
X413045Y713500D02*X413795Y712750D01*
X411545Y713500D02*X413045D01*
X410795Y712750D02*X411545Y713500D01*
X410795Y712750D02*Y708250D01*
X411545Y707500D01*
X413045Y710500D02*X413795Y709750D01*
X410795Y710500D02*X413045D01*
X411545Y707500D02*X413045D01*
X413795Y708250D01*
Y709750D02*Y708250D01*
X415596Y712750D02*X416346Y713500D01*
X418596D01*
X419346Y712750D01*
Y711250D01*
X415596Y707500D02*X419346Y711250D01*
X415596Y707500D02*X419346D01*
X421148Y708250D02*X421898Y707500D01*
X421148Y709750D02*Y708250D01*
Y709750D02*X421898Y710500D01*
X423398D01*
X424148Y709750D01*
Y708250D01*
X423398Y707500D02*X424148Y708250D01*
X421898Y707500D02*X423398D01*
X421148Y711250D02*X421898Y710500D01*
X421148Y712750D02*Y711250D01*
Y712750D02*X421898Y713500D01*
X423398D01*
X424148Y712750D01*
Y711250D01*
X423398Y710500D02*X424148Y711250D01*
X429399Y709750D02*Y707500D01*
Y709750D02*X430149Y710500D01*
X430899D01*
X431649Y709750D01*
Y707500D01*
Y709750D02*X432399Y710500D01*
X433149D01*
X433899Y709750D01*
Y707500D01*
X428649Y710500D02*X429399Y709750D01*
X436451D02*Y707500D01*
Y709750D02*X437201Y710500D01*
X437951D01*
X438701Y709750D01*
Y707500D01*
Y709750D02*X439451Y710500D01*
X440201D01*
X440951Y709750D01*
Y707500D01*
X435701Y710500D02*X436451Y709750D01*
X445452Y713500D02*X446202Y712750D01*
Y708250D01*
X445452Y707500D02*X446202Y708250D01*
X450704Y710500D02*Y708250D01*
X451454Y707500D01*
X452204D01*
X452954Y708250D01*
Y710500D02*Y708250D01*
X453704Y707500D01*
X454454D01*
X455204Y708250D01*
Y710500D02*Y708250D01*
X457005Y712000D02*Y711250D01*
Y709750D02*Y707500D01*
X461507Y713500D02*Y707500D01*
X460757D02*X461507Y708250D01*
X459257Y707500D02*X460757D01*
X458507Y708250D02*X459257Y707500D01*
X458507Y709750D02*Y708250D01*
Y709750D02*X459257Y710500D01*
X460757D01*
X461507Y709750D01*
X464058Y707500D02*X466308D01*
X463308Y708250D02*X464058Y707500D01*
X463308Y709750D02*Y708250D01*
Y709750D02*X464058Y710500D01*
X465558D01*
X466308Y709750D01*
X463308Y709000D02*X466308D01*
Y709750D02*Y709000D01*
X468110Y706000D02*X469610Y707500D01*
X474111Y713500D02*X477111D01*
X474111D02*Y710500D01*
X474861Y711250D01*
X476361D01*
X477111Y710500D01*
Y708250D01*
X476361Y707500D02*X477111Y708250D01*
X474861Y707500D02*X476361D01*
X474111Y708250D02*X474861Y707500D01*
X481163Y713500D02*X481913Y712750D01*
X479663Y713500D02*X481163D01*
X478913Y712750D02*X479663Y713500D01*
X478913Y712750D02*Y708250D01*
X479663Y707500D01*
X481163Y710500D02*X481913Y709750D01*
X478913Y710500D02*X481163D01*
X479663Y707500D02*X481163D01*
X481913Y708250D01*
Y709750D02*Y708250D01*
X484464Y707500D02*X485964D01*
X485214Y713500D02*Y707500D01*
X483714Y712000D02*X485214Y713500D01*
X487766D02*X490766D01*
X487766D02*Y710500D01*
X488516Y711250D01*
X490016D01*
X490766Y710500D01*
Y708250D01*
X490016Y707500D02*X490766Y708250D01*
X488516Y707500D02*X490016D01*
X487766Y708250D02*X488516Y707500D01*
X496017Y709750D02*Y707500D01*
Y709750D02*X496767Y710500D01*
X497517D01*
X498267Y709750D01*
Y707500D01*
Y709750D02*X499017Y710500D01*
X499767D01*
X500517Y709750D01*
Y707500D01*
X495267Y710500D02*X496017Y709750D01*
X502319Y712000D02*Y711250D01*
Y709750D02*Y707500D01*
X503820Y713500D02*Y708250D01*
X504570Y707500D01*
X506822D02*X509072D01*
X509822Y708250D01*
X509072Y709000D02*X509822Y708250D01*
X506822Y709000D02*X509072D01*
X506072Y709750D02*X506822Y709000D01*
X506072Y709750D02*X506822Y710500D01*
X509072D01*
X509822Y709750D01*
X506072Y708250D02*X506822Y707500D01*
X514323Y708250D02*X515073Y707500D01*
X514323Y712750D02*X515073Y713500D01*
X514323Y712750D02*Y708250D01*
X520325Y707500D02*X521825D01*
X521075Y713500D02*Y707500D01*
X519575Y712000D02*X521075Y713500D01*
X523626Y710500D02*X526626Y713500D01*
X523626Y710500D02*X527376D01*
X526626Y713500D02*Y707500D01*
X529178Y712750D02*X529928Y713500D01*
X532178D01*
X532928Y712750D01*
Y711250D01*
X529178Y707500D02*X532928Y711250D01*
X529178Y707500D02*X532928D01*
X534729D02*X535479D01*
X539531Y713500D02*X540281Y712750D01*
X538031Y713500D02*X539531D01*
X537281Y712750D02*X538031Y713500D01*
X537281Y712750D02*Y708250D01*
X538031Y707500D01*
X539531Y710500D02*X540281Y709750D01*
X537281Y710500D02*X539531D01*
X538031Y707500D02*X539531D01*
X540281Y708250D01*
Y709750D02*Y708250D01*
X542082Y712750D02*X542832Y713500D01*
X545082D01*
X545832Y712750D01*
Y711250D01*
X542082Y707500D02*X545832Y711250D01*
X542082Y707500D02*X545832D01*
X548384D02*X549884D01*
X549134Y713500D02*Y707500D01*
X547634Y712000D02*X549134Y713500D01*
X555135Y709750D02*Y707500D01*
Y709750D02*X555885Y710500D01*
X556635D01*
X557385Y709750D01*
Y707500D01*
Y709750D02*X558135Y710500D01*
X558885D01*
X559635Y709750D01*
Y707500D01*
X554385Y710500D02*X555135Y709750D01*
X562187D02*Y707500D01*
Y709750D02*X562937Y710500D01*
X563687D01*
X564437Y709750D01*
Y707500D01*
Y709750D02*X565187Y710500D01*
X565937D01*
X566687Y709750D01*
Y707500D01*
X561437Y710500D02*X562187Y709750D01*
X571188Y713500D02*X571938Y712750D01*
Y708250D01*
X571188Y707500D02*X571938Y708250D01*
X576440Y713500D02*Y707500D01*
Y709750D02*X577190Y710500D01*
X578690D01*
X579440Y709750D01*
Y707500D01*
X581241Y712000D02*Y711250D01*
Y709750D02*Y707500D01*
X584993Y710500D02*X585743Y709750D01*
X583493Y710500D02*X584993D01*
X582743Y709750D02*X583493Y710500D01*
X582743Y709750D02*Y708250D01*
X583493Y707500D01*
X584993D01*
X585743Y708250D01*
X582743Y706000D02*X583493Y705250D01*
X584993D01*
X585743Y706000D01*
Y710500D02*Y706000D01*
X587544Y713500D02*Y707500D01*
Y709750D02*X588294Y710500D01*
X589794D01*
X590544Y709750D01*
Y707500D01*
X16232Y-9500D02*X19232D01*
X19982Y-8750D01*
Y-7250D02*Y-8750D01*
X19232Y-6500D02*X19982Y-7250D01*
X16982Y-6500D02*X19232D01*
X16982Y-3500D02*Y-9500D01*
X16232Y-3500D02*X19232D01*
X19982Y-4250D01*
Y-5750D01*
X19232Y-6500D02*X19982Y-5750D01*
X21783Y-7250D02*Y-8750D01*
Y-7250D02*X22533Y-6500D01*
X24033D01*
X24783Y-7250D01*
Y-8750D01*
X24033Y-9500D02*X24783Y-8750D01*
X22533Y-9500D02*X24033D01*
X21783Y-8750D02*X22533Y-9500D01*
X28835Y-6500D02*X29585Y-7250D01*
X27335Y-6500D02*X28835D01*
X26585Y-7250D02*X27335Y-6500D01*
X26585Y-7250D02*Y-8750D01*
X27335Y-9500D01*
X29585Y-6500D02*Y-8750D01*
X30335Y-9500D01*
X27335D02*X28835D01*
X29585Y-8750D01*
X32886Y-7250D02*Y-9500D01*
Y-7250D02*X33636Y-6500D01*
X35136D01*
X32136D02*X32886Y-7250D01*
X39938Y-3500D02*Y-9500D01*
X39188D02*X39938Y-8750D01*
X37688Y-9500D02*X39188D01*
X36938Y-8750D02*X37688Y-9500D01*
X36938Y-7250D02*Y-8750D01*
Y-7250D02*X37688Y-6500D01*
X39188D01*
X39938Y-7250D01*
X44439D02*Y-8750D01*
Y-7250D02*X45189Y-6500D01*
X46689D01*
X47439Y-7250D01*
Y-8750D01*
X46689Y-9500D02*X47439Y-8750D01*
X45189Y-9500D02*X46689D01*
X44439Y-8750D02*X45189Y-9500D01*
X49241Y-6500D02*Y-8750D01*
X49991Y-9500D01*
X51491D01*
X52241Y-8750D01*
Y-6500D02*Y-8750D01*
X54792Y-3500D02*Y-8750D01*
X55542Y-9500D01*
X54042Y-5750D02*X55542D01*
X57044Y-3500D02*Y-8750D01*
X57794Y-9500D01*
X59295Y-5000D02*Y-5750D01*
Y-7250D02*Y-9500D01*
X61547Y-7250D02*Y-9500D01*
Y-7250D02*X62297Y-6500D01*
X63047D01*
X63797Y-7250D01*
Y-9500D01*
X60797Y-6500D02*X61547Y-7250D01*
X66348Y-9500D02*X68598D01*
X65598Y-8750D02*X66348Y-9500D01*
X65598Y-7250D02*Y-8750D01*
Y-7250D02*X66348Y-6500D01*
X67848D01*
X68598Y-7250D01*
X65598Y-8000D02*X68598D01*
Y-7250D02*Y-8000D01*
X73100Y-5000D02*Y-5750D01*
Y-7250D02*Y-9500D01*
X75351D02*X77601D01*
X78351Y-8750D01*
X77601Y-8000D02*X78351Y-8750D01*
X75351Y-8000D02*X77601D01*
X74601Y-7250D02*X75351Y-8000D01*
X74601Y-7250D02*X75351Y-6500D01*
X77601D01*
X78351Y-7250D01*
X74601Y-8750D02*X75351Y-9500D01*
X83603Y-3500D02*Y-8750D01*
X84353Y-9500D01*
X82853Y-5750D02*X84353D01*
X85854Y-3500D02*Y-9500D01*
Y-7250D02*X86604Y-6500D01*
X88104D01*
X88854Y-7250D01*
Y-9500D01*
X91406D02*X93656D01*
X90656Y-8750D02*X91406Y-9500D01*
X90656Y-7250D02*Y-8750D01*
Y-7250D02*X91406Y-6500D01*
X92906D01*
X93656Y-7250D01*
X90656Y-8000D02*X93656D01*
Y-7250D02*Y-8000D01*
X98907Y-6500D02*X101157D01*
X98157Y-7250D02*X98907Y-6500D01*
X98157Y-7250D02*Y-8750D01*
X98907Y-9500D01*
X101157D01*
X103709D02*X105959D01*
X102959Y-8750D02*X103709Y-9500D01*
X102959Y-7250D02*Y-8750D01*
Y-7250D02*X103709Y-6500D01*
X105209D01*
X105959Y-7250D01*
X102959Y-8000D02*X105959D01*
Y-7250D02*Y-8000D01*
X108510Y-7250D02*Y-9500D01*
Y-7250D02*X109260Y-6500D01*
X110010D01*
X110760Y-7250D01*
Y-9500D01*
X107760Y-6500D02*X108510Y-7250D01*
X113312Y-3500D02*Y-8750D01*
X114062Y-9500D01*
X112562Y-5750D02*X114062D01*
X116313Y-9500D02*X118563D01*
X115563Y-8750D02*X116313Y-9500D01*
X115563Y-7250D02*Y-8750D01*
Y-7250D02*X116313Y-6500D01*
X117813D01*
X118563Y-7250D01*
X115563Y-8000D02*X118563D01*
Y-7250D02*Y-8000D01*
X121115Y-7250D02*Y-9500D01*
Y-7250D02*X121865Y-6500D01*
X123365D01*
X120365D02*X121115Y-7250D01*
X125166Y-3500D02*Y-8750D01*
X125916Y-9500D01*
X127418Y-5000D02*Y-5750D01*
Y-7250D02*Y-9500D01*
X129669Y-7250D02*Y-9500D01*
Y-7250D02*X130419Y-6500D01*
X131169D01*
X131919Y-7250D01*
Y-9500D01*
X128919Y-6500D02*X129669Y-7250D01*
X134471Y-9500D02*X136721D01*
X133721Y-8750D02*X134471Y-9500D01*
X133721Y-7250D02*Y-8750D01*
Y-7250D02*X134471Y-6500D01*
X135971D01*
X136721Y-7250D01*
X133721Y-8000D02*X136721D01*
Y-7250D02*Y-8000D01*
X141222Y-7250D02*Y-8750D01*
Y-7250D02*X141972Y-6500D01*
X143472D01*
X144222Y-7250D01*
Y-8750D01*
X143472Y-9500D02*X144222Y-8750D01*
X141972Y-9500D02*X143472D01*
X141222Y-8750D02*X141972Y-9500D01*
X146774Y-4250D02*Y-9500D01*
Y-4250D02*X147524Y-3500D01*
X148274D01*
X146024Y-6500D02*X147524D01*
X153225Y-3500D02*Y-8750D01*
X153975Y-9500D01*
X152475Y-5750D02*X153975D01*
X155477Y-3500D02*Y-9500D01*
Y-7250D02*X156227Y-6500D01*
X157727D01*
X158477Y-7250D01*
Y-9500D01*
X160278Y-5000D02*Y-5750D01*
Y-7250D02*Y-9500D01*
X162530D02*X164780D01*
X165530Y-8750D01*
X164780Y-8000D02*X165530Y-8750D01*
X162530Y-8000D02*X164780D01*
X161780Y-7250D02*X162530Y-8000D01*
X161780Y-7250D02*X162530Y-6500D01*
X164780D01*
X165530Y-7250D01*
X161780Y-8750D02*X162530Y-9500D01*
X170781D02*X172281D01*
X171531Y-3500D02*Y-9500D01*
X170031Y-5000D02*X171531Y-3500D01*
X174083Y-8750D02*X174833Y-9500D01*
X174083Y-4250D02*Y-8750D01*
Y-4250D02*X174833Y-3500D01*
X176333D01*
X177083Y-4250D01*
Y-8750D01*
X176333Y-9500D02*X177083Y-8750D01*
X174833Y-9500D02*X176333D01*
X174083Y-8000D02*X177083Y-5000D01*
X182334Y-7250D02*Y-9500D01*
Y-7250D02*X183084Y-6500D01*
X183834D01*
X184584Y-7250D01*
Y-9500D01*
Y-7250D02*X185334Y-6500D01*
X186084D01*
X186834Y-7250D01*
Y-9500D01*
X181584Y-6500D02*X182334Y-7250D01*
X188636Y-5000D02*Y-5750D01*
Y-7250D02*Y-9500D01*
X190137Y-3500D02*Y-8750D01*
X190887Y-9500D01*
X195839Y-7250D02*Y-11750D01*
X195089Y-6500D02*X195839Y-7250D01*
X196589Y-6500D01*
X198089D01*
X198839Y-7250D01*
Y-8750D01*
X198089Y-9500D02*X198839Y-8750D01*
X196589Y-9500D02*X198089D01*
X195839Y-8750D02*X196589Y-9500D01*
X202890Y-6500D02*X203640Y-7250D01*
X201390Y-6500D02*X202890D01*
X200640Y-7250D02*X201390Y-6500D01*
X200640Y-7250D02*Y-8750D01*
X201390Y-9500D01*
X203640Y-6500D02*Y-8750D01*
X204390Y-9500D01*
X201390D02*X202890D01*
X203640Y-8750D01*
X206942Y-3500D02*Y-8750D01*
X207692Y-9500D01*
X206192Y-5750D02*X207692D01*
X209193Y-3500D02*Y-9500D01*
Y-7250D02*X209943Y-6500D01*
X211443D01*
X212193Y-7250D01*
Y-9500D01*
X217445Y-4250D02*Y-9500D01*
Y-4250D02*X218195Y-3500D01*
X218945D01*
X216695Y-6500D02*X218195D01*
X220446Y-7250D02*Y-8750D01*
Y-7250D02*X221196Y-6500D01*
X222696D01*
X223446Y-7250D01*
Y-8750D01*
X222696Y-9500D02*X223446Y-8750D01*
X221196Y-9500D02*X222696D01*
X220446Y-8750D02*X221196Y-9500D01*
X225998Y-7250D02*Y-9500D01*
Y-7250D02*X226748Y-6500D01*
X228248D01*
X225248D02*X225998Y-7250D01*
X230799D02*Y-9500D01*
Y-7250D02*X231549Y-6500D01*
X232299D01*
X233049Y-7250D01*
Y-9500D01*
Y-7250D02*X233799Y-6500D01*
X234549D01*
X235299Y-7250D01*
Y-9500D01*
X230049Y-6500D02*X230799Y-7250D01*
X0Y-19250D02*X750Y-18500D01*
X3000D01*
X3750Y-19250D01*
Y-20750D01*
X0Y-24500D02*X3750Y-20750D01*
X0Y-24500D02*X3750D01*
X5551Y-19250D02*X6301Y-18500D01*
X8551D01*
X9301Y-19250D01*
Y-20750D01*
X5551Y-24500D02*X9301Y-20750D01*
X5551Y-24500D02*X9301D01*
X11103Y-18500D02*X14103D01*
X11103D02*Y-21500D01*
X11853Y-20750D01*
X13353D01*
X14103Y-21500D01*
Y-23750D01*
X13353Y-24500D02*X14103Y-23750D01*
X11853Y-24500D02*X13353D01*
X11103Y-23750D02*X11853Y-24500D01*
X18604Y-23750D02*X19354Y-24500D01*
X18604Y-19250D02*X19354Y-18500D01*
X18604Y-19250D02*Y-23750D01*
X23856Y-18500D02*X26856D01*
X23856D02*Y-21500D01*
X24606Y-20750D01*
X26106D01*
X26856Y-21500D01*
Y-23750D01*
X26106Y-24500D02*X26856Y-23750D01*
X24606Y-24500D02*X26106D01*
X23856Y-23750D02*X24606Y-24500D01*
X28657D02*X29407D01*
X31209D02*X34959Y-20750D01*
Y-18500D02*Y-20750D01*
X31209Y-18500D02*X34959D01*
X37510Y-24500D02*X39010D01*
X38260Y-18500D02*Y-24500D01*
X36760Y-20000D02*X38260Y-18500D01*
X40812D02*X43812D01*
X40812D02*Y-21500D01*
X41562Y-20750D01*
X43062D01*
X43812Y-21500D01*
Y-23750D01*
X43062Y-24500D02*X43812Y-23750D01*
X41562Y-24500D02*X43062D01*
X40812Y-23750D02*X41562Y-24500D01*
X46363Y-22250D02*Y-24500D01*
Y-22250D02*X47113Y-21500D01*
X47863D01*
X48613Y-22250D01*
Y-24500D01*
Y-22250D02*X49363Y-21500D01*
X50113D01*
X50863Y-22250D01*
Y-24500D01*
X45613Y-21500D02*X46363Y-22250D01*
X53415D02*Y-24500D01*
Y-22250D02*X54165Y-21500D01*
X54915D01*
X55665Y-22250D01*
Y-24500D01*
Y-22250D02*X56415Y-21500D01*
X57165D01*
X57915Y-22250D01*
Y-24500D01*
X52665Y-21500D02*X53415Y-22250D01*
X62416Y-18500D02*X63166Y-19250D01*
Y-23750D01*
X62416Y-24500D02*X63166Y-23750D01*
X64968Y-26000D02*X66468Y-24500D01*
X70969Y-21500D02*X73969Y-18500D01*
X70969Y-21500D02*X74719D01*
X73969Y-18500D02*Y-24500D01*
X76521Y-21500D02*X79521Y-18500D01*
X76521Y-21500D02*X80271D01*
X79521Y-18500D02*Y-24500D01*
X82072Y-18500D02*X85072D01*
X82072D02*Y-21500D01*
X82822Y-20750D01*
X84322D01*
X85072Y-21500D01*
Y-23750D01*
X84322Y-24500D02*X85072Y-23750D01*
X82822Y-24500D02*X84322D01*
X82072Y-23750D02*X82822Y-24500D01*
X89574Y-23750D02*X90324Y-24500D01*
X89574Y-19250D02*X90324Y-18500D01*
X89574Y-19250D02*Y-23750D01*
X95575Y-24500D02*X97075D01*
X96325Y-18500D02*Y-24500D01*
X94825Y-20000D02*X96325Y-18500D01*
X99627Y-24500D02*X101127D01*
X100377Y-18500D02*Y-24500D01*
X98877Y-20000D02*X100377Y-18500D01*
X102928Y-24500D02*X103678D01*
X105480Y-19250D02*X106230Y-18500D01*
X107730D01*
X108480Y-19250D01*
Y-23750D01*
X107730Y-24500D02*X108480Y-23750D01*
X106230Y-24500D02*X107730D01*
X105480Y-23750D02*X106230Y-24500D01*
Y-21500D02*X108480D01*
X110281Y-23750D02*X111031Y-24500D01*
X110281Y-19250D02*Y-23750D01*
Y-19250D02*X111031Y-18500D01*
X112531D01*
X113281Y-19250D01*
Y-23750D01*
X112531Y-24500D02*X113281Y-23750D01*
X111031Y-24500D02*X112531D01*
X110281Y-23000D02*X113281Y-20000D01*
X115083Y-19250D02*X115833Y-18500D01*
X117333D01*
X118083Y-19250D01*
Y-23750D01*
X117333Y-24500D02*X118083Y-23750D01*
X115833Y-24500D02*X117333D01*
X115083Y-23750D02*X115833Y-24500D01*
Y-21500D02*X118083D01*
X120634Y-22250D02*Y-24500D01*
Y-22250D02*X121384Y-21500D01*
X122134D01*
X122884Y-22250D01*
Y-24500D01*
Y-22250D02*X123634Y-21500D01*
X124384D01*
X125134Y-22250D01*
Y-24500D01*
X119884Y-21500D02*X120634Y-22250D01*
X127686D02*Y-24500D01*
Y-22250D02*X128436Y-21500D01*
X129186D01*
X129936Y-22250D01*
Y-24500D01*
Y-22250D02*X130686Y-21500D01*
X131436D01*
X132186Y-22250D01*
Y-24500D01*
X126936Y-21500D02*X127686Y-22250D01*
X136687Y-18500D02*X137437Y-19250D01*
Y-23750D01*
X136687Y-24500D02*X137437Y-23750D01*
X145389Y-18500D02*Y-23750D01*
X146139Y-24500D01*
X144639Y-20750D02*X146139D01*
X147640Y-22250D02*Y-23750D01*
Y-22250D02*X148390Y-21500D01*
X149890D01*
X150640Y-22250D01*
Y-23750D01*
X149890Y-24500D02*X150640Y-23750D01*
X148390Y-24500D02*X149890D01*
X147640Y-23750D02*X148390Y-24500D01*
X157842Y-19250D02*X158592Y-18500D01*
X160092D01*
X160842Y-19250D01*
Y-23750D01*
X160092Y-24500D02*X160842Y-23750D01*
X158592Y-24500D02*X160092D01*
X157842Y-23750D02*X158592Y-24500D01*
Y-21500D02*X160842D01*
X162643Y-23750D02*X163393Y-24500D01*
X162643Y-19250D02*Y-23750D01*
Y-19250D02*X163393Y-18500D01*
X164893D01*
X165643Y-19250D01*
Y-23750D01*
X164893Y-24500D02*X165643Y-23750D01*
X163393Y-24500D02*X164893D01*
X162643Y-23000D02*X165643Y-20000D01*
X167445Y-21500D02*X170445Y-18500D01*
X167445Y-21500D02*X171195D01*
X170445Y-18500D02*Y-24500D01*
X172996Y-18500D02*X175996D01*
X172996D02*Y-21500D01*
X173746Y-20750D01*
X175246D01*
X175996Y-21500D01*
Y-23750D01*
X175246Y-24500D02*X175996Y-23750D01*
X173746Y-24500D02*X175246D01*
X172996Y-23750D02*X173746Y-24500D01*
X180498Y-23750D02*X181248Y-24500D01*
X180498Y-19250D02*X181248Y-18500D01*
X180498Y-19250D02*Y-23750D01*
X185749Y-24500D02*X189499Y-20750D01*
Y-18500D02*Y-20750D01*
X185749Y-18500D02*X189499D01*
X191301Y-24500D02*X195051Y-20750D01*
Y-18500D02*Y-20750D01*
X191301Y-18500D02*X195051D01*
X196852Y-24500D02*X197602D01*
X199404Y-19250D02*X200154Y-18500D01*
X201654D01*
X202404Y-19250D01*
Y-23750D01*
X201654Y-24500D02*X202404Y-23750D01*
X200154Y-24500D02*X201654D01*
X199404Y-23750D02*X200154Y-24500D01*
Y-21500D02*X202404D01*
X204205D02*X207205Y-18500D01*
X204205Y-21500D02*X207955D01*
X207205Y-18500D02*Y-24500D01*
X209757Y-19250D02*X210507Y-18500D01*
X212007D01*
X212757Y-19250D01*
Y-23750D01*
X212007Y-24500D02*X212757Y-23750D01*
X210507Y-24500D02*X212007D01*
X209757Y-23750D02*X210507Y-24500D01*
Y-21500D02*X212757D01*
X215308Y-22250D02*Y-24500D01*
Y-22250D02*X216058Y-21500D01*
X216808D01*
X217558Y-22250D01*
Y-24500D01*
Y-22250D02*X218308Y-21500D01*
X219058D01*
X219808Y-22250D01*
Y-24500D01*
X214558Y-21500D02*X215308Y-22250D01*
X222360D02*Y-24500D01*
Y-22250D02*X223110Y-21500D01*
X223860D01*
X224610Y-22250D01*
Y-24500D01*
Y-22250D02*X225360Y-21500D01*
X226110D01*
X226860Y-22250D01*
Y-24500D01*
X221610Y-21500D02*X222360Y-22250D01*
X231361Y-18500D02*X232111Y-19250D01*
Y-23750D01*
X231361Y-24500D02*X232111Y-23750D01*
X233913Y-26000D02*X235413Y-24500D01*
X242164Y-18500D02*X242914Y-19250D01*
X240664Y-18500D02*X242164D01*
X239914Y-19250D02*X240664Y-18500D01*
X239914Y-19250D02*Y-23750D01*
X240664Y-24500D01*
X242164Y-21500D02*X242914Y-22250D01*
X239914Y-21500D02*X242164D01*
X240664Y-24500D02*X242164D01*
X242914Y-23750D01*
Y-22250D02*Y-23750D01*
X244716D02*X245466Y-24500D01*
X244716Y-19250D02*Y-23750D01*
Y-19250D02*X245466Y-18500D01*
X246966D01*
X247716Y-19250D01*
Y-23750D01*
X246966Y-24500D02*X247716Y-23750D01*
X245466Y-24500D02*X246966D01*
X244716Y-23000D02*X247716Y-20000D01*
X251767Y-18500D02*X252517Y-19250D01*
X250267Y-18500D02*X251767D01*
X249517Y-19250D02*X250267Y-18500D01*
X249517Y-19250D02*Y-23750D01*
X250267Y-24500D01*
X251767Y-21500D02*X252517Y-22250D01*
X249517Y-21500D02*X251767D01*
X250267Y-24500D02*X251767D01*
X252517Y-23750D01*
Y-22250D02*Y-23750D01*
X254319D02*X255069Y-24500D01*
X254319Y-19250D02*Y-23750D01*
Y-19250D02*X255069Y-18500D01*
X256569D01*
X257319Y-19250D01*
Y-23750D01*
X256569Y-24500D02*X257319Y-23750D01*
X255069Y-24500D02*X256569D01*
X254319Y-23000D02*X257319Y-20000D01*
X261820Y-23750D02*X262570Y-24500D01*
X261820Y-19250D02*X262570Y-18500D01*
X261820Y-19250D02*Y-23750D01*
X267822Y-24500D02*X269322D01*
X268572Y-18500D02*Y-24500D01*
X267072Y-20000D02*X268572Y-18500D01*
X271123D02*X274123D01*
X271123D02*Y-21500D01*
X271873Y-20750D01*
X273373D01*
X274123Y-21500D01*
Y-23750D01*
X273373Y-24500D02*X274123Y-23750D01*
X271873Y-24500D02*X273373D01*
X271123Y-23750D02*X271873Y-24500D01*
X275925Y-19250D02*X276675Y-18500D01*
X278175D01*
X278925Y-19250D01*
Y-23750D01*
X278175Y-24500D02*X278925Y-23750D01*
X276675Y-24500D02*X278175D01*
X275925Y-23750D02*X276675Y-24500D01*
Y-21500D02*X278925D01*
X280726Y-24500D02*X281476D01*
X283278D02*X286278Y-21500D01*
Y-19250D02*Y-21500D01*
X285528Y-18500D02*X286278Y-19250D01*
X284028Y-18500D02*X285528D01*
X283278Y-19250D02*X284028Y-18500D01*
X283278Y-19250D02*Y-20750D01*
X284028Y-21500D01*
X286278D01*
X288079Y-19250D02*X288829Y-18500D01*
X291079D01*
X291829Y-19250D01*
Y-20750D01*
X288079Y-24500D02*X291829Y-20750D01*
X288079Y-24500D02*X291829D01*
X293631Y-21500D02*X296631Y-18500D01*
X293631Y-21500D02*X297381D01*
X296631Y-18500D02*Y-24500D01*
X299932Y-22250D02*Y-24500D01*
Y-22250D02*X300682Y-21500D01*
X301432D01*
X302182Y-22250D01*
Y-24500D01*
Y-22250D02*X302932Y-21500D01*
X303682D01*
X304432Y-22250D01*
Y-24500D01*
X299182Y-21500D02*X299932Y-22250D01*
X306984D02*Y-24500D01*
Y-22250D02*X307734Y-21500D01*
X308484D01*
X309234Y-22250D01*
Y-24500D01*
Y-22250D02*X309984Y-21500D01*
X310734D01*
X311484Y-22250D01*
Y-24500D01*
X306234Y-21500D02*X306984Y-22250D01*
X315985Y-18500D02*X316735Y-19250D01*
Y-23750D01*
X315985Y-24500D02*X316735Y-23750D01*
X321987Y-22250D02*Y-24500D01*
Y-22250D02*X322737Y-21500D01*
X323487D01*
X324237Y-22250D01*
Y-24500D01*
Y-22250D02*X324987Y-21500D01*
X325737D01*
X326487Y-22250D01*
Y-24500D01*
X321237Y-21500D02*X321987Y-22250D01*
X328288Y-20000D02*Y-20750D01*
Y-22250D02*Y-24500D01*
X329790Y-18500D02*Y-23750D01*
X330540Y-24500D01*
X332791D02*X335041D01*
X335791Y-23750D01*
X335041Y-23000D02*X335791Y-23750D01*
X332791Y-23000D02*X335041D01*
X332041Y-22250D02*X332791Y-23000D01*
X332041Y-22250D02*X332791Y-21500D01*
X335041D01*
X335791Y-22250D01*
X332041Y-23750D02*X332791Y-24500D01*
X260750Y728500D02*Y722500D01*
X263000Y728500D02*X263750Y727750D01*
Y723250D01*
X263000Y722500D02*X263750Y723250D01*
X260000Y722500D02*X263000D01*
X260000Y728500D02*X263000D01*
X267801Y725500D02*X268551Y724750D01*
X266301Y725500D02*X267801D01*
X265551Y724750D02*X266301Y725500D01*
X265551Y724750D02*Y723250D01*
X266301Y722500D01*
X268551Y725500D02*Y723250D01*
X269301Y722500D01*
X266301D02*X267801D01*
X268551Y723250D01*
X271853Y728500D02*Y723250D01*
X272603Y722500D01*
X271103Y726250D02*X272603D01*
X274854Y722500D02*X277104D01*
X274104Y723250D02*X274854Y722500D01*
X274104Y724750D02*Y723250D01*
Y724750D02*X274854Y725500D01*
X276354D01*
X277104Y724750D01*
X274104Y724000D02*X277104D01*
Y724750D02*Y724000D01*
X278906Y726250D02*X279656D01*
X278906Y724750D02*X279656D01*
X287157Y728500D02*X287907Y727750D01*
X284907Y728500D02*X287157D01*
X284157Y727750D02*X284907Y728500D01*
X284157Y727750D02*Y726250D01*
X284907Y725500D01*
X287157D01*
X287907Y724750D01*
Y723250D01*
X287157Y722500D02*X287907Y723250D01*
X284907Y722500D02*X287157D01*
X284157Y723250D02*X284907Y722500D01*
X289709Y725500D02*Y723250D01*
X290459Y722500D01*
X291959D01*
X292709Y723250D01*
Y725500D02*Y723250D01*
X295260Y724750D02*Y722500D01*
Y724750D02*X296010Y725500D01*
X296760D01*
X297510Y724750D01*
Y722500D01*
X294510Y725500D02*X295260Y724750D01*
X302762Y728500D02*Y722500D01*
X305012Y728500D02*X305762Y727750D01*
Y723250D01*
X305012Y722500D02*X305762Y723250D01*
X302012Y722500D02*X305012D01*
X302012Y728500D02*X305012D01*
X308313Y722500D02*X310563D01*
X307563Y723250D02*X308313Y722500D01*
X307563Y724750D02*Y723250D01*
Y724750D02*X308313Y725500D01*
X309813D01*
X310563Y724750D01*
X307563Y724000D02*X310563D01*
Y724750D02*Y724000D01*
X313115Y725500D02*X315365D01*
X312365Y724750D02*X313115Y725500D01*
X312365Y724750D02*Y723250D01*
X313115Y722500D01*
X315365D01*
X320616D02*X322116D01*
X321366Y728500D02*Y722500D01*
X319866Y727000D02*X321366Y728500D01*
X323918Y722500D02*X327668Y726250D01*
Y728500D02*Y726250D01*
X323918Y728500D02*X327668D01*
X332919Y722500D02*X334419D01*
X333669Y728500D02*Y722500D01*
X332169Y727000D02*X333669Y728500D01*
X336221Y727750D02*X336971Y728500D01*
X339221D01*
X339971Y727750D01*
Y726250D01*
X336221Y722500D02*X339971Y726250D01*
X336221Y722500D02*X339971D01*
X341772Y726250D02*X342522D01*
X341772Y724750D02*X342522D01*
X345074Y722500D02*X346574D01*
X345824Y728500D02*Y722500D01*
X344324Y727000D02*X345824Y728500D01*
X348375Y725500D02*X351375Y728500D01*
X348375Y725500D02*X352125D01*
X351375Y728500D02*Y722500D01*
X353927Y726250D02*X354677D01*
X353927Y724750D02*X354677D01*
X356478Y727750D02*X357228Y728500D01*
X359478D01*
X360228Y727750D01*
Y726250D01*
X356478Y722500D02*X360228Y726250D01*
X356478Y722500D02*X360228D01*
X362030Y727750D02*X362780Y728500D01*
X365030D01*
X365780Y727750D01*
Y726250D01*
X362030Y722500D02*X365780Y726250D01*
X362030Y722500D02*X365780D01*
X370281Y727750D02*X371031Y728500D01*
X373281D01*
X374031Y727750D01*
Y726250D01*
X370281Y722500D02*X374031Y726250D01*
X370281Y722500D02*X374031D01*
X375833Y723250D02*X376583Y722500D01*
X375833Y727750D02*Y723250D01*
Y727750D02*X376583Y728500D01*
X378083D01*
X378833Y727750D01*
Y723250D01*
X378083Y722500D02*X378833Y723250D01*
X376583Y722500D02*X378083D01*
X375833Y724000D02*X378833Y727000D01*
X380634Y727750D02*X381384Y728500D01*
X383634D01*
X384384Y727750D01*
Y726250D01*
X380634Y722500D02*X384384Y726250D01*
X380634Y722500D02*X384384D01*
X386186Y727750D02*X386936Y728500D01*
X388436D01*
X389186Y727750D01*
Y723250D01*
X388436Y722500D02*X389186Y723250D01*
X386936Y722500D02*X388436D01*
X386186Y723250D02*X386936Y722500D01*
Y725500D02*X389186D01*
X393687Y728500D02*Y723250D01*
X394437Y722500D01*
X395937D01*
X396687Y723250D01*
Y728500D02*Y723250D01*
X398489Y728500D02*X401489D01*
X399989D02*Y722500D01*
X404040D02*X406290D01*
X403290Y723250D02*X404040Y722500D01*
X403290Y727750D02*Y723250D01*
Y727750D02*X404040Y728500D01*
X406290D01*
X260000Y742750D02*Y737500D01*
Y742750D02*X260750Y743500D01*
X263000D01*
X263750Y742750D01*
Y737500D01*
X260000Y740500D02*X263750D01*
X265551D02*Y738250D01*
X266301Y737500D01*
X267801D01*
X268551Y738250D01*
Y740500D02*Y738250D01*
X271103Y743500D02*Y738250D01*
X271853Y737500D01*
X270353Y741250D02*X271853D01*
X273354Y743500D02*Y737500D01*
Y739750D02*X274104Y740500D01*
X275604D01*
X276354Y739750D01*
Y737500D01*
X278156Y739750D02*Y738250D01*
Y739750D02*X278906Y740500D01*
X280406D01*
X281156Y739750D01*
Y738250D01*
X280406Y737500D02*X281156Y738250D01*
X278906Y737500D02*X280406D01*
X278156Y738250D02*X278906Y737500D01*
X283707Y739750D02*Y737500D01*
Y739750D02*X284457Y740500D01*
X285957D01*
X282957D02*X283707Y739750D01*
X287759Y741250D02*X288509D01*
X287759Y739750D02*X288509D01*
X293010Y743500D02*Y737500D01*
Y738250D02*X293760Y737500D01*
X295260D01*
X296010Y738250D01*
Y739750D02*Y738250D01*
X295260Y740500D02*X296010Y739750D01*
X293760Y740500D02*X295260D01*
X293010Y739750D02*X293760Y740500D01*
X297812Y743500D02*Y737500D01*
Y739750D02*X298562Y740500D01*
X300062D01*
X300812Y739750D01*
Y737500D01*
X260000Y758500D02*X263000D01*
X261500D02*Y752500D01*
X264801Y757000D02*Y756250D01*
Y754750D02*Y752500D01*
X267053Y758500D02*Y753250D01*
X267803Y752500D01*
X266303Y756250D02*X267803D01*
X269304Y758500D02*Y753250D01*
X270054Y752500D01*
X272306D02*X274556D01*
X271556Y753250D02*X272306Y752500D01*
X271556Y754750D02*Y753250D01*
Y754750D02*X272306Y755500D01*
X273806D01*
X274556Y754750D01*
X271556Y754000D02*X274556D01*
Y754750D02*Y754000D01*
X276357Y756250D02*X277107D01*
X276357Y754750D02*X277107D01*
X281609Y753250D02*X282359Y752500D01*
X281609Y757750D02*X282359Y758500D01*
X281609Y757750D02*Y753250D01*
X284160Y755500D02*Y753250D01*
X284910Y752500D01*
X286410D01*
X287160Y753250D01*
Y755500D02*Y753250D01*
X289712Y754750D02*Y752500D01*
Y754750D02*X290462Y755500D01*
X291212D01*
X291962Y754750D01*
Y752500D01*
X288962Y755500D02*X289712Y754750D01*
X293763Y758500D02*Y752500D01*
Y754750D02*X296013Y752500D01*
X293763Y754750D02*X295263Y756250D01*
X298565Y754750D02*Y752500D01*
Y754750D02*X299315Y755500D01*
X300065D01*
X300815Y754750D01*
Y752500D01*
X297815Y755500D02*X298565Y754750D01*
X302616D02*Y753250D01*
Y754750D02*X303366Y755500D01*
X304866D01*
X305616Y754750D01*
Y753250D01*
X304866Y752500D02*X305616Y753250D01*
X303366Y752500D02*X304866D01*
X302616Y753250D02*X303366Y752500D01*
X307418Y755500D02*Y753250D01*
X308168Y752500D01*
X308918D01*
X309668Y753250D01*
Y755500D02*Y753250D01*
X310418Y752500D01*
X311168D01*
X311918Y753250D01*
Y755500D02*Y753250D01*
X314469Y754750D02*Y752500D01*
Y754750D02*X315219Y755500D01*
X315969D01*
X316719Y754750D01*
Y752500D01*
X313719Y755500D02*X314469Y754750D01*
X318521Y758500D02*X319271Y757750D01*
Y753250D01*
X318521Y752500D02*X319271Y753250D01*
X323772Y755500D02*X326772D01*
X331274Y758500D02*Y752500D01*
Y758500D02*X334274D01*
X331274Y755500D02*X333524D01*
X338325D02*X339075Y754750D01*
X336825Y755500D02*X338325D01*
X336075Y754750D02*X336825Y755500D01*
X336075Y754750D02*Y753250D01*
X336825Y752500D01*
X339075Y755500D02*Y753250D01*
X339825Y752500D01*
X336825D02*X338325D01*
X339075Y753250D01*
X341627Y758500D02*Y752500D01*
Y753250D02*X342377Y752500D01*
X343877D01*
X344627Y753250D01*
Y754750D02*Y753250D01*
X343877Y755500D02*X344627Y754750D01*
X342377Y755500D02*X343877D01*
X341627Y754750D02*X342377Y755500D01*
X347178Y754750D02*Y752500D01*
Y754750D02*X347928Y755500D01*
X349428D01*
X346428D02*X347178Y754750D01*
X351230Y757000D02*Y756250D01*
Y754750D02*Y752500D01*
X353481Y755500D02*X355731D01*
X352731Y754750D02*X353481Y755500D01*
X352731Y754750D02*Y753250D01*
X353481Y752500D01*
X355731D01*
X359783Y755500D02*X360533Y754750D01*
X358283Y755500D02*X359783D01*
X357533Y754750D02*X358283Y755500D01*
X357533Y754750D02*Y753250D01*
X358283Y752500D01*
X360533Y755500D02*Y753250D01*
X361283Y752500D01*
X358283D02*X359783D01*
X360533Y753250D01*
X363834Y758500D02*Y753250D01*
X364584Y752500D01*
X363084Y756250D02*X364584D01*
X366086Y757000D02*Y756250D01*
Y754750D02*Y752500D01*
X367587Y754750D02*Y753250D01*
Y754750D02*X368337Y755500D01*
X369837D01*
X370587Y754750D01*
Y753250D01*
X369837Y752500D02*X370587Y753250D01*
X368337Y752500D02*X369837D01*
X367587Y753250D02*X368337Y752500D01*
X373139Y754750D02*Y752500D01*
Y754750D02*X373889Y755500D01*
X374639D01*
X375389Y754750D01*
Y752500D01*
X372389Y755500D02*X373139Y754750D01*
X380640Y758500D02*Y752500D01*
X382890Y758500D02*X383640Y757750D01*
Y753250D01*
X382890Y752500D02*X383640Y753250D01*
X379890Y752500D02*X382890D01*
X379890Y758500D02*X382890D01*
X386192Y754750D02*Y752500D01*
Y754750D02*X386942Y755500D01*
X388442D01*
X385442D02*X386192Y754750D01*
X392493Y755500D02*X393243Y754750D01*
X390993Y755500D02*X392493D01*
X390243Y754750D02*X390993Y755500D01*
X390243Y754750D02*Y753250D01*
X390993Y752500D01*
X393243Y755500D02*Y753250D01*
X393993Y752500D01*
X390993D02*X392493D01*
X393243Y753250D01*
X395795Y755500D02*Y753250D01*
X396545Y752500D01*
X397295D01*
X398045Y753250D01*
Y755500D02*Y753250D01*
X398795Y752500D01*
X399545D01*
X400295Y753250D01*
Y755500D02*Y753250D01*
X402096Y757000D02*Y756250D01*
Y754750D02*Y752500D01*
X404348Y754750D02*Y752500D01*
Y754750D02*X405098Y755500D01*
X405848D01*
X406598Y754750D01*
Y752500D01*
X403598Y755500D02*X404348Y754750D01*
X410649Y755500D02*X411399Y754750D01*
X409149Y755500D02*X410649D01*
X408399Y754750D02*X409149Y755500D01*
X408399Y754750D02*Y753250D01*
X409149Y752500D01*
X410649D01*
X411399Y753250D01*
X408399Y751000D02*X409149Y750250D01*
X410649D01*
X411399Y751000D01*
Y755500D02*Y751000D01*
M02*
