G04 start of page 11 for group -4079 idx -4079 *
G04 Title: (unknown), topsilk *
G04 Creator: pcb 20091103 *
G04 CreationDate: Sun Dec 17 12:14:22 2023 UTC *
G04 For: bh *
G04 Format: Gerber/RS-274X *
G04 PCB-Dimensions: 380000 700000 *
G04 PCB-Coordinate-Origin: lower left *
%MOIN*%
%FSLAX25Y25*%
%LNTOPSILK*%
%ADD11C,0.0200*%
%ADD12C,0.0100*%
%ADD13C,0.0400*%
%ADD28C,0.0300*%
%ADD37C,0.0060*%
%ADD38C,0.0102*%
%ADD49C,0.0090*%
G54D37*X159500Y202000D02*Y102000D01*
X100000D02*Y202000D01*
Y102000D02*X159500D01*
X100000Y202000D02*X159500D01*
X238500Y201500D02*Y101500D01*
X179000D02*Y201500D01*
Y101500D02*X238500D01*
X179000Y201500D02*X238500D01*
X223000Y259500D02*Y269500D01*
Y243000D02*Y219500D01*
X205500Y259500D02*Y235500D01*
Y218500D02*Y209500D01*
G54D49*X176000Y429000D02*X178500Y431500D01*
Y433000D02*Y431500D01*
X176000Y433000D02*X178500D01*
X179701Y431000D02*X181701Y433000D01*
X179701Y431000D02*X182201D01*
X181701Y433000D02*Y429000D01*
X183402Y433000D02*Y429000D01*
X185902Y433000D02*Y429000D01*
X183402Y431000D02*X185902D01*
X187603Y429000D02*X189103D01*
X187103Y429500D02*X187603Y429000D01*
X187103Y432500D02*Y429500D01*
Y432500D02*X187603Y433000D01*
X189103D01*
X190304Y429500D02*X190804Y429000D01*
X190304Y432500D02*Y429500D01*
Y432500D02*X190804Y433000D01*
X191804D01*
X192304Y432500D01*
Y429500D01*
X191804Y429000D02*X192304Y429500D01*
X190804Y429000D02*X191804D01*
X190304Y430000D02*X192304Y432000D01*
X193505Y431000D02*X195505Y433000D01*
X193505Y431000D02*X196005D01*
X195505Y433000D02*Y429000D01*
X89000D02*X91500Y431500D01*
Y433000D02*Y431500D01*
X89000Y433000D02*X91500D01*
X92701Y431000D02*X94701Y433000D01*
X92701Y431000D02*X95201D01*
X94701Y433000D02*Y429000D01*
X96402Y433000D02*Y429000D01*
X98902Y433000D02*Y429000D01*
X96402Y431000D02*X98902D01*
X100603Y429000D02*X102103D01*
X100103Y429500D02*X100603Y429000D01*
X100103Y432500D02*Y429500D01*
Y432500D02*X100603Y433000D01*
X102103D01*
X103304Y429500D02*X103804Y429000D01*
X103304Y432500D02*Y429500D01*
Y432500D02*X103804Y433000D01*
X104804D01*
X105304Y432500D01*
Y429500D01*
X104804Y429000D02*X105304Y429500D01*
X103804Y429000D02*X104804D01*
X103304Y430000D02*X105304Y432000D01*
X106505Y432500D02*X107005Y433000D01*
X108505D01*
X109005Y432500D01*
Y431500D01*
X106505Y429000D02*X109005Y431500D01*
X106505Y429000D02*X109005D01*
X237000D02*X239500Y431500D01*
Y433000D02*Y431500D01*
X237000Y433000D02*X239500D01*
X240701Y431000D02*X242701Y433000D01*
X240701Y431000D02*X243201D01*
X242701Y433000D02*Y429000D01*
X244402Y433000D02*Y429000D01*
X246902Y433000D02*Y429000D01*
X244402Y431000D02*X246902D01*
X248603Y429000D02*X250103D01*
X248103Y429500D02*X248603Y429000D01*
X248103Y432500D02*Y429500D01*
Y432500D02*X248603Y433000D01*
X250103D01*
X251804Y429000D02*X252804D01*
X252304Y433000D02*Y429000D01*
X251304Y432000D02*X252304Y433000D01*
X254005Y432500D02*X254505Y433000D01*
X255505D01*
X256005Y432500D01*
Y429500D01*
X255505Y429000D02*X256005Y429500D01*
X254505Y429000D02*X255505D01*
X254005Y429500D02*X254505Y429000D01*
Y431000D02*X256005D01*
X257206Y432500D02*X257706Y433000D01*
X259206D01*
X259706Y432500D01*
Y431500D01*
X257206Y429000D02*X259706Y431500D01*
X257206Y429000D02*X259706D01*
G54D38*X287500Y378880D02*X292580D01*
X290040Y381420D02*Y376340D01*
X288000Y443880D02*X293080D01*
X290540Y446420D02*Y441340D01*
X287500Y288880D02*X292580D01*
X290040Y291420D02*Y286340D01*
X113000Y264380D02*X118080D01*
X115540Y266920D02*Y261840D01*
X113000Y249380D02*X118080D01*
X115540Y251920D02*Y246840D01*
X113000Y219380D02*X118080D01*
X115540Y221920D02*Y216840D01*
X113500Y234380D02*X118580D01*
X116040Y236920D02*Y231840D01*
X33000Y201880D02*X38080D01*
X35540Y204420D02*Y199340D01*
X34000Y443880D02*X39080D01*
X36540Y446420D02*Y441340D01*
X34000Y378880D02*X39080D01*
X36540Y381420D02*Y376340D01*
X258000Y191380D02*X263080D01*
X260540Y193920D02*Y188840D01*
G54D49*X168000Y537500D02*X170000D01*
X170500Y538000D01*
Y539000D02*Y538000D01*
X170000Y539500D02*X170500Y539000D01*
X168500Y539500D02*X170000D01*
X168500Y541500D02*Y537500D01*
X168000Y541500D02*X170000D01*
X170500Y541000D01*
Y540000D01*
X170000Y539500D02*X170500Y540000D01*
X171701Y541500D02*Y538000D01*
X172201Y537500D01*
X173202Y539500D02*Y538000D01*
X173702Y537500D01*
X174702D01*
X175202Y538000D01*
Y539500D02*Y538000D01*
X176903Y537500D02*X178403D01*
X176403Y538000D02*X176903Y537500D01*
X176403Y539000D02*Y538000D01*
Y539000D02*X176903Y539500D01*
X177903D01*
X178403Y539000D01*
X176403Y538500D02*X178403D01*
Y539000D02*Y538500D01*
X268000Y538000D02*X268500Y537500D01*
X266500Y538000D02*X268000D01*
X266000Y537500D02*X266500Y538000D01*
X266000Y537500D02*Y534500D01*
X266500Y534000D01*
X268000D01*
X268500Y534500D01*
Y535500D02*Y534500D01*
X268000Y536000D02*X268500Y535500D01*
X267000Y536000D02*X268000D01*
X270201Y535500D02*Y534000D01*
Y535500D02*X270701Y536000D01*
X271701D01*
X269701D02*X270201Y535500D01*
X273402Y534000D02*X274902D01*
X272902Y534500D02*X273402Y534000D01*
X272902Y535500D02*Y534500D01*
Y535500D02*X273402Y536000D01*
X274402D01*
X274902Y535500D01*
X272902Y535000D02*X274902D01*
Y535500D02*Y535000D01*
X276603Y534000D02*X278103D01*
X276103Y534500D02*X276603Y534000D01*
X276103Y535500D02*Y534500D01*
Y535500D02*X276603Y536000D01*
X277603D01*
X278103Y535500D01*
X276103Y535000D02*X278103D01*
Y535500D02*Y535000D01*
X279804Y535500D02*Y534000D01*
Y535500D02*X280304Y536000D01*
X280804D01*
X281304Y535500D01*
Y534000D01*
X279304Y536000D02*X279804Y535500D01*
X264500Y589000D02*Y585500D01*
Y589000D02*X265000Y589500D01*
X266500D01*
X267000Y589000D01*
Y585500D01*
X264500Y587500D02*X267000D01*
X268701Y587000D02*Y585500D01*
Y587000D02*X269201Y587500D01*
X269701D01*
X270201Y587000D01*
Y585500D01*
Y587000D02*X270701Y587500D01*
X271201D01*
X271701Y587000D01*
Y585500D01*
X268201Y587500D02*X268701Y587000D01*
X272902Y589500D02*Y585500D01*
Y586000D02*X273402Y585500D01*
X274402D01*
X274902Y586000D01*
Y587000D02*Y586000D01*
X274402Y587500D02*X274902Y587000D01*
X273402Y587500D02*X274402D01*
X272902Y587000D02*X273402Y587500D01*
X276603Y585500D02*X278103D01*
X276103Y586000D02*X276603Y585500D01*
X276103Y587000D02*Y586000D01*
Y587000D02*X276603Y587500D01*
X277603D01*
X278103Y587000D01*
X276103Y586500D02*X278103D01*
Y587000D02*Y586500D01*
X279804Y587000D02*Y585500D01*
Y587000D02*X280304Y587500D01*
X281304D01*
X279304D02*X279804Y587000D01*
X177000Y494000D02*X179500Y496500D01*
Y498000D02*Y496500D01*
X177000Y498000D02*X179500D01*
X180701Y496000D02*X182701Y498000D01*
X180701Y496000D02*X183201D01*
X182701Y498000D02*Y494000D01*
X184402Y498000D02*Y494000D01*
X186902Y498000D02*Y494000D01*
X184402Y496000D02*X186902D01*
X188603Y494000D02*X190103D01*
X188103Y494500D02*X188603Y494000D01*
X188103Y497500D02*Y494500D01*
Y497500D02*X188603Y498000D01*
X190103D01*
X191804Y494000D02*X192804D01*
X192304Y498000D02*Y494000D01*
X191304Y497000D02*X192304Y498000D01*
X194005Y494500D02*X194505Y494000D01*
X194005Y497500D02*Y494500D01*
Y497500D02*X194505Y498000D01*
X195505D01*
X196005Y497500D01*
Y494500D01*
X195505Y494000D02*X196005Y494500D01*
X194505Y494000D02*X195505D01*
X194005Y495000D02*X196005Y497000D01*
X82000Y542000D02*X82500Y541500D01*
X80500Y542000D02*X82000D01*
X80000Y541500D02*X80500Y542000D01*
X80000Y541500D02*Y538500D01*
X80500Y538000D01*
X82000D01*
X82500Y538500D01*
Y539500D02*Y538500D01*
X82000Y540000D02*X82500Y539500D01*
X81000Y540000D02*X82000D01*
X84201Y539500D02*Y538000D01*
Y539500D02*X84701Y540000D01*
X85701D01*
X83701D02*X84201Y539500D01*
X87402Y538000D02*X88902D01*
X86902Y538500D02*X87402Y538000D01*
X86902Y539500D02*Y538500D01*
Y539500D02*X87402Y540000D01*
X88402D01*
X88902Y539500D01*
X86902Y539000D02*X88902D01*
Y539500D02*Y539000D01*
X90603Y538000D02*X92103D01*
X90103Y538500D02*X90603Y538000D01*
X90103Y539500D02*Y538500D01*
Y539500D02*X90603Y540000D01*
X91603D01*
X92103Y539500D01*
X90103Y539000D02*X92103D01*
Y539500D02*Y539000D01*
X93804Y539500D02*Y538000D01*
Y539500D02*X94304Y540000D01*
X94804D01*
X95304Y539500D01*
Y538000D01*
X93304Y540000D02*X93804Y539500D01*
X178500Y588500D02*Y585000D01*
Y588500D02*X179000Y589000D01*
X180500D01*
X181000Y588500D01*
Y585000D01*
X178500Y587000D02*X181000D01*
X182701Y586500D02*Y585000D01*
Y586500D02*X183201Y587000D01*
X183701D01*
X184201Y586500D01*
Y585000D01*
Y586500D02*X184701Y587000D01*
X185201D01*
X185701Y586500D01*
Y585000D01*
X182201Y587000D02*X182701Y586500D01*
X186902Y589000D02*Y585000D01*
Y585500D02*X187402Y585000D01*
X188402D01*
X188902Y585500D01*
Y586500D02*Y585500D01*
X188402Y587000D02*X188902Y586500D01*
X187402Y587000D02*X188402D01*
X186902Y586500D02*X187402Y587000D01*
X190603Y585000D02*X192103D01*
X190103Y585500D02*X190603Y585000D01*
X190103Y586500D02*Y585500D01*
Y586500D02*X190603Y587000D01*
X191603D01*
X192103Y586500D01*
X190103Y586000D02*X192103D01*
Y586500D02*Y586000D01*
X193804Y586500D02*Y585000D01*
Y586500D02*X194304Y587000D01*
X195304D01*
X193304D02*X193804Y586500D01*
X78500Y594000D02*Y590500D01*
Y594000D02*X79000Y594500D01*
X80500D01*
X81000Y594000D01*
Y590500D01*
X78500Y592500D02*X81000D01*
X82701Y592000D02*Y590500D01*
Y592000D02*X83201Y592500D01*
X83701D01*
X84201Y592000D01*
Y590500D01*
Y592000D02*X84701Y592500D01*
X85201D01*
X85701Y592000D01*
Y590500D01*
X82201Y592500D02*X82701Y592000D01*
X86902Y594500D02*Y590500D01*
Y591000D02*X87402Y590500D01*
X88402D01*
X88902Y591000D01*
Y592000D02*Y591000D01*
X88402Y592500D02*X88902Y592000D01*
X87402Y592500D02*X88402D01*
X86902Y592000D02*X87402Y592500D01*
X90603Y590500D02*X92103D01*
X90103Y591000D02*X90603Y590500D01*
X90103Y592000D02*Y591000D01*
Y592000D02*X90603Y592500D01*
X91603D01*
X92103Y592000D01*
X90103Y591500D02*X92103D01*
Y592000D02*Y591500D01*
X93804Y592000D02*Y590500D01*
Y592000D02*X94304Y592500D01*
X95304D01*
X93304D02*X93804Y592000D01*
X220500Y636000D02*X222500D01*
X223000Y635500D01*
Y634500D01*
X222500Y634000D02*X223000Y634500D01*
X221000Y634000D02*X222500D01*
X221000Y636000D02*Y632000D01*
Y634000D02*X223000Y632000D01*
X224701D02*X226201D01*
X224201Y632500D02*X224701Y632000D01*
X224201Y633500D02*Y632500D01*
Y633500D02*X224701Y634000D01*
X225701D01*
X226201Y633500D01*
X224201Y633000D02*X226201D01*
Y633500D02*Y633000D01*
X229402Y636000D02*Y632000D01*
X228902D02*X229402Y632500D01*
X227902Y632000D02*X228902D01*
X227402Y632500D02*X227902Y632000D01*
X227402Y633500D02*Y632500D01*
Y633500D02*X227902Y634000D01*
X228902D01*
X229402Y633500D01*
X131500Y636500D02*X133500D01*
X134000Y636000D01*
Y635000D01*
X133500Y634500D02*X134000Y635000D01*
X132000Y634500D02*X133500D01*
X132000Y636500D02*Y632500D01*
Y634500D02*X134000Y632500D01*
X135701D02*X137201D01*
X135201Y633000D02*X135701Y632500D01*
X135201Y634000D02*Y633000D01*
Y634000D02*X135701Y634500D01*
X136701D01*
X137201Y634000D01*
X135201Y633500D02*X137201D01*
Y634000D02*Y633500D01*
X140402Y636500D02*Y632500D01*
X139902D02*X140402Y633000D01*
X138902Y632500D02*X139902D01*
X138402Y633000D02*X138902Y632500D01*
X138402Y634000D02*Y633000D01*
Y634000D02*X138902Y634500D01*
X139902D01*
X140402Y634000D01*
X263000Y494000D02*X265500Y496500D01*
Y498000D02*Y496500D01*
X263000Y498000D02*X265500D01*
X266701Y496000D02*X268701Y498000D01*
X266701Y496000D02*X269201D01*
X268701Y498000D02*Y494000D01*
X270402Y498000D02*Y494000D01*
X272902Y498000D02*Y494000D01*
X270402Y496000D02*X272902D01*
X274603Y494000D02*X276103D01*
X274103Y494500D02*X274603Y494000D01*
X274103Y497500D02*Y494500D01*
Y497500D02*X274603Y498000D01*
X276103D01*
X277304Y494500D02*X277804Y494000D01*
X277304Y497500D02*Y494500D01*
Y497500D02*X277804Y498000D01*
X278804D01*
X279304Y497500D01*
Y494500D01*
X278804Y494000D02*X279304Y494500D01*
X277804Y494000D02*X278804D01*
X277304Y495000D02*X279304Y497000D01*
X280505Y496000D02*X282505Y498000D01*
X280505Y496000D02*X283005D01*
X282505Y498000D02*Y494000D01*
X89000D02*X91500Y496500D01*
Y498000D02*Y496500D01*
X89000Y498000D02*X91500D01*
X92701Y496000D02*X94701Y498000D01*
X92701Y496000D02*X95201D01*
X94701Y498000D02*Y494000D01*
X96402Y498000D02*Y494000D01*
X98902Y498000D02*Y494000D01*
X96402Y496000D02*X98902D01*
X100603Y494000D02*X102103D01*
X100103Y494500D02*X100603Y494000D01*
X100103Y497500D02*Y494500D01*
Y497500D02*X100603Y498000D01*
X102103D01*
X103304Y494500D02*X103804Y494000D01*
X103304Y497500D02*Y494500D01*
Y497500D02*X103804Y498000D01*
X104804D01*
X105304Y497500D01*
Y494500D01*
X104804Y494000D02*X105304Y494500D01*
X103804Y494000D02*X104804D01*
X103304Y495000D02*X105304Y497000D01*
X106505Y497500D02*X107005Y498000D01*
X108505D01*
X109005Y497500D01*
Y496500D01*
X106505Y494000D02*X109005Y496500D01*
X106505Y494000D02*X109005D01*
G54D12*X230000Y299500D02*X242500D01*
X267500D02*X280000D01*
X242500Y303600D02*X267500D01*
Y295400D01*
X242500D01*
Y303600D01*
X285000Y284500D02*G75*G03X285000Y284500I-10000J0D01*G01*
X265000Y263500D02*X285000D01*
Y273500D02*Y263500D01*
X265000Y273500D02*X285000D01*
X265000D02*Y263500D01*
X275000Y273500D02*Y263500D01*
X265000Y273500D02*X275000D01*
X265000Y244500D02*X285000D01*
Y254500D02*Y244500D01*
X265000Y254500D02*X285000D01*
X265000D02*Y244500D01*
X275000Y254500D02*Y244500D01*
X265000Y254500D02*X275000D01*
X205000Y344500D02*G75*G03X205000Y344500I10000J0D01*G01*
Y329500D02*G75*G03X205000Y329500I10000J0D01*G01*
X230000D02*X242500D01*
X267500D02*X280000D01*
X242500Y333600D02*X267500D01*
Y325400D01*
X242500D01*
Y333600D01*
X230000Y359500D02*X242500D01*
X267500D02*X280000D01*
X242500Y363600D02*X267500D01*
Y355400D01*
X242500D01*
Y363600D01*
X230000Y344500D02*X242500D01*
X267500D02*X280000D01*
X242500Y348600D02*X267500D01*
Y340400D01*
X242500D01*
Y348600D01*
X230000Y314500D02*X242500D01*
X267500D02*X280000D01*
X242500Y318600D02*X267500D01*
Y310400D01*
X242500D01*
Y318600D01*
X183000Y374500D02*X195500D01*
X220500D02*X233000D01*
X195500Y378600D02*X220500D01*
Y370400D01*
X195500D01*
Y378600D01*
X205000Y359500D02*G75*G03X205000Y359500I10000J0D01*G01*
X243000Y279500D02*Y209500D01*
X253000D01*
Y279500D01*
X243000D01*
Y269500D02*X253000D01*
Y279500D01*
X233000D02*Y209500D01*
X243000D01*
Y279500D01*
X233000D01*
Y269500D02*X243000D01*
Y279500D01*
X219000Y259500D02*Y209500D01*
X209000Y259500D02*X219000D01*
X209000D02*Y209500D01*
X219000D01*
X209000Y219500D02*X219000D01*
X209000D02*Y209500D01*
G54D28*X219000Y188500D02*Y170500D01*
X209000Y188500D02*Y170500D01*
X199000Y188500D02*Y170500D01*
G54D11*X189000D02*X229000D01*
X189000D02*Y133000D01*
X229000D01*
Y170500D02*Y133000D01*
X189000D02*X229000D01*
X189000D02*Y120500D01*
X190500D01*
Y113500D01*
X189000D02*X190500D01*
X189000D02*Y109500D01*
X229000D01*
Y113500D02*Y109500D01*
X227500Y113500D02*X229000D01*
X227500Y120500D02*Y113500D01*
Y120500D02*X229000D01*
Y133000D02*Y120500D01*
G54D12*X169500Y202000D02*Y189500D01*
Y164500D02*Y152000D01*
X173600Y189500D02*Y164500D01*
X165400D02*X173600D01*
X165400Y189500D02*Y164500D01*
Y189500D02*X173600D01*
X252500Y202000D02*G75*G03X252500Y202000I0J-20000D01*G01*
X169500Y122000D02*Y112000D01*
Y142000D02*Y132000D01*
Y122000D02*X164500Y132000D01*
X174500D01*
X169500Y122000D01*
X164500D02*X174500D01*
G54D11*X285327Y117749D02*Y130251D01*
X263673Y117749D02*Y130251D01*
X285327Y117749D02*X274500Y111499D01*
X285327Y130251D02*X274500Y136501D01*
X263673Y117749D02*X274500Y111499D01*
X263673Y130251D02*X274500Y136501D01*
G54D12*X277500Y233500D02*Y213500D01*
Y173500D02*Y153500D01*
X284100Y213500D02*Y173500D01*
X270900D02*X284100D01*
X270900Y213500D02*Y173500D01*
Y213500D02*X284100D01*
X282500Y233500D02*X286500D01*
X284500Y235500D02*Y231500D01*
Y155500D02*Y151500D01*
X149000Y230000D02*X161500D01*
X186500D02*X199000D01*
X161500Y234100D02*X186500D01*
Y225900D01*
X161500D01*
Y234100D01*
X149000Y214500D02*X161500D01*
X186500D02*X199000D01*
X161500Y218600D02*X186500D01*
Y210400D01*
X161500D01*
Y218600D01*
X41000Y374500D02*G75*G03X41000Y374500I10000J0D01*G01*
X83000D02*X95500D01*
X120500D02*X133000D01*
X95500Y378600D02*X120500D01*
Y370400D01*
X95500D01*
Y378600D01*
X56000Y359500D02*X68500D01*
X93500D02*X106000D01*
X68500Y363600D02*X93500D01*
Y355400D01*
X68500D01*
Y363600D01*
X56000Y344500D02*X68500D01*
X93500D02*X106000D01*
X68500Y348600D02*X93500D01*
Y340400D01*
X68500D01*
Y348600D01*
X56000Y329500D02*X68500D01*
X93500D02*X106000D01*
X68500Y333600D02*X93500D01*
Y325400D01*
X68500D01*
Y333600D01*
X59000Y260000D02*X71500D01*
X96500D02*X109000D01*
X71500Y264100D02*X96500D01*
Y255900D01*
X71500D01*
Y264100D01*
X70000Y260000D02*X80000D01*
X90000D02*X100000D01*
X80000D02*X90000Y265000D01*
Y255000D01*
X80000Y260000D01*
Y265000D02*Y255000D01*
X59000Y245000D02*X71500D01*
X96500D02*X109000D01*
X71500Y249100D02*X96500D01*
Y240900D01*
X71500D01*
Y249100D01*
X70000Y230000D02*X80000D01*
X90000D02*X100000D01*
X80000D02*X90000Y235000D01*
Y225000D01*
X80000Y230000D01*
Y235000D02*Y225000D01*
X70000Y245000D02*X80000D01*
X90000D02*X100000D01*
X80000D02*X90000Y250000D01*
Y240000D01*
X80000Y245000D01*
Y250000D02*Y240000D01*
X41000Y265000D02*Y215000D01*
X51000D01*
Y265000D02*Y215000D01*
X41000Y265000D02*X51000D01*
X41000Y255000D02*X51000D01*
Y265000D02*Y255000D01*
Y294000D02*X111000D01*
Y304000D02*Y294000D01*
X51000Y304000D02*X111000D01*
X51000D02*Y294000D01*
X61000Y304000D02*Y294000D01*
X51000Y304000D02*X61000D01*
X51000Y284000D02*X111000D01*
Y294000D02*Y284000D01*
X51000Y294000D02*X111000D01*
X51000D02*Y284000D01*
X61000Y294000D02*Y284000D01*
X51000Y294000D02*X61000D01*
X285000Y374500D02*G75*G03X285000Y374500I-10000J0D01*G01*
G54D11*X285327Y619249D02*Y631751D01*
X263673Y619249D02*Y631751D01*
X285327Y619249D02*X274500Y612999D01*
X285327Y631751D02*X274500Y638001D01*
X263673Y619249D02*X274500Y612999D01*
X263673Y631751D02*X274500Y638001D01*
G54D12*X285000Y439500D02*G75*G03X285000Y439500I-10000J0D01*G01*
G54D11*X63327Y619249D02*Y631751D01*
X41673Y619249D02*Y631751D01*
X63327Y619249D02*X52500Y612999D01*
X63327Y631751D02*X52500Y638001D01*
X41673Y619249D02*X52500Y612999D01*
X41673Y631751D02*X52500Y638001D01*
G54D12*X41000Y387000D02*X111000D01*
Y427000D02*Y387000D01*
X41000Y427000D02*X111000D01*
X41000Y402000D02*Y387000D01*
Y427000D02*Y412000D01*
Y402000D02*G75*G03X41000Y412000I0J5000D01*G01*
X64200Y570500D02*G75*G03X64200Y570500I11800J0D01*G01*
X62200D02*G75*G03X62200Y570500I13800J0D01*G01*
X64200Y520500D02*G75*G03X64200Y520500I11800J0D01*G01*
X62200D02*G75*G03X62200Y520500I13800J0D01*G01*
X41000Y452000D02*X111000D01*
Y492000D02*Y452000D01*
X41000Y492000D02*X111000D01*
X41000Y467000D02*Y452000D01*
Y492000D02*Y477000D01*
Y467000D02*G75*G03X41000Y477000I0J5000D01*G01*
Y439500D02*G75*G03X41000Y439500I10000J0D01*G01*
X151200Y570500D02*G75*G03X151200Y570500I11800J0D01*G01*
X149200D02*G75*G03X149200Y570500I13800J0D01*G01*
X107700Y620500D02*G75*G03X107700Y620500I11800J0D01*G01*
X105700D02*G75*G03X105700Y620500I13800J0D01*G01*
X194700D02*G75*G03X194700Y620500I11800J0D01*G01*
X192700D02*G75*G03X192700Y620500I13800J0D01*G01*
X219000Y559000D02*X231500D01*
X181500D02*X194000D01*
Y554900D02*X219000D01*
X194000Y563100D02*Y554900D01*
Y563100D02*X219000D01*
Y554900D01*
X132000Y558500D02*X144500D01*
X94500D02*X107000D01*
Y554400D02*X132000D01*
X107000Y562600D02*Y554400D01*
Y562600D02*X132000D01*
Y554400D01*
Y582000D02*X144500D01*
X94500D02*X107000D01*
Y577900D02*X132000D01*
X107000Y586100D02*Y577900D01*
Y586100D02*X132000D01*
Y577900D01*
X238200Y520500D02*G75*G03X238200Y520500I11800J0D01*G01*
X236200D02*G75*G03X236200Y520500I13800J0D01*G01*
X215000Y452000D02*X285000D01*
Y492000D02*Y452000D01*
X215000Y492000D02*X285000D01*
X215000Y467000D02*Y452000D01*
Y492000D02*Y477000D01*
Y467000D02*G75*G03X215000Y477000I0J5000D01*G01*
X181500Y532000D02*X194000D01*
X219000D02*X231500D01*
X194000Y536100D02*X219000D01*
Y527900D01*
X194000D01*
Y536100D01*
X219000Y508500D02*X231500D01*
X181500D02*X194000D01*
Y504400D02*X219000D01*
X194000Y512600D02*Y504400D01*
Y512600D02*X219000D01*
Y504400D01*
X215000Y387000D02*X285000D01*
Y427000D02*Y387000D01*
X215000Y427000D02*X285000D01*
X215000Y402000D02*Y387000D01*
Y427000D02*Y412000D01*
Y402000D02*G75*G03X215000Y412000I0J5000D01*G01*
X238200Y570500D02*G75*G03X238200Y570500I11800J0D01*G01*
X236200D02*G75*G03X236200Y570500I13800J0D01*G01*
X151200Y520500D02*G75*G03X151200Y520500I11800J0D01*G01*
X149200D02*G75*G03X149200Y520500I13800J0D01*G01*
X128000Y452000D02*X198000D01*
Y492000D02*Y452000D01*
X128000Y492000D02*X198000D01*
X128000Y467000D02*Y452000D01*
Y492000D02*Y477000D01*
Y467000D02*G75*G03X128000Y477000I0J5000D01*G01*
X132000Y508500D02*X144500D01*
X94500D02*X107000D01*
Y504400D02*X132000D01*
X107000Y512600D02*Y504400D01*
Y512600D02*X132000D01*
Y504400D01*
X94500Y532000D02*X107000D01*
X132000D02*X144500D01*
X107000Y536100D02*X132000D01*
Y527900D01*
X107000D01*
Y536100D01*
X128000Y387000D02*X198000D01*
Y427000D02*Y387000D01*
X128000Y427000D02*X198000D01*
X128000Y402000D02*Y387000D01*
Y427000D02*Y412000D01*
Y402000D02*G75*G03X128000Y412000I0J5000D01*G01*
X209000Y269500D02*Y219500D01*
X219000D01*
Y269500D01*
X209000D01*
Y259500D02*X219000D01*
Y269500D01*
X133000Y359500D02*X145500D01*
X170500D02*X183000D01*
X145500Y363600D02*X170500D01*
Y355400D01*
X145500D01*
Y363600D01*
X133000Y344500D02*X145500D01*
X170500D02*X183000D01*
X145500Y348600D02*X170500D01*
Y340400D01*
X145500D02*X170500D01*
X145500Y348600D02*Y340400D01*
X133000Y329500D02*X145500D01*
X170500D02*X183000D01*
X145500Y333600D02*X170500D01*
Y325400D01*
X145500D02*X170500D01*
X145500Y333600D02*Y325400D01*
X151500Y381500D02*X165500D01*
X151428Y381572D02*G75*G03X165571Y381571I7071J-7071D01*G01*
X119000Y260000D02*G75*G03X119000Y260000I10000J0D01*G01*
X149000D02*X161500D01*
X186500D02*X199000D01*
X161500Y264100D02*X186500D01*
Y255900D01*
X161500D01*
Y264100D01*
X149000Y245000D02*X161500D01*
X186500D02*X199000D01*
X161500Y249100D02*X186500D01*
Y240900D01*
X161500D01*
Y249100D01*
X119000Y230000D02*G75*G03X119000Y230000I10000J0D01*G01*
Y245000D02*G75*G03X119000Y245000I10000J0D01*G01*
X131000Y284000D02*X211000D01*
Y294000D02*Y284000D01*
X131000Y294000D02*X211000D01*
X131000D02*Y284000D01*
X141000Y294000D02*Y284000D01*
X131000Y294000D02*X141000D01*
X131000D02*X211000D01*
Y304000D02*Y294000D01*
X131000Y304000D02*X211000D01*
X131000D02*Y294000D01*
X141000Y304000D02*Y294000D01*
X131000Y304000D02*X141000D01*
X70000Y215000D02*X80000D01*
X90000D02*X100000D01*
X80000D02*X90000Y220000D01*
Y210000D01*
X80000Y215000D01*
Y220000D02*Y210000D01*
X59000Y215000D02*X71500D01*
X96500D02*X109000D01*
X71500Y219100D02*X96500D01*
Y210900D01*
X71500D01*
Y219100D01*
X59000Y230000D02*X71500D01*
X96500D02*X109000D01*
X71500Y234100D02*X96500D01*
Y225900D01*
X71500D01*
Y234100D01*
X119000Y215000D02*G75*G03X119000Y215000I10000J0D01*G01*
G54D11*X63327Y117749D02*Y130251D01*
X41673Y117749D02*Y130251D01*
X63327Y117749D02*X52500Y111499D01*
X63327Y130251D02*X52500Y136501D01*
X41673Y117749D02*X52500Y111499D01*
X41673Y130251D02*X52500Y136501D01*
G54D12*X40000Y197500D02*G75*G03X40000Y197500I10000J0D01*G01*
Y184500D02*Y154500D01*
X50000D01*
Y184500D01*
X40000D01*
Y174500D02*X50000D01*
Y184500D01*
X92500Y201000D02*Y188500D01*
Y163500D02*Y151000D01*
X96600Y188500D02*Y163500D01*
X88400D02*X96600D01*
X88400Y188500D02*Y163500D01*
Y188500D02*X96600D01*
X77500Y163500D02*Y151000D01*
Y201000D02*Y188500D01*
X73400D02*Y163500D01*
Y188500D02*X81600D01*
Y163500D01*
X73400D02*X81600D01*
G54D28*X140000Y189000D02*Y171000D01*
X130000Y189000D02*Y171000D01*
X120000Y189000D02*Y171000D01*
G54D11*X110000D02*X150000D01*
X110000D02*Y133500D01*
X150000D01*
Y171000D02*Y133500D01*
X110000D02*X150000D01*
X110000D02*Y121000D01*
X111500D01*
Y114000D01*
X110000D02*X111500D01*
X110000D02*Y110000D01*
X150000D01*
Y114000D02*Y110000D01*
X148500Y114000D02*X150000D01*
X148500Y121000D02*Y114000D01*
Y121000D02*X150000D01*
Y133500D02*Y121000D01*
G54D12*X62500Y169500D02*Y159500D01*
Y189500D02*Y179500D01*
Y169500D02*X57500Y179500D01*
X67500D01*
X62500Y169500D01*
X57500D02*X67500D01*
G54D49*X61500Y379500D02*X63000D01*
X61000Y380000D02*X61500Y379500D01*
X61000Y383000D02*Y380000D01*
Y383000D02*X61500Y383500D01*
X63000D01*
X64201Y383000D02*X64701Y383500D01*
X66201D01*
X66701Y383000D01*
Y382000D01*
X64201Y379500D02*X66701Y382000D01*
X64201Y379500D02*X66701D01*
X67902Y380000D02*X68402Y379500D01*
X67902Y383000D02*Y380000D01*
Y383000D02*X68402Y383500D01*
X69402D01*
X69902Y383000D01*
Y380000D01*
X69402Y379500D02*X69902Y380000D01*
X68402Y379500D02*X69402D01*
X67902Y380500D02*X69902Y382500D01*
X71103Y383500D02*X73103D01*
X71103D02*Y381500D01*
X71603Y382000D01*
X72603D01*
X73103Y381500D01*
Y380000D01*
X72603Y379500D02*X73103Y380000D01*
X71603Y379500D02*X72603D01*
X71103Y380000D02*X71603Y379500D01*
X110500Y384400D02*X112500D01*
X113000Y383900D01*
Y382900D01*
X112500Y382400D02*X113000Y382900D01*
X111000Y382400D02*X112500D01*
X111000Y384400D02*Y380400D01*
Y382400D02*X113000Y380400D01*
X114201Y383900D02*X114701Y384400D01*
X116201D01*
X116701Y383900D01*
Y382900D01*
X114201Y380400D02*X116701Y382900D01*
X114201Y380400D02*X116701D01*
X117902Y380900D02*X118402Y380400D01*
X117902Y383900D02*Y380900D01*
Y383900D02*X118402Y384400D01*
X119402D01*
X119902Y383900D01*
Y380900D01*
X119402Y380400D02*X119902Y380900D01*
X118402Y380400D02*X119402D01*
X117902Y381400D02*X119902Y383400D01*
X121103Y383900D02*X121603Y384400D01*
X122603D01*
X123103Y383900D01*
Y380900D01*
X122603Y380400D02*X123103Y380900D01*
X121603Y380400D02*X122603D01*
X121103Y380900D02*X121603Y380400D01*
Y382400D02*X123103D01*
X98000Y368400D02*X100000D01*
X100500Y367900D01*
Y366900D01*
X100000Y366400D02*X100500Y366900D01*
X98500Y366400D02*X100000D01*
X98500Y368400D02*Y364400D01*
Y366400D02*X100500Y364400D01*
X101701Y367900D02*X102201Y368400D01*
X103701D01*
X104201Y367900D01*
Y366900D01*
X101701Y364400D02*X104201Y366900D01*
X101701Y364400D02*X104201D01*
X105402Y364900D02*X105902Y364400D01*
X105402Y367900D02*Y364900D01*
Y367900D02*X105902Y368400D01*
X106902D01*
X107402Y367900D01*
Y364900D01*
X106902Y364400D02*X107402Y364900D01*
X105902Y364400D02*X106902D01*
X105402Y365400D02*X107402Y367400D01*
X108603Y367900D02*X109103Y368400D01*
X110603D01*
X111103Y367900D01*
Y366900D01*
X108603Y364400D02*X111103Y366900D01*
X108603Y364400D02*X111103D01*
X98000Y352400D02*X100000D01*
X100500Y351900D01*
Y350900D01*
X100000Y350400D02*X100500Y350900D01*
X98500Y350400D02*X100000D01*
X98500Y352400D02*Y348400D01*
Y350400D02*X100500Y348400D01*
X101701Y351900D02*X102201Y352400D01*
X103701D01*
X104201Y351900D01*
Y350900D01*
X101701Y348400D02*X104201Y350900D01*
X101701Y348400D02*X104201D01*
X105402Y348900D02*X105902Y348400D01*
X105402Y351900D02*Y348900D01*
Y351900D02*X105902Y352400D01*
X106902D01*
X107402Y351900D01*
Y348900D01*
X106902Y348400D02*X107402Y348900D01*
X105902Y348400D02*X106902D01*
X105402Y349400D02*X107402Y351400D01*
X109103Y348400D02*X110103D01*
X109603Y352400D02*Y348400D01*
X108603Y351400D02*X109603Y352400D01*
X97500Y337900D02*X99500D01*
X100000Y337400D01*
Y336400D01*
X99500Y335900D02*X100000Y336400D01*
X98000Y335900D02*X99500D01*
X98000Y337900D02*Y333900D01*
Y335900D02*X100000Y333900D01*
X101201Y337400D02*X101701Y337900D01*
X103201D01*
X103701Y337400D01*
Y336400D01*
X101201Y333900D02*X103701Y336400D01*
X101201Y333900D02*X103701D01*
X104902Y334400D02*X105402Y333900D01*
X104902Y337400D02*Y334400D01*
Y337400D02*X105402Y337900D01*
X106402D01*
X106902Y337400D01*
Y334400D01*
X106402Y333900D02*X106902Y334400D01*
X105402Y333900D02*X106402D01*
X104902Y334900D02*X106902Y336900D01*
X108103Y334400D02*X108603Y333900D01*
X108103Y337400D02*Y334400D01*
Y337400D02*X108603Y337900D01*
X109603D01*
X110103Y337400D01*
Y334400D01*
X109603Y333900D02*X110103Y334400D01*
X108603Y333900D02*X109603D01*
X108103Y334900D02*X110103Y336900D01*
X202000Y340000D02*Y338500D01*
X201500Y338000D02*X202000Y338500D01*
X198500Y338000D02*X201500D01*
X198500D02*X198000Y338500D01*
Y340000D02*Y338500D01*
X198500Y341201D02*X198000Y341701D01*
Y343201D02*Y341701D01*
Y343201D02*X198500Y343701D01*
X199500D01*
X202000Y341201D02*X199500Y343701D01*
X202000D02*Y341201D01*
X201500Y344902D02*X202000Y345402D01*
X198500Y344902D02*X201500D01*
X198500D02*X198000Y345402D01*
Y346402D02*Y345402D01*
Y346402D02*X198500Y346902D01*
X201500D01*
X202000Y346402D02*X201500Y346902D01*
X202000Y346402D02*Y345402D01*
X201000Y344902D02*X199000Y346902D01*
X202000Y349603D02*Y348603D01*
X198000Y349103D02*X202000D01*
X199000Y348103D02*X198000Y349103D01*
X174000Y367900D02*X176000D01*
X176500Y367400D01*
Y366400D01*
X176000Y365900D02*X176500Y366400D01*
X174500Y365900D02*X176000D01*
X174500Y367900D02*Y363900D01*
Y365900D02*X176500Y363900D01*
X177701Y367400D02*X178201Y367900D01*
X179701D01*
X180201Y367400D01*
Y366400D01*
X177701Y363900D02*X180201Y366400D01*
X177701Y363900D02*X180201D01*
X181402Y364400D02*X181902Y363900D01*
X181402Y367400D02*Y364400D01*
Y367400D02*X181902Y367900D01*
X182902D01*
X183402Y367400D01*
Y364400D01*
X182902Y363900D02*X183402Y364400D01*
X181902Y363900D02*X182902D01*
X181402Y364900D02*X183402Y366900D01*
X186103Y367900D02*X186603Y367400D01*
X185103Y367900D02*X186103D01*
X184603Y367400D02*X185103Y367900D01*
X184603Y367400D02*Y364400D01*
X185103Y363900D01*
X186103Y365900D02*X186603Y365400D01*
X184603Y365900D02*X186103D01*
X185103Y363900D02*X186103D01*
X186603Y364400D01*
Y365400D02*Y364400D01*
X173500Y353400D02*X175500D01*
X176000Y352900D01*
Y351900D01*
X175500Y351400D02*X176000Y351900D01*
X174000Y351400D02*X175500D01*
X174000Y353400D02*Y349400D01*
Y351400D02*X176000Y349400D01*
X177201Y352900D02*X177701Y353400D01*
X179201D01*
X179701Y352900D01*
Y351900D01*
X177201Y349400D02*X179701Y351900D01*
X177201Y349400D02*X179701D01*
X180902Y349900D02*X181402Y349400D01*
X180902Y352900D02*Y349900D01*
Y352900D02*X181402Y353400D01*
X182402D01*
X182902Y352900D01*
Y349900D01*
X182402Y349400D02*X182902Y349900D01*
X181402Y349400D02*X182402D01*
X180902Y350400D02*X182902Y352400D01*
X184103Y353400D02*X186103D01*
X184103D02*Y351400D01*
X184603Y351900D01*
X185603D01*
X186103Y351400D01*
Y349900D01*
X185603Y349400D02*X186103Y349900D01*
X184603Y349400D02*X185603D01*
X184103Y349900D02*X184603Y349400D01*
X173000Y338400D02*X175000D01*
X175500Y337900D01*
Y336900D01*
X175000Y336400D02*X175500Y336900D01*
X173500Y336400D02*X175000D01*
X173500Y338400D02*Y334400D01*
Y336400D02*X175500Y334400D01*
X176701Y337900D02*X177201Y338400D01*
X178701D01*
X179201Y337900D01*
Y336900D01*
X176701Y334400D02*X179201Y336900D01*
X176701Y334400D02*X179201D01*
X180402Y334900D02*X180902Y334400D01*
X180402Y337900D02*Y334900D01*
Y337900D02*X180902Y338400D01*
X181902D01*
X182402Y337900D01*
Y334900D01*
X181902Y334400D02*X182402Y334900D01*
X180902Y334400D02*X181902D01*
X180402Y335400D02*X182402Y337400D01*
X183603Y336400D02*X185603Y338400D01*
X183603Y336400D02*X186103D01*
X185603Y338400D02*Y334400D01*
X149500Y386000D02*Y383000D01*
Y386000D02*X150000Y386500D01*
X151000D01*
X151500Y386000D01*
Y383000D01*
X151000Y382500D02*X151500Y383000D01*
X150000Y382500D02*X151000D01*
X149500Y383000D02*X150000Y382500D01*
X150500Y383500D02*X151500Y382500D01*
X152701Y386000D02*X153201Y386500D01*
X154701D01*
X155201Y386000D01*
Y385000D01*
X152701Y382500D02*X155201Y385000D01*
X152701Y382500D02*X155201D01*
X156402Y383000D02*X156902Y382500D01*
X156402Y386000D02*Y383000D01*
Y386000D02*X156902Y386500D01*
X157902D01*
X158402Y386000D01*
Y383000D01*
X157902Y382500D02*X158402Y383000D01*
X156902Y382500D02*X157902D01*
X156402Y383500D02*X158402Y385500D01*
X159603Y383000D02*X160103Y382500D01*
X159603Y386000D02*Y383000D01*
Y386000D02*X160103Y386500D01*
X161103D01*
X161603Y386000D01*
Y383000D01*
X161103Y382500D02*X161603Y383000D01*
X160103Y382500D02*X161103D01*
X159603Y383500D02*X161603Y385500D01*
X202000Y356000D02*Y354500D01*
X201500Y354000D02*X202000Y354500D01*
X198500Y354000D02*X201500D01*
X198500D02*X198000Y354500D01*
Y356000D02*Y354500D01*
X198500Y357201D02*X198000Y357701D01*
Y359201D02*Y357701D01*
Y359201D02*X198500Y359701D01*
X199500D01*
X202000Y357201D02*X199500Y359701D01*
X202000D02*Y357201D01*
X201500Y360902D02*X202000Y361402D01*
X198500Y360902D02*X201500D01*
X198500D02*X198000Y361402D01*
Y362402D02*Y361402D01*
Y362402D02*X198500Y362902D01*
X201500D01*
X202000Y362402D02*X201500Y362902D01*
X202000Y362402D02*Y361402D01*
X201000Y360902D02*X199000Y362902D01*
X198500Y364103D02*X198000Y364603D01*
Y366103D02*Y364603D01*
Y366103D02*X198500Y366603D01*
X199500D01*
X202000Y364103D02*X199500Y366603D01*
X202000D02*Y364103D01*
X200500Y384900D02*X202500D01*
X203000Y384400D01*
Y383400D01*
X202500Y382900D02*X203000Y383400D01*
X201000Y382900D02*X202500D01*
X201000Y384900D02*Y380900D01*
Y382900D02*X203000Y380900D01*
X204201Y384400D02*X204701Y384900D01*
X206201D01*
X206701Y384400D01*
Y383400D01*
X204201Y380900D02*X206701Y383400D01*
X204201Y380900D02*X206701D01*
X208402D02*X209402D01*
X208902Y384900D02*Y380900D01*
X207902Y383900D02*X208902Y384900D01*
X210603Y381400D02*X211103Y380900D01*
X210603Y384400D02*Y381400D01*
Y384400D02*X211103Y384900D01*
X212103D01*
X212603Y384400D01*
Y381400D01*
X212103Y380900D02*X212603Y381400D01*
X211103Y380900D02*X212103D01*
X210603Y381900D02*X212603Y383900D01*
X57000Y307500D02*X58500D01*
X56500Y308000D02*X57000Y307500D01*
X56500Y311000D02*Y308000D01*
Y311000D02*X57000Y311500D01*
X58500D01*
X59701Y311000D02*Y308000D01*
Y311000D02*X60201Y311500D01*
X61201D01*
X61701Y311000D01*
Y308000D01*
X61201Y307500D02*X61701Y308000D01*
X60201Y307500D02*X61201D01*
X59701Y308000D02*X60201Y307500D01*
X62902Y311500D02*Y307500D01*
Y311500D02*Y311000D01*
X65402Y308500D01*
Y311500D02*Y307500D01*
X66603Y311500D02*Y307500D01*
Y311500D02*Y311000D01*
X69103Y308500D01*
Y311500D02*Y307500D01*
X70304D02*X72304D01*
X74005D02*X75505D01*
X73505Y308000D02*X74005Y307500D01*
X73505Y311000D02*Y308000D01*
Y311000D02*X74005Y311500D01*
X75505D01*
X76706D02*Y307500D01*
X79206Y311500D02*Y307500D01*
X76706Y309500D02*X79206D01*
X80407Y311000D02*Y307500D01*
Y311000D02*X80907Y311500D01*
X82407D01*
X82907Y311000D01*
Y307500D01*
X80407Y309500D02*X82907D01*
X84108Y311500D02*X85108D01*
X84608D02*Y307500D01*
X84108D02*X85108D01*
X86309Y311500D02*Y307500D01*
Y311500D02*Y311000D01*
X88809Y308500D01*
Y311500D02*Y307500D01*
X132000Y306500D02*X133500D01*
X131500Y307000D02*X132000Y306500D01*
X131500Y310000D02*Y307000D01*
Y310000D02*X132000Y310500D01*
X133500D01*
X134701Y310000D02*Y307000D01*
Y310000D02*X135201Y310500D01*
X136201D01*
X136701Y310000D01*
Y307000D01*
X136201Y306500D02*X136701Y307000D01*
X135201Y306500D02*X136201D01*
X134701Y307000D02*X135201Y306500D01*
X137902Y310500D02*Y306500D01*
Y310500D02*Y310000D01*
X140402Y307500D01*
Y310500D02*Y306500D01*
X141603Y310500D02*Y306500D01*
Y310500D02*Y310000D01*
X144103Y307500D01*
Y310500D02*Y306500D01*
X145304D02*X147304D01*
X149005Y310500D02*Y306500D01*
X148505Y310500D02*X150505D01*
X151005Y310000D01*
Y309000D01*
X150505Y308500D02*X151005Y309000D01*
X149005Y308500D02*X150505D01*
X152206Y310000D02*Y307000D01*
Y310000D02*X152706Y310500D01*
X153706D01*
X154206Y310000D01*
Y307000D01*
X153706Y306500D02*X154206Y307000D01*
X152706Y306500D02*X153706D01*
X152206Y307000D02*X152706Y306500D01*
X155407Y310500D02*Y306500D01*
X156907Y308000D01*
X158407Y306500D01*
Y310500D02*Y306500D01*
X159608Y308500D02*X161108D01*
X159608Y306500D02*X161608D01*
X159608Y310500D02*Y306500D01*
Y310500D02*X161608D01*
X162809D02*X164809D01*
X165309Y310000D01*
Y309000D01*
X164809Y308500D02*X165309Y309000D01*
X163309Y308500D02*X164809D01*
X163309Y310500D02*Y306500D01*
Y308500D02*X165309Y306500D01*
X269500Y307900D02*X271500D01*
X272000Y307400D01*
Y306400D01*
X271500Y305900D02*X272000Y306400D01*
X270000Y305900D02*X271500D01*
X270000Y307900D02*Y303900D01*
Y305900D02*X272000Y303900D01*
X273201Y307400D02*X273701Y307900D01*
X275201D01*
X275701Y307400D01*
Y306400D01*
X273201Y303900D02*X275701Y306400D01*
X273201Y303900D02*X275701D01*
X276902Y307400D02*X277402Y307900D01*
X278402D01*
X278902Y307400D01*
Y304400D01*
X278402Y303900D02*X278902Y304400D01*
X277402Y303900D02*X278402D01*
X276902Y304400D02*X277402Y303900D01*
Y305900D02*X278902D01*
X280603Y303900D02*X281603D01*
X281103Y307900D02*Y303900D01*
X280103Y306900D02*X281103Y307900D01*
X263000Y283500D02*Y282000D01*
X262500Y281500D02*X263000Y282000D01*
X259500Y281500D02*X262500D01*
X259500D02*X259000Y282000D01*
Y283500D02*Y282000D01*
X259500Y284701D02*X259000Y285201D01*
Y286701D02*Y285201D01*
Y286701D02*X259500Y287201D01*
X260500D01*
X263000Y284701D02*X260500Y287201D01*
X263000D02*Y284701D01*
X262500Y288402D02*X263000Y288902D01*
X259500Y288402D02*X262500D01*
X259500D02*X259000Y288902D01*
Y289902D02*Y288902D01*
Y289902D02*X259500Y290402D01*
X262500D01*
X263000Y289902D02*X262500Y290402D01*
X263000Y289902D02*Y288902D01*
X262000Y288402D02*X260000Y290402D01*
X262500Y291603D02*X263000Y292103D01*
X261500Y291603D02*X262500D01*
X261500D02*X261000Y292103D01*
Y293103D02*Y292103D01*
Y293103D02*X261500Y293603D01*
X262500D01*
X263000Y293103D02*X262500Y293603D01*
X263000Y293103D02*Y292103D01*
X260500Y291603D02*X261000Y292103D01*
X259500Y291603D02*X260500D01*
X259500D02*X259000Y292103D01*
Y293103D02*Y292103D01*
Y293103D02*X259500Y293603D01*
X260500D01*
X261000Y293103D02*X260500Y293603D01*
X262000Y275000D02*X263500D01*
X261500Y275500D02*X262000Y275000D01*
X261500Y278500D02*Y275500D01*
Y278500D02*X262000Y279000D01*
X263500D01*
X264701Y278500D02*Y275500D01*
Y278500D02*X265201Y279000D01*
X266201D01*
X266701Y278500D01*
Y275500D01*
X266201Y275000D02*X266701Y275500D01*
X265201Y275000D02*X266201D01*
X264701Y275500D02*X265201Y275000D01*
X267902Y279000D02*Y275000D01*
Y279000D02*Y278500D01*
X270402Y276000D01*
Y279000D02*Y275000D01*
X271603Y279000D02*Y275000D01*
Y279000D02*Y278500D01*
X274103Y276000D01*
Y279000D02*Y275000D01*
X275304D02*X277304D01*
X279005Y279000D02*Y275000D01*
X280505Y279000D02*X281005Y278500D01*
Y275500D01*
X280505Y275000D02*X281005Y275500D01*
X278505Y275000D02*X280505D01*
X278505Y279000D02*X280505D01*
X282206D02*X283206D01*
X282706D02*Y275000D01*
X282206D02*X283206D01*
X286407Y279000D02*X286907Y278500D01*
X284907Y279000D02*X286407D01*
X284407Y278500D02*X284907Y279000D01*
X284407Y278500D02*Y277500D01*
X284907Y277000D01*
X286407D01*
X286907Y276500D01*
Y275500D01*
X286407Y275000D02*X286907Y275500D01*
X284907Y275000D02*X286407D01*
X284407Y275500D02*X284907Y275000D01*
X288108Y278500D02*Y275000D01*
Y278500D02*X288608Y279000D01*
X290108D01*
X290608Y278500D01*
Y275000D01*
X288108Y277000D02*X290608D01*
X291809Y275000D02*X293809D01*
X294309Y275500D01*
Y276500D02*Y275500D01*
X293809Y277000D02*X294309Y276500D01*
X292309Y277000D02*X293809D01*
X292309Y279000D02*Y275000D01*
X291809Y279000D02*X293809D01*
X294309Y278500D01*
Y277500D01*
X293809Y277000D02*X294309Y277500D01*
X295510Y279000D02*Y275000D01*
X297510D01*
X298711Y277000D02*X300211D01*
X298711Y275000D02*X300711D01*
X298711Y279000D02*Y275000D01*
Y279000D02*X300711D01*
X271000Y338400D02*X273000D01*
X273500Y337900D01*
Y336900D01*
X273000Y336400D02*X273500Y336900D01*
X271500Y336400D02*X273000D01*
X271500Y338400D02*Y334400D01*
Y336400D02*X273500Y334400D01*
X274701Y337900D02*X275201Y338400D01*
X276701D01*
X277201Y337900D01*
Y336900D01*
X274701Y334400D02*X277201Y336900D01*
X274701Y334400D02*X277201D01*
X278402Y334900D02*X278902Y334400D01*
X278402Y337900D02*Y334900D01*
Y337900D02*X278902Y338400D01*
X279902D01*
X280402Y337900D01*
Y334900D01*
X279902Y334400D02*X280402Y334900D01*
X278902Y334400D02*X279902D01*
X278402Y335400D02*X280402Y337400D01*
X281603Y334400D02*X284103Y336900D01*
Y338400D02*Y336900D01*
X281603Y338400D02*X284103D01*
X270500Y352900D02*X272500D01*
X273000Y352400D01*
Y351400D01*
X272500Y350900D02*X273000Y351400D01*
X271000Y350900D02*X272500D01*
X271000Y352900D02*Y348900D01*
Y350900D02*X273000Y348900D01*
X274201Y352400D02*X274701Y352900D01*
X276201D01*
X276701Y352400D01*
Y351400D01*
X274201Y348900D02*X276701Y351400D01*
X274201Y348900D02*X276701D01*
X277902Y349400D02*X278402Y348900D01*
X277902Y352400D02*Y349400D01*
Y352400D02*X278402Y352900D01*
X279402D01*
X279902Y352400D01*
Y349400D01*
X279402Y348900D02*X279902Y349400D01*
X278402Y348900D02*X279402D01*
X277902Y349900D02*X279902Y351900D01*
X281103Y349400D02*X281603Y348900D01*
X281103Y350400D02*Y349400D01*
Y350400D02*X281603Y350900D01*
X282603D01*
X283103Y350400D01*
Y349400D01*
X282603Y348900D02*X283103Y349400D01*
X281603Y348900D02*X282603D01*
X281103Y351400D02*X281603Y350900D01*
X281103Y352400D02*Y351400D01*
Y352400D02*X281603Y352900D01*
X282603D01*
X283103Y352400D01*
Y351400D01*
X282603Y350900D02*X283103Y351400D01*
X270000Y323400D02*X272000D01*
X272500Y322900D01*
Y321900D01*
X272000Y321400D02*X272500Y321900D01*
X270500Y321400D02*X272000D01*
X270500Y323400D02*Y319400D01*
Y321400D02*X272500Y319400D01*
X273701Y322900D02*X274201Y323400D01*
X275701D01*
X276201Y322900D01*
Y321900D01*
X273701Y319400D02*X276201Y321900D01*
X273701Y319400D02*X276201D01*
X277402Y322900D02*X277902Y323400D01*
X278902D01*
X279402Y322900D01*
Y319900D01*
X278902Y319400D02*X279402Y319900D01*
X277902Y319400D02*X278902D01*
X277402Y319900D02*X277902Y319400D01*
Y321400D02*X279402D01*
X280603Y322900D02*X281103Y323400D01*
X282603D01*
X283103Y322900D01*
Y321900D01*
X280603Y319400D02*X283103Y321900D01*
X280603Y319400D02*X283103D01*
X202000Y323500D02*Y322000D01*
X201500Y321500D02*X202000Y322000D01*
X198500Y321500D02*X201500D01*
X198500D02*X198000Y322000D01*
Y323500D02*Y322000D01*
X198500Y324701D02*X198000Y325201D01*
Y326701D02*Y325201D01*
Y326701D02*X198500Y327201D01*
X199500D01*
X202000Y324701D02*X199500Y327201D01*
X202000D02*Y324701D01*
X201500Y328402D02*X202000Y328902D01*
X198500Y328402D02*X201500D01*
X198500D02*X198000Y328902D01*
Y329902D02*Y328902D01*
Y329902D02*X198500Y330402D01*
X201500D01*
X202000Y329902D02*X201500Y330402D01*
X202000Y329902D02*Y328902D01*
X201000Y328402D02*X199000Y330402D01*
X201500Y331603D02*X202000Y332103D01*
X198500Y331603D02*X201500D01*
X198500D02*X198000Y332103D01*
Y333103D02*Y332103D01*
Y333103D02*X198500Y333603D01*
X201500D01*
X202000Y333103D02*X201500Y333603D01*
X202000Y333103D02*Y332103D01*
X201000Y331603D02*X199000Y333603D01*
X203500Y222500D02*Y220500D01*
Y222500D02*X204000Y223000D01*
X205000D01*
X205500Y222500D02*X205000Y223000D01*
X205500Y222500D02*Y221000D01*
X203500D02*X207500D01*
X205500D02*X207500Y223000D01*
X204000Y224201D02*X203500Y224701D01*
Y226201D02*Y224701D01*
Y226201D02*X204000Y226701D01*
X205000D01*
X207500Y224201D02*X205000Y226701D01*
X207500D02*Y224201D01*
X204000Y227902D02*X203500Y228402D01*
Y229902D02*Y228402D01*
Y229902D02*X204000Y230402D01*
X205000D01*
X207500Y227902D02*X205000Y230402D01*
X207500D02*Y227902D01*
Y231603D02*X205500Y233603D01*
X204000D02*X205500D01*
X203500Y233103D02*X204000Y233603D01*
X203500Y233103D02*Y232103D01*
X204000Y231603D02*X203500Y232103D01*
X204000Y231603D02*X205000D01*
X205500Y232103D01*
Y233603D02*Y232103D01*
X265500Y255500D02*X267000D01*
X265000Y256000D02*X265500Y255500D01*
X265000Y259000D02*Y256000D01*
Y259000D02*X265500Y259500D01*
X267000D01*
X268201Y259000D02*Y256000D01*
Y259000D02*X268701Y259500D01*
X269701D01*
X270201Y259000D01*
Y256000D01*
X269701Y255500D02*X270201Y256000D01*
X268701Y255500D02*X269701D01*
X268201Y256000D02*X268701Y255500D01*
X271402Y259500D02*Y255500D01*
Y259500D02*Y259000D01*
X273902Y256500D01*
Y259500D02*Y255500D01*
X275103Y259500D02*Y255500D01*
Y259500D02*Y259000D01*
X277603Y256500D01*
Y259500D02*Y255500D01*
X278804D02*X280804D01*
X282005Y259500D02*X284005D01*
X284505Y259000D01*
Y258000D01*
X284005Y257500D02*X284505Y258000D01*
X282505Y257500D02*X284005D01*
X282505Y259500D02*Y255500D01*
Y257500D02*X284505Y255500D01*
X285706Y259500D02*X286706D01*
X286206D02*Y255500D01*
X285706D02*X286706D01*
X287907Y259500D02*Y255500D01*
Y259500D02*Y259000D01*
X290407Y256500D01*
Y259500D02*Y255500D01*
X293608Y259500D02*X294108Y259000D01*
X292108Y259500D02*X293608D01*
X291608Y259000D02*X292108Y259500D01*
X291608Y259000D02*Y256000D01*
X292108Y255500D01*
X293608D01*
X294108Y256000D01*
Y257000D02*Y256000D01*
X293608Y257500D02*X294108Y257000D01*
X292608Y257500D02*X293608D01*
X271100Y221000D02*Y219500D01*
X270600Y219000D02*X271100Y219500D01*
X267600Y219000D02*X270600D01*
X267600D02*X267100Y219500D01*
Y221000D02*Y219500D01*
X267600Y222201D02*X267100Y222701D01*
Y224201D02*Y222701D01*
Y224201D02*X267600Y224701D01*
X268600D01*
X271100Y222201D02*X268600Y224701D01*
X271100D02*Y222201D01*
Y227402D02*Y226402D01*
X267100Y226902D02*X271100D01*
X268100Y225902D02*X267100Y226902D01*
X269100Y228603D02*X267100Y230603D01*
X269100Y231103D02*Y228603D01*
X267100Y230603D02*X271100D01*
X260000Y234500D02*Y233000D01*
X259500Y232500D02*X260000Y233000D01*
X256500Y232500D02*X259500D01*
X256500D02*X256000Y233000D01*
Y234500D02*Y233000D01*
X256500Y235701D02*X259500D01*
X256500D02*X256000Y236201D01*
Y237201D02*Y236201D01*
Y237201D02*X256500Y237701D01*
X259500D01*
X260000Y237201D02*X259500Y237701D01*
X260000Y237201D02*Y236201D01*
X259500Y235701D02*X260000Y236201D01*
X256000Y238902D02*X260000D01*
X256000D02*X256500D01*
X259000Y241402D01*
X256000D02*X260000D01*
X256000Y242603D02*X260000D01*
X256000D02*X256500D01*
X259000Y245103D01*
X256000D02*X260000D01*
Y248304D02*Y246304D01*
X256500Y249505D02*X260000D01*
X256500D02*X256000Y250005D01*
Y251505D02*Y250005D01*
Y251505D02*X256500Y252005D01*
X260000D01*
X258000D02*Y249505D01*
X260000Y255206D02*Y253206D01*
Y255206D02*X259500Y255706D01*
X258500D02*X259500D01*
X258000Y255206D02*X258500Y255706D01*
X258000Y255206D02*Y253706D01*
X256000D02*X260000D01*
X256000Y255206D02*Y253206D01*
Y255206D02*X256500Y255706D01*
X257500D01*
X258000Y255206D02*X257500Y255706D01*
X260000Y258907D02*Y256907D01*
X256000Y260608D02*X260000D01*
X256000Y262108D02*Y260108D01*
Y262108D02*X256500Y262608D01*
X257500D01*
X258000Y262108D02*X257500Y262608D01*
X258000Y262108D02*Y260608D01*
X256500Y263809D02*X259500D01*
X256500D02*X256000Y264309D01*
Y265309D02*Y264309D01*
Y265309D02*X256500Y265809D01*
X259500D01*
X260000Y265309D02*X259500Y265809D01*
X260000Y265309D02*Y264309D01*
X259500Y263809D02*X260000Y264309D01*
X256000Y267010D02*X260000D01*
X258500Y268510D01*
X260000Y270010D01*
X256000D02*X260000D01*
X258000Y272711D02*Y271211D01*
X260000Y273211D02*Y271211D01*
X256000D02*X260000D01*
X256000Y273211D02*Y271211D01*
Y276412D02*Y274412D01*
Y276412D02*X256500Y276912D01*
X257500D01*
X258000Y276412D02*X257500Y276912D01*
X258000Y276412D02*Y274912D01*
X256000D02*X260000D01*
X258000D02*X260000Y276912D01*
X231000Y226000D02*Y224500D01*
X230500Y224000D02*X231000Y224500D01*
X227500Y224000D02*X230500D01*
X227500D02*X227000Y224500D01*
Y226000D02*Y224500D01*
X227500Y227201D02*X230500D01*
X227500D02*X227000Y227701D01*
Y228701D02*Y227701D01*
Y228701D02*X227500Y229201D01*
X230500D01*
X231000Y228701D02*X230500Y229201D01*
X231000Y228701D02*Y227701D01*
X230500Y227201D02*X231000Y227701D01*
X227000Y230402D02*X231000D01*
X227000D02*X227500D01*
X230000Y232902D01*
X227000D02*X231000D01*
X227000Y234103D02*X231000D01*
X227000D02*X227500D01*
X230000Y236603D01*
X227000D02*X231000D01*
Y239804D02*Y237804D01*
X227500Y241005D02*X231000D01*
X227500D02*X227000Y241505D01*
Y243005D02*Y241505D01*
Y243005D02*X227500Y243505D01*
X231000D01*
X229000D02*Y241005D01*
X231000Y246706D02*Y244706D01*
Y246706D02*X230500Y247206D01*
X229500D02*X230500D01*
X229000Y246706D02*X229500Y247206D01*
X229000Y246706D02*Y245206D01*
X227000D02*X231000D01*
X227000Y246706D02*Y244706D01*
Y246706D02*X227500Y247206D01*
X228500D01*
X229000Y246706D02*X228500Y247206D01*
X231000Y250407D02*Y248407D01*
X227000Y251608D02*X231000D01*
X227000Y254108D02*X231000D01*
X229000D02*Y251608D01*
X227500Y255309D02*X231000D01*
X227500D02*X227000Y255809D01*
Y257309D02*Y255809D01*
Y257309D02*X227500Y257809D01*
X231000D01*
X229000D02*Y255309D01*
X227000Y261010D02*Y259010D01*
Y261010D02*X227500Y261510D01*
X228500D01*
X229000Y261010D02*X228500Y261510D01*
X229000Y261010D02*Y259510D01*
X227000D02*X231000D01*
X229000D02*X231000Y261510D01*
X227000Y263211D02*X231000D01*
X227000Y264711D02*X227500Y265211D01*
X230500D01*
X231000Y264711D02*X230500Y265211D01*
X231000Y264711D02*Y262711D01*
X227000Y264711D02*Y262711D01*
Y268412D02*X227500Y268912D01*
X227000Y268412D02*Y266912D01*
X227500Y266412D02*X227000Y266912D01*
X227500Y266412D02*X228500D01*
X229000Y266912D01*
Y268412D02*Y266912D01*
Y268412D02*X229500Y268912D01*
X230500D01*
X231000Y268412D02*X230500Y268912D01*
X231000Y268412D02*Y266912D01*
X230500Y266412D02*X231000Y266912D01*
X227500Y270113D02*X230500D01*
X227500D02*X227000Y270613D01*
Y271613D02*Y270613D01*
Y271613D02*X227500Y272113D01*
X230500D01*
X231000Y271613D02*X230500Y272113D01*
X231000Y271613D02*Y270613D01*
X230500Y270113D02*X231000Y270613D01*
X227000Y273314D02*X231000D01*
X227000Y275314D02*Y273314D01*
X229000Y274814D02*Y273314D01*
X227000Y278515D02*Y276515D01*
Y277515D02*X231000D01*
X256000Y203500D02*X257500D01*
X255500Y204000D02*X256000Y203500D01*
X255500Y207000D02*Y204000D01*
Y207000D02*X256000Y207500D01*
X257500D01*
X258701Y207000D02*X259201Y207500D01*
X260701D01*
X261201Y207000D01*
Y206000D01*
X258701Y203500D02*X261201Y206000D01*
X258701Y203500D02*X261201D01*
X262902D02*X263902D01*
X263402Y207500D02*Y203500D01*
X262402Y206500D02*X263402Y207500D01*
X265103Y207000D02*X265603Y207500D01*
X266603D01*
X267103Y207000D01*
Y204000D01*
X266603Y203500D02*X267103Y204000D01*
X265603Y203500D02*X266603D01*
X265103Y204000D02*X265603Y203500D01*
Y205500D02*X267103D01*
X262500Y374000D02*Y372500D01*
X262000Y372000D02*X262500Y372500D01*
X259000Y372000D02*X262000D01*
X259000D02*X258500Y372500D01*
Y374000D02*Y372500D01*
X259000Y375201D02*X258500Y375701D01*
Y377201D02*Y375701D01*
Y377201D02*X259000Y377701D01*
X260000D01*
X262500Y375201D02*X260000Y377701D01*
X262500D02*Y375201D01*
X262000Y378902D02*X262500Y379402D01*
X259000Y378902D02*X262000D01*
X259000D02*X258500Y379402D01*
Y380402D02*Y379402D01*
Y380402D02*X259000Y380902D01*
X262000D01*
X262500Y380402D02*X262000Y380902D01*
X262500Y380402D02*Y379402D01*
X261500Y378902D02*X259500Y380902D01*
X258500Y383603D02*X259000Y384103D01*
X258500Y383603D02*Y382603D01*
X259000Y382103D02*X258500Y382603D01*
X259000Y382103D02*X262000D01*
X262500Y382603D01*
X260500Y383603D02*X261000Y384103D01*
X260500Y383603D02*Y382103D01*
X262500Y383603D02*Y382603D01*
Y383603D02*X262000Y384103D01*
X261000D02*X262000D01*
X249000Y369900D02*X251000D01*
X251500Y369400D01*
Y368400D01*
X251000Y367900D02*X251500Y368400D01*
X249500Y367900D02*X251000D01*
X249500Y369900D02*Y365900D01*
Y367900D02*X251500Y365900D01*
X252701Y369400D02*X253201Y369900D01*
X254701D01*
X255201Y369400D01*
Y368400D01*
X252701Y365900D02*X255201Y368400D01*
X252701Y365900D02*X255201D01*
X256402Y366400D02*X256902Y365900D01*
X256402Y369400D02*Y366400D01*
Y369400D02*X256902Y369900D01*
X257902D01*
X258402Y369400D01*
Y366400D01*
X257902Y365900D02*X258402Y366400D01*
X256902Y365900D02*X257902D01*
X256402Y366900D02*X258402Y368900D01*
X259603Y365900D02*X261603Y367900D01*
Y369400D02*Y367900D01*
X261103Y369900D02*X261603Y369400D01*
X260103Y369900D02*X261103D01*
X259603Y369400D02*X260103Y369900D01*
X259603Y369400D02*Y368400D01*
X260103Y367900D01*
X261603D01*
X236000Y540000D02*Y536000D01*
X238000D01*
X239201Y538000D02*X240701D01*
X239201Y536000D02*X241201D01*
X239201Y540000D02*Y536000D01*
Y540000D02*X241201D01*
X242902D02*Y536000D01*
X244402Y540000D02*X244902Y539500D01*
Y536500D01*
X244402Y536000D02*X244902Y536500D01*
X242402Y536000D02*X244402D01*
X242402Y540000D02*X244402D01*
X246103D02*X248103D01*
X246103D02*Y538000D01*
X246603Y538500D01*
X247603D01*
X248103Y538000D01*
Y536500D01*
X247603Y536000D02*X248103Y536500D01*
X246603Y536000D02*X247603D01*
X246103Y536500D02*X246603Y536000D01*
X236000Y590000D02*Y586000D01*
X238000D01*
X239201Y588000D02*X240701D01*
X239201Y586000D02*X241201D01*
X239201Y590000D02*Y586000D01*
Y590000D02*X241201D01*
X242902D02*Y586000D01*
X244402Y590000D02*X244902Y589500D01*
Y586500D01*
X244402Y586000D02*X244902Y586500D01*
X242402Y586000D02*X244402D01*
X242402Y590000D02*X244402D01*
X247603D02*X248103Y589500D01*
X246603Y590000D02*X247603D01*
X246103Y589500D02*X246603Y590000D01*
X246103Y589500D02*Y586500D01*
X246603Y586000D01*
X247603Y588000D02*X248103Y587500D01*
X246103Y588000D02*X247603D01*
X246603Y586000D02*X247603D01*
X248103Y586500D01*
Y587500D02*Y586500D01*
X262500Y438500D02*Y437000D01*
X262000Y436500D02*X262500Y437000D01*
X259000Y436500D02*X262000D01*
X259000D02*X258500Y437000D01*
Y438500D02*Y437000D01*
X259000Y439701D02*X258500Y440201D01*
Y441701D02*Y440201D01*
Y441701D02*X259000Y442201D01*
X260000D01*
X262500Y439701D02*X260000Y442201D01*
X262500D02*Y439701D01*
X262000Y443402D02*X262500Y443902D01*
X259000Y443402D02*X262000D01*
X259000D02*X258500Y443902D01*
Y444902D02*Y443902D01*
Y444902D02*X259000Y445402D01*
X262000D01*
X262500Y444902D02*X262000Y445402D01*
X262500Y444902D02*Y443902D01*
X261500Y443402D02*X259500Y445402D01*
X260500Y446603D02*X258500Y448603D01*
X260500Y449103D02*Y446603D01*
X258500Y448603D02*X262500D01*
X62500Y433500D02*Y430000D01*
X63000Y429500D01*
X64000D01*
X64500Y430000D01*
Y433500D02*Y430000D01*
X65701Y433000D02*X66201Y433500D01*
X67701D01*
X68201Y433000D01*
Y432000D01*
X65701Y429500D02*X68201Y432000D01*
X65701Y429500D02*X68201D01*
X69402Y430000D02*X69902Y429500D01*
X69402Y433000D02*Y430000D01*
Y433000D02*X69902Y433500D01*
X70902D01*
X71402Y433000D01*
Y430000D01*
X70902Y429500D02*X71402Y430000D01*
X69902Y429500D02*X70902D01*
X69402Y430500D02*X71402Y432500D01*
X72603Y433000D02*X73103Y433500D01*
X74103D01*
X74603Y433000D01*
Y430000D01*
X74103Y429500D02*X74603Y430000D01*
X73103Y429500D02*X74103D01*
X72603Y430000D02*X73103Y429500D01*
Y431500D02*X74603D01*
X61500Y590000D02*Y586000D01*
X63500D01*
X64701Y588000D02*X66201D01*
X64701Y586000D02*X66701D01*
X64701Y590000D02*Y586000D01*
Y590000D02*X66701D01*
X68402D02*Y586000D01*
X69902Y590000D02*X70402Y589500D01*
Y586500D01*
X69902Y586000D02*X70402Y586500D01*
X67902Y586000D02*X69902D01*
X67902Y590000D02*X69902D01*
X71603Y589500D02*X72103Y590000D01*
X73103D01*
X73603Y589500D01*
Y586500D01*
X73103Y586000D02*X73603Y586500D01*
X72103Y586000D02*X73103D01*
X71603Y586500D02*X72103Y586000D01*
Y588000D02*X73603D01*
X61500Y540000D02*Y536000D01*
X63500D01*
X64701Y538000D02*X66201D01*
X64701Y536000D02*X66701D01*
X64701Y540000D02*Y536000D01*
Y540000D02*X66701D01*
X68402D02*Y536000D01*
X69902Y540000D02*X70402Y539500D01*
Y536500D01*
X69902Y536000D02*X70402Y536500D01*
X67902Y536000D02*X69902D01*
X67902Y540000D02*X69902D01*
X71603Y539500D02*X72103Y540000D01*
X73603D01*
X74103Y539500D01*
Y538500D01*
X71603Y536000D02*X74103Y538500D01*
X71603Y536000D02*X74103D01*
X42500Y498000D02*Y494500D01*
X43000Y494000D01*
X44000D01*
X44500Y494500D01*
Y498000D02*Y494500D01*
X45701Y497500D02*X46201Y498000D01*
X47701D01*
X48201Y497500D01*
Y496500D01*
X45701Y494000D02*X48201Y496500D01*
X45701Y494000D02*X48201D01*
X49402Y494500D02*X49902Y494000D01*
X49402Y497500D02*Y494500D01*
Y497500D02*X49902Y498000D01*
X50902D01*
X51402Y497500D01*
Y494500D01*
X50902Y494000D02*X51402Y494500D01*
X49902Y494000D02*X50902D01*
X49402Y495000D02*X51402Y497000D01*
X52603Y497500D02*X53103Y498000D01*
X54603D01*
X55103Y497500D01*
Y496500D01*
X52603Y494000D02*X55103Y496500D01*
X52603Y494000D02*X55103D01*
X61500Y444500D02*X63000D01*
X61000Y445000D02*X61500Y444500D01*
X61000Y448000D02*Y445000D01*
Y448000D02*X61500Y448500D01*
X63000D01*
X64201Y448000D02*X64701Y448500D01*
X66201D01*
X66701Y448000D01*
Y447000D01*
X64201Y444500D02*X66701Y447000D01*
X64201Y444500D02*X66701D01*
X67902Y445000D02*X68402Y444500D01*
X67902Y448000D02*Y445000D01*
Y448000D02*X68402Y448500D01*
X69402D01*
X69902Y448000D01*
Y445000D01*
X69402Y444500D02*X69902Y445000D01*
X68402Y444500D02*X69402D01*
X67902Y445500D02*X69902Y447500D01*
X71103Y448000D02*X71603Y448500D01*
X72603D01*
X73103Y448000D01*
Y445000D01*
X72603Y444500D02*X73103Y445000D01*
X71603Y444500D02*X72603D01*
X71103Y445000D02*X71603Y444500D01*
Y446500D02*X73103D01*
X148000Y590500D02*Y586500D01*
X150000D01*
X151201Y588500D02*X152701D01*
X151201Y586500D02*X153201D01*
X151201Y590500D02*Y586500D01*
Y590500D02*X153201D01*
X154902D02*Y586500D01*
X156402Y590500D02*X156902Y590000D01*
Y587000D01*
X156402Y586500D02*X156902Y587000D01*
X154402Y586500D02*X156402D01*
X154402Y590500D02*X156402D01*
X158103Y588500D02*X160103Y590500D01*
X158103Y588500D02*X160603D01*
X160103Y590500D02*Y586500D01*
X104500Y641000D02*Y637000D01*
X106500D01*
X107701Y639000D02*X109201D01*
X107701Y637000D02*X109701D01*
X107701Y641000D02*Y637000D01*
Y641000D02*X109701D01*
X111402D02*Y637000D01*
X112902Y641000D02*X113402Y640500D01*
Y637500D01*
X112902Y637000D02*X113402Y637500D01*
X110902Y637000D02*X112902D01*
X110902Y641000D02*X112902D01*
X114603Y637000D02*X117103Y639500D01*
Y641000D02*Y639500D01*
X114603Y641000D02*X117103D01*
X192500Y640500D02*Y636500D01*
X194500D01*
X195701Y638500D02*X197201D01*
X195701Y636500D02*X197701D01*
X195701Y640500D02*Y636500D01*
Y640500D02*X197701D01*
X199402D02*Y636500D01*
X200902Y640500D02*X201402Y640000D01*
Y637000D01*
X200902Y636500D02*X201402Y637000D01*
X198902Y636500D02*X200902D01*
X198902Y640500D02*X200902D01*
X202603Y637000D02*X203103Y636500D01*
X202603Y638000D02*Y637000D01*
Y638000D02*X203103Y638500D01*
X204103D01*
X204603Y638000D01*
Y637000D01*
X204103Y636500D02*X204603Y637000D01*
X203103Y636500D02*X204103D01*
X202603Y639000D02*X203103Y638500D01*
X202603Y640000D02*Y639000D01*
Y640000D02*X203103Y640500D01*
X204103D01*
X204603Y640000D01*
Y639000D01*
X204103Y638500D02*X204603Y639000D01*
X108500Y591900D02*X110500D01*
X111000Y591400D01*
Y590400D01*
X110500Y589900D02*X111000Y590400D01*
X109000Y589900D02*X110500D01*
X109000Y591900D02*Y587900D01*
Y589900D02*X111000Y587900D01*
X112201Y591400D02*X112701Y591900D01*
X114201D01*
X114701Y591400D01*
Y590400D01*
X112201Y587900D02*X114701Y590400D01*
X112201Y587900D02*X114701D01*
X116402D02*X117402D01*
X116902Y591900D02*Y587900D01*
X115902Y590900D02*X116902Y591900D01*
X120103D02*X120603Y591400D01*
X119103Y591900D02*X120103D01*
X118603Y591400D02*X119103Y591900D01*
X118603Y591400D02*Y588400D01*
X119103Y587900D01*
X120103Y589900D02*X120603Y589400D01*
X118603Y589900D02*X120103D01*
X119103Y587900D02*X120103D01*
X120603Y588400D01*
Y589400D02*Y588400D01*
X149500Y540000D02*Y536000D01*
X151500D01*
X152701Y538000D02*X154201D01*
X152701Y536000D02*X154701D01*
X152701Y540000D02*Y536000D01*
Y540000D02*X154701D01*
X156402D02*Y536000D01*
X157902Y540000D02*X158402Y539500D01*
Y536500D01*
X157902Y536000D02*X158402Y536500D01*
X155902Y536000D02*X157902D01*
X155902Y540000D02*X157902D01*
X160103Y536000D02*X161103D01*
X160603Y540000D02*Y536000D01*
X159603Y539000D02*X160603Y540000D01*
X129000Y498000D02*Y494500D01*
X129500Y494000D01*
X130500D01*
X131000Y494500D01*
Y498000D02*Y494500D01*
X132201Y497500D02*X132701Y498000D01*
X134201D01*
X134701Y497500D01*
Y496500D01*
X132201Y494000D02*X134701Y496500D01*
X132201Y494000D02*X134701D01*
X135902Y494500D02*X136402Y494000D01*
X135902Y497500D02*Y494500D01*
Y497500D02*X136402Y498000D01*
X137402D01*
X137902Y497500D01*
Y494500D01*
X137402Y494000D02*X137902Y494500D01*
X136402Y494000D02*X137402D01*
X135902Y495000D02*X137902Y497000D01*
X139103Y496000D02*X141103Y498000D01*
X139103Y496000D02*X141603D01*
X141103Y498000D02*Y494000D01*
X216000Y498000D02*Y494500D01*
X216500Y494000D01*
X217500D01*
X218000Y494500D01*
Y498000D02*Y494500D01*
X219201Y497500D02*X219701Y498000D01*
X221201D01*
X221701Y497500D01*
Y496500D01*
X219201Y494000D02*X221701Y496500D01*
X219201Y494000D02*X221701D01*
X222902Y494500D02*X223402Y494000D01*
X222902Y497500D02*Y494500D01*
Y497500D02*X223402Y498000D01*
X224402D01*
X224902Y497500D01*
Y494500D01*
X224402Y494000D02*X224902Y494500D01*
X223402Y494000D02*X224402D01*
X222902Y495000D02*X224902Y497000D01*
X226103Y498000D02*X228103D01*
X226103D02*Y496000D01*
X226603Y496500D01*
X227603D01*
X228103Y496000D01*
Y494500D01*
X227603Y494000D02*X228103Y494500D01*
X226603Y494000D02*X227603D01*
X226103Y494500D02*X226603Y494000D01*
X195000Y541900D02*X197000D01*
X197500Y541400D01*
Y540400D01*
X197000Y539900D02*X197500Y540400D01*
X195500Y539900D02*X197000D01*
X195500Y541900D02*Y537900D01*
Y539900D02*X197500Y537900D01*
X198701Y541400D02*X199201Y541900D01*
X200701D01*
X201201Y541400D01*
Y540400D01*
X198701Y537900D02*X201201Y540400D01*
X198701Y537900D02*X201201D01*
X202902D02*X203902D01*
X203402Y541900D02*Y537900D01*
X202402Y540900D02*X203402Y541900D01*
X205103D02*X207103D01*
X205103D02*Y539900D01*
X205603Y540400D01*
X206603D01*
X207103Y539900D01*
Y538400D01*
X206603Y537900D02*X207103Y538400D01*
X205603Y537900D02*X206603D01*
X205103Y538400D02*X205603Y537900D01*
X195000Y518400D02*X197000D01*
X197500Y517900D01*
Y516900D01*
X197000Y516400D02*X197500Y516900D01*
X195500Y516400D02*X197000D01*
X195500Y518400D02*Y514400D01*
Y516400D02*X197500Y514400D01*
X198701Y517900D02*X199201Y518400D01*
X200701D01*
X201201Y517900D01*
Y516900D01*
X198701Y514400D02*X201201Y516900D01*
X198701Y514400D02*X201201D01*
X202902D02*X203902D01*
X203402Y518400D02*Y514400D01*
X202402Y517400D02*X203402Y518400D01*
X205103Y516400D02*X207103Y518400D01*
X205103Y516400D02*X207603D01*
X207103Y518400D02*Y514400D01*
X195000Y568900D02*X197000D01*
X197500Y568400D01*
Y567400D01*
X197000Y566900D02*X197500Y567400D01*
X195500Y566900D02*X197000D01*
X195500Y568900D02*Y564900D01*
Y566900D02*X197500Y564900D01*
X198701Y568400D02*X199201Y568900D01*
X200701D01*
X201201Y568400D01*
Y567400D01*
X198701Y564900D02*X201201Y567400D01*
X198701Y564900D02*X201201D01*
X202902D02*X203902D01*
X203402Y568900D02*Y564900D01*
X202402Y567900D02*X203402Y568900D01*
X205103Y568400D02*X205603Y568900D01*
X206603D01*
X207103Y568400D01*
Y565400D01*
X206603Y564900D02*X207103Y565400D01*
X205603Y564900D02*X206603D01*
X205103Y565400D02*X205603Y564900D01*
Y566900D02*X207103D01*
X216500Y433000D02*Y429500D01*
X217000Y429000D01*
X218000D01*
X218500Y429500D01*
Y433000D02*Y429500D01*
X219701Y432500D02*X220201Y433000D01*
X221701D01*
X222201Y432500D01*
Y431500D01*
X219701Y429000D02*X222201Y431500D01*
X219701Y429000D02*X222201D01*
X223402Y429500D02*X223902Y429000D01*
X223402Y432500D02*Y429500D01*
Y432500D02*X223902Y433000D01*
X224902D01*
X225402Y432500D01*
Y429500D01*
X224902Y429000D02*X225402Y429500D01*
X223902Y429000D02*X224902D01*
X223402Y430000D02*X225402Y432000D01*
X226603Y429500D02*X227103Y429000D01*
X226603Y432500D02*Y429500D01*
Y432500D02*X227103Y433000D01*
X228103D01*
X228603Y432500D01*
Y429500D01*
X228103Y429000D02*X228603Y429500D01*
X227103Y429000D02*X228103D01*
X226603Y430000D02*X228603Y432000D01*
X108000Y568400D02*X110000D01*
X110500Y567900D01*
Y566900D01*
X110000Y566400D02*X110500Y566900D01*
X108500Y566400D02*X110000D01*
X108500Y568400D02*Y564400D01*
Y566400D02*X110500Y564400D01*
X111701Y567900D02*X112201Y568400D01*
X113701D01*
X114201Y567900D01*
Y566900D01*
X111701Y564400D02*X114201Y566900D01*
X111701Y564400D02*X114201D01*
X115902D02*X116902D01*
X116402Y568400D02*Y564400D01*
X115402Y567400D02*X116402Y568400D01*
X118103Y567900D02*X118603Y568400D01*
X120103D01*
X120603Y567900D01*
Y566900D01*
X118103Y564400D02*X120603Y566900D01*
X118103Y564400D02*X120603D01*
X107500Y518400D02*X109500D01*
X110000Y517900D01*
Y516900D01*
X109500Y516400D02*X110000Y516900D01*
X108000Y516400D02*X109500D01*
X108000Y518400D02*Y514400D01*
Y516400D02*X110000Y514400D01*
X111201Y517900D02*X111701Y518400D01*
X113201D01*
X113701Y517900D01*
Y516900D01*
X111201Y514400D02*X113701Y516900D01*
X111201Y514400D02*X113701D01*
X115402D02*X116402D01*
X115902Y518400D02*Y514400D01*
X114902Y517400D02*X115902Y518400D01*
X118103Y514400D02*X119103D01*
X118603Y518400D02*Y514400D01*
X117603Y517400D02*X118603Y518400D01*
X108000Y541900D02*X110000D01*
X110500Y541400D01*
Y540400D01*
X110000Y539900D02*X110500Y540400D01*
X108500Y539900D02*X110000D01*
X108500Y541900D02*Y537900D01*
Y539900D02*X110500Y537900D01*
X111701Y541400D02*X112201Y541900D01*
X113701D01*
X114201Y541400D01*
Y540400D01*
X111701Y537900D02*X114201Y540400D01*
X111701Y537900D02*X114201D01*
X115902D02*X116902D01*
X116402Y541900D02*Y537900D01*
X115402Y540900D02*X116402Y541900D01*
X118103Y537900D02*X120603Y540400D01*
Y541900D02*Y540400D01*
X118103Y541900D02*X120603D01*
X129500Y433000D02*Y429500D01*
X130000Y429000D01*
X131000D01*
X131500Y429500D01*
Y433000D02*Y429500D01*
X132701Y432500D02*X133201Y433000D01*
X134701D01*
X135201Y432500D01*
Y431500D01*
X132701Y429000D02*X135201Y431500D01*
X132701Y429000D02*X135201D01*
X136402Y429500D02*X136902Y429000D01*
X136402Y432500D02*Y429500D01*
Y432500D02*X136902Y433000D01*
X137902D01*
X138402Y432500D01*
Y429500D01*
X137902Y429000D02*X138402Y429500D01*
X136902Y429000D02*X137902D01*
X136402Y430000D02*X138402Y432000D01*
X140103Y429000D02*X141103D01*
X140603Y433000D02*Y429000D01*
X139603Y432000D02*X140603Y433000D01*
X219500Y207000D02*Y204000D01*
Y207000D02*X220000Y207500D01*
X221000D01*
X221500Y207000D01*
Y204000D01*
X221000Y203500D02*X221500Y204000D01*
X220000Y203500D02*X221000D01*
X219500Y204000D02*X220000Y203500D01*
X220500Y204500D02*X221500Y203500D01*
X222701Y207000D02*X223201Y207500D01*
X224701D01*
X225201Y207000D01*
Y206000D01*
X222701Y203500D02*X225201Y206000D01*
X222701Y203500D02*X225201D01*
X226402Y204000D02*X226902Y203500D01*
X226402Y207000D02*Y204000D01*
Y207000D02*X226902Y207500D01*
X227902D01*
X228402Y207000D01*
Y204000D01*
X227902Y203500D02*X228402Y204000D01*
X226902Y203500D02*X227902D01*
X226402Y204500D02*X228402Y206500D01*
X229603Y207000D02*X230103Y207500D01*
X231603D01*
X232103Y207000D01*
Y206000D01*
X229603Y203500D02*X232103Y206000D01*
X229603Y203500D02*X232103D01*
X161600Y194500D02*Y192500D01*
Y194500D02*X162100Y195000D01*
X163100D01*
X163600Y194500D02*X163100Y195000D01*
X163600Y194500D02*Y193000D01*
X161600D02*X165600D01*
X163600D02*X165600Y195000D01*
X162100Y196201D02*X161600Y196701D01*
Y198201D02*Y196701D01*
Y198201D02*X162100Y198701D01*
X163100D01*
X165600Y196201D02*X163100Y198701D01*
X165600D02*Y196201D01*
X162100Y199902D02*X161600Y200402D01*
Y201402D02*Y200402D01*
Y201402D02*X162100Y201902D01*
X165100D01*
X165600Y201402D02*X165100Y201902D01*
X165600Y201402D02*Y200402D01*
X165100Y199902D02*X165600Y200402D01*
X163600Y201902D02*Y200402D01*
X162100Y203103D02*X161600Y203603D01*
Y204603D02*Y203603D01*
Y204603D02*X162100Y205103D01*
X165100D01*
X165600Y204603D02*X165100Y205103D01*
X165600Y204603D02*Y203603D01*
X165100Y203103D02*X165600Y203603D01*
X163600Y205103D02*Y203603D01*
X221000Y247000D02*Y245000D01*
Y247000D02*X221500Y247500D01*
X222500D01*
X223000Y247000D02*X222500Y247500D01*
X223000Y247000D02*Y245500D01*
X221000D02*X225000D01*
X223000D02*X225000Y247500D01*
X221500Y248701D02*X221000Y249201D01*
Y250701D02*Y249201D01*
Y250701D02*X221500Y251201D01*
X222500D01*
X225000Y248701D02*X222500Y251201D01*
X225000D02*Y248701D01*
X221500Y252402D02*X221000Y252902D01*
Y253902D02*Y252902D01*
Y253902D02*X221500Y254402D01*
X224500D01*
X225000Y253902D02*X224500Y254402D01*
X225000Y253902D02*Y252902D01*
X224500Y252402D02*X225000Y252902D01*
X223000Y254402D02*Y252902D01*
X224500Y255603D02*X225000Y256103D01*
X221500Y255603D02*X224500D01*
X221500D02*X221000Y256103D01*
Y257103D02*Y256103D01*
Y257103D02*X221500Y257603D01*
X224500D01*
X225000Y257103D02*X224500Y257603D01*
X225000Y257103D02*Y256103D01*
X224000Y255603D02*X222000Y257603D01*
X188500Y253400D02*X190500D01*
X191000Y252900D01*
Y251900D01*
X190500Y251400D02*X191000Y251900D01*
X189000Y251400D02*X190500D01*
X189000Y253400D02*Y249400D01*
Y251400D02*X191000Y249400D01*
X192201Y252900D02*X192701Y253400D01*
X194201D01*
X194701Y252900D01*
Y251900D01*
X192201Y249400D02*X194701Y251900D01*
X192201Y249400D02*X194701D01*
X195902Y252900D02*X196402Y253400D01*
X197902D01*
X198402Y252900D01*
Y251900D01*
X195902Y249400D02*X198402Y251900D01*
X195902Y249400D02*X198402D01*
X199603Y253400D02*X201603D01*
X199603D02*Y251400D01*
X200103Y251900D01*
X201103D01*
X201603Y251400D01*
Y249900D01*
X201103Y249400D02*X201603Y249900D01*
X200103Y249400D02*X201103D01*
X199603Y249900D02*X200103Y249400D01*
X189000Y238400D02*X191000D01*
X191500Y237900D01*
Y236900D01*
X191000Y236400D02*X191500Y236900D01*
X189500Y236400D02*X191000D01*
X189500Y238400D02*Y234400D01*
Y236400D02*X191500Y234400D01*
X192701Y237900D02*X193201Y238400D01*
X194701D01*
X195201Y237900D01*
Y236900D01*
X192701Y234400D02*X195201Y236900D01*
X192701Y234400D02*X195201D01*
X196402Y237900D02*X196902Y238400D01*
X198402D01*
X198902Y237900D01*
Y236900D01*
X196402Y234400D02*X198902Y236900D01*
X196402Y234400D02*X198902D01*
X201603Y238400D02*X202103Y237900D01*
X200603Y238400D02*X201603D01*
X200103Y237900D02*X200603Y238400D01*
X200103Y237900D02*Y234900D01*
X200603Y234400D01*
X201603Y236400D02*X202103Y235900D01*
X200103Y236400D02*X201603D01*
X200603Y234400D02*X201603D01*
X202103Y234900D01*
Y235900D02*Y234900D01*
X187000Y223900D02*X189000D01*
X189500Y223400D01*
Y222400D01*
X189000Y221900D02*X189500Y222400D01*
X187500Y221900D02*X189000D01*
X187500Y223900D02*Y219900D01*
Y221900D02*X189500Y219900D01*
X190701Y223400D02*X191201Y223900D01*
X192701D01*
X193201Y223400D01*
Y222400D01*
X190701Y219900D02*X193201Y222400D01*
X190701Y219900D02*X193201D01*
X194402Y223400D02*X194902Y223900D01*
X196402D01*
X196902Y223400D01*
Y222400D01*
X194402Y219900D02*X196902Y222400D01*
X194402Y219900D02*X196902D01*
X198103D02*X200603Y222400D01*
Y223900D02*Y222400D01*
X198103Y223900D02*X200603D01*
X183500Y270900D02*X185500D01*
X186000Y270400D01*
Y269400D01*
X185500Y268900D02*X186000Y269400D01*
X184000Y268900D02*X185500D01*
X184000Y270900D02*Y266900D01*
Y268900D02*X186000Y266900D01*
X187201Y270400D02*X187701Y270900D01*
X189201D01*
X189701Y270400D01*
Y269400D01*
X187201Y266900D02*X189701Y269400D01*
X187201Y266900D02*X189701D01*
X190902Y270400D02*X191402Y270900D01*
X192902D01*
X193402Y270400D01*
Y269400D01*
X190902Y266900D02*X193402Y269400D01*
X190902Y266900D02*X193402D01*
X194603Y268900D02*X196603Y270900D01*
X194603Y268900D02*X197103D01*
X196603Y270900D02*Y266900D01*
X161000Y135000D02*X165000D01*
X161000Y136500D02*X161500Y137000D01*
X164500D01*
X165000Y136500D02*X164500Y137000D01*
X165000Y136500D02*Y134500D01*
X161000Y136500D02*Y134500D01*
X161500Y138201D02*X161000Y138701D01*
Y140201D02*Y138701D01*
Y140201D02*X161500Y140701D01*
X162500D01*
X165000Y138201D02*X162500Y140701D01*
X165000D02*Y138201D01*
X164500Y141902D02*X165000Y142402D01*
X161500Y141902D02*X164500D01*
X161500D02*X161000Y142402D01*
Y143402D02*Y142402D01*
Y143402D02*X161500Y143902D01*
X164500D01*
X165000Y143402D02*X164500Y143902D01*
X165000Y143402D02*Y142402D01*
X164000Y141902D02*X162000Y143902D01*
X161000Y147103D02*Y145103D01*
X163000D01*
X162500Y145603D01*
Y146603D02*Y145603D01*
Y146603D02*X163000Y147103D01*
X164500D01*
X165000Y146603D02*X164500Y147103D01*
X165000Y146603D02*Y145603D01*
X164500Y145103D02*X165000Y145603D01*
X146500Y207500D02*Y204500D01*
Y207500D02*X147000Y208000D01*
X148000D01*
X148500Y207500D01*
Y204500D01*
X148000Y204000D02*X148500Y204500D01*
X147000Y204000D02*X148000D01*
X146500Y204500D02*X147000Y204000D01*
X147500Y205000D02*X148500Y204000D01*
X149701Y207500D02*X150201Y208000D01*
X151701D01*
X152201Y207500D01*
Y206500D01*
X149701Y204000D02*X152201Y206500D01*
X149701Y204000D02*X152201D01*
X153402Y204500D02*X153902Y204000D01*
X153402Y207500D02*Y204500D01*
Y207500D02*X153902Y208000D01*
X154902D01*
X155402Y207500D01*
Y204500D01*
X154902Y204000D02*X155402Y204500D01*
X153902Y204000D02*X154902D01*
X153402Y205000D02*X155402Y207000D01*
X157103Y204000D02*X158103D01*
X157603Y208000D02*Y204000D01*
X156603Y207000D02*X157603Y208000D01*
X139500Y265000D02*X141000D01*
X139000Y265500D02*X139500Y265000D01*
X139000Y268500D02*Y265500D01*
Y268500D02*X139500Y269000D01*
X141000D01*
X142201Y268500D02*X142701Y269000D01*
X144201D01*
X144701Y268500D01*
Y267500D01*
X142201Y265000D02*X144701Y267500D01*
X142201Y265000D02*X144701D01*
X145902Y265500D02*X146402Y265000D01*
X145902Y268500D02*Y265500D01*
Y268500D02*X146402Y269000D01*
X147402D01*
X147902Y268500D01*
Y265500D01*
X147402Y265000D02*X147902Y265500D01*
X146402Y265000D02*X147402D01*
X145902Y266000D02*X147902Y268000D01*
X149103Y265000D02*X151103Y267000D01*
Y268500D02*Y267000D01*
X150603Y269000D02*X151103Y268500D01*
X149603Y269000D02*X150603D01*
X149103Y268500D02*X149603Y269000D01*
X149103Y268500D02*Y267500D01*
X149603Y267000D01*
X151103D01*
X139500Y235000D02*X141000D01*
X139000Y235500D02*X139500Y235000D01*
X139000Y238500D02*Y235500D01*
Y238500D02*X139500Y239000D01*
X141000D01*
X142201Y238500D02*X142701Y239000D01*
X144201D01*
X144701Y238500D01*
Y237500D01*
X142201Y235000D02*X144701Y237500D01*
X142201Y235000D02*X144701D01*
X146402D02*X147402D01*
X146902Y239000D02*Y235000D01*
X145902Y238000D02*X146902Y239000D01*
X149103Y235000D02*X150103D01*
X149603Y239000D02*Y235000D01*
X148603Y238000D02*X149603Y239000D01*
X139500Y250000D02*X141000D01*
X139000Y250500D02*X139500Y250000D01*
X139000Y253500D02*Y250500D01*
Y253500D02*X139500Y254000D01*
X141000D01*
X142201Y253500D02*X142701Y254000D01*
X144201D01*
X144701Y253500D01*
Y252500D01*
X142201Y250000D02*X144701Y252500D01*
X142201Y250000D02*X144701D01*
X146402D02*X147402D01*
X146902Y254000D02*Y250000D01*
X145902Y253000D02*X146902Y254000D01*
X148603Y250500D02*X149103Y250000D01*
X148603Y253500D02*Y250500D01*
Y253500D02*X149103Y254000D01*
X150103D01*
X150603Y253500D01*
Y250500D01*
X150103Y250000D02*X150603Y250500D01*
X149103Y250000D02*X150103D01*
X148603Y251000D02*X150603Y253000D01*
X57000Y275000D02*X58500D01*
X56500Y275500D02*X57000Y275000D01*
X56500Y278500D02*Y275500D01*
Y278500D02*X57000Y279000D01*
X58500D01*
X59701Y278500D02*Y275500D01*
Y278500D02*X60201Y279000D01*
X61201D01*
X61701Y278500D01*
Y275500D01*
X61201Y275000D02*X61701Y275500D01*
X60201Y275000D02*X61201D01*
X59701Y275500D02*X60201Y275000D01*
X62902Y279000D02*Y275000D01*
Y279000D02*Y278500D01*
X65402Y276000D01*
Y279000D02*Y275000D01*
X66603Y279000D02*Y275000D01*
Y279000D02*Y278500D01*
X69103Y276000D01*
Y279000D02*Y275000D01*
X70304D02*X72304D01*
X74005D02*X75505D01*
X73505Y275500D02*X74005Y275000D01*
X73505Y278500D02*Y275500D01*
Y278500D02*X74005Y279000D01*
X75505D01*
X76706D02*Y275000D01*
X79206Y279000D02*Y275000D01*
X76706Y277000D02*X79206D01*
X80407Y278500D02*Y275000D01*
Y278500D02*X80907Y279000D01*
X82407D01*
X82907Y278500D01*
Y275000D01*
X80407Y277000D02*X82907D01*
X84108Y279000D02*X85108D01*
X84608D02*Y275000D01*
X84108D02*X85108D01*
X86309Y279000D02*Y275000D01*
Y279000D02*Y278500D01*
X88809Y276000D01*
Y279000D02*Y275000D01*
X90010D02*X92010D01*
X93211Y279000D02*Y275000D01*
Y279000D02*Y278500D01*
X95711Y276000D01*
Y279000D02*Y275000D01*
X96912Y277000D02*X98412D01*
X96912Y275000D02*X98912D01*
X96912Y279000D02*Y275000D01*
Y279000D02*X98912D01*
X100113D02*Y278500D01*
X102613Y276000D01*
Y275000D01*
X100113Y276000D02*Y275000D01*
Y276000D02*X102613Y278500D01*
Y279000D02*Y278500D01*
X103814Y279000D02*X105814D01*
X104814D02*Y275000D01*
X131500Y276500D02*X133000D01*
X131000Y277000D02*X131500Y276500D01*
X131000Y280000D02*Y277000D01*
Y280000D02*X131500Y280500D01*
X133000D01*
X134201Y280000D02*Y277000D01*
Y280000D02*X134701Y280500D01*
X135701D01*
X136201Y280000D01*
Y277000D01*
X135701Y276500D02*X136201Y277000D01*
X134701Y276500D02*X135701D01*
X134201Y277000D02*X134701Y276500D01*
X137402Y280500D02*Y276500D01*
Y280500D02*Y280000D01*
X139902Y277500D01*
Y280500D02*Y276500D01*
X141103Y280500D02*Y276500D01*
Y280500D02*Y280000D01*
X143603Y277500D01*
Y280500D02*Y276500D01*
X144804D02*X146804D01*
X148505Y280500D02*Y276500D01*
X148005Y280500D02*X150005D01*
X150505Y280000D01*
Y279000D01*
X150005Y278500D02*X150505Y279000D01*
X148505Y278500D02*X150005D01*
X151706Y280000D02*Y277000D01*
Y280000D02*X152206Y280500D01*
X153206D01*
X153706Y280000D01*
Y277000D01*
X153206Y276500D02*X153706Y277000D01*
X152206Y276500D02*X153206D01*
X151706Y277000D02*X152206Y276500D01*
X154907Y280500D02*Y276500D01*
X156407Y278000D01*
X157907Y276500D01*
Y280500D02*Y276500D01*
X159108Y278500D02*X160608D01*
X159108Y276500D02*X161108D01*
X159108Y280500D02*Y276500D01*
Y280500D02*X161108D01*
X162309D02*X164309D01*
X164809Y280000D01*
Y279000D01*
X164309Y278500D02*X164809Y279000D01*
X162809Y278500D02*X164309D01*
X162809Y280500D02*Y276500D01*
Y278500D02*X164809Y276500D01*
X166010D02*X168010D01*
X169211Y280500D02*Y276500D01*
Y280500D02*Y280000D01*
X171711Y277500D01*
Y280500D02*Y276500D01*
X172912Y278500D02*X174412D01*
X172912Y276500D02*X174912D01*
X172912Y280500D02*Y276500D01*
Y280500D02*X174912D01*
X176113D02*Y280000D01*
X178613Y277500D01*
Y276500D01*
X176113Y277500D02*Y276500D01*
Y277500D02*X178613Y280000D01*
Y280500D02*Y280000D01*
X179814Y280500D02*X181814D01*
X180814D02*Y276500D01*
X98000Y223500D02*Y219500D01*
X99500Y223500D02*X100000Y223000D01*
Y220000D01*
X99500Y219500D02*X100000Y220000D01*
X97500Y219500D02*X99500D01*
X97500Y223500D02*X99500D01*
X101201Y223000D02*X101701Y223500D01*
X103201D01*
X103701Y223000D01*
Y222000D01*
X101201Y219500D02*X103701Y222000D01*
X101201Y219500D02*X103701D01*
X104902Y220000D02*X105402Y219500D01*
X104902Y223000D02*Y220000D01*
Y223000D02*X105402Y223500D01*
X106402D01*
X106902Y223000D01*
Y220000D01*
X106402Y219500D02*X106902Y220000D01*
X105402Y219500D02*X106402D01*
X104902Y220500D02*X106902Y222500D01*
X108103Y221500D02*X110103Y223500D01*
X108103Y221500D02*X110603D01*
X110103Y223500D02*Y219500D01*
X139500Y220000D02*X141000D01*
X139000Y220500D02*X139500Y220000D01*
X139000Y223500D02*Y220500D01*
Y223500D02*X139500Y224000D01*
X141000D01*
X142201Y223500D02*X142701Y224000D01*
X144201D01*
X144701Y223500D01*
Y222500D01*
X142201Y220000D02*X144701Y222500D01*
X142201Y220000D02*X144701D01*
X146402D02*X147402D01*
X146902Y224000D02*Y220000D01*
X145902Y223000D02*X146902Y224000D01*
X148603Y223500D02*X149103Y224000D01*
X150603D01*
X151103Y223500D01*
Y222500D01*
X148603Y220000D02*X151103Y222500D01*
X148603Y220000D02*X151103D01*
X99000Y238000D02*Y234000D01*
X100500Y238000D02*X101000Y237500D01*
Y234500D01*
X100500Y234000D02*X101000Y234500D01*
X98500Y234000D02*X100500D01*
X98500Y238000D02*X100500D01*
X102201Y237500D02*X102701Y238000D01*
X104201D01*
X104701Y237500D01*
Y236500D01*
X102201Y234000D02*X104701Y236500D01*
X102201Y234000D02*X104701D01*
X105902Y234500D02*X106402Y234000D01*
X105902Y237500D02*Y234500D01*
Y237500D02*X106402Y238000D01*
X107402D01*
X107902Y237500D01*
Y234500D01*
X107402Y234000D02*X107902Y234500D01*
X106402Y234000D02*X107402D01*
X105902Y235000D02*X107902Y237000D01*
X109103Y237500D02*X109603Y238000D01*
X110603D01*
X111103Y237500D01*
Y234500D01*
X110603Y234000D02*X111103Y234500D01*
X109603Y234000D02*X110603D01*
X109103Y234500D02*X109603Y234000D01*
Y236000D02*X111103D01*
X98500Y252500D02*Y248500D01*
X100000Y252500D02*X100500Y252000D01*
Y249000D01*
X100000Y248500D02*X100500Y249000D01*
X98000Y248500D02*X100000D01*
X98000Y252500D02*X100000D01*
X101701Y252000D02*X102201Y252500D01*
X103701D01*
X104201Y252000D01*
Y251000D01*
X101701Y248500D02*X104201Y251000D01*
X101701Y248500D02*X104201D01*
X105402Y249000D02*X105902Y248500D01*
X105402Y252000D02*Y249000D01*
Y252000D02*X105902Y252500D01*
X106902D01*
X107402Y252000D01*
Y249000D01*
X106902Y248500D02*X107402Y249000D01*
X105902Y248500D02*X106902D01*
X105402Y249500D02*X107402Y251500D01*
X108603Y252000D02*X109103Y252500D01*
X110603D01*
X111103Y252000D01*
Y251000D01*
X108603Y248500D02*X111103Y251000D01*
X108603Y248500D02*X111103D01*
X98500Y267500D02*Y263500D01*
X100000Y267500D02*X100500Y267000D01*
Y264000D01*
X100000Y263500D02*X100500Y264000D01*
X98000Y263500D02*X100000D01*
X98000Y267500D02*X100000D01*
X101701Y267000D02*X102201Y267500D01*
X103701D01*
X104201Y267000D01*
Y266000D01*
X101701Y263500D02*X104201Y266000D01*
X101701Y263500D02*X104201D01*
X105402Y264000D02*X105902Y263500D01*
X105402Y267000D02*Y264000D01*
Y267000D02*X105902Y267500D01*
X106902D01*
X107402Y267000D01*
Y264000D01*
X106902Y263500D02*X107402Y264000D01*
X105902Y263500D02*X106902D01*
X105402Y264500D02*X107402Y266500D01*
X109103Y263500D02*X110103D01*
X109603Y267500D02*Y263500D01*
X108603Y266500D02*X109603Y267500D01*
X60500Y269400D02*X62500D01*
X63000Y268900D01*
Y267900D01*
X62500Y267400D02*X63000Y267900D01*
X61000Y267400D02*X62500D01*
X61000Y269400D02*Y265400D01*
Y267400D02*X63000Y265400D01*
X64201Y268900D02*X64701Y269400D01*
X66201D01*
X66701Y268900D01*
Y267900D01*
X64201Y265400D02*X66701Y267900D01*
X64201Y265400D02*X66701D01*
X67902Y268900D02*X68402Y269400D01*
X69902D01*
X70402Y268900D01*
Y267900D01*
X67902Y265400D02*X70402Y267900D01*
X67902Y265400D02*X70402D01*
X71603Y265900D02*X72103Y265400D01*
X71603Y268900D02*Y265900D01*
Y268900D02*X72103Y269400D01*
X73103D01*
X73603Y268900D01*
Y265900D01*
X73103Y265400D02*X73603Y265900D01*
X72103Y265400D02*X73103D01*
X71603Y266400D02*X73603Y268400D01*
X35000Y253000D02*Y251000D01*
Y253000D02*X35500Y253500D01*
X36500D01*
X37000Y253000D02*X36500Y253500D01*
X37000Y253000D02*Y251500D01*
X35000D02*X39000D01*
X37000D02*X39000Y253500D01*
X35500Y254701D02*X35000Y255201D01*
Y256701D02*Y255201D01*
Y256701D02*X35500Y257201D01*
X36500D01*
X39000Y254701D02*X36500Y257201D01*
X39000D02*Y254701D01*
X35500Y258402D02*X35000Y258902D01*
Y260402D02*Y258902D01*
Y260402D02*X35500Y260902D01*
X36500D01*
X39000Y258402D02*X36500Y260902D01*
X39000D02*Y258402D01*
X38500Y262103D02*X39000Y262603D01*
X37500Y262103D02*X38500D01*
X37500D02*X37000Y262603D01*
Y263603D02*Y262603D01*
Y263603D02*X37500Y264103D01*
X38500D01*
X39000Y263603D02*X38500Y264103D01*
X39000Y263603D02*Y262603D01*
X36500Y262103D02*X37000Y262603D01*
X35500Y262103D02*X36500D01*
X35500D02*X35000Y262603D01*
Y263603D02*Y262603D01*
Y263603D02*X35500Y264103D01*
X36500D01*
X37000Y263603D02*X36500Y264103D01*
X38500Y158000D02*Y156500D01*
X38000Y156000D02*X38500Y156500D01*
X35000Y156000D02*X38000D01*
X35000D02*X34500Y156500D01*
Y158000D02*Y156500D01*
X35000Y159201D02*X38000D01*
X35000D02*X34500Y159701D01*
Y160701D02*Y159701D01*
Y160701D02*X35000Y161201D01*
X38000D01*
X38500Y160701D02*X38000Y161201D01*
X38500Y160701D02*Y159701D01*
X38000Y159201D02*X38500Y159701D01*
X34500Y162402D02*X38500D01*
X34500D02*X35000D01*
X37500Y164902D01*
X34500D02*X38500D01*
X34500Y166103D02*X38500D01*
X34500D02*X35000D01*
X37500Y168603D01*
X34500D02*X38500D01*
Y171804D02*Y169804D01*
X35000Y173005D02*X38000D01*
X35000D02*X34500Y173505D01*
Y174505D02*Y173505D01*
Y174505D02*X35000Y175005D01*
X38000D01*
X38500Y174505D02*X38000Y175005D01*
X38500Y174505D02*Y173505D01*
X38000Y173005D02*X38500Y173505D01*
X34500Y176206D02*X38000D01*
X38500Y176706D01*
Y177706D02*Y176706D01*
Y177706D02*X38000Y178206D01*
X34500D02*X38000D01*
X34500Y181407D02*Y179407D01*
Y180407D02*X38500D01*
X34500Y183108D02*X38500D01*
X34500Y184608D02*Y182608D01*
Y184608D02*X35000Y185108D01*
X36000D01*
X36500Y184608D02*X36000Y185108D01*
X36500Y184608D02*Y183108D01*
X34500Y186309D02*X38000D01*
X38500Y186809D01*
Y187809D02*Y186809D01*
Y187809D02*X38000Y188309D01*
X34500D02*X38000D01*
X34500Y191510D02*Y189510D01*
Y190510D02*X38500D01*
X60000Y254900D02*X62000D01*
X62500Y254400D01*
Y253400D01*
X62000Y252900D02*X62500Y253400D01*
X60500Y252900D02*X62000D01*
X60500Y254900D02*Y250900D01*
Y252900D02*X62500Y250900D01*
X63701Y254400D02*X64201Y254900D01*
X65701D01*
X66201Y254400D01*
Y253400D01*
X63701Y250900D02*X66201Y253400D01*
X63701Y250900D02*X66201D01*
X67402Y254400D02*X67902Y254900D01*
X69402D01*
X69902Y254400D01*
Y253400D01*
X67402Y250900D02*X69902Y253400D01*
X67402Y250900D02*X69902D01*
X71603D02*X72603D01*
X72103Y254900D02*Y250900D01*
X71103Y253900D02*X72103Y254900D01*
X57500Y223900D02*X59500D01*
X60000Y223400D01*
Y222400D01*
X59500Y221900D02*X60000Y222400D01*
X58000Y221900D02*X59500D01*
X58000Y223900D02*Y219900D01*
Y221900D02*X60000Y219900D01*
X61201Y223400D02*X61701Y223900D01*
X63201D01*
X63701Y223400D01*
Y222400D01*
X61201Y219900D02*X63701Y222400D01*
X61201Y219900D02*X63701D01*
X64902Y223400D02*X65402Y223900D01*
X66902D01*
X67402Y223400D01*
Y222400D01*
X64902Y219900D02*X67402Y222400D01*
X64902Y219900D02*X67402D01*
X68603Y223400D02*X69103Y223900D01*
X70103D01*
X70603Y223400D01*
Y220400D01*
X70103Y219900D02*X70603Y220400D01*
X69103Y219900D02*X70103D01*
X68603Y220400D02*X69103Y219900D01*
Y221900D02*X70603D01*
X58000Y239400D02*X60000D01*
X60500Y238900D01*
Y237900D01*
X60000Y237400D02*X60500Y237900D01*
X58500Y237400D02*X60000D01*
X58500Y239400D02*Y235400D01*
Y237400D02*X60500Y235400D01*
X61701Y238900D02*X62201Y239400D01*
X63701D01*
X64201Y238900D01*
Y237900D01*
X61701Y235400D02*X64201Y237900D01*
X61701Y235400D02*X64201D01*
X65402Y238900D02*X65902Y239400D01*
X67402D01*
X67902Y238900D01*
Y237900D01*
X65402Y235400D02*X67902Y237900D01*
X65402Y235400D02*X67902D01*
X69103Y238900D02*X69603Y239400D01*
X71103D01*
X71603Y238900D01*
Y237900D01*
X69103Y235400D02*X71603Y237900D01*
X69103Y235400D02*X71603D01*
X60500Y202500D02*X62000D01*
X60000Y203000D02*X60500Y202500D01*
X60000Y206000D02*Y203000D01*
Y206000D02*X60500Y206500D01*
X62000D01*
X63201Y206000D02*X63701Y206500D01*
X65201D01*
X65701Y206000D01*
Y205000D01*
X63201Y202500D02*X65701Y205000D01*
X63201Y202500D02*X65701D01*
X66902Y203000D02*X67402Y202500D01*
X66902Y206000D02*Y203000D01*
Y206000D02*X67402Y206500D01*
X68402D01*
X68902Y206000D01*
Y203000D01*
X68402Y202500D02*X68902Y203000D01*
X67402Y202500D02*X68402D01*
X66902Y203500D02*X68902Y205500D01*
X70103Y202500D02*X72603Y205000D01*
Y206500D02*Y205000D01*
X70103Y206500D02*X72603D01*
X83100Y190000D02*Y188000D01*
Y190000D02*X83600Y190500D01*
X84600D01*
X85100Y190000D02*X84600Y190500D01*
X85100Y190000D02*Y188500D01*
X83100D02*X87100D01*
X85100D02*X87100Y190500D01*
X83600Y191701D02*X83100Y192201D01*
Y193701D02*Y192201D01*
Y193701D02*X83600Y194201D01*
X84600D01*
X87100Y191701D02*X84600Y194201D01*
X87100D02*Y191701D01*
Y196902D02*Y195902D01*
X83100Y196402D02*X87100D01*
X84100Y195402D02*X83100Y196402D01*
X86600Y198103D02*X87100Y198603D01*
X85600Y198103D02*X86600D01*
X85600D02*X85100Y198603D01*
Y199603D02*Y198603D01*
Y199603D02*X85600Y200103D01*
X86600D01*
X87100Y199603D02*X86600Y200103D01*
X87100Y199603D02*Y198603D01*
X84600Y198103D02*X85100Y198603D01*
X83600Y198103D02*X84600D01*
X83600D02*X83100Y198603D01*
Y199603D02*Y198603D01*
Y199603D02*X83600Y200103D01*
X84600D01*
X85100Y199603D02*X84600Y200103D01*
X67100Y188500D02*Y186500D01*
Y188500D02*X67600Y189000D01*
X68600D01*
X69100Y188500D02*X68600Y189000D01*
X69100Y188500D02*Y187000D01*
X67100D02*X71100D01*
X69100D02*X71100Y189000D01*
X67600Y190201D02*X67100Y190701D01*
Y192201D02*Y190701D01*
Y192201D02*X67600Y192701D01*
X68600D01*
X71100Y190201D02*X68600Y192701D01*
X71100D02*Y190201D01*
Y195402D02*Y194402D01*
X67100Y194902D02*X71100D01*
X68100Y193902D02*X67100Y194902D01*
X71100Y196603D02*X69100Y198603D01*
X67600D02*X69100D01*
X67100Y198103D02*X67600Y198603D01*
X67100Y198103D02*Y197103D01*
X67600Y196603D02*X67100Y197103D01*
X67600Y196603D02*X68600D01*
X69100Y197103D01*
Y198603D02*Y197103D01*
X52500Y172500D02*X56500D01*
X52500Y174000D02*X53000Y174500D01*
X56000D01*
X56500Y174000D02*X56000Y174500D01*
X56500Y174000D02*Y172000D01*
X52500Y174000D02*Y172000D01*
X53000Y175701D02*X52500Y176201D01*
Y177701D02*Y176201D01*
Y177701D02*X53000Y178201D01*
X54000D01*
X56500Y175701D02*X54000Y178201D01*
X56500D02*Y175701D01*
X56000Y179402D02*X56500Y179902D01*
X53000Y179402D02*X56000D01*
X53000D02*X52500Y179902D01*
Y180902D02*Y179902D01*
Y180902D02*X53000Y181402D01*
X56000D01*
X56500Y180902D02*X56000Y181402D01*
X56500Y180902D02*Y179902D01*
X55500Y179402D02*X53500Y181402D01*
X56000Y182603D02*X56500Y183103D01*
X53000Y182603D02*X56000D01*
X53000D02*X52500Y183103D01*
Y184103D02*Y183103D01*
Y184103D02*X53000Y184603D01*
X56000D01*
X56500Y184103D02*X56000Y184603D01*
X56500Y184103D02*Y183103D01*
X55500Y182603D02*X53500Y184603D01*
G54D13*X230000Y152500D02*X178500D01*
G54D37*X246000Y153000D02*X257000D01*
X241500Y148500D02*Y137500D01*
X22500Y123000D02*Y626500D01*
X304500D02*Y123000D01*
X51500Y94000D02*X275500D01*
X87000Y136500D02*X93500D01*
X98000Y132000D02*Y116500D01*
X87000Y112000D02*X93500D01*
X82500Y132000D02*Y116500D01*
X51500Y655500D02*X275500D01*
X277500Y96000D02*G75*G02X302500Y121000I25000J0D01*G01*
X275500Y94000D02*G75*G03X277500Y96000I0J2000D01*G01*
X302500Y121000D02*G75*G03X304500Y123000I0J2000D01*G01*
X302500Y628500D02*G75*G02X277500Y653500I0J25000D01*G01*
G75*G03X275500Y655500I-2000J0D01*G01*
X304500Y626500D02*G75*G03X302500Y628500I-2000J0D01*G01*
X49500Y96000D02*G75*G03X51500Y94000I2000J0D01*G01*
X49500Y653500D02*G75*G02X24500Y628500I-25000J0D01*G01*
Y121000D02*G75*G02X49500Y96000I0J-25000D01*G01*
X51500Y655500D02*G75*G03X49500Y653500I0J-2000D01*G01*
X24500Y628500D02*G75*G03X22500Y626500I0J-2000D01*G01*
X241500Y148500D02*G75*G02X246000Y153000I4500J0D01*G01*
Y133000D02*G75*G02X241500Y137500I0J4500D01*G01*
X250500D02*G75*G02X246000Y133000I-4500J0D01*G01*
X257000Y153000D02*G75*G02X261500Y148500I0J-4500D01*G01*
G75*G02X257000Y144000I-4500J0D01*G01*
G75*G03X250500Y137500I0J-6500D01*G01*
X93500Y136500D02*G75*G02X98000Y132000I0J-4500D01*G01*
X82500D02*G75*G02X87000Y136500I4500J0D01*G01*
Y112000D02*G75*G02X82500Y116500I0J4500D01*G01*
X22500Y123000D02*G75*G03X24500Y121000I2000J0D01*G01*
X98000Y116500D02*G75*G02X93500Y112000I-4500J0D01*G01*
M02*
