G04 start of page 5 for group 9 idx 9 *
G04 Title: (unknown), box_meca *
G04 Creator: pcb 20091103 *
G04 CreationDate: Sun Jun 11 07:31:11 2023 UTC *
G04 For: bh *
G04 Format: Gerber/RS-274X *
G04 PCB-Dimensions: 370000 600000 *
G04 PCB-Coordinate-Origin: lower left *
%MOIN*%
%FSLAX25Y25*%
%LNGROUP9*%
%ADD11C,0.0200*%
%ADD15C,0.0100*%
%ADD17C,0.0550*%
%ADD18C,0.0650*%
%ADD19C,0.0600*%
%ADD20C,0.0720*%
%ADD21C,0.0500*%
%ADD22C,0.1500*%
%ADD23C,0.0900*%
%ADD24C,0.0800*%
%ADD25C,0.0360*%
%ADD26C,0.0410*%
%ADD27C,0.0300*%
%ADD28C,0.0430*%
%ADD29C,0.1220*%
%ADD30C,0.0280*%
%ADD31C,0.0420*%
%ADD32C,0.0380*%
%ADD33C,0.1300*%
%ADD34C,0.0350*%
%ADD35C,0.0060*%
%ADD36C,0.0102*%
G54D35*X336000Y505500D02*Y112000D01*
X331000Y505500D02*X341000D01*
X331000Y112000D02*X341000D01*
G54D15*X163000Y442500D02*G75*G02X153000Y452500I0J10000D01*G01*
G75*G02X163000Y462500I10000J0D01*G01*
X162998D02*G75*G02X173000Y452498I0J-10002D01*G01*
Y452499D02*G75*G02X163001Y442500I-9999J0D01*G01*
X250000D02*G75*G02X240000Y452500I0J10000D01*G01*
G75*G02X250000Y462500I10000J0D01*G01*
X249998D02*G75*G02X260000Y452498I0J-10002D01*G01*
Y452499D02*G75*G02X250001Y442500I-9999J0D01*G01*
X76000D02*G75*G02X66000Y452500I0J10000D01*G01*
G75*G02X76000Y462500I10000J0D01*G01*
X75998D02*G75*G02X86000Y452498I0J-10002D01*G01*
Y452499D02*G75*G02X76001Y442500I-9999J0D01*G01*
X76000Y492500D02*G75*G02X66000Y502500I0J10000D01*G01*
G75*G02X76000Y512500I10000J0D01*G01*
X75998D02*G75*G02X86000Y502498I0J-10002D01*G01*
Y502499D02*G75*G02X76001Y492500I-9999J0D01*G01*
X119500Y542500D02*G75*G02X109500Y552500I0J10000D01*G01*
G75*G02X119500Y562500I10000J0D01*G01*
X119498D02*G75*G02X129500Y552498I0J-10002D01*G01*
Y552499D02*G75*G02X119501Y542500I-9999J0D01*G01*
X250000Y492500D02*G75*G02X240000Y502500I0J10000D01*G01*
G75*G02X250000Y512500I10000J0D01*G01*
X249998D02*G75*G02X260000Y502498I0J-10002D01*G01*
Y502499D02*G75*G02X250001Y492500I-9999J0D01*G01*
X163000D02*G75*G02X153000Y502500I0J10000D01*G01*
G75*G02X163000Y512500I10000J0D01*G01*
X162998D02*G75*G02X173000Y502498I0J-10002D01*G01*
Y502499D02*G75*G02X163001Y492500I-9999J0D01*G01*
X206500Y542500D02*G75*G02X196500Y552500I0J10000D01*G01*
G75*G02X206500Y562500I10000J0D01*G01*
X206498D02*G75*G02X216500Y552498I0J-10002D01*G01*
Y552499D02*G75*G02X206501Y542500I-9999J0D01*G01*
G54D36*X333200Y311810D02*Y309270D01*
X323040Y310540D02*X333200D01*
X325580Y308000D02*X323040Y310540D01*
X331930Y314860D02*X333200Y316130D01*
X324310Y314860D02*X331930D01*
X324310D02*X323040Y316130D01*
Y318670D02*Y316130D01*
Y318670D02*X324310Y319940D01*
X331930D01*
X333200Y318670D02*X331930Y319940D01*
X333200Y318670D02*Y316130D01*
X330660Y314860D02*X325580Y319940D01*
X331930Y322991D02*X333200Y324261D01*
X324310Y322991D02*X331930D01*
X324310D02*X323040Y324261D01*
Y326801D02*Y324261D01*
Y326801D02*X324310Y328071D01*
X331930D01*
X333200Y326801D02*X331930Y328071D01*
X333200Y326801D02*Y324261D01*
X330660Y322991D02*X325580Y328071D01*
X329390Y332391D02*X333200D01*
X329390D02*X328120Y333661D01*
Y334931D02*Y333661D01*
Y334931D02*X329390Y336201D01*
X333200D01*
X329390D02*X328120Y337471D01*
Y338741D02*Y337471D01*
Y338741D02*X329390Y340011D01*
X333200D01*
X328120Y331121D02*X329390Y332391D01*
Y344332D02*X333200D01*
X329390D02*X328120Y345602D01*
Y346872D02*Y345602D01*
Y346872D02*X329390Y348142D01*
X333200D01*
X329390D02*X328120Y349412D01*
Y350682D02*Y349412D01*
Y350682D02*X329390Y351952D01*
X333200D01*
X328120Y343062D02*X329390Y344332D01*
G54D11*G36*
X228750Y493750D02*Y488250D01*
X234250D01*
Y493750D01*
X228750D01*
G37*
G54D17*X231500Y464000D03*
G54D11*G36*
X198250Y555750D02*Y549250D01*
X204750D01*
Y555750D01*
X198250D01*
G37*
G54D18*X211500Y552500D03*
G54D11*G36*
X241750Y505750D02*Y499250D01*
X248250D01*
Y505750D01*
X241750D01*
G37*
G54D18*X255000Y502500D03*
G54D11*G36*
X241750Y455750D02*Y449250D01*
X248250D01*
Y455750D01*
X241750D01*
G37*
G54D18*X255000Y452500D03*
G54D17*X181500Y491000D03*
Y440500D03*
G54D11*G36*
X178750Y466750D02*Y461250D01*
X184250D01*
Y466750D01*
X178750D01*
G37*
G36*
X141750Y516750D02*Y511250D01*
X147250D01*
Y516750D01*
X141750D01*
G37*
G54D17*X144500Y464000D03*
G54D11*G36*
X141750Y443250D02*Y437750D01*
X147250D01*
Y443250D01*
X141750D01*
G37*
G36*
Y493250D02*Y487750D01*
X147250D01*
Y493250D01*
X141750D01*
G37*
G54D17*X94500Y514000D03*
G54D11*G36*
X91750Y466750D02*Y461250D01*
X97250D01*
Y466750D01*
X91750D01*
G37*
G54D17*X94500Y440500D03*
Y490500D03*
G54D11*G36*
X111250Y555750D02*Y549250D01*
X117750D01*
Y555750D01*
X111250D01*
G37*
G54D18*X124500Y552500D03*
G54D11*G36*
X154750Y455750D02*Y449250D01*
X161250D01*
Y455750D01*
X154750D01*
G37*
G36*
Y505750D02*Y499250D01*
X161250D01*
Y505750D01*
X154750D01*
G37*
G54D18*X168000Y452500D03*
Y502500D03*
G54D11*G36*
X67750Y455750D02*Y449250D01*
X74250D01*
Y455750D01*
X67750D01*
G37*
G54D18*X81000Y452500D03*
G54D11*G36*
X67750Y505750D02*Y499250D01*
X74250D01*
Y505750D01*
X67750D01*
G37*
G54D18*X81000Y502500D03*
G54D19*X250000Y354000D03*
X240000D03*
X230000D03*
X220000D03*
X173000Y324000D03*
G54D11*G36*
X164900Y310100D02*Y302900D01*
X172100D01*
Y310100D01*
X164900D01*
G37*
G54D20*X158500Y306500D03*
X148500D03*
G54D19*X183000Y324000D03*
G54D11*G36*
X180250Y309250D02*Y303750D01*
X185750D01*
Y309250D01*
X180250D01*
G37*
G54D19*X193000Y324000D03*
Y354000D03*
X183000D03*
X173000D03*
X250000Y324000D03*
X260000D03*
X270000D03*
X280000D03*
G54D11*G36*
X217000Y327000D02*Y321000D01*
X223000D01*
Y327000D01*
X217000D01*
G37*
G54D19*X230000Y324000D03*
X240000D03*
X280000Y354000D03*
X270000D03*
X260000D03*
G54D11*G36*
X277000Y374500D02*Y368500D01*
X283000D01*
Y374500D01*
X277000D01*
G37*
G54D19*X270000Y371500D03*
G54D11*G36*
X130000Y327000D02*Y321000D01*
X136000D01*
Y327000D01*
X130000D01*
G37*
G54D19*X143000Y324000D03*
X153000D03*
X163000D03*
Y354000D03*
Y389000D03*
X173000D03*
X183000D03*
X153000Y354000D03*
Y389000D03*
X193000D03*
X240000D03*
Y419000D03*
X250000Y389000D03*
Y419000D03*
X260000Y389000D03*
Y419000D03*
X270000Y389000D03*
Y419000D03*
X280000Y389000D03*
Y419000D03*
G54D11*G36*
X228750Y443250D02*Y437750D01*
X234250D01*
Y443250D01*
X228750D01*
G37*
G36*
X217000Y392000D02*Y386000D01*
X223000D01*
Y392000D01*
X217000D01*
G37*
G54D19*X230000Y389000D03*
Y419000D03*
X220000D03*
X193000D03*
G54D11*G36*
X207000Y294500D02*Y288500D01*
X213000D01*
Y294500D01*
X207000D01*
G37*
G54D19*X220000Y291500D03*
G54D17*X233000Y306500D03*
G54D11*G36*
X227250Y279250D02*Y273750D01*
X232750D01*
Y279250D01*
X227250D01*
G37*
G54D17*X280000Y276500D03*
Y291500D03*
G54D11*G36*
X277000Y309500D02*Y303500D01*
X283000D01*
Y309500D01*
X277000D01*
G37*
G36*
X43000Y374500D02*Y368500D01*
X49000D01*
Y374500D01*
X43000D01*
G37*
G54D19*X56000Y371500D03*
G54D11*G36*
X43000Y392000D02*Y386000D01*
X49000D01*
Y392000D01*
X43000D01*
G37*
G36*
Y327000D02*Y321000D01*
X49000D01*
Y327000D01*
X43000D01*
G37*
G54D19*X46000Y354000D03*
G54D11*G36*
X43000Y309500D02*Y303500D01*
X49000D01*
Y309500D01*
X43000D01*
G37*
G54D19*X56000Y389000D03*
Y324000D03*
Y354000D03*
X66000Y389000D03*
Y324000D03*
Y354000D03*
G54D11*G36*
X53250Y264250D02*Y258750D01*
X58750D01*
Y264250D01*
X53250D01*
G37*
G36*
Y279250D02*Y273750D01*
X58750D01*
Y279250D01*
X53250D01*
G37*
G36*
Y294250D02*Y288750D01*
X58750D01*
Y294250D01*
X53250D01*
G37*
G54D19*X56000Y306500D03*
X143000Y354000D03*
Y389000D03*
Y419000D03*
X133000Y354000D03*
G54D11*G36*
X130000Y392000D02*Y386000D01*
X136000D01*
Y392000D01*
X130000D01*
G37*
G54D19*X133000Y419000D03*
X183000D03*
X173000D03*
X163000D03*
X153000D03*
X106000D03*
X86000Y354000D03*
X76000D03*
X96000Y419000D03*
X86000D03*
X76000D03*
X66000D03*
X56000D03*
X46000D03*
X76000Y389000D03*
X86000D03*
X96000D03*
X106000D03*
X76000Y324000D03*
X86000D03*
X96000D03*
X106000D03*
Y354000D03*
X96000D03*
G54D17*X106000Y261500D03*
G54D11*G36*
X130250Y264250D02*Y258750D01*
X135750D01*
Y264250D01*
X130250D01*
G37*
G54D17*X106000Y276500D03*
G54D11*G36*
X130250Y279250D02*Y273750D01*
X135750D01*
Y279250D01*
X130250D01*
G37*
G54D17*X183000Y276500D03*
X106000Y291500D03*
G54D11*G36*
X80250Y309250D02*Y303750D01*
X85750D01*
Y309250D01*
X80250D01*
G37*
G54D17*X133000Y306500D03*
G54D11*G36*
X130250Y294250D02*Y288750D01*
X135750D01*
Y294250D01*
X130250D01*
G37*
G54D17*X183000Y261500D03*
G54D11*G36*
X227250Y264250D02*Y258750D01*
X232750D01*
Y264250D01*
X227250D01*
G37*
G54D17*X280000Y261500D03*
G54D11*G36*
X207000Y264500D02*Y258500D01*
X213000D01*
Y264500D01*
X207000D01*
G37*
G54D19*X220000Y261500D03*
G54D11*G36*
X207000Y279500D02*Y273500D01*
X213000D01*
Y279500D01*
X207000D01*
G37*
G54D19*X220000Y276500D03*
G54D11*G36*
X227250Y294250D02*Y288750D01*
X232750D01*
Y294250D01*
X227250D01*
G37*
G54D17*X183000Y291500D03*
G54D19*X270000Y306500D03*
G54D11*G36*
X211000Y199500D02*Y193500D01*
X217000D01*
Y199500D01*
X211000D01*
G37*
G36*
X267000Y203500D02*Y197500D01*
X273000D01*
Y203500D01*
X267000D01*
G37*
G54D19*X280000Y200500D03*
X238000Y196500D03*
X248000D03*
X214000Y186500D03*
G54D11*G36*
X227250Y234250D02*Y228750D01*
X232750D01*
Y234250D01*
X227250D01*
G37*
G54D19*X214000Y186500D03*
G54D11*G36*
X227250Y249250D02*Y243750D01*
X232750D01*
Y249250D01*
X227250D01*
G37*
G36*
X277000Y219500D02*Y213500D01*
X283000D01*
Y219500D01*
X277000D01*
G37*
G54D19*X270000Y216500D03*
G54D17*X280000Y231500D03*
Y246500D03*
G54D11*G36*
X235000Y209500D02*Y203500D01*
X241000D01*
Y209500D01*
X235000D01*
G37*
G36*
X245000D02*Y203500D01*
X251000D01*
Y209500D01*
X245000D01*
G37*
G54D19*X206000Y221000D03*
X196000Y231000D03*
X206000D03*
X214000Y176500D03*
G54D17*X199000Y192000D03*
Y177000D03*
G54D19*X214000Y176500D03*
G54D17*X199000Y162000D03*
Y146500D03*
G54D19*X238000Y176500D03*
Y166500D03*
Y156500D03*
Y146500D03*
X214000Y166500D03*
Y156500D03*
G54D11*G36*
X211000Y149500D02*Y143500D01*
X217000D01*
Y149500D01*
X211000D01*
G37*
G54D19*X214000Y156500D03*
Y166500D03*
X248000D03*
Y156500D03*
Y146500D03*
G54D11*G36*
X166750Y136750D02*Y131250D01*
X172250D01*
Y136750D01*
X166750D01*
G37*
G54D17*X169500Y84000D03*
G54D11*G36*
X146250Y149250D02*Y143750D01*
X151750D01*
Y149250D01*
X146250D01*
G37*
G36*
X167000Y76500D02*Y71500D01*
X172000D01*
Y76500D01*
X167000D01*
G37*
G54D21*X169500Y44000D03*
G54D22*X209000Y53500D03*
G54D11*G36*
X214500Y125000D02*Y116000D01*
X223500D01*
Y125000D01*
X214500D01*
G37*
G54D23*X209000Y120500D03*
X199000D03*
G54D11*G36*
X249500Y127000D02*Y121000D01*
X255500D01*
Y127000D01*
X249500D01*
G37*
G54D19*X252500Y104000D03*
G54D24*X277500Y85500D03*
G54D19*X238000Y186500D03*
X248000D03*
Y176500D03*
G54D11*G36*
X267000Y184500D02*Y178500D01*
X273000D01*
Y184500D01*
X267000D01*
G37*
G54D19*X280000Y181500D03*
G54D11*G36*
X273500Y169500D02*Y161500D01*
X281500D01*
Y169500D01*
X273500D01*
G37*
G36*
X121000Y195000D02*Y189000D01*
X127000D01*
Y195000D01*
X121000D01*
G37*
G54D17*X109000Y192000D03*
Y177000D03*
G54D11*G36*
X121000Y180000D02*Y174000D01*
X127000D01*
Y180000D01*
X121000D01*
G37*
G54D19*X134000Y192000D03*
G54D11*G36*
X146250Y194750D02*Y189250D01*
X151750D01*
Y194750D01*
X146250D01*
G37*
G36*
Y179750D02*Y174250D01*
X151750D01*
Y179750D01*
X146250D01*
G37*
G36*
Y164750D02*Y159250D01*
X151750D01*
Y164750D01*
X146250D01*
G37*
G54D19*X134000Y162000D03*
Y177000D03*
G54D17*X109000Y147000D03*
G54D11*G36*
X121000Y150000D02*Y144000D01*
X127000D01*
Y150000D01*
X121000D01*
G37*
G54D19*X134000Y147000D03*
G54D17*X109000Y162000D03*
G54D11*G36*
X121000Y165000D02*Y159000D01*
X127000D01*
Y165000D01*
X121000D01*
G37*
G36*
X135500Y125500D02*Y116500D01*
X144500D01*
Y125500D01*
X135500D01*
G37*
G54D23*X130000Y121000D03*
X120000D03*
G54D22*X130000Y54000D03*
G54D11*G36*
X42000Y114500D02*Y108500D01*
X48000D01*
Y114500D01*
X42000D01*
G37*
G54D19*X45000Y101500D03*
Y91500D03*
G54D11*G36*
X60000Y94000D02*Y89000D01*
X65000D01*
Y94000D01*
X60000D01*
G37*
G54D21*X62500Y121500D03*
G54D11*G36*
X53000Y234000D02*Y228000D01*
X59000D01*
Y234000D01*
X53000D01*
G37*
G36*
Y224000D02*Y218000D01*
X59000D01*
Y224000D01*
X53000D01*
G37*
G54D19*X66000Y231000D03*
Y221000D03*
X76000Y231000D03*
Y221000D03*
G54D11*G36*
X74750Y85750D02*Y80250D01*
X80250D01*
Y85750D01*
X74750D01*
G37*
G54D17*X77500Y133000D03*
G54D19*X86000Y231000D03*
Y221000D03*
X96000D03*
X106000D03*
X96000Y231000D03*
X106000D03*
G54D11*G36*
X89750Y135750D02*Y130250D01*
X95250D01*
Y135750D01*
X89750D01*
G37*
G54D17*X92500Y83000D03*
G54D11*G36*
X97500Y164500D02*Y159500D01*
X102500D01*
Y164500D01*
X97500D01*
G37*
G36*
Y194500D02*Y189500D01*
X102500D01*
Y194500D01*
X97500D01*
G37*
G36*
Y179500D02*Y174500D01*
X102500D01*
Y179500D01*
X97500D01*
G37*
G36*
Y149500D02*Y144500D01*
X102500D01*
Y149500D01*
X97500D01*
G37*
G54D21*X70000Y147000D03*
G54D11*G36*
X56250Y149750D02*Y144250D01*
X61750D01*
Y149750D01*
X56250D01*
G37*
G54D21*X70000Y162000D03*
G54D11*G36*
X56250Y179750D02*Y174250D01*
X61750D01*
Y179750D01*
X56250D01*
G37*
G54D19*X46000Y182000D03*
Y172000D03*
G54D21*X70000Y177000D03*
G54D11*G36*
X56250Y164750D02*Y159250D01*
X61750D01*
Y164750D01*
X56250D01*
G37*
G54D19*X46000Y162000D03*
Y152000D03*
G54D11*G36*
X42000Y132500D02*Y126500D01*
X48000D01*
Y132500D01*
X42000D01*
G37*
G54D19*X55000Y129500D03*
G54D11*G36*
X56250Y194750D02*Y189250D01*
X61750D01*
Y194750D01*
X56250D01*
G37*
G36*
X43000Y195000D02*Y189000D01*
X49000D01*
Y195000D01*
X43000D01*
G37*
G54D21*X70000Y192000D03*
G54D11*G36*
X133000Y224000D02*Y218000D01*
X139000D01*
Y224000D01*
X133000D01*
G37*
G36*
Y234000D02*Y228000D01*
X139000D01*
Y234000D01*
X133000D01*
G37*
G54D19*X146000Y231000D03*
Y221000D03*
X156000D03*
X166000D03*
X176000D03*
X186000D03*
X196000D03*
X156000Y231000D03*
X166000D03*
X176000D03*
X186000D03*
G54D25*X173000Y368000D03*
X168000Y361000D03*
X163000Y371500D03*
X168000Y375000D03*
X153000D03*
X193000Y361000D03*
X183000Y364500D03*
Y375000D03*
X220000Y378500D03*
X251500Y485000D03*
X245000Y429000D03*
X230000D03*
X203500Y434500D03*
Y471000D03*
X210500Y458500D03*
Y511000D03*
Y479000D03*
X255000Y371500D03*
X245000Y382000D03*
X248500Y375000D03*
X210500Y342000D03*
Y347500D03*
X203500Y336000D03*
Y330500D03*
X202000Y314500D03*
X297500Y342000D03*
Y347500D03*
X290500Y336000D03*
Y330500D03*
X220000Y299500D03*
X210500Y412500D03*
X297500D03*
X210500Y407000D03*
X297500D03*
X203500Y401000D03*
X290500D03*
X203500Y395500D03*
X290500D03*
X255000Y425500D03*
X264000Y435500D03*
X273500Y440500D03*
X290500Y435500D03*
X297500Y458500D03*
X290500Y471000D03*
X297500Y502000D03*
Y486500D03*
Y479000D03*
X280000Y471000D03*
X297500Y494000D03*
X201000Y269000D03*
G54D19*X176000Y193500D03*
X183500D03*
X186500Y133500D03*
X179500D03*
X152000Y99500D03*
Y125000D03*
X139500Y91000D03*
G54D25*X290500Y299500D03*
Y314500D03*
X297500Y306500D03*
Y291500D03*
Y286000D03*
X253500Y248000D03*
X243000Y230500D03*
X261500D03*
X255500Y196500D03*
X261000Y140000D03*
X29500Y330500D03*
Y336000D03*
X36500Y347500D03*
Y342000D03*
X61000Y382000D03*
X61500Y311500D03*
X29500Y395500D03*
Y401000D03*
X36500Y407000D03*
X29500Y299500D03*
Y313000D03*
X36500Y291500D03*
X46000D03*
X42500Y231000D03*
Y221000D03*
X56000Y211500D03*
X36500Y412500D03*
X61000Y430500D03*
X29500Y471000D03*
X36500Y458500D03*
X43000Y471000D03*
X36500Y479000D03*
Y487500D03*
Y504500D03*
X29500Y511000D03*
X36500Y496000D03*
X69000Y528500D03*
X29500D03*
Y446500D03*
X54000Y471000D03*
X43000Y446500D03*
X54000D03*
X148000Y375000D03*
X138000Y361000D03*
X143000Y382000D03*
X123500Y412500D03*
Y407000D03*
X116500Y401000D03*
Y395500D03*
X123500Y342000D03*
Y347500D03*
X116500Y336000D03*
X91000Y378500D03*
X81000Y375000D03*
X101000Y382000D03*
X96000Y361000D03*
X91000Y368000D03*
X76500Y371500D03*
X123500Y458500D03*
X116500Y446500D03*
Y471000D03*
X123500Y479000D03*
X130500Y440500D03*
X127500Y521000D03*
X123500D03*
X109500Y514000D03*
X116500Y528500D03*
X155500D03*
G54D26*X101500D03*
G54D25*X134500D03*
X101000Y317000D03*
X76000Y315000D03*
X91000Y313500D03*
X71000Y315000D03*
X116500Y330500D03*
Y299500D03*
X83000Y272500D03*
X71000Y275500D03*
X90000Y285000D03*
X139000Y287000D03*
X123500Y269000D03*
X144500Y282000D03*
X116500Y235000D03*
Y223500D03*
G54D19*X117000Y217000D03*
G54D25*Y206000D03*
X111500D03*
G54D27*G54D28*G54D29*G54D28*G54D27*G54D28*G54D29*G54D30*G54D31*G54D30*G54D27*G54D30*G54D27*G54D30*G54D27*G54D30*G54D27*G54D30*G54D27*G54D30*G54D27*G54D30*G54D27*G54D32*G54D27*G54D32*G54D27*G54D32*G54D27*G54D32*G54D27*G54D32*G54D27*G54D11*G54D33*G54D29*G54D19*G54D27*G54D21*G54D32*G54D21*G54D27*G54D19*G54D33*G54D29*G54D32*G54D11*G54D32*G54D27*G54D32*G54D27*G54D11*G54D27*G54D11*G54D27*G54D32*G54D11*G54D27*G54D32*G54D27*G54D32*G54D11*G54D32*G54D11*G54D34*G54D11*G54D34*G54D11*G54D35*X304500Y577500D02*Y36000D01*
X22500D02*Y577500D01*
X32500Y587500D02*X294500D01*
X82500Y64000D02*Y48500D01*
X32500Y26000D02*X294500D01*
X246000Y85000D02*X257000D01*
X241500Y80500D02*Y69500D01*
X87000Y68500D02*X93500D01*
X98000Y64000D02*Y48500D01*
X87000Y44000D02*X93500D01*
X22500Y36000D02*G75*G03X32500Y26000I10000J0D01*G01*
Y587500D02*G75*G03X22500Y577500I0J-10000D01*G01*
X294500Y587500D02*G75*G02X304500Y577500I0J-10000D01*G01*
X294500Y26000D02*G75*G03X304500Y36000I0J10000D01*G01*
X241500Y80500D02*G75*G02X246000Y85000I4500J0D01*G01*
Y65000D02*G75*G02X241500Y69500I0J4500D01*G01*
X250500D02*G75*G02X246000Y65000I-4500J0D01*G01*
X257000Y85000D02*G75*G02X261500Y80500I0J-4500D01*G01*
G75*G02X257000Y76000I-4500J0D01*G01*
G75*G03X250500Y69500I0J-6500D01*G01*
X93500Y68500D02*G75*G02X98000Y64000I0J-4500D01*G01*
X82500D02*G75*G02X87000Y68500I4500J0D01*G01*
Y44000D02*G75*G02X82500Y48500I0J4500D01*G01*
X98000D02*G75*G02X93500Y44000I-4500J0D01*G01*
M02*
