G04 start of page 2 for group 0 idx 0 *
G04 Title: (unknown), component *
G04 Creator: pcb 20091103 *
G04 CreationDate: Sun Jun 11 07:31:11 2023 UTC *
G04 For: bh *
G04 Format: Gerber/RS-274X *
G04 PCB-Dimensions: 370000 600000 *
G04 PCB-Coordinate-Origin: lower left *
%MOIN*%
%FSLAX25Y25*%
%LNTOP*%
%ADD11C,0.0200*%
%ADD12C,0.0180*%
%ADD13C,0.0400*%
%ADD14C,0.0250*%
%ADD15C,0.0100*%
%ADD16C,0.0140*%
%ADD17C,0.0550*%
%ADD18C,0.0650*%
%ADD19C,0.0600*%
%ADD20C,0.0720*%
%ADD21C,0.0500*%
%ADD22C,0.1500*%
%ADD23C,0.0900*%
%ADD24C,0.0800*%
%ADD25C,0.0360*%
%ADD26C,0.0410*%
%ADD27C,0.0300*%
%ADD28C,0.0430*%
%ADD29C,0.1220*%
%ADD30C,0.0280*%
%ADD31C,0.0420*%
%ADD32C,0.0380*%
%ADD33C,0.1300*%
%ADD34C,0.0350*%
%ADD35C,0.0060*%
G54D11*G36*
X109613Y237500D02*X112500D01*
Y214500D01*
X109613D01*
Y218860D01*
X109708Y218882D01*
X109829Y218933D01*
X109938Y219005D01*
X110034Y219094D01*
X110113Y219198D01*
X110172Y219315D01*
X110314Y219722D01*
X110417Y220142D01*
X110479Y220569D01*
X110500Y221000D01*
X110479Y221432D01*
X110417Y221859D01*
X110314Y222279D01*
X110172Y222686D01*
X110171D01*
X110112Y222802D01*
X110033Y222907D01*
X109937Y222996D01*
X109828Y223067D01*
X109707Y223118D01*
X109613Y223139D01*
Y228860D01*
X109708Y228882D01*
X109829Y228933D01*
X109938Y229005D01*
X110034Y229094D01*
X110113Y229198D01*
X110172Y229315D01*
X110314Y229722D01*
X110417Y230142D01*
X110479Y230569D01*
X110500Y231000D01*
X110479Y231432D01*
X110417Y231859D01*
X110314Y232279D01*
X110172Y232686D01*
X110171D01*
X110112Y232802D01*
X110033Y232907D01*
X109937Y232996D01*
X109828Y233067D01*
X109707Y233118D01*
X109613Y233139D01*
Y237500D01*
G37*
G36*
X106000D02*X109613D01*
Y233139D01*
X109580Y233147D01*
X109450Y233154D01*
X109320Y233138D01*
X109195Y233100D01*
X109079Y233041D01*
X108974Y232962D01*
X108885Y232866D01*
X108814Y232757D01*
X108763Y232636D01*
X108734Y232509D01*
X108727Y232379D01*
X108743Y232249D01*
X108781Y232124D01*
X108876Y231853D01*
X108944Y231573D01*
X108986Y231288D01*
X109000Y231000D01*
X108986Y230713D01*
X108944Y230428D01*
X108876Y230148D01*
X108781Y229877D01*
X108780D01*
X108742Y229752D01*
X108726Y229622D01*
X108733Y229491D01*
X108762Y229364D01*
X108813Y229243D01*
X108885Y229134D01*
X108974Y229038D01*
X109078Y228959D01*
X109195Y228900D01*
X109320Y228862D01*
X109450Y228846D01*
X109581Y228853D01*
X109613Y228860D01*
Y223139D01*
X109580Y223147D01*
X109450Y223154D01*
X109320Y223138D01*
X109195Y223100D01*
X109079Y223041D01*
X108974Y222962D01*
X108885Y222866D01*
X108814Y222757D01*
X108763Y222636D01*
X108734Y222509D01*
X108727Y222379D01*
X108743Y222249D01*
X108781Y222124D01*
X108876Y221853D01*
X108944Y221573D01*
X108986Y221288D01*
X109000Y221000D01*
X108986Y220713D01*
X108944Y220428D01*
X108876Y220148D01*
X108781Y219877D01*
X108780D01*
X108742Y219752D01*
X108726Y219622D01*
X108733Y219491D01*
X108762Y219364D01*
X108813Y219243D01*
X108885Y219134D01*
X108974Y219038D01*
X109078Y218959D01*
X109195Y218900D01*
X109320Y218862D01*
X109450Y218846D01*
X109581Y218853D01*
X109613Y218860D01*
Y214500D01*
X106000D01*
Y216500D01*
X106431Y216521D01*
X106858Y216583D01*
X107278Y216686D01*
X107685Y216828D01*
Y216829D01*
X107801Y216888D01*
X107906Y216967D01*
X107995Y217063D01*
X108066Y217172D01*
X108117Y217293D01*
X108146Y217420D01*
X108153Y217550D01*
X108137Y217680D01*
X108099Y217805D01*
X108040Y217921D01*
X107961Y218026D01*
X107865Y218115D01*
X107756Y218186D01*
X107635Y218237D01*
X107508Y218266D01*
X107378Y218273D01*
X107248Y218257D01*
X107123Y218219D01*
X106852Y218124D01*
X106572Y218056D01*
X106287Y218014D01*
X106000Y218000D01*
Y224000D01*
X106287Y223987D01*
X106572Y223945D01*
X106852Y223877D01*
X107123Y223782D01*
Y223781D01*
X107248Y223743D01*
X107378Y223727D01*
X107509Y223734D01*
X107636Y223763D01*
X107757Y223814D01*
X107866Y223886D01*
X107962Y223975D01*
X108041Y224079D01*
X108100Y224196D01*
X108138Y224321D01*
X108154Y224451D01*
X108147Y224582D01*
X108118Y224709D01*
X108067Y224830D01*
X107995Y224939D01*
X107906Y225035D01*
X107802Y225114D01*
X107685Y225173D01*
X107278Y225315D01*
X106858Y225418D01*
X106431Y225480D01*
X106000Y225500D01*
Y226500D01*
X106431Y226521D01*
X106858Y226583D01*
X107278Y226686D01*
X107685Y226828D01*
Y226829D01*
X107801Y226888D01*
X107906Y226967D01*
X107995Y227063D01*
X108066Y227172D01*
X108117Y227293D01*
X108146Y227420D01*
X108153Y227550D01*
X108137Y227680D01*
X108099Y227805D01*
X108040Y227921D01*
X107961Y228026D01*
X107865Y228115D01*
X107756Y228186D01*
X107635Y228237D01*
X107508Y228266D01*
X107378Y228273D01*
X107248Y228257D01*
X107123Y228219D01*
X106852Y228124D01*
X106572Y228056D01*
X106287Y228014D01*
X106000Y228000D01*
Y234000D01*
X106287Y233987D01*
X106572Y233945D01*
X106852Y233877D01*
X107123Y233782D01*
Y233781D01*
X107248Y233743D01*
X107378Y233727D01*
X107509Y233734D01*
X107636Y233763D01*
X107757Y233814D01*
X107866Y233886D01*
X107962Y233975D01*
X108041Y234079D01*
X108100Y234196D01*
X108138Y234321D01*
X108154Y234451D01*
X108147Y234582D01*
X108118Y234709D01*
X108067Y234830D01*
X107995Y234939D01*
X107906Y235035D01*
X107802Y235114D01*
X107685Y235173D01*
X107278Y235315D01*
X106858Y235418D01*
X106431Y235480D01*
X106000Y235500D01*
Y237500D01*
G37*
G36*
X102387D02*X106000D01*
Y235500D01*
X105568Y235480D01*
X105141Y235418D01*
X104721Y235315D01*
X104314Y235173D01*
Y235172D01*
X104198Y235113D01*
X104093Y235034D01*
X104004Y234938D01*
X103933Y234829D01*
X103882Y234708D01*
X103853Y234581D01*
X103846Y234451D01*
X103862Y234321D01*
X103900Y234196D01*
X103959Y234080D01*
X104038Y233975D01*
X104134Y233886D01*
X104243Y233815D01*
X104364Y233764D01*
X104491Y233735D01*
X104621Y233728D01*
X104751Y233744D01*
X104876Y233782D01*
X105147Y233877D01*
X105427Y233945D01*
X105712Y233987D01*
X106000Y234000D01*
Y228000D01*
X105999D01*
X105712Y228014D01*
X105427Y228056D01*
X105147Y228124D01*
X104876Y228219D01*
Y228220D01*
X104751Y228258D01*
X104621Y228274D01*
X104490Y228267D01*
X104363Y228238D01*
X104242Y228187D01*
X104133Y228115D01*
X104037Y228026D01*
X103958Y227922D01*
X103899Y227805D01*
X103861Y227680D01*
X103845Y227550D01*
X103852Y227419D01*
X103881Y227292D01*
X103932Y227171D01*
X104004Y227062D01*
X104093Y226966D01*
X104197Y226887D01*
X104314Y226828D01*
X104721Y226686D01*
X105141Y226583D01*
X105568Y226521D01*
X105999Y226500D01*
X106000D01*
Y225500D01*
X105568Y225480D01*
X105141Y225418D01*
X104721Y225315D01*
X104314Y225173D01*
Y225172D01*
X104198Y225113D01*
X104093Y225034D01*
X104004Y224938D01*
X103933Y224829D01*
X103882Y224708D01*
X103853Y224581D01*
X103846Y224451D01*
X103862Y224321D01*
X103900Y224196D01*
X103959Y224080D01*
X104038Y223975D01*
X104134Y223886D01*
X104243Y223815D01*
X104364Y223764D01*
X104491Y223735D01*
X104621Y223728D01*
X104751Y223744D01*
X104876Y223782D01*
X105147Y223877D01*
X105427Y223945D01*
X105712Y223987D01*
X106000Y224000D01*
Y218000D01*
X105999D01*
X105712Y218014D01*
X105427Y218056D01*
X105147Y218124D01*
X104876Y218219D01*
Y218220D01*
X104751Y218258D01*
X104621Y218274D01*
X104490Y218267D01*
X104363Y218238D01*
X104242Y218187D01*
X104133Y218115D01*
X104037Y218026D01*
X103958Y217922D01*
X103899Y217805D01*
X103861Y217680D01*
X103845Y217550D01*
X103852Y217419D01*
X103881Y217292D01*
X103932Y217171D01*
X104004Y217062D01*
X104093Y216966D01*
X104197Y216887D01*
X104314Y216828D01*
X104721Y216686D01*
X105141Y216583D01*
X105568Y216521D01*
X105999Y216500D01*
X106000D01*
Y214500D01*
X102387D01*
Y218861D01*
X102419Y218854D01*
X102549Y218847D01*
X102679Y218863D01*
X102804Y218901D01*
X102920Y218960D01*
X103025Y219039D01*
X103114Y219135D01*
X103185Y219244D01*
X103236Y219365D01*
X103265Y219492D01*
X103272Y219622D01*
X103256Y219752D01*
X103218Y219877D01*
X103123Y220148D01*
X103055Y220428D01*
X103013Y220713D01*
X103000Y221001D01*
X103013Y221288D01*
X103055Y221573D01*
X103123Y221853D01*
X103218Y222124D01*
X103219D01*
X103257Y222249D01*
X103273Y222379D01*
X103266Y222510D01*
X103237Y222637D01*
X103186Y222758D01*
X103114Y222867D01*
X103025Y222963D01*
X102921Y223042D01*
X102804Y223101D01*
X102679Y223139D01*
X102549Y223155D01*
X102418Y223148D01*
X102387Y223141D01*
Y228861D01*
X102419Y228854D01*
X102549Y228847D01*
X102679Y228863D01*
X102804Y228901D01*
X102920Y228960D01*
X103025Y229039D01*
X103114Y229135D01*
X103185Y229244D01*
X103236Y229365D01*
X103265Y229492D01*
X103272Y229622D01*
X103256Y229752D01*
X103218Y229877D01*
X103123Y230148D01*
X103055Y230428D01*
X103013Y230713D01*
X103000Y231001D01*
X103013Y231288D01*
X103055Y231573D01*
X103123Y231853D01*
X103218Y232124D01*
X103219D01*
X103257Y232249D01*
X103273Y232379D01*
X103266Y232510D01*
X103237Y232637D01*
X103186Y232758D01*
X103114Y232867D01*
X103025Y232963D01*
X102921Y233042D01*
X102804Y233101D01*
X102679Y233139D01*
X102549Y233155D01*
X102418Y233148D01*
X102387Y233141D01*
Y237500D01*
G37*
G36*
X96000D02*X102387D01*
Y233141D01*
X102291Y233119D01*
X102170Y233068D01*
X102061Y232996D01*
X101965Y232907D01*
X101886Y232803D01*
X101827Y232686D01*
X101685Y232279D01*
X101582Y231859D01*
X101520Y231432D01*
X101500Y231001D01*
X101520Y230569D01*
X101582Y230142D01*
X101685Y229722D01*
X101827Y229315D01*
X101828D01*
X101887Y229199D01*
X101966Y229094D01*
X102062Y229005D01*
X102171Y228934D01*
X102292Y228883D01*
X102387Y228861D01*
Y223141D01*
X102291Y223119D01*
X102170Y223068D01*
X102061Y222996D01*
X101965Y222907D01*
X101886Y222803D01*
X101827Y222686D01*
X101685Y222279D01*
X101582Y221859D01*
X101520Y221432D01*
X101500Y221001D01*
X101520Y220569D01*
X101582Y220142D01*
X101685Y219722D01*
X101827Y219315D01*
X101828D01*
X101887Y219199D01*
X101966Y219094D01*
X102062Y219005D01*
X102171Y218934D01*
X102292Y218883D01*
X102387Y218861D01*
Y214500D01*
X96000D01*
Y216500D01*
X96781Y216568D01*
X97539Y216771D01*
X98250Y217103D01*
X98893Y217553D01*
X99447Y218107D01*
X99897Y218750D01*
X100229Y219461D01*
X100432Y220219D01*
X100500Y221000D01*
X100432Y221781D01*
X100229Y222539D01*
X99897Y223250D01*
X99447Y223893D01*
X98893Y224447D01*
X98250Y224897D01*
X97539Y225229D01*
X96781Y225432D01*
X96000Y225500D01*
Y226500D01*
X96781Y226568D01*
X97539Y226771D01*
X98250Y227103D01*
X98893Y227553D01*
X99447Y228107D01*
X99897Y228750D01*
X100229Y229461D01*
X100432Y230219D01*
X100500Y231000D01*
X100432Y231781D01*
X100229Y232539D01*
X99897Y233250D01*
X99447Y233893D01*
X98893Y234447D01*
X98250Y234897D01*
X97539Y235229D01*
X96781Y235432D01*
X96000Y235500D01*
Y237500D01*
G37*
G36*
X89613D02*X96000D01*
Y235500D01*
X95219Y235432D01*
X94461Y235229D01*
X93750Y234897D01*
X93107Y234447D01*
X92553Y233893D01*
X92103Y233250D01*
X91771Y232539D01*
X91568Y231781D01*
X91500Y231000D01*
X91568Y230219D01*
X91771Y229461D01*
X92103Y228750D01*
X92553Y228107D01*
X93107Y227553D01*
X93750Y227103D01*
X94461Y226771D01*
X95219Y226568D01*
X96000Y226500D01*
Y225500D01*
X95219Y225432D01*
X94461Y225229D01*
X93750Y224897D01*
X93107Y224447D01*
X92553Y223893D01*
X92103Y223250D01*
X91771Y222539D01*
X91568Y221781D01*
X91500Y221000D01*
X91568Y220219D01*
X91771Y219461D01*
X92103Y218750D01*
X92553Y218107D01*
X93107Y217553D01*
X93750Y217103D01*
X94461Y216771D01*
X95219Y216568D01*
X96000Y216500D01*
Y214500D01*
X89613D01*
Y218860D01*
X89708Y218882D01*
X89829Y218933D01*
X89938Y219005D01*
X90034Y219094D01*
X90113Y219198D01*
X90172Y219315D01*
X90314Y219722D01*
X90417Y220142D01*
X90479Y220569D01*
X90500Y221000D01*
X90479Y221432D01*
X90417Y221859D01*
X90314Y222279D01*
X90172Y222686D01*
X90171D01*
X90112Y222802D01*
X90033Y222907D01*
X89937Y222996D01*
X89828Y223067D01*
X89707Y223118D01*
X89613Y223139D01*
Y228860D01*
X89708Y228882D01*
X89829Y228933D01*
X89938Y229005D01*
X90034Y229094D01*
X90113Y229198D01*
X90172Y229315D01*
X90314Y229722D01*
X90417Y230142D01*
X90479Y230569D01*
X90500Y231000D01*
X90479Y231432D01*
X90417Y231859D01*
X90314Y232279D01*
X90172Y232686D01*
X90171D01*
X90112Y232802D01*
X90033Y232907D01*
X89937Y232996D01*
X89828Y233067D01*
X89707Y233118D01*
X89613Y233139D01*
Y237500D01*
G37*
G36*
X85999D02*X89613D01*
Y233139D01*
X89580Y233147D01*
X89450Y233154D01*
X89320Y233138D01*
X89195Y233100D01*
X89079Y233041D01*
X88974Y232962D01*
X88885Y232866D01*
X88814Y232757D01*
X88763Y232636D01*
X88734Y232509D01*
X88727Y232379D01*
X88743Y232249D01*
X88781Y232124D01*
X88876Y231853D01*
X88944Y231573D01*
X88986Y231288D01*
X89000Y231000D01*
X88986Y230713D01*
X88944Y230428D01*
X88876Y230148D01*
X88781Y229877D01*
X88780D01*
X88742Y229752D01*
X88726Y229622D01*
X88733Y229491D01*
X88762Y229364D01*
X88813Y229243D01*
X88885Y229134D01*
X88974Y229038D01*
X89078Y228959D01*
X89195Y228900D01*
X89320Y228862D01*
X89450Y228846D01*
X89581Y228853D01*
X89613Y228860D01*
Y223139D01*
X89580Y223147D01*
X89450Y223154D01*
X89320Y223138D01*
X89195Y223100D01*
X89079Y223041D01*
X88974Y222962D01*
X88885Y222866D01*
X88814Y222757D01*
X88763Y222636D01*
X88734Y222509D01*
X88727Y222379D01*
X88743Y222249D01*
X88781Y222124D01*
X88876Y221853D01*
X88944Y221573D01*
X88986Y221288D01*
X89000Y221000D01*
X88986Y220713D01*
X88944Y220428D01*
X88876Y220148D01*
X88781Y219877D01*
X88780D01*
X88742Y219752D01*
X88726Y219622D01*
X88733Y219491D01*
X88762Y219364D01*
X88813Y219243D01*
X88885Y219134D01*
X88974Y219038D01*
X89078Y218959D01*
X89195Y218900D01*
X89320Y218862D01*
X89450Y218846D01*
X89581Y218853D01*
X89613Y218860D01*
Y214500D01*
X85999D01*
Y216500D01*
X86431Y216521D01*
X86858Y216583D01*
X87278Y216686D01*
X87685Y216828D01*
Y216829D01*
X87801Y216888D01*
X87906Y216967D01*
X87995Y217063D01*
X88066Y217172D01*
X88117Y217293D01*
X88146Y217420D01*
X88153Y217550D01*
X88137Y217680D01*
X88099Y217805D01*
X88040Y217921D01*
X87961Y218026D01*
X87865Y218115D01*
X87756Y218186D01*
X87635Y218237D01*
X87508Y218266D01*
X87378Y218273D01*
X87248Y218257D01*
X87123Y218219D01*
X86852Y218124D01*
X86572Y218056D01*
X86287Y218014D01*
X85999Y218000D01*
Y224000D01*
X86000D01*
X86287Y223987D01*
X86572Y223945D01*
X86852Y223877D01*
X87123Y223782D01*
Y223781D01*
X87248Y223743D01*
X87378Y223727D01*
X87509Y223734D01*
X87636Y223763D01*
X87757Y223814D01*
X87866Y223886D01*
X87962Y223975D01*
X88041Y224079D01*
X88100Y224196D01*
X88138Y224321D01*
X88154Y224451D01*
X88147Y224582D01*
X88118Y224709D01*
X88067Y224830D01*
X87995Y224939D01*
X87906Y225035D01*
X87802Y225114D01*
X87685Y225173D01*
X87278Y225315D01*
X86858Y225418D01*
X86431Y225480D01*
X86000Y225500D01*
X85999D01*
Y226500D01*
X86431Y226521D01*
X86858Y226583D01*
X87278Y226686D01*
X87685Y226828D01*
Y226829D01*
X87801Y226888D01*
X87906Y226967D01*
X87995Y227063D01*
X88066Y227172D01*
X88117Y227293D01*
X88146Y227420D01*
X88153Y227550D01*
X88137Y227680D01*
X88099Y227805D01*
X88040Y227921D01*
X87961Y228026D01*
X87865Y228115D01*
X87756Y228186D01*
X87635Y228237D01*
X87508Y228266D01*
X87378Y228273D01*
X87248Y228257D01*
X87123Y228219D01*
X86852Y228124D01*
X86572Y228056D01*
X86287Y228014D01*
X85999Y228000D01*
Y234000D01*
X86000D01*
X86287Y233987D01*
X86572Y233945D01*
X86852Y233877D01*
X87123Y233782D01*
Y233781D01*
X87248Y233743D01*
X87378Y233727D01*
X87509Y233734D01*
X87636Y233763D01*
X87757Y233814D01*
X87866Y233886D01*
X87962Y233975D01*
X88041Y234079D01*
X88100Y234196D01*
X88138Y234321D01*
X88154Y234451D01*
X88147Y234582D01*
X88118Y234709D01*
X88067Y234830D01*
X87995Y234939D01*
X87906Y235035D01*
X87802Y235114D01*
X87685Y235173D01*
X87278Y235315D01*
X86858Y235418D01*
X86431Y235480D01*
X86000Y235500D01*
X85999D01*
Y237500D01*
G37*
G36*
X82387D02*X85999D01*
Y235500D01*
X85568Y235480D01*
X85141Y235418D01*
X84721Y235315D01*
X84314Y235173D01*
Y235172D01*
X84198Y235113D01*
X84093Y235034D01*
X84004Y234938D01*
X83933Y234829D01*
X83882Y234708D01*
X83853Y234581D01*
X83846Y234451D01*
X83862Y234321D01*
X83900Y234196D01*
X83959Y234080D01*
X84038Y233975D01*
X84134Y233886D01*
X84243Y233815D01*
X84364Y233764D01*
X84491Y233735D01*
X84621Y233728D01*
X84751Y233744D01*
X84876Y233782D01*
X85147Y233877D01*
X85427Y233945D01*
X85712Y233987D01*
X85999Y234000D01*
Y228000D01*
X85712Y228014D01*
X85427Y228056D01*
X85147Y228124D01*
X84876Y228219D01*
Y228220D01*
X84751Y228258D01*
X84621Y228274D01*
X84490Y228267D01*
X84363Y228238D01*
X84242Y228187D01*
X84133Y228115D01*
X84037Y228026D01*
X83958Y227922D01*
X83899Y227805D01*
X83861Y227680D01*
X83845Y227550D01*
X83852Y227419D01*
X83881Y227292D01*
X83932Y227171D01*
X84004Y227062D01*
X84093Y226966D01*
X84197Y226887D01*
X84314Y226828D01*
X84721Y226686D01*
X85141Y226583D01*
X85568Y226521D01*
X85999Y226500D01*
Y225500D01*
X85568Y225480D01*
X85141Y225418D01*
X84721Y225315D01*
X84314Y225173D01*
Y225172D01*
X84198Y225113D01*
X84093Y225034D01*
X84004Y224938D01*
X83933Y224829D01*
X83882Y224708D01*
X83853Y224581D01*
X83846Y224451D01*
X83862Y224321D01*
X83900Y224196D01*
X83959Y224080D01*
X84038Y223975D01*
X84134Y223886D01*
X84243Y223815D01*
X84364Y223764D01*
X84491Y223735D01*
X84621Y223728D01*
X84751Y223744D01*
X84876Y223782D01*
X85147Y223877D01*
X85427Y223945D01*
X85712Y223987D01*
X85999Y224000D01*
Y218000D01*
X85712Y218014D01*
X85427Y218056D01*
X85147Y218124D01*
X84876Y218219D01*
Y218220D01*
X84751Y218258D01*
X84621Y218274D01*
X84490Y218267D01*
X84363Y218238D01*
X84242Y218187D01*
X84133Y218115D01*
X84037Y218026D01*
X83958Y217922D01*
X83899Y217805D01*
X83861Y217680D01*
X83845Y217550D01*
X83852Y217419D01*
X83881Y217292D01*
X83932Y217171D01*
X84004Y217062D01*
X84093Y216966D01*
X84197Y216887D01*
X84314Y216828D01*
X84721Y216686D01*
X85141Y216583D01*
X85568Y216521D01*
X85999Y216500D01*
Y214500D01*
X82387D01*
Y218861D01*
X82419Y218854D01*
X82549Y218847D01*
X82679Y218863D01*
X82804Y218901D01*
X82920Y218960D01*
X83025Y219039D01*
X83114Y219135D01*
X83185Y219244D01*
X83236Y219365D01*
X83265Y219492D01*
X83272Y219622D01*
X83256Y219752D01*
X83218Y219877D01*
X83123Y220148D01*
X83055Y220428D01*
X83013Y220713D01*
X83000Y221001D01*
X83013Y221288D01*
X83055Y221573D01*
X83123Y221853D01*
X83218Y222124D01*
X83219D01*
X83257Y222249D01*
X83273Y222379D01*
X83266Y222510D01*
X83237Y222637D01*
X83186Y222758D01*
X83114Y222867D01*
X83025Y222963D01*
X82921Y223042D01*
X82804Y223101D01*
X82679Y223139D01*
X82549Y223155D01*
X82418Y223148D01*
X82387Y223141D01*
Y228861D01*
X82419Y228854D01*
X82549Y228847D01*
X82679Y228863D01*
X82804Y228901D01*
X82920Y228960D01*
X83025Y229039D01*
X83114Y229135D01*
X83185Y229244D01*
X83236Y229365D01*
X83265Y229492D01*
X83272Y229622D01*
X83256Y229752D01*
X83218Y229877D01*
X83123Y230148D01*
X83055Y230428D01*
X83013Y230713D01*
X83000Y231001D01*
X83013Y231288D01*
X83055Y231573D01*
X83123Y231853D01*
X83218Y232124D01*
X83219D01*
X83257Y232249D01*
X83273Y232379D01*
X83266Y232510D01*
X83237Y232637D01*
X83186Y232758D01*
X83114Y232867D01*
X83025Y232963D01*
X82921Y233042D01*
X82804Y233101D01*
X82679Y233139D01*
X82549Y233155D01*
X82418Y233148D01*
X82387Y233141D01*
Y237500D01*
G37*
G36*
X76000D02*X82387D01*
Y233141D01*
X82291Y233119D01*
X82170Y233068D01*
X82061Y232996D01*
X81965Y232907D01*
X81886Y232803D01*
X81827Y232686D01*
X81685Y232279D01*
X81582Y231859D01*
X81520Y231432D01*
X81500Y231001D01*
X81520Y230569D01*
X81582Y230142D01*
X81685Y229722D01*
X81827Y229315D01*
X81828D01*
X81887Y229199D01*
X81966Y229094D01*
X82062Y229005D01*
X82171Y228934D01*
X82292Y228883D01*
X82387Y228861D01*
Y223141D01*
X82291Y223119D01*
X82170Y223068D01*
X82061Y222996D01*
X81965Y222907D01*
X81886Y222803D01*
X81827Y222686D01*
X81685Y222279D01*
X81582Y221859D01*
X81520Y221432D01*
X81500Y221001D01*
X81520Y220569D01*
X81582Y220142D01*
X81685Y219722D01*
X81827Y219315D01*
X81828D01*
X81887Y219199D01*
X81966Y219094D01*
X82062Y219005D01*
X82171Y218934D01*
X82292Y218883D01*
X82387Y218861D01*
Y214500D01*
X76000D01*
Y216500D01*
X76781Y216568D01*
X77539Y216771D01*
X78250Y217103D01*
X78893Y217553D01*
X79447Y218107D01*
X79897Y218750D01*
X80229Y219461D01*
X80432Y220219D01*
X80500Y221000D01*
X80432Y221781D01*
X80229Y222539D01*
X79897Y223250D01*
X79447Y223893D01*
X78893Y224447D01*
X78250Y224897D01*
X77539Y225229D01*
X76781Y225432D01*
X76000Y225500D01*
Y226500D01*
X76781Y226568D01*
X77539Y226771D01*
X78250Y227103D01*
X78893Y227553D01*
X79447Y228107D01*
X79897Y228750D01*
X80229Y229461D01*
X80432Y230219D01*
X80500Y231000D01*
X80432Y231781D01*
X80229Y232539D01*
X79897Y233250D01*
X79447Y233893D01*
X78893Y234447D01*
X78250Y234897D01*
X77539Y235229D01*
X76781Y235432D01*
X76000Y235500D01*
Y237500D01*
G37*
G36*
X69613D02*X76000D01*
Y235500D01*
X75219Y235432D01*
X74461Y235229D01*
X73750Y234897D01*
X73107Y234447D01*
X72553Y233893D01*
X72103Y233250D01*
X71771Y232539D01*
X71568Y231781D01*
X71500Y231000D01*
X71568Y230219D01*
X71771Y229461D01*
X72103Y228750D01*
X72553Y228107D01*
X73107Y227553D01*
X73750Y227103D01*
X74461Y226771D01*
X75219Y226568D01*
X76000Y226500D01*
Y225500D01*
X75219Y225432D01*
X74461Y225229D01*
X73750Y224897D01*
X73107Y224447D01*
X72553Y223893D01*
X72103Y223250D01*
X71771Y222539D01*
X71568Y221781D01*
X71500Y221000D01*
X71568Y220219D01*
X71771Y219461D01*
X72103Y218750D01*
X72553Y218107D01*
X73107Y217553D01*
X73750Y217103D01*
X74461Y216771D01*
X75219Y216568D01*
X76000Y216500D01*
Y214500D01*
X69613D01*
Y218860D01*
X69708Y218882D01*
X69829Y218933D01*
X69938Y219005D01*
X70034Y219094D01*
X70113Y219198D01*
X70172Y219315D01*
X70314Y219722D01*
X70417Y220142D01*
X70479Y220569D01*
X70500Y221000D01*
X70479Y221432D01*
X70417Y221859D01*
X70314Y222279D01*
X70172Y222686D01*
X70171D01*
X70112Y222802D01*
X70033Y222907D01*
X69937Y222996D01*
X69828Y223067D01*
X69707Y223118D01*
X69613Y223139D01*
Y228860D01*
X69708Y228882D01*
X69829Y228933D01*
X69938Y229005D01*
X70034Y229094D01*
X70113Y229198D01*
X70172Y229315D01*
X70314Y229722D01*
X70417Y230142D01*
X70479Y230569D01*
X70500Y231000D01*
X70479Y231432D01*
X70417Y231859D01*
X70314Y232279D01*
X70172Y232686D01*
X70171D01*
X70112Y232802D01*
X70033Y232907D01*
X69937Y232996D01*
X69828Y233067D01*
X69707Y233118D01*
X69613Y233139D01*
Y237500D01*
G37*
G36*
X65999D02*X69613D01*
Y233139D01*
X69580Y233147D01*
X69450Y233154D01*
X69320Y233138D01*
X69195Y233100D01*
X69079Y233041D01*
X68974Y232962D01*
X68885Y232866D01*
X68814Y232757D01*
X68763Y232636D01*
X68734Y232509D01*
X68727Y232379D01*
X68743Y232249D01*
X68781Y232124D01*
X68876Y231853D01*
X68944Y231573D01*
X68986Y231288D01*
X69000Y231000D01*
X68986Y230713D01*
X68944Y230428D01*
X68876Y230148D01*
X68781Y229877D01*
X68780D01*
X68742Y229752D01*
X68726Y229622D01*
X68733Y229491D01*
X68762Y229364D01*
X68813Y229243D01*
X68885Y229134D01*
X68974Y229038D01*
X69078Y228959D01*
X69195Y228900D01*
X69320Y228862D01*
X69450Y228846D01*
X69581Y228853D01*
X69613Y228860D01*
Y223139D01*
X69580Y223147D01*
X69450Y223154D01*
X69320Y223138D01*
X69195Y223100D01*
X69079Y223041D01*
X68974Y222962D01*
X68885Y222866D01*
X68814Y222757D01*
X68763Y222636D01*
X68734Y222509D01*
X68727Y222379D01*
X68743Y222249D01*
X68781Y222124D01*
X68876Y221853D01*
X68944Y221573D01*
X68986Y221288D01*
X69000Y221000D01*
X68986Y220713D01*
X68944Y220428D01*
X68876Y220148D01*
X68781Y219877D01*
X68780D01*
X68742Y219752D01*
X68726Y219622D01*
X68733Y219491D01*
X68762Y219364D01*
X68813Y219243D01*
X68885Y219134D01*
X68974Y219038D01*
X69078Y218959D01*
X69195Y218900D01*
X69320Y218862D01*
X69450Y218846D01*
X69581Y218853D01*
X69613Y218860D01*
Y214500D01*
X65999D01*
Y216500D01*
X66431Y216521D01*
X66858Y216583D01*
X67278Y216686D01*
X67685Y216828D01*
Y216829D01*
X67801Y216888D01*
X67906Y216967D01*
X67995Y217063D01*
X68066Y217172D01*
X68117Y217293D01*
X68146Y217420D01*
X68153Y217550D01*
X68137Y217680D01*
X68099Y217805D01*
X68040Y217921D01*
X67961Y218026D01*
X67865Y218115D01*
X67756Y218186D01*
X67635Y218237D01*
X67508Y218266D01*
X67378Y218273D01*
X67248Y218257D01*
X67123Y218219D01*
X66852Y218124D01*
X66572Y218056D01*
X66287Y218014D01*
X65999Y218000D01*
Y224000D01*
X66000D01*
X66287Y223987D01*
X66572Y223945D01*
X66852Y223877D01*
X67123Y223782D01*
Y223781D01*
X67248Y223743D01*
X67378Y223727D01*
X67509Y223734D01*
X67636Y223763D01*
X67757Y223814D01*
X67866Y223886D01*
X67962Y223975D01*
X68041Y224079D01*
X68100Y224196D01*
X68138Y224321D01*
X68154Y224451D01*
X68147Y224582D01*
X68118Y224709D01*
X68067Y224830D01*
X67995Y224939D01*
X67906Y225035D01*
X67802Y225114D01*
X67685Y225173D01*
X67278Y225315D01*
X66858Y225418D01*
X66431Y225480D01*
X66000Y225500D01*
X65999D01*
Y226500D01*
X66431Y226521D01*
X66858Y226583D01*
X67278Y226686D01*
X67685Y226828D01*
Y226829D01*
X67801Y226888D01*
X67906Y226967D01*
X67995Y227063D01*
X68066Y227172D01*
X68117Y227293D01*
X68146Y227420D01*
X68153Y227550D01*
X68137Y227680D01*
X68099Y227805D01*
X68040Y227921D01*
X67961Y228026D01*
X67865Y228115D01*
X67756Y228186D01*
X67635Y228237D01*
X67508Y228266D01*
X67378Y228273D01*
X67248Y228257D01*
X67123Y228219D01*
X66852Y228124D01*
X66572Y228056D01*
X66287Y228014D01*
X65999Y228000D01*
Y234000D01*
X66000D01*
X66287Y233987D01*
X66572Y233945D01*
X66852Y233877D01*
X67123Y233782D01*
Y233781D01*
X67248Y233743D01*
X67378Y233727D01*
X67509Y233734D01*
X67636Y233763D01*
X67757Y233814D01*
X67866Y233886D01*
X67962Y233975D01*
X68041Y234079D01*
X68100Y234196D01*
X68138Y234321D01*
X68154Y234451D01*
X68147Y234582D01*
X68118Y234709D01*
X68067Y234830D01*
X67995Y234939D01*
X67906Y235035D01*
X67802Y235114D01*
X67685Y235173D01*
X67278Y235315D01*
X66858Y235418D01*
X66431Y235480D01*
X66000Y235500D01*
X65999D01*
Y237500D01*
G37*
G36*
X62387D02*X65999D01*
Y235500D01*
X65568Y235480D01*
X65141Y235418D01*
X64721Y235315D01*
X64314Y235173D01*
Y235172D01*
X64198Y235113D01*
X64093Y235034D01*
X64004Y234938D01*
X63933Y234829D01*
X63882Y234708D01*
X63853Y234581D01*
X63846Y234451D01*
X63862Y234321D01*
X63900Y234196D01*
X63959Y234080D01*
X64038Y233975D01*
X64134Y233886D01*
X64243Y233815D01*
X64364Y233764D01*
X64491Y233735D01*
X64621Y233728D01*
X64751Y233744D01*
X64876Y233782D01*
X65147Y233877D01*
X65427Y233945D01*
X65712Y233987D01*
X65999Y234000D01*
Y228000D01*
X65712Y228014D01*
X65427Y228056D01*
X65147Y228124D01*
X64876Y228219D01*
Y228220D01*
X64751Y228258D01*
X64621Y228274D01*
X64490Y228267D01*
X64363Y228238D01*
X64242Y228187D01*
X64133Y228115D01*
X64037Y228026D01*
X63958Y227922D01*
X63899Y227805D01*
X63861Y227680D01*
X63845Y227550D01*
X63852Y227419D01*
X63881Y227292D01*
X63932Y227171D01*
X64004Y227062D01*
X64093Y226966D01*
X64197Y226887D01*
X64314Y226828D01*
X64721Y226686D01*
X65141Y226583D01*
X65568Y226521D01*
X65999Y226500D01*
Y225500D01*
X65568Y225480D01*
X65141Y225418D01*
X64721Y225315D01*
X64314Y225173D01*
Y225172D01*
X64198Y225113D01*
X64093Y225034D01*
X64004Y224938D01*
X63933Y224829D01*
X63882Y224708D01*
X63853Y224581D01*
X63846Y224451D01*
X63862Y224321D01*
X63900Y224196D01*
X63959Y224080D01*
X64038Y223975D01*
X64134Y223886D01*
X64243Y223815D01*
X64364Y223764D01*
X64491Y223735D01*
X64621Y223728D01*
X64751Y223744D01*
X64876Y223782D01*
X65147Y223877D01*
X65427Y223945D01*
X65712Y223987D01*
X65999Y224000D01*
Y218000D01*
X65712Y218014D01*
X65427Y218056D01*
X65147Y218124D01*
X64876Y218219D01*
Y218220D01*
X64751Y218258D01*
X64621Y218274D01*
X64490Y218267D01*
X64363Y218238D01*
X64242Y218187D01*
X64133Y218115D01*
X64037Y218026D01*
X63958Y217922D01*
X63899Y217805D01*
X63861Y217680D01*
X63845Y217550D01*
X63852Y217419D01*
X63881Y217292D01*
X63932Y217171D01*
X64004Y217062D01*
X64093Y216966D01*
X64197Y216887D01*
X64314Y216828D01*
X64721Y216686D01*
X65141Y216583D01*
X65568Y216521D01*
X65999Y216500D01*
Y214500D01*
X62387D01*
Y218861D01*
X62419Y218854D01*
X62549Y218847D01*
X62679Y218863D01*
X62804Y218901D01*
X62920Y218960D01*
X63025Y219039D01*
X63114Y219135D01*
X63185Y219244D01*
X63236Y219365D01*
X63265Y219492D01*
X63272Y219622D01*
X63256Y219752D01*
X63218Y219877D01*
X63123Y220148D01*
X63055Y220428D01*
X63013Y220713D01*
X63000Y221001D01*
X63013Y221288D01*
X63055Y221573D01*
X63123Y221853D01*
X63218Y222124D01*
X63219D01*
X63257Y222249D01*
X63273Y222379D01*
X63266Y222510D01*
X63237Y222637D01*
X63186Y222758D01*
X63114Y222867D01*
X63025Y222963D01*
X62921Y223042D01*
X62804Y223101D01*
X62679Y223139D01*
X62549Y223155D01*
X62418Y223148D01*
X62387Y223141D01*
Y228861D01*
X62419Y228854D01*
X62549Y228847D01*
X62679Y228863D01*
X62804Y228901D01*
X62920Y228960D01*
X63025Y229039D01*
X63114Y229135D01*
X63185Y229244D01*
X63236Y229365D01*
X63265Y229492D01*
X63272Y229622D01*
X63256Y229752D01*
X63218Y229877D01*
X63123Y230148D01*
X63055Y230428D01*
X63013Y230713D01*
X63000Y231001D01*
X63013Y231288D01*
X63055Y231573D01*
X63123Y231853D01*
X63218Y232124D01*
X63219D01*
X63257Y232249D01*
X63273Y232379D01*
X63266Y232510D01*
X63237Y232637D01*
X63186Y232758D01*
X63114Y232867D01*
X63025Y232963D01*
X62921Y233042D01*
X62804Y233101D01*
X62679Y233139D01*
X62549Y233155D01*
X62418Y233148D01*
X62387Y233141D01*
Y237500D01*
G37*
G36*
X56000D02*X62387D01*
Y233141D01*
X62291Y233119D01*
X62170Y233068D01*
X62061Y232996D01*
X61965Y232907D01*
X61886Y232803D01*
X61827Y232686D01*
X61685Y232279D01*
X61582Y231859D01*
X61520Y231432D01*
X61500Y231001D01*
X61520Y230569D01*
X61582Y230142D01*
X61685Y229722D01*
X61827Y229315D01*
X61828D01*
X61887Y229199D01*
X61966Y229094D01*
X62062Y229005D01*
X62171Y228934D01*
X62292Y228883D01*
X62387Y228861D01*
Y223141D01*
X62291Y223119D01*
X62170Y223068D01*
X62061Y222996D01*
X61965Y222907D01*
X61886Y222803D01*
X61827Y222686D01*
X61685Y222279D01*
X61582Y221859D01*
X61520Y221432D01*
X61500Y221001D01*
X61520Y220569D01*
X61582Y220142D01*
X61685Y219722D01*
X61827Y219315D01*
X61828D01*
X61887Y219199D01*
X61966Y219094D01*
X62062Y219005D01*
X62171Y218934D01*
X62292Y218883D01*
X62387Y218861D01*
Y214500D01*
X56000D01*
Y216500D01*
X59000D01*
X59260Y216523D01*
X59513Y216590D01*
X59750Y216701D01*
X59964Y216851D01*
X60149Y217036D01*
X60299Y217250D01*
X60410Y217487D01*
X60477Y217740D01*
X60500Y218000D01*
Y224000D01*
X60477Y224260D01*
X60410Y224513D01*
X60299Y224750D01*
X60149Y224964D01*
X59964Y225149D01*
X59750Y225299D01*
X59513Y225410D01*
X59260Y225477D01*
X59000Y225500D01*
X56000D01*
Y226500D01*
X59000D01*
X59260Y226523D01*
X59513Y226590D01*
X59750Y226701D01*
X59964Y226851D01*
X60149Y227036D01*
X60299Y227250D01*
X60410Y227487D01*
X60477Y227740D01*
X60500Y228000D01*
Y234000D01*
X60477Y234260D01*
X60410Y234513D01*
X60299Y234750D01*
X60149Y234964D01*
X59964Y235149D01*
X59750Y235299D01*
X59513Y235410D01*
X59260Y235477D01*
X59000Y235500D01*
X56000D01*
Y237500D01*
G37*
G36*
X49500Y214500D02*Y237500D01*
X56000D01*
Y235500D01*
X53000D01*
X52740Y235477D01*
X52487Y235410D01*
X52250Y235299D01*
X52036Y235149D01*
X51851Y234964D01*
X51701Y234750D01*
X51590Y234513D01*
X51523Y234260D01*
X51500Y234000D01*
Y228000D01*
X51523Y227740D01*
X51590Y227487D01*
X51701Y227250D01*
X51851Y227036D01*
X52036Y226851D01*
X52250Y226701D01*
X52487Y226590D01*
X52740Y226523D01*
X53000Y226500D01*
X56000D01*
Y225500D01*
X53000D01*
X52740Y225477D01*
X52487Y225410D01*
X52250Y225299D01*
X52036Y225149D01*
X51851Y224964D01*
X51701Y224750D01*
X51590Y224513D01*
X51523Y224260D01*
X51500Y224000D01*
Y218000D01*
X51523Y217740D01*
X51590Y217487D01*
X51701Y217250D01*
X51851Y217036D01*
X52036Y216851D01*
X52250Y216701D01*
X52487Y216590D01*
X52740Y216523D01*
X53000Y216500D01*
X56000D01*
Y214500D01*
X49500D01*
G37*
G36*
X40500Y217000D02*Y235000D01*
X51000D01*
Y217000D01*
X40500D01*
G37*
G36*
X111500Y221500D02*Y237000D01*
X118500D01*
Y221500D01*
X111500D01*
G37*
G36*
X206000Y237500D02*X212500D01*
Y214500D01*
X206000D01*
Y216500D01*
X206781Y216568D01*
X207539Y216771D01*
X208250Y217103D01*
X208893Y217553D01*
X209447Y218107D01*
X209897Y218750D01*
X210229Y219461D01*
X210432Y220219D01*
X210500Y221000D01*
X210432Y221781D01*
X210229Y222539D01*
X209897Y223250D01*
X209447Y223893D01*
X208893Y224447D01*
X208250Y224897D01*
X207539Y225229D01*
X206781Y225432D01*
X206000Y225500D01*
Y226500D01*
X206781Y226568D01*
X207539Y226771D01*
X208250Y227103D01*
X208893Y227553D01*
X209447Y228107D01*
X209897Y228750D01*
X210229Y229461D01*
X210432Y230219D01*
X210500Y231000D01*
X210432Y231781D01*
X210229Y232539D01*
X209897Y233250D01*
X209447Y233893D01*
X208893Y234447D01*
X208250Y234897D01*
X207539Y235229D01*
X206781Y235432D01*
X206000Y235500D01*
Y237500D01*
G37*
G36*
X199613D02*X206000D01*
Y235500D01*
X205219Y235432D01*
X204461Y235229D01*
X203750Y234897D01*
X203107Y234447D01*
X202553Y233893D01*
X202103Y233250D01*
X201771Y232539D01*
X201568Y231781D01*
X201500Y231000D01*
X201568Y230219D01*
X201771Y229461D01*
X202103Y228750D01*
X202553Y228107D01*
X203107Y227553D01*
X203750Y227103D01*
X204461Y226771D01*
X205219Y226568D01*
X206000Y226500D01*
Y225500D01*
X205219Y225432D01*
X204461Y225229D01*
X203750Y224897D01*
X203107Y224447D01*
X202553Y223893D01*
X202103Y223250D01*
X201771Y222539D01*
X201568Y221781D01*
X201500Y221000D01*
X201568Y220219D01*
X201771Y219461D01*
X202103Y218750D01*
X202553Y218107D01*
X203107Y217553D01*
X203750Y217103D01*
X204461Y216771D01*
X205219Y216568D01*
X206000Y216500D01*
Y214500D01*
X199613D01*
Y218860D01*
X199708Y218882D01*
X199829Y218933D01*
X199938Y219005D01*
X200034Y219094D01*
X200113Y219198D01*
X200172Y219315D01*
X200314Y219722D01*
X200417Y220142D01*
X200479Y220569D01*
X200500Y221000D01*
X200479Y221432D01*
X200417Y221859D01*
X200314Y222279D01*
X200172Y222686D01*
X200171D01*
X200112Y222802D01*
X200033Y222907D01*
X199937Y222996D01*
X199828Y223067D01*
X199707Y223118D01*
X199613Y223139D01*
Y228860D01*
X199708Y228882D01*
X199829Y228933D01*
X199938Y229005D01*
X200034Y229094D01*
X200113Y229198D01*
X200172Y229315D01*
X200314Y229722D01*
X200417Y230142D01*
X200479Y230569D01*
X200500Y231000D01*
X200479Y231432D01*
X200417Y231859D01*
X200314Y232279D01*
X200172Y232686D01*
X200171D01*
X200112Y232802D01*
X200033Y232907D01*
X199937Y232996D01*
X199828Y233067D01*
X199707Y233118D01*
X199613Y233139D01*
Y237500D01*
G37*
G36*
X196000D02*X199613D01*
Y233139D01*
X199580Y233147D01*
X199450Y233154D01*
X199320Y233138D01*
X199195Y233100D01*
X199079Y233041D01*
X198974Y232962D01*
X198885Y232866D01*
X198814Y232757D01*
X198763Y232636D01*
X198734Y232509D01*
X198727Y232379D01*
X198743Y232249D01*
X198781Y232124D01*
X198876Y231853D01*
X198944Y231573D01*
X198986Y231288D01*
X199000Y231000D01*
X198986Y230713D01*
X198944Y230428D01*
X198876Y230148D01*
X198781Y229877D01*
X198780D01*
X198742Y229752D01*
X198726Y229622D01*
X198733Y229491D01*
X198762Y229364D01*
X198813Y229243D01*
X198885Y229134D01*
X198974Y229038D01*
X199078Y228959D01*
X199195Y228900D01*
X199320Y228862D01*
X199450Y228846D01*
X199581Y228853D01*
X199613Y228860D01*
Y223139D01*
X199580Y223147D01*
X199450Y223154D01*
X199320Y223138D01*
X199195Y223100D01*
X199079Y223041D01*
X198974Y222962D01*
X198885Y222866D01*
X198814Y222757D01*
X198763Y222636D01*
X198734Y222509D01*
X198727Y222379D01*
X198743Y222249D01*
X198781Y222124D01*
X198876Y221853D01*
X198944Y221573D01*
X198986Y221288D01*
X199000Y221000D01*
X198986Y220713D01*
X198944Y220428D01*
X198876Y220148D01*
X198781Y219877D01*
X198780D01*
X198742Y219752D01*
X198726Y219622D01*
X198733Y219491D01*
X198762Y219364D01*
X198813Y219243D01*
X198885Y219134D01*
X198974Y219038D01*
X199078Y218959D01*
X199195Y218900D01*
X199320Y218862D01*
X199450Y218846D01*
X199581Y218853D01*
X199613Y218860D01*
Y214500D01*
X196000D01*
Y216500D01*
X196431Y216521D01*
X196858Y216583D01*
X197278Y216686D01*
X197685Y216828D01*
Y216829D01*
X197801Y216888D01*
X197906Y216967D01*
X197995Y217063D01*
X198066Y217172D01*
X198117Y217293D01*
X198146Y217420D01*
X198153Y217550D01*
X198137Y217680D01*
X198099Y217805D01*
X198040Y217921D01*
X197961Y218026D01*
X197865Y218115D01*
X197756Y218186D01*
X197635Y218237D01*
X197508Y218266D01*
X197378Y218273D01*
X197248Y218257D01*
X197123Y218219D01*
X196852Y218124D01*
X196572Y218056D01*
X196287Y218014D01*
X196000Y218000D01*
Y224000D01*
X196287Y223987D01*
X196572Y223945D01*
X196852Y223877D01*
X197123Y223782D01*
Y223781D01*
X197248Y223743D01*
X197378Y223727D01*
X197509Y223734D01*
X197636Y223763D01*
X197757Y223814D01*
X197866Y223886D01*
X197962Y223975D01*
X198041Y224079D01*
X198100Y224196D01*
X198138Y224321D01*
X198154Y224451D01*
X198147Y224582D01*
X198118Y224709D01*
X198067Y224830D01*
X197995Y224939D01*
X197906Y225035D01*
X197802Y225114D01*
X197685Y225173D01*
X197278Y225315D01*
X196858Y225418D01*
X196431Y225480D01*
X196000Y225500D01*
Y226500D01*
X196431Y226521D01*
X196858Y226583D01*
X197278Y226686D01*
X197685Y226828D01*
Y226829D01*
X197801Y226888D01*
X197906Y226967D01*
X197995Y227063D01*
X198066Y227172D01*
X198117Y227293D01*
X198146Y227420D01*
X198153Y227550D01*
X198137Y227680D01*
X198099Y227805D01*
X198040Y227921D01*
X197961Y228026D01*
X197865Y228115D01*
X197756Y228186D01*
X197635Y228237D01*
X197508Y228266D01*
X197378Y228273D01*
X197248Y228257D01*
X197123Y228219D01*
X196852Y228124D01*
X196572Y228056D01*
X196287Y228014D01*
X196000Y228000D01*
Y234000D01*
X196287Y233987D01*
X196572Y233945D01*
X196852Y233877D01*
X197123Y233782D01*
Y233781D01*
X197248Y233743D01*
X197378Y233727D01*
X197509Y233734D01*
X197636Y233763D01*
X197757Y233814D01*
X197866Y233886D01*
X197962Y233975D01*
X198041Y234079D01*
X198100Y234196D01*
X198138Y234321D01*
X198154Y234451D01*
X198147Y234582D01*
X198118Y234709D01*
X198067Y234830D01*
X197995Y234939D01*
X197906Y235035D01*
X197802Y235114D01*
X197685Y235173D01*
X197278Y235315D01*
X196858Y235418D01*
X196431Y235480D01*
X196000Y235500D01*
Y237500D01*
G37*
G36*
X192387D02*X196000D01*
Y235500D01*
X195568Y235480D01*
X195141Y235418D01*
X194721Y235315D01*
X194314Y235173D01*
Y235172D01*
X194198Y235113D01*
X194093Y235034D01*
X194004Y234938D01*
X193933Y234829D01*
X193882Y234708D01*
X193853Y234581D01*
X193846Y234451D01*
X193862Y234321D01*
X193900Y234196D01*
X193959Y234080D01*
X194038Y233975D01*
X194134Y233886D01*
X194243Y233815D01*
X194364Y233764D01*
X194491Y233735D01*
X194621Y233728D01*
X194751Y233744D01*
X194876Y233782D01*
X195147Y233877D01*
X195427Y233945D01*
X195712Y233987D01*
X196000Y234000D01*
Y228000D01*
X195999D01*
X195712Y228014D01*
X195427Y228056D01*
X195147Y228124D01*
X194876Y228219D01*
Y228220D01*
X194751Y228258D01*
X194621Y228274D01*
X194490Y228267D01*
X194363Y228238D01*
X194242Y228187D01*
X194133Y228115D01*
X194037Y228026D01*
X193958Y227922D01*
X193899Y227805D01*
X193861Y227680D01*
X193845Y227550D01*
X193852Y227419D01*
X193881Y227292D01*
X193932Y227171D01*
X194004Y227062D01*
X194093Y226966D01*
X194197Y226887D01*
X194314Y226828D01*
X194721Y226686D01*
X195141Y226583D01*
X195568Y226521D01*
X195999Y226500D01*
X196000D01*
Y225500D01*
X195568Y225480D01*
X195141Y225418D01*
X194721Y225315D01*
X194314Y225173D01*
Y225172D01*
X194198Y225113D01*
X194093Y225034D01*
X194004Y224938D01*
X193933Y224829D01*
X193882Y224708D01*
X193853Y224581D01*
X193846Y224451D01*
X193862Y224321D01*
X193900Y224196D01*
X193959Y224080D01*
X194038Y223975D01*
X194134Y223886D01*
X194243Y223815D01*
X194364Y223764D01*
X194491Y223735D01*
X194621Y223728D01*
X194751Y223744D01*
X194876Y223782D01*
X195147Y223877D01*
X195427Y223945D01*
X195712Y223987D01*
X196000Y224000D01*
Y218000D01*
X195999D01*
X195712Y218014D01*
X195427Y218056D01*
X195147Y218124D01*
X194876Y218219D01*
Y218220D01*
X194751Y218258D01*
X194621Y218274D01*
X194490Y218267D01*
X194363Y218238D01*
X194242Y218187D01*
X194133Y218115D01*
X194037Y218026D01*
X193958Y217922D01*
X193899Y217805D01*
X193861Y217680D01*
X193845Y217550D01*
X193852Y217419D01*
X193881Y217292D01*
X193932Y217171D01*
X194004Y217062D01*
X194093Y216966D01*
X194197Y216887D01*
X194314Y216828D01*
X194721Y216686D01*
X195141Y216583D01*
X195568Y216521D01*
X195999Y216500D01*
X196000D01*
Y214500D01*
X192387D01*
Y218861D01*
X192419Y218854D01*
X192549Y218847D01*
X192679Y218863D01*
X192804Y218901D01*
X192920Y218960D01*
X193025Y219039D01*
X193114Y219135D01*
X193185Y219244D01*
X193236Y219365D01*
X193265Y219492D01*
X193272Y219622D01*
X193256Y219752D01*
X193218Y219877D01*
X193123Y220148D01*
X193055Y220428D01*
X193013Y220713D01*
X193000Y221001D01*
X193013Y221288D01*
X193055Y221573D01*
X193123Y221853D01*
X193218Y222124D01*
X193219D01*
X193257Y222249D01*
X193273Y222379D01*
X193266Y222510D01*
X193237Y222637D01*
X193186Y222758D01*
X193114Y222867D01*
X193025Y222963D01*
X192921Y223042D01*
X192804Y223101D01*
X192679Y223139D01*
X192549Y223155D01*
X192418Y223148D01*
X192387Y223141D01*
Y228861D01*
X192419Y228854D01*
X192549Y228847D01*
X192679Y228863D01*
X192804Y228901D01*
X192920Y228960D01*
X193025Y229039D01*
X193114Y229135D01*
X193185Y229244D01*
X193236Y229365D01*
X193265Y229492D01*
X193272Y229622D01*
X193256Y229752D01*
X193218Y229877D01*
X193123Y230148D01*
X193055Y230428D01*
X193013Y230713D01*
X193000Y231001D01*
X193013Y231288D01*
X193055Y231573D01*
X193123Y231853D01*
X193218Y232124D01*
X193219D01*
X193257Y232249D01*
X193273Y232379D01*
X193266Y232510D01*
X193237Y232637D01*
X193186Y232758D01*
X193114Y232867D01*
X193025Y232963D01*
X192921Y233042D01*
X192804Y233101D01*
X192679Y233139D01*
X192549Y233155D01*
X192418Y233148D01*
X192387Y233141D01*
Y237500D01*
G37*
G36*
X186000D02*X192387D01*
Y233141D01*
X192291Y233119D01*
X192170Y233068D01*
X192061Y232996D01*
X191965Y232907D01*
X191886Y232803D01*
X191827Y232686D01*
X191685Y232279D01*
X191582Y231859D01*
X191520Y231432D01*
X191500Y231001D01*
X191520Y230569D01*
X191582Y230142D01*
X191685Y229722D01*
X191827Y229315D01*
X191828D01*
X191887Y229199D01*
X191966Y229094D01*
X192062Y229005D01*
X192171Y228934D01*
X192292Y228883D01*
X192387Y228861D01*
Y223141D01*
X192291Y223119D01*
X192170Y223068D01*
X192061Y222996D01*
X191965Y222907D01*
X191886Y222803D01*
X191827Y222686D01*
X191685Y222279D01*
X191582Y221859D01*
X191520Y221432D01*
X191500Y221001D01*
X191520Y220569D01*
X191582Y220142D01*
X191685Y219722D01*
X191827Y219315D01*
X191828D01*
X191887Y219199D01*
X191966Y219094D01*
X192062Y219005D01*
X192171Y218934D01*
X192292Y218883D01*
X192387Y218861D01*
Y214500D01*
X186000D01*
Y216500D01*
X186781Y216568D01*
X187539Y216771D01*
X188250Y217103D01*
X188893Y217553D01*
X189447Y218107D01*
X189897Y218750D01*
X190229Y219461D01*
X190432Y220219D01*
X190500Y221000D01*
X190432Y221781D01*
X190229Y222539D01*
X189897Y223250D01*
X189447Y223893D01*
X188893Y224447D01*
X188250Y224897D01*
X187539Y225229D01*
X186781Y225432D01*
X186000Y225500D01*
Y226500D01*
X186781Y226568D01*
X187539Y226771D01*
X188250Y227103D01*
X188893Y227553D01*
X189447Y228107D01*
X189897Y228750D01*
X190229Y229461D01*
X190432Y230219D01*
X190500Y231000D01*
X190432Y231781D01*
X190229Y232539D01*
X189897Y233250D01*
X189447Y233893D01*
X188893Y234447D01*
X188250Y234897D01*
X187539Y235229D01*
X186781Y235432D01*
X186000Y235500D01*
Y237500D01*
G37*
G36*
X179613D02*X186000D01*
Y235500D01*
X185219Y235432D01*
X184461Y235229D01*
X183750Y234897D01*
X183107Y234447D01*
X182553Y233893D01*
X182103Y233250D01*
X181771Y232539D01*
X181568Y231781D01*
X181500Y231000D01*
X181568Y230219D01*
X181771Y229461D01*
X182103Y228750D01*
X182553Y228107D01*
X183107Y227553D01*
X183750Y227103D01*
X184461Y226771D01*
X185219Y226568D01*
X186000Y226500D01*
Y225500D01*
X185219Y225432D01*
X184461Y225229D01*
X183750Y224897D01*
X183107Y224447D01*
X182553Y223893D01*
X182103Y223250D01*
X181771Y222539D01*
X181568Y221781D01*
X181500Y221000D01*
X181568Y220219D01*
X181771Y219461D01*
X182103Y218750D01*
X182553Y218107D01*
X183107Y217553D01*
X183750Y217103D01*
X184461Y216771D01*
X185219Y216568D01*
X186000Y216500D01*
Y214500D01*
X179613D01*
Y218860D01*
X179708Y218882D01*
X179829Y218933D01*
X179938Y219005D01*
X180034Y219094D01*
X180113Y219198D01*
X180172Y219315D01*
X180314Y219722D01*
X180417Y220142D01*
X180479Y220569D01*
X180500Y221000D01*
X180479Y221432D01*
X180417Y221859D01*
X180314Y222279D01*
X180172Y222686D01*
X180171D01*
X180112Y222802D01*
X180033Y222907D01*
X179937Y222996D01*
X179828Y223067D01*
X179707Y223118D01*
X179613Y223139D01*
Y228860D01*
X179708Y228882D01*
X179829Y228933D01*
X179938Y229005D01*
X180034Y229094D01*
X180113Y229198D01*
X180172Y229315D01*
X180314Y229722D01*
X180417Y230142D01*
X180479Y230569D01*
X180500Y231000D01*
X180479Y231432D01*
X180417Y231859D01*
X180314Y232279D01*
X180172Y232686D01*
X180171D01*
X180112Y232802D01*
X180033Y232907D01*
X179937Y232996D01*
X179828Y233067D01*
X179707Y233118D01*
X179613Y233139D01*
Y237500D01*
G37*
G36*
X176000D02*X179613D01*
Y233139D01*
X179580Y233147D01*
X179450Y233154D01*
X179320Y233138D01*
X179195Y233100D01*
X179079Y233041D01*
X178974Y232962D01*
X178885Y232866D01*
X178814Y232757D01*
X178763Y232636D01*
X178734Y232509D01*
X178727Y232379D01*
X178743Y232249D01*
X178781Y232124D01*
X178876Y231853D01*
X178944Y231573D01*
X178986Y231288D01*
X179000Y231000D01*
X178986Y230713D01*
X178944Y230428D01*
X178876Y230148D01*
X178781Y229877D01*
X178780D01*
X178742Y229752D01*
X178726Y229622D01*
X178733Y229491D01*
X178762Y229364D01*
X178813Y229243D01*
X178885Y229134D01*
X178974Y229038D01*
X179078Y228959D01*
X179195Y228900D01*
X179320Y228862D01*
X179450Y228846D01*
X179581Y228853D01*
X179613Y228860D01*
Y223139D01*
X179580Y223147D01*
X179450Y223154D01*
X179320Y223138D01*
X179195Y223100D01*
X179079Y223041D01*
X178974Y222962D01*
X178885Y222866D01*
X178814Y222757D01*
X178763Y222636D01*
X178734Y222509D01*
X178727Y222379D01*
X178743Y222249D01*
X178781Y222124D01*
X178876Y221853D01*
X178944Y221573D01*
X178986Y221288D01*
X179000Y221000D01*
X178986Y220713D01*
X178944Y220428D01*
X178876Y220148D01*
X178781Y219877D01*
X178780D01*
X178742Y219752D01*
X178726Y219622D01*
X178733Y219491D01*
X178762Y219364D01*
X178813Y219243D01*
X178885Y219134D01*
X178974Y219038D01*
X179078Y218959D01*
X179195Y218900D01*
X179320Y218862D01*
X179450Y218846D01*
X179581Y218853D01*
X179613Y218860D01*
Y214500D01*
X176000D01*
Y216500D01*
X176431Y216521D01*
X176858Y216583D01*
X177278Y216686D01*
X177685Y216828D01*
Y216829D01*
X177801Y216888D01*
X177906Y216967D01*
X177995Y217063D01*
X178066Y217172D01*
X178117Y217293D01*
X178146Y217420D01*
X178153Y217550D01*
X178137Y217680D01*
X178099Y217805D01*
X178040Y217921D01*
X177961Y218026D01*
X177865Y218115D01*
X177756Y218186D01*
X177635Y218237D01*
X177508Y218266D01*
X177378Y218273D01*
X177248Y218257D01*
X177123Y218219D01*
X176852Y218124D01*
X176572Y218056D01*
X176287Y218014D01*
X176000Y218000D01*
Y224000D01*
X176287Y223987D01*
X176572Y223945D01*
X176852Y223877D01*
X177123Y223782D01*
Y223781D01*
X177248Y223743D01*
X177378Y223727D01*
X177509Y223734D01*
X177636Y223763D01*
X177757Y223814D01*
X177866Y223886D01*
X177962Y223975D01*
X178041Y224079D01*
X178100Y224196D01*
X178138Y224321D01*
X178154Y224451D01*
X178147Y224582D01*
X178118Y224709D01*
X178067Y224830D01*
X177995Y224939D01*
X177906Y225035D01*
X177802Y225114D01*
X177685Y225173D01*
X177278Y225315D01*
X176858Y225418D01*
X176431Y225480D01*
X176000Y225500D01*
Y226500D01*
X176431Y226521D01*
X176858Y226583D01*
X177278Y226686D01*
X177685Y226828D01*
Y226829D01*
X177801Y226888D01*
X177906Y226967D01*
X177995Y227063D01*
X178066Y227172D01*
X178117Y227293D01*
X178146Y227420D01*
X178153Y227550D01*
X178137Y227680D01*
X178099Y227805D01*
X178040Y227921D01*
X177961Y228026D01*
X177865Y228115D01*
X177756Y228186D01*
X177635Y228237D01*
X177508Y228266D01*
X177378Y228273D01*
X177248Y228257D01*
X177123Y228219D01*
X176852Y228124D01*
X176572Y228056D01*
X176287Y228014D01*
X176000Y228000D01*
Y234000D01*
X176287Y233987D01*
X176572Y233945D01*
X176852Y233877D01*
X177123Y233782D01*
Y233781D01*
X177248Y233743D01*
X177378Y233727D01*
X177509Y233734D01*
X177636Y233763D01*
X177757Y233814D01*
X177866Y233886D01*
X177962Y233975D01*
X178041Y234079D01*
X178100Y234196D01*
X178138Y234321D01*
X178154Y234451D01*
X178147Y234582D01*
X178118Y234709D01*
X178067Y234830D01*
X177995Y234939D01*
X177906Y235035D01*
X177802Y235114D01*
X177685Y235173D01*
X177278Y235315D01*
X176858Y235418D01*
X176431Y235480D01*
X176000Y235500D01*
Y237500D01*
G37*
G36*
X172387D02*X176000D01*
Y235500D01*
X175568Y235480D01*
X175141Y235418D01*
X174721Y235315D01*
X174314Y235173D01*
Y235172D01*
X174198Y235113D01*
X174093Y235034D01*
X174004Y234938D01*
X173933Y234829D01*
X173882Y234708D01*
X173853Y234581D01*
X173846Y234451D01*
X173862Y234321D01*
X173900Y234196D01*
X173959Y234080D01*
X174038Y233975D01*
X174134Y233886D01*
X174243Y233815D01*
X174364Y233764D01*
X174491Y233735D01*
X174621Y233728D01*
X174751Y233744D01*
X174876Y233782D01*
X175147Y233877D01*
X175427Y233945D01*
X175712Y233987D01*
X176000Y234000D01*
Y228000D01*
X175999D01*
X175712Y228014D01*
X175427Y228056D01*
X175147Y228124D01*
X174876Y228219D01*
Y228220D01*
X174751Y228258D01*
X174621Y228274D01*
X174490Y228267D01*
X174363Y228238D01*
X174242Y228187D01*
X174133Y228115D01*
X174037Y228026D01*
X173958Y227922D01*
X173899Y227805D01*
X173861Y227680D01*
X173845Y227550D01*
X173852Y227419D01*
X173881Y227292D01*
X173932Y227171D01*
X174004Y227062D01*
X174093Y226966D01*
X174197Y226887D01*
X174314Y226828D01*
X174721Y226686D01*
X175141Y226583D01*
X175568Y226521D01*
X175999Y226500D01*
X176000D01*
Y225500D01*
X175568Y225480D01*
X175141Y225418D01*
X174721Y225315D01*
X174314Y225173D01*
Y225172D01*
X174198Y225113D01*
X174093Y225034D01*
X174004Y224938D01*
X173933Y224829D01*
X173882Y224708D01*
X173853Y224581D01*
X173846Y224451D01*
X173862Y224321D01*
X173900Y224196D01*
X173959Y224080D01*
X174038Y223975D01*
X174134Y223886D01*
X174243Y223815D01*
X174364Y223764D01*
X174491Y223735D01*
X174621Y223728D01*
X174751Y223744D01*
X174876Y223782D01*
X175147Y223877D01*
X175427Y223945D01*
X175712Y223987D01*
X176000Y224000D01*
Y218000D01*
X175999D01*
X175712Y218014D01*
X175427Y218056D01*
X175147Y218124D01*
X174876Y218219D01*
Y218220D01*
X174751Y218258D01*
X174621Y218274D01*
X174490Y218267D01*
X174363Y218238D01*
X174242Y218187D01*
X174133Y218115D01*
X174037Y218026D01*
X173958Y217922D01*
X173899Y217805D01*
X173861Y217680D01*
X173845Y217550D01*
X173852Y217419D01*
X173881Y217292D01*
X173932Y217171D01*
X174004Y217062D01*
X174093Y216966D01*
X174197Y216887D01*
X174314Y216828D01*
X174721Y216686D01*
X175141Y216583D01*
X175568Y216521D01*
X175999Y216500D01*
X176000D01*
Y214500D01*
X172387D01*
Y218861D01*
X172419Y218854D01*
X172549Y218847D01*
X172679Y218863D01*
X172804Y218901D01*
X172920Y218960D01*
X173025Y219039D01*
X173114Y219135D01*
X173185Y219244D01*
X173236Y219365D01*
X173265Y219492D01*
X173272Y219622D01*
X173256Y219752D01*
X173218Y219877D01*
X173123Y220148D01*
X173055Y220428D01*
X173013Y220713D01*
X173000Y221001D01*
X173013Y221288D01*
X173055Y221573D01*
X173123Y221853D01*
X173218Y222124D01*
X173219D01*
X173257Y222249D01*
X173273Y222379D01*
X173266Y222510D01*
X173237Y222637D01*
X173186Y222758D01*
X173114Y222867D01*
X173025Y222963D01*
X172921Y223042D01*
X172804Y223101D01*
X172679Y223139D01*
X172549Y223155D01*
X172418Y223148D01*
X172387Y223141D01*
Y228861D01*
X172419Y228854D01*
X172549Y228847D01*
X172679Y228863D01*
X172804Y228901D01*
X172920Y228960D01*
X173025Y229039D01*
X173114Y229135D01*
X173185Y229244D01*
X173236Y229365D01*
X173265Y229492D01*
X173272Y229622D01*
X173256Y229752D01*
X173218Y229877D01*
X173123Y230148D01*
X173055Y230428D01*
X173013Y230713D01*
X173000Y231001D01*
X173013Y231288D01*
X173055Y231573D01*
X173123Y231853D01*
X173218Y232124D01*
X173219D01*
X173257Y232249D01*
X173273Y232379D01*
X173266Y232510D01*
X173237Y232637D01*
X173186Y232758D01*
X173114Y232867D01*
X173025Y232963D01*
X172921Y233042D01*
X172804Y233101D01*
X172679Y233139D01*
X172549Y233155D01*
X172418Y233148D01*
X172387Y233141D01*
Y237500D01*
G37*
G36*
X166000D02*X172387D01*
Y233141D01*
X172291Y233119D01*
X172170Y233068D01*
X172061Y232996D01*
X171965Y232907D01*
X171886Y232803D01*
X171827Y232686D01*
X171685Y232279D01*
X171582Y231859D01*
X171520Y231432D01*
X171500Y231001D01*
X171520Y230569D01*
X171582Y230142D01*
X171685Y229722D01*
X171827Y229315D01*
X171828D01*
X171887Y229199D01*
X171966Y229094D01*
X172062Y229005D01*
X172171Y228934D01*
X172292Y228883D01*
X172387Y228861D01*
Y223141D01*
X172291Y223119D01*
X172170Y223068D01*
X172061Y222996D01*
X171965Y222907D01*
X171886Y222803D01*
X171827Y222686D01*
X171685Y222279D01*
X171582Y221859D01*
X171520Y221432D01*
X171500Y221001D01*
X171520Y220569D01*
X171582Y220142D01*
X171685Y219722D01*
X171827Y219315D01*
X171828D01*
X171887Y219199D01*
X171966Y219094D01*
X172062Y219005D01*
X172171Y218934D01*
X172292Y218883D01*
X172387Y218861D01*
Y214500D01*
X166000D01*
Y216500D01*
X166781Y216568D01*
X167539Y216771D01*
X168250Y217103D01*
X168893Y217553D01*
X169447Y218107D01*
X169897Y218750D01*
X170229Y219461D01*
X170432Y220219D01*
X170500Y221000D01*
X170432Y221781D01*
X170229Y222539D01*
X169897Y223250D01*
X169447Y223893D01*
X168893Y224447D01*
X168250Y224897D01*
X167539Y225229D01*
X166781Y225432D01*
X166000Y225500D01*
Y226500D01*
X166781Y226568D01*
X167539Y226771D01*
X168250Y227103D01*
X168893Y227553D01*
X169447Y228107D01*
X169897Y228750D01*
X170229Y229461D01*
X170432Y230219D01*
X170500Y231000D01*
X170432Y231781D01*
X170229Y232539D01*
X169897Y233250D01*
X169447Y233893D01*
X168893Y234447D01*
X168250Y234897D01*
X167539Y235229D01*
X166781Y235432D01*
X166000Y235500D01*
Y237500D01*
G37*
G36*
X159613D02*X166000D01*
Y235500D01*
X165219Y235432D01*
X164461Y235229D01*
X163750Y234897D01*
X163107Y234447D01*
X162553Y233893D01*
X162103Y233250D01*
X161771Y232539D01*
X161568Y231781D01*
X161500Y231000D01*
X161568Y230219D01*
X161771Y229461D01*
X162103Y228750D01*
X162553Y228107D01*
X163107Y227553D01*
X163750Y227103D01*
X164461Y226771D01*
X165219Y226568D01*
X166000Y226500D01*
Y225500D01*
X165219Y225432D01*
X164461Y225229D01*
X163750Y224897D01*
X163107Y224447D01*
X162553Y223893D01*
X162103Y223250D01*
X161771Y222539D01*
X161568Y221781D01*
X161500Y221000D01*
X161568Y220219D01*
X161771Y219461D01*
X162103Y218750D01*
X162553Y218107D01*
X163107Y217553D01*
X163750Y217103D01*
X164461Y216771D01*
X165219Y216568D01*
X166000Y216500D01*
Y214500D01*
X159613D01*
Y218860D01*
X159708Y218882D01*
X159829Y218933D01*
X159938Y219005D01*
X160034Y219094D01*
X160113Y219198D01*
X160172Y219315D01*
X160314Y219722D01*
X160417Y220142D01*
X160479Y220569D01*
X160500Y221000D01*
X160479Y221432D01*
X160417Y221859D01*
X160314Y222279D01*
X160172Y222686D01*
X160171D01*
X160112Y222802D01*
X160033Y222907D01*
X159937Y222996D01*
X159828Y223067D01*
X159707Y223118D01*
X159613Y223139D01*
Y228860D01*
X159708Y228882D01*
X159829Y228933D01*
X159938Y229005D01*
X160034Y229094D01*
X160113Y229198D01*
X160172Y229315D01*
X160314Y229722D01*
X160417Y230142D01*
X160479Y230569D01*
X160500Y231000D01*
X160479Y231432D01*
X160417Y231859D01*
X160314Y232279D01*
X160172Y232686D01*
X160171D01*
X160112Y232802D01*
X160033Y232907D01*
X159937Y232996D01*
X159828Y233067D01*
X159707Y233118D01*
X159613Y233139D01*
Y237500D01*
G37*
G36*
X155999D02*X159613D01*
Y233139D01*
X159580Y233147D01*
X159450Y233154D01*
X159320Y233138D01*
X159195Y233100D01*
X159079Y233041D01*
X158974Y232962D01*
X158885Y232866D01*
X158814Y232757D01*
X158763Y232636D01*
X158734Y232509D01*
X158727Y232379D01*
X158743Y232249D01*
X158781Y232124D01*
X158876Y231853D01*
X158944Y231573D01*
X158986Y231288D01*
X159000Y231000D01*
X158986Y230713D01*
X158944Y230428D01*
X158876Y230148D01*
X158781Y229877D01*
X158780D01*
X158742Y229752D01*
X158726Y229622D01*
X158733Y229491D01*
X158762Y229364D01*
X158813Y229243D01*
X158885Y229134D01*
X158974Y229038D01*
X159078Y228959D01*
X159195Y228900D01*
X159320Y228862D01*
X159450Y228846D01*
X159581Y228853D01*
X159613Y228860D01*
Y223139D01*
X159580Y223147D01*
X159450Y223154D01*
X159320Y223138D01*
X159195Y223100D01*
X159079Y223041D01*
X158974Y222962D01*
X158885Y222866D01*
X158814Y222757D01*
X158763Y222636D01*
X158734Y222509D01*
X158727Y222379D01*
X158743Y222249D01*
X158781Y222124D01*
X158876Y221853D01*
X158944Y221573D01*
X158986Y221288D01*
X159000Y221000D01*
X158986Y220713D01*
X158944Y220428D01*
X158876Y220148D01*
X158781Y219877D01*
X158780D01*
X158742Y219752D01*
X158726Y219622D01*
X158733Y219491D01*
X158762Y219364D01*
X158813Y219243D01*
X158885Y219134D01*
X158974Y219038D01*
X159078Y218959D01*
X159195Y218900D01*
X159320Y218862D01*
X159450Y218846D01*
X159581Y218853D01*
X159613Y218860D01*
Y214500D01*
X155999D01*
Y216500D01*
X156431Y216521D01*
X156858Y216583D01*
X157278Y216686D01*
X157685Y216828D01*
Y216829D01*
X157801Y216888D01*
X157906Y216967D01*
X157995Y217063D01*
X158066Y217172D01*
X158117Y217293D01*
X158146Y217420D01*
X158153Y217550D01*
X158137Y217680D01*
X158099Y217805D01*
X158040Y217921D01*
X157961Y218026D01*
X157865Y218115D01*
X157756Y218186D01*
X157635Y218237D01*
X157508Y218266D01*
X157378Y218273D01*
X157248Y218257D01*
X157123Y218219D01*
X156852Y218124D01*
X156572Y218056D01*
X156287Y218014D01*
X155999Y218000D01*
Y224000D01*
X156000D01*
X156287Y223987D01*
X156572Y223945D01*
X156852Y223877D01*
X157123Y223782D01*
Y223781D01*
X157248Y223743D01*
X157378Y223727D01*
X157509Y223734D01*
X157636Y223763D01*
X157757Y223814D01*
X157866Y223886D01*
X157962Y223975D01*
X158041Y224079D01*
X158100Y224196D01*
X158138Y224321D01*
X158154Y224451D01*
X158147Y224582D01*
X158118Y224709D01*
X158067Y224830D01*
X157995Y224939D01*
X157906Y225035D01*
X157802Y225114D01*
X157685Y225173D01*
X157278Y225315D01*
X156858Y225418D01*
X156431Y225480D01*
X156000Y225500D01*
X155999D01*
Y226500D01*
X156431Y226521D01*
X156858Y226583D01*
X157278Y226686D01*
X157685Y226828D01*
Y226829D01*
X157801Y226888D01*
X157906Y226967D01*
X157995Y227063D01*
X158066Y227172D01*
X158117Y227293D01*
X158146Y227420D01*
X158153Y227550D01*
X158137Y227680D01*
X158099Y227805D01*
X158040Y227921D01*
X157961Y228026D01*
X157865Y228115D01*
X157756Y228186D01*
X157635Y228237D01*
X157508Y228266D01*
X157378Y228273D01*
X157248Y228257D01*
X157123Y228219D01*
X156852Y228124D01*
X156572Y228056D01*
X156287Y228014D01*
X155999Y228000D01*
Y234000D01*
X156000D01*
X156287Y233987D01*
X156572Y233945D01*
X156852Y233877D01*
X157123Y233782D01*
Y233781D01*
X157248Y233743D01*
X157378Y233727D01*
X157509Y233734D01*
X157636Y233763D01*
X157757Y233814D01*
X157866Y233886D01*
X157962Y233975D01*
X158041Y234079D01*
X158100Y234196D01*
X158138Y234321D01*
X158154Y234451D01*
X158147Y234582D01*
X158118Y234709D01*
X158067Y234830D01*
X157995Y234939D01*
X157906Y235035D01*
X157802Y235114D01*
X157685Y235173D01*
X157278Y235315D01*
X156858Y235418D01*
X156431Y235480D01*
X156000Y235500D01*
X155999D01*
Y237500D01*
G37*
G36*
X152387D02*X155999D01*
Y235500D01*
X155568Y235480D01*
X155141Y235418D01*
X154721Y235315D01*
X154314Y235173D01*
Y235172D01*
X154198Y235113D01*
X154093Y235034D01*
X154004Y234938D01*
X153933Y234829D01*
X153882Y234708D01*
X153853Y234581D01*
X153846Y234451D01*
X153862Y234321D01*
X153900Y234196D01*
X153959Y234080D01*
X154038Y233975D01*
X154134Y233886D01*
X154243Y233815D01*
X154364Y233764D01*
X154491Y233735D01*
X154621Y233728D01*
X154751Y233744D01*
X154876Y233782D01*
X155147Y233877D01*
X155427Y233945D01*
X155712Y233987D01*
X155999Y234000D01*
Y228000D01*
X155712Y228014D01*
X155427Y228056D01*
X155147Y228124D01*
X154876Y228219D01*
Y228220D01*
X154751Y228258D01*
X154621Y228274D01*
X154490Y228267D01*
X154363Y228238D01*
X154242Y228187D01*
X154133Y228115D01*
X154037Y228026D01*
X153958Y227922D01*
X153899Y227805D01*
X153861Y227680D01*
X153845Y227550D01*
X153852Y227419D01*
X153881Y227292D01*
X153932Y227171D01*
X154004Y227062D01*
X154093Y226966D01*
X154197Y226887D01*
X154314Y226828D01*
X154721Y226686D01*
X155141Y226583D01*
X155568Y226521D01*
X155999Y226500D01*
Y225500D01*
X155568Y225480D01*
X155141Y225418D01*
X154721Y225315D01*
X154314Y225173D01*
Y225172D01*
X154198Y225113D01*
X154093Y225034D01*
X154004Y224938D01*
X153933Y224829D01*
X153882Y224708D01*
X153853Y224581D01*
X153846Y224451D01*
X153862Y224321D01*
X153900Y224196D01*
X153959Y224080D01*
X154038Y223975D01*
X154134Y223886D01*
X154243Y223815D01*
X154364Y223764D01*
X154491Y223735D01*
X154621Y223728D01*
X154751Y223744D01*
X154876Y223782D01*
X155147Y223877D01*
X155427Y223945D01*
X155712Y223987D01*
X155999Y224000D01*
Y218000D01*
X155712Y218014D01*
X155427Y218056D01*
X155147Y218124D01*
X154876Y218219D01*
Y218220D01*
X154751Y218258D01*
X154621Y218274D01*
X154490Y218267D01*
X154363Y218238D01*
X154242Y218187D01*
X154133Y218115D01*
X154037Y218026D01*
X153958Y217922D01*
X153899Y217805D01*
X153861Y217680D01*
X153845Y217550D01*
X153852Y217419D01*
X153881Y217292D01*
X153932Y217171D01*
X154004Y217062D01*
X154093Y216966D01*
X154197Y216887D01*
X154314Y216828D01*
X154721Y216686D01*
X155141Y216583D01*
X155568Y216521D01*
X155999Y216500D01*
Y214500D01*
X152387D01*
Y218861D01*
X152419Y218854D01*
X152549Y218847D01*
X152679Y218863D01*
X152804Y218901D01*
X152920Y218960D01*
X153025Y219039D01*
X153114Y219135D01*
X153185Y219244D01*
X153236Y219365D01*
X153265Y219492D01*
X153272Y219622D01*
X153256Y219752D01*
X153218Y219877D01*
X153123Y220148D01*
X153055Y220428D01*
X153013Y220713D01*
X153000Y221001D01*
X153013Y221288D01*
X153055Y221573D01*
X153123Y221853D01*
X153218Y222124D01*
X153219D01*
X153257Y222249D01*
X153273Y222379D01*
X153266Y222510D01*
X153237Y222637D01*
X153186Y222758D01*
X153114Y222867D01*
X153025Y222963D01*
X152921Y223042D01*
X152804Y223101D01*
X152679Y223139D01*
X152549Y223155D01*
X152418Y223148D01*
X152387Y223141D01*
Y228861D01*
X152419Y228854D01*
X152549Y228847D01*
X152679Y228863D01*
X152804Y228901D01*
X152920Y228960D01*
X153025Y229039D01*
X153114Y229135D01*
X153185Y229244D01*
X153236Y229365D01*
X153265Y229492D01*
X153272Y229622D01*
X153256Y229752D01*
X153218Y229877D01*
X153123Y230148D01*
X153055Y230428D01*
X153013Y230713D01*
X153000Y231001D01*
X153013Y231288D01*
X153055Y231573D01*
X153123Y231853D01*
X153218Y232124D01*
X153219D01*
X153257Y232249D01*
X153273Y232379D01*
X153266Y232510D01*
X153237Y232637D01*
X153186Y232758D01*
X153114Y232867D01*
X153025Y232963D01*
X152921Y233042D01*
X152804Y233101D01*
X152679Y233139D01*
X152549Y233155D01*
X152418Y233148D01*
X152387Y233141D01*
Y237500D01*
G37*
G36*
X146000D02*X152387D01*
Y233141D01*
X152291Y233119D01*
X152170Y233068D01*
X152061Y232996D01*
X151965Y232907D01*
X151886Y232803D01*
X151827Y232686D01*
X151685Y232279D01*
X151582Y231859D01*
X151520Y231432D01*
X151500Y231001D01*
X151520Y230569D01*
X151582Y230142D01*
X151685Y229722D01*
X151827Y229315D01*
X151828D01*
X151887Y229199D01*
X151966Y229094D01*
X152062Y229005D01*
X152171Y228934D01*
X152292Y228883D01*
X152387Y228861D01*
Y223141D01*
X152291Y223119D01*
X152170Y223068D01*
X152061Y222996D01*
X151965Y222907D01*
X151886Y222803D01*
X151827Y222686D01*
X151685Y222279D01*
X151582Y221859D01*
X151520Y221432D01*
X151500Y221001D01*
X151520Y220569D01*
X151582Y220142D01*
X151685Y219722D01*
X151827Y219315D01*
X151828D01*
X151887Y219199D01*
X151966Y219094D01*
X152062Y219005D01*
X152171Y218934D01*
X152292Y218883D01*
X152387Y218861D01*
Y214500D01*
X146000D01*
Y216500D01*
X146781Y216568D01*
X147539Y216771D01*
X148250Y217103D01*
X148893Y217553D01*
X149447Y218107D01*
X149897Y218750D01*
X150229Y219461D01*
X150432Y220219D01*
X150500Y221000D01*
X150432Y221781D01*
X150229Y222539D01*
X149897Y223250D01*
X149447Y223893D01*
X148893Y224447D01*
X148250Y224897D01*
X147539Y225229D01*
X146781Y225432D01*
X146000Y225500D01*
Y226500D01*
X146781Y226568D01*
X147539Y226771D01*
X148250Y227103D01*
X148893Y227553D01*
X149447Y228107D01*
X149897Y228750D01*
X150229Y229461D01*
X150432Y230219D01*
X150500Y231000D01*
X150432Y231781D01*
X150229Y232539D01*
X149897Y233250D01*
X149447Y233893D01*
X148893Y234447D01*
X148250Y234897D01*
X147539Y235229D01*
X146781Y235432D01*
X146000Y235500D01*
Y237500D01*
G37*
G36*
X139750D02*X146000D01*
Y235500D01*
X145219Y235432D01*
X144461Y235229D01*
X143750Y234897D01*
X143107Y234447D01*
X142553Y233893D01*
X142103Y233250D01*
X141771Y232539D01*
X141568Y231781D01*
X141500Y231000D01*
X141568Y230219D01*
X141771Y229461D01*
X142103Y228750D01*
X142553Y228107D01*
X143107Y227553D01*
X143750Y227103D01*
X144461Y226771D01*
X145219Y226568D01*
X146000Y226500D01*
Y225500D01*
X145219Y225432D01*
X144461Y225229D01*
X143750Y224897D01*
X143107Y224447D01*
X142553Y223893D01*
X142103Y223250D01*
X141771Y222539D01*
X141568Y221781D01*
X141500Y221000D01*
X141568Y220219D01*
X141771Y219461D01*
X142103Y218750D01*
X142553Y218107D01*
X143107Y217553D01*
X143750Y217103D01*
X144461Y216771D01*
X145219Y216568D01*
X146000Y216500D01*
Y214500D01*
X139750D01*
Y218750D01*
X139880Y218761D01*
X140007Y218795D01*
X140125Y218850D01*
X140232Y218925D01*
X140325Y219018D01*
X140400Y219125D01*
X140455Y219243D01*
X140489Y219370D01*
X140500Y219500D01*
Y222500D01*
X140489Y222630D01*
X140455Y222757D01*
X140400Y222875D01*
X140325Y222982D01*
X140232Y223075D01*
X140125Y223150D01*
X140007Y223205D01*
X139880Y223239D01*
X139750Y223250D01*
Y228750D01*
X139880Y228761D01*
X140007Y228795D01*
X140125Y228850D01*
X140232Y228925D01*
X140325Y229018D01*
X140400Y229125D01*
X140455Y229243D01*
X140489Y229370D01*
X140500Y229500D01*
Y232500D01*
X140489Y232630D01*
X140455Y232757D01*
X140400Y232875D01*
X140325Y232982D01*
X140232Y233075D01*
X140125Y233150D01*
X140007Y233205D01*
X139880Y233239D01*
X139750Y233250D01*
Y237500D01*
G37*
G36*
X136000D02*X139750D01*
Y233250D01*
X139620Y233239D01*
X139493Y233205D01*
X139375Y233150D01*
X139268Y233075D01*
X139175Y232982D01*
X139100Y232875D01*
X139045Y232757D01*
X139011Y232630D01*
X139000Y232500D01*
Y229500D01*
X139011Y229370D01*
X139045Y229243D01*
X139100Y229125D01*
X139175Y229018D01*
X139268Y228925D01*
X139375Y228850D01*
X139493Y228795D01*
X139620Y228761D01*
X139750Y228750D01*
Y223250D01*
X139620Y223239D01*
X139493Y223205D01*
X139375Y223150D01*
X139268Y223075D01*
X139175Y222982D01*
X139100Y222875D01*
X139045Y222757D01*
X139011Y222630D01*
X139000Y222500D01*
Y219500D01*
X139011Y219370D01*
X139045Y219243D01*
X139100Y219125D01*
X139175Y219018D01*
X139268Y218925D01*
X139375Y218850D01*
X139493Y218795D01*
X139620Y218761D01*
X139750Y218750D01*
Y214500D01*
X136000D01*
Y216500D01*
X137500D01*
X137630Y216511D01*
X137757Y216545D01*
X137875Y216600D01*
X137982Y216675D01*
X138075Y216768D01*
X138150Y216875D01*
X138205Y216993D01*
X138239Y217120D01*
X138250Y217250D01*
X138239Y217380D01*
X138205Y217507D01*
X138150Y217625D01*
X138075Y217732D01*
X137982Y217825D01*
X137875Y217900D01*
X137757Y217955D01*
X137630Y217989D01*
X137500Y218000D01*
X136000D01*
Y224000D01*
X137500D01*
X137630Y224011D01*
X137757Y224045D01*
X137875Y224100D01*
X137982Y224175D01*
X138075Y224268D01*
X138150Y224375D01*
X138205Y224493D01*
X138239Y224620D01*
X138250Y224750D01*
X138239Y224880D01*
X138205Y225007D01*
X138150Y225125D01*
X138075Y225232D01*
X137982Y225325D01*
X137875Y225400D01*
X137757Y225455D01*
X137630Y225489D01*
X137500Y225500D01*
X136000D01*
Y226500D01*
X137500D01*
X137630Y226511D01*
X137757Y226545D01*
X137875Y226600D01*
X137982Y226675D01*
X138075Y226768D01*
X138150Y226875D01*
X138205Y226993D01*
X138239Y227120D01*
X138250Y227250D01*
X138239Y227380D01*
X138205Y227507D01*
X138150Y227625D01*
X138075Y227732D01*
X137982Y227825D01*
X137875Y227900D01*
X137757Y227955D01*
X137630Y227989D01*
X137500Y228000D01*
X136000D01*
Y234000D01*
X137500D01*
X137630Y234011D01*
X137757Y234045D01*
X137875Y234100D01*
X137982Y234175D01*
X138075Y234268D01*
X138150Y234375D01*
X138205Y234493D01*
X138239Y234620D01*
X138250Y234750D01*
X138239Y234880D01*
X138205Y235007D01*
X138150Y235125D01*
X138075Y235232D01*
X137982Y235325D01*
X137875Y235400D01*
X137757Y235455D01*
X137630Y235489D01*
X137500Y235500D01*
X136000D01*
Y237500D01*
G37*
G36*
X132250D02*X136000D01*
Y235500D01*
X134500D01*
X134370Y235489D01*
X134243Y235455D01*
X134125Y235400D01*
X134018Y235325D01*
X133925Y235232D01*
X133850Y235125D01*
X133795Y235007D01*
X133761Y234880D01*
X133750Y234750D01*
X133761Y234620D01*
X133795Y234493D01*
X133850Y234375D01*
X133925Y234268D01*
X134018Y234175D01*
X134125Y234100D01*
X134243Y234045D01*
X134370Y234011D01*
X134500Y234000D01*
X136000D01*
Y228000D01*
X134500D01*
X134370Y227989D01*
X134243Y227955D01*
X134125Y227900D01*
X134018Y227825D01*
X133925Y227732D01*
X133850Y227625D01*
X133795Y227507D01*
X133761Y227380D01*
X133750Y227250D01*
X133761Y227120D01*
X133795Y226993D01*
X133850Y226875D01*
X133925Y226768D01*
X134018Y226675D01*
X134125Y226600D01*
X134243Y226545D01*
X134370Y226511D01*
X134500Y226500D01*
X136000D01*
Y225500D01*
X134500D01*
X134370Y225489D01*
X134243Y225455D01*
X134125Y225400D01*
X134018Y225325D01*
X133925Y225232D01*
X133850Y225125D01*
X133795Y225007D01*
X133761Y224880D01*
X133750Y224750D01*
X133761Y224620D01*
X133795Y224493D01*
X133850Y224375D01*
X133925Y224268D01*
X134018Y224175D01*
X134125Y224100D01*
X134243Y224045D01*
X134370Y224011D01*
X134500Y224000D01*
X136000D01*
Y218000D01*
X134500D01*
X134370Y217989D01*
X134243Y217955D01*
X134125Y217900D01*
X134018Y217825D01*
X133925Y217732D01*
X133850Y217625D01*
X133795Y217507D01*
X133761Y217380D01*
X133750Y217250D01*
X133761Y217120D01*
X133795Y216993D01*
X133850Y216875D01*
X133925Y216768D01*
X134018Y216675D01*
X134125Y216600D01*
X134243Y216545D01*
X134370Y216511D01*
X134500Y216500D01*
X136000D01*
Y214500D01*
X132250D01*
Y218750D01*
X132380Y218761D01*
X132507Y218795D01*
X132625Y218850D01*
X132732Y218925D01*
X132825Y219018D01*
X132900Y219125D01*
X132955Y219243D01*
X132989Y219370D01*
X133000Y219500D01*
Y222500D01*
X132989Y222630D01*
X132955Y222757D01*
X132900Y222875D01*
X132825Y222982D01*
X132732Y223075D01*
X132625Y223150D01*
X132507Y223205D01*
X132380Y223239D01*
X132250Y223250D01*
Y228750D01*
X132380Y228761D01*
X132507Y228795D01*
X132625Y228850D01*
X132732Y228925D01*
X132825Y229018D01*
X132900Y229125D01*
X132955Y229243D01*
X132989Y229370D01*
X133000Y229500D01*
Y232500D01*
X132989Y232630D01*
X132955Y232757D01*
X132900Y232875D01*
X132825Y232982D01*
X132732Y233075D01*
X132625Y233150D01*
X132507Y233205D01*
X132380Y233239D01*
X132250Y233250D01*
Y237500D01*
G37*
G36*
X129500Y214500D02*Y237500D01*
X132250D01*
Y233250D01*
X132120Y233239D01*
X131993Y233205D01*
X131875Y233150D01*
X131768Y233075D01*
X131675Y232982D01*
X131600Y232875D01*
X131545Y232757D01*
X131511Y232630D01*
X131500Y232500D01*
Y229500D01*
X131511Y229370D01*
X131545Y229243D01*
X131600Y229125D01*
X131675Y229018D01*
X131768Y228925D01*
X131875Y228850D01*
X131993Y228795D01*
X132120Y228761D01*
X132250Y228750D01*
Y223250D01*
X132120Y223239D01*
X131993Y223205D01*
X131875Y223150D01*
X131768Y223075D01*
X131675Y222982D01*
X131600Y222875D01*
X131545Y222757D01*
X131511Y222630D01*
X131500Y222500D01*
Y219500D01*
X131511Y219370D01*
X131545Y219243D01*
X131600Y219125D01*
X131675Y219018D01*
X131768Y218925D01*
X131875Y218850D01*
X131993Y218795D01*
X132120Y218761D01*
X132250Y218750D01*
Y214500D01*
X129500D01*
G37*
G36*
X172500Y189500D02*Y215500D01*
X187000D01*
Y189500D01*
X172500D01*
G37*
G36*
X211500Y214500D02*Y222000D01*
X217000D01*
Y214500D01*
X211500D01*
G37*
G54D12*X133000Y306500D02*X148500D01*
G54D13*X140500Y269000D02*Y242000D01*
G54D12*X215000Y271500D02*X210000Y276500D01*
G54D13*X151000Y269000D02*Y242000D01*
X140500Y262000D02*X173500D01*
Y269000D02*Y242000D01*
X180500Y254500D02*Y242000D01*
X187000Y254500D02*Y242000D01*
X162500Y269000D02*Y242000D01*
X193500Y254500D02*Y242000D01*
X201000Y254500D02*Y242000D01*
X209000Y254500D02*Y242000D01*
X218000Y254500D02*Y239000D01*
X52000Y104500D02*X114000D01*
X57500Y113500D02*X109500D01*
X74000D02*Y121000D01*
X109500D01*
X82500D02*Y113500D01*
X91500Y121000D02*Y113500D01*
G54D12*X100000Y162000D02*X124000D01*
X100000Y177000D02*X124000D01*
X59000Y162000D02*X70000D01*
X100000Y147000D02*X124000D01*
X59000D02*X70000D01*
X124000Y162000D02*X131500Y154500D01*
G54D13*X152000Y91500D02*X145000Y84500D01*
X110500D02*X145000D01*
X155500Y110000D02*X125500D01*
X114000Y104500D01*
G54D12*X124000Y147000D02*Y146500D01*
G54D13*X109500Y113500D02*Y133000D01*
X102000Y113500D02*Y133000D01*
G54D12*X124000Y147000D02*X131500Y139500D01*
G54D13*X102000Y133000D02*X159000D01*
G54D12*X59000Y177000D02*X70000D01*
X59000Y192000D02*X70000D01*
G54D13*X42500Y206000D02*Y200500D01*
X29500Y187500D02*X36000D01*
X29500Y177000D02*X36000D01*
X29500Y291500D02*Y84000D01*
X36000Y285000D02*Y84000D01*
X29500Y91500D02*X36000D01*
X29500Y167000D02*X36000D01*
X29500Y157000D02*X36000D01*
X29500Y146500D02*X36000D01*
X29500Y231000D02*X36000D01*
X29500Y221000D02*X36000D01*
X49500Y206000D02*Y200500D01*
X29500Y110000D02*X36000D01*
X29500Y100000D02*X36000D01*
G54D12*X124000Y177000D02*X131000Y170000D01*
X142000D01*
G54D13*X124000Y254500D02*Y217000D01*
X131500Y254500D02*Y242000D01*
G54D12*X100000Y192000D02*X124000D01*
X131500Y184500D01*
G54D13*X116500Y206000D02*Y200500D01*
X159500Y206000D02*X29500D01*
X159500Y200500D02*X29500D01*
X107500Y206000D02*Y200500D01*
X99000Y206000D02*Y200500D01*
X124000Y217000D02*X117000D01*
G54D12*X56000Y211500D02*X162000D01*
X45000Y129500D02*X36500D01*
G54D14*X45000Y111500D02*X52000Y104500D01*
G54D13*X29500Y120500D02*X50500D01*
X57500Y113500D01*
G54D14*X77500Y83000D02*Y104500D01*
G54D13*X29500Y84000D02*X64500D01*
X73000Y75500D01*
X101500D01*
X110500Y84500D01*
X46000Y291500D02*X29500D01*
Y285000D02*X56000D01*
X36500Y291500D02*Y285000D01*
X46000Y291500D02*Y285000D01*
X49000Y278000D02*X29500D01*
Y261500D02*X49000D01*
X29500Y269500D02*X49000D01*
G54D15*X158000Y319000D02*X142500D01*
G54D13*X145000Y314500D02*X143000Y312500D01*
G54D12*X168500Y306500D02*Y315000D01*
X106000Y291500D02*X145500D01*
G54D15*X144500Y282000D02*X101000D01*
X135000Y285000D02*X90000D01*
X135000D02*X139000Y287000D01*
G54D12*X200000Y285500D02*X224000D01*
X230000Y291500D01*
X183000D02*X200000Y285500D01*
G54D16*X210000Y291500D02*Y285500D01*
G54D12*X197500Y282000D02*X236000D01*
X225000Y271500D02*X230000Y276500D01*
X225000Y271500D02*X215000D01*
X183000Y276500D02*X210000D01*
Y261500D02*X215500Y267000D01*
X183000Y261500D02*X210000D01*
X215500Y267000D02*X224500D01*
X230000Y261500D01*
X145500Y291500D02*X158000Y284500D01*
G54D13*X123500Y269000D02*X201000D01*
G54D12*X185500Y284500D02*X197500Y282000D01*
X185500Y284500D02*X158000D01*
X236000Y282000D02*X253500Y262500D01*
X56000Y285000D02*Y291500D01*
Y261500D02*X48000D01*
G54D13*X49000Y242000D02*Y285000D01*
X42500Y242000D02*Y285000D01*
G54D12*X83000Y272500D02*X95000D01*
G54D15*X101000Y282000D02*X71000Y275500D01*
G54D12*X95000Y272500D02*X106000Y261500D01*
Y276500D02*X133000D01*
X106000Y261500D02*X133000D01*
G54D13*X29500Y248500D02*X223500D01*
Y242000D02*X29500D01*
X116500Y254500D02*Y242000D01*
X29500Y254500D02*X243000D01*
G54D12*X253500Y262500D02*Y248000D01*
G54D13*X275000Y155000D02*Y99500D01*
X290500Y291500D02*Y99500D01*
G54D12*Y216500D02*X280000D01*
G54D13*X283000Y155000D02*Y99500D01*
G54D14*X277500Y165500D02*X290500D01*
G54D13*X255500Y146500D02*X297500D01*
G54D16*X234000Y151500D02*X241500D01*
X243000Y153000D01*
Y171500D01*
G54D13*X290500Y163500D02*X297500D01*
X255500Y155000D02*X297500D01*
X230000Y114500D02*X297500D01*
G54D14*X252500Y124000D02*X243000Y133500D01*
G54D13*X230000Y120500D02*X238000D01*
X260500Y122000D02*X297500D01*
X260500Y133500D02*X297500D01*
Y342000D02*Y99500D01*
Y286000D02*X290500D01*
X297500Y291500D02*X290500D01*
Y264000D02*X297500D01*
X290500Y271500D02*X297500D01*
X290500Y279000D02*X297500D01*
X261500Y254500D02*X297500D01*
G54D12*X280000Y246500D02*X290500D01*
G54D13*X297500D01*
G54D12*X280000Y231500D02*X290500D01*
G54D13*X297500D01*
Y239000D02*X218000D01*
X243000Y254500D02*Y239000D01*
G54D14*X255500Y186500D02*X248000D01*
G54D13*X297500Y187500D02*X290500D01*
Y190500D02*X264000D01*
X255500Y186500D01*
G54D14*X248000Y176500D02*X255500D01*
G54D13*X260500Y99500D02*X297500D01*
X260500Y107500D02*X297500D01*
X223500Y254500D02*Y239000D01*
X219000Y133500D02*Y120500D01*
X238000Y218500D02*X248000Y213500D01*
X216000Y218500D02*X238000D01*
G54D12*X214000Y156500D02*X238000D01*
X214000Y166500D02*X238000D01*
X214000Y176500D02*X238000D01*
X214000Y186500D02*X238000D01*
G54D16*X214000Y146500D02*X221000D01*
G54D14*X248000Y206500D02*Y213500D01*
G54D16*X243000Y171500D02*X248000Y176500D01*
G54D13*X261500Y254500D02*Y239000D01*
Y230500D02*X255500Y196500D01*
Y186500D02*Y146500D01*
X270500Y254500D02*Y239000D01*
X261500Y230500D02*X243000D01*
X297500Y224500D02*X290500D01*
X297500Y216500D02*X290500D01*
Y179000D02*X297500D01*
X290500Y171500D02*X297500D01*
X290500Y196500D02*X297500D01*
X290500Y204500D02*X297500D01*
G54D12*X131500Y139500D02*X142000D01*
G54D14*X139500Y91000D02*Y110000D01*
G54D12*X142000Y139500D02*X149000Y146500D01*
X131500Y154500D02*X141500D01*
X149000Y162000D01*
X131500Y184500D02*X141500D01*
X149000Y192000D01*
G54D13*X150500Y206000D02*Y200500D01*
X142000Y206000D02*Y200500D01*
X134000Y206000D02*Y200500D01*
G54D12*X199000Y162000D02*X214000Y166500D01*
X199000Y177000D02*X214000Y176500D01*
X199000Y192000D02*X214000Y186500D01*
Y156500D02*X199000Y146500D01*
G54D13*Y120500D02*Y84500D01*
X209000Y107500D02*Y84500D01*
X179500Y133500D02*X243000D01*
X175000Y126000D02*X179500Y133500D01*
X178500Y84500D02*X230000D01*
X238000Y91500D02*Y120500D01*
G54D12*X261000Y140000D02*X194500D01*
X188500Y142500D01*
G54D16*X221000Y146500D02*X234000Y151500D01*
G54D12*X188500Y142500D02*X169500D01*
G54D13*X260500Y133500D02*Y91500D01*
X268000Y155000D02*Y91500D01*
G54D14*X238000Y97000D02*X260500D01*
G54D13*X187500Y107500D02*Y84500D01*
X152000Y99500D02*X238000D01*
X152000Y91500D02*X268000D01*
X170000Y107500D02*X238000D01*
X230000Y120500D02*Y84500D01*
X219000Y107500D02*Y84500D01*
G54D12*X142000Y170000D02*X149000Y177000D01*
G54D13*X159500Y206000D02*Y133000D01*
X152000Y125000D02*Y133000D01*
G54D12*X162000Y211500D02*X165500Y208000D01*
Y187000D01*
X169500Y151000D01*
Y134000D02*Y151000D01*
G54D14*Y74000D02*Y91500D01*
G54D13*X152000Y99500D02*Y91500D01*
X170000Y107500D02*Y91500D01*
X178500Y107500D02*Y84500D01*
X159500Y99500D02*Y91500D01*
X175000Y126000D02*X155500Y110000D01*
G54D15*X56000Y381000D02*X72500Y364500D01*
X66000Y419000D02*X72500Y425500D01*
X89500D01*
X56000Y389000D02*Y381000D01*
X86000Y389000D02*X96000D01*
X56000Y419000D02*X65000Y428000D01*
X89500Y425500D02*X96000Y419000D01*
X93500Y430500D02*X61000D01*
X56000Y324000D02*X61500Y318500D01*
X80500D02*X86000Y324000D01*
X84000Y317000D02*X82000Y315000D01*
X76000D01*
G54D16*X106000Y324000D02*Y335500D01*
G54D15*X61500Y318500D02*X80500D01*
X101000Y317000D02*X84000D01*
X91000Y313500D02*X109000D01*
X71000Y315000D02*X55000D01*
X46000Y324000D01*
X61500Y311500D02*X86500D01*
X88000Y310000D01*
X110500D01*
X109000Y313500D02*X114500Y319000D01*
X110500Y310000D02*X117000Y316500D01*
G54D13*X116500Y306000D02*Y299500D01*
X49500Y313000D02*X29500D01*
X36500D02*Y336000D01*
Y322000D02*X29500D01*
G54D12*X49500Y313000D02*X56000Y306500D01*
G54D13*X54000Y428000D02*X36500D01*
G54D16*X46000Y354000D02*Y342500D01*
Y407000D02*Y428000D01*
G54D13*X36500Y401000D02*Y354000D01*
X48500Y379000D02*X29500D01*
G54D12*X48500D02*X56000Y371500D01*
G54D15*X255000Y425500D02*X159500D01*
X217500Y430500D02*X154500D01*
X143000Y382000D02*X245000D01*
X193000Y389000D02*Y401000D01*
X269500Y364500D02*X280000Y354000D01*
X227000Y361000D02*X220000Y354000D01*
X260000D02*X253000Y361000D01*
X227000D01*
G54D12*X280000Y371500D02*X290500D01*
G54D13*X297500D01*
G54D15*X230000Y389000D02*X240000D01*
G54D13*X290500D02*X297500D01*
X290500Y429000D02*Y407000D01*
X297500Y429000D02*X290500D01*
G54D16*X220000Y419000D02*Y407000D01*
G54D15*X218500Y428000D02*X230000Y429000D01*
X240000Y419000D02*X250000D01*
X234000Y433000D02*X245000Y429000D01*
X234000Y433000D02*X226000D01*
X220500Y435500D02*X241500D01*
X226000Y433000D02*X217500Y430500D01*
G54D14*X241500Y435500D02*X290500D01*
G54D15*X273500Y440500D02*X231500D01*
G54D13*X280000Y447000D02*X297500D01*
G54D15*X233000Y452500D02*X245000D01*
X221000Y440500D02*X233000Y452500D01*
X181500Y440500D02*X221000D01*
G54D14*X203500Y434500D02*X178000D01*
X220500Y435500D02*X203500Y434500D01*
G54D13*X290500Y447000D02*Y458000D01*
X297500Y458500D02*X260000D01*
X280000D02*Y447000D01*
Y528500D02*Y479000D01*
X290500Y528500D02*Y479000D01*
X297500D02*Y528500D01*
X246000D02*X297500D01*
X246000D02*X167000D01*
Y511000D02*X297500D01*
X272000Y528500D02*Y479000D01*
X264000Y528500D02*Y486500D01*
X255000Y528500D02*Y511000D01*
X246000D02*Y528500D01*
G54D16*X150000Y485000D02*X251500D01*
G54D13*X210500Y479000D02*X297500D01*
X264000Y486500D02*X297500D01*
Y502000D02*X264000D01*
X297500Y494000D02*X264000D01*
G54D16*X181500Y491000D02*X169500D01*
G54D13*X29500Y471000D02*X290500D01*
X36500Y504500D02*X60500D01*
X29500Y446500D02*X63000D01*
X62000Y458500D02*X36500D01*
X43000Y464500D02*X54000D01*
X43000Y452500D02*X54000D01*
X43000Y464500D02*Y452500D01*
X54000Y464500D02*Y452500D01*
G54D14*X63000Y446500D02*X150000D01*
X260000Y458500D02*X62000D01*
G54D13*X43000Y428000D02*Y439000D01*
X54000D02*Y428000D01*
X36500Y439000D02*Y407000D01*
X54000Y439000D02*X36500D01*
G54D14*X150000Y446500D02*X178000Y434500D01*
G54D13*X297500Y407000D02*Y479000D01*
G54D16*X169500Y491000D02*X158000Y502500D01*
X150000Y485000D02*X144500Y490500D01*
G54D13*X210500Y479000D02*X36500D01*
Y487500D02*X60500D01*
X36500Y521000D02*X297500D01*
X84500Y511000D02*Y521000D01*
G54D15*X163000Y389000D02*Y382000D01*
X173000Y368000D02*X91000D01*
X148000Y375000D02*X81000D01*
X159500Y425500D02*X153000Y419000D01*
X65000Y428000D02*X218500D01*
G54D16*X133000Y419000D02*Y407000D01*
G54D15*X154500Y430500D02*X144500Y440500D01*
X130500D02*X93500Y430500D01*
G54D13*X105000Y489500D02*X116500D01*
X29500Y528500D02*X155500D01*
X84500Y511000D02*X36500D01*
X29500Y528500D02*Y299500D01*
X36500Y479000D02*Y521000D01*
X69000D02*Y511000D01*
X36500Y496000D02*X60500D01*
Y521000D02*Y479000D01*
X43000Y521000D02*Y479000D01*
X52000Y521000D02*Y479000D01*
G54D14*X143000Y312500D02*X122500D01*
X116500Y306500D01*
G54D15*X193000Y361000D02*X96000D01*
G54D13*X36500Y354000D02*X29500D01*
G54D15*X255000Y371500D02*X76500D01*
X153000Y375000D02*X168000D01*
X183000D02*X248500D01*
X269500Y364500D02*X72500D01*
G54D13*X36500Y347500D02*X297500D01*
X36500Y342000D02*X297500D01*
G54D15*X133000Y342500D02*X133500Y342000D01*
G54D13*X29500Y336000D02*X290500D01*
X29500Y330500D02*X290500D01*
G54D15*X220000Y378500D02*X91000D01*
X61000Y382000D02*X126000D01*
X133000Y389000D01*
X143000Y382000D02*Y389000D01*
G54D16*X133000Y354000D02*Y342000D01*
X220000Y354000D02*Y342000D01*
G54D13*X290500D02*Y389000D01*
X297500Y342000D02*Y407000D01*
Y412500D02*X36500D01*
X29500Y401000D02*X290500D01*
X29500Y395500D02*X290500D01*
G54D16*X106000Y389000D02*Y401000D01*
G54D13*X297500Y407000D02*X36500D01*
G54D16*X280000Y389000D02*Y401000D01*
Y324000D02*Y336500D01*
G54D15*X158000Y319000D02*X163000Y324000D01*
G54D16*X193000D02*Y336000D01*
G54D13*X29500Y299500D02*X290500D01*
G54D15*X114500Y319000D02*X138000D01*
X143000Y324000D01*
X117000Y316500D02*X140000D01*
X142500Y319000D02*X140000Y316500D01*
G54D13*X290500Y314500D02*X145000D01*
G54D12*X270000D02*Y306500D01*
X280000D02*X297500D01*
G54D16*X83000Y490500D02*X71000Y502500D01*
X94500Y490500D02*X83000D01*
G54D13*X191000Y493000D02*X203500D01*
G54D16*X94500Y514000D02*X109500D01*
G54D13*X116500Y479000D02*Y521000D01*
Y502500D02*X105000D01*
Y479000D01*
X77000Y521000D02*Y511000D01*
X237000D02*Y580500D01*
X219500Y511000D02*Y580500D01*
X228500Y511000D02*Y580500D01*
X219500Y547500D02*X237000D01*
X219500Y539500D02*X237000D01*
X203500Y528500D02*Y493000D01*
X191000Y502500D02*X203500D01*
X219500Y530500D02*Y511000D01*
X199500Y580500D02*Y561000D01*
X208500Y580500D02*Y561000D01*
X134500Y539500D02*X191000D01*
X167000Y511000D02*Y547500D01*
X178500Y511000D02*Y547500D01*
X92500Y539500D02*Y580500D01*
Y539500D02*X101500D01*
X92500Y547500D02*X101500D01*
X92500Y554500D02*X101500D01*
X191000Y493000D02*Y547500D01*
X144500D02*Y539500D01*
X134500Y547500D02*X191000D01*
X134500D02*Y539500D01*
X155500Y547500D02*Y539500D01*
Y580500D02*Y561000D01*
X110000Y580500D02*Y561000D01*
X118500Y580500D02*Y561000D01*
X126500Y580500D02*Y561000D01*
G54D16*X124500Y552500D02*X201500D01*
G54D13*X191000Y561000D02*Y580500D01*
X178500D02*Y561000D01*
X167000D02*Y580500D01*
X237000Y561000D02*X92500D01*
X237000Y580500D02*X92500D01*
X237000Y570500D02*X92500D01*
X101500Y580500D02*Y539500D01*
X134500Y580500D02*Y561000D01*
X144500D02*Y580500D01*
G54D11*G36*
X228750Y493750D02*Y488250D01*
X234250D01*
Y493750D01*
X228750D01*
G37*
G54D17*X231500Y464000D03*
G54D11*G36*
X198250Y555750D02*Y549250D01*
X204750D01*
Y555750D01*
X198250D01*
G37*
G54D18*X211500Y552500D03*
G54D11*G36*
X241750Y505750D02*Y499250D01*
X248250D01*
Y505750D01*
X241750D01*
G37*
G54D18*X255000Y502500D03*
G54D11*G36*
X241750Y455750D02*Y449250D01*
X248250D01*
Y455750D01*
X241750D01*
G37*
G54D18*X255000Y452500D03*
G54D17*X181500Y491000D03*
Y440500D03*
G54D11*G36*
X178750Y466750D02*Y461250D01*
X184250D01*
Y466750D01*
X178750D01*
G37*
G36*
X141750Y516750D02*Y511250D01*
X147250D01*
Y516750D01*
X141750D01*
G37*
G54D17*X144500Y464000D03*
G54D11*G36*
X141750Y443250D02*Y437750D01*
X147250D01*
Y443250D01*
X141750D01*
G37*
G36*
Y493250D02*Y487750D01*
X147250D01*
Y493250D01*
X141750D01*
G37*
G54D17*X94500Y514000D03*
G54D11*G36*
X91750Y466750D02*Y461250D01*
X97250D01*
Y466750D01*
X91750D01*
G37*
G54D17*X94500Y440500D03*
Y490500D03*
G54D11*G36*
X111250Y555750D02*Y549250D01*
X117750D01*
Y555750D01*
X111250D01*
G37*
G54D18*X124500Y552500D03*
G54D11*G36*
X154750Y455750D02*Y449250D01*
X161250D01*
Y455750D01*
X154750D01*
G37*
G36*
Y505750D02*Y499250D01*
X161250D01*
Y505750D01*
X154750D01*
G37*
G54D18*X168000Y452500D03*
Y502500D03*
G54D11*G36*
X67750Y455750D02*Y449250D01*
X74250D01*
Y455750D01*
X67750D01*
G37*
G54D18*X81000Y452500D03*
G54D11*G36*
X67750Y505750D02*Y499250D01*
X74250D01*
Y505750D01*
X67750D01*
G37*
G54D18*X81000Y502500D03*
G54D19*X250000Y354000D03*
X240000D03*
X230000D03*
X220000D03*
X173000Y324000D03*
G54D11*G36*
X164900Y310100D02*Y302900D01*
X172100D01*
Y310100D01*
X164900D01*
G37*
G54D20*X158500Y306500D03*
X148500D03*
G54D19*X183000Y324000D03*
G54D11*G36*
X180250Y309250D02*Y303750D01*
X185750D01*
Y309250D01*
X180250D01*
G37*
G54D19*X193000Y324000D03*
Y354000D03*
X183000D03*
X173000D03*
X250000Y324000D03*
X260000D03*
X270000D03*
X280000D03*
G54D11*G36*
X217000Y327000D02*Y321000D01*
X223000D01*
Y327000D01*
X217000D01*
G37*
G54D19*X230000Y324000D03*
X240000D03*
X280000Y354000D03*
X270000D03*
X260000D03*
G54D11*G36*
X277000Y374500D02*Y368500D01*
X283000D01*
Y374500D01*
X277000D01*
G37*
G54D19*X270000Y371500D03*
G54D11*G36*
X130000Y327000D02*Y321000D01*
X136000D01*
Y327000D01*
X130000D01*
G37*
G54D19*X143000Y324000D03*
X153000D03*
X163000D03*
Y354000D03*
Y389000D03*
X173000D03*
X183000D03*
X153000Y354000D03*
Y389000D03*
X193000D03*
X240000D03*
Y419000D03*
X250000Y389000D03*
Y419000D03*
X260000Y389000D03*
Y419000D03*
X270000Y389000D03*
Y419000D03*
X280000Y389000D03*
Y419000D03*
G54D11*G36*
X228750Y443250D02*Y437750D01*
X234250D01*
Y443250D01*
X228750D01*
G37*
G36*
X217000Y392000D02*Y386000D01*
X223000D01*
Y392000D01*
X217000D01*
G37*
G54D19*X230000Y389000D03*
Y419000D03*
X220000D03*
X193000D03*
G54D11*G36*
X207000Y294500D02*Y288500D01*
X213000D01*
Y294500D01*
X207000D01*
G37*
G54D19*X220000Y291500D03*
G54D17*X233000Y306500D03*
G54D11*G36*
X227250Y279250D02*Y273750D01*
X232750D01*
Y279250D01*
X227250D01*
G37*
G54D17*X280000Y276500D03*
Y291500D03*
G54D11*G36*
X277000Y309500D02*Y303500D01*
X283000D01*
Y309500D01*
X277000D01*
G37*
G36*
X43000Y374500D02*Y368500D01*
X49000D01*
Y374500D01*
X43000D01*
G37*
G54D19*X56000Y371500D03*
G54D11*G36*
X43000Y392000D02*Y386000D01*
X49000D01*
Y392000D01*
X43000D01*
G37*
G36*
Y327000D02*Y321000D01*
X49000D01*
Y327000D01*
X43000D01*
G37*
G54D19*X46000Y354000D03*
G54D11*G36*
X43000Y309500D02*Y303500D01*
X49000D01*
Y309500D01*
X43000D01*
G37*
G54D19*X56000Y389000D03*
Y324000D03*
Y354000D03*
X66000Y389000D03*
Y324000D03*
Y354000D03*
G54D11*G36*
X53250Y264250D02*Y258750D01*
X58750D01*
Y264250D01*
X53250D01*
G37*
G36*
Y279250D02*Y273750D01*
X58750D01*
Y279250D01*
X53250D01*
G37*
G36*
Y294250D02*Y288750D01*
X58750D01*
Y294250D01*
X53250D01*
G37*
G54D19*X56000Y306500D03*
X143000Y354000D03*
Y389000D03*
Y419000D03*
X133000Y354000D03*
G54D11*G36*
X130000Y392000D02*Y386000D01*
X136000D01*
Y392000D01*
X130000D01*
G37*
G54D19*X133000Y419000D03*
X183000D03*
X173000D03*
X163000D03*
X153000D03*
X106000D03*
X86000Y354000D03*
X76000D03*
X96000Y419000D03*
X86000D03*
X76000D03*
X66000D03*
X56000D03*
X46000D03*
X76000Y389000D03*
X86000D03*
X96000D03*
X106000D03*
X76000Y324000D03*
X86000D03*
X96000D03*
X106000D03*
Y354000D03*
X96000D03*
G54D17*X106000Y261500D03*
G54D11*G36*
X130250Y264250D02*Y258750D01*
X135750D01*
Y264250D01*
X130250D01*
G37*
G54D17*X106000Y276500D03*
G54D11*G36*
X130250Y279250D02*Y273750D01*
X135750D01*
Y279250D01*
X130250D01*
G37*
G54D17*X183000Y276500D03*
X106000Y291500D03*
G54D11*G36*
X80250Y309250D02*Y303750D01*
X85750D01*
Y309250D01*
X80250D01*
G37*
G54D17*X133000Y306500D03*
G54D11*G36*
X130250Y294250D02*Y288750D01*
X135750D01*
Y294250D01*
X130250D01*
G37*
G54D17*X183000Y261500D03*
G54D11*G36*
X227250Y264250D02*Y258750D01*
X232750D01*
Y264250D01*
X227250D01*
G37*
G54D17*X280000Y261500D03*
G54D11*G36*
X207000Y264500D02*Y258500D01*
X213000D01*
Y264500D01*
X207000D01*
G37*
G54D19*X220000Y261500D03*
G54D11*G36*
X207000Y279500D02*Y273500D01*
X213000D01*
Y279500D01*
X207000D01*
G37*
G54D19*X220000Y276500D03*
G54D11*G36*
X227250Y294250D02*Y288750D01*
X232750D01*
Y294250D01*
X227250D01*
G37*
G54D17*X183000Y291500D03*
G54D19*X270000Y306500D03*
G54D11*G36*
X211000Y199500D02*Y193500D01*
X217000D01*
Y199500D01*
X211000D01*
G37*
G36*
X267000Y203500D02*Y197500D01*
X273000D01*
Y203500D01*
X267000D01*
G37*
G54D19*X280000Y200500D03*
X238000Y196500D03*
X248000D03*
X214000Y186500D03*
G54D11*G36*
X227250Y234250D02*Y228750D01*
X232750D01*
Y234250D01*
X227250D01*
G37*
G54D19*X214000Y186500D03*
G54D11*G36*
X227250Y249250D02*Y243750D01*
X232750D01*
Y249250D01*
X227250D01*
G37*
G36*
X277000Y219500D02*Y213500D01*
X283000D01*
Y219500D01*
X277000D01*
G37*
G54D19*X270000Y216500D03*
G54D17*X280000Y231500D03*
Y246500D03*
G54D11*G36*
X235000Y209500D02*Y203500D01*
X241000D01*
Y209500D01*
X235000D01*
G37*
G36*
X245000D02*Y203500D01*
X251000D01*
Y209500D01*
X245000D01*
G37*
G54D19*X206000Y221000D03*
X196000Y231000D03*
X206000D03*
X214000Y176500D03*
G54D17*X199000Y192000D03*
Y177000D03*
G54D19*X214000Y176500D03*
G54D17*X199000Y162000D03*
Y146500D03*
G54D19*X238000Y176500D03*
Y166500D03*
Y156500D03*
Y146500D03*
X214000Y166500D03*
Y156500D03*
G54D11*G36*
X211000Y149500D02*Y143500D01*
X217000D01*
Y149500D01*
X211000D01*
G37*
G54D19*X214000Y156500D03*
Y166500D03*
X248000D03*
Y156500D03*
Y146500D03*
G54D11*G36*
X166750Y136750D02*Y131250D01*
X172250D01*
Y136750D01*
X166750D01*
G37*
G54D17*X169500Y84000D03*
G54D11*G36*
X146250Y149250D02*Y143750D01*
X151750D01*
Y149250D01*
X146250D01*
G37*
G36*
X167000Y76500D02*Y71500D01*
X172000D01*
Y76500D01*
X167000D01*
G37*
G54D21*X169500Y44000D03*
G54D22*X209000Y53500D03*
G54D11*G36*
X214500Y125000D02*Y116000D01*
X223500D01*
Y125000D01*
X214500D01*
G37*
G54D23*X209000Y120500D03*
X199000D03*
G54D11*G36*
X249500Y127000D02*Y121000D01*
X255500D01*
Y127000D01*
X249500D01*
G37*
G54D19*X252500Y104000D03*
G54D24*X277500Y85500D03*
G54D19*X238000Y186500D03*
X248000D03*
Y176500D03*
G54D11*G36*
X267000Y184500D02*Y178500D01*
X273000D01*
Y184500D01*
X267000D01*
G37*
G54D19*X280000Y181500D03*
G54D11*G36*
X273500Y169500D02*Y161500D01*
X281500D01*
Y169500D01*
X273500D01*
G37*
G36*
X121000Y195000D02*Y189000D01*
X127000D01*
Y195000D01*
X121000D01*
G37*
G54D17*X109000Y192000D03*
Y177000D03*
G54D11*G36*
X121000Y180000D02*Y174000D01*
X127000D01*
Y180000D01*
X121000D01*
G37*
G54D19*X134000Y192000D03*
G54D11*G36*
X146250Y194750D02*Y189250D01*
X151750D01*
Y194750D01*
X146250D01*
G37*
G36*
Y179750D02*Y174250D01*
X151750D01*
Y179750D01*
X146250D01*
G37*
G36*
Y164750D02*Y159250D01*
X151750D01*
Y164750D01*
X146250D01*
G37*
G54D19*X134000Y162000D03*
Y177000D03*
G54D17*X109000Y147000D03*
G54D11*G36*
X121000Y150000D02*Y144000D01*
X127000D01*
Y150000D01*
X121000D01*
G37*
G54D19*X134000Y147000D03*
G54D17*X109000Y162000D03*
G54D11*G36*
X121000Y165000D02*Y159000D01*
X127000D01*
Y165000D01*
X121000D01*
G37*
G36*
X135500Y125500D02*Y116500D01*
X144500D01*
Y125500D01*
X135500D01*
G37*
G54D23*X130000Y121000D03*
X120000D03*
G54D22*X130000Y54000D03*
G54D11*G36*
X42000Y114500D02*Y108500D01*
X48000D01*
Y114500D01*
X42000D01*
G37*
G54D19*X45000Y101500D03*
Y91500D03*
G54D11*G36*
X60000Y94000D02*Y89000D01*
X65000D01*
Y94000D01*
X60000D01*
G37*
G54D21*X62500Y121500D03*
G54D11*G36*
X53000Y234000D02*Y228000D01*
X59000D01*
Y234000D01*
X53000D01*
G37*
G36*
Y224000D02*Y218000D01*
X59000D01*
Y224000D01*
X53000D01*
G37*
G54D19*X66000Y231000D03*
Y221000D03*
X76000Y231000D03*
Y221000D03*
G54D11*G36*
X74750Y85750D02*Y80250D01*
X80250D01*
Y85750D01*
X74750D01*
G37*
G54D17*X77500Y133000D03*
G54D19*X86000Y231000D03*
Y221000D03*
X96000D03*
X106000D03*
X96000Y231000D03*
X106000D03*
G54D11*G36*
X89750Y135750D02*Y130250D01*
X95250D01*
Y135750D01*
X89750D01*
G37*
G54D17*X92500Y83000D03*
G54D11*G36*
X97500Y164500D02*Y159500D01*
X102500D01*
Y164500D01*
X97500D01*
G37*
G36*
Y194500D02*Y189500D01*
X102500D01*
Y194500D01*
X97500D01*
G37*
G36*
Y179500D02*Y174500D01*
X102500D01*
Y179500D01*
X97500D01*
G37*
G36*
Y149500D02*Y144500D01*
X102500D01*
Y149500D01*
X97500D01*
G37*
G54D21*X70000Y147000D03*
G54D11*G36*
X56250Y149750D02*Y144250D01*
X61750D01*
Y149750D01*
X56250D01*
G37*
G54D21*X70000Y162000D03*
G54D11*G36*
X56250Y179750D02*Y174250D01*
X61750D01*
Y179750D01*
X56250D01*
G37*
G54D19*X46000Y182000D03*
Y172000D03*
G54D21*X70000Y177000D03*
G54D11*G36*
X56250Y164750D02*Y159250D01*
X61750D01*
Y164750D01*
X56250D01*
G37*
G54D19*X46000Y162000D03*
Y152000D03*
G54D11*G36*
X42000Y132500D02*Y126500D01*
X48000D01*
Y132500D01*
X42000D01*
G37*
G54D19*X55000Y129500D03*
G54D11*G36*
X56250Y194750D02*Y189250D01*
X61750D01*
Y194750D01*
X56250D01*
G37*
G36*
X43000Y195000D02*Y189000D01*
X49000D01*
Y195000D01*
X43000D01*
G37*
G54D21*X70000Y192000D03*
G54D11*G36*
X133000Y224000D02*Y218000D01*
X139000D01*
Y224000D01*
X133000D01*
G37*
G36*
Y234000D02*Y228000D01*
X139000D01*
Y234000D01*
X133000D01*
G37*
G54D19*X146000Y231000D03*
Y221000D03*
X156000D03*
X166000D03*
X176000D03*
X186000D03*
X196000D03*
X156000Y231000D03*
X166000D03*
X176000D03*
X186000D03*
G54D25*X173000Y368000D03*
X168000Y361000D03*
X163000Y371500D03*
X168000Y375000D03*
X153000D03*
X193000Y361000D03*
X183000Y364500D03*
Y375000D03*
X220000Y378500D03*
X251500Y485000D03*
X245000Y429000D03*
X230000D03*
X203500Y434500D03*
Y471000D03*
X210500Y458500D03*
Y511000D03*
Y479000D03*
X255000Y371500D03*
X245000Y382000D03*
X248500Y375000D03*
X210500Y342000D03*
Y347500D03*
X203500Y336000D03*
Y330500D03*
X202000Y314500D03*
X297500Y342000D03*
Y347500D03*
X290500Y336000D03*
Y330500D03*
X220000Y299500D03*
X210500Y412500D03*
X297500D03*
X210500Y407000D03*
X297500D03*
X203500Y401000D03*
X290500D03*
X203500Y395500D03*
X290500D03*
X255000Y425500D03*
X264000Y435500D03*
X273500Y440500D03*
X290500Y435500D03*
X297500Y458500D03*
X290500Y471000D03*
X297500Y502000D03*
Y486500D03*
Y479000D03*
X280000Y471000D03*
X297500Y494000D03*
X201000Y269000D03*
G54D19*X176000Y193500D03*
X183500D03*
X186500Y133500D03*
X179500D03*
X152000Y99500D03*
Y125000D03*
X139500Y91000D03*
G54D25*X290500Y299500D03*
Y314500D03*
X297500Y306500D03*
Y291500D03*
Y286000D03*
X253500Y248000D03*
X243000Y230500D03*
X261500D03*
X255500Y196500D03*
X261000Y140000D03*
X29500Y330500D03*
Y336000D03*
X36500Y347500D03*
Y342000D03*
X61000Y382000D03*
X61500Y311500D03*
X29500Y395500D03*
Y401000D03*
X36500Y407000D03*
X29500Y299500D03*
Y313000D03*
X36500Y291500D03*
X46000D03*
X42500Y231000D03*
Y221000D03*
X56000Y211500D03*
X36500Y412500D03*
X61000Y430500D03*
X29500Y471000D03*
X36500Y458500D03*
X43000Y471000D03*
X36500Y479000D03*
Y487500D03*
Y504500D03*
X29500Y511000D03*
X36500Y496000D03*
X69000Y528500D03*
X29500D03*
Y446500D03*
X54000Y471000D03*
X43000Y446500D03*
X54000D03*
X148000Y375000D03*
X138000Y361000D03*
X143000Y382000D03*
X123500Y412500D03*
Y407000D03*
X116500Y401000D03*
Y395500D03*
X123500Y342000D03*
Y347500D03*
X116500Y336000D03*
X91000Y378500D03*
X81000Y375000D03*
X101000Y382000D03*
X96000Y361000D03*
X91000Y368000D03*
X76500Y371500D03*
X123500Y458500D03*
X116500Y446500D03*
Y471000D03*
X123500Y479000D03*
X130500Y440500D03*
X127500Y521000D03*
X123500D03*
X109500Y514000D03*
X116500Y528500D03*
X155500D03*
G54D26*X101500D03*
G54D25*X134500D03*
X101000Y317000D03*
X76000Y315000D03*
X91000Y313500D03*
X71000Y315000D03*
X116500Y330500D03*
Y299500D03*
X83000Y272500D03*
X71000Y275500D03*
X90000Y285000D03*
X139000Y287000D03*
X123500Y269000D03*
X144500Y282000D03*
X116500Y235000D03*
Y223500D03*
G54D19*X117000Y217000D03*
G54D25*Y206000D03*
X111500D03*
G54D27*G54D28*G54D29*G54D28*G54D27*G54D28*G54D29*G54D30*G54D31*G54D30*G54D27*G54D30*G54D27*G54D30*G54D27*G54D30*G54D27*G54D30*G54D27*G54D30*G54D27*G54D30*G54D27*G54D32*G54D27*G54D32*G54D27*G54D32*G54D27*G54D32*G54D27*G54D32*G54D27*G54D11*G54D33*G54D29*G54D19*G54D27*G54D21*G54D32*G54D21*G54D27*G54D19*G54D33*G54D29*G54D32*G54D11*G54D32*G54D27*G54D32*G54D27*G54D11*G54D27*G54D11*G54D27*G54D32*G54D11*G54D27*G54D32*G54D27*G54D32*G54D11*G54D32*G54D11*G54D34*G54D11*G54D34*G54D11*G54D35*X304500Y577500D02*Y36000D01*
X22500D02*Y577500D01*
X32500Y587500D02*X294500D01*
X82500Y64000D02*Y48500D01*
X32500Y26000D02*X294500D01*
X246000Y85000D02*X257000D01*
X241500Y80500D02*Y69500D01*
X87000Y68500D02*X93500D01*
X98000Y64000D02*Y48500D01*
X87000Y44000D02*X93500D01*
X22500Y36000D02*G75*G03X32500Y26000I10000J0D01*G01*
Y587500D02*G75*G03X22500Y577500I0J-10000D01*G01*
X294500Y587500D02*G75*G02X304500Y577500I0J-10000D01*G01*
X294500Y26000D02*G75*G03X304500Y36000I0J10000D01*G01*
X241500Y80500D02*G75*G02X246000Y85000I4500J0D01*G01*
Y65000D02*G75*G02X241500Y69500I0J4500D01*G01*
X250500D02*G75*G02X246000Y65000I-4500J0D01*G01*
X257000Y85000D02*G75*G02X261500Y80500I0J-4500D01*G01*
G75*G02X257000Y76000I-4500J0D01*G01*
G75*G03X250500Y69500I0J-6500D01*G01*
X93500Y68500D02*G75*G02X98000Y64000I0J-4500D01*G01*
X82500D02*G75*G02X87000Y68500I4500J0D01*G01*
Y44000D02*G75*G02X82500Y48500I0J4500D01*G01*
X98000D02*G75*G02X93500Y44000I-4500J0D01*G01*
M02*
