G04 start of page 6 for group 10 idx 10 *
G04 Title: (unknown), box_meca *
G04 Creator: pcb 20091103 *
G04 CreationDate: Sun Dec 17 12:14:22 2023 UTC *
G04 For: bh *
G04 Format: Gerber/RS-274X *
G04 PCB-Dimensions: 380000 700000 *
G04 PCB-Coordinate-Origin: lower left *
%MOIN*%
%FSLAX25Y25*%
%LNGROUP10*%
%ADD11C,0.0200*%
%ADD12C,0.0100*%
%ADD13C,0.0400*%
%ADD17C,0.0550*%
%ADD18C,0.0650*%
%ADD19C,0.0600*%
%ADD20C,0.0720*%
%ADD21C,0.1500*%
%ADD22C,0.0800*%
%ADD23C,0.0900*%
%ADD24C,0.0500*%
%ADD25C,0.0520*%
%ADD26C,0.0360*%
%ADD27C,0.0410*%
%ADD28C,0.0300*%
%ADD29C,0.0430*%
%ADD30C,0.1220*%
%ADD31C,0.0280*%
%ADD32C,0.0420*%
%ADD33C,0.0380*%
%ADD34C,0.1300*%
%ADD35C,0.0220*%
%ADD36C,0.0350*%
%ADD37C,0.0060*%
%ADD38C,0.0102*%
G54D37*X321000Y79700D02*X6000D01*
X41200Y78600D02*X281400D01*
X6000Y669800D02*X321000D01*
X307900Y672300D02*X20300D01*
X321000Y79700D02*Y669800D01*
X6000D02*Y79700D01*
G54D12*X163000Y510500D02*G75*G02X153000Y520500I0J10000D01*G01*
G75*G02X163000Y530500I10000J0D01*G01*
X162998D02*G75*G02X173000Y520498I0J-10002D01*G01*
Y520499D02*G75*G02X163001Y510500I-9999J0D01*G01*
X250000D02*G75*G02X240000Y520500I0J10000D01*G01*
G75*G02X250000Y530500I10000J0D01*G01*
X249998D02*G75*G02X260000Y520498I0J-10002D01*G01*
Y520499D02*G75*G02X250001Y510500I-9999J0D01*G01*
X76000D02*G75*G02X66000Y520500I0J10000D01*G01*
G75*G02X76000Y530500I10000J0D01*G01*
X75998D02*G75*G02X86000Y520498I0J-10002D01*G01*
Y520499D02*G75*G02X76001Y510500I-9999J0D01*G01*
X76000Y560500D02*G75*G02X66000Y570500I0J10000D01*G01*
G75*G02X76000Y580500I10000J0D01*G01*
X75998D02*G75*G02X86000Y570498I0J-10002D01*G01*
Y570499D02*G75*G02X76001Y560500I-9999J0D01*G01*
X119500Y610500D02*G75*G02X109500Y620500I0J10000D01*G01*
G75*G02X119500Y630500I10000J0D01*G01*
X119498D02*G75*G02X129500Y620498I0J-10002D01*G01*
Y620499D02*G75*G02X119501Y610500I-9999J0D01*G01*
X250000Y560500D02*G75*G02X240000Y570500I0J10000D01*G01*
G75*G02X250000Y580500I10000J0D01*G01*
X249998D02*G75*G02X260000Y570498I0J-10002D01*G01*
Y570499D02*G75*G02X250001Y560500I-9999J0D01*G01*
X163000D02*G75*G02X153000Y570500I0J10000D01*G01*
G75*G02X163000Y580500I10000J0D01*G01*
X162998D02*G75*G02X173000Y570498I0J-10002D01*G01*
Y570499D02*G75*G02X163001Y560500I-9999J0D01*G01*
X206500Y610500D02*G75*G02X196500Y620500I0J10000D01*G01*
G75*G02X206500Y630500I10000J0D01*G01*
X206498D02*G75*G02X216500Y620498I0J-10002D01*G01*
Y620499D02*G75*G02X206501Y610500I-9999J0D01*G01*
G54D38*X70770Y680800D02*X74580D01*
X69500Y682070D02*X70770Y680800D01*
X69500Y689690D02*Y682070D01*
Y689690D02*X70770Y690960D01*
X74580D01*
X77630Y685880D02*Y682070D01*
X78900Y680800D01*
X81440D01*
X82710Y682070D01*
Y685880D02*Y682070D01*
X87031Y690960D02*Y682070D01*
X88301Y680800D01*
X85761Y687150D02*X88301D01*
X95415Y684610D02*Y682070D01*
Y684610D02*X96685Y685880D01*
X99225D01*
X100495Y684610D01*
Y682070D01*
X99225Y680800D02*X100495Y682070D01*
X96685Y680800D02*X99225D01*
X95415Y682070D02*X96685Y680800D01*
X103546Y685880D02*Y682070D01*
X104816Y680800D01*
X107356D01*
X108626Y682070D01*
Y685880D02*Y682070D01*
X112946Y690960D02*Y682070D01*
X114216Y680800D01*
X111676Y687150D02*X114216D01*
X122601Y689690D02*Y680800D01*
Y689690D02*X123871Y690960D01*
X125141D01*
X121331Y685880D02*X123871D01*
X127683Y684610D02*Y682070D01*
Y684610D02*X128953Y685880D01*
X131493D01*
X132763Y684610D01*
Y682070D01*
X131493Y680800D02*X132763Y682070D01*
X128953Y680800D02*X131493D01*
X127683Y682070D02*X128953Y680800D01*
X137084Y684610D02*Y680800D01*
Y684610D02*X138354Y685880D01*
X140894D01*
X135814D02*X137084Y684610D01*
X149786Y690960D02*Y682070D01*
X151056Y680800D01*
X148516Y687150D02*X151056D01*
X153599Y690960D02*Y680800D01*
Y684610D02*X154869Y685880D01*
X157409D01*
X158679Y684610D01*
Y680800D01*
X162999D02*X166809D01*
X161729Y682070D02*X162999Y680800D01*
X161729Y684610D02*Y682070D01*
Y684610D02*X162999Y685880D01*
X165539D01*
X166809Y684610D01*
X161729Y683340D02*X166809D01*
Y684610D02*Y683340D01*
X175702Y680800D02*X178242D01*
X176972Y690960D02*Y680800D01*
X174432Y688420D02*X176972Y690960D01*
X181293D02*X186373D01*
X181293D02*Y685880D01*
X182563Y687150D01*
X185103D01*
X186373Y685880D01*
Y682070D01*
X185103Y680800D02*X186373Y682070D01*
X182563Y680800D02*X185103D01*
X181293Y682070D02*X182563Y680800D01*
X189423D02*X194503Y685880D01*
Y689690D02*Y685880D01*
X193233Y690960D02*X194503Y689690D01*
X190693Y690960D02*X193233D01*
X189423Y689690D02*X190693Y690960D01*
X189423Y689690D02*Y687150D01*
X190693Y685880D01*
X194503D01*
X198824Y680800D02*X201364D01*
X200094Y690960D02*Y680800D01*
X197554Y688420D02*X200094Y690960D01*
X205684D02*Y680800D01*
X209494Y690960D02*X210764Y689690D01*
Y682070D01*
X209494Y680800D02*X210764Y682070D01*
X204414Y680800D02*X209494D01*
X204414Y690960D02*X209494D01*
X218387D02*Y680800D01*
Y682070D02*X219657Y680800D01*
X222197D01*
X223467Y682070D01*
Y684610D02*Y682070D01*
X222197Y685880D02*X223467Y684610D01*
X219657Y685880D02*X222197D01*
X218387Y684610D02*X219657Y685880D01*
X226517Y684610D02*Y682070D01*
Y684610D02*X227787Y685880D01*
X230327D01*
X231597Y684610D01*
Y682070D01*
X230327Y680800D02*X231597Y682070D01*
X227787Y680800D02*X230327D01*
X226517Y682070D02*X227787Y680800D01*
X234648Y685880D02*X239728Y680800D01*
X234648D02*X239728Y685880D01*
G54D11*G36*
X228750Y561750D02*Y556250D01*
X234250D01*
Y561750D01*
X228750D01*
G37*
G54D17*X231500Y532000D03*
G54D11*G36*
X198250Y623750D02*Y617250D01*
X204750D01*
Y623750D01*
X198250D01*
G37*
G54D18*X211500Y620500D03*
G54D11*G36*
X241750Y573750D02*Y567250D01*
X248250D01*
Y573750D01*
X241750D01*
G37*
G54D18*X255000Y570500D03*
G54D11*G36*
X241750Y523750D02*Y517250D01*
X248250D01*
Y523750D01*
X241750D01*
G37*
G54D18*X255000Y520500D03*
G54D17*X181500Y559000D03*
Y508500D03*
G54D11*G36*
X178750Y534750D02*Y529250D01*
X184250D01*
Y534750D01*
X178750D01*
G37*
G36*
X141750Y584750D02*Y579250D01*
X147250D01*
Y584750D01*
X141750D01*
G37*
G54D17*X144500Y532000D03*
G54D11*G36*
X141750Y511250D02*Y505750D01*
X147250D01*
Y511250D01*
X141750D01*
G37*
G36*
Y561250D02*Y555750D01*
X147250D01*
Y561250D01*
X141750D01*
G37*
G54D17*X94500Y582000D03*
G54D11*G36*
X91750Y534750D02*Y529250D01*
X97250D01*
Y534750D01*
X91750D01*
G37*
G54D17*X94500Y508500D03*
Y558500D03*
G54D11*G36*
X111250Y623750D02*Y617250D01*
X117750D01*
Y623750D01*
X111250D01*
G37*
G54D18*X124500Y620500D03*
G54D11*G36*
X154750Y523750D02*Y517250D01*
X161250D01*
Y523750D01*
X154750D01*
G37*
G36*
Y573750D02*Y567250D01*
X161250D01*
Y573750D01*
X154750D01*
G37*
G54D18*X168000Y520500D03*
Y570500D03*
G54D11*G36*
X67750Y523750D02*Y517250D01*
X74250D01*
Y523750D01*
X67750D01*
G37*
G54D18*X81000Y520500D03*
G54D11*G36*
X67750Y573750D02*Y567250D01*
X74250D01*
Y573750D01*
X67750D01*
G37*
G54D18*X81000Y570500D03*
G54D19*X250000Y422000D03*
X240000D03*
X230000D03*
X220000D03*
X173000Y392000D03*
G54D11*G36*
X164900Y378100D02*Y370900D01*
X172100D01*
Y378100D01*
X164900D01*
G37*
G54D20*X158500Y374500D03*
X148500D03*
G54D19*X183000Y392000D03*
G54D11*G36*
X180250Y377250D02*Y371750D01*
X185750D01*
Y377250D01*
X180250D01*
G37*
G54D19*X193000Y392000D03*
Y422000D03*
X183000D03*
X173000D03*
X250000Y392000D03*
X260000D03*
X270000D03*
X280000D03*
G54D11*G36*
X217000Y395000D02*Y389000D01*
X223000D01*
Y395000D01*
X217000D01*
G37*
G54D19*X230000Y392000D03*
X240000D03*
X280000Y422000D03*
X270000D03*
X260000D03*
G54D11*G36*
X277000Y442500D02*Y436500D01*
X283000D01*
Y442500D01*
X277000D01*
G37*
G54D19*X270000Y439500D03*
G54D11*G36*
X130000Y395000D02*Y389000D01*
X136000D01*
Y395000D01*
X130000D01*
G37*
G54D19*X143000Y392000D03*
X153000D03*
X163000D03*
Y422000D03*
Y457000D03*
X173000D03*
X183000D03*
X153000Y422000D03*
Y457000D03*
X193000D03*
X240000D03*
Y487000D03*
X250000Y457000D03*
Y487000D03*
X260000Y457000D03*
Y487000D03*
X270000Y457000D03*
Y487000D03*
X280000Y457000D03*
Y487000D03*
G54D11*G36*
X228750Y511250D02*Y505750D01*
X234250D01*
Y511250D01*
X228750D01*
G37*
G36*
X217000Y460000D02*Y454000D01*
X223000D01*
Y460000D01*
X217000D01*
G37*
G54D19*X230000Y457000D03*
Y487000D03*
X220000D03*
X193000D03*
G54D11*G36*
X207000Y362500D02*Y356500D01*
X213000D01*
Y362500D01*
X207000D01*
G37*
G54D19*X220000Y359500D03*
G54D17*X233000Y374500D03*
G54D11*G36*
X227250Y347250D02*Y341750D01*
X232750D01*
Y347250D01*
X227250D01*
G37*
G54D17*X280000Y344500D03*
Y359500D03*
G54D11*G36*
X277000Y377500D02*Y371500D01*
X283000D01*
Y377500D01*
X277000D01*
G37*
G36*
X43000Y442500D02*Y436500D01*
X49000D01*
Y442500D01*
X43000D01*
G37*
G54D19*X56000Y439500D03*
G54D11*G36*
X43000Y460000D02*Y454000D01*
X49000D01*
Y460000D01*
X43000D01*
G37*
G36*
Y395000D02*Y389000D01*
X49000D01*
Y395000D01*
X43000D01*
G37*
G54D19*X46000Y422000D03*
G54D11*G36*
X43000Y377500D02*Y371500D01*
X49000D01*
Y377500D01*
X43000D01*
G37*
G54D19*X56000Y457000D03*
Y392000D03*
Y422000D03*
X66000Y457000D03*
Y392000D03*
Y422000D03*
G54D11*G36*
X53250Y332250D02*Y326750D01*
X58750D01*
Y332250D01*
X53250D01*
G37*
G36*
Y347250D02*Y341750D01*
X58750D01*
Y347250D01*
X53250D01*
G37*
G36*
Y362250D02*Y356750D01*
X58750D01*
Y362250D01*
X53250D01*
G37*
G54D19*X56000Y374500D03*
X143000Y422000D03*
Y457000D03*
Y487000D03*
X133000Y422000D03*
G54D11*G36*
X130000Y460000D02*Y454000D01*
X136000D01*
Y460000D01*
X130000D01*
G37*
G54D19*X133000Y487000D03*
X183000D03*
X173000D03*
X163000D03*
X153000D03*
X106000D03*
X86000Y422000D03*
X76000D03*
X96000Y487000D03*
X86000D03*
X76000D03*
X66000D03*
X56000D03*
X46000D03*
X76000Y457000D03*
X86000D03*
X96000D03*
X106000D03*
X76000Y392000D03*
X86000D03*
X96000D03*
X106000D03*
Y422000D03*
X96000D03*
G54D17*X106000Y329500D03*
G54D11*G36*
X130250Y332250D02*Y326750D01*
X135750D01*
Y332250D01*
X130250D01*
G37*
G54D17*X106000Y344500D03*
G54D11*G36*
X130250Y347250D02*Y341750D01*
X135750D01*
Y347250D01*
X130250D01*
G37*
G54D17*X183000Y344500D03*
X106000Y359500D03*
G54D11*G36*
X80250Y377250D02*Y371750D01*
X85750D01*
Y377250D01*
X80250D01*
G37*
G54D17*X133000Y374500D03*
G54D11*G36*
X130250Y362250D02*Y356750D01*
X135750D01*
Y362250D01*
X130250D01*
G37*
G54D17*X183000Y329500D03*
G54D11*G36*
X227250Y332250D02*Y326750D01*
X232750D01*
Y332250D01*
X227250D01*
G37*
G54D17*X280000Y329500D03*
G54D11*G36*
X207000Y332500D02*Y326500D01*
X213000D01*
Y332500D01*
X207000D01*
G37*
G54D19*X220000Y329500D03*
G54D11*G36*
X207000Y347500D02*Y341500D01*
X213000D01*
Y347500D01*
X207000D01*
G37*
G54D19*X220000Y344500D03*
G54D11*G36*
X227250Y362250D02*Y356750D01*
X232750D01*
Y362250D01*
X227250D01*
G37*
G54D17*X183000Y359500D03*
G54D19*X270000Y374500D03*
G54D11*G36*
X211000Y267500D02*Y261500D01*
X217000D01*
Y267500D01*
X211000D01*
G37*
G54D19*X214000Y254500D03*
G54D11*G36*
X227250Y302250D02*Y296750D01*
X232750D01*
Y302250D01*
X227250D01*
G37*
G54D19*X214000Y254500D03*
G54D11*G36*
X227250Y317250D02*Y311750D01*
X232750D01*
Y317250D01*
X227250D01*
G37*
G54D19*X214000Y244500D03*
G54D17*X199000Y260000D03*
Y245000D03*
G54D19*X214000Y244500D03*
X196000Y289000D03*
X206000D03*
Y299000D03*
X196000D03*
G54D21*X209000Y121500D03*
G54D22*X277500Y153500D03*
G54D11*G36*
X277000Y287500D02*Y281500D01*
X283000D01*
Y287500D01*
X277000D01*
G37*
G54D19*X270000Y284500D03*
G54D17*X280000Y299500D03*
G54D11*G36*
X267000Y252500D02*Y246500D01*
X273000D01*
Y252500D01*
X267000D01*
G37*
G54D19*X280000Y249500D03*
G54D11*G36*
X273500Y237500D02*Y229500D01*
X281500D01*
Y237500D01*
X273500D01*
G37*
G36*
X267000Y271500D02*Y265500D01*
X273000D01*
Y271500D01*
X267000D01*
G37*
G54D19*X280000Y268500D03*
X248000Y244500D03*
Y234500D03*
G54D11*G36*
X245000Y277500D02*Y271500D01*
X251000D01*
Y277500D01*
X245000D01*
G37*
G54D19*X248000Y264500D03*
Y254500D03*
G54D11*G36*
X235000Y277500D02*Y271500D01*
X241000D01*
Y277500D01*
X235000D01*
G37*
G54D19*X238000Y264500D03*
Y254500D03*
Y244500D03*
G54D17*X280000Y314500D03*
G54D19*X248000Y224500D03*
X238000Y234500D03*
Y224500D03*
X248000Y214500D03*
X238000D03*
G54D17*X199000Y230000D03*
Y214500D03*
G54D11*G36*
X214500Y193000D02*Y184000D01*
X223500D01*
Y193000D01*
X214500D01*
G37*
G54D23*X209000Y188500D03*
X199000D03*
G54D11*G36*
X249500Y195000D02*Y189000D01*
X255500D01*
Y195000D01*
X249500D01*
G37*
G54D19*X252500Y172000D03*
X214000Y234500D03*
Y224500D03*
G54D11*G36*
X211000Y217500D02*Y211500D01*
X217000D01*
Y217500D01*
X211000D01*
G37*
G54D19*X214000Y224500D03*
Y234500D03*
G54D11*G36*
X121000Y263000D02*Y257000D01*
X127000D01*
Y263000D01*
X121000D01*
G37*
G54D17*X109000Y260000D03*
Y245000D03*
Y230000D03*
G54D11*G36*
X121000Y233000D02*Y227000D01*
X127000D01*
Y233000D01*
X121000D01*
G37*
G36*
Y248000D02*Y242000D01*
X127000D01*
Y248000D01*
X121000D01*
G37*
G54D19*X134000Y260000D03*
G54D11*G36*
X146250Y262750D02*Y257250D01*
X151750D01*
Y262750D01*
X146250D01*
G37*
G36*
Y247750D02*Y242250D01*
X151750D01*
Y247750D01*
X146250D01*
G37*
G36*
Y232750D02*Y227250D01*
X151750D01*
Y232750D01*
X146250D01*
G37*
G54D19*X134000Y230000D03*
Y245000D03*
G54D11*G36*
X97400Y247600D02*Y242400D01*
X102600D01*
Y247600D01*
X97400D01*
G37*
G36*
Y262600D02*Y257400D01*
X102600D01*
Y262600D01*
X97400D01*
G37*
G36*
X60000Y162000D02*Y157000D01*
X65000D01*
Y162000D01*
X60000D01*
G37*
G36*
X166750Y204750D02*Y199250D01*
X172250D01*
Y204750D01*
X166750D01*
G37*
G54D17*X169500Y152000D03*
G54D11*G36*
X146250Y217250D02*Y211750D01*
X151750D01*
Y217250D01*
X146250D01*
G37*
G36*
X135500Y193500D02*Y184500D01*
X144500D01*
Y193500D01*
X135500D01*
G37*
G54D23*X130000Y189000D03*
X120000D03*
G54D11*G36*
X167000Y144500D02*Y139500D01*
X172000D01*
Y144500D01*
X167000D01*
G37*
G54D17*X92500Y151000D03*
G54D11*G36*
X74750Y153750D02*Y148250D01*
X80250D01*
Y153750D01*
X74750D01*
G37*
G54D24*X169500Y112000D03*
G54D21*X130000Y122000D03*
G54D11*G36*
X42000Y200500D02*Y194500D01*
X48000D01*
Y200500D01*
X42000D01*
G37*
G36*
Y182500D02*Y176500D01*
X48000D01*
Y182500D01*
X42000D01*
G37*
G54D19*X45000Y169500D03*
Y159500D03*
X55000Y197500D03*
G54D11*G36*
X89750Y203750D02*Y198250D01*
X95250D01*
Y203750D01*
X89750D01*
G37*
G54D17*X77500Y201000D03*
G54D24*X62500Y189500D03*
G54D11*G36*
X43000Y263000D02*Y257000D01*
X49000D01*
Y263000D01*
X43000D01*
G37*
G36*
X53000Y302000D02*Y296000D01*
X59000D01*
Y302000D01*
X53000D01*
G37*
G36*
Y292000D02*Y286000D01*
X59000D01*
Y292000D01*
X53000D01*
G37*
G54D19*X46000Y250000D03*
Y240000D03*
Y230000D03*
Y220000D03*
X66000Y289000D03*
Y299000D03*
X76000D03*
X86000D03*
X96000D03*
X76000Y289000D03*
X86000D03*
X96000D03*
X106000D03*
G54D11*G36*
X133000Y292000D02*Y286000D01*
X139000D01*
Y292000D01*
X133000D01*
G37*
G54D19*X146000Y289000D03*
X156000D03*
X166000D03*
X176000D03*
Y299000D03*
X186000Y289000D03*
Y299000D03*
X106000D03*
G54D11*G36*
X133000Y302000D02*Y296000D01*
X139000D01*
Y302000D01*
X133000D01*
G37*
G54D19*X146000Y299000D03*
X156000D03*
X166000D03*
G54D11*G36*
X97400Y217600D02*Y212400D01*
X102600D01*
Y217600D01*
X97400D01*
G37*
G36*
Y232600D02*Y227400D01*
X102600D01*
Y232600D01*
X97400D01*
G37*
G36*
X56250Y217750D02*Y212250D01*
X61750D01*
Y217750D01*
X56250D01*
G37*
G54D17*X109000Y215000D03*
G54D11*G36*
X121000Y218000D02*Y212000D01*
X127000D01*
Y218000D01*
X121000D01*
G37*
G54D19*X134000Y215000D03*
G54D25*X70000D03*
G54D11*G36*
X56250Y232750D02*Y227250D01*
X61750D01*
Y232750D01*
X56250D01*
G37*
G54D25*X70000Y230000D03*
G54D11*G36*
X56250Y262750D02*Y257250D01*
X61750D01*
Y262750D01*
X56250D01*
G37*
G36*
Y247750D02*Y242250D01*
X61750D01*
Y247750D01*
X56250D01*
G37*
G54D25*X70000Y245000D03*
Y260000D03*
G54D26*X173000Y436000D03*
X168000Y429000D03*
X163000Y439500D03*
X168000Y443000D03*
X153000D03*
X193000Y429000D03*
X183000Y432500D03*
Y443000D03*
X220000Y446500D03*
X251500Y553000D03*
X245000Y497000D03*
X230000D03*
X203500Y502500D03*
Y539000D03*
X210500Y526500D03*
Y579000D03*
Y547000D03*
X255000Y439500D03*
X245000Y450000D03*
X248500Y443000D03*
X210500Y410000D03*
Y415500D03*
X203500Y404000D03*
Y398500D03*
X202000Y382500D03*
X297500Y410000D03*
Y415500D03*
X290500Y404000D03*
Y398500D03*
X220000Y367500D03*
X210500Y480500D03*
X297500D03*
X210500Y475000D03*
X297500D03*
X203500Y469000D03*
X290500D03*
X203500Y463500D03*
X290500D03*
X255000Y493500D03*
X264000Y503500D03*
X273500Y508500D03*
X290500Y503500D03*
X297500Y526500D03*
X290500Y539000D03*
X297500Y570000D03*
Y554500D03*
Y547000D03*
X280000Y539000D03*
X297500Y562000D03*
X201000Y337000D03*
G54D19*X176000Y261500D03*
X183500D03*
X186500Y201500D03*
X179500D03*
X152000Y167500D03*
Y193000D03*
X139500Y159000D03*
G54D26*X290500Y367500D03*
Y382500D03*
X297500Y374500D03*
Y359500D03*
Y354000D03*
X253500Y316000D03*
X243000Y298500D03*
X261500D03*
X255500Y264500D03*
X261000Y208000D03*
X29500Y398500D03*
Y404000D03*
X36500Y415500D03*
Y410000D03*
X61000Y450000D03*
X61500Y379500D03*
X29500Y463500D03*
Y469000D03*
X36500Y475000D03*
X29500Y367500D03*
Y381000D03*
X36500Y359500D03*
X46000D03*
X42500Y299000D03*
Y289000D03*
X56000Y279500D03*
X36500Y480500D03*
X61000Y498500D03*
X29500Y539000D03*
X36500Y526500D03*
X43000Y539000D03*
X36500Y547000D03*
Y555500D03*
Y572500D03*
X29500Y579000D03*
X36500Y564000D03*
X69000Y596500D03*
X29500D03*
Y514500D03*
X54000Y539000D03*
X43000Y514500D03*
X54000D03*
X148000Y443000D03*
X138000Y429000D03*
X143000Y450000D03*
X123500Y480500D03*
Y475000D03*
X116500Y469000D03*
Y463500D03*
X123500Y410000D03*
Y415500D03*
X116500Y404000D03*
X91000Y446500D03*
X81000Y443000D03*
X101000Y450000D03*
X96000Y429000D03*
X91000Y436000D03*
X76500Y439500D03*
X123500Y526500D03*
X116500Y514500D03*
Y539000D03*
X123500Y547000D03*
X130500Y508500D03*
X127500Y589000D03*
X123500D03*
X109500Y582000D03*
X116500Y596500D03*
X155500D03*
G54D27*X101500D03*
G54D26*X134500D03*
X101000Y385000D03*
X76000Y383000D03*
X91000Y381500D03*
X71000Y383000D03*
X116500Y398500D03*
Y367500D03*
X83000Y340500D03*
X71000Y343500D03*
X90000Y353000D03*
X139000Y355000D03*
X123500Y337000D03*
X144500Y350000D03*
X116500Y303000D03*
Y291500D03*
G54D19*X117000Y285000D03*
G54D26*Y274000D03*
X111500D03*
G54D28*G54D29*G54D30*G54D29*G54D28*G54D29*G54D30*G54D31*G54D32*G54D31*G54D28*G54D31*G54D28*G54D31*G54D28*G54D31*G54D28*G54D31*G54D28*G54D31*G54D28*G54D31*G54D28*G54D33*G54D28*G54D33*G54D28*G54D33*G54D28*G54D33*G54D34*G54D30*G54D24*G54D28*G54D33*G54D24*G54D33*G54D28*G54D33*G54D28*G54D19*G54D28*G54D33*G54D28*G54D35*G54D30*G54D11*G54D28*G54D19*G54D11*G54D28*G54D11*G54D34*G54D28*G54D33*G54D28*G54D11*G54D33*G54D35*G54D28*G54D35*G54D28*G54D35*G54D28*G54D35*G54D11*G54D36*G54D11*G54D36*G54D11*G54D13*X230000Y152500D02*X178500D01*
G54D37*X246000Y153000D02*X257000D01*
X241500Y148500D02*Y137500D01*
X22500Y123000D02*Y626500D01*
X304500D02*Y123000D01*
X51500Y94000D02*X275500D01*
X87000Y136500D02*X93500D01*
X98000Y132000D02*Y116500D01*
X87000Y112000D02*X93500D01*
X82500Y132000D02*Y116500D01*
X51500Y655500D02*X275500D01*
X277500Y96000D02*G75*G02X302500Y121000I25000J0D01*G01*
X275500Y94000D02*G75*G03X277500Y96000I0J2000D01*G01*
X302500Y121000D02*G75*G03X304500Y123000I0J2000D01*G01*
X302500Y628500D02*G75*G02X277500Y653500I0J25000D01*G01*
G75*G03X275500Y655500I-2000J0D01*G01*
X304500Y626500D02*G75*G03X302500Y628500I-2000J0D01*G01*
X49500Y96000D02*G75*G03X51500Y94000I2000J0D01*G01*
X49500Y653500D02*G75*G02X24500Y628500I-25000J0D01*G01*
Y121000D02*G75*G02X49500Y96000I0J-25000D01*G01*
X51500Y655500D02*G75*G03X49500Y653500I0J-2000D01*G01*
X24500Y628500D02*G75*G03X22500Y626500I0J-2000D01*G01*
X241500Y148500D02*G75*G02X246000Y153000I4500J0D01*G01*
Y133000D02*G75*G02X241500Y137500I0J4500D01*G01*
X250500D02*G75*G02X246000Y133000I-4500J0D01*G01*
X257000Y153000D02*G75*G02X261500Y148500I0J-4500D01*G01*
G75*G02X257000Y144000I-4500J0D01*G01*
G75*G03X250500Y137500I0J-6500D01*G01*
X93500Y136500D02*G75*G02X98000Y132000I0J-4500D01*G01*
X82500D02*G75*G02X87000Y136500I4500J0D01*G01*
Y112000D02*G75*G02X82500Y116500I0J4500D01*G01*
X22500Y123000D02*G75*G03X24500Y121000I2000J0D01*G01*
X98000Y116500D02*G75*G02X93500Y112000I-4500J0D01*G01*
M02*
