G04 start of page 3 for group 1 idx 1 *
G04 Title: (unknown), solder *
G04 Creator: pcb 20091103 *
G04 CreationDate: Sun Jun 11 07:31:11 2023 UTC *
G04 For: bh *
G04 Format: Gerber/RS-274X *
G04 PCB-Dimensions: 370000 600000 *
G04 PCB-Coordinate-Origin: lower left *
%MOIN*%
%FSLAX25Y25*%
%LNBOTTOM*%
%ADD11C,0.0200*%
%ADD12C,0.0180*%
%ADD13C,0.0400*%
%ADD14C,0.0250*%
%ADD15C,0.0100*%
%ADD16C,0.0140*%
%ADD17C,0.0550*%
%ADD18C,0.0650*%
%ADD19C,0.0600*%
%ADD20C,0.0720*%
%ADD21C,0.0500*%
%ADD22C,0.1500*%
%ADD23C,0.0900*%
%ADD24C,0.0800*%
%ADD25C,0.0360*%
%ADD26C,0.0410*%
%ADD27C,0.0300*%
%ADD28C,0.0430*%
%ADD29C,0.1220*%
%ADD30C,0.0280*%
%ADD31C,0.0420*%
%ADD32C,0.0380*%
%ADD33C,0.1300*%
%ADD34C,0.0350*%
%ADD35C,0.0060*%
G54D11*G36*
X123500Y218000D02*Y233500D01*
X130500D01*
Y218000D01*
X123500D01*
G37*
G36*
X111000Y221500D02*Y237000D01*
X118500D01*
Y221500D01*
X111000D01*
G37*
G36*
X209613Y237500D02*X212500D01*
Y214500D01*
X209613D01*
Y218860D01*
X209708Y218882D01*
X209829Y218933D01*
X209938Y219005D01*
X210034Y219094D01*
X210113Y219198D01*
X210172Y219315D01*
X210314Y219722D01*
X210417Y220142D01*
X210479Y220569D01*
X210500Y221000D01*
X210479Y221432D01*
X210417Y221859D01*
X210314Y222279D01*
X210172Y222686D01*
X210171D01*
X210112Y222802D01*
X210033Y222907D01*
X209937Y222996D01*
X209828Y223067D01*
X209707Y223118D01*
X209613Y223139D01*
Y228860D01*
X209708Y228882D01*
X209829Y228933D01*
X209938Y229005D01*
X210034Y229094D01*
X210113Y229198D01*
X210172Y229315D01*
X210314Y229722D01*
X210417Y230142D01*
X210479Y230569D01*
X210500Y231000D01*
X210479Y231432D01*
X210417Y231859D01*
X210314Y232279D01*
X210172Y232686D01*
X210171D01*
X210112Y232802D01*
X210033Y232907D01*
X209937Y232996D01*
X209828Y233067D01*
X209707Y233118D01*
X209613Y233139D01*
Y237500D01*
G37*
G36*
X206000D02*X209613D01*
Y233139D01*
X209580Y233147D01*
X209450Y233154D01*
X209320Y233138D01*
X209195Y233100D01*
X209079Y233041D01*
X208974Y232962D01*
X208885Y232866D01*
X208814Y232757D01*
X208763Y232636D01*
X208734Y232509D01*
X208727Y232379D01*
X208743Y232249D01*
X208781Y232124D01*
X208876Y231853D01*
X208944Y231573D01*
X208986Y231288D01*
X209000Y231000D01*
X208986Y230713D01*
X208944Y230428D01*
X208876Y230148D01*
X208781Y229877D01*
X208780D01*
X208742Y229752D01*
X208726Y229622D01*
X208733Y229491D01*
X208762Y229364D01*
X208813Y229243D01*
X208885Y229134D01*
X208974Y229038D01*
X209078Y228959D01*
X209195Y228900D01*
X209320Y228862D01*
X209450Y228846D01*
X209581Y228853D01*
X209613Y228860D01*
Y223139D01*
X209580Y223147D01*
X209450Y223154D01*
X209320Y223138D01*
X209195Y223100D01*
X209079Y223041D01*
X208974Y222962D01*
X208885Y222866D01*
X208814Y222757D01*
X208763Y222636D01*
X208734Y222509D01*
X208727Y222379D01*
X208743Y222249D01*
X208781Y222124D01*
X208876Y221853D01*
X208944Y221573D01*
X208986Y221288D01*
X209000Y221000D01*
X208986Y220713D01*
X208944Y220428D01*
X208876Y220148D01*
X208781Y219877D01*
X208780D01*
X208742Y219752D01*
X208726Y219622D01*
X208733Y219491D01*
X208762Y219364D01*
X208813Y219243D01*
X208885Y219134D01*
X208974Y219038D01*
X209078Y218959D01*
X209195Y218900D01*
X209320Y218862D01*
X209450Y218846D01*
X209581Y218853D01*
X209613Y218860D01*
Y214500D01*
X206000D01*
Y216500D01*
X206431Y216521D01*
X206858Y216583D01*
X207278Y216686D01*
X207685Y216828D01*
Y216829D01*
X207801Y216888D01*
X207906Y216967D01*
X207995Y217063D01*
X208066Y217172D01*
X208117Y217293D01*
X208146Y217420D01*
X208153Y217550D01*
X208137Y217680D01*
X208099Y217805D01*
X208040Y217921D01*
X207961Y218026D01*
X207865Y218115D01*
X207756Y218186D01*
X207635Y218237D01*
X207508Y218266D01*
X207378Y218273D01*
X207248Y218257D01*
X207123Y218219D01*
X206852Y218124D01*
X206572Y218056D01*
X206287Y218014D01*
X206000Y218000D01*
Y224000D01*
X206287Y223987D01*
X206572Y223945D01*
X206852Y223877D01*
X207123Y223782D01*
Y223781D01*
X207248Y223743D01*
X207378Y223727D01*
X207509Y223734D01*
X207636Y223763D01*
X207757Y223814D01*
X207866Y223886D01*
X207962Y223975D01*
X208041Y224079D01*
X208100Y224196D01*
X208138Y224321D01*
X208154Y224451D01*
X208147Y224582D01*
X208118Y224709D01*
X208067Y224830D01*
X207995Y224939D01*
X207906Y225035D01*
X207802Y225114D01*
X207685Y225173D01*
X207278Y225315D01*
X206858Y225418D01*
X206431Y225480D01*
X206000Y225500D01*
Y226500D01*
X206431Y226521D01*
X206858Y226583D01*
X207278Y226686D01*
X207685Y226828D01*
Y226829D01*
X207801Y226888D01*
X207906Y226967D01*
X207995Y227063D01*
X208066Y227172D01*
X208117Y227293D01*
X208146Y227420D01*
X208153Y227550D01*
X208137Y227680D01*
X208099Y227805D01*
X208040Y227921D01*
X207961Y228026D01*
X207865Y228115D01*
X207756Y228186D01*
X207635Y228237D01*
X207508Y228266D01*
X207378Y228273D01*
X207248Y228257D01*
X207123Y228219D01*
X206852Y228124D01*
X206572Y228056D01*
X206287Y228014D01*
X206000Y228000D01*
Y234000D01*
X206287Y233987D01*
X206572Y233945D01*
X206852Y233877D01*
X207123Y233782D01*
Y233781D01*
X207248Y233743D01*
X207378Y233727D01*
X207509Y233734D01*
X207636Y233763D01*
X207757Y233814D01*
X207866Y233886D01*
X207962Y233975D01*
X208041Y234079D01*
X208100Y234196D01*
X208138Y234321D01*
X208154Y234451D01*
X208147Y234582D01*
X208118Y234709D01*
X208067Y234830D01*
X207995Y234939D01*
X207906Y235035D01*
X207802Y235114D01*
X207685Y235173D01*
X207278Y235315D01*
X206858Y235418D01*
X206431Y235480D01*
X206000Y235500D01*
Y237500D01*
G37*
G36*
X202387D02*X206000D01*
Y235500D01*
X205568Y235480D01*
X205141Y235418D01*
X204721Y235315D01*
X204314Y235173D01*
Y235172D01*
X204198Y235113D01*
X204093Y235034D01*
X204004Y234938D01*
X203933Y234829D01*
X203882Y234708D01*
X203853Y234581D01*
X203846Y234451D01*
X203862Y234321D01*
X203900Y234196D01*
X203959Y234080D01*
X204038Y233975D01*
X204134Y233886D01*
X204243Y233815D01*
X204364Y233764D01*
X204491Y233735D01*
X204621Y233728D01*
X204751Y233744D01*
X204876Y233782D01*
X205147Y233877D01*
X205427Y233945D01*
X205712Y233987D01*
X206000Y234000D01*
Y228000D01*
X205999D01*
X205712Y228014D01*
X205427Y228056D01*
X205147Y228124D01*
X204876Y228219D01*
Y228220D01*
X204751Y228258D01*
X204621Y228274D01*
X204490Y228267D01*
X204363Y228238D01*
X204242Y228187D01*
X204133Y228115D01*
X204037Y228026D01*
X203958Y227922D01*
X203899Y227805D01*
X203861Y227680D01*
X203845Y227550D01*
X203852Y227419D01*
X203881Y227292D01*
X203932Y227171D01*
X204004Y227062D01*
X204093Y226966D01*
X204197Y226887D01*
X204314Y226828D01*
X204721Y226686D01*
X205141Y226583D01*
X205568Y226521D01*
X205999Y226500D01*
X206000D01*
Y225500D01*
X205568Y225480D01*
X205141Y225418D01*
X204721Y225315D01*
X204314Y225173D01*
Y225172D01*
X204198Y225113D01*
X204093Y225034D01*
X204004Y224938D01*
X203933Y224829D01*
X203882Y224708D01*
X203853Y224581D01*
X203846Y224451D01*
X203862Y224321D01*
X203900Y224196D01*
X203959Y224080D01*
X204038Y223975D01*
X204134Y223886D01*
X204243Y223815D01*
X204364Y223764D01*
X204491Y223735D01*
X204621Y223728D01*
X204751Y223744D01*
X204876Y223782D01*
X205147Y223877D01*
X205427Y223945D01*
X205712Y223987D01*
X206000Y224000D01*
Y218000D01*
X205999D01*
X205712Y218014D01*
X205427Y218056D01*
X205147Y218124D01*
X204876Y218219D01*
Y218220D01*
X204751Y218258D01*
X204621Y218274D01*
X204490Y218267D01*
X204363Y218238D01*
X204242Y218187D01*
X204133Y218115D01*
X204037Y218026D01*
X203958Y217922D01*
X203899Y217805D01*
X203861Y217680D01*
X203845Y217550D01*
X203852Y217419D01*
X203881Y217292D01*
X203932Y217171D01*
X204004Y217062D01*
X204093Y216966D01*
X204197Y216887D01*
X204314Y216828D01*
X204721Y216686D01*
X205141Y216583D01*
X205568Y216521D01*
X205999Y216500D01*
X206000D01*
Y214500D01*
X202387D01*
Y218861D01*
X202419Y218854D01*
X202549Y218847D01*
X202679Y218863D01*
X202804Y218901D01*
X202920Y218960D01*
X203025Y219039D01*
X203114Y219135D01*
X203185Y219244D01*
X203236Y219365D01*
X203265Y219492D01*
X203272Y219622D01*
X203256Y219752D01*
X203218Y219877D01*
X203123Y220148D01*
X203055Y220428D01*
X203013Y220713D01*
X203000Y221001D01*
X203013Y221288D01*
X203055Y221573D01*
X203123Y221853D01*
X203218Y222124D01*
X203219D01*
X203257Y222249D01*
X203273Y222379D01*
X203266Y222510D01*
X203237Y222637D01*
X203186Y222758D01*
X203114Y222867D01*
X203025Y222963D01*
X202921Y223042D01*
X202804Y223101D01*
X202679Y223139D01*
X202549Y223155D01*
X202418Y223148D01*
X202387Y223141D01*
Y228861D01*
X202419Y228854D01*
X202549Y228847D01*
X202679Y228863D01*
X202804Y228901D01*
X202920Y228960D01*
X203025Y229039D01*
X203114Y229135D01*
X203185Y229244D01*
X203236Y229365D01*
X203265Y229492D01*
X203272Y229622D01*
X203256Y229752D01*
X203218Y229877D01*
X203123Y230148D01*
X203055Y230428D01*
X203013Y230713D01*
X203000Y231001D01*
X203013Y231288D01*
X203055Y231573D01*
X203123Y231853D01*
X203218Y232124D01*
X203219D01*
X203257Y232249D01*
X203273Y232379D01*
X203266Y232510D01*
X203237Y232637D01*
X203186Y232758D01*
X203114Y232867D01*
X203025Y232963D01*
X202921Y233042D01*
X202804Y233101D01*
X202679Y233139D01*
X202549Y233155D01*
X202418Y233148D01*
X202387Y233141D01*
Y237500D01*
G37*
G36*
X196000D02*X202387D01*
Y233141D01*
X202291Y233119D01*
X202170Y233068D01*
X202061Y232996D01*
X201965Y232907D01*
X201886Y232803D01*
X201827Y232686D01*
X201685Y232279D01*
X201582Y231859D01*
X201520Y231432D01*
X201500Y231001D01*
X201520Y230569D01*
X201582Y230142D01*
X201685Y229722D01*
X201827Y229315D01*
X201828D01*
X201887Y229199D01*
X201966Y229094D01*
X202062Y229005D01*
X202171Y228934D01*
X202292Y228883D01*
X202387Y228861D01*
Y223141D01*
X202291Y223119D01*
X202170Y223068D01*
X202061Y222996D01*
X201965Y222907D01*
X201886Y222803D01*
X201827Y222686D01*
X201685Y222279D01*
X201582Y221859D01*
X201520Y221432D01*
X201500Y221001D01*
X201520Y220569D01*
X201582Y220142D01*
X201685Y219722D01*
X201827Y219315D01*
X201828D01*
X201887Y219199D01*
X201966Y219094D01*
X202062Y219005D01*
X202171Y218934D01*
X202292Y218883D01*
X202387Y218861D01*
Y214500D01*
X196000D01*
Y216500D01*
X196781Y216568D01*
X197539Y216771D01*
X198250Y217103D01*
X198893Y217553D01*
X199447Y218107D01*
X199897Y218750D01*
X200229Y219461D01*
X200432Y220219D01*
X200500Y221000D01*
X200432Y221781D01*
X200229Y222539D01*
X199897Y223250D01*
X199447Y223893D01*
X198893Y224447D01*
X198250Y224897D01*
X197539Y225229D01*
X196781Y225432D01*
X196000Y225500D01*
Y226500D01*
X196781Y226568D01*
X197539Y226771D01*
X198250Y227103D01*
X198893Y227553D01*
X199447Y228107D01*
X199897Y228750D01*
X200229Y229461D01*
X200432Y230219D01*
X200500Y231000D01*
X200432Y231781D01*
X200229Y232539D01*
X199897Y233250D01*
X199447Y233893D01*
X198893Y234447D01*
X198250Y234897D01*
X197539Y235229D01*
X196781Y235432D01*
X196000Y235500D01*
Y237500D01*
G37*
G36*
X189613D02*X196000D01*
Y235500D01*
X195219Y235432D01*
X194461Y235229D01*
X193750Y234897D01*
X193107Y234447D01*
X192553Y233893D01*
X192103Y233250D01*
X191771Y232539D01*
X191568Y231781D01*
X191500Y231000D01*
X191568Y230219D01*
X191771Y229461D01*
X192103Y228750D01*
X192553Y228107D01*
X193107Y227553D01*
X193750Y227103D01*
X194461Y226771D01*
X195219Y226568D01*
X196000Y226500D01*
Y225500D01*
X195219Y225432D01*
X194461Y225229D01*
X193750Y224897D01*
X193107Y224447D01*
X192553Y223893D01*
X192103Y223250D01*
X191771Y222539D01*
X191568Y221781D01*
X191500Y221000D01*
X191568Y220219D01*
X191771Y219461D01*
X192103Y218750D01*
X192553Y218107D01*
X193107Y217553D01*
X193750Y217103D01*
X194461Y216771D01*
X195219Y216568D01*
X196000Y216500D01*
Y214500D01*
X189613D01*
Y218860D01*
X189708Y218882D01*
X189829Y218933D01*
X189938Y219005D01*
X190034Y219094D01*
X190113Y219198D01*
X190172Y219315D01*
X190314Y219722D01*
X190417Y220142D01*
X190479Y220569D01*
X190500Y221000D01*
X190479Y221432D01*
X190417Y221859D01*
X190314Y222279D01*
X190172Y222686D01*
X190171D01*
X190112Y222802D01*
X190033Y222907D01*
X189937Y222996D01*
X189828Y223067D01*
X189707Y223118D01*
X189613Y223139D01*
Y228860D01*
X189708Y228882D01*
X189829Y228933D01*
X189938Y229005D01*
X190034Y229094D01*
X190113Y229198D01*
X190172Y229315D01*
X190314Y229722D01*
X190417Y230142D01*
X190479Y230569D01*
X190500Y231000D01*
X190479Y231432D01*
X190417Y231859D01*
X190314Y232279D01*
X190172Y232686D01*
X190171D01*
X190112Y232802D01*
X190033Y232907D01*
X189937Y232996D01*
X189828Y233067D01*
X189707Y233118D01*
X189613Y233139D01*
Y237500D01*
G37*
G36*
X186000D02*X189613D01*
Y233139D01*
X189580Y233147D01*
X189450Y233154D01*
X189320Y233138D01*
X189195Y233100D01*
X189079Y233041D01*
X188974Y232962D01*
X188885Y232866D01*
X188814Y232757D01*
X188763Y232636D01*
X188734Y232509D01*
X188727Y232379D01*
X188743Y232249D01*
X188781Y232124D01*
X188876Y231853D01*
X188944Y231573D01*
X188986Y231288D01*
X189000Y231000D01*
X188986Y230713D01*
X188944Y230428D01*
X188876Y230148D01*
X188781Y229877D01*
X188780D01*
X188742Y229752D01*
X188726Y229622D01*
X188733Y229491D01*
X188762Y229364D01*
X188813Y229243D01*
X188885Y229134D01*
X188974Y229038D01*
X189078Y228959D01*
X189195Y228900D01*
X189320Y228862D01*
X189450Y228846D01*
X189581Y228853D01*
X189613Y228860D01*
Y223139D01*
X189580Y223147D01*
X189450Y223154D01*
X189320Y223138D01*
X189195Y223100D01*
X189079Y223041D01*
X188974Y222962D01*
X188885Y222866D01*
X188814Y222757D01*
X188763Y222636D01*
X188734Y222509D01*
X188727Y222379D01*
X188743Y222249D01*
X188781Y222124D01*
X188876Y221853D01*
X188944Y221573D01*
X188986Y221288D01*
X189000Y221000D01*
X188986Y220713D01*
X188944Y220428D01*
X188876Y220148D01*
X188781Y219877D01*
X188780D01*
X188742Y219752D01*
X188726Y219622D01*
X188733Y219491D01*
X188762Y219364D01*
X188813Y219243D01*
X188885Y219134D01*
X188974Y219038D01*
X189078Y218959D01*
X189195Y218900D01*
X189320Y218862D01*
X189450Y218846D01*
X189581Y218853D01*
X189613Y218860D01*
Y214500D01*
X186000D01*
Y216500D01*
X186431Y216521D01*
X186858Y216583D01*
X187278Y216686D01*
X187685Y216828D01*
Y216829D01*
X187801Y216888D01*
X187906Y216967D01*
X187995Y217063D01*
X188066Y217172D01*
X188117Y217293D01*
X188146Y217420D01*
X188153Y217550D01*
X188137Y217680D01*
X188099Y217805D01*
X188040Y217921D01*
X187961Y218026D01*
X187865Y218115D01*
X187756Y218186D01*
X187635Y218237D01*
X187508Y218266D01*
X187378Y218273D01*
X187248Y218257D01*
X187123Y218219D01*
X186852Y218124D01*
X186572Y218056D01*
X186287Y218014D01*
X186000Y218000D01*
Y224000D01*
X186287Y223987D01*
X186572Y223945D01*
X186852Y223877D01*
X187123Y223782D01*
Y223781D01*
X187248Y223743D01*
X187378Y223727D01*
X187509Y223734D01*
X187636Y223763D01*
X187757Y223814D01*
X187866Y223886D01*
X187962Y223975D01*
X188041Y224079D01*
X188100Y224196D01*
X188138Y224321D01*
X188154Y224451D01*
X188147Y224582D01*
X188118Y224709D01*
X188067Y224830D01*
X187995Y224939D01*
X187906Y225035D01*
X187802Y225114D01*
X187685Y225173D01*
X187278Y225315D01*
X186858Y225418D01*
X186431Y225480D01*
X186000Y225500D01*
Y226500D01*
X186431Y226521D01*
X186858Y226583D01*
X187278Y226686D01*
X187685Y226828D01*
Y226829D01*
X187801Y226888D01*
X187906Y226967D01*
X187995Y227063D01*
X188066Y227172D01*
X188117Y227293D01*
X188146Y227420D01*
X188153Y227550D01*
X188137Y227680D01*
X188099Y227805D01*
X188040Y227921D01*
X187961Y228026D01*
X187865Y228115D01*
X187756Y228186D01*
X187635Y228237D01*
X187508Y228266D01*
X187378Y228273D01*
X187248Y228257D01*
X187123Y228219D01*
X186852Y228124D01*
X186572Y228056D01*
X186287Y228014D01*
X186000Y228000D01*
Y234000D01*
X186287Y233987D01*
X186572Y233945D01*
X186852Y233877D01*
X187123Y233782D01*
Y233781D01*
X187248Y233743D01*
X187378Y233727D01*
X187509Y233734D01*
X187636Y233763D01*
X187757Y233814D01*
X187866Y233886D01*
X187962Y233975D01*
X188041Y234079D01*
X188100Y234196D01*
X188138Y234321D01*
X188154Y234451D01*
X188147Y234582D01*
X188118Y234709D01*
X188067Y234830D01*
X187995Y234939D01*
X187906Y235035D01*
X187802Y235114D01*
X187685Y235173D01*
X187278Y235315D01*
X186858Y235418D01*
X186431Y235480D01*
X186000Y235500D01*
Y237500D01*
G37*
G36*
X182387D02*X186000D01*
Y235500D01*
X185568Y235480D01*
X185141Y235418D01*
X184721Y235315D01*
X184314Y235173D01*
Y235172D01*
X184198Y235113D01*
X184093Y235034D01*
X184004Y234938D01*
X183933Y234829D01*
X183882Y234708D01*
X183853Y234581D01*
X183846Y234451D01*
X183862Y234321D01*
X183900Y234196D01*
X183959Y234080D01*
X184038Y233975D01*
X184134Y233886D01*
X184243Y233815D01*
X184364Y233764D01*
X184491Y233735D01*
X184621Y233728D01*
X184751Y233744D01*
X184876Y233782D01*
X185147Y233877D01*
X185427Y233945D01*
X185712Y233987D01*
X186000Y234000D01*
Y228000D01*
X185999D01*
X185712Y228014D01*
X185427Y228056D01*
X185147Y228124D01*
X184876Y228219D01*
Y228220D01*
X184751Y228258D01*
X184621Y228274D01*
X184490Y228267D01*
X184363Y228238D01*
X184242Y228187D01*
X184133Y228115D01*
X184037Y228026D01*
X183958Y227922D01*
X183899Y227805D01*
X183861Y227680D01*
X183845Y227550D01*
X183852Y227419D01*
X183881Y227292D01*
X183932Y227171D01*
X184004Y227062D01*
X184093Y226966D01*
X184197Y226887D01*
X184314Y226828D01*
X184721Y226686D01*
X185141Y226583D01*
X185568Y226521D01*
X185999Y226500D01*
X186000D01*
Y225500D01*
X185568Y225480D01*
X185141Y225418D01*
X184721Y225315D01*
X184314Y225173D01*
Y225172D01*
X184198Y225113D01*
X184093Y225034D01*
X184004Y224938D01*
X183933Y224829D01*
X183882Y224708D01*
X183853Y224581D01*
X183846Y224451D01*
X183862Y224321D01*
X183900Y224196D01*
X183959Y224080D01*
X184038Y223975D01*
X184134Y223886D01*
X184243Y223815D01*
X184364Y223764D01*
X184491Y223735D01*
X184621Y223728D01*
X184751Y223744D01*
X184876Y223782D01*
X185147Y223877D01*
X185427Y223945D01*
X185712Y223987D01*
X186000Y224000D01*
Y218000D01*
X185999D01*
X185712Y218014D01*
X185427Y218056D01*
X185147Y218124D01*
X184876Y218219D01*
Y218220D01*
X184751Y218258D01*
X184621Y218274D01*
X184490Y218267D01*
X184363Y218238D01*
X184242Y218187D01*
X184133Y218115D01*
X184037Y218026D01*
X183958Y217922D01*
X183899Y217805D01*
X183861Y217680D01*
X183845Y217550D01*
X183852Y217419D01*
X183881Y217292D01*
X183932Y217171D01*
X184004Y217062D01*
X184093Y216966D01*
X184197Y216887D01*
X184314Y216828D01*
X184721Y216686D01*
X185141Y216583D01*
X185568Y216521D01*
X185999Y216500D01*
X186000D01*
Y214500D01*
X182387D01*
Y218861D01*
X182419Y218854D01*
X182549Y218847D01*
X182679Y218863D01*
X182804Y218901D01*
X182920Y218960D01*
X183025Y219039D01*
X183114Y219135D01*
X183185Y219244D01*
X183236Y219365D01*
X183265Y219492D01*
X183272Y219622D01*
X183256Y219752D01*
X183218Y219877D01*
X183123Y220148D01*
X183055Y220428D01*
X183013Y220713D01*
X183000Y221001D01*
X183013Y221288D01*
X183055Y221573D01*
X183123Y221853D01*
X183218Y222124D01*
X183219D01*
X183257Y222249D01*
X183273Y222379D01*
X183266Y222510D01*
X183237Y222637D01*
X183186Y222758D01*
X183114Y222867D01*
X183025Y222963D01*
X182921Y223042D01*
X182804Y223101D01*
X182679Y223139D01*
X182549Y223155D01*
X182418Y223148D01*
X182387Y223141D01*
Y228861D01*
X182419Y228854D01*
X182549Y228847D01*
X182679Y228863D01*
X182804Y228901D01*
X182920Y228960D01*
X183025Y229039D01*
X183114Y229135D01*
X183185Y229244D01*
X183236Y229365D01*
X183265Y229492D01*
X183272Y229622D01*
X183256Y229752D01*
X183218Y229877D01*
X183123Y230148D01*
X183055Y230428D01*
X183013Y230713D01*
X183000Y231001D01*
X183013Y231288D01*
X183055Y231573D01*
X183123Y231853D01*
X183218Y232124D01*
X183219D01*
X183257Y232249D01*
X183273Y232379D01*
X183266Y232510D01*
X183237Y232637D01*
X183186Y232758D01*
X183114Y232867D01*
X183025Y232963D01*
X182921Y233042D01*
X182804Y233101D01*
X182679Y233139D01*
X182549Y233155D01*
X182418Y233148D01*
X182387Y233141D01*
Y237500D01*
G37*
G36*
X176000D02*X182387D01*
Y233141D01*
X182291Y233119D01*
X182170Y233068D01*
X182061Y232996D01*
X181965Y232907D01*
X181886Y232803D01*
X181827Y232686D01*
X181685Y232279D01*
X181582Y231859D01*
X181520Y231432D01*
X181500Y231001D01*
X181520Y230569D01*
X181582Y230142D01*
X181685Y229722D01*
X181827Y229315D01*
X181828D01*
X181887Y229199D01*
X181966Y229094D01*
X182062Y229005D01*
X182171Y228934D01*
X182292Y228883D01*
X182387Y228861D01*
Y223141D01*
X182291Y223119D01*
X182170Y223068D01*
X182061Y222996D01*
X181965Y222907D01*
X181886Y222803D01*
X181827Y222686D01*
X181685Y222279D01*
X181582Y221859D01*
X181520Y221432D01*
X181500Y221001D01*
X181520Y220569D01*
X181582Y220142D01*
X181685Y219722D01*
X181827Y219315D01*
X181828D01*
X181887Y219199D01*
X181966Y219094D01*
X182062Y219005D01*
X182171Y218934D01*
X182292Y218883D01*
X182387Y218861D01*
Y214500D01*
X176000D01*
Y216500D01*
X176781Y216568D01*
X177539Y216771D01*
X178250Y217103D01*
X178893Y217553D01*
X179447Y218107D01*
X179897Y218750D01*
X180229Y219461D01*
X180432Y220219D01*
X180500Y221000D01*
X180432Y221781D01*
X180229Y222539D01*
X179897Y223250D01*
X179447Y223893D01*
X178893Y224447D01*
X178250Y224897D01*
X177539Y225229D01*
X176781Y225432D01*
X176000Y225500D01*
Y226500D01*
X176781Y226568D01*
X177539Y226771D01*
X178250Y227103D01*
X178893Y227553D01*
X179447Y228107D01*
X179897Y228750D01*
X180229Y229461D01*
X180432Y230219D01*
X180500Y231000D01*
X180432Y231781D01*
X180229Y232539D01*
X179897Y233250D01*
X179447Y233893D01*
X178893Y234447D01*
X178250Y234897D01*
X177539Y235229D01*
X176781Y235432D01*
X176000Y235500D01*
Y237500D01*
G37*
G36*
X169613D02*X176000D01*
Y235500D01*
X175219Y235432D01*
X174461Y235229D01*
X173750Y234897D01*
X173107Y234447D01*
X172553Y233893D01*
X172103Y233250D01*
X171771Y232539D01*
X171568Y231781D01*
X171500Y231000D01*
X171568Y230219D01*
X171771Y229461D01*
X172103Y228750D01*
X172553Y228107D01*
X173107Y227553D01*
X173750Y227103D01*
X174461Y226771D01*
X175219Y226568D01*
X176000Y226500D01*
Y225500D01*
X175219Y225432D01*
X174461Y225229D01*
X173750Y224897D01*
X173107Y224447D01*
X172553Y223893D01*
X172103Y223250D01*
X171771Y222539D01*
X171568Y221781D01*
X171500Y221000D01*
X171568Y220219D01*
X171771Y219461D01*
X172103Y218750D01*
X172553Y218107D01*
X173107Y217553D01*
X173750Y217103D01*
X174461Y216771D01*
X175219Y216568D01*
X176000Y216500D01*
Y214500D01*
X169613D01*
Y218860D01*
X169708Y218882D01*
X169829Y218933D01*
X169938Y219005D01*
X170034Y219094D01*
X170113Y219198D01*
X170172Y219315D01*
X170314Y219722D01*
X170417Y220142D01*
X170479Y220569D01*
X170500Y221000D01*
X170479Y221432D01*
X170417Y221859D01*
X170314Y222279D01*
X170172Y222686D01*
X170171D01*
X170112Y222802D01*
X170033Y222907D01*
X169937Y222996D01*
X169828Y223067D01*
X169707Y223118D01*
X169613Y223139D01*
Y228860D01*
X169708Y228882D01*
X169829Y228933D01*
X169938Y229005D01*
X170034Y229094D01*
X170113Y229198D01*
X170172Y229315D01*
X170314Y229722D01*
X170417Y230142D01*
X170479Y230569D01*
X170500Y231000D01*
X170479Y231432D01*
X170417Y231859D01*
X170314Y232279D01*
X170172Y232686D01*
X170171D01*
X170112Y232802D01*
X170033Y232907D01*
X169937Y232996D01*
X169828Y233067D01*
X169707Y233118D01*
X169613Y233139D01*
Y237500D01*
G37*
G36*
X166000D02*X169613D01*
Y233139D01*
X169580Y233147D01*
X169450Y233154D01*
X169320Y233138D01*
X169195Y233100D01*
X169079Y233041D01*
X168974Y232962D01*
X168885Y232866D01*
X168814Y232757D01*
X168763Y232636D01*
X168734Y232509D01*
X168727Y232379D01*
X168743Y232249D01*
X168781Y232124D01*
X168876Y231853D01*
X168944Y231573D01*
X168986Y231288D01*
X169000Y231000D01*
X168986Y230713D01*
X168944Y230428D01*
X168876Y230148D01*
X168781Y229877D01*
X168780D01*
X168742Y229752D01*
X168726Y229622D01*
X168733Y229491D01*
X168762Y229364D01*
X168813Y229243D01*
X168885Y229134D01*
X168974Y229038D01*
X169078Y228959D01*
X169195Y228900D01*
X169320Y228862D01*
X169450Y228846D01*
X169581Y228853D01*
X169613Y228860D01*
Y223139D01*
X169580Y223147D01*
X169450Y223154D01*
X169320Y223138D01*
X169195Y223100D01*
X169079Y223041D01*
X168974Y222962D01*
X168885Y222866D01*
X168814Y222757D01*
X168763Y222636D01*
X168734Y222509D01*
X168727Y222379D01*
X168743Y222249D01*
X168781Y222124D01*
X168876Y221853D01*
X168944Y221573D01*
X168986Y221288D01*
X169000Y221000D01*
X168986Y220713D01*
X168944Y220428D01*
X168876Y220148D01*
X168781Y219877D01*
X168780D01*
X168742Y219752D01*
X168726Y219622D01*
X168733Y219491D01*
X168762Y219364D01*
X168813Y219243D01*
X168885Y219134D01*
X168974Y219038D01*
X169078Y218959D01*
X169195Y218900D01*
X169320Y218862D01*
X169450Y218846D01*
X169581Y218853D01*
X169613Y218860D01*
Y214500D01*
X166000D01*
Y216500D01*
X166431Y216521D01*
X166858Y216583D01*
X167278Y216686D01*
X167685Y216828D01*
Y216829D01*
X167801Y216888D01*
X167906Y216967D01*
X167995Y217063D01*
X168066Y217172D01*
X168117Y217293D01*
X168146Y217420D01*
X168153Y217550D01*
X168137Y217680D01*
X168099Y217805D01*
X168040Y217921D01*
X167961Y218026D01*
X167865Y218115D01*
X167756Y218186D01*
X167635Y218237D01*
X167508Y218266D01*
X167378Y218273D01*
X167248Y218257D01*
X167123Y218219D01*
X166852Y218124D01*
X166572Y218056D01*
X166287Y218014D01*
X166000Y218000D01*
Y224000D01*
X166287Y223987D01*
X166572Y223945D01*
X166852Y223877D01*
X167123Y223782D01*
Y223781D01*
X167248Y223743D01*
X167378Y223727D01*
X167509Y223734D01*
X167636Y223763D01*
X167757Y223814D01*
X167866Y223886D01*
X167962Y223975D01*
X168041Y224079D01*
X168100Y224196D01*
X168138Y224321D01*
X168154Y224451D01*
X168147Y224582D01*
X168118Y224709D01*
X168067Y224830D01*
X167995Y224939D01*
X167906Y225035D01*
X167802Y225114D01*
X167685Y225173D01*
X167278Y225315D01*
X166858Y225418D01*
X166431Y225480D01*
X166000Y225500D01*
Y226500D01*
X166431Y226521D01*
X166858Y226583D01*
X167278Y226686D01*
X167685Y226828D01*
Y226829D01*
X167801Y226888D01*
X167906Y226967D01*
X167995Y227063D01*
X168066Y227172D01*
X168117Y227293D01*
X168146Y227420D01*
X168153Y227550D01*
X168137Y227680D01*
X168099Y227805D01*
X168040Y227921D01*
X167961Y228026D01*
X167865Y228115D01*
X167756Y228186D01*
X167635Y228237D01*
X167508Y228266D01*
X167378Y228273D01*
X167248Y228257D01*
X167123Y228219D01*
X166852Y228124D01*
X166572Y228056D01*
X166287Y228014D01*
X166000Y228000D01*
Y234000D01*
X166287Y233987D01*
X166572Y233945D01*
X166852Y233877D01*
X167123Y233782D01*
Y233781D01*
X167248Y233743D01*
X167378Y233727D01*
X167509Y233734D01*
X167636Y233763D01*
X167757Y233814D01*
X167866Y233886D01*
X167962Y233975D01*
X168041Y234079D01*
X168100Y234196D01*
X168138Y234321D01*
X168154Y234451D01*
X168147Y234582D01*
X168118Y234709D01*
X168067Y234830D01*
X167995Y234939D01*
X167906Y235035D01*
X167802Y235114D01*
X167685Y235173D01*
X167278Y235315D01*
X166858Y235418D01*
X166431Y235480D01*
X166000Y235500D01*
Y237500D01*
G37*
G36*
X162387D02*X166000D01*
Y235500D01*
X165568Y235480D01*
X165141Y235418D01*
X164721Y235315D01*
X164314Y235173D01*
Y235172D01*
X164198Y235113D01*
X164093Y235034D01*
X164004Y234938D01*
X163933Y234829D01*
X163882Y234708D01*
X163853Y234581D01*
X163846Y234451D01*
X163862Y234321D01*
X163900Y234196D01*
X163959Y234080D01*
X164038Y233975D01*
X164134Y233886D01*
X164243Y233815D01*
X164364Y233764D01*
X164491Y233735D01*
X164621Y233728D01*
X164751Y233744D01*
X164876Y233782D01*
X165147Y233877D01*
X165427Y233945D01*
X165712Y233987D01*
X166000Y234000D01*
Y228000D01*
X165999D01*
X165712Y228014D01*
X165427Y228056D01*
X165147Y228124D01*
X164876Y228219D01*
Y228220D01*
X164751Y228258D01*
X164621Y228274D01*
X164490Y228267D01*
X164363Y228238D01*
X164242Y228187D01*
X164133Y228115D01*
X164037Y228026D01*
X163958Y227922D01*
X163899Y227805D01*
X163861Y227680D01*
X163845Y227550D01*
X163852Y227419D01*
X163881Y227292D01*
X163932Y227171D01*
X164004Y227062D01*
X164093Y226966D01*
X164197Y226887D01*
X164314Y226828D01*
X164721Y226686D01*
X165141Y226583D01*
X165568Y226521D01*
X165999Y226500D01*
X166000D01*
Y225500D01*
X165568Y225480D01*
X165141Y225418D01*
X164721Y225315D01*
X164314Y225173D01*
Y225172D01*
X164198Y225113D01*
X164093Y225034D01*
X164004Y224938D01*
X163933Y224829D01*
X163882Y224708D01*
X163853Y224581D01*
X163846Y224451D01*
X163862Y224321D01*
X163900Y224196D01*
X163959Y224080D01*
X164038Y223975D01*
X164134Y223886D01*
X164243Y223815D01*
X164364Y223764D01*
X164491Y223735D01*
X164621Y223728D01*
X164751Y223744D01*
X164876Y223782D01*
X165147Y223877D01*
X165427Y223945D01*
X165712Y223987D01*
X166000Y224000D01*
Y218000D01*
X165999D01*
X165712Y218014D01*
X165427Y218056D01*
X165147Y218124D01*
X164876Y218219D01*
Y218220D01*
X164751Y218258D01*
X164621Y218274D01*
X164490Y218267D01*
X164363Y218238D01*
X164242Y218187D01*
X164133Y218115D01*
X164037Y218026D01*
X163958Y217922D01*
X163899Y217805D01*
X163861Y217680D01*
X163845Y217550D01*
X163852Y217419D01*
X163881Y217292D01*
X163932Y217171D01*
X164004Y217062D01*
X164093Y216966D01*
X164197Y216887D01*
X164314Y216828D01*
X164721Y216686D01*
X165141Y216583D01*
X165568Y216521D01*
X165999Y216500D01*
X166000D01*
Y214500D01*
X162387D01*
Y218861D01*
X162419Y218854D01*
X162549Y218847D01*
X162679Y218863D01*
X162804Y218901D01*
X162920Y218960D01*
X163025Y219039D01*
X163114Y219135D01*
X163185Y219244D01*
X163236Y219365D01*
X163265Y219492D01*
X163272Y219622D01*
X163256Y219752D01*
X163218Y219877D01*
X163123Y220148D01*
X163055Y220428D01*
X163013Y220713D01*
X163000Y221001D01*
X163013Y221288D01*
X163055Y221573D01*
X163123Y221853D01*
X163218Y222124D01*
X163219D01*
X163257Y222249D01*
X163273Y222379D01*
X163266Y222510D01*
X163237Y222637D01*
X163186Y222758D01*
X163114Y222867D01*
X163025Y222963D01*
X162921Y223042D01*
X162804Y223101D01*
X162679Y223139D01*
X162549Y223155D01*
X162418Y223148D01*
X162387Y223141D01*
Y228861D01*
X162419Y228854D01*
X162549Y228847D01*
X162679Y228863D01*
X162804Y228901D01*
X162920Y228960D01*
X163025Y229039D01*
X163114Y229135D01*
X163185Y229244D01*
X163236Y229365D01*
X163265Y229492D01*
X163272Y229622D01*
X163256Y229752D01*
X163218Y229877D01*
X163123Y230148D01*
X163055Y230428D01*
X163013Y230713D01*
X163000Y231001D01*
X163013Y231288D01*
X163055Y231573D01*
X163123Y231853D01*
X163218Y232124D01*
X163219D01*
X163257Y232249D01*
X163273Y232379D01*
X163266Y232510D01*
X163237Y232637D01*
X163186Y232758D01*
X163114Y232867D01*
X163025Y232963D01*
X162921Y233042D01*
X162804Y233101D01*
X162679Y233139D01*
X162549Y233155D01*
X162418Y233148D01*
X162387Y233141D01*
Y237500D01*
G37*
G36*
X156000D02*X162387D01*
Y233141D01*
X162291Y233119D01*
X162170Y233068D01*
X162061Y232996D01*
X161965Y232907D01*
X161886Y232803D01*
X161827Y232686D01*
X161685Y232279D01*
X161582Y231859D01*
X161520Y231432D01*
X161500Y231001D01*
X161520Y230569D01*
X161582Y230142D01*
X161685Y229722D01*
X161827Y229315D01*
X161828D01*
X161887Y229199D01*
X161966Y229094D01*
X162062Y229005D01*
X162171Y228934D01*
X162292Y228883D01*
X162387Y228861D01*
Y223141D01*
X162291Y223119D01*
X162170Y223068D01*
X162061Y222996D01*
X161965Y222907D01*
X161886Y222803D01*
X161827Y222686D01*
X161685Y222279D01*
X161582Y221859D01*
X161520Y221432D01*
X161500Y221001D01*
X161520Y220569D01*
X161582Y220142D01*
X161685Y219722D01*
X161827Y219315D01*
X161828D01*
X161887Y219199D01*
X161966Y219094D01*
X162062Y219005D01*
X162171Y218934D01*
X162292Y218883D01*
X162387Y218861D01*
Y214500D01*
X156000D01*
Y216500D01*
X156781Y216568D01*
X157539Y216771D01*
X158250Y217103D01*
X158893Y217553D01*
X159447Y218107D01*
X159897Y218750D01*
X160229Y219461D01*
X160432Y220219D01*
X160500Y221000D01*
X160432Y221781D01*
X160229Y222539D01*
X159897Y223250D01*
X159447Y223893D01*
X158893Y224447D01*
X158250Y224897D01*
X157539Y225229D01*
X156781Y225432D01*
X156000Y225500D01*
Y226500D01*
X156781Y226568D01*
X157539Y226771D01*
X158250Y227103D01*
X158893Y227553D01*
X159447Y228107D01*
X159897Y228750D01*
X160229Y229461D01*
X160432Y230219D01*
X160500Y231000D01*
X160432Y231781D01*
X160229Y232539D01*
X159897Y233250D01*
X159447Y233893D01*
X158893Y234447D01*
X158250Y234897D01*
X157539Y235229D01*
X156781Y235432D01*
X156000Y235500D01*
Y237500D01*
G37*
G36*
X149613D02*X156000D01*
Y235500D01*
X155219Y235432D01*
X154461Y235229D01*
X153750Y234897D01*
X153107Y234447D01*
X152553Y233893D01*
X152103Y233250D01*
X151771Y232539D01*
X151568Y231781D01*
X151500Y231000D01*
X151568Y230219D01*
X151771Y229461D01*
X152103Y228750D01*
X152553Y228107D01*
X153107Y227553D01*
X153750Y227103D01*
X154461Y226771D01*
X155219Y226568D01*
X156000Y226500D01*
Y225500D01*
X155219Y225432D01*
X154461Y225229D01*
X153750Y224897D01*
X153107Y224447D01*
X152553Y223893D01*
X152103Y223250D01*
X151771Y222539D01*
X151568Y221781D01*
X151500Y221000D01*
X151568Y220219D01*
X151771Y219461D01*
X152103Y218750D01*
X152553Y218107D01*
X153107Y217553D01*
X153750Y217103D01*
X154461Y216771D01*
X155219Y216568D01*
X156000Y216500D01*
Y214500D01*
X149613D01*
Y218860D01*
X149708Y218882D01*
X149829Y218933D01*
X149938Y219005D01*
X150034Y219094D01*
X150113Y219198D01*
X150172Y219315D01*
X150314Y219722D01*
X150417Y220142D01*
X150479Y220569D01*
X150500Y221000D01*
X150479Y221432D01*
X150417Y221859D01*
X150314Y222279D01*
X150172Y222686D01*
X150171D01*
X150112Y222802D01*
X150033Y222907D01*
X149937Y222996D01*
X149828Y223067D01*
X149707Y223118D01*
X149613Y223139D01*
Y228860D01*
X149708Y228882D01*
X149829Y228933D01*
X149938Y229005D01*
X150034Y229094D01*
X150113Y229198D01*
X150172Y229315D01*
X150314Y229722D01*
X150417Y230142D01*
X150479Y230569D01*
X150500Y231000D01*
X150479Y231432D01*
X150417Y231859D01*
X150314Y232279D01*
X150172Y232686D01*
X150171D01*
X150112Y232802D01*
X150033Y232907D01*
X149937Y232996D01*
X149828Y233067D01*
X149707Y233118D01*
X149613Y233139D01*
Y237500D01*
G37*
G36*
X146000D02*X149613D01*
Y233139D01*
X149580Y233147D01*
X149450Y233154D01*
X149320Y233138D01*
X149195Y233100D01*
X149079Y233041D01*
X148974Y232962D01*
X148885Y232866D01*
X148814Y232757D01*
X148763Y232636D01*
X148734Y232509D01*
X148727Y232379D01*
X148743Y232249D01*
X148781Y232124D01*
X148876Y231853D01*
X148944Y231573D01*
X148986Y231288D01*
X149000Y231000D01*
X148986Y230713D01*
X148944Y230428D01*
X148876Y230148D01*
X148781Y229877D01*
X148780D01*
X148742Y229752D01*
X148726Y229622D01*
X148733Y229491D01*
X148762Y229364D01*
X148813Y229243D01*
X148885Y229134D01*
X148974Y229038D01*
X149078Y228959D01*
X149195Y228900D01*
X149320Y228862D01*
X149450Y228846D01*
X149581Y228853D01*
X149613Y228860D01*
Y223139D01*
X149580Y223147D01*
X149450Y223154D01*
X149320Y223138D01*
X149195Y223100D01*
X149079Y223041D01*
X148974Y222962D01*
X148885Y222866D01*
X148814Y222757D01*
X148763Y222636D01*
X148734Y222509D01*
X148727Y222379D01*
X148743Y222249D01*
X148781Y222124D01*
X148876Y221853D01*
X148944Y221573D01*
X148986Y221288D01*
X149000Y221000D01*
X148986Y220713D01*
X148944Y220428D01*
X148876Y220148D01*
X148781Y219877D01*
X148780D01*
X148742Y219752D01*
X148726Y219622D01*
X148733Y219491D01*
X148762Y219364D01*
X148813Y219243D01*
X148885Y219134D01*
X148974Y219038D01*
X149078Y218959D01*
X149195Y218900D01*
X149320Y218862D01*
X149450Y218846D01*
X149581Y218853D01*
X149613Y218860D01*
Y214500D01*
X146000D01*
Y216500D01*
X146431Y216521D01*
X146858Y216583D01*
X147278Y216686D01*
X147685Y216828D01*
Y216829D01*
X147801Y216888D01*
X147906Y216967D01*
X147995Y217063D01*
X148066Y217172D01*
X148117Y217293D01*
X148146Y217420D01*
X148153Y217550D01*
X148137Y217680D01*
X148099Y217805D01*
X148040Y217921D01*
X147961Y218026D01*
X147865Y218115D01*
X147756Y218186D01*
X147635Y218237D01*
X147508Y218266D01*
X147378Y218273D01*
X147248Y218257D01*
X147123Y218219D01*
X146852Y218124D01*
X146572Y218056D01*
X146287Y218014D01*
X146000Y218000D01*
Y224000D01*
X146287Y223987D01*
X146572Y223945D01*
X146852Y223877D01*
X147123Y223782D01*
Y223781D01*
X147248Y223743D01*
X147378Y223727D01*
X147509Y223734D01*
X147636Y223763D01*
X147757Y223814D01*
X147866Y223886D01*
X147962Y223975D01*
X148041Y224079D01*
X148100Y224196D01*
X148138Y224321D01*
X148154Y224451D01*
X148147Y224582D01*
X148118Y224709D01*
X148067Y224830D01*
X147995Y224939D01*
X147906Y225035D01*
X147802Y225114D01*
X147685Y225173D01*
X147278Y225315D01*
X146858Y225418D01*
X146431Y225480D01*
X146000Y225500D01*
Y226500D01*
X146431Y226521D01*
X146858Y226583D01*
X147278Y226686D01*
X147685Y226828D01*
Y226829D01*
X147801Y226888D01*
X147906Y226967D01*
X147995Y227063D01*
X148066Y227172D01*
X148117Y227293D01*
X148146Y227420D01*
X148153Y227550D01*
X148137Y227680D01*
X148099Y227805D01*
X148040Y227921D01*
X147961Y228026D01*
X147865Y228115D01*
X147756Y228186D01*
X147635Y228237D01*
X147508Y228266D01*
X147378Y228273D01*
X147248Y228257D01*
X147123Y228219D01*
X146852Y228124D01*
X146572Y228056D01*
X146287Y228014D01*
X146000Y228000D01*
Y234000D01*
X146287Y233987D01*
X146572Y233945D01*
X146852Y233877D01*
X147123Y233782D01*
Y233781D01*
X147248Y233743D01*
X147378Y233727D01*
X147509Y233734D01*
X147636Y233763D01*
X147757Y233814D01*
X147866Y233886D01*
X147962Y233975D01*
X148041Y234079D01*
X148100Y234196D01*
X148138Y234321D01*
X148154Y234451D01*
X148147Y234582D01*
X148118Y234709D01*
X148067Y234830D01*
X147995Y234939D01*
X147906Y235035D01*
X147802Y235114D01*
X147685Y235173D01*
X147278Y235315D01*
X146858Y235418D01*
X146431Y235480D01*
X146000Y235500D01*
Y237500D01*
G37*
G36*
X142387D02*X146000D01*
Y235500D01*
X145568Y235480D01*
X145141Y235418D01*
X144721Y235315D01*
X144314Y235173D01*
Y235172D01*
X144198Y235113D01*
X144093Y235034D01*
X144004Y234938D01*
X143933Y234829D01*
X143882Y234708D01*
X143853Y234581D01*
X143846Y234451D01*
X143862Y234321D01*
X143900Y234196D01*
X143959Y234080D01*
X144038Y233975D01*
X144134Y233886D01*
X144243Y233815D01*
X144364Y233764D01*
X144491Y233735D01*
X144621Y233728D01*
X144751Y233744D01*
X144876Y233782D01*
X145147Y233877D01*
X145427Y233945D01*
X145712Y233987D01*
X146000Y234000D01*
Y228000D01*
X145999D01*
X145712Y228014D01*
X145427Y228056D01*
X145147Y228124D01*
X144876Y228219D01*
Y228220D01*
X144751Y228258D01*
X144621Y228274D01*
X144490Y228267D01*
X144363Y228238D01*
X144242Y228187D01*
X144133Y228115D01*
X144037Y228026D01*
X143958Y227922D01*
X143899Y227805D01*
X143861Y227680D01*
X143845Y227550D01*
X143852Y227419D01*
X143881Y227292D01*
X143932Y227171D01*
X144004Y227062D01*
X144093Y226966D01*
X144197Y226887D01*
X144314Y226828D01*
X144721Y226686D01*
X145141Y226583D01*
X145568Y226521D01*
X145999Y226500D01*
X146000D01*
Y225500D01*
X145568Y225480D01*
X145141Y225418D01*
X144721Y225315D01*
X144314Y225173D01*
Y225172D01*
X144198Y225113D01*
X144093Y225034D01*
X144004Y224938D01*
X143933Y224829D01*
X143882Y224708D01*
X143853Y224581D01*
X143846Y224451D01*
X143862Y224321D01*
X143900Y224196D01*
X143959Y224080D01*
X144038Y223975D01*
X144134Y223886D01*
X144243Y223815D01*
X144364Y223764D01*
X144491Y223735D01*
X144621Y223728D01*
X144751Y223744D01*
X144876Y223782D01*
X145147Y223877D01*
X145427Y223945D01*
X145712Y223987D01*
X146000Y224000D01*
Y218000D01*
X145999D01*
X145712Y218014D01*
X145427Y218056D01*
X145147Y218124D01*
X144876Y218219D01*
Y218220D01*
X144751Y218258D01*
X144621Y218274D01*
X144490Y218267D01*
X144363Y218238D01*
X144242Y218187D01*
X144133Y218115D01*
X144037Y218026D01*
X143958Y217922D01*
X143899Y217805D01*
X143861Y217680D01*
X143845Y217550D01*
X143852Y217419D01*
X143881Y217292D01*
X143932Y217171D01*
X144004Y217062D01*
X144093Y216966D01*
X144197Y216887D01*
X144314Y216828D01*
X144721Y216686D01*
X145141Y216583D01*
X145568Y216521D01*
X145999Y216500D01*
X146000D01*
Y214500D01*
X142387D01*
Y218861D01*
X142419Y218854D01*
X142549Y218847D01*
X142679Y218863D01*
X142804Y218901D01*
X142920Y218960D01*
X143025Y219039D01*
X143114Y219135D01*
X143185Y219244D01*
X143236Y219365D01*
X143265Y219492D01*
X143272Y219622D01*
X143256Y219752D01*
X143218Y219877D01*
X143123Y220148D01*
X143055Y220428D01*
X143013Y220713D01*
X143000Y221001D01*
X143013Y221288D01*
X143055Y221573D01*
X143123Y221853D01*
X143218Y222124D01*
X143219D01*
X143257Y222249D01*
X143273Y222379D01*
X143266Y222510D01*
X143237Y222637D01*
X143186Y222758D01*
X143114Y222867D01*
X143025Y222963D01*
X142921Y223042D01*
X142804Y223101D01*
X142679Y223139D01*
X142549Y223155D01*
X142418Y223148D01*
X142387Y223141D01*
Y228861D01*
X142419Y228854D01*
X142549Y228847D01*
X142679Y228863D01*
X142804Y228901D01*
X142920Y228960D01*
X143025Y229039D01*
X143114Y229135D01*
X143185Y229244D01*
X143236Y229365D01*
X143265Y229492D01*
X143272Y229622D01*
X143256Y229752D01*
X143218Y229877D01*
X143123Y230148D01*
X143055Y230428D01*
X143013Y230713D01*
X143000Y231001D01*
X143013Y231288D01*
X143055Y231573D01*
X143123Y231853D01*
X143218Y232124D01*
X143219D01*
X143257Y232249D01*
X143273Y232379D01*
X143266Y232510D01*
X143237Y232637D01*
X143186Y232758D01*
X143114Y232867D01*
X143025Y232963D01*
X142921Y233042D01*
X142804Y233101D01*
X142679Y233139D01*
X142549Y233155D01*
X142418Y233148D01*
X142387Y233141D01*
Y237500D01*
G37*
G36*
X136000D02*X142387D01*
Y233141D01*
X142291Y233119D01*
X142170Y233068D01*
X142061Y232996D01*
X141965Y232907D01*
X141886Y232803D01*
X141827Y232686D01*
X141685Y232279D01*
X141582Y231859D01*
X141520Y231432D01*
X141500Y231001D01*
X141520Y230569D01*
X141582Y230142D01*
X141685Y229722D01*
X141827Y229315D01*
X141828D01*
X141887Y229199D01*
X141966Y229094D01*
X142062Y229005D01*
X142171Y228934D01*
X142292Y228883D01*
X142387Y228861D01*
Y223141D01*
X142291Y223119D01*
X142170Y223068D01*
X142061Y222996D01*
X141965Y222907D01*
X141886Y222803D01*
X141827Y222686D01*
X141685Y222279D01*
X141582Y221859D01*
X141520Y221432D01*
X141500Y221001D01*
X141520Y220569D01*
X141582Y220142D01*
X141685Y219722D01*
X141827Y219315D01*
X141828D01*
X141887Y219199D01*
X141966Y219094D01*
X142062Y219005D01*
X142171Y218934D01*
X142292Y218883D01*
X142387Y218861D01*
Y214500D01*
X136000D01*
Y216500D01*
X139000D01*
X139260Y216523D01*
X139513Y216590D01*
X139750Y216701D01*
X139964Y216851D01*
X140149Y217036D01*
X140299Y217250D01*
X140410Y217487D01*
X140477Y217740D01*
X140500Y218000D01*
Y224000D01*
X140477Y224260D01*
X140410Y224513D01*
X140299Y224750D01*
X140149Y224964D01*
X139964Y225149D01*
X139750Y225299D01*
X139513Y225410D01*
X139260Y225477D01*
X139000Y225500D01*
X136000D01*
Y226500D01*
X139000D01*
X139260Y226523D01*
X139513Y226590D01*
X139750Y226701D01*
X139964Y226851D01*
X140149Y227036D01*
X140299Y227250D01*
X140410Y227487D01*
X140477Y227740D01*
X140500Y228000D01*
Y234000D01*
X140477Y234260D01*
X140410Y234513D01*
X140299Y234750D01*
X140149Y234964D01*
X139964Y235149D01*
X139750Y235299D01*
X139513Y235410D01*
X139260Y235477D01*
X139000Y235500D01*
X136000D01*
Y237500D01*
G37*
G36*
X129500Y214500D02*Y237500D01*
X136000D01*
Y235500D01*
X133000D01*
X132740Y235477D01*
X132487Y235410D01*
X132250Y235299D01*
X132036Y235149D01*
X131851Y234964D01*
X131701Y234750D01*
X131590Y234513D01*
X131523Y234260D01*
X131500Y234000D01*
Y228000D01*
X131523Y227740D01*
X131590Y227487D01*
X131701Y227250D01*
X131851Y227036D01*
X132036Y226851D01*
X132250Y226701D01*
X132487Y226590D01*
X132740Y226523D01*
X133000Y226500D01*
X136000D01*
Y225500D01*
X133000D01*
X132740Y225477D01*
X132487Y225410D01*
X132250Y225299D01*
X132036Y225149D01*
X131851Y224964D01*
X131701Y224750D01*
X131590Y224513D01*
X131523Y224260D01*
X131500Y224000D01*
Y218000D01*
X131523Y217740D01*
X131590Y217487D01*
X131701Y217250D01*
X131851Y217036D01*
X132036Y216851D01*
X132250Y216701D01*
X132487Y216590D01*
X132740Y216523D01*
X133000Y216500D01*
X136000D01*
Y214500D01*
X129500D01*
G37*
G36*
X211500Y218000D02*Y233000D01*
X217500D01*
Y218000D01*
X211500D01*
G37*
G36*
X185000Y199500D02*Y215500D01*
X189000D01*
Y199500D01*
X185000D01*
G37*
G36*
X172500Y189500D02*Y197000D01*
X187000D01*
Y189500D01*
X172500D01*
G37*
G36*
X157500Y206500D02*Y215500D01*
X161500D01*
Y206500D01*
X157500D01*
G37*
G54D15*X230000Y324000D02*Y343000D01*
X265000Y329000D02*X270000Y324000D01*
X250000Y341000D02*X245000Y336000D01*
X240000Y324000D02*Y340500D01*
X245000Y345500D01*
Y318500D02*X233000Y306500D01*
G54D13*X290500Y99500D02*Y528500D01*
G54D15*X260000Y354000D02*Y324000D01*
X245000Y345500D02*Y382000D01*
X250000Y354000D02*Y341000D01*
Y324000D02*Y306500D01*
X245000Y336000D02*Y318500D01*
G54D12*X261500Y209000D02*X253500Y221000D01*
G54D13*X290500Y380000D02*X270000D01*
G54D12*Y371500D01*
G54D13*X275000Y155000D02*Y99500D01*
G54D14*X280000Y181500D02*X291000D01*
X280000Y200500D02*X291000D01*
G54D15*X220000Y354000D02*X230000Y343000D01*
Y389000D02*Y354000D01*
X235000Y359000D02*X240000Y354000D01*
X220000Y378500D02*Y389000D01*
X188000Y329000D02*Y405000D01*
X235000Y359000D02*Y414000D01*
X265000D02*Y385000D01*
X262000Y382000D02*X255500D01*
G54D16*X280000Y389000D02*X290500D01*
G54D15*X255500Y382000D02*X248500Y375000D01*
X265000Y385000D02*X262000Y382000D01*
X265000Y329000D02*Y361500D01*
G54D16*X220000Y354000D02*X211000D01*
X280000Y324000D02*X291000D01*
G54D12*X280000Y389000D02*Y379500D01*
G54D13*Y435500D02*X290500D01*
X280000Y458500D02*X290500D01*
X280000Y447000D02*X290500D01*
G54D15*X275000Y349000D02*Y296500D01*
G54D13*X280000Y528500D02*Y435500D01*
X210500Y511000D02*Y312500D01*
X191000Y502500D02*X203500D01*
X246000Y528500D02*X297500D01*
X191000Y471000D02*X203500D01*
X191000Y479000D02*X203500D01*
G54D15*X275000Y296500D02*X280000Y291500D01*
G54D13*X261500Y254500D02*Y224500D01*
G54D12*X253500Y248000D02*Y221000D01*
G54D13*X270500Y254500D02*Y224500D01*
G54D12*X270000Y216500D02*Y224500D01*
G54D14*X248000Y156500D02*X255500D01*
X248000Y166500D02*X255500D01*
G54D12*X261500Y209000D02*X270000Y200500D01*
G54D13*X243000Y230500D02*Y254500D01*
G54D12*X261000Y172000D02*X270000Y181500D01*
X261000Y140000D02*Y172000D01*
G54D14*X252500Y104000D02*X238000D01*
G54D13*X230000Y127000D02*X238000D01*
X283000Y155000D02*Y99500D01*
X230000Y120500D02*X238000D01*
X260500Y107500D02*X297500D01*
G54D12*X96000Y231000D02*Y221000D01*
G54D15*Y324000D02*Y250000D01*
G54D12*X111500Y255500D02*X96000Y231000D01*
G54D15*X90000Y285000D02*Y252500D01*
G54D13*X124000Y254500D02*Y200500D01*
X111500Y206000D02*X117000D01*
X187000Y254500D02*Y242000D01*
X201000Y295500D02*Y269000D01*
X177000Y206000D02*Y200500D01*
X180500Y254500D02*Y242000D01*
G54D15*X220000Y311500D02*X270000Y261500D01*
X280000D01*
G54D13*X116500Y254500D02*X297500D01*
X193500Y299000D02*Y242000D01*
G54D15*X220000Y324000D02*Y311500D01*
G54D13*X210500Y312500D02*X201000Y295500D01*
X297500Y239000D02*X261500D01*
X297500Y224500D02*X261500D01*
X290500Y204500D02*X297500D01*
X290500Y216500D02*X297500D01*
G54D15*X193000Y354000D02*Y361000D01*
X178000Y329000D02*X173000Y324000D01*
X188000Y329000D02*X183000Y324000D01*
G54D16*X160500Y315500D02*X174000D01*
X183000Y306500D01*
X158500D02*Y313500D01*
X160500Y315500D01*
G54D15*X153000Y324000D02*X142000Y310500D01*
Y293000D01*
X144500Y284000D02*X142000Y293000D01*
G54D13*X140500Y269000D02*Y242000D01*
X151000Y269000D02*Y242000D01*
X162500Y269000D02*Y242000D01*
X173500Y269000D02*Y242000D01*
X131500Y254500D02*Y242000D01*
X140500Y262000D02*X173500D01*
X193500Y269000D02*X140500D01*
X134000Y200500D02*Y206000D01*
X116500Y223500D02*X124000D01*
X117000Y206000D02*Y217000D01*
X142000Y206000D02*Y200500D01*
X150500Y206000D02*Y200500D01*
X116500Y242000D02*X223500D01*
Y248500D02*X116500D01*
X223500Y206000D02*X124000D01*
X205500Y200500D02*X124000D01*
X290500Y163500D02*X297500D01*
Y279000D02*Y99500D01*
Y196500D02*X290500D01*
X297500Y171500D02*X290500D01*
Y179000D02*X297500D01*
X290500Y187500D02*X297500D01*
X290500Y231500D02*X297500D01*
X290500Y279000D02*X297500D01*
X290500Y271500D02*X297500D01*
X290500Y264000D02*X297500D01*
X290500Y246500D02*X297500D01*
Y146500D02*X268000D01*
Y155000D02*X297500D01*
G54D14*X277500Y86000D02*Y100000D01*
G54D13*X260500Y99500D02*X297500D01*
Y122000D02*X260500D01*
Y133500D02*Y91500D01*
X268000Y92000D02*Y155000D01*
X102000Y133000D02*X159500D01*
X143500Y97500D02*X149500Y91500D01*
G54D15*X104000Y94500D02*X124000D01*
X140000Y110500D01*
G54D13*X135500Y97500D02*X143500D01*
X179500Y190500D02*Y133500D01*
X186500D01*
X170000Y107500D02*Y91500D01*
X159500Y206000D02*Y91500D01*
X238000D02*Y140000D01*
X208500Y133500D02*X297500D01*
X230000Y114500D02*X297500D01*
G54D14*X238000Y97000D02*X260000D01*
G54D13*X159500Y99500D02*X238000D01*
X159500Y107500D02*X238000D01*
X149500Y91500D02*X268000D01*
G54D16*X59000Y192000D02*X53500Y186500D01*
G54D15*X65000Y199500D02*X50000Y210000D01*
X61000Y214500D02*X70000Y202000D01*
Y192000D01*
X77500Y198000D02*Y187500D01*
X71000Y215500D02*X77500Y198000D01*
X85000Y197500D02*Y183000D01*
X81000Y216000D02*X85000Y197500D01*
X92500Y197000D02*Y178500D01*
X91000Y216500D02*X92500Y197000D01*
X77500Y187500D02*X70000Y177000D01*
X85000Y183000D02*X70000Y162000D01*
X92500Y178500D02*X70000Y147000D01*
G54D16*X59000D02*X54500Y151500D01*
G54D15*X65000Y199500D02*Y143500D01*
G54D16*X59000Y162000D02*X46000D01*
X59000Y177000D02*X53000D01*
X53500Y186500D02*X46000Y182000D01*
G54D13*X36000Y285000D02*Y84000D01*
G54D16*X53000Y177000D02*X46000Y172000D01*
G54D12*X45000Y91500D02*Y84000D01*
Y91500D02*X36000D01*
G54D13*X42500Y221000D02*X29500D01*
X49000Y261500D02*X29500D01*
X49000Y269500D02*X29500D01*
G54D15*X50000Y238000D02*Y210000D01*
G54D12*X56000Y231000D02*Y211500D01*
G54D13*X29500Y100000D02*X36000D01*
X29500Y110000D02*X36000D01*
G54D16*X54500Y151500D02*X46000Y152000D01*
G54D13*X29500Y138000D02*X51000D01*
X29500Y120500D02*X50500D01*
X57500Y113500D01*
X29500Y129500D02*X36000D01*
G54D14*X51000Y138000D02*X55000Y129500D01*
G54D13*X29500Y84000D02*X64500D01*
X73000Y75500D01*
X36000Y91500D02*X29500D01*
G54D14*X62500D02*Y101500D01*
G54D15*X65000Y143500D02*X88500Y137000D01*
X92500Y133000D02*X88500Y137000D01*
G54D12*X62500Y121500D02*X77500Y133000D01*
G54D13*X74000Y121000D02*Y113500D01*
X57500D02*X109500D01*
Y121000D02*X74000D01*
X82500D02*Y113500D01*
X91500Y121000D02*Y113500D01*
X101500Y75500D02*X110500Y84500D01*
X122500D02*X110500D01*
X73000Y75500D02*X101500D01*
X109500Y113500D02*Y133000D01*
X102000D02*Y113500D01*
G54D14*X120000Y121000D02*X109000D01*
X45000Y101500D02*X120500D01*
G54D15*X92500Y83000D02*X104000Y94500D01*
X183000Y354000D02*Y364500D01*
X163000Y354000D02*Y371500D01*
X173000Y354000D02*Y368000D01*
X168000Y368500D02*Y361000D01*
X173000Y373500D02*X168000Y368500D01*
X183000Y419000D02*X168000Y404000D01*
X173000Y419000D02*X158000Y404000D01*
X193000Y419000D02*X178000Y404000D01*
X183000Y389000D02*Y375000D01*
X150000Y406000D02*X163000Y419000D01*
X168000Y375000D02*Y404000D01*
X158000Y376500D02*Y404000D01*
X148000Y384000D02*X153000Y389000D01*
X138000Y394000D02*X143000Y399000D01*
Y406000D02*X150000D01*
G54D13*X116500Y528500D02*Y235000D01*
Y528500D02*X246000D01*
G54D12*X220000Y261500D02*Y299500D01*
G54D13*X205500Y200500D02*Y206000D01*
X218000Y254500D02*Y206000D01*
X209000Y254500D02*Y242000D01*
Y107500D02*Y84500D01*
X195500Y206000D02*Y200500D01*
X199000Y107500D02*Y84500D01*
X187500Y107500D02*Y84500D01*
X230000D02*X178500D01*
X218000Y213000D02*X223500D01*
X230000Y193000D02*Y84500D01*
X219000Y107500D02*Y84500D01*
X218000Y221000D02*X223500D01*
X218000Y230500D02*X223500D01*
X201000Y254500D02*Y242000D01*
X255500Y196500D02*Y133500D01*
G54D12*X230000Y231500D02*Y202500D01*
Y246500D02*X236000Y240500D01*
G54D15*X153000Y354000D02*Y375000D01*
X148000D02*Y384000D01*
X163000Y371500D02*X158000Y376500D01*
G54D13*X152000Y125000D02*Y99500D01*
G54D15*X140000Y110500D02*Y121000D01*
X173000Y389000D02*Y373500D01*
X178000Y404000D02*Y329000D01*
G54D13*X168500Y206000D02*Y200500D01*
G54D14*X169500Y63500D02*Y44000D01*
G54D13*X116500Y235000D02*X124000D01*
G54D14*X130000Y111000D02*Y121000D01*
G54D12*X134000Y200500D02*Y133000D01*
G54D14*X120000Y121000D02*Y133000D01*
X120500Y101500D02*X130000Y111000D01*
G54D13*X135500Y97500D02*X122500Y84500D01*
G54D14*X139500Y91000D02*X169500Y63500D01*
G54D13*X178500Y107500D02*Y84500D01*
G54D12*X236000Y240500D02*Y218000D01*
X214000Y196500D02*Y206000D01*
G54D13*X223500Y254500D02*Y133500D01*
G54D14*X209000Y107500D02*Y133500D01*
G54D13*X230000Y193000D02*X223500D01*
X230000Y182000D02*X223500D01*
X230000Y171500D02*X223500D01*
X230000Y161500D02*X223500D01*
X230000Y151500D02*X223500D01*
X230000Y142500D02*X223500D01*
X230500Y140000D02*X255500D01*
G54D12*X238000Y206500D02*Y212000D01*
Y196500D02*X230000Y202500D01*
G54D14*X238000Y146500D02*X230000D01*
G54D12*X238000Y206500D02*Y213500D01*
X236000Y218000D01*
X238000Y146500D02*X248000D01*
G54D14*X255500D01*
G54D15*X91000Y337000D02*Y313500D01*
Y368000D02*Y347000D01*
X96000Y354000D02*Y342000D01*
X91000Y337000D01*
X86000Y342000D02*Y324000D01*
X81000Y375000D02*Y359000D01*
X86000Y354000D01*
X71000Y385000D02*X81000Y375000D01*
X76000Y324000D02*Y315000D01*
X71000D02*Y349000D01*
X76000Y354000D01*
X61500Y349500D02*Y316000D01*
X106000Y354000D02*Y339000D01*
X101000Y334000D01*
Y317000D01*
G54D13*X29500Y84000D02*Y528500D01*
G54D12*X46000Y306500D02*X36500D01*
X46000Y371500D02*X36000D01*
G54D13*X29500Y157000D02*X36000D01*
X29500Y167000D02*X36000D01*
X29500Y146500D02*X36000D01*
X29500Y187500D02*X36000D01*
X29500Y177000D02*X36000D01*
X42500Y231000D02*Y200500D01*
X29500Y206000D02*X42500D01*
G54D12*X46000Y192000D02*X36500D01*
G54D15*X51000Y384000D02*Y302500D01*
X66000Y324000D02*Y309000D01*
G54D12*X56000Y276500D02*X49000D01*
G54D15*X61500Y316000D02*Y311500D01*
X51000Y302500D02*X54000Y299500D01*
X61500D01*
X63500Y256500D02*X50000Y238000D01*
X61500Y299500D02*X63500Y297500D01*
Y256500D01*
X66000Y309000D02*X78000Y288500D01*
Y254000D01*
G54D12*X83000Y306500D02*Y253500D01*
X76000Y231000D02*Y221000D01*
G54D15*X71000Y275500D02*Y256000D01*
X61000Y236500D01*
X78000Y254000D02*X71000Y237000D01*
Y215500D02*Y237000D01*
X81000Y216000D02*Y234500D01*
G54D12*X76000Y231000D02*X83000Y253500D01*
G54D15*X90000Y252500D02*X81000Y234500D01*
X96000Y250000D02*X91000Y235000D01*
Y216500D02*Y235000D01*
X61000Y236500D02*Y214500D01*
G54D13*X36500Y291500D02*X46000D01*
X29500Y278000D02*X49000D01*
Y285000D02*X29500D01*
Y231000D02*X42500D01*
X29500Y200500D02*X42500D01*
X29500Y254500D02*X49000D01*
X42500Y285000D02*Y231000D01*
X29500Y242000D02*X42500D01*
X49000Y285000D02*Y248500D01*
X29500D01*
G54D16*X193000Y389000D02*X203500D01*
G54D15*X210000Y419000D02*X209500Y419500D01*
X235000Y414000D02*X240000Y419000D01*
X198000Y415000D02*X188000Y405000D01*
G54D16*X220000Y419000D02*X210000D01*
G54D15*X230000Y429000D02*Y419000D01*
G54D16*X211000Y354000D02*X210500Y353500D01*
X193000Y324000D02*X204000D01*
G54D15*X198000Y415000D02*Y424500D01*
X270000Y419000D02*X265000Y414000D01*
X255000Y425500D02*Y394000D01*
X260000Y389000D01*
X245000Y429000D02*Y394000D01*
X250000Y389000D01*
X260000Y427500D02*Y419000D01*
X275000Y425500D02*Y394000D01*
X270000Y389000D01*
Y354000D02*X275000Y349000D01*
X250000Y306500D02*X280000Y276500D01*
X265000Y361500D02*X255000Y371500D01*
X280000Y427500D02*Y419000D01*
G54D13*X297500Y286000D02*Y502000D01*
G54D16*X130500Y486500D02*X144500Y507000D01*
Y514000D01*
G54D13*X77000Y528500D02*Y511000D01*
G54D15*X91000Y378500D02*Y414000D01*
X86000Y419000D01*
X81000Y394000D02*X76000Y389000D01*
G54D13*X84500Y511000D02*Y528500D01*
G54D16*X158000Y452500D02*X144500Y464000D01*
X168000Y452500D02*Y463500D01*
X175500Y471000D01*
X130500Y440500D02*Y486500D01*
G54D15*X133000Y324000D02*X139000Y318000D01*
G54D13*X116500Y502500D02*X105000D01*
Y471000D01*
X116500D01*
X105000Y479000D02*X116500D01*
X105000Y489500D02*X116500D01*
G54D16*X238000Y484500D02*Y449500D01*
X251500Y485000D02*X269000Y461500D01*
X238000Y449500D02*X260000Y427500D01*
X269000Y431500D02*Y461500D01*
X273500Y434000D02*X280000Y427500D01*
X273500Y440500D02*Y434000D01*
X275000Y425500D02*X269000Y431500D01*
G54D13*X272000Y528500D02*Y471000D01*
G54D16*X229500Y502500D02*X224500Y497500D01*
Y483500D01*
X238000Y484500D02*X231500Y491000D01*
X224500Y483500D02*X231500Y464000D01*
X245000Y502500D02*X229500D01*
G54D13*X237000Y511000D02*Y580500D01*
G54D16*X168000Y502500D02*X191000D01*
G54D13*X155500Y511000D02*Y580500D01*
X167000Y511000D02*Y580500D01*
Y530500D02*Y511000D01*
X178500Y530500D02*Y511000D01*
Y580500D01*
G54D16*X175500Y471000D02*X191000D01*
X188500Y464000D02*X181500D01*
X198000Y424500D02*X188500Y464000D01*
G54D13*X191000Y471000D02*Y580500D01*
X92500D02*X237000D01*
X92500Y570500D02*X237000D01*
X92500Y561000D02*X237000D01*
X126500Y580500D02*Y561000D01*
X119000Y580500D02*X118500D01*
X134500Y539500D02*X191000D01*
X134500Y547500D02*X191000D01*
X118500Y580500D02*Y561000D01*
G54D16*X109500Y514000D02*Y547500D01*
X114500Y552500D01*
G54D13*X144500Y521000D02*Y580500D01*
X101500Y521000D02*Y580500D01*
X92500Y521000D02*Y580500D01*
X110000D02*Y561000D01*
X134500Y521000D02*X297500D01*
X228500Y511000D02*Y580500D01*
G54D16*X211500Y552500D02*Y521000D01*
G54D13*X219500Y539500D02*X237000D01*
X134500Y521000D02*Y580500D01*
X219500Y511000D02*Y580500D01*
Y547500D02*X237000D01*
X199500Y580500D02*Y561000D01*
X208500Y580500D02*Y561000D01*
X155500Y511000D02*X203500D01*
Y317000D02*X193500Y299000D01*
X203500Y317000D02*Y528500D01*
X191000Y493000D02*X203500D01*
X246000Y528500D02*Y511000D01*
X255000Y528500D02*Y511000D01*
G54D16*Y452500D02*X264000Y435500D01*
G54D13*Y502000D02*X290500D01*
X297500Y511000D02*Y528500D01*
G54D16*X255000Y502500D02*Y511000D01*
G54D13*X264000Y494000D02*X290500D01*
X219500Y511000D02*X297500D01*
X272000Y479000D02*X290500D01*
Y471000D02*X272000D01*
X264000Y528500D02*Y486500D01*
X290500D02*X264000D01*
G54D15*X66000Y419000D02*Y399000D01*
X61000Y382000D02*Y359000D01*
X56000Y354000D01*
Y389000D02*X66000Y399000D01*
X61500Y349500D02*X66000Y354000D01*
Y382000D02*Y389000D01*
X46000D02*X51000Y384000D01*
X61000Y412000D02*X46000Y397000D01*
Y389000D01*
X71000Y385000D02*Y414000D01*
X76500Y371500D02*X66000Y382000D01*
X71000Y414000D02*X76000Y419000D01*
G54D16*X100000Y436000D02*X81000Y424500D01*
X133000Y419000D02*X123000D01*
G54D15*X143000Y354000D02*Y382000D01*
X138000Y361000D02*Y394000D01*
X143000Y419000D02*Y399000D01*
G54D16*X133000Y354000D02*X123000D01*
X106000Y389000D02*X116000D01*
G54D15*X91000Y347000D02*X86000Y342000D01*
G54D16*X81000Y502500D02*X105000D01*
X94500Y464000D02*X100000Y458000D01*
Y436000D01*
X94500Y440500D02*X83000D01*
X81000Y452500D02*X90000Y471000D01*
X104500D01*
G54D13*X123500Y521000D02*Y269000D01*
Y521000D02*X127500D01*
G54D15*X96000Y361000D02*Y389000D01*
X101000Y382000D02*Y414000D01*
X106000Y419000D01*
G54D16*Y324000D02*X116500D01*
G54D15*X139000Y318000D02*Y287000D01*
G54D12*X111500Y267500D02*X106000Y276500D01*
X111500Y267500D02*Y255500D01*
G54D15*X81000Y394000D02*Y424500D01*
X61000Y412000D02*Y430500D01*
G54D16*X83000Y440500D02*X71000Y452500D01*
G54D13*X36500Y504500D02*Y291500D01*
X29500Y511000D02*X84500D01*
X54000Y471000D02*X43000D01*
Y528500D01*
X52000D02*Y479000D01*
X36500Y511000D02*Y528500D01*
X60500Y458500D02*Y528500D01*
X101500D02*X29500D01*
Y521000D02*X101500D01*
X69000Y511000D02*Y528500D01*
G54D16*X46000Y354000D02*X36500D01*
G54D13*X43000Y479000D02*X60500D01*
X43000Y458500D02*X60500D01*
X43000Y487500D02*X60500D01*
X43000Y504500D02*X60500D01*
X43000Y496000D02*X60500D01*
G54D16*X46000Y419000D02*X36000D01*
G54D13*X43000Y428000D02*Y471000D01*
Y428000D02*X54000D01*
Y471000D01*
X43000Y446500D02*X54000D01*
X43000Y439000D02*X54000D01*
G54D11*G36*
X228750Y493750D02*Y488250D01*
X234250D01*
Y493750D01*
X228750D01*
G37*
G54D17*X231500Y464000D03*
G54D11*G36*
X198250Y555750D02*Y549250D01*
X204750D01*
Y555750D01*
X198250D01*
G37*
G54D18*X211500Y552500D03*
G54D11*G36*
X241750Y505750D02*Y499250D01*
X248250D01*
Y505750D01*
X241750D01*
G37*
G54D18*X255000Y502500D03*
G54D11*G36*
X241750Y455750D02*Y449250D01*
X248250D01*
Y455750D01*
X241750D01*
G37*
G54D18*X255000Y452500D03*
G54D17*X181500Y491000D03*
Y440500D03*
G54D11*G36*
X178750Y466750D02*Y461250D01*
X184250D01*
Y466750D01*
X178750D01*
G37*
G36*
X141750Y516750D02*Y511250D01*
X147250D01*
Y516750D01*
X141750D01*
G37*
G54D17*X144500Y464000D03*
G54D11*G36*
X141750Y443250D02*Y437750D01*
X147250D01*
Y443250D01*
X141750D01*
G37*
G36*
Y493250D02*Y487750D01*
X147250D01*
Y493250D01*
X141750D01*
G37*
G54D17*X94500Y514000D03*
G54D11*G36*
X91750Y466750D02*Y461250D01*
X97250D01*
Y466750D01*
X91750D01*
G37*
G54D17*X94500Y440500D03*
Y490500D03*
G54D11*G36*
X111250Y555750D02*Y549250D01*
X117750D01*
Y555750D01*
X111250D01*
G37*
G54D18*X124500Y552500D03*
G54D11*G36*
X154750Y455750D02*Y449250D01*
X161250D01*
Y455750D01*
X154750D01*
G37*
G36*
Y505750D02*Y499250D01*
X161250D01*
Y505750D01*
X154750D01*
G37*
G54D18*X168000Y452500D03*
Y502500D03*
G54D11*G36*
X67750Y455750D02*Y449250D01*
X74250D01*
Y455750D01*
X67750D01*
G37*
G54D18*X81000Y452500D03*
G54D11*G36*
X67750Y505750D02*Y499250D01*
X74250D01*
Y505750D01*
X67750D01*
G37*
G54D18*X81000Y502500D03*
G54D19*X250000Y354000D03*
X240000D03*
X230000D03*
X220000D03*
X173000Y324000D03*
G54D11*G36*
X164900Y310100D02*Y302900D01*
X172100D01*
Y310100D01*
X164900D01*
G37*
G54D20*X158500Y306500D03*
X148500D03*
G54D19*X183000Y324000D03*
G54D11*G36*
X180250Y309250D02*Y303750D01*
X185750D01*
Y309250D01*
X180250D01*
G37*
G54D19*X193000Y324000D03*
Y354000D03*
X183000D03*
X173000D03*
X250000Y324000D03*
X260000D03*
X270000D03*
X280000D03*
G54D11*G36*
X217000Y327000D02*Y321000D01*
X223000D01*
Y327000D01*
X217000D01*
G37*
G54D19*X230000Y324000D03*
X240000D03*
X280000Y354000D03*
X270000D03*
X260000D03*
G54D11*G36*
X277000Y374500D02*Y368500D01*
X283000D01*
Y374500D01*
X277000D01*
G37*
G54D19*X270000Y371500D03*
G54D11*G36*
X130000Y327000D02*Y321000D01*
X136000D01*
Y327000D01*
X130000D01*
G37*
G54D19*X143000Y324000D03*
X153000D03*
X163000D03*
Y354000D03*
Y389000D03*
X173000D03*
X183000D03*
X153000Y354000D03*
Y389000D03*
X193000D03*
X240000D03*
Y419000D03*
X250000Y389000D03*
Y419000D03*
X260000Y389000D03*
Y419000D03*
X270000Y389000D03*
Y419000D03*
X280000Y389000D03*
Y419000D03*
G54D11*G36*
X228750Y443250D02*Y437750D01*
X234250D01*
Y443250D01*
X228750D01*
G37*
G36*
X217000Y392000D02*Y386000D01*
X223000D01*
Y392000D01*
X217000D01*
G37*
G54D19*X230000Y389000D03*
Y419000D03*
X220000D03*
X193000D03*
G54D11*G36*
X207000Y294500D02*Y288500D01*
X213000D01*
Y294500D01*
X207000D01*
G37*
G54D19*X220000Y291500D03*
G54D17*X233000Y306500D03*
G54D11*G36*
X227250Y279250D02*Y273750D01*
X232750D01*
Y279250D01*
X227250D01*
G37*
G54D17*X280000Y276500D03*
Y291500D03*
G54D11*G36*
X277000Y309500D02*Y303500D01*
X283000D01*
Y309500D01*
X277000D01*
G37*
G36*
X43000Y374500D02*Y368500D01*
X49000D01*
Y374500D01*
X43000D01*
G37*
G54D19*X56000Y371500D03*
G54D11*G36*
X43000Y392000D02*Y386000D01*
X49000D01*
Y392000D01*
X43000D01*
G37*
G36*
Y327000D02*Y321000D01*
X49000D01*
Y327000D01*
X43000D01*
G37*
G54D19*X46000Y354000D03*
G54D11*G36*
X43000Y309500D02*Y303500D01*
X49000D01*
Y309500D01*
X43000D01*
G37*
G54D19*X56000Y389000D03*
Y324000D03*
Y354000D03*
X66000Y389000D03*
Y324000D03*
Y354000D03*
G54D11*G36*
X53250Y264250D02*Y258750D01*
X58750D01*
Y264250D01*
X53250D01*
G37*
G36*
Y279250D02*Y273750D01*
X58750D01*
Y279250D01*
X53250D01*
G37*
G36*
Y294250D02*Y288750D01*
X58750D01*
Y294250D01*
X53250D01*
G37*
G54D19*X56000Y306500D03*
X143000Y354000D03*
Y389000D03*
Y419000D03*
X133000Y354000D03*
G54D11*G36*
X130000Y392000D02*Y386000D01*
X136000D01*
Y392000D01*
X130000D01*
G37*
G54D19*X133000Y419000D03*
X183000D03*
X173000D03*
X163000D03*
X153000D03*
X106000D03*
X86000Y354000D03*
X76000D03*
X96000Y419000D03*
X86000D03*
X76000D03*
X66000D03*
X56000D03*
X46000D03*
X76000Y389000D03*
X86000D03*
X96000D03*
X106000D03*
X76000Y324000D03*
X86000D03*
X96000D03*
X106000D03*
Y354000D03*
X96000D03*
G54D17*X106000Y261500D03*
G54D11*G36*
X130250Y264250D02*Y258750D01*
X135750D01*
Y264250D01*
X130250D01*
G37*
G54D17*X106000Y276500D03*
G54D11*G36*
X130250Y279250D02*Y273750D01*
X135750D01*
Y279250D01*
X130250D01*
G37*
G54D17*X183000Y276500D03*
X106000Y291500D03*
G54D11*G36*
X80250Y309250D02*Y303750D01*
X85750D01*
Y309250D01*
X80250D01*
G37*
G54D17*X133000Y306500D03*
G54D11*G36*
X130250Y294250D02*Y288750D01*
X135750D01*
Y294250D01*
X130250D01*
G37*
G54D17*X183000Y261500D03*
G54D11*G36*
X227250Y264250D02*Y258750D01*
X232750D01*
Y264250D01*
X227250D01*
G37*
G54D17*X280000Y261500D03*
G54D11*G36*
X207000Y264500D02*Y258500D01*
X213000D01*
Y264500D01*
X207000D01*
G37*
G54D19*X220000Y261500D03*
G54D11*G36*
X207000Y279500D02*Y273500D01*
X213000D01*
Y279500D01*
X207000D01*
G37*
G54D19*X220000Y276500D03*
G54D11*G36*
X227250Y294250D02*Y288750D01*
X232750D01*
Y294250D01*
X227250D01*
G37*
G54D17*X183000Y291500D03*
G54D19*X270000Y306500D03*
G54D11*G36*
X211000Y199500D02*Y193500D01*
X217000D01*
Y199500D01*
X211000D01*
G37*
G36*
X267000Y203500D02*Y197500D01*
X273000D01*
Y203500D01*
X267000D01*
G37*
G54D19*X280000Y200500D03*
X238000Y196500D03*
X248000D03*
X214000Y186500D03*
G54D11*G36*
X227250Y234250D02*Y228750D01*
X232750D01*
Y234250D01*
X227250D01*
G37*
G54D19*X214000Y186500D03*
G54D11*G36*
X227250Y249250D02*Y243750D01*
X232750D01*
Y249250D01*
X227250D01*
G37*
G36*
X277000Y219500D02*Y213500D01*
X283000D01*
Y219500D01*
X277000D01*
G37*
G54D19*X270000Y216500D03*
G54D17*X280000Y231500D03*
Y246500D03*
G54D11*G36*
X235000Y209500D02*Y203500D01*
X241000D01*
Y209500D01*
X235000D01*
G37*
G36*
X245000D02*Y203500D01*
X251000D01*
Y209500D01*
X245000D01*
G37*
G54D19*X206000Y221000D03*
X196000Y231000D03*
X206000D03*
X214000Y176500D03*
G54D17*X199000Y192000D03*
Y177000D03*
G54D19*X214000Y176500D03*
G54D17*X199000Y162000D03*
Y146500D03*
G54D19*X238000Y176500D03*
Y166500D03*
Y156500D03*
Y146500D03*
X214000Y166500D03*
Y156500D03*
G54D11*G36*
X211000Y149500D02*Y143500D01*
X217000D01*
Y149500D01*
X211000D01*
G37*
G54D19*X214000Y156500D03*
Y166500D03*
X248000D03*
Y156500D03*
Y146500D03*
G54D11*G36*
X166750Y136750D02*Y131250D01*
X172250D01*
Y136750D01*
X166750D01*
G37*
G54D17*X169500Y84000D03*
G54D11*G36*
X146250Y149250D02*Y143750D01*
X151750D01*
Y149250D01*
X146250D01*
G37*
G36*
X167000Y76500D02*Y71500D01*
X172000D01*
Y76500D01*
X167000D01*
G37*
G54D21*X169500Y44000D03*
G54D22*X209000Y53500D03*
G54D11*G36*
X214500Y125000D02*Y116000D01*
X223500D01*
Y125000D01*
X214500D01*
G37*
G54D23*X209000Y120500D03*
X199000D03*
G54D11*G36*
X249500Y127000D02*Y121000D01*
X255500D01*
Y127000D01*
X249500D01*
G37*
G54D19*X252500Y104000D03*
G54D24*X277500Y85500D03*
G54D19*X238000Y186500D03*
X248000D03*
Y176500D03*
G54D11*G36*
X267000Y184500D02*Y178500D01*
X273000D01*
Y184500D01*
X267000D01*
G37*
G54D19*X280000Y181500D03*
G54D11*G36*
X273500Y169500D02*Y161500D01*
X281500D01*
Y169500D01*
X273500D01*
G37*
G36*
X121000Y195000D02*Y189000D01*
X127000D01*
Y195000D01*
X121000D01*
G37*
G54D17*X109000Y192000D03*
Y177000D03*
G54D11*G36*
X121000Y180000D02*Y174000D01*
X127000D01*
Y180000D01*
X121000D01*
G37*
G54D19*X134000Y192000D03*
G54D11*G36*
X146250Y194750D02*Y189250D01*
X151750D01*
Y194750D01*
X146250D01*
G37*
G36*
Y179750D02*Y174250D01*
X151750D01*
Y179750D01*
X146250D01*
G37*
G36*
Y164750D02*Y159250D01*
X151750D01*
Y164750D01*
X146250D01*
G37*
G54D19*X134000Y162000D03*
Y177000D03*
G54D17*X109000Y147000D03*
G54D11*G36*
X121000Y150000D02*Y144000D01*
X127000D01*
Y150000D01*
X121000D01*
G37*
G54D19*X134000Y147000D03*
G54D17*X109000Y162000D03*
G54D11*G36*
X121000Y165000D02*Y159000D01*
X127000D01*
Y165000D01*
X121000D01*
G37*
G36*
X135500Y125500D02*Y116500D01*
X144500D01*
Y125500D01*
X135500D01*
G37*
G54D23*X130000Y121000D03*
X120000D03*
G54D22*X130000Y54000D03*
G54D11*G36*
X42000Y114500D02*Y108500D01*
X48000D01*
Y114500D01*
X42000D01*
G37*
G54D19*X45000Y101500D03*
Y91500D03*
G54D11*G36*
X60000Y94000D02*Y89000D01*
X65000D01*
Y94000D01*
X60000D01*
G37*
G54D21*X62500Y121500D03*
G54D11*G36*
X53000Y234000D02*Y228000D01*
X59000D01*
Y234000D01*
X53000D01*
G37*
G36*
Y224000D02*Y218000D01*
X59000D01*
Y224000D01*
X53000D01*
G37*
G54D19*X66000Y231000D03*
Y221000D03*
X76000Y231000D03*
Y221000D03*
G54D11*G36*
X74750Y85750D02*Y80250D01*
X80250D01*
Y85750D01*
X74750D01*
G37*
G54D17*X77500Y133000D03*
G54D19*X86000Y231000D03*
Y221000D03*
X96000D03*
X106000D03*
X96000Y231000D03*
X106000D03*
G54D11*G36*
X89750Y135750D02*Y130250D01*
X95250D01*
Y135750D01*
X89750D01*
G37*
G54D17*X92500Y83000D03*
G54D11*G36*
X97500Y164500D02*Y159500D01*
X102500D01*
Y164500D01*
X97500D01*
G37*
G36*
Y194500D02*Y189500D01*
X102500D01*
Y194500D01*
X97500D01*
G37*
G36*
Y179500D02*Y174500D01*
X102500D01*
Y179500D01*
X97500D01*
G37*
G36*
Y149500D02*Y144500D01*
X102500D01*
Y149500D01*
X97500D01*
G37*
G54D21*X70000Y147000D03*
G54D11*G36*
X56250Y149750D02*Y144250D01*
X61750D01*
Y149750D01*
X56250D01*
G37*
G54D21*X70000Y162000D03*
G54D11*G36*
X56250Y179750D02*Y174250D01*
X61750D01*
Y179750D01*
X56250D01*
G37*
G54D19*X46000Y182000D03*
Y172000D03*
G54D21*X70000Y177000D03*
G54D11*G36*
X56250Y164750D02*Y159250D01*
X61750D01*
Y164750D01*
X56250D01*
G37*
G54D19*X46000Y162000D03*
Y152000D03*
G54D11*G36*
X42000Y132500D02*Y126500D01*
X48000D01*
Y132500D01*
X42000D01*
G37*
G54D19*X55000Y129500D03*
G54D11*G36*
X56250Y194750D02*Y189250D01*
X61750D01*
Y194750D01*
X56250D01*
G37*
G36*
X43000Y195000D02*Y189000D01*
X49000D01*
Y195000D01*
X43000D01*
G37*
G54D21*X70000Y192000D03*
G54D11*G36*
X133000Y224000D02*Y218000D01*
X139000D01*
Y224000D01*
X133000D01*
G37*
G36*
Y234000D02*Y228000D01*
X139000D01*
Y234000D01*
X133000D01*
G37*
G54D19*X146000Y231000D03*
Y221000D03*
X156000D03*
X166000D03*
X176000D03*
X186000D03*
X196000D03*
X156000Y231000D03*
X166000D03*
X176000D03*
X186000D03*
G54D25*X173000Y368000D03*
X168000Y361000D03*
X163000Y371500D03*
X168000Y375000D03*
X153000D03*
X193000Y361000D03*
X183000Y364500D03*
Y375000D03*
X220000Y378500D03*
X251500Y485000D03*
X245000Y429000D03*
X230000D03*
X203500Y434500D03*
Y471000D03*
X210500Y458500D03*
Y511000D03*
Y479000D03*
X255000Y371500D03*
X245000Y382000D03*
X248500Y375000D03*
X210500Y342000D03*
Y347500D03*
X203500Y336000D03*
Y330500D03*
X202000Y314500D03*
X297500Y342000D03*
Y347500D03*
X290500Y336000D03*
Y330500D03*
X220000Y299500D03*
X210500Y412500D03*
X297500D03*
X210500Y407000D03*
X297500D03*
X203500Y401000D03*
X290500D03*
X203500Y395500D03*
X290500D03*
X255000Y425500D03*
X264000Y435500D03*
X273500Y440500D03*
X290500Y435500D03*
X297500Y458500D03*
X290500Y471000D03*
X297500Y502000D03*
Y486500D03*
Y479000D03*
X280000Y471000D03*
X297500Y494000D03*
X201000Y269000D03*
G54D19*X176000Y193500D03*
X183500D03*
X186500Y133500D03*
X179500D03*
X152000Y99500D03*
Y125000D03*
X139500Y91000D03*
G54D25*X290500Y299500D03*
Y314500D03*
X297500Y306500D03*
Y291500D03*
Y286000D03*
X253500Y248000D03*
X243000Y230500D03*
X261500D03*
X255500Y196500D03*
X261000Y140000D03*
X29500Y330500D03*
Y336000D03*
X36500Y347500D03*
Y342000D03*
X61000Y382000D03*
X61500Y311500D03*
X29500Y395500D03*
Y401000D03*
X36500Y407000D03*
X29500Y299500D03*
Y313000D03*
X36500Y291500D03*
X46000D03*
X42500Y231000D03*
Y221000D03*
X56000Y211500D03*
X36500Y412500D03*
X61000Y430500D03*
X29500Y471000D03*
X36500Y458500D03*
X43000Y471000D03*
X36500Y479000D03*
Y487500D03*
Y504500D03*
X29500Y511000D03*
X36500Y496000D03*
X69000Y528500D03*
X29500D03*
Y446500D03*
X54000Y471000D03*
X43000Y446500D03*
X54000D03*
X148000Y375000D03*
X138000Y361000D03*
X143000Y382000D03*
X123500Y412500D03*
Y407000D03*
X116500Y401000D03*
Y395500D03*
X123500Y342000D03*
Y347500D03*
X116500Y336000D03*
X91000Y378500D03*
X81000Y375000D03*
X101000Y382000D03*
X96000Y361000D03*
X91000Y368000D03*
X76500Y371500D03*
X123500Y458500D03*
X116500Y446500D03*
Y471000D03*
X123500Y479000D03*
X130500Y440500D03*
X127500Y521000D03*
X123500D03*
X109500Y514000D03*
X116500Y528500D03*
X155500D03*
G54D26*X101500D03*
G54D25*X134500D03*
X101000Y317000D03*
X76000Y315000D03*
X91000Y313500D03*
X71000Y315000D03*
X116500Y330500D03*
Y299500D03*
X83000Y272500D03*
X71000Y275500D03*
X90000Y285000D03*
X139000Y287000D03*
X123500Y269000D03*
X144500Y282000D03*
X116500Y235000D03*
Y223500D03*
G54D19*X117000Y217000D03*
G54D25*Y206000D03*
X111500D03*
G54D27*G54D28*G54D29*G54D28*G54D27*G54D28*G54D29*G54D30*G54D31*G54D30*G54D27*G54D30*G54D27*G54D30*G54D27*G54D30*G54D27*G54D30*G54D27*G54D30*G54D27*G54D30*G54D27*G54D32*G54D27*G54D32*G54D27*G54D32*G54D27*G54D32*G54D27*G54D32*G54D27*G54D11*G54D33*G54D29*G54D19*G54D27*G54D21*G54D32*G54D21*G54D27*G54D19*G54D33*G54D29*G54D32*G54D11*G54D32*G54D27*G54D32*G54D27*G54D11*G54D27*G54D11*G54D27*G54D32*G54D11*G54D27*G54D32*G54D27*G54D32*G54D11*G54D32*G54D11*G54D34*G54D11*G54D34*G54D11*G54D35*X304500Y577500D02*Y36000D01*
X22500D02*Y577500D01*
X32500Y587500D02*X294500D01*
X82500Y64000D02*Y48500D01*
X32500Y26000D02*X294500D01*
X246000Y85000D02*X257000D01*
X241500Y80500D02*Y69500D01*
X87000Y68500D02*X93500D01*
X98000Y64000D02*Y48500D01*
X87000Y44000D02*X93500D01*
X22500Y36000D02*G75*G03X32500Y26000I10000J0D01*G01*
Y587500D02*G75*G03X22500Y577500I0J-10000D01*G01*
X294500Y587500D02*G75*G02X304500Y577500I0J-10000D01*G01*
X294500Y26000D02*G75*G03X304500Y36000I0J10000D01*G01*
X241500Y80500D02*G75*G02X246000Y85000I4500J0D01*G01*
Y65000D02*G75*G02X241500Y69500I0J4500D01*G01*
X250500D02*G75*G02X246000Y65000I-4500J0D01*G01*
X257000Y85000D02*G75*G02X261500Y80500I0J-4500D01*G01*
G75*G02X257000Y76000I-4500J0D01*G01*
G75*G03X250500Y69500I0J-6500D01*G01*
X93500Y68500D02*G75*G02X98000Y64000I0J-4500D01*G01*
X82500D02*G75*G02X87000Y68500I4500J0D01*G01*
Y44000D02*G75*G02X82500Y48500I0J4500D01*G01*
X98000D02*G75*G02X93500Y44000I-4500J0D01*G01*
M02*
