G04 start of page 7 for group -4063 idx -4063 *
G04 Title: (unknown), componentmask *
G04 Creator: pcb 20091103 *
G04 CreationDate: Sat May  4 15:08:25 2024 UTC *
G04 For: bh *
G04 Format: Gerber/RS-274X *
G04 PCB-Dimensions: 600000 1100000 *
G04 PCB-Coordinate-Origin: lower left *
%MOIN*%
%FSLAX25Y25*%
%LNTOPMASK*%
%ADD11C,0.0200*%
%ADD37C,0.0060*%
%ADD41C,0.1417*%
%ADD42C,0.0610*%
%ADD43C,0.0660*%
%ADD44C,0.0780*%
%ADD45C,0.0580*%
%ADD46C,0.0960*%
%ADD47C,0.1560*%
%ADD48C,0.0860*%
%ADD49C,0.0710*%
G54D41*X453200Y502800D03*
X453100Y591900D03*
G54D42*X425500Y454000D03*
Y484000D03*
Y469000D03*
G54D11*G36*
X422450Y588550D02*Y582450D01*
X428550D01*
Y588550D01*
X422450D01*
G37*
G36*
Y573550D02*Y567450D01*
X428550D01*
Y573550D01*
X422450D01*
G37*
G36*
Y558550D02*Y552450D01*
X428550D01*
Y558550D01*
X422450D01*
G37*
G54D43*X461500Y640500D03*
G54D11*G36*
X417700Y528300D02*Y521700D01*
X424300D01*
Y528300D01*
X417700D01*
G37*
G54D44*X451500Y469000D03*
X441500D03*
G54D43*X318500Y630500D03*
X328500D03*
X358500D03*
G54D11*G36*
X380200Y633800D02*Y627200D01*
X386800D01*
Y633800D01*
X380200D01*
G37*
G54D43*X393500Y630500D03*
X403500D03*
X413500D03*
X423500D03*
X433500D03*
X443500D03*
X338500D03*
X348500D03*
G54D42*Y600500D03*
Y615500D03*
G54D11*G36*
X355450Y618550D02*Y612450D01*
X361550D01*
Y618550D01*
X355450D01*
G37*
G36*
Y603550D02*Y597450D01*
X361550D01*
Y603550D01*
X355450D01*
G37*
G54D42*X408500Y615500D03*
Y600500D03*
X375500Y585500D03*
G54D43*X365000Y570500D03*
Y585500D03*
G54D42*X375500Y570500D03*
G54D11*G36*
X341450Y573550D02*Y567450D01*
X347550D01*
Y573550D01*
X341450D01*
G37*
G36*
X351700Y573800D02*Y567200D01*
X358300D01*
Y573800D01*
X351700D01*
G37*
G36*
Y588800D02*Y582200D01*
X358300D01*
Y588800D01*
X351700D01*
G37*
G36*
X341450Y588550D02*Y582450D01*
X347550D01*
Y588550D01*
X341450D01*
G37*
G54D42*X375500Y555500D03*
G54D11*G36*
X351700Y558800D02*Y552200D01*
X358300D01*
Y558800D01*
X351700D01*
G37*
G54D43*X365000Y555500D03*
G54D11*G36*
X341450Y558550D02*Y552450D01*
X347550D01*
Y558550D01*
X341450D01*
G37*
G36*
X337700Y518300D02*Y511700D01*
X344300D01*
Y518300D01*
X337700D01*
G37*
G54D43*X351000Y515000D03*
X361000D03*
G54D11*G36*
X337700Y528300D02*Y521700D01*
X344300D01*
Y528300D01*
X337700D01*
G37*
G54D43*X351000Y525000D03*
X361000D03*
X371000Y515000D03*
Y525000D03*
X381000D03*
X391000D03*
X381000Y515000D03*
X391000D03*
G54D11*G36*
X135200Y412300D02*Y405700D01*
X141800D01*
Y412300D01*
X135200D01*
G37*
G54D43*X148500Y409000D03*
X158500D03*
X168500D03*
X178500D03*
X188500D03*
X198500D03*
G54D11*G36*
X170450Y367050D02*Y360950D01*
X176550D01*
Y367050D01*
X170450D01*
G37*
G36*
Y352050D02*Y345950D01*
X176550D01*
Y352050D01*
X170450D01*
G37*
G36*
Y397050D02*Y390950D01*
X176550D01*
Y397050D01*
X170450D01*
G37*
G36*
Y382050D02*Y375950D01*
X176550D01*
Y382050D01*
X170450D01*
G37*
G36*
Y337050D02*Y330950D01*
X176550D01*
Y337050D01*
X170450D01*
G37*
G54D42*X223500Y364000D03*
Y349000D03*
Y394000D03*
Y379000D03*
Y334000D03*
G54D11*G36*
X225200Y412300D02*Y405700D01*
X231800D01*
Y412300D01*
X225200D01*
G37*
G54D43*X238500Y409000D03*
G54D11*G36*
X235450Y397050D02*Y390950D01*
X241550D01*
Y397050D01*
X235450D01*
G37*
G54D43*X248500Y409000D03*
X258500D03*
X268500D03*
X278500D03*
X288500D03*
G54D42*Y394000D03*
G54D43*X311000Y525000D03*
Y515000D03*
G54D11*G36*
X185600Y546900D02*Y541100D01*
X191400D01*
Y546900D01*
X185600D01*
G37*
G54D45*X158500Y544000D03*
G54D11*G36*
X185600Y561900D02*Y556100D01*
X191400D01*
Y561900D01*
X185600D01*
G37*
G54D45*X158500Y559000D03*
G54D11*G36*
X185600Y606900D02*Y601100D01*
X191400D01*
Y606900D01*
X185600D01*
G37*
G54D45*X158500Y604000D03*
G54D11*G36*
X185600Y621900D02*Y616100D01*
X191400D01*
Y621900D01*
X185600D01*
G37*
G54D45*X158500Y619000D03*
G54D42*X315500Y469000D03*
Y484000D03*
G54D11*G36*
X270700Y558800D02*Y552200D01*
X277300D01*
Y558800D01*
X270700D01*
G37*
G54D43*X284000Y555500D03*
G54D42*X278500Y484000D03*
X294500Y555500D03*
Y570500D03*
Y585500D03*
G54D11*G36*
X302450Y237550D02*Y231450D01*
X308550D01*
Y237550D01*
X302450D01*
G37*
G54D42*X305500Y274500D03*
G54D11*G36*
X302200Y307300D02*Y300700D01*
X308800D01*
Y307300D01*
X302200D01*
G37*
G54D43*X305500Y294000D03*
G54D11*G36*
X270700Y573800D02*Y567200D01*
X277300D01*
Y573800D01*
X270700D01*
G37*
G36*
X260450Y573550D02*Y567450D01*
X266550D01*
Y573550D01*
X260450D01*
G37*
G36*
Y558550D02*Y552450D01*
X266550D01*
Y558550D01*
X260450D01*
G37*
G54D43*X284000Y570500D03*
G54D11*G36*
X260450Y588550D02*Y582450D01*
X266550D01*
Y588550D01*
X260450D01*
G37*
G36*
X270700Y588800D02*Y582200D01*
X277300D01*
Y588800D01*
X270700D01*
G37*
G54D43*X284000Y585500D03*
X265000Y282000D03*
X275000D03*
X285000D03*
X265500Y304000D03*
G54D11*G36*
X275200Y307300D02*Y300700D01*
X281800D01*
Y307300D01*
X275200D01*
G37*
G54D43*X288500Y304000D03*
G54D11*G36*
X362450Y472050D02*Y465950D01*
X368550D01*
Y472050D01*
X362450D01*
G37*
G36*
X372450D02*Y465950D01*
X378550D01*
Y472050D01*
X372450D01*
G37*
G36*
Y457050D02*Y450950D01*
X378550D01*
Y457050D01*
X372450D01*
G37*
G36*
X322450Y442550D02*Y436450D01*
X328550D01*
Y442550D01*
X322450D01*
G37*
G54D42*X375500Y439500D03*
X344500Y454000D03*
G54D11*G36*
X372450Y487050D02*Y480950D01*
X378550D01*
Y487050D01*
X372450D01*
G37*
G36*
X362450D02*Y480950D01*
X368550D01*
Y487050D01*
X362450D01*
G37*
G36*
X339700Y419300D02*Y409700D01*
X349300D01*
Y419300D01*
X339700D01*
G37*
G36*
X351700Y316300D02*Y307700D01*
X360300D01*
Y316300D01*
X351700D01*
G37*
G54D46*X334500Y414500D03*
G54D47*Y347500D03*
G54D46*X324500Y414500D03*
G54D11*G36*
X438200Y439300D02*Y432700D01*
X444800D01*
Y439300D01*
X438200D01*
G37*
G54D43*X451500Y436000D03*
X461500D03*
G54D44*X441500Y454000D03*
G54D11*G36*
X450700Y422300D02*Y413700D01*
X459300D01*
Y422300D01*
X450700D01*
G37*
G36*
X422450Y442550D02*Y436450D01*
X428550D01*
Y442550D01*
X422450D01*
G37*
G54D43*X421000Y515000D03*
G54D11*G36*
X408200Y419300D02*Y409700D01*
X417800D01*
Y419300D01*
X408200D01*
G37*
G54D46*X403000Y414500D03*
X393000D03*
G54D47*X403000Y347500D03*
G54D42*X385500Y439500D03*
G54D11*G36*
X457600Y457900D02*Y450100D01*
X465400D01*
Y457900D01*
X457600D01*
G37*
G54D44*X451500Y454000D03*
G54D11*G36*
X457600Y472900D02*Y465100D01*
X465400D01*
Y472900D01*
X457600D01*
G37*
G36*
X225450Y487050D02*Y480950D01*
X231550D01*
Y487050D01*
X225450D01*
G37*
G54D42*X288500Y349000D03*
Y379000D03*
Y363500D03*
Y334000D03*
G54D11*G36*
X285450Y237550D02*Y231450D01*
X291550D01*
Y237550D01*
X285450D01*
G37*
G36*
Y252050D02*Y245950D01*
X291550D01*
Y252050D01*
X285450D01*
G37*
G36*
X235450Y352050D02*Y345950D01*
X241550D01*
Y352050D01*
X235450D01*
G37*
G36*
Y382050D02*Y375950D01*
X241550D01*
Y382050D01*
X235450D01*
G37*
G36*
Y366550D02*Y360450D01*
X241550D01*
Y366550D01*
X235450D01*
G37*
G36*
Y337050D02*Y330950D01*
X241550D01*
Y337050D01*
X235450D01*
G37*
G54D42*X238500Y234500D03*
G54D43*X235000Y282000D03*
X245000D03*
X255000D03*
G54D11*G36*
X252200Y307300D02*Y300700D01*
X258800D01*
Y307300D01*
X252200D01*
G37*
G54D41*X453200Y241800D03*
G54D48*X455000Y318000D03*
X436000Y312000D03*
G54D11*G36*
X352700Y247800D02*Y241200D01*
X359300D01*
Y247800D01*
X352700D01*
G37*
G36*
Y274300D02*Y267700D01*
X359300D01*
Y274300D01*
X352700D01*
G37*
G54D43*X356000Y261000D03*
Y234500D03*
G54D11*G36*
X417200Y274300D02*Y267700D01*
X423800D01*
Y274300D01*
X417200D01*
G37*
G54D43*X420500Y261000D03*
X403000Y266000D03*
Y276000D03*
Y286000D03*
G54D11*G36*
X369700Y289300D02*Y282700D01*
X376300D01*
Y289300D01*
X369700D01*
G37*
G54D43*X373000Y276000D03*
Y266000D03*
Y256000D03*
G54D11*G36*
X379700Y242800D02*Y236200D01*
X386300D01*
Y242800D01*
X379700D01*
G37*
G54D43*X393000Y239500D03*
X403000Y256000D03*
X242500Y304000D03*
G54D11*G36*
X235450Y322050D02*Y315950D01*
X241550D01*
Y322050D01*
X235450D01*
G37*
G54D42*X288500Y319000D03*
G54D46*X335000Y301000D03*
Y311000D03*
G54D11*G36*
X106950Y367050D02*Y360950D01*
X113050D01*
Y367050D01*
X106950D01*
G37*
G36*
Y322050D02*Y315950D01*
X113050D01*
Y322050D01*
X106950D01*
G37*
G36*
Y337050D02*Y330950D01*
X113050D01*
Y337050D01*
X106950D01*
G37*
G36*
Y352050D02*Y345950D01*
X113050D01*
Y352050D01*
X106950D01*
G37*
G54D42*X160000Y364000D03*
Y319000D03*
Y394000D03*
Y334000D03*
Y379000D03*
Y349000D03*
G54D11*G36*
X106950Y397050D02*Y390950D01*
X113050D01*
Y397050D01*
X106950D01*
G37*
G36*
Y382050D02*Y375950D01*
X113050D01*
Y382050D01*
X106950D01*
G37*
G36*
X107200Y422300D02*Y415700D01*
X113800D01*
Y422300D01*
X107200D01*
G37*
G54D43*X110500Y409000D03*
G54D11*G36*
X107200Y452300D02*Y445700D01*
X113800D01*
Y452300D01*
X107200D01*
G37*
G54D43*X110500Y439000D03*
G54D41*X120200Y241800D03*
G54D11*G36*
X106950Y307050D02*Y300950D01*
X113050D01*
Y307050D01*
X106950D01*
G37*
G36*
Y292050D02*Y285950D01*
X113050D01*
Y292050D01*
X106950D01*
G37*
G36*
X229200Y307300D02*Y300700D01*
X235800D01*
Y307300D01*
X229200D01*
G37*
G36*
X221700Y285300D02*Y278700D01*
X228300D01*
Y285300D01*
X221700D01*
G37*
G36*
X206200Y307300D02*Y300700D01*
X212800D01*
Y307300D01*
X206200D01*
G37*
G36*
X170200Y302300D02*Y295700D01*
X176800D01*
Y302300D01*
X170200D01*
G37*
G54D43*X193500Y299000D03*
X219500Y304000D03*
G54D11*G36*
X170450Y322050D02*Y315950D01*
X176550D01*
Y322050D01*
X170450D01*
G37*
G54D42*X223500Y319000D03*
X160000Y304000D03*
Y289000D03*
G54D11*G36*
X170200Y272300D02*Y265700D01*
X176800D01*
Y272300D01*
X170200D01*
G37*
G54D43*X193500Y269000D03*
G54D42*X173500Y234000D03*
Y249000D03*
G54D11*G36*
X330200Y295800D02*Y286200D01*
X339800D01*
Y295800D01*
X330200D01*
G37*
G36*
Y248300D02*Y238700D01*
X339800D01*
Y248300D01*
X330200D01*
G37*
G54D46*X335000Y253500D03*
Y263500D03*
G54D42*X238500Y249000D03*
G54D43*X235000Y272000D03*
X245000D03*
G54D11*G36*
X220450Y237050D02*Y230950D01*
X226550D01*
Y237050D01*
X220450D01*
G37*
G36*
Y252050D02*Y245950D01*
X226550D01*
Y252050D01*
X220450D01*
G37*
G36*
X221700Y275300D02*Y268700D01*
X228300D01*
Y275300D01*
X221700D01*
G37*
G54D43*X255000Y272000D03*
X265000D03*
X275000D03*
X285000D03*
G54D41*X120200Y591900D03*
G54D11*G36*
X210200Y622300D02*Y615700D01*
X216800D01*
Y622300D01*
X210200D01*
G37*
G54D42*X213500Y585500D03*
Y570500D03*
Y555500D03*
G54D43*X118500Y638000D03*
G54D11*G36*
X185600Y531900D02*Y526100D01*
X191400D01*
Y531900D01*
X185600D01*
G37*
G36*
Y591900D02*Y586100D01*
X191400D01*
Y591900D01*
X185600D01*
G37*
G36*
Y576900D02*Y571100D01*
X191400D01*
Y576900D01*
X185600D01*
G37*
G54D41*X120200Y502800D03*
G54D43*X223500Y619000D03*
X233500D03*
X243500D03*
X253500D03*
X263500D03*
X273500D03*
G54D11*G36*
X295200Y633800D02*Y627200D01*
X301800D01*
Y633800D01*
X295200D01*
G37*
G54D43*X308500Y630500D03*
G54D11*G36*
X295450Y603550D02*Y597450D01*
X301550D01*
Y603550D01*
X295450D01*
G37*
G36*
Y618550D02*Y612450D01*
X301550D01*
Y618550D01*
X295450D01*
G37*
G36*
X185600Y516900D02*Y511100D01*
X191400D01*
Y516900D01*
X185600D01*
G37*
G54D45*X158500Y514000D03*
Y529000D03*
Y589000D03*
Y574000D03*
G54D11*G36*
X155450Y472050D02*Y465950D01*
X161550D01*
Y472050D01*
X155450D01*
G37*
G36*
X150950Y457050D02*Y450950D01*
X157050D01*
Y457050D01*
X150950D01*
G37*
G54D42*X158500Y484000D03*
Y499000D03*
X208500Y469000D03*
X204000Y454000D03*
G54D11*G36*
X205450Y487050D02*Y480950D01*
X211550D01*
Y487050D01*
X205450D01*
G37*
G54D43*X288500Y439000D03*
X278500D03*
X268500D03*
X258500D03*
X248500D03*
X238500D03*
X228500D03*
G54D11*G36*
X275450Y472050D02*Y465950D01*
X281550D01*
Y472050D01*
X275450D01*
G37*
G36*
Y457050D02*Y450950D01*
X281550D01*
Y457050D01*
X275450D01*
G37*
G54D42*X228500Y469000D03*
Y454000D03*
G54D11*G36*
X301450Y457050D02*Y450950D01*
X307550D01*
Y457050D01*
X301450D01*
G37*
G54D43*X158500Y439000D03*
X148500D03*
X138500D03*
X198500D03*
X188500D03*
X178500D03*
X168500D03*
G54D11*G36*
X121700Y442300D02*Y435700D01*
X128300D01*
Y442300D01*
X121700D01*
G37*
G54D43*X125000Y449000D03*
G54D11*G36*
X205450Y502050D02*Y495950D01*
X211550D01*
Y502050D01*
X205450D01*
G37*
G36*
X237700Y528300D02*Y521700D01*
X244300D01*
Y528300D01*
X237700D01*
G37*
G36*
Y518300D02*Y511700D01*
X244300D01*
Y518300D01*
X237700D01*
G37*
G54D43*X251000Y525000D03*
X261000D03*
X271000D03*
X281000D03*
X291000D03*
X301000D03*
Y515000D03*
X251000D03*
X261000D03*
X271000D03*
X281000D03*
X291000D03*
G54D42*X415000Y858000D03*
G54D41*X453200Y852900D03*
G54D11*G36*
X427450Y818050D02*Y810950D01*
X434550D01*
Y818050D01*
X427450D01*
G37*
G54D49*X441000Y814500D03*
G54D11*G36*
X458200Y805300D02*Y798700D01*
X464800D01*
Y805300D01*
X458200D01*
G37*
G54D43*X461500Y792000D03*
G54D42*X397000Y858000D03*
G54D11*G36*
X127450Y818050D02*Y810950D01*
X134550D01*
Y818050D01*
X127450D01*
G37*
G54D49*X141000Y814500D03*
G54D11*G36*
X187450Y818050D02*Y810950D01*
X194550D01*
Y818050D01*
X187450D01*
G37*
G54D49*X201000Y814500D03*
G54D11*G36*
X171950Y811050D02*Y804950D01*
X178050D01*
Y811050D01*
X171950D01*
G37*
G36*
X153950D02*Y804950D01*
X160050D01*
Y811050D01*
X153950D01*
G37*
G36*
X187450Y858050D02*Y850950D01*
X194550D01*
Y858050D01*
X187450D01*
G37*
G54D49*X201000Y854500D03*
G54D42*X175000Y858000D03*
X157000D03*
G54D41*X120200Y852900D03*
G54D11*G36*
X213950Y811050D02*Y804950D01*
X220050D01*
Y811050D01*
X213950D01*
G37*
G54D42*X217000Y858000D03*
G54D11*G36*
X107200Y805300D02*Y798700D01*
X113800D01*
Y805300D01*
X107200D01*
G37*
G54D43*X110500Y792000D03*
G54D11*G36*
X247450Y818050D02*Y810950D01*
X254550D01*
Y818050D01*
X247450D01*
G37*
G36*
X231950Y811050D02*Y804950D01*
X238050D01*
Y811050D01*
X231950D01*
G37*
G54D49*X261000Y814500D03*
G54D11*G36*
X291950Y811050D02*Y804950D01*
X298050D01*
Y811050D01*
X291950D01*
G37*
G36*
X273950D02*Y804950D01*
X280050D01*
Y811050D01*
X273950D01*
G37*
G36*
X307450Y858050D02*Y850950D01*
X314550D01*
Y858050D01*
X307450D01*
G37*
G54D49*X321000Y854500D03*
G54D42*X295000Y858000D03*
G54D11*G36*
X247450Y858050D02*Y850950D01*
X254550D01*
Y858050D01*
X247450D01*
G37*
G54D49*X261000Y854500D03*
G54D42*X277000Y858000D03*
X235000D03*
G54D11*G36*
X307450Y818050D02*Y810950D01*
X314550D01*
Y818050D01*
X307450D01*
G37*
G54D49*X321000Y814500D03*
G54D11*G36*
X367450Y858050D02*Y850950D01*
X374550D01*
Y858050D01*
X367450D01*
G37*
G54D49*X381000Y854500D03*
G54D11*G36*
X411950Y811050D02*Y804950D01*
X418050D01*
Y811050D01*
X411950D01*
G37*
G36*
X367450Y818050D02*Y810950D01*
X374550D01*
Y818050D01*
X367450D01*
G37*
G54D49*X381000Y814500D03*
G54D11*G36*
X393950Y811050D02*Y804950D01*
X400050D01*
Y811050D01*
X393950D01*
G37*
G36*
X351950D02*Y804950D01*
X358050D01*
Y811050D01*
X351950D01*
G37*
G54D42*X355000Y858000D03*
G54D11*G36*
X333950Y811050D02*Y804950D01*
X340050D01*
Y811050D01*
X333950D01*
G37*
G54D42*X337000Y858000D03*
G54D11*G36*
X125200Y726300D02*Y719700D01*
X131800D01*
Y726300D01*
X125200D01*
G37*
G54D43*X138500Y723000D03*
X148500D03*
X158500D03*
X168500D03*
X178500D03*
X188500D03*
X178500Y753000D03*
X168500D03*
X158500D03*
X148500D03*
X138500D03*
X128500D03*
G54D11*G36*
X107200Y746300D02*Y739700D01*
X113800D01*
Y746300D01*
X107200D01*
G37*
G54D43*X110500Y733000D03*
X188500Y753000D03*
X223500D03*
X213500D03*
G54D11*G36*
X210200Y726300D02*Y719700D01*
X216800D01*
Y726300D01*
X210200D01*
G37*
G54D43*X223500Y723000D03*
X233500D03*
X243500D03*
Y753000D03*
X233500D03*
X243500Y697500D03*
X233500D03*
X188500D03*
X223500D03*
X213500D03*
G54D11*G36*
X125200Y670800D02*Y664200D01*
X131800D01*
Y670800D01*
X125200D01*
G37*
G54D43*X138500Y667500D03*
X148500D03*
X158500D03*
X168500D03*
X178500D03*
X188500D03*
G54D11*G36*
X210200Y670800D02*Y664200D01*
X216800D01*
Y670800D01*
X210200D01*
G37*
G36*
X195200Y641300D02*Y634700D01*
X201800D01*
Y641300D01*
X195200D01*
G37*
G54D43*X188500Y638000D03*
X178500D03*
X168500D03*
X158500D03*
X148500D03*
X138500D03*
X128500D03*
X178500Y697500D03*
X168500D03*
X158500D03*
X148500D03*
X138500D03*
X128500D03*
G54D11*G36*
X107200Y690800D02*Y684200D01*
X113800D01*
Y690800D01*
X107200D01*
G37*
G54D43*X110500Y677500D03*
X253500Y723000D03*
Y753000D03*
X263500Y723000D03*
Y753000D03*
X273500Y723000D03*
Y753000D03*
Y697500D03*
Y649000D03*
X263500Y697500D03*
Y649000D03*
X253500Y697500D03*
Y649000D03*
X243500D03*
X233500D03*
X223500D03*
X213500D03*
G54D11*G36*
X295200Y726300D02*Y719700D01*
X301800D01*
Y726300D01*
X295200D01*
G37*
G54D43*X308500Y723000D03*
X318500D03*
X328500D03*
X338500D03*
Y753000D03*
X328500D03*
X318500D03*
X308500D03*
X298500D03*
X348500Y723000D03*
X358500D03*
Y753000D03*
X348500D03*
G54D11*G36*
X337950Y701550D02*Y694450D01*
X345050D01*
Y701550D01*
X337950D01*
G37*
G54D42*X364500Y708500D03*
G54D11*G36*
X361450Y696550D02*Y690450D01*
X367550D01*
Y696550D01*
X361450D01*
G37*
G54D49*X351500Y698000D03*
G54D11*G36*
X307450Y701550D02*Y694450D01*
X314550D01*
Y701550D01*
X307450D01*
G37*
G54D49*X321000Y698000D03*
G54D11*G36*
X380200Y726300D02*Y719700D01*
X386800D01*
Y726300D01*
X380200D01*
G37*
G54D43*X393500Y723000D03*
X403500D03*
X413500Y753000D03*
X403500D03*
X393500D03*
X383500D03*
X413500Y723000D03*
G54D11*G36*
X411450Y711550D02*Y705450D01*
X417550D01*
Y711550D01*
X411450D01*
G37*
G54D42*X414500Y693500D03*
G54D43*X223500Y667500D03*
X233500D03*
X243500D03*
X253500D03*
X263500D03*
X273500D03*
X318500Y660500D03*
X308500D03*
X298500D03*
X358500D03*
X348500D03*
X338500D03*
X328500D03*
X443500D03*
X433500D03*
X423500D03*
X413500D03*
G54D11*G36*
X458200Y653800D02*Y647200D01*
X464800D01*
Y653800D01*
X458200D01*
G37*
G54D43*X403500Y660500D03*
X393500D03*
X383500D03*
X423500Y723000D03*
X433500D03*
X443500D03*
G54D11*G36*
X427450Y701550D02*Y694450D01*
X434550D01*
Y701550D01*
X427450D01*
G37*
G54D49*X441000Y698000D03*
G54D43*X443500Y753000D03*
X433500D03*
X423500D03*
G54D11*G36*
X458200Y746300D02*Y739700D01*
X464800D01*
Y746300D01*
X458200D01*
G37*
G54D43*X461500Y733000D03*
G54D37*X480500Y873000D02*Y572000D01*
X459500Y569500D02*X478000D01*
X92500Y873000D02*Y572000D01*
X122000Y884000D02*X451000D01*
X119500Y563500D02*Y531500D01*
X95000Y569500D02*X113500D01*
X95000Y875500D02*X113500D01*
X453500Y563500D02*Y531500D01*
X459500Y875500D02*X478000D01*
X95000Y525400D02*X113500D01*
X95000Y219500D02*X113500D01*
X459500Y525400D02*X478000D01*
X480500Y523000D02*Y222000D01*
X122000Y211000D02*X451000D01*
X459500Y219500D02*X478000D01*
X92500Y523000D02*Y222000D01*
X480500Y572000D02*G75*G02X478000Y569500I-2500J0D01*G01*
Y525400D02*G75*G02X480500Y522900I0J-2500D01*G01*
X453500Y563500D02*G75*G02X459500Y569500I6000J0D01*G01*
Y525400D02*G75*G02X453500Y531400I0J6000D01*G01*
X119500Y881500D02*G75*G02X122000Y884000I2500J0D01*G01*
X92500Y873000D02*G75*G02X95000Y875500I2500J0D01*G01*
X113500Y569500D02*G75*G02X119500Y563500I0J-6000D01*G01*
Y881500D02*G75*G02X113500Y875500I-6000J0D01*G01*
X95000Y569500D02*G75*G02X92500Y572000I0J2500D01*G01*
X119500Y531400D02*G75*G02X113500Y525400I-6000J0D01*G01*
X451000Y884000D02*G75*G02X453500Y881500I0J-2500D01*G01*
X478000Y875500D02*G75*G02X480500Y873000I0J-2500D01*G01*
X459500Y875500D02*G75*G02X453500Y881500I0J6000D01*G01*
X92500Y522900D02*G75*G02X95000Y525400I2500J0D01*G01*
X122000Y211000D02*G75*G02X119500Y213500I0J2500D01*G01*
X95100Y219500D02*G75*G02X92600Y222000I0J2500D01*G01*
X113500Y219500D02*G75*G02X119500Y213500I0J-6000D01*G01*
X453500D02*G75*G02X451000Y211000I-2500J0D01*G01*
X480500Y222000D02*G75*G02X478000Y219500I-2500J0D01*G01*
X453500Y213500D02*G75*G02X459500Y219500I6000J0D01*G01*
M02*
