G04 start of page 12 for group -4078 idx -4078 *
G04 Title: (unknown), bottomsilk *
G04 Creator: pcb 20091103 *
G04 CreationDate: Fri May 24 10:38:18 2024 UTC *
G04 For: bh *
G04 Format: Gerber/RS-274X *
G04 PCB-Dimensions: 600000 1100000 *
G04 PCB-Coordinate-Origin: lower left *
%MOIN*%
%FSLAX25Y25*%
%LNBOTTOMSILK*%
%ADD37C,0.0060*%
G54D37*X161500Y619000D02*X185500D01*
X161500Y604000D02*X185500D01*
X161500Y589000D02*X185500D01*
X161500Y574000D02*X185500D01*
X161500Y559000D02*X185500D01*
X161500Y544000D02*X185500D01*
X161500Y529000D02*X185500D01*
X161500Y514000D02*X185500D01*
X130000Y439000D02*X132500D01*
X131500Y436000D02*X130000Y434500D01*
X132500Y439000D02*Y449000D01*
X131500Y427500D02*Y436000D01*
X133000Y434500D01*
X132500Y449000D02*X130000D01*
X135500Y632000D02*X131500Y644500D01*
Y632000D02*X135500Y644500D01*
X125500Y632000D02*X121500Y644500D01*
Y632000D02*X125500Y644500D01*
X155500Y632000D02*X151500Y644500D01*
Y632000D02*X155500Y644500D01*
X145500Y632000D02*X141500Y644500D01*
Y632000D02*X145500Y644500D01*
X185500Y632000D02*X181500Y644500D01*
Y632000D02*X185500Y644500D01*
X175500Y632000D02*X171500Y644500D01*
Y632000D02*X175500Y644500D01*
X165500Y632000D02*X161500Y644500D01*
Y632000D02*X165500Y644500D01*
X334900Y327200D02*G75*G03X354900Y347200I0J20000D01*G01*
G75*G03X334400Y367700I-20500J0D01*G01*
X334399D02*G75*G03X314400Y347701I0J-19999D01*G01*
G75*G03X334901Y327200I20501J0D01*G01*
X403400D02*G75*G03X423400Y347200I0J20000D01*G01*
G75*G03X402900Y367700I-20500J0D01*G01*
X402899D02*G75*G03X382900Y347701I0J-19999D01*G01*
G75*G03X403401Y327200I20501J0D01*G01*
X132000Y624220D02*Y629100D01*
Y624220D02*Y624830D01*
X135050Y627880D01*
Y624220D02*Y629100D01*
X136515Y624830D02*Y628490D01*
Y624830D02*X137125Y624220D01*
X138345D01*
X138955Y624830D01*
Y628490D01*
X138345Y629100D02*X138955Y628490D01*
X137125Y629100D02*X138345D01*
X136515Y628490D02*X137125Y629100D01*
X142616Y624220D02*Y629100D01*
Y624220D02*Y624830D01*
X145666Y627880D01*
Y624220D02*Y629100D01*
X147741D02*X149571D01*
X147131Y628490D02*X147741Y629100D01*
X147131Y627270D02*Y628490D01*
Y627270D02*X147741Y626660D01*
X148961D01*
X149571Y627270D01*
X147131Y627880D02*X149571D01*
Y627270D02*Y627880D01*
X152866Y626660D02*X153476Y627270D01*
X151646Y626660D02*X152866D01*
X151036Y627270D02*X151646Y626660D01*
X151036Y627270D02*Y628490D01*
X151646Y629100D01*
X152866D01*
X153476Y628490D01*
X151036Y630320D02*X151646Y630930D01*
X152866D01*
X153476Y630320D01*
Y626660D02*Y630320D01*
X154942Y629100D02*X155552D01*
X161653Y624220D02*X162263Y624830D01*
X159823Y624220D02*X161653D01*
X159213Y624830D02*X159823Y624220D01*
X159213Y624830D02*Y626050D01*
X159823Y626660D01*
X161653D01*
X162263Y627270D01*
Y628490D01*
X161653Y629100D02*X162263Y628490D01*
X159823Y629100D02*X161653D01*
X159213Y628490D02*X159823Y629100D01*
X163728Y626660D02*Y628490D01*
X164338Y629100D01*
X165558D01*
X166168Y628490D01*
Y626660D02*Y628490D01*
X168243Y627270D02*Y630930D01*
X167633Y626660D02*X168243Y627270D01*
X168853Y626660D01*
X170073D01*
X170683Y627270D01*
Y628490D01*
X170073Y629100D02*X170683Y628490D01*
X168853Y629100D02*X170073D01*
X168243Y628490D02*X168853Y629100D01*
X172758Y627270D02*Y630930D01*
X172148Y626660D02*X172758Y627270D01*
X173368Y626660D01*
X174588D01*
X175198Y627270D01*
Y628490D01*
X174588Y629100D02*X175198Y628490D01*
X173368Y629100D02*X174588D01*
X172758Y628490D02*X173368Y629100D01*
X176664Y624220D02*Y628490D01*
X177274Y629100D01*
X178495Y626660D02*Y628490D01*
X179105Y629100D01*
X180935Y626660D02*Y630320D01*
X180325Y630930D02*X180935Y630320D01*
X179105Y630930D02*X180325D01*
X178495Y630320D02*X179105Y630930D01*
Y629100D02*X180325D01*
X180935Y628490D01*
X147720Y616500D02*X152600D01*
X147720D02*X148330D01*
X151380Y613450D01*
X147720D02*X152600D01*
X148330Y611985D02*X151990D01*
X148330D02*X147720Y611375D01*
Y610155D02*Y611375D01*
Y610155D02*X148330Y609545D01*
X151990D01*
X152600Y610155D02*X151990Y609545D01*
X152600Y610155D02*Y611375D01*
X151990Y611985D02*X152600Y611375D01*
X147720Y605884D02*X152600D01*
X147720D02*X148330D01*
X151380Y602834D01*
X147720D02*X152600D01*
Y598929D02*Y600759D01*
X151990Y601369D02*X152600Y600759D01*
X150770Y601369D02*X151990D01*
X150770D02*X150160Y600759D01*
Y599539D02*Y600759D01*
Y599539D02*X150770Y598929D01*
X151380D02*Y601369D01*
X150770Y598929D02*X151380D01*
X150160Y595634D02*X150770Y595024D01*
X150160Y595634D02*Y596854D01*
X150770Y597464D02*X150160Y596854D01*
X150770Y597464D02*X151990D01*
X152600Y596854D01*
Y595634D02*Y596854D01*
Y595634D02*X151990Y595024D01*
X153820Y597464D02*X154430Y596854D01*
Y595634D02*Y596854D01*
Y595634D02*X153820Y595024D01*
X150160D02*X153820D01*
X150160Y591728D02*X150770Y591118D01*
X150160Y591728D02*Y592948D01*
X150770Y593558D02*X150160Y592948D01*
X150770Y593558D02*X151990D01*
X152600Y592948D01*
X150160Y591118D02*X151990D01*
X152600Y590508D01*
Y591728D02*Y592948D01*
Y591728D02*X151990Y591118D01*
X147720Y588433D02*X151990D01*
X152600Y587823D01*
X149550D02*Y589043D01*
X148940Y586602D02*X149550D01*
X150770D02*X152600D01*
X150160Y585381D02*X151380D01*
X152600Y584161D01*
X151380Y582941D01*
X150160D02*X151380D01*
X152600Y579036D02*Y580866D01*
X151990Y581476D02*X152600Y580866D01*
X150770Y581476D02*X151990D01*
X150770D02*X150160Y580866D01*
Y579646D02*Y580866D01*
Y579646D02*X150770Y579036D01*
X151380D02*Y581476D01*
X150770Y579036D02*X151380D01*
X147720Y572934D02*X148330Y572324D01*
X147720Y572934D02*Y574764D01*
X148330Y575374D02*X147720Y574764D01*
X148330Y575374D02*X149550D01*
X150160Y574764D01*
Y572934D02*Y574764D01*
Y572934D02*X150770Y572324D01*
X151990D01*
X152600Y572934D02*X151990Y572324D01*
X152600Y572934D02*Y574764D01*
X151990Y575374D02*X152600Y574764D01*
X150160Y570859D02*X151990D01*
X152600Y570249D01*
Y569029D02*Y570249D01*
Y569029D02*X151990Y568419D01*
X150160D02*X151990D01*
X150770Y566344D02*X154430D01*
X150160Y566954D02*X150770Y566344D01*
X150160Y565734D01*
Y564514D02*Y565734D01*
Y564514D02*X150770Y563904D01*
X151990D01*
X152600Y564514D02*X151990Y563904D01*
X152600Y564514D02*Y565734D01*
X151990Y566344D02*X152600Y565734D01*
X150770Y561829D02*X154430D01*
X150160Y562439D02*X150770Y561829D01*
X150160Y561219D01*
Y559999D02*Y561219D01*
Y559999D02*X150770Y559389D01*
X151990D01*
X152600Y559999D02*X151990Y559389D01*
X152600Y559999D02*Y561219D01*
X151990Y561829D02*X152600Y561219D01*
X147720Y557923D02*X151990D01*
X152600Y557313D01*
X150160Y556092D02*X151990D01*
X152600Y555482D01*
X150160Y553652D02*X153820D01*
X154430Y554262D02*X153820Y553652D01*
X154430Y554262D02*Y555482D01*
X153820Y556092D02*X154430Y555482D01*
X152600Y554262D02*Y555482D01*
Y554262D02*X151990Y553652D01*
X126720Y425500D02*X131600D01*
X126720D02*X127330D01*
X130380Y422450D01*
X126720D02*X131600D01*
X127330Y420985D02*X130990D01*
X127330D02*X126720Y420375D01*
Y419155D02*Y420375D01*
Y419155D02*X127330Y418545D01*
X130990D01*
X131600Y419155D02*X130990Y418545D01*
X131600Y419155D02*Y420375D01*
X130990Y420985D02*X131600Y420375D01*
X126720Y414884D02*X131600D01*
X126720D02*X127330D01*
X130380Y411834D01*
X126720D02*X131600D01*
Y407929D02*Y409759D01*
X130990Y410369D02*X131600Y409759D01*
X129770Y410369D02*X130990D01*
X129770D02*X129160Y409759D01*
Y408539D02*Y409759D01*
Y408539D02*X129770Y407929D01*
X130380D02*Y410369D01*
X129770Y407929D02*X130380D01*
X129160Y404634D02*X129770Y404024D01*
X129160Y404634D02*Y405854D01*
X129770Y406464D02*X129160Y405854D01*
X129770Y406464D02*X130990D01*
X131600Y405854D01*
Y404634D02*Y405854D01*
Y404634D02*X130990Y404024D01*
X132820Y406464D02*X133430Y405854D01*
Y404634D02*Y405854D01*
Y404634D02*X132820Y404024D01*
X129160D02*X132820D01*
X129160Y400728D02*X129770Y400118D01*
X129160Y400728D02*Y401948D01*
X129770Y402558D02*X129160Y401948D01*
X129770Y402558D02*X130990D01*
X131600Y401948D01*
X129160Y400118D02*X130990D01*
X131600Y399508D01*
Y400728D02*Y401948D01*
Y400728D02*X130990Y400118D01*
X126720Y397433D02*X130990D01*
X131600Y396823D01*
X128550D02*Y398043D01*
X127940Y395602D02*X128550D01*
X129770D02*X131600D01*
X129160Y394381D02*X130380D01*
X131600Y393161D01*
X130380Y391941D01*
X129160D02*X130380D01*
X131600Y388036D02*Y389866D01*
X130990Y390476D02*X131600Y389866D01*
X129770Y390476D02*X130990D01*
X129770D02*X129160Y389866D01*
Y388646D02*Y389866D01*
Y388646D02*X129770Y388036D01*
X130380D02*Y390476D01*
X129770Y388036D02*X130380D01*
X126720Y381934D02*X127330Y381324D01*
X126720Y381934D02*Y383764D01*
X127330Y384374D02*X126720Y383764D01*
X127330Y384374D02*X128550D01*
X129160Y383764D01*
Y381934D02*Y383764D01*
Y381934D02*X129770Y381324D01*
X130990D01*
X131600Y381934D02*X130990Y381324D01*
X131600Y381934D02*Y383764D01*
X130990Y384374D02*X131600Y383764D01*
X129160Y379859D02*X130990D01*
X131600Y379249D01*
Y378029D02*Y379249D01*
Y378029D02*X130990Y377419D01*
X129160D02*X130990D01*
X129770Y375344D02*X133430D01*
X129160Y375954D02*X129770Y375344D01*
X129160Y374734D01*
Y373514D02*Y374734D01*
Y373514D02*X129770Y372904D01*
X130990D01*
X131600Y373514D02*X130990Y372904D01*
X131600Y373514D02*Y374734D01*
X130990Y375344D02*X131600Y374734D01*
X129770Y370829D02*X133430D01*
X129160Y371439D02*X129770Y370829D01*
X129160Y370219D01*
Y368999D02*Y370219D01*
Y368999D02*X129770Y368389D01*
X130990D01*
X131600Y368999D02*X130990Y368389D01*
X131600Y368999D02*Y370219D01*
X130990Y370829D02*X131600Y370219D01*
X126720Y366923D02*X130990D01*
X131600Y366313D01*
X129160Y365092D02*X130990D01*
X131600Y364482D01*
X129160Y362652D02*X132820D01*
X133430Y363262D02*X132820Y362652D01*
X133430Y363262D02*Y364482D01*
X132820Y365092D02*X133430Y364482D01*
X131600Y363262D02*Y364482D01*
Y363262D02*X130990Y362652D01*
X480500Y873000D02*Y572000D01*
X459500Y569500D02*X478000D01*
X92500Y873000D02*Y572000D01*
X122000Y884000D02*X451000D01*
X119500Y563500D02*Y531500D01*
X95000Y569500D02*X113500D01*
X95000Y875500D02*X113500D01*
X453500Y563500D02*Y531500D01*
X459500Y875500D02*X478000D01*
X95000Y525400D02*X113500D01*
X95000Y219500D02*X113500D01*
X459500Y525400D02*X478000D01*
X480500Y523000D02*Y222000D01*
X122000Y211000D02*X451000D01*
X459500Y219500D02*X478000D01*
X92500Y523000D02*Y222000D01*
X480500Y572000D02*G75*G02X478000Y569500I-2500J0D01*G01*
Y525400D02*G75*G02X480500Y522900I0J-2500D01*G01*
X453500Y563500D02*G75*G02X459500Y569500I6000J0D01*G01*
Y525400D02*G75*G02X453500Y531400I0J6000D01*G01*
X119500Y881500D02*G75*G02X122000Y884000I2500J0D01*G01*
X92500Y873000D02*G75*G02X95000Y875500I2500J0D01*G01*
X113500Y569500D02*G75*G02X119500Y563500I0J-6000D01*G01*
Y881500D02*G75*G02X113500Y875500I-6000J0D01*G01*
X95000Y569500D02*G75*G02X92500Y572000I0J2500D01*G01*
X119500Y531400D02*G75*G02X113500Y525400I-6000J0D01*G01*
X451000Y884000D02*G75*G02X453500Y881500I0J-2500D01*G01*
X478000Y875500D02*G75*G02X480500Y873000I0J-2500D01*G01*
X459500Y875500D02*G75*G02X453500Y881500I0J6000D01*G01*
X92500Y522900D02*G75*G02X95000Y525400I2500J0D01*G01*
X122000Y211000D02*G75*G02X119500Y213500I0J2500D01*G01*
X95100Y219500D02*G75*G02X92600Y222000I0J2500D01*G01*
X113500Y219500D02*G75*G02X119500Y213500I0J-6000D01*G01*
X453500D02*G75*G02X451000Y211000I-2500J0D01*G01*
X480500Y222000D02*G75*G02X478000Y219500I-2500J0D01*G01*
X453500Y213500D02*G75*G02X459500Y219500I6000J0D01*G01*
M02*
