G04 start of page 5 for group 11 idx 11 *
G04 Title: (unknown), fab_notes *
G04 Creator: pcb 20091103 *
G04 CreationDate: Sat May  4 15:08:25 2024 UTC *
G04 For: bh *
G04 Format: Gerber/RS-274X *
G04 PCB-Dimensions: 600000 1100000 *
G04 PCB-Coordinate-Origin: lower left *
%MOIN*%
%FSLAX25Y25*%
%LNGROUP11*%
%ADD11C,0.0200*%
%ADD14C,0.0250*%
%ADD16C,0.0550*%
%ADD17C,0.0600*%
%ADD18C,0.0720*%
%ADD19C,0.0520*%
%ADD20C,0.0900*%
%ADD21C,0.1500*%
%ADD22C,0.0800*%
%ADD23C,0.0650*%
%ADD24C,0.0360*%
%ADD25C,0.0240*%
%ADD26C,0.1299*%
%ADD27C,0.0300*%
%ADD28C,0.0380*%
%ADD29C,0.0420*%
%ADD30C,0.0280*%
%ADD31C,0.0220*%
%ADD32C,0.0500*%
%ADD33C,0.1300*%
%ADD34C,0.0430*%
%ADD35C,0.0350*%
%ADD36C,0.0118*%
%ADD37C,0.0060*%
%ADD40C,0.0102*%
G54D37*X112500Y854500D02*X21000D01*
X125000Y884000D02*X21000D01*
X25500Y854500D02*Y884000D01*
X65500D02*Y698000D01*
X92500Y875700D02*Y1058500D01*
X45500Y884000D02*Y814500D01*
X136000Y830000D02*Y940000D01*
Y934000D02*X92500D01*
X106000Y994000D02*X118500D01*
X459500Y875500D02*Y901000D01*
X436000Y747000D02*Y727500D01*
X412000Y814500D02*X400500D01*
X436000Y762000D02*Y759000D01*
X421000Y814500D02*X418000D01*
X436000Y798500D02*Y769500D01*
X548000Y569500D02*Y875500D01*
X459500Y895000D02*X480500D01*
X376000Y870000D02*Y1040000D01*
X480500Y901000D02*Y874500D01*
X394000Y814500D02*X391000D01*
X346500Y791000D02*Y1020000D01*
Y781500D02*Y772000D01*
Y766000D02*Y759500D01*
Y748500D02*Y727500D01*
Y717000D02*Y713000D01*
X436000Y830000D02*Y1060000D01*
X526500Y589100D02*X529500Y595100D01*
X526500D02*X529500Y589100D01*
X444000Y583000D02*X464000Y603000D01*
X460500Y592000D02*X532500D01*
X256000Y870000D02*Y981500D01*
X196000Y961500D02*Y870000D01*
X316000D02*Y1000000D01*
X92500Y954000D02*X195900D01*
X256000Y974000D02*X92500D01*
X316000Y994000D02*X92500D01*
X346500Y1014000D02*X92500D01*
X376000Y1034000D02*X92500D01*
Y1054000D02*X436000D01*
X383000Y698000D02*X420500D01*
X436000Y716500D02*Y713000D01*
X334000Y854500D02*X331000D01*
X361000D02*X358000D01*
X352000D02*X340500D01*
X274000D02*X271000D01*
X301000D02*X298000D01*
X292000D02*X280500D01*
X274000Y814500D02*X271000D01*
X316000Y799000D02*Y759500D01*
Y748000D02*Y727500D01*
Y717000D02*Y716000D01*
X378000Y698000D02*X361500D01*
X122500D02*X61500D01*
X284000D02*X294000D01*
X207000D02*X194500D01*
X120500Y814500D02*X41000D01*
X154000D02*X151000D01*
X181000D02*X178000D01*
X172000D02*X160500D01*
X154000Y854500D02*X130500D01*
X214000D02*X211000D01*
X181000D02*X178000D01*
X172000D02*X160500D01*
X241000D02*X238000D01*
X232000D02*X220500D01*
X376000Y839000D02*Y830000D01*
X316000Y839000D02*Y830000D01*
X256000Y839000D02*Y830000D01*
X196000Y839000D02*Y830000D01*
X214000Y814500D02*X211000D01*
X241000D02*X238000D01*
X232000D02*X220500D01*
X301000D02*X298000D01*
X292000D02*X280500D01*
X334000D02*X331000D01*
X361000D02*X358000D01*
X352000D02*X340500D01*
X568000Y211000D02*Y884000D01*
X526500Y245000D02*X529500Y239000D01*
X453500Y211000D02*X572500D01*
X460500Y241900D02*X532500Y242000D01*
X528000D02*Y211000D01*
X480500Y219400D02*X552500Y219500D01*
X526500Y239000D02*X529500Y245000D01*
X480500Y569500D02*X552500D01*
X479500Y525400D02*X552000Y525500D01*
X464000Y603000D02*X584500D01*
X461000Y502900D02*X532500Y503000D01*
X461000Y853000D02*X532500D01*
X526500Y856100D02*X529500Y850100D01*
X526500D02*X529500Y856100D01*
X528000Y853000D02*Y884000D01*
X479500Y875500D02*X552500D01*
X458000Y884000D02*X572500D01*
X528000Y502900D02*Y241900D01*
X548000Y525400D02*Y219400D01*
X528000Y853000D02*Y503000D01*
X526500Y500000D02*X529500Y506000D01*
X526500D02*X529500Y500000D01*
X119500Y124500D02*X453500D01*
X92500Y105000D02*X480500D01*
X120000Y144500D02*X453200D01*
X120200Y231000D02*Y140000D01*
X453500Y211500D02*Y120000D01*
X480500Y218000D02*Y100000D01*
X453200Y234100D02*Y140000D01*
X119500Y210500D02*Y120500D01*
X92500Y217500D02*Y100000D01*
G54D40*X95000Y1065690D02*X96270Y1066960D01*
X100080D01*
X101350Y1065690D01*
Y1063150D01*
X95000Y1056800D02*X101350Y1063150D01*
X95000Y1056800D02*X101350D01*
X104400D02*X105670D01*
X108721Y1065690D02*X109991Y1066960D01*
X113801D01*
X115071Y1065690D01*
Y1063150D01*
X108721Y1056800D02*X115071Y1063150D01*
X108721Y1056800D02*X115071D01*
X118121Y1065690D02*X119391Y1066960D01*
X121931D01*
X123201Y1065690D01*
Y1058070D01*
X121931Y1056800D02*X123201Y1058070D01*
X119391Y1056800D02*X121931D01*
X118121Y1058070D02*X119391Y1056800D01*
Y1061880D02*X123201D01*
X126252Y1066960D02*X131332D01*
X126252D02*Y1061880D01*
X127522Y1063150D01*
X130062D01*
X131332Y1061880D01*
Y1058070D01*
X130062Y1056800D02*X131332Y1058070D01*
X127522Y1056800D02*X130062D01*
X126252Y1058070D02*X127522Y1056800D01*
X134382Y1064420D02*Y1063150D01*
Y1060610D02*Y1056800D01*
X138195Y1060610D02*Y1056800D01*
Y1060610D02*X139465Y1061880D01*
X140735D01*
X142005Y1060610D01*
Y1056800D01*
X136925Y1061880D02*X138195Y1060610D01*
X149627Y1066960D02*X154707D01*
X149627D02*Y1061880D01*
X150897Y1063150D01*
X153437D01*
X154707Y1061880D01*
Y1058070D01*
X153437Y1056800D02*X154707Y1058070D01*
X150897Y1056800D02*X153437D01*
X149627Y1058070D02*X150897Y1056800D01*
X161568Y1066960D02*X162838Y1065690D01*
X159028Y1066960D02*X161568D01*
X157758Y1065690D02*X159028Y1066960D01*
X157758Y1065690D02*Y1058070D01*
X159028Y1056800D01*
X161568Y1061880D02*X162838Y1060610D01*
X157758Y1061880D02*X161568D01*
X159028Y1056800D02*X161568D01*
X162838Y1058070D01*
Y1060610D02*Y1058070D01*
X165888Y1056800D02*X167158D01*
X170209D02*X176559Y1063150D01*
Y1066960D02*Y1063150D01*
X170209Y1066960D02*X176559D01*
X183419D02*X184689Y1065690D01*
X180879Y1066960D02*X183419D01*
X179609Y1065690D02*X180879Y1066960D01*
X179609Y1065690D02*Y1058070D01*
X180879Y1056800D01*
X183419Y1061880D02*X184689Y1060610D01*
X179609Y1061880D02*X183419D01*
X180879Y1056800D02*X183419D01*
X184689Y1058070D01*
Y1060610D02*Y1058070D01*
X187740Y1056800D02*X192820Y1061880D01*
Y1065690D02*Y1061880D01*
X191550Y1066960D02*X192820Y1065690D01*
X189010Y1066960D02*X191550D01*
X187740Y1065690D02*X189010Y1066960D01*
X187740Y1065690D02*Y1063150D01*
X189010Y1061880D01*
X192820D01*
X197141Y1060610D02*Y1056800D01*
Y1060610D02*X198411Y1061880D01*
X199681D01*
X200951Y1060610D01*
Y1056800D01*
Y1060610D02*X202221Y1061880D01*
X203491D01*
X204761Y1060610D01*
Y1056800D01*
X195871Y1061880D02*X197141Y1060610D01*
X209081D02*Y1056800D01*
Y1060610D02*X210351Y1061880D01*
X211621D01*
X212891Y1060610D01*
Y1056800D01*
Y1060610D02*X214161Y1061880D01*
X215431D01*
X216701Y1060610D01*
Y1056800D01*
X207811Y1061880D02*X209081Y1060610D01*
X95000Y1025690D02*X96270Y1026960D01*
X100080D01*
X101350Y1025690D01*
Y1023150D01*
X95000Y1016800D02*X101350Y1023150D01*
X95000Y1016800D02*X101350D01*
X104400D02*X105670D01*
X108721Y1026960D02*X113801D01*
X108721D02*Y1021880D01*
X109991Y1023150D01*
X112531D01*
X113801Y1021880D01*
Y1018070D01*
X112531Y1016800D02*X113801Y1018070D01*
X109991Y1016800D02*X112531D01*
X108721Y1018070D02*X109991Y1016800D01*
X116851Y1021880D02*X121931Y1026960D01*
X116851Y1021880D02*X123201D01*
X121931Y1026960D02*Y1016800D01*
X126252Y1018070D02*X127522Y1016800D01*
X126252Y1025690D02*Y1018070D01*
Y1025690D02*X127522Y1026960D01*
X130062D01*
X131332Y1025690D01*
Y1018070D01*
X130062Y1016800D02*X131332Y1018070D01*
X127522Y1016800D02*X130062D01*
X126252Y1019340D02*X131332Y1024420D01*
X134382D02*Y1023150D01*
Y1020610D02*Y1016800D01*
X138195Y1020610D02*Y1016800D01*
Y1020610D02*X139465Y1021880D01*
X140735D01*
X142005Y1020610D01*
Y1016800D01*
X136925Y1021880D02*X138195Y1020610D01*
X153437Y1026960D02*X154707Y1025690D01*
X150897Y1026960D02*X153437D01*
X149627Y1025690D02*X150897Y1026960D01*
X149627Y1025690D02*Y1018070D01*
X150897Y1016800D01*
X153437Y1021880D02*X154707Y1020610D01*
X149627Y1021880D02*X153437D01*
X150897Y1016800D02*X153437D01*
X154707Y1018070D01*
Y1020610D02*Y1018070D01*
X157758Y1021880D02*X162838Y1026960D01*
X157758Y1021880D02*X164108D01*
X162838Y1026960D02*Y1016800D01*
X167158Y1026960D02*X172238D01*
X167158D02*Y1021880D01*
X168428Y1023150D01*
X170968D01*
X172238Y1021880D01*
Y1018070D01*
X170968Y1016800D02*X172238Y1018070D01*
X168428Y1016800D02*X170968D01*
X167158Y1018070D02*X168428Y1016800D01*
X176559D02*X179099D01*
X177829Y1026960D02*Y1016800D01*
X175289Y1024420D02*X177829Y1026960D01*
X185959D02*X187229Y1025690D01*
X183419Y1026960D02*X185959D01*
X182149Y1025690D02*X183419Y1026960D01*
X182149Y1025690D02*Y1018070D01*
X183419Y1016800D01*
X185959Y1021880D02*X187229Y1020610D01*
X182149Y1021880D02*X185959D01*
X183419Y1016800D02*X185959D01*
X187229Y1018070D01*
Y1020610D02*Y1018070D01*
X191550Y1020610D02*Y1016800D01*
Y1020610D02*X192820Y1021880D01*
X194090D01*
X195360Y1020610D01*
Y1016800D01*
Y1020610D02*X196630Y1021880D01*
X197900D01*
X199170Y1020610D01*
Y1016800D01*
X190280Y1021880D02*X191550Y1020610D01*
X203491D02*Y1016800D01*
Y1020610D02*X204761Y1021880D01*
X206031D01*
X207301Y1020610D01*
Y1016800D01*
Y1020610D02*X208571Y1021880D01*
X209841D01*
X211111Y1020610D01*
Y1016800D01*
X202221Y1021880D02*X203491Y1020610D01*
X96270Y956800D02*X98810D01*
X97540Y966960D02*Y956800D01*
X95000Y964420D02*X97540Y966960D01*
X101860Y956800D02*X103130D01*
X106181Y958070D02*X107451Y956800D01*
X106181Y965690D02*Y958070D01*
Y965690D02*X107451Y966960D01*
X109991D01*
X111261Y965690D01*
Y958070D01*
X109991Y956800D02*X111261Y958070D01*
X107451Y956800D02*X109991D01*
X106181Y959340D02*X111261Y964420D01*
X114311Y965690D02*X115581Y966960D01*
X118121D01*
X119391Y965690D01*
Y958070D01*
X118121Y956800D02*X119391Y958070D01*
X115581Y956800D02*X118121D01*
X114311Y958070D02*X115581Y956800D01*
Y961880D02*X119391D01*
X122442Y966960D02*X127522D01*
X122442D02*Y961880D01*
X123712Y963150D01*
X126252D01*
X127522Y961880D01*
Y958070D01*
X126252Y956800D02*X127522Y958070D01*
X123712Y956800D02*X126252D01*
X122442Y958070D02*X123712Y956800D01*
X130572Y964420D02*Y963150D01*
Y960610D02*Y956800D01*
X134385Y960610D02*Y956800D01*
Y960610D02*X135655Y961880D01*
X136925D01*
X138195Y960610D01*
Y956800D01*
X133115Y961880D02*X134385Y960610D01*
X145817Y965690D02*X147087Y966960D01*
X150897D01*
X152167Y965690D01*
Y963150D01*
X145817Y956800D02*X152167Y963150D01*
X145817Y956800D02*X152167D01*
X159028Y966960D02*X160298Y965690D01*
X156488Y966960D02*X159028D01*
X155218Y965690D02*X156488Y966960D01*
X155218Y965690D02*Y958070D01*
X156488Y956800D01*
X159028Y961880D02*X160298Y960610D01*
X155218Y961880D02*X159028D01*
X156488Y956800D02*X159028D01*
X160298Y958070D01*
Y960610D02*Y958070D01*
X163348Y956800D02*X164618D01*
X167669Y965690D02*X168939Y966960D01*
X172749D01*
X174019Y965690D01*
Y963150D01*
X167669Y956800D02*X174019Y963150D01*
X167669Y956800D02*X174019D01*
X177069Y958070D02*X178339Y956800D01*
X177069Y960610D02*Y958070D01*
Y960610D02*X178339Y961880D01*
X180879D01*
X182149Y960610D01*
Y958070D01*
X180879Y956800D02*X182149Y958070D01*
X178339Y956800D02*X180879D01*
X177069Y963150D02*X178339Y961880D01*
X177069Y965690D02*Y963150D01*
Y965690D02*X178339Y966960D01*
X180879D01*
X182149Y965690D01*
Y963150D01*
X180879Y961880D02*X182149Y963150D01*
X185200Y956800D02*X190280Y961880D01*
Y965690D02*Y961880D01*
X189010Y966960D02*X190280Y965690D01*
X186470Y966960D02*X189010D01*
X185200Y965690D02*X186470Y966960D01*
X185200Y965690D02*Y963150D01*
X186470Y961880D01*
X190280D01*
X194601Y960610D02*Y956800D01*
Y960610D02*X195871Y961880D01*
X197141D01*
X198411Y960610D01*
Y956800D01*
Y960610D02*X199681Y961880D01*
X200951D01*
X202221Y960610D01*
Y956800D01*
X193331Y961880D02*X194601Y960610D01*
X206541D02*Y956800D01*
Y960610D02*X207811Y961880D01*
X209081D01*
X210351Y960610D01*
Y956800D01*
Y960610D02*X211621Y961880D01*
X212891D01*
X214161Y960610D01*
Y956800D01*
X205271Y961880D02*X206541Y960610D01*
X95000Y938070D02*X96270Y936800D01*
X95000Y945690D02*Y938070D01*
Y945690D02*X96270Y946960D01*
X98810D01*
X100080Y945690D01*
Y938070D01*
X98810Y936800D02*X100080Y938070D01*
X96270Y936800D02*X98810D01*
X95000Y939340D02*X100080Y944420D01*
X103130Y936800D02*X104400D01*
X107451Y938070D02*X108721Y936800D01*
X107451Y940610D02*Y938070D01*
Y940610D02*X108721Y941880D01*
X111261D01*
X112531Y940610D01*
Y938070D01*
X111261Y936800D02*X112531Y938070D01*
X108721Y936800D02*X111261D01*
X107451Y943150D02*X108721Y941880D01*
X107451Y945690D02*Y943150D01*
Y945690D02*X108721Y946960D01*
X111261D01*
X112531Y945690D01*
Y943150D01*
X111261Y941880D02*X112531Y943150D01*
X115581Y945690D02*X116851Y946960D01*
X119391D01*
X120661Y945690D01*
Y938070D01*
X119391Y936800D02*X120661Y938070D01*
X116851Y936800D02*X119391D01*
X115581Y938070D02*X116851Y936800D01*
Y941880D02*X120661D01*
X123712Y946960D02*X128792D01*
X123712D02*Y941880D01*
X124982Y943150D01*
X127522D01*
X128792Y941880D01*
Y938070D01*
X127522Y936800D02*X128792Y938070D01*
X124982Y936800D02*X127522D01*
X123712Y938070D02*X124982Y936800D01*
X131842Y944420D02*Y943150D01*
Y940610D02*Y936800D01*
X135655Y940610D02*Y936800D01*
Y940610D02*X136925Y941880D01*
X138195D01*
X139465Y940610D01*
Y936800D01*
X134385Y941880D02*X135655Y940610D01*
X147087Y941880D02*X152167Y946960D01*
X147087Y941880D02*X153437D01*
X152167Y946960D02*Y936800D01*
X156488D02*X157758D01*
X160808Y946960D02*X165888D01*
X160808D02*Y941880D01*
X162078Y943150D01*
X164618D01*
X165888Y941880D01*
Y938070D01*
X164618Y936800D02*X165888Y938070D01*
X162078Y936800D02*X164618D01*
X160808Y938070D02*X162078Y936800D01*
X168939Y938070D02*X170209Y936800D01*
X168939Y945690D02*Y938070D01*
Y945690D02*X170209Y946960D01*
X172749D01*
X174019Y945690D01*
Y938070D01*
X172749Y936800D02*X174019Y938070D01*
X170209Y936800D02*X172749D01*
X168939Y939340D02*X174019Y944420D01*
X177069Y936800D02*X182149Y941880D01*
Y945690D02*Y941880D01*
X180879Y946960D02*X182149Y945690D01*
X178339Y946960D02*X180879D01*
X177069Y945690D02*X178339Y946960D01*
X177069Y945690D02*Y943150D01*
X178339Y941880D01*
X182149D01*
X186470Y940610D02*Y936800D01*
Y940610D02*X187740Y941880D01*
X189010D01*
X190280Y940610D01*
Y936800D01*
Y940610D02*X191550Y941880D01*
X192820D01*
X194090Y940610D01*
Y936800D01*
X185200Y941880D02*X186470Y940610D01*
X198411D02*Y936800D01*
Y940610D02*X199681Y941880D01*
X200951D01*
X202221Y940610D01*
Y936800D01*
Y940610D02*X203491Y941880D01*
X204761D01*
X206031Y940610D01*
Y936800D01*
X197141Y941880D02*X198411Y940610D01*
X96270Y996800D02*X98810D01*
X97540Y1006960D02*Y996800D01*
X95000Y1004420D02*X97540Y1006960D01*
X101860Y996800D02*X103130D01*
X106181Y998070D02*X107451Y996800D01*
X106181Y1000610D02*Y998070D01*
Y1000610D02*X107451Y1001880D01*
X109991D01*
X111261Y1000610D01*
Y998070D01*
X109991Y996800D02*X111261Y998070D01*
X107451Y996800D02*X109991D01*
X106181Y1003150D02*X107451Y1001880D01*
X106181Y1005690D02*Y1003150D01*
Y1005690D02*X107451Y1006960D01*
X109991D01*
X111261Y1005690D01*
Y1003150D01*
X109991Y1001880D02*X111261Y1003150D01*
X114311Y1005690D02*X115581Y1006960D01*
X118121D01*
X119391Y1005690D01*
Y998070D01*
X118121Y996800D02*X119391Y998070D01*
X115581Y996800D02*X118121D01*
X114311Y998070D02*X115581Y996800D01*
Y1001880D02*X119391D01*
X122442Y1006960D02*X127522D01*
X122442D02*Y1001880D01*
X123712Y1003150D01*
X126252D01*
X127522Y1001880D01*
Y998070D01*
X126252Y996800D02*X127522Y998070D01*
X123712Y996800D02*X126252D01*
X122442Y998070D02*X123712Y996800D01*
X130572Y1004420D02*Y1003150D01*
Y1000610D02*Y996800D01*
X134385Y1000610D02*Y996800D01*
Y1000610D02*X135655Y1001880D01*
X136925D01*
X138195Y1000610D01*
Y996800D01*
X133115Y1001880D02*X134385Y1000610D01*
X145817Y1001880D02*X150897Y1006960D01*
X145817Y1001880D02*X152167D01*
X150897Y1006960D02*Y996800D01*
X159028Y1006960D02*X160298Y1005690D01*
X156488Y1006960D02*X159028D01*
X155218Y1005690D02*X156488Y1006960D01*
X155218Y1005690D02*Y998070D01*
X156488Y996800D01*
X159028Y1001880D02*X160298Y1000610D01*
X155218Y1001880D02*X159028D01*
X156488Y996800D02*X159028D01*
X160298Y998070D01*
Y1000610D02*Y998070D01*
X163348Y996800D02*X164618D01*
X171479Y1006960D02*X172749Y1005690D01*
X168939Y1006960D02*X171479D01*
X167669Y1005690D02*X168939Y1006960D01*
X167669Y1005690D02*Y998070D01*
X168939Y996800D01*
X171479Y1001880D02*X172749Y1000610D01*
X167669Y1001880D02*X171479D01*
X168939Y996800D02*X171479D01*
X172749Y998070D01*
Y1000610D02*Y998070D01*
X175799D02*X177069Y996800D01*
X175799Y1005690D02*Y998070D01*
Y1005690D02*X177069Y1006960D01*
X179609D01*
X180879Y1005690D01*
Y998070D01*
X179609Y996800D02*X180879Y998070D01*
X177069Y996800D02*X179609D01*
X175799Y999340D02*X180879Y1004420D01*
X183930Y996800D02*X189010Y1001880D01*
Y1005690D02*Y1001880D01*
X187740Y1006960D02*X189010Y1005690D01*
X185200Y1006960D02*X187740D01*
X183930Y1005690D02*X185200Y1006960D01*
X183930Y1005690D02*Y1003150D01*
X185200Y1001880D01*
X189010D01*
X193331Y1000610D02*Y996800D01*
Y1000610D02*X194601Y1001880D01*
X195871D01*
X197141Y1000610D01*
Y996800D01*
Y1000610D02*X198411Y1001880D01*
X199681D01*
X200951Y1000610D01*
Y996800D01*
X192061Y1001880D02*X193331Y1000610D01*
X205271D02*Y996800D01*
Y1000610D02*X206541Y1001880D01*
X207811D01*
X209081Y1000610D01*
Y996800D01*
Y1000610D02*X210351Y1001880D01*
X211621D01*
X212891Y1000610D01*
Y996800D01*
X204001Y1001880D02*X205271Y1000610D01*
X96270Y976800D02*X98810D01*
X97540Y986960D02*Y976800D01*
X95000Y984420D02*X97540Y986960D01*
X101860Y976800D02*X103130D01*
X106181Y981880D02*X111261Y986960D01*
X106181Y981880D02*X112531D01*
X111261Y986960D02*Y976800D01*
X115581Y985690D02*X116851Y986960D01*
X119391D01*
X120661Y985690D01*
Y978070D01*
X119391Y976800D02*X120661Y978070D01*
X116851Y976800D02*X119391D01*
X115581Y978070D02*X116851Y976800D01*
Y981880D02*X120661D01*
X123712Y986960D02*X128792D01*
X123712D02*Y981880D01*
X124982Y983150D01*
X127522D01*
X128792Y981880D01*
Y978070D01*
X127522Y976800D02*X128792Y978070D01*
X124982Y976800D02*X127522D01*
X123712Y978070D02*X124982Y976800D01*
X131842Y984420D02*Y983150D01*
Y980610D02*Y976800D01*
X135655Y980610D02*Y976800D01*
Y980610D02*X136925Y981880D01*
X138195D01*
X139465Y980610D01*
Y976800D01*
X134385Y981880D02*X135655Y980610D01*
X147087Y985690D02*X148357Y986960D01*
X150897D01*
X152167Y985690D01*
Y978070D01*
X150897Y976800D02*X152167Y978070D01*
X148357Y976800D02*X150897D01*
X147087Y978070D02*X148357Y976800D01*
Y981880D02*X152167D01*
X159028Y986960D02*X160298Y985690D01*
X156488Y986960D02*X159028D01*
X155218Y985690D02*X156488Y986960D01*
X155218Y985690D02*Y978070D01*
X156488Y976800D01*
X159028Y981880D02*X160298Y980610D01*
X155218Y981880D02*X159028D01*
X156488Y976800D02*X159028D01*
X160298Y978070D01*
Y980610D02*Y978070D01*
X163348Y976800D02*X164618D01*
X167669Y981880D02*X172749Y986960D01*
X167669Y981880D02*X174019D01*
X172749Y986960D02*Y976800D01*
X177069Y981880D02*X182149Y986960D01*
X177069Y981880D02*X183419D01*
X182149Y986960D02*Y976800D01*
X186470D02*X191550Y981880D01*
Y985690D02*Y981880D01*
X190280Y986960D02*X191550Y985690D01*
X187740Y986960D02*X190280D01*
X186470Y985690D02*X187740Y986960D01*
X186470Y985690D02*Y983150D01*
X187740Y981880D01*
X191550D01*
X195871Y980610D02*Y976800D01*
Y980610D02*X197141Y981880D01*
X198411D01*
X199681Y980610D01*
Y976800D01*
Y980610D02*X200951Y981880D01*
X202221D01*
X203491Y980610D01*
Y976800D01*
X194601Y981880D02*X195871Y980610D01*
X207811D02*Y976800D01*
Y980610D02*X209081Y981880D01*
X210351D01*
X211621Y980610D01*
Y976800D01*
Y980610D02*X212891Y981880D01*
X214161D01*
X215431Y980610D01*
Y976800D01*
X206541Y981880D02*X207811Y980610D01*
X94500Y1045690D02*X95770Y1046960D01*
X99580D01*
X100850Y1045690D01*
Y1043150D01*
X94500Y1036800D02*X100850Y1043150D01*
X94500Y1036800D02*X100850D01*
X103900D02*X105170D01*
X108221Y1038070D02*X109491Y1036800D01*
X108221Y1045690D02*Y1038070D01*
Y1045690D02*X109491Y1046960D01*
X112031D01*
X113301Y1045690D01*
Y1038070D01*
X112031Y1036800D02*X113301Y1038070D01*
X109491Y1036800D02*X112031D01*
X108221Y1039340D02*X113301Y1044420D01*
X116351Y1045690D02*X117621Y1046960D01*
X120161D01*
X121431Y1045690D01*
Y1038070D01*
X120161Y1036800D02*X121431Y1038070D01*
X117621Y1036800D02*X120161D01*
X116351Y1038070D02*X117621Y1036800D01*
Y1041880D02*X121431D01*
X124482Y1046960D02*X129562D01*
X124482D02*Y1041880D01*
X125752Y1043150D01*
X128292D01*
X129562Y1041880D01*
Y1038070D01*
X128292Y1036800D02*X129562Y1038070D01*
X125752Y1036800D02*X128292D01*
X124482Y1038070D02*X125752Y1036800D01*
X132612Y1044420D02*Y1043150D01*
Y1040610D02*Y1036800D01*
X136425Y1040610D02*Y1036800D01*
Y1040610D02*X137695Y1041880D01*
X138965D01*
X140235Y1040610D01*
Y1036800D01*
X135155Y1041880D02*X136425Y1040610D01*
X147857Y1046960D02*X152937D01*
X147857D02*Y1041880D01*
X149127Y1043150D01*
X151667D01*
X152937Y1041880D01*
Y1038070D01*
X151667Y1036800D02*X152937Y1038070D01*
X149127Y1036800D02*X151667D01*
X147857Y1038070D02*X149127Y1036800D01*
X157258D02*X159798D01*
X158528Y1046960D02*Y1036800D01*
X155988Y1044420D02*X158528Y1046960D01*
X162848Y1036800D02*X164118D01*
X170979Y1046960D02*X172249Y1045690D01*
X168439Y1046960D02*X170979D01*
X167169Y1045690D02*X168439Y1046960D01*
X167169Y1045690D02*Y1038070D01*
X168439Y1036800D01*
X170979Y1041880D02*X172249Y1040610D01*
X167169Y1041880D02*X170979D01*
X168439Y1036800D02*X170979D01*
X172249Y1038070D01*
Y1040610D02*Y1038070D01*
X175299D02*X176569Y1036800D01*
X175299Y1040610D02*Y1038070D01*
Y1040610D02*X176569Y1041880D01*
X179109D01*
X180379Y1040610D01*
Y1038070D01*
X179109Y1036800D02*X180379Y1038070D01*
X176569Y1036800D02*X179109D01*
X175299Y1043150D02*X176569Y1041880D01*
X175299Y1045690D02*Y1043150D01*
Y1045690D02*X176569Y1046960D01*
X179109D01*
X180379Y1045690D01*
Y1043150D01*
X179109Y1041880D02*X180379Y1043150D01*
X183430Y1036800D02*X188510Y1041880D01*
Y1045690D02*Y1041880D01*
X187240Y1046960D02*X188510Y1045690D01*
X184700Y1046960D02*X187240D01*
X183430Y1045690D02*X184700Y1046960D01*
X183430Y1045690D02*Y1043150D01*
X184700Y1041880D01*
X188510D01*
X192831Y1040610D02*Y1036800D01*
Y1040610D02*X194101Y1041880D01*
X195371D01*
X196641Y1040610D01*
Y1036800D01*
Y1040610D02*X197911Y1041880D01*
X199181D01*
X200451Y1040610D01*
Y1036800D01*
X191561Y1041880D02*X192831Y1040610D01*
X204771D02*Y1036800D01*
Y1040610D02*X206041Y1041880D01*
X207311D01*
X208581Y1040610D01*
Y1036800D01*
Y1040610D02*X209851Y1041880D01*
X211121D01*
X212391Y1040610D01*
Y1036800D01*
X203501Y1041880D02*X204771Y1040610D01*
X536310Y671500D02*X535040Y672770D01*
Y675310D02*Y672770D01*
Y675310D02*X536310Y676580D01*
X543930D01*
X545200Y675310D02*X543930Y676580D01*
X545200Y675310D02*Y672770D01*
X543930Y671500D02*X545200Y672770D01*
X540120Y676580D02*Y672770D01*
X545200Y680900D02*Y679630D01*
X543930Y683951D02*X545200Y685221D01*
X536310Y683951D02*X543930D01*
X536310D02*X535040Y685221D01*
Y687761D02*Y685221D01*
Y687761D02*X536310Y689031D01*
X543930D01*
X545200Y687761D02*X543930Y689031D01*
X545200Y687761D02*Y685221D01*
X542660Y683951D02*X537580Y689031D01*
X535040Y695891D02*X536310Y697161D01*
X535040Y695891D02*Y693351D01*
X536310Y692081D02*X535040Y693351D01*
X536310Y692081D02*X543930D01*
X545200Y693351D01*
X540120Y695891D02*X541390Y697161D01*
X540120Y695891D02*Y692081D01*
X545200Y695891D02*Y693351D01*
Y695891D02*X543930Y697161D01*
X541390D02*X543930D01*
Y700212D02*X545200Y701482D01*
X536310Y700212D02*X543930D01*
X536310D02*X535040Y701482D01*
Y704022D02*Y701482D01*
Y704022D02*X536310Y705292D01*
X543930D01*
X545200Y704022D02*X543930Y705292D01*
X545200Y704022D02*Y701482D01*
X542660Y700212D02*X537580Y705292D01*
Y708342D02*X538850D01*
X541390D02*X545200D01*
X541390Y712155D02*X545200D01*
X541390D02*X540120Y713425D01*
Y714695D02*Y713425D01*
Y714695D02*X541390Y715965D01*
X545200D01*
X540120Y710885D02*X541390Y712155D01*
X545200Y723587D02*X538850Y729937D01*
X535040D02*X538850D01*
X535040D02*Y723587D01*
X545200Y732988D02*X538850Y739338D01*
X535040D02*X538850D01*
X535040D02*Y732988D01*
X545200Y743658D02*Y742388D01*
Y746709D02*X538850Y753059D01*
X535040D02*X538850D01*
X535040D02*Y746709D01*
X536310Y756109D02*X535040Y757379D01*
Y761189D02*Y757379D01*
Y761189D02*X536310Y762459D01*
X538850D01*
X545200Y756109D02*X538850Y762459D01*
X545200D02*Y756109D01*
X540120Y765510D02*X535040Y770590D01*
X540120Y771860D02*Y765510D01*
X535040Y770590D02*X545200D01*
X541390Y776181D02*X545200D01*
X541390D02*X540120Y777451D01*
Y778721D02*Y777451D01*
Y778721D02*X541390Y779991D01*
X545200D01*
X541390D02*X540120Y781261D01*
Y782531D02*Y781261D01*
Y782531D02*X541390Y783801D01*
X545200D01*
X540120Y774911D02*X541390Y776181D01*
Y788121D02*X545200D01*
X541390D02*X540120Y789391D01*
Y790661D02*Y789391D01*
Y790661D02*X541390Y791931D01*
X545200D01*
X541390D02*X540120Y793201D01*
Y794471D02*Y793201D01*
Y794471D02*X541390Y795741D01*
X545200D01*
X540120Y786851D02*X541390Y788121D01*
X37430Y783500D02*X38700Y784770D01*
X29810Y783500D02*X37430D01*
X29810D02*X28540Y784770D01*
Y787310D02*Y784770D01*
Y787310D02*X29810Y788580D01*
X37430D01*
X38700Y787310D02*X37430Y788580D01*
X38700Y787310D02*Y784770D01*
X36160Y783500D02*X31080Y788580D01*
X38700Y792900D02*Y791630D01*
X28540Y799761D02*X29810Y801031D01*
X28540Y799761D02*Y797221D01*
X29810Y795951D02*X28540Y797221D01*
X29810Y795951D02*X37430D01*
X38700Y797221D01*
X33620Y799761D02*X34890Y801031D01*
X33620Y799761D02*Y795951D01*
X38700Y799761D02*Y797221D01*
Y799761D02*X37430Y801031D01*
X34890D02*X37430D01*
X38700Y804081D02*X33620Y809161D01*
X29810D02*X33620D01*
X28540Y807891D02*X29810Y809161D01*
X28540Y807891D02*Y805351D01*
X29810Y804081D02*X28540Y805351D01*
X29810Y804081D02*X32350D01*
X33620Y805351D01*
Y809161D02*Y805351D01*
X28540Y817292D02*Y812212D01*
X33620D01*
X32350Y813482D01*
Y816022D02*Y813482D01*
Y816022D02*X33620Y817292D01*
X37430D01*
X38700Y816022D02*X37430Y817292D01*
X38700Y816022D02*Y813482D01*
X37430Y812212D02*X38700Y813482D01*
X31080Y820342D02*X32350D01*
X34890D02*X38700D01*
X34890Y824155D02*X38700D01*
X34890D02*X33620Y825425D01*
Y826695D02*Y825425D01*
Y826695D02*X34890Y827965D01*
X38700D01*
X33620Y822885D02*X34890Y824155D01*
X38700Y839397D02*Y836857D01*
X28540Y838127D02*X38700D01*
X31080Y835587D02*X28540Y838127D01*
X38700Y842448D02*X32350Y848798D01*
X28540D02*X32350D01*
X28540D02*Y842448D01*
X38700Y853118D02*Y851848D01*
X28540Y859979D02*X29810Y861249D01*
X28540Y859979D02*Y857439D01*
X29810Y856169D02*X28540Y857439D01*
X29810Y856169D02*X37430D01*
X38700Y857439D01*
X33620Y859979D02*X34890Y861249D01*
X33620Y859979D02*Y856169D01*
X38700Y859979D02*Y857439D01*
Y859979D02*X37430Y861249D01*
X34890D02*X37430D01*
X28540Y869379D02*Y864299D01*
X33620D01*
X32350Y865569D01*
Y868109D02*Y865569D01*
Y868109D02*X33620Y869379D01*
X37430D01*
X38700Y868109D02*X37430Y869379D01*
X38700Y868109D02*Y865569D01*
X37430Y864299D02*X38700Y865569D01*
X29810Y872430D02*X28540Y873700D01*
Y876240D02*Y873700D01*
Y876240D02*X29810Y877510D01*
X37430D01*
X38700Y876240D02*X37430Y877510D01*
X38700Y876240D02*Y873700D01*
X37430Y872430D02*X38700Y873700D01*
X33620Y877510D02*Y873700D01*
X34890Y881831D02*X38700D01*
X34890D02*X33620Y883101D01*
Y884371D02*Y883101D01*
Y884371D02*X34890Y885641D01*
X38700D01*
X34890D02*X33620Y886911D01*
Y888181D02*Y886911D01*
Y888181D02*X34890Y889451D01*
X38700D01*
X33620Y880561D02*X34890Y881831D01*
Y893771D02*X38700D01*
X34890D02*X33620Y895041D01*
Y896311D02*Y895041D01*
Y896311D02*X34890Y897581D01*
X38700D01*
X34890D02*X33620Y898851D01*
Y900121D02*Y898851D01*
Y900121D02*X34890Y901391D01*
X38700D01*
X33620Y892501D02*X34890Y893771D01*
X20930Y820500D02*X22200Y821770D01*
X13310Y820500D02*X20930D01*
X13310D02*X12040Y821770D01*
Y824310D02*Y821770D01*
Y824310D02*X13310Y825580D01*
X20930D01*
X22200Y824310D02*X20930Y825580D01*
X22200Y824310D02*Y821770D01*
X19660Y820500D02*X14580Y825580D01*
X22200Y829900D02*Y828630D01*
X13310Y832951D02*X12040Y834221D01*
Y838031D02*Y834221D01*
Y838031D02*X13310Y839301D01*
X15850D01*
X22200Y832951D02*X15850Y839301D01*
X22200D02*Y832951D01*
Y842351D02*X17120Y847431D01*
X13310D02*X17120D01*
X12040Y846161D02*X13310Y847431D01*
X12040Y846161D02*Y843621D01*
X13310Y842351D02*X12040Y843621D01*
X13310Y842351D02*X15850D01*
X17120Y843621D01*
Y847431D02*Y843621D01*
X12040Y855562D02*Y850482D01*
X17120D01*
X15850Y851752D01*
Y854292D02*Y851752D01*
Y854292D02*X17120Y855562D01*
X20930D01*
X22200Y854292D02*X20930Y855562D01*
X22200Y854292D02*Y851752D01*
X20930Y850482D02*X22200Y851752D01*
X14580Y858612D02*X15850D01*
X18390D02*X22200D01*
X18390Y862425D02*X22200D01*
X18390D02*X17120Y863695D01*
Y864965D02*Y863695D01*
Y864965D02*X18390Y866235D01*
X22200D01*
X17120Y861155D02*X18390Y862425D01*
X22200Y873857D02*X15850Y880207D01*
X12040D02*X15850D01*
X12040D02*Y873857D01*
X22200Y884528D02*Y883258D01*
X17120Y887578D02*X12040Y892658D01*
X17120Y893928D02*Y887578D01*
X12040Y892658D02*X22200D01*
Y896979D02*X17120Y902059D01*
X13310D02*X17120D01*
X12040Y900789D02*X13310Y902059D01*
X12040Y900789D02*Y898249D01*
X13310Y896979D02*X12040Y898249D01*
X13310Y896979D02*X15850D01*
X17120Y898249D01*
Y902059D02*Y898249D01*
X13310Y905109D02*X12040Y906379D01*
Y908919D02*Y906379D01*
Y908919D02*X13310Y910189D01*
X20930D01*
X22200Y908919D02*X20930Y910189D01*
X22200Y908919D02*Y906379D01*
X20930Y905109D02*X22200Y906379D01*
X17120Y910189D02*Y906379D01*
X18390Y914510D02*X22200D01*
X18390D02*X17120Y915780D01*
Y917050D02*Y915780D01*
Y917050D02*X18390Y918320D01*
X22200D01*
X18390D02*X17120Y919590D01*
Y920860D02*Y919590D01*
Y920860D02*X18390Y922130D01*
X22200D01*
X17120Y913240D02*X18390Y914510D01*
Y926451D02*X22200D01*
X18390D02*X17120Y927721D01*
Y928991D02*Y927721D01*
Y928991D02*X18390Y930261D01*
X22200D01*
X18390D02*X17120Y931531D01*
Y932801D02*Y931531D01*
Y932801D02*X18390Y934071D01*
X22200D01*
X17120Y925181D02*X18390Y926451D01*
X516310Y674000D02*X515040Y675270D01*
Y679080D02*Y675270D01*
Y679080D02*X516310Y680350D01*
X518850D01*
X525200Y674000D02*X518850Y680350D01*
X525200D02*Y674000D01*
Y684670D02*Y683400D01*
X515040Y691531D02*X516310Y692801D01*
X515040Y691531D02*Y688991D01*
X516310Y687721D02*X515040Y688991D01*
X516310Y687721D02*X523930D01*
X525200Y688991D01*
X520120Y691531D02*X521390Y692801D01*
X520120Y691531D02*Y687721D01*
X525200Y691531D02*Y688991D01*
Y691531D02*X523930Y692801D01*
X521390D02*X523930D01*
X525200Y699661D02*Y697121D01*
X515040Y698391D02*X525200D01*
X517580Y695851D02*X515040Y698391D01*
X523930Y702712D02*X525200Y703982D01*
X516310Y702712D02*X523930D01*
X516310D02*X515040Y703982D01*
Y706522D02*Y703982D01*
Y706522D02*X516310Y707792D01*
X523930D01*
X525200Y706522D02*X523930Y707792D01*
X525200Y706522D02*Y703982D01*
X522660Y702712D02*X517580Y707792D01*
Y710842D02*X518850D01*
X521390D02*X525200D01*
X521390Y714655D02*X525200D01*
X521390D02*X520120Y715925D01*
Y717195D02*Y715925D01*
Y717195D02*X521390Y718465D01*
X525200D01*
X520120Y713385D02*X521390Y714655D01*
X515040Y729897D02*X516310Y731167D01*
X515040Y729897D02*Y727357D01*
X516310Y726087D02*X515040Y727357D01*
X516310Y726087D02*X523930D01*
X525200Y727357D01*
X520120Y729897D02*X521390Y731167D01*
X520120Y729897D02*Y726087D01*
X525200Y729897D02*Y727357D01*
Y729897D02*X523930Y731167D01*
X521390D02*X523930D01*
X515040Y738028D02*X516310Y739298D01*
X515040Y738028D02*Y735488D01*
X516310Y734218D02*X515040Y735488D01*
X516310Y734218D02*X523930D01*
X525200Y735488D01*
X520120Y738028D02*X521390Y739298D01*
X520120Y738028D02*Y734218D01*
X525200Y738028D02*Y735488D01*
Y738028D02*X523930Y739298D01*
X521390D02*X523930D01*
X525200Y743618D02*Y742348D01*
X516310Y746669D02*X515040Y747939D01*
Y751749D02*Y747939D01*
Y751749D02*X516310Y753019D01*
X518850D01*
X525200Y746669D02*X518850Y753019D01*
X525200D02*Y746669D01*
Y756069D02*X520120Y761149D01*
X516310D02*X520120D01*
X515040Y759879D02*X516310Y761149D01*
X515040Y759879D02*Y757339D01*
X516310Y756069D02*X515040Y757339D01*
X516310Y756069D02*X518850D01*
X520120Y757339D01*
Y761149D02*Y757339D01*
Y764200D02*X515040Y769280D01*
X520120Y770550D02*Y764200D01*
X515040Y769280D02*X525200D01*
X521390Y774871D02*X525200D01*
X521390D02*X520120Y776141D01*
Y777411D02*Y776141D01*
Y777411D02*X521390Y778681D01*
X525200D01*
X521390D02*X520120Y779951D01*
Y781221D02*Y779951D01*
Y781221D02*X521390Y782491D01*
X525200D01*
X520120Y773601D02*X521390Y774871D01*
Y786811D02*X525200D01*
X521390D02*X520120Y788081D01*
Y789351D02*Y788081D01*
Y789351D02*X521390Y790621D01*
X525200D01*
X521390D02*X520120Y791891D01*
Y793161D02*Y791891D01*
Y793161D02*X521390Y794431D01*
X525200D01*
X520120Y785541D02*X521390Y786811D01*
X346500Y893470D02*X347770Y892200D01*
X346500Y901090D02*Y893470D01*
Y901090D02*X347770Y902360D01*
X350310D01*
X351580Y901090D01*
Y893470D01*
X350310Y892200D02*X351580Y893470D01*
X347770Y892200D02*X350310D01*
X346500Y894740D02*X351580Y899820D01*
X354630Y892200D02*X355900D01*
X358951Y901090D02*X360221Y902360D01*
X364031D01*
X365301Y901090D01*
Y898550D01*
X358951Y892200D02*X365301Y898550D01*
X358951Y892200D02*X365301D01*
X369621D02*X372161D01*
X370891Y902360D02*Y892200D01*
X368351Y899820D02*X370891Y902360D01*
X375212Y893470D02*X376482Y892200D01*
X375212Y901090D02*Y893470D01*
Y901090D02*X376482Y902360D01*
X379022D01*
X380292Y901090D01*
Y893470D01*
X379022Y892200D02*X380292Y893470D01*
X376482Y892200D02*X379022D01*
X375212Y894740D02*X380292Y899820D01*
X383342D02*Y898550D01*
Y896010D02*Y892200D01*
X387155Y896010D02*Y892200D01*
Y896010D02*X388425Y897280D01*
X389695D01*
X390965Y896010D01*
Y892200D01*
X385885Y897280D02*X387155Y896010D01*
X398587Y902360D02*X403667D01*
X398587D02*Y897280D01*
X399857Y898550D01*
X402397D01*
X403667Y897280D01*
Y893470D01*
X402397Y892200D02*X403667Y893470D01*
X399857Y892200D02*X402397D01*
X398587Y893470D02*X399857Y892200D01*
X406718D02*X407988D01*
X411038Y901090D02*X412308Y902360D01*
X414848D01*
X416118Y901090D01*
Y893470D01*
X414848Y892200D02*X416118Y893470D01*
X412308Y892200D02*X414848D01*
X411038Y893470D02*X412308Y892200D01*
Y897280D02*X416118D01*
X419169Y901090D02*X420439Y902360D01*
X422979D01*
X424249Y901090D01*
Y893470D01*
X422979Y892200D02*X424249Y893470D01*
X420439Y892200D02*X422979D01*
X419169Y893470D02*X420439Y892200D01*
Y897280D02*X424249D01*
X427299D02*X432379Y902360D01*
X427299Y897280D02*X433649D01*
X432379Y902360D02*Y892200D01*
X437970Y896010D02*Y892200D01*
Y896010D02*X439240Y897280D01*
X440510D01*
X441780Y896010D01*
Y892200D01*
Y896010D02*X443050Y897280D01*
X444320D01*
X445590Y896010D01*
Y892200D01*
X436700Y897280D02*X437970Y896010D01*
X449911D02*Y892200D01*
Y896010D02*X451181Y897280D01*
X452451D01*
X453721Y896010D01*
Y892200D01*
Y896010D02*X454991Y897280D01*
X456261D01*
X457531Y896010D01*
Y892200D01*
X448641Y897280D02*X449911Y896010D01*
X523430Y811500D02*X524700Y812770D01*
X515810Y811500D02*X523430D01*
X515810D02*X514540Y812770D01*
Y815310D02*Y812770D01*
Y815310D02*X515810Y816580D01*
X523430D01*
X524700Y815310D02*X523430Y816580D01*
X524700Y815310D02*Y812770D01*
X522160Y811500D02*X517080Y816580D01*
X524700Y820900D02*Y819630D01*
X515810Y823951D02*X514540Y825221D01*
Y827761D02*Y825221D01*
Y827761D02*X515810Y829031D01*
X523430D01*
X524700Y827761D02*X523430Y829031D01*
X524700Y827761D02*Y825221D01*
X523430Y823951D02*X524700Y825221D01*
X519620Y829031D02*Y825221D01*
X524700Y835891D02*Y833351D01*
X514540Y834621D02*X524700D01*
X517080Y832081D02*X514540Y834621D01*
X523430Y838942D02*X524700Y840212D01*
X515810Y838942D02*X523430D01*
X515810D02*X514540Y840212D01*
Y842752D02*Y840212D01*
Y842752D02*X515810Y844022D01*
X523430D01*
X524700Y842752D02*X523430Y844022D01*
X524700Y842752D02*Y840212D01*
X522160Y838942D02*X517080Y844022D01*
Y847072D02*X518350D01*
X520890D02*X524700D01*
X520890Y850885D02*X524700D01*
X520890D02*X519620Y852155D01*
Y853425D02*Y852155D01*
Y853425D02*X520890Y854695D01*
X524700D01*
X519620Y849615D02*X520890Y850885D01*
X524700Y862317D02*X518350Y868667D01*
X514540D02*X518350D01*
X514540D02*Y862317D01*
X524700Y872988D02*Y871718D01*
X523430Y876038D02*X524700Y877308D01*
X520890Y876038D02*X523430D01*
X520890D02*X519620Y877308D01*
Y879848D02*Y877308D01*
Y879848D02*X520890Y881118D01*
X523430D01*
X524700Y879848D02*X523430Y881118D01*
X524700Y879848D02*Y877308D01*
X518350Y876038D02*X519620Y877308D01*
X515810Y876038D02*X518350D01*
X515810D02*X514540Y877308D01*
Y879848D02*Y877308D01*
Y879848D02*X515810Y881118D01*
X518350D01*
X519620Y879848D02*X518350Y881118D01*
X524700Y884169D02*X518350Y890519D01*
X514540D02*X518350D01*
X514540D02*Y884169D01*
X519620Y893569D02*X514540Y898649D01*
X519620Y899919D02*Y893569D01*
X514540Y898649D02*X524700D01*
X520890Y904240D02*X524700D01*
X520890D02*X519620Y905510D01*
Y906780D02*Y905510D01*
Y906780D02*X520890Y908050D01*
X524700D01*
X520890D02*X519620Y909320D01*
Y910590D02*Y909320D01*
Y910590D02*X520890Y911860D01*
X524700D01*
X519620Y902970D02*X520890Y904240D01*
Y916181D02*X524700D01*
X520890D02*X519620Y917451D01*
Y918721D02*Y917451D01*
Y918721D02*X520890Y919991D01*
X524700D01*
X520890D02*X519620Y921261D01*
Y922531D02*Y921261D01*
Y922531D02*X520890Y923801D01*
X524700D01*
X519620Y914911D02*X520890Y916181D01*
X61700Y709310D02*Y706770D01*
X51540Y708040D02*X61700D01*
X54080Y705500D02*X51540Y708040D01*
X61700Y713630D02*Y712360D01*
X60430Y716681D02*X61700Y717951D01*
X57890Y716681D02*X60430D01*
X57890D02*X56620Y717951D01*
Y720491D02*Y717951D01*
Y720491D02*X57890Y721761D01*
X60430D01*
X61700Y720491D02*X60430Y721761D01*
X61700Y720491D02*Y717951D01*
X55350Y716681D02*X56620Y717951D01*
X52810Y716681D02*X55350D01*
X52810D02*X51540Y717951D01*
Y720491D02*Y717951D01*
Y720491D02*X52810Y721761D01*
X55350D01*
X56620Y720491D02*X55350Y721761D01*
X51540Y728621D02*X52810Y729891D01*
X51540Y728621D02*Y726081D01*
X52810Y724811D02*X51540Y726081D01*
X52810Y724811D02*X60430D01*
X61700Y726081D01*
X56620Y728621D02*X57890Y729891D01*
X56620Y728621D02*Y724811D01*
X61700Y728621D02*Y726081D01*
Y728621D02*X60430Y729891D01*
X57890D02*X60430D01*
Y732942D02*X61700Y734212D01*
X52810Y732942D02*X60430D01*
X52810D02*X51540Y734212D01*
Y736752D02*Y734212D01*
Y736752D02*X52810Y738022D01*
X60430D01*
X61700Y736752D02*X60430Y738022D01*
X61700Y736752D02*Y734212D01*
X59160Y732942D02*X54080Y738022D01*
Y741072D02*X55350D01*
X57890D02*X61700D01*
X57890Y744885D02*X61700D01*
X57890D02*X56620Y746155D01*
Y747425D02*Y746155D01*
Y747425D02*X57890Y748695D01*
X61700D01*
X56620Y743615D02*X57890Y744885D01*
X56620Y756317D02*X51540Y761397D01*
X56620Y762667D02*Y756317D01*
X51540Y761397D02*X61700D01*
Y765718D02*X55350Y772068D01*
X51540D02*X55350D01*
X51540D02*Y765718D01*
X61700Y776388D02*Y775118D01*
X52810Y779439D02*X51540Y780709D01*
Y784519D02*Y780709D01*
Y784519D02*X52810Y785789D01*
X55350D01*
X61700Y779439D02*X55350Y785789D01*
X61700D02*Y779439D01*
X56620Y788839D02*X51540Y793919D01*
X56620Y795189D02*Y788839D01*
X51540Y793919D02*X61700D01*
X56620Y798240D02*X51540Y803320D01*
X56620Y804590D02*Y798240D01*
X51540Y803320D02*X61700D01*
X57890Y808911D02*X61700D01*
X57890D02*X56620Y810181D01*
Y811451D02*Y810181D01*
Y811451D02*X57890Y812721D01*
X61700D01*
X57890D02*X56620Y813991D01*
Y815261D02*Y813991D01*
Y815261D02*X57890Y816531D01*
X61700D01*
X56620Y807641D02*X57890Y808911D01*
Y820851D02*X61700D01*
X57890D02*X56620Y822121D01*
Y823391D02*Y822121D01*
Y823391D02*X57890Y824661D01*
X61700D01*
X57890D02*X56620Y825931D01*
Y827201D02*Y825931D01*
Y827201D02*X57890Y828471D01*
X61700D01*
X56620Y819581D02*X57890Y820851D01*
X490000Y605570D02*X491270Y604300D01*
X490000Y613190D02*Y605570D01*
Y613190D02*X491270Y614460D01*
X493810D01*
X495080Y613190D01*
Y605570D01*
X493810Y604300D02*X495080Y605570D01*
X491270Y604300D02*X493810D01*
X490000Y606840D02*X495080Y611920D01*
X498130Y604300D02*X499400D01*
X503721D02*X506261D01*
X504991Y614460D02*Y604300D01*
X502451Y611920D02*X504991Y614460D01*
X509311Y613190D02*X510581Y614460D01*
X513121D01*
X514391Y613190D01*
Y605570D01*
X513121Y604300D02*X514391Y605570D01*
X510581Y604300D02*X513121D01*
X509311Y605570D02*X510581Y604300D01*
Y609380D02*X514391D01*
X517442Y605570D02*X518712Y604300D01*
X517442Y608110D02*Y605570D01*
Y608110D02*X518712Y609380D01*
X521252D01*
X522522Y608110D01*
Y605570D01*
X521252Y604300D02*X522522Y605570D01*
X518712Y604300D02*X521252D01*
X517442Y610650D02*X518712Y609380D01*
X517442Y613190D02*Y610650D01*
Y613190D02*X518712Y614460D01*
X521252D01*
X522522Y613190D01*
Y610650D01*
X521252Y609380D02*X522522Y610650D01*
X525572Y611920D02*Y610650D01*
Y608110D02*Y604300D01*
X529385Y608110D02*Y604300D01*
Y608110D02*X530655Y609380D01*
X531925D01*
X533195Y608110D01*
Y604300D01*
X528115Y609380D02*X529385Y608110D01*
X540817Y613190D02*X542087Y614460D01*
X544627D01*
X545897Y613190D01*
Y605570D01*
X544627Y604300D02*X545897Y605570D01*
X542087Y604300D02*X544627D01*
X540817Y605570D02*X542087Y604300D01*
Y609380D02*X545897D01*
X548948Y604300D02*X550218D01*
X553268Y614460D02*X558348D01*
X553268D02*Y609380D01*
X554538Y610650D01*
X557078D01*
X558348Y609380D01*
Y605570D01*
X557078Y604300D02*X558348Y605570D01*
X554538Y604300D02*X557078D01*
X553268Y605570D02*X554538Y604300D01*
X562669Y608110D02*Y604300D01*
Y608110D02*X563939Y609380D01*
X565209D01*
X566479Y608110D01*
Y604300D01*
Y608110D02*X567749Y609380D01*
X569019D01*
X570289Y608110D01*
Y604300D01*
X561399Y609380D02*X562669Y608110D01*
X574609D02*Y604300D01*
Y608110D02*X575879Y609380D01*
X577149D01*
X578419Y608110D01*
Y604300D01*
Y608110D02*X579689Y609380D01*
X580959D01*
X582229Y608110D01*
Y604300D01*
X573339Y609380D02*X574609Y608110D01*
X521930Y479400D02*X523200Y480670D01*
X514310Y479400D02*X521930D01*
X514310D02*X513040Y480670D01*
Y483210D02*Y480670D01*
Y483210D02*X514310Y484480D01*
X521930D01*
X523200Y483210D02*X521930Y484480D01*
X523200Y483210D02*Y480670D01*
X520660Y479400D02*X515580Y484480D01*
X523200Y488800D02*Y487530D01*
X521930Y491851D02*X523200Y493121D01*
X519390Y491851D02*X521930D01*
X519390D02*X518120Y493121D01*
Y495661D02*Y493121D01*
Y495661D02*X519390Y496931D01*
X521930D01*
X523200Y495661D02*X521930Y496931D01*
X523200Y495661D02*Y493121D01*
X516850Y491851D02*X518120Y493121D01*
X514310Y491851D02*X516850D01*
X514310D02*X513040Y493121D01*
Y495661D02*Y493121D01*
Y495661D02*X514310Y496931D01*
X516850D01*
X518120Y495661D02*X516850Y496931D01*
X523200Y499981D02*X518120Y505061D01*
X514310D02*X518120D01*
X513040Y503791D02*X514310Y505061D01*
X513040Y503791D02*Y501251D01*
X514310Y499981D02*X513040Y501251D01*
X514310Y499981D02*X516850D01*
X518120Y501251D01*
Y505061D02*Y501251D01*
X521930Y508112D02*X523200Y509382D01*
X514310Y508112D02*X521930D01*
X514310D02*X513040Y509382D01*
Y511922D02*Y509382D01*
Y511922D02*X514310Y513192D01*
X521930D01*
X523200Y511922D02*X521930Y513192D01*
X523200Y511922D02*Y509382D01*
X520660Y508112D02*X515580Y513192D01*
Y516242D02*X516850D01*
X519390D02*X523200D01*
X519390Y520055D02*X523200D01*
X519390D02*X518120Y521325D01*
Y522595D02*Y521325D01*
Y522595D02*X519390Y523865D01*
X523200D01*
X518120Y518785D02*X519390Y520055D01*
X514310Y531487D02*X513040Y532757D01*
Y536567D02*Y532757D01*
Y536567D02*X514310Y537837D01*
X516850D01*
X523200Y531487D02*X516850Y537837D01*
X523200D02*Y531487D01*
X514310Y540888D02*X513040Y542158D01*
Y545968D02*Y542158D01*
Y545968D02*X514310Y547238D01*
X516850D01*
X523200Y540888D02*X516850Y547238D01*
X523200D02*Y540888D01*
Y551558D02*Y550288D01*
X513040Y558419D02*X514310Y559689D01*
X513040Y558419D02*Y555879D01*
X514310Y554609D02*X513040Y555879D01*
X514310Y554609D02*X521930D01*
X523200Y555879D01*
X518120Y558419D02*X519390Y559689D01*
X518120Y558419D02*Y554609D01*
X523200Y558419D02*Y555879D01*
Y558419D02*X521930Y559689D01*
X519390D02*X521930D01*
Y562739D02*X523200Y564009D01*
X514310Y562739D02*X521930D01*
X514310D02*X513040Y564009D01*
Y566549D02*Y564009D01*
Y566549D02*X514310Y567819D01*
X521930D01*
X523200Y566549D02*X521930Y567819D01*
X523200Y566549D02*Y564009D01*
X520660Y562739D02*X515580Y567819D01*
X513040Y574680D02*X514310Y575950D01*
X513040Y574680D02*Y572140D01*
X514310Y570870D02*X513040Y572140D01*
X514310Y570870D02*X521930D01*
X523200Y572140D01*
X518120Y574680D02*X519390Y575950D01*
X518120Y574680D02*Y570870D01*
X523200Y574680D02*Y572140D01*
Y574680D02*X521930Y575950D01*
X519390D02*X521930D01*
X519390Y580271D02*X523200D01*
X519390D02*X518120Y581541D01*
Y582811D02*Y581541D01*
Y582811D02*X519390Y584081D01*
X523200D01*
X519390D02*X518120Y585351D01*
Y586621D02*Y585351D01*
Y586621D02*X519390Y587891D01*
X523200D01*
X518120Y579001D02*X519390Y580271D01*
Y592211D02*X523200D01*
X519390D02*X518120Y593481D01*
Y594751D02*Y593481D01*
Y594751D02*X519390Y596021D01*
X523200D01*
X519390D02*X518120Y597291D01*
Y598561D02*Y597291D01*
Y598561D02*X519390Y599831D01*
X523200D01*
X518120Y590941D02*X519390Y592211D01*
X554540Y471810D02*X555810Y473080D01*
X554540Y471810D02*Y469270D01*
X555810Y468000D02*X554540Y469270D01*
X555810Y468000D02*X563430D01*
X564700Y469270D01*
X559620Y471810D02*X560890Y473080D01*
X559620Y471810D02*Y468000D01*
X564700Y471810D02*Y469270D01*
Y471810D02*X563430Y473080D01*
X560890D02*X563430D01*
X564700Y477400D02*Y476130D01*
Y480451D02*X558350Y486801D01*
X554540D02*X558350D01*
X554540D02*Y480451D01*
X555810Y489851D02*X554540Y491121D01*
Y493661D02*Y491121D01*
Y493661D02*X555810Y494931D01*
X563430D01*
X564700Y493661D02*X563430Y494931D01*
X564700Y493661D02*Y491121D01*
X563430Y489851D02*X564700Y491121D01*
X559620Y494931D02*Y491121D01*
X563430Y497982D02*X564700Y499252D01*
X555810Y497982D02*X563430D01*
X555810D02*X554540Y499252D01*
Y501792D02*Y499252D01*
Y501792D02*X555810Y503062D01*
X563430D01*
X564700Y501792D02*X563430Y503062D01*
X564700Y501792D02*Y499252D01*
X562160Y497982D02*X557080Y503062D01*
Y506112D02*X558350D01*
X560890D02*X564700D01*
X560890Y509925D02*X564700D01*
X560890D02*X559620Y511195D01*
Y512465D02*Y511195D01*
Y512465D02*X560890Y513735D01*
X564700D01*
X559620Y508655D02*X560890Y509925D01*
X564700Y525167D02*Y522627D01*
X554540Y523897D02*X564700D01*
X557080Y521357D02*X554540Y523897D01*
X564700Y528218D02*X558350Y534568D01*
X554540D02*X558350D01*
X554540D02*Y528218D01*
X563430Y537618D02*X564700Y538888D01*
X555810Y537618D02*X563430D01*
X555810D02*X554540Y538888D01*
Y541428D02*Y538888D01*
Y541428D02*X555810Y542698D01*
X563430D01*
X564700Y541428D02*X563430Y542698D01*
X564700Y541428D02*Y538888D01*
X562160Y537618D02*X557080Y542698D01*
X564700Y547019D02*Y545749D01*
Y550069D02*X559620Y555149D01*
X555810D02*X559620D01*
X554540Y553879D02*X555810Y555149D01*
X554540Y553879D02*Y551339D01*
X555810Y550069D02*X554540Y551339D01*
X555810Y550069D02*X558350D01*
X559620Y551339D01*
Y555149D02*Y551339D01*
Y558200D02*X554540Y563280D01*
X559620Y564550D02*Y558200D01*
X554540Y563280D02*X564700D01*
X555810Y567601D02*X554540Y568871D01*
Y572681D02*Y568871D01*
Y572681D02*X555810Y573951D01*
X558350D01*
X564700Y567601D02*X558350Y573951D01*
X564700D02*Y567601D01*
X560890Y578271D02*X564700D01*
X560890D02*X559620Y579541D01*
Y580811D02*Y579541D01*
Y580811D02*X560890Y582081D01*
X564700D01*
X560890D02*X559620Y583351D01*
Y584621D02*Y583351D01*
Y584621D02*X560890Y585891D01*
X564700D01*
X559620Y577001D02*X560890Y578271D01*
Y590212D02*X564700D01*
X560890D02*X559620Y591482D01*
Y592752D02*Y591482D01*
Y592752D02*X560890Y594022D01*
X564700D01*
X560890D02*X559620Y595292D01*
Y596562D02*Y595292D01*
Y596562D02*X560890Y597832D01*
X564700D01*
X559620Y588942D02*X560890Y590212D01*
X194500Y135690D02*X195770Y136960D01*
X198310D01*
X199580Y135690D01*
Y128070D01*
X198310Y126800D02*X199580Y128070D01*
X195770Y126800D02*X198310D01*
X194500Y128070D02*X195770Y126800D01*
Y131880D02*X199580D01*
X202630Y126800D02*X203900D01*
X206951Y135690D02*X208221Y136960D01*
X210761D01*
X212031Y135690D01*
Y128070D01*
X210761Y126800D02*X212031Y128070D01*
X208221Y126800D02*X210761D01*
X206951Y128070D02*X208221Y126800D01*
Y131880D02*X212031D01*
X215081D02*X220161Y136960D01*
X215081Y131880D02*X221431D01*
X220161Y136960D02*Y126800D01*
X224482Y128070D02*X225752Y126800D01*
X224482Y135690D02*Y128070D01*
Y135690D02*X225752Y136960D01*
X228292D01*
X229562Y135690D01*
Y128070D01*
X228292Y126800D02*X229562Y128070D01*
X225752Y126800D02*X228292D01*
X224482Y129340D02*X229562Y134420D01*
X232612D02*Y133150D01*
Y130610D02*Y126800D01*
X236425Y130610D02*Y126800D01*
Y130610D02*X237695Y131880D01*
X238965D01*
X240235Y130610D01*
Y126800D01*
X235155Y131880D02*X236425Y130610D01*
X247857Y128070D02*X249127Y126800D01*
X247857Y130610D02*Y128070D01*
Y130610D02*X249127Y131880D01*
X251667D01*
X252937Y130610D01*
Y128070D01*
X251667Y126800D02*X252937Y128070D01*
X249127Y126800D02*X251667D01*
X247857Y133150D02*X249127Y131880D01*
X247857Y135690D02*Y133150D01*
Y135690D02*X249127Y136960D01*
X251667D01*
X252937Y135690D01*
Y133150D01*
X251667Y131880D02*X252937Y133150D01*
X255988Y131880D02*X261068Y136960D01*
X255988Y131880D02*X262338D01*
X261068Y136960D02*Y126800D01*
X265388D02*X266658D01*
X269709Y128070D02*X270979Y126800D01*
X269709Y130610D02*Y128070D01*
Y130610D02*X270979Y131880D01*
X273519D01*
X274789Y130610D01*
Y128070D01*
X273519Y126800D02*X274789Y128070D01*
X270979Y126800D02*X273519D01*
X269709Y133150D02*X270979Y131880D01*
X269709Y135690D02*Y133150D01*
Y135690D02*X270979Y136960D01*
X273519D01*
X274789Y135690D01*
Y133150D01*
X273519Y131880D02*X274789Y133150D01*
X277839Y135690D02*X279109Y136960D01*
X281649D01*
X282919Y135690D01*
Y128070D01*
X281649Y126800D02*X282919Y128070D01*
X279109Y126800D02*X281649D01*
X277839Y128070D02*X279109Y126800D01*
Y131880D02*X282919D01*
X289780Y136960D02*X291050Y135690D01*
X287240Y136960D02*X289780D01*
X285970Y135690D02*X287240Y136960D01*
X285970Y135690D02*Y128070D01*
X287240Y126800D01*
X289780Y131880D02*X291050Y130610D01*
X285970Y131880D02*X289780D01*
X287240Y126800D02*X289780D01*
X291050Y128070D01*
Y130610D02*Y128070D01*
X295371Y130610D02*Y126800D01*
Y130610D02*X296641Y131880D01*
X297911D01*
X299181Y130610D01*
Y126800D01*
Y130610D02*X300451Y131880D01*
X301721D01*
X302991Y130610D01*
Y126800D01*
X294101Y131880D02*X295371Y130610D01*
X307311D02*Y126800D01*
Y130610D02*X308581Y131880D01*
X309851D01*
X311121Y130610D01*
Y126800D01*
Y130610D02*X312391Y131880D01*
X313661D01*
X314931Y130610D01*
Y126800D01*
X306041Y131880D02*X307311Y130610D01*
X516810Y326400D02*X515540Y327670D01*
Y331480D02*Y327670D01*
Y331480D02*X516810Y332750D01*
X519350D01*
X525700Y326400D02*X519350Y332750D01*
X525700D02*Y326400D01*
Y337070D02*Y335800D01*
X515540Y343931D02*X516810Y345201D01*
X515540Y343931D02*Y341391D01*
X516810Y340121D02*X515540Y341391D01*
X516810Y340121D02*X524430D01*
X525700Y341391D01*
X520620Y343931D02*X521890Y345201D01*
X520620Y343931D02*Y340121D01*
X525700Y343931D02*Y341391D01*
Y343931D02*X524430Y345201D01*
X521890D02*X524430D01*
X525700Y352061D02*Y349521D01*
X515540Y350791D02*X525700D01*
X518080Y348251D02*X515540Y350791D01*
X524430Y355112D02*X525700Y356382D01*
X516810Y355112D02*X524430D01*
X516810D02*X515540Y356382D01*
Y358922D02*Y356382D01*
Y358922D02*X516810Y360192D01*
X524430D01*
X525700Y358922D02*X524430Y360192D01*
X525700Y358922D02*Y356382D01*
X523160Y355112D02*X518080Y360192D01*
Y363242D02*X519350D01*
X521890D02*X525700D01*
X521890Y367055D02*X525700D01*
X521890D02*X520620Y368325D01*
Y369595D02*Y368325D01*
Y369595D02*X521890Y370865D01*
X525700D01*
X520620Y365785D02*X521890Y367055D01*
X515540Y382297D02*X516810Y383567D01*
X515540Y382297D02*Y379757D01*
X516810Y378487D02*X515540Y379757D01*
X516810Y378487D02*X524430D01*
X525700Y379757D01*
X520620Y382297D02*X521890Y383567D01*
X520620Y382297D02*Y378487D01*
X525700Y382297D02*Y379757D01*
Y382297D02*X524430Y383567D01*
X521890D02*X524430D01*
X515540Y390428D02*X516810Y391698D01*
X515540Y390428D02*Y387888D01*
X516810Y386618D02*X515540Y387888D01*
X516810Y386618D02*X524430D01*
X525700Y387888D01*
X520620Y390428D02*X521890Y391698D01*
X520620Y390428D02*Y386618D01*
X525700Y390428D02*Y387888D01*
Y390428D02*X524430Y391698D01*
X521890D02*X524430D01*
X525700Y396018D02*Y394748D01*
X516810Y399069D02*X515540Y400339D01*
Y404149D02*Y400339D01*
Y404149D02*X516810Y405419D01*
X519350D01*
X525700Y399069D02*X519350Y405419D01*
X525700D02*Y399069D01*
Y408469D02*X520620Y413549D01*
X516810D02*X520620D01*
X515540Y412279D02*X516810Y413549D01*
X515540Y412279D02*Y409739D01*
X516810Y408469D02*X515540Y409739D01*
X516810Y408469D02*X519350D01*
X520620Y409739D01*
Y413549D02*Y409739D01*
Y416600D02*X515540Y421680D01*
X520620Y422950D02*Y416600D01*
X515540Y421680D02*X525700D01*
X521890Y427271D02*X525700D01*
X521890D02*X520620Y428541D01*
Y429811D02*Y428541D01*
Y429811D02*X521890Y431081D01*
X525700D01*
X521890D02*X520620Y432351D01*
Y433621D02*Y432351D01*
Y433621D02*X521890Y434891D01*
X525700D01*
X520620Y426001D02*X521890Y427271D01*
Y439211D02*X525700D01*
X521890D02*X520620Y440481D01*
Y441751D02*Y440481D01*
Y441751D02*X521890Y443021D01*
X525700D01*
X521890D02*X520620Y444291D01*
Y445561D02*Y444291D01*
Y445561D02*X521890Y446831D01*
X525700D01*
X520620Y437941D02*X521890Y439211D01*
X523430Y169000D02*X524700Y170270D01*
X515810Y169000D02*X523430D01*
X515810D02*X514540Y170270D01*
Y172810D02*Y170270D01*
Y172810D02*X515810Y174080D01*
X523430D01*
X524700Y172810D02*X523430Y174080D01*
X524700Y172810D02*Y170270D01*
X522160Y169000D02*X517080Y174080D01*
X524700Y178400D02*Y177130D01*
X515810Y181451D02*X514540Y182721D01*
Y185261D02*Y182721D01*
Y185261D02*X515810Y186531D01*
X523430D01*
X524700Y185261D02*X523430Y186531D01*
X524700Y185261D02*Y182721D01*
X523430Y181451D02*X524700Y182721D01*
X519620Y186531D02*Y182721D01*
X524700Y193391D02*Y190851D01*
X514540Y192121D02*X524700D01*
X517080Y189581D02*X514540Y192121D01*
X523430Y196442D02*X524700Y197712D01*
X515810Y196442D02*X523430D01*
X515810D02*X514540Y197712D01*
Y200252D02*Y197712D01*
Y200252D02*X515810Y201522D01*
X523430D01*
X524700Y200252D02*X523430Y201522D01*
X524700Y200252D02*Y197712D01*
X522160Y196442D02*X517080Y201522D01*
Y204572D02*X518350D01*
X520890D02*X524700D01*
X520890Y208385D02*X524700D01*
X520890D02*X519620Y209655D01*
Y210925D02*Y209655D01*
Y210925D02*X520890Y212195D01*
X524700D01*
X519620Y207115D02*X520890Y208385D01*
X524700Y219817D02*X518350Y226167D01*
X514540D02*X518350D01*
X514540D02*Y219817D01*
X524700Y230488D02*Y229218D01*
X523430Y233538D02*X524700Y234808D01*
X520890Y233538D02*X523430D01*
X520890D02*X519620Y234808D01*
Y237348D02*Y234808D01*
Y237348D02*X520890Y238618D01*
X523430D01*
X524700Y237348D02*X523430Y238618D01*
X524700Y237348D02*Y234808D01*
X518350Y233538D02*X519620Y234808D01*
X515810Y233538D02*X518350D01*
X515810D02*X514540Y234808D01*
Y237348D02*Y234808D01*
Y237348D02*X515810Y238618D01*
X518350D01*
X519620Y237348D02*X518350Y238618D01*
X524700Y241669D02*X518350Y248019D01*
X514540D02*X518350D01*
X514540D02*Y241669D01*
X519620Y251069D02*X514540Y256149D01*
X519620Y257419D02*Y251069D01*
X514540Y256149D02*X524700D01*
X520890Y261740D02*X524700D01*
X520890D02*X519620Y263010D01*
Y264280D02*Y263010D01*
Y264280D02*X520890Y265550D01*
X524700D01*
X520890D02*X519620Y266820D01*
Y268090D02*Y266820D01*
Y268090D02*X520890Y269360D01*
X524700D01*
X519620Y260470D02*X520890Y261740D01*
Y273681D02*X524700D01*
X520890D02*X519620Y274951D01*
Y276221D02*Y274951D01*
Y276221D02*X520890Y277491D01*
X524700D01*
X520890D02*X519620Y278761D01*
Y280031D02*Y278761D01*
Y280031D02*X520890Y281301D01*
X524700D01*
X519620Y272411D02*X520890Y273681D01*
X536310Y323900D02*X535040Y325170D01*
Y327710D02*Y325170D01*
Y327710D02*X536310Y328980D01*
X543930D01*
X545200Y327710D02*X543930Y328980D01*
X545200Y327710D02*Y325170D01*
X543930Y323900D02*X545200Y325170D01*
X540120Y328980D02*Y325170D01*
X545200Y333300D02*Y332030D01*
X543930Y336351D02*X545200Y337621D01*
X536310Y336351D02*X543930D01*
X536310D02*X535040Y337621D01*
Y340161D02*Y337621D01*
Y340161D02*X536310Y341431D01*
X543930D01*
X545200Y340161D02*X543930Y341431D01*
X545200Y340161D02*Y337621D01*
X542660Y336351D02*X537580Y341431D01*
X535040Y348291D02*X536310Y349561D01*
X535040Y348291D02*Y345751D01*
X536310Y344481D02*X535040Y345751D01*
X536310Y344481D02*X543930D01*
X545200Y345751D01*
X540120Y348291D02*X541390Y349561D01*
X540120Y348291D02*Y344481D01*
X545200Y348291D02*Y345751D01*
Y348291D02*X543930Y349561D01*
X541390D02*X543930D01*
Y352612D02*X545200Y353882D01*
X536310Y352612D02*X543930D01*
X536310D02*X535040Y353882D01*
Y356422D02*Y353882D01*
Y356422D02*X536310Y357692D01*
X543930D01*
X545200Y356422D02*X543930Y357692D01*
X545200Y356422D02*Y353882D01*
X542660Y352612D02*X537580Y357692D01*
Y360742D02*X538850D01*
X541390D02*X545200D01*
X541390Y364555D02*X545200D01*
X541390D02*X540120Y365825D01*
Y367095D02*Y365825D01*
Y367095D02*X541390Y368365D01*
X545200D01*
X540120Y363285D02*X541390Y364555D01*
X545200Y375987D02*X538850Y382337D01*
X535040D02*X538850D01*
X535040D02*Y375987D01*
X545200Y385388D02*X538850Y391738D01*
X535040D02*X538850D01*
X535040D02*Y385388D01*
X545200Y396058D02*Y394788D01*
Y399109D02*X538850Y405459D01*
X535040D02*X538850D01*
X535040D02*Y399109D01*
X536310Y408509D02*X535040Y409779D01*
Y413589D02*Y409779D01*
Y413589D02*X536310Y414859D01*
X538850D01*
X545200Y408509D02*X538850Y414859D01*
X545200D02*Y408509D01*
X540120Y417910D02*X535040Y422990D01*
X540120Y424260D02*Y417910D01*
X535040Y422990D02*X545200D01*
X541390Y428581D02*X545200D01*
X541390D02*X540120Y429851D01*
Y431121D02*Y429851D01*
Y431121D02*X541390Y432391D01*
X545200D01*
X541390D02*X540120Y433661D01*
Y434931D02*Y433661D01*
Y434931D02*X541390Y436201D01*
X545200D01*
X540120Y427311D02*X541390Y428581D01*
Y440521D02*X545200D01*
X541390D02*X540120Y441791D01*
Y443061D02*Y441791D01*
Y443061D02*X541390Y444331D01*
X545200D01*
X541390D02*X540120Y445601D01*
Y446871D02*Y445601D01*
Y446871D02*X541390Y448141D01*
X545200D01*
X540120Y439251D02*X541390Y440521D01*
X193900Y155490D02*X195170Y156760D01*
X197710D01*
X198980Y155490D01*
Y147870D01*
X197710Y146600D02*X198980Y147870D01*
X195170Y146600D02*X197710D01*
X193900Y147870D02*X195170Y146600D01*
Y151680D02*X198980D01*
X202030Y146600D02*X203300D01*
X206351Y155490D02*X207621Y156760D01*
X210161D01*
X211431Y155490D01*
Y147870D01*
X210161Y146600D02*X211431Y147870D01*
X207621Y146600D02*X210161D01*
X206351Y147870D02*X207621Y146600D01*
Y151680D02*X211431D01*
X214481Y155490D02*X215751Y156760D01*
X218291D01*
X219561Y155490D01*
Y147870D01*
X218291Y146600D02*X219561Y147870D01*
X215751Y146600D02*X218291D01*
X214481Y147870D02*X215751Y146600D01*
Y151680D02*X219561D01*
X222612Y147870D02*X223882Y146600D01*
X222612Y155490D02*Y147870D01*
Y155490D02*X223882Y156760D01*
X226422D01*
X227692Y155490D01*
Y147870D01*
X226422Y146600D02*X227692Y147870D01*
X223882Y146600D02*X226422D01*
X222612Y149140D02*X227692Y154220D01*
X230742D02*Y152950D01*
Y150410D02*Y146600D01*
X234555Y150410D02*Y146600D01*
Y150410D02*X235825Y151680D01*
X237095D01*
X238365Y150410D01*
Y146600D01*
X233285Y151680D02*X234555Y150410D01*
X245987Y147870D02*X247257Y146600D01*
X245987Y150410D02*Y147870D01*
Y150410D02*X247257Y151680D01*
X249797D01*
X251067Y150410D01*
Y147870D01*
X249797Y146600D02*X251067Y147870D01*
X247257Y146600D02*X249797D01*
X245987Y152950D02*X247257Y151680D01*
X245987Y155490D02*Y152950D01*
Y155490D02*X247257Y156760D01*
X249797D01*
X251067Y155490D01*
Y152950D01*
X249797Y151680D02*X251067Y152950D01*
X254118Y151680D02*X259198Y156760D01*
X254118Y151680D02*X260468D01*
X259198Y156760D02*Y146600D01*
X263518D02*X264788D01*
X267839Y156760D02*X272919D01*
X267839D02*Y151680D01*
X269109Y152950D01*
X271649D01*
X272919Y151680D01*
Y147870D01*
X271649Y146600D02*X272919Y147870D01*
X269109Y146600D02*X271649D01*
X267839Y147870D02*X269109Y146600D01*
X275969Y147870D02*X277239Y146600D01*
X275969Y150410D02*Y147870D01*
Y150410D02*X277239Y151680D01*
X279779D01*
X281049Y150410D01*
Y147870D01*
X279779Y146600D02*X281049Y147870D01*
X277239Y146600D02*X279779D01*
X275969Y152950D02*X277239Y151680D01*
X275969Y155490D02*Y152950D01*
Y155490D02*X277239Y156760D01*
X279779D01*
X281049Y155490D01*
Y152950D01*
X279779Y151680D02*X281049Y152950D01*
X284100Y155490D02*X285370Y156760D01*
X289180D01*
X290450Y155490D01*
Y152950D01*
X284100Y146600D02*X290450Y152950D01*
X284100Y146600D02*X290450D01*
X294771Y150410D02*Y146600D01*
Y150410D02*X296041Y151680D01*
X297311D01*
X298581Y150410D01*
Y146600D01*
Y150410D02*X299851Y151680D01*
X301121D01*
X302391Y150410D01*
Y146600D01*
X293501Y151680D02*X294771Y150410D01*
X306711D02*Y146600D01*
Y150410D02*X307981Y151680D01*
X309251D01*
X310521Y150410D01*
Y146600D01*
Y150410D02*X311791Y151680D01*
X313061D01*
X314331Y150410D01*
Y146600D01*
X305441Y151680D02*X306711Y150410D01*
X194500Y116190D02*X195770Y117460D01*
X198310D01*
X199580Y116190D01*
Y108570D01*
X198310Y107300D02*X199580Y108570D01*
X195770Y107300D02*X198310D01*
X194500Y108570D02*X195770Y107300D01*
Y112380D02*X199580D01*
X202630Y107300D02*X203900D01*
X206951Y108570D02*X208221Y107300D01*
X206951Y111110D02*Y108570D01*
Y111110D02*X208221Y112380D01*
X210761D01*
X212031Y111110D01*
Y108570D01*
X210761Y107300D02*X212031Y108570D01*
X208221Y107300D02*X210761D01*
X206951Y113650D02*X208221Y112380D01*
X206951Y116190D02*Y113650D01*
Y116190D02*X208221Y117460D01*
X210761D01*
X212031Y116190D01*
Y113650D01*
X210761Y112380D02*X212031Y113650D01*
X215081Y108570D02*X216351Y107300D01*
X215081Y111110D02*Y108570D01*
Y111110D02*X216351Y112380D01*
X218891D01*
X220161Y111110D01*
Y108570D01*
X218891Y107300D02*X220161Y108570D01*
X216351Y107300D02*X218891D01*
X215081Y113650D02*X216351Y112380D01*
X215081Y116190D02*Y113650D01*
Y116190D02*X216351Y117460D01*
X218891D01*
X220161Y116190D01*
Y113650D01*
X218891Y112380D02*X220161Y113650D01*
X223212Y108570D02*X224482Y107300D01*
X223212Y116190D02*Y108570D01*
Y116190D02*X224482Y117460D01*
X227022D01*
X228292Y116190D01*
Y108570D01*
X227022Y107300D02*X228292Y108570D01*
X224482Y107300D02*X227022D01*
X223212Y109840D02*X228292Y114920D01*
X231342D02*Y113650D01*
Y111110D02*Y107300D01*
X235155Y111110D02*Y107300D01*
Y111110D02*X236425Y112380D01*
X237695D01*
X238965Y111110D01*
Y107300D01*
X233885Y112380D02*X235155Y111110D01*
X246587Y108570D02*X247857Y107300D01*
X246587Y111110D02*Y108570D01*
Y111110D02*X247857Y112380D01*
X250397D01*
X251667Y111110D01*
Y108570D01*
X250397Y107300D02*X251667Y108570D01*
X247857Y107300D02*X250397D01*
X246587Y113650D02*X247857Y112380D01*
X246587Y116190D02*Y113650D01*
Y116190D02*X247857Y117460D01*
X250397D01*
X251667Y116190D01*
Y113650D01*
X250397Y112380D02*X251667Y113650D01*
X254718Y108570D02*X255988Y107300D01*
X254718Y111110D02*Y108570D01*
Y111110D02*X255988Y112380D01*
X258528D01*
X259798Y111110D01*
Y108570D01*
X258528Y107300D02*X259798Y108570D01*
X255988Y107300D02*X258528D01*
X254718Y113650D02*X255988Y112380D01*
X254718Y116190D02*Y113650D01*
Y116190D02*X255988Y117460D01*
X258528D01*
X259798Y116190D01*
Y113650D01*
X258528Y112380D02*X259798Y113650D01*
X262848Y107300D02*X264118D01*
X267169Y117460D02*X272249D01*
X267169D02*Y112380D01*
X268439Y113650D01*
X270979D01*
X272249Y112380D01*
Y108570D01*
X270979Y107300D02*X272249Y108570D01*
X268439Y107300D02*X270979D01*
X267169Y108570D02*X268439Y107300D01*
X275299Y117460D02*X280379D01*
X275299D02*Y112380D01*
X276569Y113650D01*
X279109D01*
X280379Y112380D01*
Y108570D01*
X279109Y107300D02*X280379Y108570D01*
X276569Y107300D02*X279109D01*
X275299Y108570D02*X276569Y107300D01*
X283430Y116190D02*X284700Y117460D01*
X288510D01*
X289780Y116190D01*
Y113650D01*
X283430Y107300D02*X289780Y113650D01*
X283430Y107300D02*X289780D01*
X294101Y111110D02*Y107300D01*
Y111110D02*X295371Y112380D01*
X296641D01*
X297911Y111110D01*
Y107300D01*
Y111110D02*X299181Y112380D01*
X300451D01*
X301721Y111110D01*
Y107300D01*
X292831Y112380D02*X294101Y111110D01*
X306041D02*Y107300D01*
Y111110D02*X307311Y112380D01*
X308581D01*
X309851Y111110D01*
Y107300D01*
Y111110D02*X311121Y112380D01*
X312391D01*
X313661Y111110D01*
Y107300D01*
X304771Y112380D02*X306041Y111110D01*
G54D16*X425500Y454000D03*
Y484000D03*
Y469000D03*
G54D11*G36*
X422750Y588250D02*Y582750D01*
X428250D01*
Y588250D01*
X422750D01*
G37*
G36*
Y573250D02*Y567750D01*
X428250D01*
Y573250D01*
X422750D01*
G37*
G36*
Y558250D02*Y552750D01*
X428250D01*
Y558250D01*
X422750D01*
G37*
G54D17*X461500Y640500D03*
G54D11*G36*
X418000Y528000D02*Y522000D01*
X424000D01*
Y528000D01*
X418000D01*
G37*
G54D18*X451500Y469000D03*
X441500D03*
G54D17*X318500Y630500D03*
X328500D03*
X358500D03*
G54D11*G36*
X380500Y633500D02*Y627500D01*
X386500D01*
Y633500D01*
X380500D01*
G37*
G54D17*X393500Y630500D03*
X403500D03*
X413500D03*
X423500D03*
X433500D03*
X443500D03*
X338500D03*
X348500D03*
G54D16*Y600500D03*
Y615500D03*
G54D11*G36*
X355750Y618250D02*Y612750D01*
X361250D01*
Y618250D01*
X355750D01*
G37*
G36*
Y603250D02*Y597750D01*
X361250D01*
Y603250D01*
X355750D01*
G37*
G54D16*X408500Y615500D03*
Y600500D03*
X375500Y585500D03*
G54D17*X365000Y570500D03*
Y585500D03*
G54D16*X375500Y570500D03*
G54D11*G36*
X341750Y573250D02*Y567750D01*
X347250D01*
Y573250D01*
X341750D01*
G37*
G36*
X352000Y573500D02*Y567500D01*
X358000D01*
Y573500D01*
X352000D01*
G37*
G36*
Y588500D02*Y582500D01*
X358000D01*
Y588500D01*
X352000D01*
G37*
G36*
X341750Y588250D02*Y582750D01*
X347250D01*
Y588250D01*
X341750D01*
G37*
G54D16*X375500Y555500D03*
G54D11*G36*
X352000Y558500D02*Y552500D01*
X358000D01*
Y558500D01*
X352000D01*
G37*
G54D17*X365000Y555500D03*
G54D11*G36*
X341750Y558250D02*Y552750D01*
X347250D01*
Y558250D01*
X341750D01*
G37*
G36*
X338000Y518000D02*Y512000D01*
X344000D01*
Y518000D01*
X338000D01*
G37*
G54D17*X351000Y515000D03*
X361000D03*
G54D11*G36*
X338000Y528000D02*Y522000D01*
X344000D01*
Y528000D01*
X338000D01*
G37*
G54D17*X351000Y525000D03*
X361000D03*
X371000Y515000D03*
Y525000D03*
X381000D03*
X391000D03*
X381000Y515000D03*
X391000D03*
G54D11*G36*
X135500Y412000D02*Y406000D01*
X141500D01*
Y412000D01*
X135500D01*
G37*
G54D17*X148500Y409000D03*
X158500D03*
X168500D03*
X178500D03*
X188500D03*
X198500D03*
G54D11*G36*
X170750Y366750D02*Y361250D01*
X176250D01*
Y366750D01*
X170750D01*
G37*
G36*
Y351750D02*Y346250D01*
X176250D01*
Y351750D01*
X170750D01*
G37*
G36*
Y396750D02*Y391250D01*
X176250D01*
Y396750D01*
X170750D01*
G37*
G36*
Y381750D02*Y376250D01*
X176250D01*
Y381750D01*
X170750D01*
G37*
G36*
Y336750D02*Y331250D01*
X176250D01*
Y336750D01*
X170750D01*
G37*
G54D16*X223500Y364000D03*
Y349000D03*
Y394000D03*
Y379000D03*
Y334000D03*
G54D11*G36*
X225500Y412000D02*Y406000D01*
X231500D01*
Y412000D01*
X225500D01*
G37*
G54D17*X238500Y409000D03*
G54D11*G36*
X235750Y396750D02*Y391250D01*
X241250D01*
Y396750D01*
X235750D01*
G37*
G54D17*X248500Y409000D03*
X258500D03*
X268500D03*
X278500D03*
X288500D03*
G54D16*Y394000D03*
G54D17*X311000Y525000D03*
Y515000D03*
G54D11*G36*
X185900Y546600D02*Y541400D01*
X191100D01*
Y546600D01*
X185900D01*
G37*
G54D19*X158500Y544000D03*
G54D11*G36*
X185900Y561600D02*Y556400D01*
X191100D01*
Y561600D01*
X185900D01*
G37*
G54D19*X158500Y559000D03*
G54D11*G36*
X185900Y606600D02*Y601400D01*
X191100D01*
Y606600D01*
X185900D01*
G37*
G54D19*X158500Y604000D03*
G54D11*G36*
X185900Y621600D02*Y616400D01*
X191100D01*
Y621600D01*
X185900D01*
G37*
G54D19*X158500Y619000D03*
G54D16*X315500Y469000D03*
Y484000D03*
G54D11*G36*
X271000Y558500D02*Y552500D01*
X277000D01*
Y558500D01*
X271000D01*
G37*
G54D17*X284000Y555500D03*
G54D16*X278500Y484000D03*
X294500Y555500D03*
Y570500D03*
Y585500D03*
G54D11*G36*
X302750Y237250D02*Y231750D01*
X308250D01*
Y237250D01*
X302750D01*
G37*
G54D16*X305500Y274500D03*
G54D11*G36*
X302500Y307000D02*Y301000D01*
X308500D01*
Y307000D01*
X302500D01*
G37*
G54D17*X305500Y294000D03*
G54D11*G36*
X271000Y573500D02*Y567500D01*
X277000D01*
Y573500D01*
X271000D01*
G37*
G36*
X260750Y573250D02*Y567750D01*
X266250D01*
Y573250D01*
X260750D01*
G37*
G36*
Y558250D02*Y552750D01*
X266250D01*
Y558250D01*
X260750D01*
G37*
G54D17*X284000Y570500D03*
G54D11*G36*
X260750Y588250D02*Y582750D01*
X266250D01*
Y588250D01*
X260750D01*
G37*
G36*
X271000Y588500D02*Y582500D01*
X277000D01*
Y588500D01*
X271000D01*
G37*
G54D17*X284000Y585500D03*
X265000Y282000D03*
X275000D03*
X285000D03*
X265500Y304000D03*
G54D11*G36*
X275500Y307000D02*Y301000D01*
X281500D01*
Y307000D01*
X275500D01*
G37*
G54D17*X288500Y304000D03*
G54D11*G36*
X362750Y471750D02*Y466250D01*
X368250D01*
Y471750D01*
X362750D01*
G37*
G36*
X372750D02*Y466250D01*
X378250D01*
Y471750D01*
X372750D01*
G37*
G36*
Y456750D02*Y451250D01*
X378250D01*
Y456750D01*
X372750D01*
G37*
G36*
X322750Y442250D02*Y436750D01*
X328250D01*
Y442250D01*
X322750D01*
G37*
G54D16*X375500Y439500D03*
X344500Y454000D03*
G54D11*G36*
X372750Y486750D02*Y481250D01*
X378250D01*
Y486750D01*
X372750D01*
G37*
G36*
X362750D02*Y481250D01*
X368250D01*
Y486750D01*
X362750D01*
G37*
G36*
X340000Y419000D02*Y410000D01*
X349000D01*
Y419000D01*
X340000D01*
G37*
G36*
X352000Y316000D02*Y308000D01*
X360000D01*
Y316000D01*
X352000D01*
G37*
G54D20*X334500Y414500D03*
G54D21*Y347500D03*
G54D20*X324500Y414500D03*
G54D11*G36*
X438500Y439000D02*Y433000D01*
X444500D01*
Y439000D01*
X438500D01*
G37*
G54D17*X451500Y436000D03*
X461500D03*
G54D18*X441500Y454000D03*
G54D11*G36*
X451000Y422000D02*Y414000D01*
X459000D01*
Y422000D01*
X451000D01*
G37*
G36*
X422750Y442250D02*Y436750D01*
X428250D01*
Y442250D01*
X422750D01*
G37*
G54D17*X421000Y515000D03*
G54D11*G36*
X408500Y419000D02*Y410000D01*
X417500D01*
Y419000D01*
X408500D01*
G37*
G54D20*X403000Y414500D03*
X393000D03*
G54D21*X403000Y347500D03*
G54D16*X385500Y439500D03*
G54D11*G36*
X457900Y457600D02*Y450400D01*
X465100D01*
Y457600D01*
X457900D01*
G37*
G54D18*X451500Y454000D03*
G54D11*G36*
X457900Y472600D02*Y465400D01*
X465100D01*
Y472600D01*
X457900D01*
G37*
G36*
X225750Y486750D02*Y481250D01*
X231250D01*
Y486750D01*
X225750D01*
G37*
G54D16*X288500Y349000D03*
Y379000D03*
Y363500D03*
Y334000D03*
G54D11*G36*
X285750Y237250D02*Y231750D01*
X291250D01*
Y237250D01*
X285750D01*
G37*
G36*
Y251750D02*Y246250D01*
X291250D01*
Y251750D01*
X285750D01*
G37*
G36*
X235750Y351750D02*Y346250D01*
X241250D01*
Y351750D01*
X235750D01*
G37*
G36*
Y381750D02*Y376250D01*
X241250D01*
Y381750D01*
X235750D01*
G37*
G36*
Y366250D02*Y360750D01*
X241250D01*
Y366250D01*
X235750D01*
G37*
G36*
Y336750D02*Y331250D01*
X241250D01*
Y336750D01*
X235750D01*
G37*
G54D16*X238500Y234500D03*
G54D17*X235000Y282000D03*
X245000D03*
X255000D03*
G54D11*G36*
X252500Y307000D02*Y301000D01*
X258500D01*
Y307000D01*
X252500D01*
G37*
G54D22*X455000Y318000D03*
X436000Y312000D03*
G54D11*G36*
X353000Y247500D02*Y241500D01*
X359000D01*
Y247500D01*
X353000D01*
G37*
G36*
Y274000D02*Y268000D01*
X359000D01*
Y274000D01*
X353000D01*
G37*
G54D17*X356000Y261000D03*
Y234500D03*
G54D11*G36*
X417500Y274000D02*Y268000D01*
X423500D01*
Y274000D01*
X417500D01*
G37*
G54D17*X420500Y261000D03*
X403000Y266000D03*
Y276000D03*
Y286000D03*
G54D11*G36*
X370000Y289000D02*Y283000D01*
X376000D01*
Y289000D01*
X370000D01*
G37*
G54D17*X373000Y276000D03*
Y266000D03*
Y256000D03*
G54D11*G36*
X380000Y242500D02*Y236500D01*
X386000D01*
Y242500D01*
X380000D01*
G37*
G54D17*X393000Y239500D03*
X403000Y256000D03*
X242500Y304000D03*
G54D11*G36*
X235750Y321750D02*Y316250D01*
X241250D01*
Y321750D01*
X235750D01*
G37*
G54D16*X288500Y319000D03*
G54D20*X335000Y301000D03*
Y311000D03*
G54D11*G36*
X107250Y366750D02*Y361250D01*
X112750D01*
Y366750D01*
X107250D01*
G37*
G36*
Y321750D02*Y316250D01*
X112750D01*
Y321750D01*
X107250D01*
G37*
G36*
Y336750D02*Y331250D01*
X112750D01*
Y336750D01*
X107250D01*
G37*
G36*
Y351750D02*Y346250D01*
X112750D01*
Y351750D01*
X107250D01*
G37*
G54D16*X160000Y364000D03*
Y319000D03*
Y394000D03*
Y334000D03*
Y379000D03*
Y349000D03*
G54D11*G36*
X107250Y396750D02*Y391250D01*
X112750D01*
Y396750D01*
X107250D01*
G37*
G36*
Y381750D02*Y376250D01*
X112750D01*
Y381750D01*
X107250D01*
G37*
G36*
X107500Y422000D02*Y416000D01*
X113500D01*
Y422000D01*
X107500D01*
G37*
G54D17*X110500Y409000D03*
G54D11*G36*
X107500Y452000D02*Y446000D01*
X113500D01*
Y452000D01*
X107500D01*
G37*
G54D17*X110500Y439000D03*
G54D11*G36*
X107250Y306750D02*Y301250D01*
X112750D01*
Y306750D01*
X107250D01*
G37*
G36*
Y291750D02*Y286250D01*
X112750D01*
Y291750D01*
X107250D01*
G37*
G36*
X229500Y307000D02*Y301000D01*
X235500D01*
Y307000D01*
X229500D01*
G37*
G36*
X222000Y285000D02*Y279000D01*
X228000D01*
Y285000D01*
X222000D01*
G37*
G36*
X206500Y307000D02*Y301000D01*
X212500D01*
Y307000D01*
X206500D01*
G37*
G36*
X170500Y302000D02*Y296000D01*
X176500D01*
Y302000D01*
X170500D01*
G37*
G54D17*X193500Y299000D03*
X219500Y304000D03*
G54D11*G36*
X170750Y321750D02*Y316250D01*
X176250D01*
Y321750D01*
X170750D01*
G37*
G54D16*X223500Y319000D03*
X160000Y304000D03*
Y289000D03*
G54D11*G36*
X170500Y272000D02*Y266000D01*
X176500D01*
Y272000D01*
X170500D01*
G37*
G54D17*X193500Y269000D03*
G54D16*X173500Y234000D03*
Y249000D03*
G54D11*G36*
X330500Y295500D02*Y286500D01*
X339500D01*
Y295500D01*
X330500D01*
G37*
G36*
Y248000D02*Y239000D01*
X339500D01*
Y248000D01*
X330500D01*
G37*
G54D20*X335000Y253500D03*
Y263500D03*
G54D16*X238500Y249000D03*
G54D17*X235000Y272000D03*
X245000D03*
G54D11*G36*
X220750Y236750D02*Y231250D01*
X226250D01*
Y236750D01*
X220750D01*
G37*
G36*
Y251750D02*Y246250D01*
X226250D01*
Y251750D01*
X220750D01*
G37*
G36*
X222000Y275000D02*Y269000D01*
X228000D01*
Y275000D01*
X222000D01*
G37*
G54D17*X255000Y272000D03*
X265000D03*
X275000D03*
X285000D03*
G54D11*G36*
X210500Y622000D02*Y616000D01*
X216500D01*
Y622000D01*
X210500D01*
G37*
G54D16*X213500Y585500D03*
Y570500D03*
Y555500D03*
G54D17*X118500Y638000D03*
G54D11*G36*
X185900Y531600D02*Y526400D01*
X191100D01*
Y531600D01*
X185900D01*
G37*
G36*
Y591600D02*Y586400D01*
X191100D01*
Y591600D01*
X185900D01*
G37*
G36*
Y576600D02*Y571400D01*
X191100D01*
Y576600D01*
X185900D01*
G37*
G54D17*X223500Y619000D03*
X233500D03*
X243500D03*
X253500D03*
X263500D03*
X273500D03*
G54D11*G36*
X295500Y633500D02*Y627500D01*
X301500D01*
Y633500D01*
X295500D01*
G37*
G54D17*X308500Y630500D03*
G54D11*G36*
X295750Y603250D02*Y597750D01*
X301250D01*
Y603250D01*
X295750D01*
G37*
G36*
Y618250D02*Y612750D01*
X301250D01*
Y618250D01*
X295750D01*
G37*
G36*
X185900Y516600D02*Y511400D01*
X191100D01*
Y516600D01*
X185900D01*
G37*
G54D19*X158500Y514000D03*
Y529000D03*
Y589000D03*
Y574000D03*
G54D11*G36*
X155750Y471750D02*Y466250D01*
X161250D01*
Y471750D01*
X155750D01*
G37*
G36*
X151250Y456750D02*Y451250D01*
X156750D01*
Y456750D01*
X151250D01*
G37*
G54D16*X158500Y484000D03*
Y499000D03*
X208500Y469000D03*
X204000Y454000D03*
G54D11*G36*
X205750Y486750D02*Y481250D01*
X211250D01*
Y486750D01*
X205750D01*
G37*
G54D17*X288500Y439000D03*
X278500D03*
X268500D03*
X258500D03*
X248500D03*
X238500D03*
X228500D03*
G54D11*G36*
X275750Y471750D02*Y466250D01*
X281250D01*
Y471750D01*
X275750D01*
G37*
G36*
Y456750D02*Y451250D01*
X281250D01*
Y456750D01*
X275750D01*
G37*
G54D16*X228500Y469000D03*
Y454000D03*
G54D11*G36*
X301750Y456750D02*Y451250D01*
X307250D01*
Y456750D01*
X301750D01*
G37*
G54D17*X158500Y439000D03*
X148500D03*
X138500D03*
X198500D03*
X188500D03*
X178500D03*
X168500D03*
G54D11*G36*
X122000Y442000D02*Y436000D01*
X128000D01*
Y442000D01*
X122000D01*
G37*
G54D17*X125000Y449000D03*
G54D11*G36*
X205750Y501750D02*Y496250D01*
X211250D01*
Y501750D01*
X205750D01*
G37*
G36*
X238000Y528000D02*Y522000D01*
X244000D01*
Y528000D01*
X238000D01*
G37*
G36*
Y518000D02*Y512000D01*
X244000D01*
Y518000D01*
X238000D01*
G37*
G54D17*X251000Y525000D03*
X261000D03*
X271000D03*
X281000D03*
X291000D03*
X301000D03*
Y515000D03*
X251000D03*
X261000D03*
X271000D03*
X281000D03*
X291000D03*
G54D16*X415000Y858000D03*
G54D11*G36*
X427750Y817750D02*Y811250D01*
X434250D01*
Y817750D01*
X427750D01*
G37*
G54D23*X441000Y814500D03*
G54D11*G36*
X458500Y805000D02*Y799000D01*
X464500D01*
Y805000D01*
X458500D01*
G37*
G54D17*X461500Y792000D03*
G54D16*X397000Y858000D03*
G54D11*G36*
X127750Y817750D02*Y811250D01*
X134250D01*
Y817750D01*
X127750D01*
G37*
G54D23*X141000Y814500D03*
G54D11*G36*
X187750Y817750D02*Y811250D01*
X194250D01*
Y817750D01*
X187750D01*
G37*
G54D23*X201000Y814500D03*
G54D11*G36*
X172250Y810750D02*Y805250D01*
X177750D01*
Y810750D01*
X172250D01*
G37*
G36*
X154250D02*Y805250D01*
X159750D01*
Y810750D01*
X154250D01*
G37*
G36*
X187750Y857750D02*Y851250D01*
X194250D01*
Y857750D01*
X187750D01*
G37*
G54D23*X201000Y854500D03*
G54D16*X175000Y858000D03*
X157000D03*
G54D11*G36*
X214250Y810750D02*Y805250D01*
X219750D01*
Y810750D01*
X214250D01*
G37*
G54D16*X217000Y858000D03*
G54D11*G36*
X107500Y805000D02*Y799000D01*
X113500D01*
Y805000D01*
X107500D01*
G37*
G54D17*X110500Y792000D03*
G54D11*G36*
X247750Y817750D02*Y811250D01*
X254250D01*
Y817750D01*
X247750D01*
G37*
G36*
X232250Y810750D02*Y805250D01*
X237750D01*
Y810750D01*
X232250D01*
G37*
G54D23*X261000Y814500D03*
G54D11*G36*
X292250Y810750D02*Y805250D01*
X297750D01*
Y810750D01*
X292250D01*
G37*
G36*
X274250D02*Y805250D01*
X279750D01*
Y810750D01*
X274250D01*
G37*
G36*
X307750Y857750D02*Y851250D01*
X314250D01*
Y857750D01*
X307750D01*
G37*
G54D23*X321000Y854500D03*
G54D16*X295000Y858000D03*
G54D11*G36*
X247750Y857750D02*Y851250D01*
X254250D01*
Y857750D01*
X247750D01*
G37*
G54D23*X261000Y854500D03*
G54D16*X277000Y858000D03*
X235000D03*
G54D11*G36*
X307750Y817750D02*Y811250D01*
X314250D01*
Y817750D01*
X307750D01*
G37*
G54D23*X321000Y814500D03*
G54D11*G36*
X367750Y857750D02*Y851250D01*
X374250D01*
Y857750D01*
X367750D01*
G37*
G54D23*X381000Y854500D03*
G54D11*G36*
X412250Y810750D02*Y805250D01*
X417750D01*
Y810750D01*
X412250D01*
G37*
G36*
X367750Y817750D02*Y811250D01*
X374250D01*
Y817750D01*
X367750D01*
G37*
G54D23*X381000Y814500D03*
G54D11*G36*
X394250Y810750D02*Y805250D01*
X399750D01*
Y810750D01*
X394250D01*
G37*
G36*
X352250D02*Y805250D01*
X357750D01*
Y810750D01*
X352250D01*
G37*
G54D16*X355000Y858000D03*
G54D11*G36*
X334250Y810750D02*Y805250D01*
X339750D01*
Y810750D01*
X334250D01*
G37*
G54D16*X337000Y858000D03*
G54D11*G36*
X125500Y726000D02*Y720000D01*
X131500D01*
Y726000D01*
X125500D01*
G37*
G54D17*X138500Y723000D03*
X148500D03*
X158500D03*
X168500D03*
X178500D03*
X188500D03*
X178500Y753000D03*
X168500D03*
X158500D03*
X148500D03*
X138500D03*
X128500D03*
G54D11*G36*
X107500Y746000D02*Y740000D01*
X113500D01*
Y746000D01*
X107500D01*
G37*
G54D17*X110500Y733000D03*
X188500Y753000D03*
X223500D03*
X213500D03*
G54D11*G36*
X210500Y726000D02*Y720000D01*
X216500D01*
Y726000D01*
X210500D01*
G37*
G54D17*X223500Y723000D03*
X233500D03*
X243500D03*
Y753000D03*
X233500D03*
X243500Y697500D03*
X233500D03*
X188500D03*
X223500D03*
X213500D03*
G54D11*G36*
X125500Y670500D02*Y664500D01*
X131500D01*
Y670500D01*
X125500D01*
G37*
G54D17*X138500Y667500D03*
X148500D03*
X158500D03*
X168500D03*
X178500D03*
X188500D03*
G54D11*G36*
X210500Y670500D02*Y664500D01*
X216500D01*
Y670500D01*
X210500D01*
G37*
G36*
X195500Y641000D02*Y635000D01*
X201500D01*
Y641000D01*
X195500D01*
G37*
G54D17*X188500Y638000D03*
X178500D03*
X168500D03*
X158500D03*
X148500D03*
X138500D03*
X128500D03*
X178500Y697500D03*
X168500D03*
X158500D03*
X148500D03*
X138500D03*
X128500D03*
G54D11*G36*
X107500Y690500D02*Y684500D01*
X113500D01*
Y690500D01*
X107500D01*
G37*
G54D17*X110500Y677500D03*
X253500Y723000D03*
Y753000D03*
X263500Y723000D03*
Y753000D03*
X273500Y723000D03*
Y753000D03*
Y697500D03*
Y649000D03*
X263500Y697500D03*
Y649000D03*
X253500Y697500D03*
Y649000D03*
X243500D03*
X233500D03*
X223500D03*
X213500D03*
G54D11*G36*
X295500Y726000D02*Y720000D01*
X301500D01*
Y726000D01*
X295500D01*
G37*
G54D17*X308500Y723000D03*
X318500D03*
X328500D03*
X338500D03*
Y753000D03*
X328500D03*
X318500D03*
X308500D03*
X298500D03*
X348500Y723000D03*
X358500D03*
Y753000D03*
X348500D03*
G54D11*G36*
X338250Y701250D02*Y694750D01*
X344750D01*
Y701250D01*
X338250D01*
G37*
G54D16*X364500Y708500D03*
G54D11*G36*
X361750Y696250D02*Y690750D01*
X367250D01*
Y696250D01*
X361750D01*
G37*
G54D23*X351500Y698000D03*
G54D11*G36*
X307750Y701250D02*Y694750D01*
X314250D01*
Y701250D01*
X307750D01*
G37*
G54D23*X321000Y698000D03*
G54D11*G36*
X380500Y726000D02*Y720000D01*
X386500D01*
Y726000D01*
X380500D01*
G37*
G54D17*X393500Y723000D03*
X403500D03*
X413500Y753000D03*
X403500D03*
X393500D03*
X383500D03*
X413500Y723000D03*
G54D11*G36*
X411750Y711250D02*Y705750D01*
X417250D01*
Y711250D01*
X411750D01*
G37*
G54D16*X414500Y693500D03*
G54D17*X223500Y667500D03*
X233500D03*
X243500D03*
X253500D03*
X263500D03*
X273500D03*
X318500Y660500D03*
X308500D03*
X298500D03*
X358500D03*
X348500D03*
X338500D03*
X328500D03*
X443500D03*
X433500D03*
X423500D03*
X413500D03*
G54D11*G36*
X458500Y653500D02*Y647500D01*
X464500D01*
Y653500D01*
X458500D01*
G37*
G54D17*X403500Y660500D03*
X393500D03*
X383500D03*
X423500Y723000D03*
X433500D03*
X443500D03*
G54D11*G36*
X427750Y701250D02*Y694750D01*
X434250D01*
Y701250D01*
X427750D01*
G37*
G54D23*X441000Y698000D03*
G54D17*X443500Y753000D03*
X433500D03*
X423500D03*
G54D11*G36*
X458500Y746000D02*Y740000D01*
X464500D01*
Y746000D01*
X458500D01*
G37*
G54D17*X461500Y733000D03*
G54D24*X328500Y762000D03*
X323500Y765500D03*
X423500D03*
X348500Y769000D03*
X393500D03*
X403000D03*
X353500Y772500D03*
X376000Y746000D03*
Y741000D03*
X366000Y730000D03*
Y735000D03*
X433500Y765500D03*
X451000Y730000D03*
Y735000D03*
X348500Y786500D03*
X375000Y802000D03*
X367000Y798000D03*
X382000D03*
X321000Y797500D03*
X330500Y790000D03*
X328500Y713500D03*
X452000Y797000D03*
X441000Y797500D03*
X452000Y776000D03*
Y792000D03*
X393500Y780000D03*
X282000Y798000D03*
X290000Y802000D03*
X248500Y776000D03*
X273500D03*
X263500Y779500D03*
X258500Y772500D03*
X253500Y787000D03*
X268500Y783000D03*
X296000Y793500D03*
X291000Y746000D03*
Y741000D03*
X253000Y797500D03*
X248500Y769000D03*
X281500Y696500D03*
X133500Y762000D03*
X148500Y769000D03*
X119500Y746000D03*
X120000Y802000D03*
X141000Y798000D03*
X110500Y785500D03*
Y781000D03*
X238500Y779500D03*
X205000Y802000D03*
X197000Y798000D03*
X218500Y765500D03*
X233500Y772500D03*
X223500Y776000D03*
X206000Y746000D03*
Y741000D03*
X196000Y730000D03*
Y735000D03*
X178500Y762000D03*
X168500Y772500D03*
X178500Y776000D03*
Y706500D03*
X183500Y717000D03*
Y710000D03*
X188500Y713500D03*
X148500D03*
X133500Y710000D03*
X119500Y741000D03*
X110500Y726500D03*
Y722000D03*
X223500Y706500D03*
X206000Y691000D03*
Y685500D03*
X196000Y674000D03*
Y679500D03*
X218500Y655000D03*
X238500D03*
X235000Y658500D03*
X228500Y717000D03*
Y703000D03*
X206000Y637000D03*
Y642500D03*
X199500Y630500D03*
Y625500D03*
X195000D03*
Y630500D03*
X173500Y662000D03*
Y655000D03*
X178500Y651500D03*
X158500Y655000D03*
X132000D03*
X119500Y652500D03*
Y657500D03*
Y685500D03*
Y690500D03*
X110500Y671000D03*
Y666500D03*
G54D17*X102000Y629500D03*
Y619000D03*
X122500D03*
X111500D03*
Y629500D03*
G54D24*X170000Y499000D03*
X172000Y484000D03*
X173500Y469000D03*
X178500Y454000D03*
X185000D03*
X213500Y421000D03*
Y415500D03*
X249500Y388000D03*
X188500Y394000D03*
X209500Y385000D03*
X184000Y469000D03*
X101000Y468500D03*
Y458000D03*
X135000D03*
Y468500D03*
X194500Y464000D03*
X190500Y459500D03*
X193500Y364000D03*
X188500Y379000D03*
X175000Y610000D03*
X197500Y603000D03*
Y597000D03*
X206000Y591500D03*
X194500Y476000D03*
X199500Y491500D03*
X206000Y547500D03*
X211000D03*
X205500Y507000D03*
X210500D03*
X215500D03*
G54D17*X196500Y551500D03*
G54D24*X283500Y399500D03*
X268500Y394000D03*
X283500Y447500D03*
X290500Y432000D03*
Y427500D03*
X291000Y311000D03*
X319500Y310500D03*
Y314500D03*
Y301000D03*
G54D25*X373500Y307500D03*
Y311000D03*
G54D24*X297000Y266000D03*
Y271500D03*
X319500Y262000D03*
Y258000D03*
X297000Y277000D03*
X345500Y281000D03*
Y273500D03*
X128000Y346000D03*
X122500Y341500D03*
X128000Y319000D03*
X116500Y331500D03*
X248500Y298500D03*
X201500Y304500D03*
Y300500D03*
X230000Y291500D03*
X217000Y277000D03*
Y287000D03*
Y267000D03*
X298500Y713500D03*
X273500Y706500D03*
X291000Y691000D03*
Y685500D03*
X296500Y696500D03*
X281000Y730000D03*
Y735000D03*
Y674000D03*
Y679500D03*
X268500Y662000D03*
X289500Y647500D03*
X291000Y652500D03*
X290500Y597000D03*
X338500Y676000D03*
X353500Y669000D03*
X332500Y541000D03*
X337500D03*
X327000Y615500D03*
Y541000D03*
X376000Y653500D03*
X375000Y608000D03*
X380500Y700000D03*
X376000Y648500D03*
X366000Y637500D03*
Y642500D03*
X304500Y686000D03*
X371500Y710000D03*
X253500Y469000D03*
X248500Y454000D03*
Y610000D03*
X281000Y626500D03*
X283000Y632000D03*
X282000Y603000D03*
Y608500D03*
X451000Y637500D03*
Y642500D03*
X438500Y624500D03*
X388500Y666000D03*
X390500Y615000D03*
Y585500D03*
X428500Y666000D03*
G54D17*X432000Y547500D03*
G54D24*X418500Y673500D03*
X417000Y591500D03*
X419500Y688000D03*
X398500Y683000D03*
X393500Y686500D03*
X398500Y670000D03*
X408500Y677000D03*
G54D17*X470500Y619000D03*
G54D24*X408500Y555500D03*
X397000Y570500D03*
X403000Y541000D03*
X408500D03*
X397000D03*
X390500D03*
G54D17*X383500Y547500D03*
G54D24*X313500Y713500D03*
X313000Y597000D03*
X318500Y686500D03*
X303500Y669500D03*
X308500Y673500D03*
X328500Y683000D03*
X323500Y669500D03*
X304000Y678000D03*
X304500Y696500D03*
G54D17*X334500Y427000D03*
X325500D03*
G54D26*G54D27*G54D28*G54D29*G54D30*G54D27*G54D28*G54D30*G54D27*G54D30*G54D27*G54D30*G54D27*G54D28*G54D31*G54D27*G54D14*G54D27*G54D28*G54D27*G54D14*G54D27*G54D17*G54D32*G54D17*G54D33*G54D17*G54D28*G54D29*G54D32*G54D14*G54D28*G54D17*G54D33*G54D14*G54D29*G54D27*G54D28*G54D27*G54D26*G54D32*G54D27*G54D30*G54D27*G54D30*G54D27*G54D17*G54D27*G54D26*G54D27*G54D28*G54D27*G54D17*G54D27*G54D28*G54D27*G54D28*G54D26*G54D30*G54D27*G54D28*G54D31*G54D26*G54D30*G54D27*G54D31*G54D27*G54D30*G54D27*G54D14*G54D30*G54D28*G54D27*G54D28*G54D27*G54D26*G54D34*G54D27*G54D34*G54D27*G54D34*G54D27*G54D26*G54D27*G54D34*G54D27*G54D34*G54D27*G54D34*G54D27*G54D34*G54D27*G54D34*G54D27*G54D34*G54D27*G54D30*G54D27*G54D30*G54D28*G54D30*G54D27*G54D30*G54D34*G54D27*G54D34*G54D30*G54D27*G54D30*G54D27*G54D30*G54D34*G54D30*G54D27*G54D11*G54D35*G54D11*G54D35*G54D11*G54D36*G54D11*G54D35*G54D11*G54D35*G54D11*G54D35*G54D11*G54D35*G54D37*X480500Y873000D02*Y572000D01*
X459500Y569500D02*X478000D01*
X92500Y873000D02*Y572000D01*
X122000Y884000D02*X451000D01*
X119500Y563500D02*Y531500D01*
X95000Y569500D02*X113500D01*
X95000Y875500D02*X113500D01*
X453500Y563500D02*Y531500D01*
X459500Y875500D02*X478000D01*
X95000Y525400D02*X113500D01*
X95000Y219500D02*X113500D01*
X459500Y525400D02*X478000D01*
X480500Y523000D02*Y222000D01*
X122000Y211000D02*X451000D01*
X459500Y219500D02*X478000D01*
X92500Y523000D02*Y222000D01*
X480500Y572000D02*G75*G02X478000Y569500I-2500J0D01*G01*
Y525400D02*G75*G02X480500Y522900I0J-2500D01*G01*
X453500Y563500D02*G75*G02X459500Y569500I6000J0D01*G01*
Y525400D02*G75*G02X453500Y531400I0J6000D01*G01*
X119500Y881500D02*G75*G02X122000Y884000I2500J0D01*G01*
X92500Y873000D02*G75*G02X95000Y875500I2500J0D01*G01*
X113500Y569500D02*G75*G02X119500Y563500I0J-6000D01*G01*
Y881500D02*G75*G02X113500Y875500I-6000J0D01*G01*
X95000Y569500D02*G75*G02X92500Y572000I0J2500D01*G01*
X119500Y531400D02*G75*G02X113500Y525400I-6000J0D01*G01*
X451000Y884000D02*G75*G02X453500Y881500I0J-2500D01*G01*
X478000Y875500D02*G75*G02X480500Y873000I0J-2500D01*G01*
X459500Y875500D02*G75*G02X453500Y881500I0J6000D01*G01*
X92500Y522900D02*G75*G02X95000Y525400I2500J0D01*G01*
X122000Y211000D02*G75*G02X119500Y213500I0J2500D01*G01*
X95100Y219500D02*G75*G02X92600Y222000I0J2500D01*G01*
X113500Y219500D02*G75*G02X119500Y213500I0J-6000D01*G01*
X453500D02*G75*G02X451000Y211000I-2500J0D01*G01*
X480500Y222000D02*G75*G02X478000Y219500I-2500J0D01*G01*
X453500Y213500D02*G75*G02X459500Y219500I6000J0D01*G01*
M02*
