M48
INCH
T11C0.020
T14C0.025
T16C0.060
T27C0.038
T28C0.030
T29C0.042
T30C0.028
T31C0.022
T32C0.050
T33C0.130
T34C0.043
T35C0.035
T50C0.012
%
T50
X037350Y030750
X037350Y031100
T11
X032850Y076200
X032350Y076550
X042350Y076550
X034850Y076900
X039350Y076900
X040300Y076900
X035350Y077250
X037600Y074600
X037600Y074100
X036600Y073000
X036600Y073500
X043350Y076550
X045100Y073000
X045100Y073500
X034850Y078650
X037500Y080200
X036700Y079800
X038200Y079800
X032100Y079750
X033050Y079000
X032850Y071350
X045200Y079700
X044100Y079750
X045200Y077600
X045200Y079200
X039350Y078000
X028200Y079800
X029000Y080200
X024850Y077600
X027350Y077600
X026350Y077950
X025850Y077250
X025350Y078700
X026850Y078300
X029600Y079350
X029100Y074600
X029100Y074100
X025300Y079750
X024850Y076900
X028150Y069650
X028200Y060300
X028150Y061100
X013350Y076200
X014850Y076900
X011950Y074600
X012000Y080200
X014100Y079800
X011050Y078550
X011050Y078100
X023850Y077950
X020500Y080200
X019700Y079800
X021850Y076550
X023350Y077250
X022350Y077600
X020600Y074600
X020600Y074100
X019600Y073000
X019600Y073500
X017850Y076200
X016850Y077250
X017850Y077600
X017850Y070650
X018350Y071700
X018350Y071000
X018850Y071350
X014850Y071350
X013350Y071000
X011950Y074100
X011050Y072650
X011050Y072200
X022350Y070650
X020600Y069100
X020600Y068550
X019600Y067400
X019600Y067950
X021850Y065500
X023850Y065500
X023500Y065850
X022850Y071700
X022850Y070300
X023400Y058550
X022400Y060700
X020600Y063700
X020600Y064250
X019950Y063050
X019950Y062550
X020600Y059150
X019500Y062550
X019500Y063050
X017350Y066200
X017350Y065500
X017850Y065150
X015850Y065500
X013200Y065500
X011950Y065250
X011950Y065750
X011950Y068550
X011950Y069050
X011050Y067100
X011050Y066650
X017000Y049900
X017200Y048400
X017350Y046900
X017850Y045400
X018500Y045400
X021350Y042100
X021350Y041550
X018400Y046900
X013500Y045800
X013500Y046850
X019450Y046400
X019050Y045950
X010100Y046850
X010100Y045800
X017500Y061000
X019750Y060300
X019750Y059700
X019450Y047600
X019950Y049150
X020600Y054750
X021100Y054750
X020550Y050700
X021050Y050700
X021550Y050700
X019350Y036400
X018850Y037900
X018850Y039400
X020950Y038500
X012800Y034600
X012250Y034150
X011650Y033150
X012800Y031900
X020150Y030450
X020150Y030050
X023000Y029150
X021700Y027700
X021700Y028700
X021700Y026700
X029850Y071350
X027350Y070650
X029100Y069100
X029100Y068550
X029650Y069650
X028100Y073000
X028100Y073500
X028100Y062650
X028300Y063200
X028100Y067400
X028100Y067950
X026850Y066200
X024850Y061000
X028950Y064750
X029100Y065250
X029050Y043200
X033850Y067600
X035350Y066900
X033250Y054100
X033750Y054100
X032200Y058850
X029750Y057700
X045100Y063750
X045100Y064250
X043850Y062450
X038850Y066600
X038800Y061550
X038800Y058550
X040300Y059700
X042850Y066600
X041850Y067350
X041700Y059150
X041950Y068800
X039850Y068300
X039350Y068650
X039850Y067000
X040850Y067700
X040850Y055550
X040300Y054100
X040850Y054100
X039250Y057050
X039700Y054100
X039050Y054100
X038400Y054100
X031350Y071350
X031300Y059700
X032700Y061550
X032700Y054100
X031850Y068650
X030350Y066950
X030850Y067350
X032850Y068300
X032350Y066950
X030450Y068600
X037600Y065350
X037500Y060800
X038050Y070000
X037600Y064850
X036600Y063750
X036600Y064250
X030400Y067800
X030450Y069650
X037150Y071000
X025350Y046900
X024850Y045400
X024950Y038800
X028350Y039950
X028350Y044750
X026850Y039400
X024850Y029850
X029050Y042750
X029100Y031100
X031950Y031050
X031950Y031450
X031950Y030100
X029700Y026600
X029700Y027700
X029700Y027150
X031950Y026200
X031950Y025800
X034550Y027350
X034550Y028100
T31
X018850Y051400
X015850Y051400
X018850Y054400
X015850Y054400
X018850Y055900
X015850Y055900
X018850Y060400
X015850Y060400
X018850Y061900
X015850Y061900
X018850Y052900
X018850Y057400
X015850Y052900
X015850Y057400
X018850Y058900
X015850Y058900
T14
X042550Y043950
X038550Y043950
X030450Y045400
X034450Y045400
X030550Y027450
X030550Y023450
T30
X026350Y061900
X027350Y061900
X029850Y063050
X030850Y063050
X031850Y063050
X032850Y063050
X033850Y063050
X034850Y063050
X035850Y063050
X038350Y063050
X039350Y063050
X040350Y063050
X041350Y063050
X042350Y063050
X043350Y063050
X044350Y063050
X040300Y025600
X040300Y026600
X040300Y027600
X040300Y028600
X037300Y028600
X037300Y027600
X037300Y026600
X037300Y025600
X016850Y040900
X016850Y043900
X017850Y040900
X017850Y043900
X018850Y040900
X019850Y040900
X019850Y043900
X018850Y043900
X013850Y040900
X014850Y040900
X015850Y040900
X015850Y043900
X014850Y043900
X013850Y043900
X022850Y040900
X023850Y040900
X024850Y040900
X025850Y040900
X026850Y040900
X027850Y040900
X028850Y040900
X028850Y043900
X027850Y043900
X026850Y043900
X025850Y043900
X024850Y043900
X023850Y043900
X022850Y043900
X022350Y061900
X023350Y061900
X024350Y061900
X025350Y061900
X021350Y061900
X012850Y072300
X013850Y072300
X014850Y072300
X015850Y072300
X016850Y072300
X017850Y072300
X018850Y072300
X017850Y075300
X016850Y075300
X015850Y075300
X014850Y075300
X013850Y075300
X012850Y075300
X018850Y075300
X022350Y075300
X021350Y075300
X021350Y072300
X022350Y072300
X023350Y072300
X024350Y072300
X024350Y075300
X023350Y075300
X024350Y069750
X023350Y069750
X018850Y069750
X022350Y069750
X021350Y069750
X017850Y069750
X016850Y069750
X015850Y069750
X014850Y069750
X013850Y069750
X012850Y069750
X012850Y066750
X013850Y066750
X014850Y066750
X015850Y066750
X016850Y066750
X017850Y066750
X018850Y066750
X021350Y066750
X025350Y072300
X025350Y075300
X026350Y072300
X026350Y075300
X027350Y072300
X027350Y075300
X027350Y069750
X027350Y064900
X026350Y069750
X026350Y064900
X025350Y069750
X025350Y064900
X024350Y064900
X023350Y064900
X022350Y064900
X021350Y064900
X029850Y072300
X030850Y072300
X031850Y072300
X032850Y072300
X033850Y072300
X033850Y075300
X032850Y075300
X031850Y075300
X030850Y075300
X029850Y075300
X034850Y072300
X035850Y072300
X035850Y075300
X034850Y075300
X038350Y072300
X039350Y072300
X040350Y072300
X041350Y075300
X040350Y075300
X039350Y075300
X038350Y075300
X041350Y072300
X022350Y066750
X023350Y066750
X024350Y066750
X025350Y066750
X026350Y066750
X027350Y066750
X042350Y072300
X043350Y072300
X044350Y072300
X044350Y066050
X043350Y066050
X042350Y066050
X044350Y075300
X043350Y075300
X042350Y075300
X035850Y066050
X034850Y066050
X033850Y066050
X032850Y066050
X031850Y066050
X030850Y066050
X029850Y066050
X041350Y066050
X040350Y066050
X039350Y066050
X038350Y066050
T28
X036550Y046900
X037550Y048400
X042550Y048400
X036550Y048400
X037550Y046900
X042550Y046900
X042550Y045400
X026300Y060700
X029850Y061550
X029050Y060050
X029850Y060050
X042550Y058550
X042550Y057050
X042550Y055550
X037550Y058550
X036500Y057050
X036500Y058550
X037550Y057050
X034450Y057050
X035500Y057050
X035500Y058550
X034450Y058550
X037550Y055550
X035500Y055550
X036500Y055550
X034450Y055550
X034850Y061550
X035850Y061550
X040850Y061550
X040850Y060050
X035850Y060050
X034850Y060050
X031550Y046900
X031550Y048400
X027850Y048400
X022850Y048400
X020850Y046900
X020400Y045400
X020850Y048400
X015850Y048400
X020850Y049900
X015850Y049900
X024050Y060050
X028850Y030400
X030550Y030400
X030550Y029400
X037550Y045400
X032550Y043950
X037550Y043950
X027850Y045400
X028850Y039400
X028850Y034900
X028850Y037900
X028850Y036350
X035600Y024450
X035600Y023450
X038300Y023950
X039300Y023950
X035600Y027100
X035600Y026100
X042050Y027100
X042050Y026100
X015850Y046900
X015400Y045400
X011050Y044900
X011050Y043900
X017350Y036400
X016000Y036400
X017350Y034900
X016000Y034900
X017350Y033400
X011000Y039400
X011050Y041900
X011050Y040900
X016000Y039400
X011000Y037900
X016000Y037900
X017350Y037900
X017350Y039400
X023850Y031900
X028850Y031900
X017350Y031900
X019350Y029900
X026550Y030400
X027850Y030400
X022350Y036400
X022350Y034900
X011000Y036400
X011000Y031900
X011000Y033400
X011000Y034900
X016000Y031900
X016000Y033400
X016000Y030400
X011000Y030400
X011000Y028900
X016000Y028900
X017350Y029900
X017350Y023400
X017350Y024900
X017350Y026900
X019350Y026900
X022850Y046900
X022850Y045400
X023850Y039400
X023850Y034900
X023850Y037900
X023850Y036350
X023850Y033400
X028850Y033400
X022350Y039400
X022350Y037900
X022350Y033400
X022350Y031900
X027850Y046900
X028850Y023450
X023850Y023450
X022350Y023400
X028850Y024900
X023850Y024900
X022350Y024900
X023250Y030400
X024250Y030400
X020950Y030400
X021950Y030400
X025550Y030400
X021350Y058550
X021350Y057050
X021350Y055550
X021300Y060700
X027400Y057050
X026350Y057050
X028400Y057050
X026350Y058550
X026350Y055550
X029450Y058550
X027400Y058550
X028400Y058550
X027400Y055550
X028400Y055550
X029450Y057050
X029450Y055550
X041500Y085800
X046150Y080200
X046150Y079200
X039700Y085800
X017500Y080800
X015700Y080800
X017500Y085800
X015700Y085800
X021700Y080800
X021700Y085800
X011050Y080200
X011050Y079200
X023500Y080800
X029500Y080800
X027700Y080800
X029500Y085800
X027700Y085800
X023500Y085800
X041500Y080800
X039700Y080800
X035500Y080800
X035500Y085800
X033700Y080800
X033700Y085800
X011050Y074300
X011050Y073300
X011050Y068750
X011050Y067750
X036450Y070850
X036450Y069350
X041450Y070850
X041450Y069350
X046150Y074300
X046150Y073300
X046150Y065050
X046150Y064050
T35
X010200Y062950
X010200Y061900
X012250Y061900
X011150Y061900
X011150Y062950
X019650Y055150
X043200Y054750
X047050Y061900
X038250Y054750
X032550Y042700
X033450Y042700
T27
X042100Y050200
X046150Y043600
X044150Y043600
X045150Y043600
X042100Y053750
X042100Y052750
X042100Y051200
X034100Y052500
X035100Y052500
X036100Y052500
X037100Y052500
X038100Y052500
X039100Y052500
X034100Y051500
X029100Y051500
X030100Y051500
X031100Y051500
X035100Y051500
X036100Y051500
X037100Y051500
X038100Y051500
X039100Y051500
X012500Y043900
X012500Y044900
X024100Y052500
X025100Y052500
X026100Y052500
X024100Y051500
X025100Y051500
X026100Y051500
X027100Y052500
X028100Y052500
X027100Y051500
X028100Y051500
X029100Y052500
X030100Y052500
X031100Y052500
X022500Y027200
X023500Y027200
X024500Y027200
X025500Y027200
X026500Y027200
X027500Y027200
X028500Y027200
X022500Y028200
X023500Y028200
X024500Y028200
X025500Y028200
X026500Y028200
X027500Y028200
X028500Y028200
X019850Y063800
X018850Y063800
X017850Y063800
X016850Y063800
X015850Y063800
X014850Y063800
X013850Y063800
X012850Y063800
X011850Y063800
T29
X045150Y045400
X044150Y045400
X046150Y045400
X046150Y046900
X045150Y046900
X044150Y046900
T34
X043100Y081450
X044100Y081450
X013100Y081450
X014100Y081450
X019100Y081450
X020100Y081450
X019100Y085450
X020100Y085450
X025100Y081450
X026100Y081450
X031100Y085450
X032100Y085450
X025100Y085450
X026100Y085450
X031100Y081450
X032100Y081450
X037100Y085450
X038100Y085450
X037100Y081450
X038100Y081450
X034150Y069800
X035150Y069800
X031100Y069800
X032100Y069800
X043100Y069800
X044100Y069800
T32
X035600Y031200
X045500Y041800
X043600Y031200
X045500Y031800
T16
X033500Y031100
X033500Y029100
X033500Y030100
X041300Y041450
X040300Y041450
X039300Y041450
X034450Y041450
X033450Y041450
X032450Y041450
X033500Y024350
X033500Y025350
X033500Y026350
T33
X040300Y034750
X033450Y034750
M30
