G04 start of page 6 for group 12 idx 12 *
G04 Title: (unknown), box meca *
G04 Creator: pcb 20091103 *
G04 CreationDate: Fri May 24 14:26:31 2024 UTC *
G04 For: bh *
G04 Format: Gerber/RS-274X *
G04 PCB-Dimensions: 600000 1100000 *
G04 PCB-Coordinate-Origin: lower left *
%MOIN*%
%FSLAX25Y25*%
%LNGROUP12*%
%ADD11C,0.0200*%
%ADD14C,0.0250*%
%ADD16C,0.0600*%
%ADD17C,0.0550*%
%ADD18C,0.0720*%
%ADD19C,0.0520*%
%ADD20C,0.0900*%
%ADD21C,0.1500*%
%ADD22C,0.0800*%
%ADD23C,0.0650*%
%ADD24C,0.0360*%
%ADD25C,0.0240*%
%ADD26C,0.1299*%
%ADD27C,0.0380*%
%ADD28C,0.0300*%
%ADD29C,0.0420*%
%ADD30C,0.0280*%
%ADD31C,0.0220*%
%ADD32C,0.0500*%
%ADD33C,0.1300*%
%ADD34C,0.0430*%
%ADD35C,0.0350*%
%ADD36C,0.0118*%
%ADD37C,0.0060*%
%ADD40C,0.0102*%
G54D37*X450200Y591900D02*X456200D01*
X453200Y855900D02*Y849900D01*
X450100Y852900D02*X456200D01*
X453200Y594900D02*Y588900D01*
X450100Y502800D02*X456200D01*
X453200Y505800D02*Y499800D01*
X83000Y530200D02*X79000D01*
Y562100D01*
X83000D01*
X117100Y502800D02*X123200D01*
X120200Y505800D02*Y499800D01*
X461000Y908500D02*X112500D01*
X504500Y922500D02*X69000D01*
X83000Y562100D02*Y879000D01*
X120200Y594900D02*Y588900D01*
X117100Y591900D02*X123200D01*
X120200Y855900D02*Y849900D01*
X117000Y852900D02*X123100D01*
X69000Y171200D02*Y922500D01*
X83000Y214800D02*Y530300D01*
X78000Y181000D02*Y215000D01*
X83000D01*
X78500Y879000D02*Y912500D01*
X78600Y879000D02*X83000D01*
X120200Y244800D02*Y238800D01*
X117100Y241800D02*X123200D01*
X78500Y912500D02*X112500D01*
Y908500D01*
X69000Y171200D02*X504500D01*
X113500Y184800D02*X460400Y185000D01*
X460500Y181000D02*X494500D01*
X113500Y184800D02*Y181000D01*
X78000D01*
X460500Y185000D02*Y181000D01*
X494500Y214500D02*X490500D01*
X494500Y181000D02*Y214500D01*
X450100Y241800D02*X456200D01*
X453200Y244800D02*Y238800D01*
X490600Y214400D02*Y530300D01*
X504500Y171200D02*Y922500D01*
X494500Y562000D02*X490600D01*
Y530300D02*X494500D01*
Y562000D01*
X506900Y547500D02*X507300D01*
X490600Y879000D02*X495000D01*
X508700Y547500D02*X513200D01*
X514200D02*X514700D01*
X515800D02*X518900D01*
X520300D02*X520800D01*
X521900D02*X525600D01*
X516000Y955000D02*X512000D01*
X461000Y912500D02*X495000D01*
X461000D02*Y908500D01*
X490600Y562000D02*Y879000D01*
X495000D02*Y912500D01*
X460400Y547600D02*G75*G02X476200Y563400I15800J0D01*G01*
G75*G02X492000Y547600I0J-15800D01*G01*
Y547400D02*G75*G02X476200Y531600I-15800J0D01*G01*
G75*G02X460400Y547400I0J15800D01*G01*
X460500Y894500D02*G75*G02X476300Y910300I15800J0D01*G01*
G75*G02X492100Y894500I0J-15800D01*G01*
Y894300D02*G75*G02X476300Y878500I-15800J0D01*G01*
G75*G02X460500Y894300I0J15800D01*G01*
X460200Y199000D02*G75*G02X476000Y214800I15800J0D01*G01*
G75*G02X491800Y199000I0J-15800D01*G01*
Y198800D02*G75*G02X476000Y183000I-15800J0D01*G01*
G75*G02X460200Y198800I0J15800D01*G01*
X81800Y199000D02*G75*G02X97600Y214800I15800J0D01*G01*
X81800Y547600D02*G75*G02X97600Y563400I15800J0D01*G01*
G75*G02X113400Y547600I0J-15800D01*G01*
Y547400D02*G75*G02X97600Y531600I-15800J0D01*G01*
G75*G02X81800Y547400I0J15800D01*G01*
X97600Y214800D02*G75*G02X113400Y199000I0J-15800D01*G01*
Y198800D02*G75*G02X97600Y183000I-15800J0D01*G01*
G75*G02X81800Y198800I0J15800D01*G01*
X82000Y894500D02*G75*G02X97800Y910300I15800J0D01*G01*
G75*G02X113600Y894500I0J-15800D01*G01*
Y894300D02*G75*G02X97800Y878500I-15800J0D01*G01*
G75*G02X82000Y894300I0J15800D01*G01*
G54D40*X215370Y1081500D02*X219180D01*
X214100Y1082770D02*X215370Y1081500D01*
X214100Y1090390D02*Y1082770D01*
Y1090390D02*X215370Y1091660D01*
X219180D01*
X222230Y1086580D02*Y1082770D01*
X223500Y1081500D01*
X226040D01*
X227310Y1082770D01*
Y1086580D02*Y1082770D01*
X231631Y1091660D02*Y1082770D01*
X232901Y1081500D01*
X230361Y1087850D02*X232901D01*
X240015Y1085310D02*Y1082770D01*
Y1085310D02*X241285Y1086580D01*
X243825D01*
X245095Y1085310D01*
Y1082770D01*
X243825Y1081500D02*X245095Y1082770D01*
X241285Y1081500D02*X243825D01*
X240015Y1082770D02*X241285Y1081500D01*
X248146Y1086580D02*Y1082770D01*
X249416Y1081500D01*
X251956D01*
X253226Y1082770D01*
Y1086580D02*Y1082770D01*
X257546Y1091660D02*Y1082770D01*
X258816Y1081500D01*
X256276Y1087850D02*X258816D01*
X267201Y1090390D02*Y1081500D01*
Y1090390D02*X268471Y1091660D01*
X269741D01*
X265931Y1086580D02*X268471D01*
X272283Y1085310D02*Y1082770D01*
Y1085310D02*X273553Y1086580D01*
X276093D01*
X277363Y1085310D01*
Y1082770D01*
X276093Y1081500D02*X277363Y1082770D01*
X273553Y1081500D02*X276093D01*
X272283Y1082770D02*X273553Y1081500D01*
X281684Y1085310D02*Y1081500D01*
Y1085310D02*X282954Y1086580D01*
X285494D01*
X280414D02*X281684Y1085310D01*
X294386Y1091660D02*Y1082770D01*
X295656Y1081500D01*
X293116Y1087850D02*X295656D01*
X298199Y1091660D02*Y1081500D01*
Y1085310D02*X299469Y1086580D01*
X302009D01*
X303279Y1085310D01*
Y1081500D01*
X307599D02*X311409D01*
X306329Y1082770D02*X307599Y1081500D01*
X306329Y1085310D02*Y1082770D01*
Y1085310D02*X307599Y1086580D01*
X310139D01*
X311409Y1085310D01*
X306329Y1084040D02*X311409D01*
Y1085310D02*Y1084040D01*
X320302Y1081500D02*X322842D01*
X321572Y1091660D02*Y1081500D01*
X319032Y1089120D02*X321572Y1091660D01*
X325893D02*X330973D01*
X325893D02*Y1086580D01*
X327163Y1087850D01*
X329703D01*
X330973Y1086580D01*
Y1082770D01*
X329703Y1081500D02*X330973Y1082770D01*
X327163Y1081500D02*X329703D01*
X325893Y1082770D02*X327163Y1081500D01*
X334023D02*X339103Y1086580D01*
Y1090390D02*Y1086580D01*
X337833Y1091660D02*X339103Y1090390D01*
X335293Y1091660D02*X337833D01*
X334023Y1090390D02*X335293Y1091660D01*
X334023Y1090390D02*Y1087850D01*
X335293Y1086580D01*
X339103D01*
X343424Y1081500D02*X345964D01*
X344694Y1091660D02*Y1081500D01*
X342154Y1089120D02*X344694Y1091660D01*
X349014Y1086580D02*X352824D01*
X349014Y1081500D02*X354094D01*
X349014Y1091660D02*Y1081500D01*
Y1091660D02*X354094D01*
X362225D02*X363495Y1090390D01*
X358415Y1091660D02*X362225D01*
X357145Y1090390D02*X358415Y1091660D01*
X357145Y1090390D02*Y1087850D01*
X358415Y1086580D01*
X362225D01*
X363495Y1085310D01*
Y1082770D01*
X362225Y1081500D02*X363495Y1082770D01*
X358415Y1081500D02*X362225D01*
X357145Y1082770D02*X358415Y1081500D01*
X371117Y1085310D02*Y1082770D01*
Y1085310D02*X372387Y1086580D01*
X374927D01*
X376197Y1085310D01*
Y1082770D01*
X374927Y1081500D02*X376197Y1082770D01*
X372387Y1081500D02*X374927D01*
X371117Y1082770D02*X372387Y1081500D01*
X380518Y1085310D02*Y1081500D01*
Y1085310D02*X381788Y1086580D01*
X384328D01*
X379248D02*X380518Y1085310D01*
X393220Y1091660D02*Y1082770D01*
X394490Y1081500D01*
X391950Y1087850D02*X394490D01*
X397033Y1091660D02*Y1081500D01*
Y1085310D02*X398303Y1086580D01*
X400843D01*
X402113Y1085310D01*
Y1081500D01*
X406433D02*X410243D01*
X405163Y1082770D02*X406433Y1081500D01*
X405163Y1085310D02*Y1082770D01*
Y1085310D02*X406433Y1086580D01*
X408973D01*
X410243Y1085310D01*
X405163Y1084040D02*X410243D01*
Y1085310D02*Y1084040D01*
X419136Y1081500D02*X421676D01*
X420406Y1091660D02*Y1081500D01*
X417866Y1089120D02*X420406Y1091660D01*
X424726D02*X429806D01*
X424726D02*Y1086580D01*
X425996Y1087850D01*
X428536D01*
X429806Y1086580D01*
Y1082770D01*
X428536Y1081500D02*X429806Y1082770D01*
X425996Y1081500D02*X428536D01*
X424726Y1082770D02*X425996Y1081500D01*
X432857D02*X437937Y1086580D01*
Y1090390D02*Y1086580D01*
X436667Y1091660D02*X437937Y1090390D01*
X434127Y1091660D02*X436667D01*
X432857Y1090390D02*X434127Y1091660D01*
X432857Y1090390D02*Y1087850D01*
X434127Y1086580D01*
X437937D01*
X442258Y1081500D02*X444798D01*
X443528Y1091660D02*Y1081500D01*
X440988Y1089120D02*X443528Y1091660D01*
X447848D02*Y1090390D01*
X454198Y1084040D01*
Y1081500D01*
X447848Y1084040D02*Y1081500D01*
Y1084040D02*X454198Y1090390D01*
Y1091660D02*Y1090390D01*
X457249Y1091660D02*Y1090390D01*
X463599Y1084040D01*
Y1081500D01*
X457249Y1084040D02*Y1081500D01*
Y1084040D02*X463599Y1090390D01*
Y1091660D02*Y1090390D01*
X471221Y1091660D02*Y1081500D01*
Y1082770D02*X472491Y1081500D01*
X475031D01*
X476301Y1082770D01*
Y1085310D02*Y1082770D01*
X475031Y1086580D02*X476301Y1085310D01*
X472491Y1086580D02*X475031D01*
X471221Y1085310D02*X472491Y1086580D01*
X479352Y1085310D02*Y1082770D01*
Y1085310D02*X480622Y1086580D01*
X483162D01*
X484432Y1085310D01*
Y1082770D01*
X483162Y1081500D02*X484432Y1082770D01*
X480622Y1081500D02*X483162D01*
X479352Y1082770D02*X480622Y1081500D01*
X487482Y1086580D02*X492562Y1081500D01*
X487482D02*X492562Y1086580D01*
G54D16*X421000Y502000D03*
G54D11*G36*
X362750Y471750D02*Y466250D01*
X368250D01*
Y471750D01*
X362750D01*
G37*
G36*
X372750Y486750D02*Y481250D01*
X378250D01*
Y486750D01*
X372750D01*
G37*
G54D17*X425500Y484000D03*
G54D11*G36*
X362750Y486750D02*Y481250D01*
X368250D01*
Y486750D01*
X362750D01*
G37*
G36*
X372750Y471750D02*Y466250D01*
X378250D01*
Y471750D01*
X372750D01*
G37*
G54D17*X425500Y469000D03*
Y454000D03*
G54D16*X461500Y436000D03*
G54D18*X451500Y454000D03*
X441500D03*
G54D11*G36*
X457900Y457600D02*Y450400D01*
X465100D01*
Y457600D01*
X457900D01*
G37*
G36*
Y472600D02*Y465400D01*
X465100D01*
Y472600D01*
X457900D01*
G37*
G54D18*X451500Y469000D03*
X441500D03*
G54D11*G36*
X438500Y439000D02*Y433000D01*
X444500D01*
Y439000D01*
X438500D01*
G37*
G54D16*X451500Y436000D03*
G54D11*G36*
X422750Y442250D02*Y436750D01*
X428250D01*
Y442250D01*
X422750D01*
G37*
G54D17*X385500Y439500D03*
G54D16*X263500Y619000D03*
X273500D03*
G54D11*G36*
X295500Y633500D02*Y627500D01*
X301500D01*
Y633500D01*
X295500D01*
G37*
G36*
X260250Y609750D02*Y604250D01*
X265750D01*
Y609750D01*
X260250D01*
G37*
G36*
X295750Y618250D02*Y612750D01*
X301250D01*
Y618250D01*
X295750D01*
G37*
G54D16*X308500Y630500D03*
X318500D03*
X328500D03*
G54D11*G36*
X287750Y603250D02*Y597750D01*
X293250D01*
Y603250D01*
X287750D01*
G37*
G36*
X295750D02*Y597750D01*
X301250D01*
Y603250D01*
X295750D01*
G37*
G36*
X422750Y588250D02*Y582750D01*
X428250D01*
Y588250D01*
X422750D01*
G37*
G36*
Y573250D02*Y567750D01*
X428250D01*
Y573250D01*
X422750D01*
G37*
G36*
Y558250D02*Y552750D01*
X428250D01*
Y558250D01*
X422750D01*
G37*
G36*
X418000Y540500D02*Y534500D01*
X424000D01*
Y540500D01*
X418000D01*
G37*
G54D16*X421000Y527500D03*
G54D11*G36*
X418000Y515000D02*Y509000D01*
X424000D01*
Y515000D01*
X418000D01*
G37*
G54D17*X375500Y585500D03*
G54D16*X365000Y570500D03*
Y585500D03*
G54D17*X375500Y570500D03*
G54D11*G36*
X341750Y573250D02*Y567750D01*
X347250D01*
Y573250D01*
X341750D01*
G37*
G36*
X352000Y573500D02*Y567500D01*
X358000D01*
Y573500D01*
X352000D01*
G37*
G36*
Y588500D02*Y582500D01*
X358000D01*
Y588500D01*
X352000D01*
G37*
G36*
X341750Y588250D02*Y582750D01*
X347250D01*
Y588250D01*
X341750D01*
G37*
G54D17*X375500Y555500D03*
G54D11*G36*
X352000Y558500D02*Y552500D01*
X358000D01*
Y558500D01*
X352000D01*
G37*
G54D16*X365000Y555500D03*
G54D11*G36*
X341750Y558250D02*Y552750D01*
X347250D01*
Y558250D01*
X341750D01*
G37*
G36*
X338000Y528000D02*Y522000D01*
X344000D01*
Y528000D01*
X338000D01*
G37*
G54D16*X351000Y525000D03*
X361000D03*
X371000D03*
X381000D03*
X391000D03*
G54D11*G36*
X338000Y518000D02*Y512000D01*
X344000D01*
Y518000D01*
X338000D01*
G37*
G54D16*X291000Y515000D03*
X301000D03*
X311000D03*
X351000D03*
X361000D03*
X371000D03*
X381000D03*
X391000D03*
G54D11*G36*
X301750Y456750D02*Y451250D01*
X307250D01*
Y456750D01*
X301750D01*
G37*
G54D17*X344500Y454000D03*
G54D16*X338500Y630500D03*
X348500D03*
X358500D03*
G54D17*X348500Y615500D03*
G54D11*G36*
X355750Y618250D02*Y612750D01*
X361250D01*
Y618250D01*
X355750D01*
G37*
G54D17*X408500Y615500D03*
Y600500D03*
G54D11*G36*
X355750Y603250D02*Y597750D01*
X361250D01*
Y603250D01*
X355750D01*
G37*
G54D17*X348500Y600500D03*
G54D11*G36*
X380500Y633500D02*Y627500D01*
X386500D01*
Y633500D01*
X380500D01*
G37*
G54D16*X393500Y630500D03*
X403500D03*
X413500D03*
X423500D03*
X433500D03*
X443500D03*
G54D17*X315500Y469000D03*
Y484000D03*
X278500D03*
G54D11*G36*
X185900Y516600D02*Y511400D01*
X191100D01*
Y516600D01*
X185900D01*
G37*
G54D19*X158500Y514000D03*
G54D11*G36*
X185900Y546600D02*Y541400D01*
X191100D01*
Y546600D01*
X185900D01*
G37*
G54D19*X158500Y544000D03*
G54D11*G36*
X225750Y486750D02*Y481250D01*
X231250D01*
Y486750D01*
X225750D01*
G37*
G54D17*X208500Y469000D03*
X204000Y454000D03*
G54D11*G36*
X205750Y486750D02*Y481250D01*
X211250D01*
Y486750D01*
X205750D01*
G37*
G54D17*X158500Y484000D03*
G54D11*G36*
X205750Y501750D02*Y496250D01*
X211250D01*
Y501750D01*
X205750D01*
G37*
G54D17*X158500Y499000D03*
X240500Y600500D03*
G54D11*G36*
X185900Y561600D02*Y556400D01*
X191100D01*
Y561600D01*
X185900D01*
G37*
G54D19*X158500Y559000D03*
G54D11*G36*
X185900Y606600D02*Y601400D01*
X191100D01*
Y606600D01*
X185900D01*
G37*
G54D19*X158500Y604000D03*
G54D11*G36*
X185900Y621600D02*Y616400D01*
X191100D01*
Y621600D01*
X185900D01*
G37*
G54D19*X158500Y619000D03*
G54D11*G36*
X352000Y316000D02*Y308000D01*
X360000D01*
Y316000D01*
X352000D01*
G37*
G54D20*X335000Y311000D03*
G54D11*G36*
X330500Y295500D02*Y286500D01*
X339500D01*
Y295500D01*
X330500D01*
G37*
G54D17*X305500Y274500D03*
G54D20*X335000Y301000D03*
G54D16*X288500Y304000D03*
G54D11*G36*
X302500Y307000D02*Y301000D01*
X308500D01*
Y307000D01*
X302500D01*
G37*
G54D16*X305500Y294000D03*
G54D11*G36*
X372750Y456750D02*Y451250D01*
X378250D01*
Y456750D01*
X372750D01*
G37*
G36*
X322750Y442250D02*Y436750D01*
X328250D01*
Y442250D01*
X322750D01*
G37*
G54D17*X375500Y439500D03*
G54D11*G36*
X275750Y456750D02*Y451250D01*
X281250D01*
Y456750D01*
X275750D01*
G37*
G54D17*X288500Y394000D03*
Y349000D03*
Y379000D03*
Y363500D03*
G54D11*G36*
X408500Y419000D02*Y410000D01*
X417500D01*
Y419000D01*
X408500D01*
G37*
G36*
X451000Y422000D02*Y414000D01*
X459000D01*
Y422000D01*
X451000D01*
G37*
G54D20*X403000Y414500D03*
X393000D03*
G54D11*G36*
X340000Y419000D02*Y410000D01*
X349000D01*
Y419000D01*
X340000D01*
G37*
G54D20*X334500Y414500D03*
X324500D03*
G54D21*X403000Y347500D03*
X334500D03*
G54D22*X436000Y312000D03*
X455000Y318000D03*
G54D11*G36*
X330500Y248000D02*Y239000D01*
X339500D01*
Y248000D01*
X330500D01*
G37*
G36*
X353000Y247500D02*Y241500D01*
X359000D01*
Y247500D01*
X353000D01*
G37*
G54D16*X356000Y234500D03*
G54D11*G36*
X380000Y242500D02*Y236500D01*
X386000D01*
Y242500D01*
X380000D01*
G37*
G54D16*X393000Y239500D03*
G54D20*X335000Y253500D03*
Y263500D03*
G54D11*G36*
X353000Y274000D02*Y268000D01*
X359000D01*
Y274000D01*
X353000D01*
G37*
G54D16*X356000Y261000D03*
G54D11*G36*
X417500Y274000D02*Y268000D01*
X423500D01*
Y274000D01*
X417500D01*
G37*
G54D16*X420500Y261000D03*
X403000Y256000D03*
Y266000D03*
Y276000D03*
Y286000D03*
G54D11*G36*
X370000Y289000D02*Y283000D01*
X376000D01*
Y289000D01*
X370000D01*
G37*
G54D16*X373000Y276000D03*
Y266000D03*
Y256000D03*
G54D11*G36*
X155750Y471750D02*Y466250D01*
X161250D01*
Y471750D01*
X155750D01*
G37*
G36*
X151250Y456750D02*Y451250D01*
X156750D01*
Y456750D01*
X151250D01*
G37*
G54D16*X168500Y409000D03*
Y439000D03*
X178500Y409000D03*
Y439000D03*
X188500Y409000D03*
X198500D03*
Y439000D03*
X188500D03*
G54D11*G36*
X135500Y412000D02*Y406000D01*
X141500D01*
Y412000D01*
X135500D01*
G37*
G54D16*X148500Y409000D03*
X158500D03*
Y439000D03*
X148500D03*
X138500D03*
G54D11*G36*
X107500Y452000D02*Y446000D01*
X113500D01*
Y452000D01*
X107500D01*
G37*
G54D16*X110500Y439000D03*
G54D11*G36*
X122000Y442000D02*Y436000D01*
X128000D01*
Y442000D01*
X122000D01*
G37*
G54D16*X125000Y449000D03*
G54D11*G36*
X225500Y412000D02*Y406000D01*
X231500D01*
Y412000D01*
X225500D01*
G37*
G54D16*X238500Y409000D03*
X248500D03*
X258500D03*
X268500D03*
X278500D03*
X288500D03*
G54D11*G36*
X170750Y366750D02*Y361250D01*
X176250D01*
Y366750D01*
X170750D01*
G37*
G54D17*X160000Y364000D03*
G54D11*G36*
X170750Y351750D02*Y346250D01*
X176250D01*
Y351750D01*
X170750D01*
G37*
G54D17*X160000Y349000D03*
G54D11*G36*
X170750Y336750D02*Y331250D01*
X176250D01*
Y336750D01*
X170750D01*
G37*
G36*
X107250Y396750D02*Y391250D01*
X112750D01*
Y396750D01*
X107250D01*
G37*
G36*
X107500Y422000D02*Y416000D01*
X113500D01*
Y422000D01*
X107500D01*
G37*
G54D16*X110500Y409000D03*
G54D17*X160000Y394000D03*
G54D11*G36*
X107250Y381750D02*Y376250D01*
X112750D01*
Y381750D01*
X107250D01*
G37*
G54D17*X160000Y379000D03*
G54D11*G36*
X170750Y381750D02*Y376250D01*
X176250D01*
Y381750D01*
X170750D01*
G37*
G36*
Y396750D02*Y391250D01*
X176250D01*
Y396750D01*
X170750D01*
G37*
G36*
X235750Y321750D02*Y316250D01*
X241250D01*
Y321750D01*
X235750D01*
G37*
G54D17*X288500Y319000D03*
G54D11*G36*
X170750Y321750D02*Y316250D01*
X176250D01*
Y321750D01*
X170750D01*
G37*
G54D16*X193500Y299000D03*
X265500Y304000D03*
G54D11*G36*
X275500Y307000D02*Y301000D01*
X281500D01*
Y307000D01*
X275500D01*
G37*
G54D17*X223500Y364000D03*
Y349000D03*
G54D11*G36*
X107250Y366750D02*Y361250D01*
X112750D01*
Y366750D01*
X107250D01*
G37*
G36*
Y321750D02*Y316250D01*
X112750D01*
Y321750D01*
X107250D01*
G37*
G36*
Y336750D02*Y331250D01*
X112750D01*
Y336750D01*
X107250D01*
G37*
G36*
Y351750D02*Y346250D01*
X112750D01*
Y351750D01*
X107250D01*
G37*
G54D17*X160000Y319000D03*
Y334000D03*
Y304000D03*
G54D11*G36*
X107250Y306750D02*Y301250D01*
X112750D01*
Y306750D01*
X107250D01*
G37*
G36*
Y291750D02*Y286250D01*
X112750D01*
Y291750D01*
X107250D01*
G37*
G54D17*X160000Y289000D03*
G54D11*G36*
X170500Y302000D02*Y296000D01*
X176500D01*
Y302000D01*
X170500D01*
G37*
G54D17*X173500Y234000D03*
Y249000D03*
G54D11*G36*
X170500Y272000D02*Y266000D01*
X176500D01*
Y272000D01*
X170500D01*
G37*
G54D16*X193500Y269000D03*
X288500Y439000D03*
X278500D03*
X268500D03*
X258500D03*
X248500D03*
X238500D03*
X228500D03*
G54D17*Y469000D03*
Y454000D03*
G54D11*G36*
X235750Y396750D02*Y391250D01*
X241250D01*
Y396750D01*
X235750D01*
G37*
G36*
Y351750D02*Y346250D01*
X241250D01*
Y351750D01*
X235750D01*
G37*
G36*
Y381750D02*Y376250D01*
X241250D01*
Y381750D01*
X235750D01*
G37*
G36*
Y366250D02*Y360750D01*
X241250D01*
Y366250D01*
X235750D01*
G37*
G36*
Y336750D02*Y331250D01*
X241250D01*
Y336750D01*
X235750D01*
G37*
G54D17*X288500Y334000D03*
X223500Y394000D03*
Y379000D03*
Y334000D03*
Y319000D03*
G54D11*G36*
X275750Y471750D02*Y466250D01*
X281250D01*
Y471750D01*
X275750D01*
G37*
G36*
X238000Y528000D02*Y522000D01*
X244000D01*
Y528000D01*
X238000D01*
G37*
G54D16*X251000Y525000D03*
X261000D03*
G54D11*G36*
X238000Y518000D02*Y512000D01*
X244000D01*
Y518000D01*
X238000D01*
G37*
G54D16*X251000Y515000D03*
X261000D03*
X271000Y525000D03*
X281000D03*
X271000Y515000D03*
X281000D03*
X291000Y525000D03*
X301000D03*
X311000D03*
G54D11*G36*
X302750Y237250D02*Y231750D01*
X308250D01*
Y237250D01*
X302750D01*
G37*
G36*
X285750D02*Y231750D01*
X291250D01*
Y237250D01*
X285750D01*
G37*
G54D17*X238500Y234500D03*
G54D11*G36*
X220750Y236750D02*Y231250D01*
X226250D01*
Y236750D01*
X220750D01*
G37*
G36*
X285750Y251750D02*Y246250D01*
X291250D01*
Y251750D01*
X285750D01*
G37*
G54D17*X238500Y249000D03*
G54D11*G36*
X220750Y251750D02*Y246250D01*
X226250D01*
Y251750D01*
X220750D01*
G37*
G36*
X222000Y275000D02*Y269000D01*
X228000D01*
Y275000D01*
X222000D01*
G37*
G54D16*X235000Y272000D03*
X245000D03*
X255000D03*
X265000D03*
X275000D03*
X285000D03*
G54D11*G36*
X222000Y285000D02*Y279000D01*
X228000D01*
Y285000D01*
X222000D01*
G37*
G54D16*X235000Y282000D03*
X245000D03*
X255000D03*
X265000D03*
X275000D03*
X285000D03*
G54D11*G36*
X229500Y307000D02*Y301000D01*
X235500D01*
Y307000D01*
X229500D01*
G37*
G54D16*X242500Y304000D03*
G54D11*G36*
X206500Y307000D02*Y301000D01*
X212500D01*
Y307000D01*
X206500D01*
G37*
G54D16*X219500Y304000D03*
G54D11*G36*
X252500Y307000D02*Y301000D01*
X258500D01*
Y307000D01*
X252500D01*
G37*
G36*
X185900Y531600D02*Y526400D01*
X191100D01*
Y531600D01*
X185900D01*
G37*
G36*
Y576600D02*Y571400D01*
X191100D01*
Y576600D01*
X185900D01*
G37*
G54D19*X158500Y529000D03*
Y574000D03*
G54D11*G36*
X185900Y591600D02*Y586400D01*
X191100D01*
Y591600D01*
X185900D01*
G37*
G54D19*X158500Y589000D03*
G54D17*X213500Y585500D03*
Y570500D03*
Y555500D03*
G54D16*X223500Y619000D03*
X233500D03*
X243500D03*
X253500D03*
G54D11*G36*
X210500Y622000D02*Y616000D01*
X216500D01*
Y622000D01*
X210500D01*
G37*
G36*
X195500Y641000D02*Y635000D01*
X201500D01*
Y641000D01*
X195500D01*
G37*
G54D16*X188500Y638000D03*
X178500D03*
X168500D03*
G54D17*X213000Y607000D03*
G54D16*X158500Y638000D03*
X148500D03*
X138500D03*
X128500D03*
X118500D03*
G54D11*G36*
X271000Y573500D02*Y567500D01*
X277000D01*
Y573500D01*
X271000D01*
G37*
G36*
X260750Y573250D02*Y567750D01*
X266250D01*
Y573250D01*
X260750D01*
G37*
G54D16*X284000Y570500D03*
G54D11*G36*
X260750Y588250D02*Y582750D01*
X266250D01*
Y588250D01*
X260750D01*
G37*
G36*
Y558250D02*Y552750D01*
X266250D01*
Y558250D01*
X260750D01*
G37*
G54D17*X294500Y585500D03*
G54D11*G36*
X271000Y588500D02*Y582500D01*
X277000D01*
Y588500D01*
X271000D01*
G37*
G54D16*X284000Y585500D03*
G54D11*G36*
X271000Y558500D02*Y552500D01*
X277000D01*
Y558500D01*
X271000D01*
G37*
G54D16*X284000Y555500D03*
G54D17*X294500Y570500D03*
Y555500D03*
X415000Y858000D03*
G54D11*G36*
X427750Y817750D02*Y811250D01*
X434250D01*
Y817750D01*
X427750D01*
G37*
G54D23*X441000Y814500D03*
G54D11*G36*
X458500Y805000D02*Y799000D01*
X464500D01*
Y805000D01*
X458500D01*
G37*
G54D16*X461500Y792000D03*
G54D17*X397000Y858000D03*
G54D11*G36*
X127750Y817750D02*Y811250D01*
X134250D01*
Y817750D01*
X127750D01*
G37*
G54D23*X141000Y814500D03*
G54D11*G36*
X187750Y817750D02*Y811250D01*
X194250D01*
Y817750D01*
X187750D01*
G37*
G54D23*X201000Y814500D03*
G54D11*G36*
X172250Y810750D02*Y805250D01*
X177750D01*
Y810750D01*
X172250D01*
G37*
G36*
X154250D02*Y805250D01*
X159750D01*
Y810750D01*
X154250D01*
G37*
G36*
X187750Y857750D02*Y851250D01*
X194250D01*
Y857750D01*
X187750D01*
G37*
G54D23*X201000Y854500D03*
G54D17*X175000Y858000D03*
X157000D03*
G54D11*G36*
X214250Y810750D02*Y805250D01*
X219750D01*
Y810750D01*
X214250D01*
G37*
G54D17*X217000Y858000D03*
G54D11*G36*
X107500Y805000D02*Y799000D01*
X113500D01*
Y805000D01*
X107500D01*
G37*
G54D16*X110500Y792000D03*
G54D11*G36*
X247750Y817750D02*Y811250D01*
X254250D01*
Y817750D01*
X247750D01*
G37*
G36*
X232250Y810750D02*Y805250D01*
X237750D01*
Y810750D01*
X232250D01*
G37*
G54D23*X261000Y814500D03*
G54D11*G36*
X292250Y810750D02*Y805250D01*
X297750D01*
Y810750D01*
X292250D01*
G37*
G36*
X274250D02*Y805250D01*
X279750D01*
Y810750D01*
X274250D01*
G37*
G36*
X307750Y857750D02*Y851250D01*
X314250D01*
Y857750D01*
X307750D01*
G37*
G54D23*X321000Y854500D03*
G54D17*X295000Y858000D03*
G54D11*G36*
X247750Y857750D02*Y851250D01*
X254250D01*
Y857750D01*
X247750D01*
G37*
G54D23*X261000Y854500D03*
G54D17*X277000Y858000D03*
X235000D03*
G54D11*G36*
X307750Y817750D02*Y811250D01*
X314250D01*
Y817750D01*
X307750D01*
G37*
G54D23*X321000Y814500D03*
G54D11*G36*
X367750Y857750D02*Y851250D01*
X374250D01*
Y857750D01*
X367750D01*
G37*
G54D23*X381000Y854500D03*
G54D11*G36*
X412250Y810750D02*Y805250D01*
X417750D01*
Y810750D01*
X412250D01*
G37*
G36*
X367750Y817750D02*Y811250D01*
X374250D01*
Y817750D01*
X367750D01*
G37*
G54D23*X381000Y814500D03*
G54D11*G36*
X394250Y810750D02*Y805250D01*
X399750D01*
Y810750D01*
X394250D01*
G37*
G36*
X352250D02*Y805250D01*
X357750D01*
Y810750D01*
X352250D01*
G37*
G54D17*X355000Y858000D03*
G54D11*G36*
X334250Y810750D02*Y805250D01*
X339750D01*
Y810750D01*
X334250D01*
G37*
G54D17*X337000Y858000D03*
G54D11*G36*
X125500Y726000D02*Y720000D01*
X131500D01*
Y726000D01*
X125500D01*
G37*
G54D16*X138500Y723000D03*
X148500D03*
X158500D03*
X168500D03*
X178500D03*
X188500D03*
X178500Y753000D03*
X168500D03*
X158500D03*
X148500D03*
X138500D03*
X128500D03*
G54D11*G36*
X107500Y746000D02*Y740000D01*
X113500D01*
Y746000D01*
X107500D01*
G37*
G54D16*X110500Y733000D03*
X188500Y753000D03*
X223500D03*
X213500D03*
G54D11*G36*
X210500Y726000D02*Y720000D01*
X216500D01*
Y726000D01*
X210500D01*
G37*
G54D16*X223500Y723000D03*
X233500D03*
X243500D03*
Y753000D03*
X233500D03*
X243500Y697500D03*
X233500D03*
X188500D03*
X223500D03*
X213500D03*
X178500D03*
X168500D03*
X158500D03*
X148500D03*
X138500D03*
X128500D03*
G54D11*G36*
X125500Y670500D02*Y664500D01*
X131500D01*
Y670500D01*
X125500D01*
G37*
G54D16*X138500Y667500D03*
X148500D03*
X158500D03*
X168500D03*
X178500D03*
X188500D03*
G54D11*G36*
X210500Y670500D02*Y664500D01*
X216500D01*
Y670500D01*
X210500D01*
G37*
G36*
X107500Y690500D02*Y684500D01*
X113500D01*
Y690500D01*
X107500D01*
G37*
G54D16*X110500Y677500D03*
X253500Y723000D03*
Y753000D03*
X263500Y723000D03*
Y753000D03*
X273500Y723000D03*
Y753000D03*
Y697500D03*
Y649000D03*
X263500Y697500D03*
Y649000D03*
X253500Y697500D03*
Y649000D03*
X243500D03*
X233500D03*
X223500D03*
X213500D03*
G54D11*G36*
X295500Y726000D02*Y720000D01*
X301500D01*
Y726000D01*
X295500D01*
G37*
G54D16*X308500Y723000D03*
X318500D03*
X328500D03*
X338500D03*
Y753000D03*
X328500D03*
X318500D03*
X308500D03*
X298500D03*
X348500Y723000D03*
X358500D03*
Y753000D03*
X348500D03*
G54D11*G36*
X338250Y701250D02*Y694750D01*
X344750D01*
Y701250D01*
X338250D01*
G37*
G54D17*X364500Y708500D03*
G54D11*G36*
X361750Y696250D02*Y690750D01*
X367250D01*
Y696250D01*
X361750D01*
G37*
G54D23*X351500Y698000D03*
G54D11*G36*
X307750Y701250D02*Y694750D01*
X314250D01*
Y701250D01*
X307750D01*
G37*
G54D23*X321000Y698000D03*
G54D11*G36*
X380500Y726000D02*Y720000D01*
X386500D01*
Y726000D01*
X380500D01*
G37*
G54D16*X393500Y723000D03*
X403500D03*
X413500Y753000D03*
X403500D03*
X393500D03*
X383500D03*
X413500Y723000D03*
G54D11*G36*
X411750Y711250D02*Y705750D01*
X417250D01*
Y711250D01*
X411750D01*
G37*
G54D17*X414500Y693500D03*
G54D16*X223500Y667500D03*
X233500D03*
X243500D03*
X253500D03*
X263500D03*
X273500D03*
X423500Y723000D03*
X433500D03*
X443500D03*
G54D11*G36*
X427750Y701250D02*Y694750D01*
X434250D01*
Y701250D01*
X427750D01*
G37*
G54D23*X441000Y698000D03*
G54D16*X443500Y660500D03*
X433500D03*
X423500D03*
X443500Y753000D03*
X433500D03*
X423500D03*
G54D11*G36*
X458500Y746000D02*Y740000D01*
X464500D01*
Y746000D01*
X458500D01*
G37*
G54D16*X461500Y733000D03*
G54D11*G36*
X458500Y653500D02*Y647500D01*
X464500D01*
Y653500D01*
X458500D01*
G37*
G54D16*X461500Y640500D03*
X358500Y660500D03*
X348500D03*
X338500D03*
X328500D03*
X318500D03*
X308500D03*
X298500D03*
X413500D03*
X403500D03*
X393500D03*
X383500D03*
G54D24*X328500Y762000D03*
X323500Y765500D03*
X423500D03*
X348500Y769000D03*
X393500D03*
X403000D03*
X353500Y772500D03*
X376000Y746000D03*
Y741000D03*
X366000Y730000D03*
Y735000D03*
X433500Y765500D03*
X451000Y730000D03*
Y735000D03*
X348500Y786500D03*
X375000Y802000D03*
X367000Y798000D03*
X382000D03*
X321000Y797500D03*
X330500Y790000D03*
X328500Y713500D03*
X452000Y797000D03*
X441000Y797500D03*
X452000Y776000D03*
Y792000D03*
X393500Y780000D03*
X282000Y798000D03*
X290000Y802000D03*
X248500Y776000D03*
X273500D03*
X263500Y779500D03*
X258500Y772500D03*
X253500Y787000D03*
X268500Y783000D03*
X296000Y793500D03*
X291000Y746000D03*
Y741000D03*
X253000Y797500D03*
X248500Y769000D03*
X281500Y696500D03*
X282000Y603000D03*
X281500Y611000D03*
X133500Y762000D03*
X148500Y769000D03*
X119500Y746000D03*
X120000Y802000D03*
X141000Y798000D03*
X110500Y785500D03*
Y781000D03*
X238500Y779500D03*
X205000Y802000D03*
X197000Y798000D03*
X218500Y765500D03*
X233500Y772500D03*
X223500Y776000D03*
X206000Y746000D03*
Y741000D03*
X196000Y730000D03*
Y735000D03*
X178500Y762000D03*
X168500Y772500D03*
X178500Y776000D03*
Y706500D03*
X183500Y717000D03*
Y710000D03*
X188500Y713500D03*
X148500D03*
X133500Y710000D03*
X119500Y741000D03*
X110500Y726500D03*
Y722000D03*
X223500Y706500D03*
X206000Y691000D03*
Y685500D03*
X196000Y674000D03*
Y679500D03*
X218500Y655000D03*
X238500D03*
X235000Y658500D03*
X228500Y717000D03*
Y703000D03*
X234000Y585500D03*
X224000Y607000D03*
X206000Y637000D03*
Y642500D03*
X199500Y630500D03*
Y625500D03*
X206000Y591500D03*
X195000Y625500D03*
Y630500D03*
X173500Y662000D03*
Y655000D03*
X178500Y651500D03*
X158500Y655000D03*
X132000D03*
X119500Y652500D03*
Y657500D03*
Y685500D03*
Y690500D03*
X110500Y671000D03*
Y666500D03*
G54D16*X102000Y629500D03*
Y619000D03*
X122500D03*
X111500D03*
Y629500D03*
G54D24*X170000Y499000D03*
X172000Y484000D03*
X173500Y469000D03*
X178500Y454000D03*
X185000D03*
X213500Y421000D03*
Y415500D03*
X184000Y469000D03*
X135000Y458000D03*
Y468500D03*
X194500Y464000D03*
X190500Y459500D03*
X101000Y468500D03*
Y458000D03*
X175000Y610000D03*
X197500Y603000D03*
Y597000D03*
X194500Y476000D03*
X199500Y491500D03*
X206000Y547500D03*
X211000D03*
X205500Y507000D03*
X210500D03*
X215500D03*
G54D16*X196500Y551500D03*
G54D24*X193500Y364000D03*
X188500Y379000D03*
Y394000D03*
X209500Y385000D03*
X128000Y346000D03*
X122500Y341500D03*
X116500Y331500D03*
X128000Y319000D03*
X201500Y304500D03*
Y300500D03*
X230000Y291500D03*
X217000Y277000D03*
Y287000D03*
Y267000D03*
X298500Y713500D03*
X273500Y706500D03*
X291000Y691000D03*
Y685500D03*
X296500Y696500D03*
X281000Y730000D03*
Y735000D03*
Y626500D03*
X283000Y632000D03*
X281000Y674000D03*
Y679500D03*
X268500Y662000D03*
X248500Y610000D03*
X289500Y647500D03*
X291000Y652500D03*
X290500Y432000D03*
X338500Y676000D03*
X353500Y669000D03*
X332500Y541000D03*
X337500D03*
X322000Y588500D03*
X297500Y577000D03*
X451000Y637500D03*
Y642500D03*
X438500Y624500D03*
X388500Y666000D03*
X388000Y615500D03*
Y585500D03*
X403000Y597000D03*
X428500Y666000D03*
G54D16*X432000Y547500D03*
G54D24*X418500Y673500D03*
X417000Y591500D03*
X419500Y688000D03*
X398500Y683000D03*
X393500Y686500D03*
X398500Y670000D03*
X408500Y677000D03*
G54D16*X470500Y619000D03*
G54D24*X408500Y555500D03*
X403000Y541000D03*
X408500D03*
X392500Y570500D03*
X397000Y541000D03*
X390500D03*
G54D16*X382500Y547500D03*
G54D24*X384000Y541000D03*
X313500Y713500D03*
X313000Y597000D03*
X327000Y615500D03*
Y541000D03*
X318500Y686500D03*
X303500Y669500D03*
X308500Y673500D03*
X328500Y683000D03*
X323500Y669500D03*
X304500Y686000D03*
X376000Y653500D03*
X375000Y608000D03*
X380500Y700000D03*
X376000Y648500D03*
X366000Y637500D03*
Y642500D03*
X304000Y678000D03*
X304500Y696500D03*
X371500Y710000D03*
X253500Y469000D03*
X248500Y454000D03*
X249500Y388000D03*
X283500Y399500D03*
Y447500D03*
X268500Y394000D03*
X248500Y298500D03*
X290500Y427500D03*
G54D16*X325500Y427000D03*
G54D24*X291000Y311000D03*
X319500Y310500D03*
Y314500D03*
Y301000D03*
G54D25*X373500Y307500D03*
Y311000D03*
G54D24*X297000Y266000D03*
Y277000D03*
Y271500D03*
X319500Y262000D03*
Y258000D03*
X345500Y273500D03*
G54D16*X334500Y427000D03*
G54D24*X345500Y281000D03*
G54D26*G54D27*G54D28*G54D27*G54D29*G54D27*G54D14*G54D30*G54D28*G54D30*G54D28*G54D26*G54D28*G54D27*G54D28*G54D27*G54D14*G54D30*G54D28*G54D30*G54D28*G54D31*G54D28*G54D26*G54D31*G54D32*G54D16*G54D14*G54D16*G54D28*G54D16*G54D32*G54D16*G54D33*G54D32*G54D16*G54D26*G54D28*G54D16*G54D28*G54D30*G54D28*G54D30*G54D28*G54D27*G54D30*G54D28*G54D26*G54D28*G54D30*G54D28*G54D27*G54D14*G54D28*G54D27*G54D28*G54D26*G54D31*G54D28*G54D30*G54D27*G54D28*G54D27*G54D28*G54D26*G54D34*G54D28*G54D34*G54D28*G54D34*G54D28*G54D26*G54D28*G54D34*G54D28*G54D34*G54D28*G54D34*G54D28*G54D34*G54D28*G54D34*G54D28*G54D34*G54D28*G54D30*G54D28*G54D30*G54D28*G54D30*G54D34*G54D28*G54D34*G54D30*G54D28*G54D30*G54D34*G54D30*G54D28*G54D30*G54D11*G54D35*G54D11*G54D35*G54D11*G54D35*G54D11*G54D35*G54D11*G54D35*G54D11*G54D35*G54D11*G54D36*G54D11*G54D35*G54D11*G54D37*X480500Y873000D02*Y572000D01*
X459500Y569500D02*X478000D01*
X92500Y873000D02*Y572000D01*
X122000Y884000D02*X451000D01*
X119500Y563500D02*Y531500D01*
X95000Y569500D02*X113500D01*
X95000Y875500D02*X113500D01*
X453500Y563500D02*Y531500D01*
X459500Y875500D02*X478000D01*
X95000Y525400D02*X113500D01*
X95000Y219500D02*X113500D01*
X459500Y525400D02*X478000D01*
X480500Y523000D02*Y222000D01*
X122000Y211000D02*X451000D01*
X459500Y219500D02*X478000D01*
X92500Y523000D02*Y222000D01*
X480500Y572000D02*G75*G02X478000Y569500I-2500J0D01*G01*
Y525400D02*G75*G02X480500Y522900I0J-2500D01*G01*
X453500Y563500D02*G75*G02X459500Y569500I6000J0D01*G01*
Y525400D02*G75*G02X453500Y531400I0J6000D01*G01*
X119500Y881500D02*G75*G02X122000Y884000I2500J0D01*G01*
X92500Y873000D02*G75*G02X95000Y875500I2500J0D01*G01*
X113500Y569500D02*G75*G02X119500Y563500I0J-6000D01*G01*
Y881500D02*G75*G02X113500Y875500I-6000J0D01*G01*
X95000Y569500D02*G75*G02X92500Y572000I0J2500D01*G01*
X119500Y531400D02*G75*G02X113500Y525400I-6000J0D01*G01*
X451000Y884000D02*G75*G02X453500Y881500I0J-2500D01*G01*
X478000Y875500D02*G75*G02X480500Y873000I0J-2500D01*G01*
X459500Y875500D02*G75*G02X453500Y881500I0J6000D01*G01*
X92500Y522900D02*G75*G02X95000Y525400I2500J0D01*G01*
X122000Y211000D02*G75*G02X119500Y213500I0J2500D01*G01*
X95100Y219500D02*G75*G02X92600Y222000I0J2500D01*G01*
X113500Y219500D02*G75*G02X119500Y213500I0J-6000D01*G01*
X453500D02*G75*G02X451000Y211000I-2500J0D01*G01*
X480500Y222000D02*G75*G02X478000Y219500I-2500J0D01*G01*
X453500Y213500D02*G75*G02X459500Y219500I6000J0D01*G01*
M02*
