G04 start of page 3 for group 1 idx 1 *
G04 Title: (unknown), solder *
G04 Creator: pcb 20091103 *
G04 CreationDate: Fri May 24 14:26:31 2024 UTC *
G04 For: bh *
G04 Format: Gerber/RS-274X *
G04 PCB-Dimensions: 600000 1100000 *
G04 PCB-Coordinate-Origin: lower left *
%MOIN*%
%FSLAX25Y25*%
%LNBOTTOM*%
%ADD11C,0.0200*%
%ADD12C,0.0180*%
%ADD13C,0.0140*%
%ADD14C,0.0250*%
%ADD15C,0.0400*%
%ADD16C,0.0600*%
%ADD17C,0.0550*%
%ADD18C,0.0720*%
%ADD19C,0.0520*%
%ADD20C,0.0900*%
%ADD21C,0.1500*%
%ADD22C,0.0800*%
%ADD23C,0.0650*%
%ADD24C,0.0360*%
%ADD25C,0.0240*%
%ADD26C,0.1299*%
%ADD27C,0.0380*%
%ADD28C,0.0300*%
%ADD29C,0.0420*%
%ADD30C,0.0280*%
%ADD31C,0.0220*%
%ADD32C,0.0500*%
%ADD33C,0.1300*%
%ADD34C,0.0430*%
%ADD35C,0.0350*%
%ADD36C,0.0118*%
%ADD37C,0.0060*%
%ADD38C,0.0100*%
%ADD39C,0.0450*%
G54D11*G36*
X446000Y301000D02*Y310000D01*
X462000D01*
Y301000D01*
X446000D01*
G37*
G36*
X410500Y293500D02*Y323500D01*
X427500D01*
Y293500D01*
X410500D01*
G37*
G36*
X467500Y263500D02*Y425500D01*
X474500D01*
Y263500D01*
X467500D01*
G37*
G36*
X410500Y280000D02*Y303000D01*
X462000D01*
Y280000D01*
X410500D01*
G37*
G36*
X414000Y249500D02*Y239500D01*
X401000D01*
X396000Y244500D01*
Y249500D01*
X414000D01*
G37*
G36*
X364500Y319500D02*Y403000D01*
X372500D01*
Y319500D01*
X364500D01*
G37*
G36*
X321500Y322000D02*Y299000D01*
X317500D01*
Y307000D01*
X315500Y309000D01*
X309000D01*
Y322000D01*
X321500D01*
G37*
G36*
X303000Y309000D02*Y423500D01*
X311000D01*
Y309000D01*
X303000D01*
G37*
G36*
X371500Y305500D02*Y313000D01*
X416000D01*
Y305500D01*
X371500D01*
G37*
G36*
X436000Y325000D02*Y398000D01*
X471000D01*
Y325000D01*
X436000D01*
G37*
G36*
X463000Y482500D02*X474500D01*
Y421000D01*
X467500D01*
Y476000D01*
X463000D01*
Y482500D01*
G37*
G36*
X431500Y400000D02*Y481500D01*
X435500D01*
Y400000D01*
X431500D01*
G37*
G36*
X421500Y402500D02*Y426000D01*
X441500D01*
Y402500D01*
X421500D01*
G37*
G36*
X308000Y395500D02*Y405000D01*
X472000D01*
Y395500D01*
X308000D01*
G37*
G36*
X356000Y403000D02*Y461000D01*
X368000D01*
Y403000D01*
X356000D01*
G37*
G36*
X308000Y378500D02*Y399000D01*
X390402D01*
X390702Y398572D01*
X391072Y398202D01*
X391500Y397902D01*
X391974Y397681D01*
X392479Y397546D01*
X393000Y397500D01*
X393521Y397546D01*
X394026Y397681D01*
X394500Y397902D01*
X394928Y398202D01*
X395298Y398572D01*
X395598Y399000D01*
X441500D01*
Y378500D01*
X308000D01*
G37*
G36*
X115500Y429500D02*Y458000D01*
X119500D01*
Y429500D01*
X115500D01*
G37*
G36*
X133500Y433500D02*Y405000D01*
X140500Y398000D01*
Y350500D01*
X121000D01*
Y390500D01*
X115500Y396000D01*
Y433500D01*
X133500D01*
G37*
G36*
X116000Y299500D02*X132000Y315500D01*
Y352000D01*
X140500D01*
Y348000D01*
X152000Y336500D01*
Y280000D01*
X116000D01*
Y291500D01*
X114000Y293500D01*
X102500D01*
Y299500D01*
X116000D01*
G37*
G36*
X102500Y426500D02*Y431000D01*
X119500D01*
Y426500D01*
X102500D01*
G37*
G36*
X288500Y434500D02*X299500D01*
Y293500D01*
X294000Y288000D01*
X263500D01*
Y291500D01*
X291500D01*
X295500Y295500D01*
Y423500D01*
X294000Y425000D01*
X289500D01*
X288000Y426500D01*
Y434500D01*
X288500D01*
G37*
G36*
X286000Y496500D02*X309000D01*
Y461000D01*
X297500D01*
Y450500D01*
X301000Y447000D01*
X309500D01*
Y440500D01*
X299500D01*
X285500Y454500D01*
Y496500D01*
X286000D01*
G37*
G36*
X224500Y506000D02*X404000D01*
Y493000D01*
X224500D01*
Y506000D01*
G37*
G36*
X374000Y501000D02*Y510000D01*
X379500D01*
Y501000D01*
X374000D01*
G37*
G36*
X353500Y500500D02*Y510000D01*
X359000D01*
Y500500D01*
X353500D01*
G37*
G36*
X348500Y496000D02*Y468500D01*
X337500Y457500D01*
Y447000D01*
X335500Y445000D01*
X320500D01*
Y433500D01*
X335500D01*
X337500Y431500D01*
Y421500D01*
X311000D01*
Y406500D01*
X303000D01*
Y441000D01*
X322000Y460000D01*
Y496000D01*
X348500D01*
G37*
G36*
X407500Y495500D02*Y424000D01*
X388500D01*
X383000Y418500D01*
Y401500D01*
X359000D01*
Y425000D01*
X366500Y432500D01*
X389500D01*
X393500Y436500D01*
Y495500D01*
X407500D01*
G37*
G36*
X220500Y493000D02*Y512500D01*
X230500D01*
Y493000D01*
X220500D01*
G37*
G36*
X266000Y501000D02*Y510000D01*
X286000D01*
Y501000D01*
X266000D01*
G37*
G36*
X201500Y556000D02*Y542000D01*
X216000D01*
Y550500D01*
X236000D01*
Y511000D01*
X202000D01*
Y530000D01*
X193000Y539000D01*
Y556000D01*
X201500D01*
G37*
G36*
X209000D02*Y551500D01*
X210000Y550500D01*
X213500D01*
Y544500D01*
X203000D01*
Y556000D01*
X209000D01*
G37*
G36*
X316000Y501000D02*Y512000D01*
X336000D01*
Y501000D01*
X316000D01*
G37*
G36*
X342500Y536000D02*Y550500D01*
X377000D01*
Y536000D01*
X342500D01*
G37*
G36*
X321500Y550500D02*Y537000D01*
X402500D01*
Y530000D01*
X336000D01*
Y511000D01*
X316000D01*
Y530000D01*
X234000D01*
Y550500D01*
X321500D01*
G37*
G36*
X314613Y531000D02*X317000D01*
Y509000D01*
X314613D01*
Y512860D01*
X314708Y512882D01*
X314829Y512933D01*
X314938Y513005D01*
X315034Y513094D01*
X315113Y513198D01*
X315172Y513315D01*
X315314Y513722D01*
X315417Y514142D01*
X315479Y514569D01*
X315500Y515000D01*
X315479Y515432D01*
X315417Y515859D01*
X315314Y516279D01*
X315172Y516686D01*
X315171D01*
X315112Y516802D01*
X315033Y516907D01*
X314937Y516996D01*
X314828Y517067D01*
X314707Y517118D01*
X314613Y517139D01*
Y522860D01*
X314708Y522882D01*
X314829Y522933D01*
X314938Y523005D01*
X315034Y523094D01*
X315113Y523198D01*
X315172Y523315D01*
X315314Y523722D01*
X315417Y524142D01*
X315479Y524569D01*
X315500Y525000D01*
X315479Y525432D01*
X315417Y525859D01*
X315314Y526279D01*
X315172Y526686D01*
X315171D01*
X315112Y526802D01*
X315033Y526907D01*
X314937Y526996D01*
X314828Y527067D01*
X314707Y527118D01*
X314613Y527139D01*
Y531000D01*
G37*
G36*
X311000D02*X314613D01*
Y527139D01*
X314580Y527147D01*
X314450Y527154D01*
X314320Y527138D01*
X314195Y527100D01*
X314079Y527041D01*
X313974Y526962D01*
X313885Y526866D01*
X313814Y526757D01*
X313763Y526636D01*
X313734Y526509D01*
X313727Y526379D01*
X313743Y526249D01*
X313781Y526124D01*
X313876Y525853D01*
X313944Y525573D01*
X313986Y525288D01*
X314000Y525000D01*
X313986Y524713D01*
X313944Y524428D01*
X313876Y524148D01*
X313781Y523877D01*
X313780D01*
X313742Y523752D01*
X313726Y523622D01*
X313733Y523491D01*
X313762Y523364D01*
X313813Y523243D01*
X313885Y523134D01*
X313974Y523038D01*
X314078Y522959D01*
X314195Y522900D01*
X314320Y522862D01*
X314450Y522846D01*
X314581Y522853D01*
X314613Y522860D01*
Y517139D01*
X314580Y517147D01*
X314450Y517154D01*
X314320Y517138D01*
X314195Y517100D01*
X314079Y517041D01*
X313974Y516962D01*
X313885Y516866D01*
X313814Y516757D01*
X313763Y516636D01*
X313734Y516509D01*
X313727Y516379D01*
X313743Y516249D01*
X313781Y516124D01*
X313876Y515853D01*
X313944Y515573D01*
X313986Y515288D01*
X314000Y515000D01*
X313986Y514713D01*
X313944Y514428D01*
X313876Y514148D01*
X313781Y513877D01*
X313780D01*
X313742Y513752D01*
X313726Y513622D01*
X313733Y513491D01*
X313762Y513364D01*
X313813Y513243D01*
X313885Y513134D01*
X313974Y513038D01*
X314078Y512959D01*
X314195Y512900D01*
X314320Y512862D01*
X314450Y512846D01*
X314581Y512853D01*
X314613Y512860D01*
Y509000D01*
X311000D01*
Y510500D01*
X311431Y510521D01*
X311858Y510583D01*
X312278Y510686D01*
X312685Y510828D01*
Y510829D01*
X312801Y510888D01*
X312906Y510967D01*
X312995Y511063D01*
X313066Y511172D01*
X313117Y511293D01*
X313146Y511420D01*
X313153Y511550D01*
X313137Y511680D01*
X313099Y511805D01*
X313040Y511921D01*
X312961Y512026D01*
X312865Y512115D01*
X312756Y512186D01*
X312635Y512237D01*
X312508Y512266D01*
X312378Y512273D01*
X312248Y512257D01*
X312123Y512219D01*
X311852Y512124D01*
X311572Y512056D01*
X311287Y512014D01*
X311000Y512000D01*
Y518000D01*
X311287Y517987D01*
X311572Y517945D01*
X311852Y517877D01*
X312123Y517782D01*
Y517781D01*
X312248Y517743D01*
X312378Y517727D01*
X312509Y517734D01*
X312636Y517763D01*
X312757Y517814D01*
X312866Y517886D01*
X312962Y517975D01*
X313041Y518079D01*
X313100Y518196D01*
X313138Y518321D01*
X313154Y518451D01*
X313147Y518582D01*
X313118Y518709D01*
X313067Y518830D01*
X312995Y518939D01*
X312906Y519035D01*
X312802Y519114D01*
X312685Y519173D01*
X312278Y519315D01*
X311858Y519418D01*
X311431Y519480D01*
X311000Y519500D01*
Y520500D01*
X311431Y520521D01*
X311858Y520583D01*
X312278Y520686D01*
X312685Y520828D01*
Y520829D01*
X312801Y520888D01*
X312906Y520967D01*
X312995Y521063D01*
X313066Y521172D01*
X313117Y521293D01*
X313146Y521420D01*
X313153Y521550D01*
X313137Y521680D01*
X313099Y521805D01*
X313040Y521921D01*
X312961Y522026D01*
X312865Y522115D01*
X312756Y522186D01*
X312635Y522237D01*
X312508Y522266D01*
X312378Y522273D01*
X312248Y522257D01*
X312123Y522219D01*
X311852Y522124D01*
X311572Y522056D01*
X311287Y522014D01*
X311000Y522000D01*
Y528000D01*
X311287Y527987D01*
X311572Y527945D01*
X311852Y527877D01*
X312123Y527782D01*
Y527781D01*
X312248Y527743D01*
X312378Y527727D01*
X312509Y527734D01*
X312636Y527763D01*
X312757Y527814D01*
X312866Y527886D01*
X312962Y527975D01*
X313041Y528079D01*
X313100Y528196D01*
X313138Y528321D01*
X313154Y528451D01*
X313147Y528582D01*
X313118Y528709D01*
X313067Y528830D01*
X312995Y528939D01*
X312906Y529035D01*
X312802Y529114D01*
X312685Y529173D01*
X312278Y529315D01*
X311858Y529418D01*
X311431Y529480D01*
X311000Y529500D01*
Y531000D01*
G37*
G36*
X307387D02*X311000D01*
Y529500D01*
X310568Y529480D01*
X310141Y529418D01*
X309721Y529315D01*
X309314Y529173D01*
Y529172D01*
X309198Y529113D01*
X309093Y529034D01*
X309004Y528938D01*
X308933Y528829D01*
X308882Y528708D01*
X308853Y528581D01*
X308846Y528451D01*
X308862Y528321D01*
X308900Y528196D01*
X308959Y528080D01*
X309038Y527975D01*
X309134Y527886D01*
X309243Y527815D01*
X309364Y527764D01*
X309491Y527735D01*
X309621Y527728D01*
X309751Y527744D01*
X309876Y527782D01*
X310147Y527877D01*
X310427Y527945D01*
X310712Y527987D01*
X311000Y528000D01*
Y522000D01*
X310999D01*
X310712Y522014D01*
X310427Y522056D01*
X310147Y522124D01*
X309876Y522219D01*
Y522220D01*
X309751Y522258D01*
X309621Y522274D01*
X309490Y522267D01*
X309363Y522238D01*
X309242Y522187D01*
X309133Y522115D01*
X309037Y522026D01*
X308958Y521922D01*
X308899Y521805D01*
X308861Y521680D01*
X308845Y521550D01*
X308852Y521419D01*
X308881Y521292D01*
X308932Y521171D01*
X309004Y521062D01*
X309093Y520966D01*
X309197Y520887D01*
X309314Y520828D01*
X309721Y520686D01*
X310141Y520583D01*
X310568Y520521D01*
X310999Y520500D01*
X311000D01*
Y519500D01*
X310568Y519480D01*
X310141Y519418D01*
X309721Y519315D01*
X309314Y519173D01*
Y519172D01*
X309198Y519113D01*
X309093Y519034D01*
X309004Y518938D01*
X308933Y518829D01*
X308882Y518708D01*
X308853Y518581D01*
X308846Y518451D01*
X308862Y518321D01*
X308900Y518196D01*
X308959Y518080D01*
X309038Y517975D01*
X309134Y517886D01*
X309243Y517815D01*
X309364Y517764D01*
X309491Y517735D01*
X309621Y517728D01*
X309751Y517744D01*
X309876Y517782D01*
X310147Y517877D01*
X310427Y517945D01*
X310712Y517987D01*
X311000Y518000D01*
Y512000D01*
X310999D01*
X310712Y512014D01*
X310427Y512056D01*
X310147Y512124D01*
X309876Y512219D01*
Y512220D01*
X309751Y512258D01*
X309621Y512274D01*
X309490Y512267D01*
X309363Y512238D01*
X309242Y512187D01*
X309133Y512115D01*
X309037Y512026D01*
X308958Y511922D01*
X308899Y511805D01*
X308861Y511680D01*
X308845Y511550D01*
X308852Y511419D01*
X308881Y511292D01*
X308932Y511171D01*
X309004Y511062D01*
X309093Y510966D01*
X309197Y510887D01*
X309314Y510828D01*
X309721Y510686D01*
X310141Y510583D01*
X310568Y510521D01*
X310999Y510500D01*
X311000D01*
Y509000D01*
X307387D01*
Y512861D01*
X307419Y512854D01*
X307549Y512847D01*
X307679Y512863D01*
X307804Y512901D01*
X307920Y512960D01*
X308025Y513039D01*
X308114Y513135D01*
X308185Y513244D01*
X308236Y513365D01*
X308265Y513492D01*
X308272Y513622D01*
X308256Y513752D01*
X308218Y513877D01*
X308123Y514148D01*
X308055Y514428D01*
X308013Y514713D01*
X308000Y515001D01*
X308013Y515288D01*
X308055Y515573D01*
X308123Y515853D01*
X308218Y516124D01*
X308219D01*
X308257Y516249D01*
X308273Y516379D01*
X308266Y516510D01*
X308237Y516637D01*
X308186Y516758D01*
X308114Y516867D01*
X308025Y516963D01*
X307921Y517042D01*
X307804Y517101D01*
X307679Y517139D01*
X307549Y517155D01*
X307418Y517148D01*
X307387Y517141D01*
Y522861D01*
X307419Y522854D01*
X307549Y522847D01*
X307679Y522863D01*
X307804Y522901D01*
X307920Y522960D01*
X308025Y523039D01*
X308114Y523135D01*
X308185Y523244D01*
X308236Y523365D01*
X308265Y523492D01*
X308272Y523622D01*
X308256Y523752D01*
X308218Y523877D01*
X308123Y524148D01*
X308055Y524428D01*
X308013Y524713D01*
X308000Y525001D01*
X308013Y525288D01*
X308055Y525573D01*
X308123Y525853D01*
X308218Y526124D01*
X308219D01*
X308257Y526249D01*
X308273Y526379D01*
X308266Y526510D01*
X308237Y526637D01*
X308186Y526758D01*
X308114Y526867D01*
X308025Y526963D01*
X307921Y527042D01*
X307804Y527101D01*
X307679Y527139D01*
X307549Y527155D01*
X307418Y527148D01*
X307387Y527141D01*
Y531000D01*
G37*
G36*
X301000D02*X307387D01*
Y527141D01*
X307291Y527119D01*
X307170Y527068D01*
X307061Y526996D01*
X306965Y526907D01*
X306886Y526803D01*
X306827Y526686D01*
X306685Y526279D01*
X306582Y525859D01*
X306520Y525432D01*
X306500Y525001D01*
X306520Y524569D01*
X306582Y524142D01*
X306685Y523722D01*
X306827Y523315D01*
X306828D01*
X306887Y523199D01*
X306966Y523094D01*
X307062Y523005D01*
X307171Y522934D01*
X307292Y522883D01*
X307387Y522861D01*
Y517141D01*
X307291Y517119D01*
X307170Y517068D01*
X307061Y516996D01*
X306965Y516907D01*
X306886Y516803D01*
X306827Y516686D01*
X306685Y516279D01*
X306582Y515859D01*
X306520Y515432D01*
X306500Y515001D01*
X306520Y514569D01*
X306582Y514142D01*
X306685Y513722D01*
X306827Y513315D01*
X306828D01*
X306887Y513199D01*
X306966Y513094D01*
X307062Y513005D01*
X307171Y512934D01*
X307292Y512883D01*
X307387Y512861D01*
Y509000D01*
X301000D01*
Y510500D01*
X301781Y510568D01*
X302539Y510771D01*
X303250Y511103D01*
X303893Y511553D01*
X304447Y512107D01*
X304897Y512750D01*
X305229Y513461D01*
X305432Y514219D01*
X305500Y515000D01*
X305432Y515781D01*
X305229Y516539D01*
X304897Y517250D01*
X304447Y517893D01*
X303893Y518447D01*
X303250Y518897D01*
X302539Y519229D01*
X301781Y519432D01*
X301000Y519500D01*
Y520500D01*
X301781Y520568D01*
X302539Y520771D01*
X303250Y521103D01*
X303893Y521553D01*
X304447Y522107D01*
X304897Y522750D01*
X305229Y523461D01*
X305432Y524219D01*
X305500Y525000D01*
X305432Y525781D01*
X305229Y526539D01*
X304897Y527250D01*
X304447Y527893D01*
X303893Y528447D01*
X303250Y528897D01*
X302539Y529229D01*
X301781Y529432D01*
X301000Y529500D01*
Y531000D01*
G37*
G36*
X294613D02*X301000D01*
Y529500D01*
X300219Y529432D01*
X299461Y529229D01*
X298750Y528897D01*
X298107Y528447D01*
X297553Y527893D01*
X297103Y527250D01*
X296771Y526539D01*
X296568Y525781D01*
X296500Y525000D01*
X296568Y524219D01*
X296771Y523461D01*
X297103Y522750D01*
X297553Y522107D01*
X298107Y521553D01*
X298750Y521103D01*
X299461Y520771D01*
X300219Y520568D01*
X301000Y520500D01*
Y519500D01*
X300219Y519432D01*
X299461Y519229D01*
X298750Y518897D01*
X298107Y518447D01*
X297553Y517893D01*
X297103Y517250D01*
X296771Y516539D01*
X296568Y515781D01*
X296500Y515000D01*
X296568Y514219D01*
X296771Y513461D01*
X297103Y512750D01*
X297553Y512107D01*
X298107Y511553D01*
X298750Y511103D01*
X299461Y510771D01*
X300219Y510568D01*
X301000Y510500D01*
Y509000D01*
X294613D01*
Y512860D01*
X294708Y512882D01*
X294829Y512933D01*
X294938Y513005D01*
X295034Y513094D01*
X295113Y513198D01*
X295172Y513315D01*
X295314Y513722D01*
X295417Y514142D01*
X295479Y514569D01*
X295500Y515000D01*
X295479Y515432D01*
X295417Y515859D01*
X295314Y516279D01*
X295172Y516686D01*
X295171D01*
X295112Y516802D01*
X295033Y516907D01*
X294937Y516996D01*
X294828Y517067D01*
X294707Y517118D01*
X294613Y517139D01*
Y522860D01*
X294708Y522882D01*
X294829Y522933D01*
X294938Y523005D01*
X295034Y523094D01*
X295113Y523198D01*
X295172Y523315D01*
X295314Y523722D01*
X295417Y524142D01*
X295479Y524569D01*
X295500Y525000D01*
X295479Y525432D01*
X295417Y525859D01*
X295314Y526279D01*
X295172Y526686D01*
X295171D01*
X295112Y526802D01*
X295033Y526907D01*
X294937Y526996D01*
X294828Y527067D01*
X294707Y527118D01*
X294613Y527139D01*
Y531000D01*
G37*
G36*
X291000D02*X294613D01*
Y527139D01*
X294580Y527147D01*
X294450Y527154D01*
X294320Y527138D01*
X294195Y527100D01*
X294079Y527041D01*
X293974Y526962D01*
X293885Y526866D01*
X293814Y526757D01*
X293763Y526636D01*
X293734Y526509D01*
X293727Y526379D01*
X293743Y526249D01*
X293781Y526124D01*
X293876Y525853D01*
X293944Y525573D01*
X293986Y525288D01*
X294000Y525000D01*
X293986Y524713D01*
X293944Y524428D01*
X293876Y524148D01*
X293781Y523877D01*
X293780D01*
X293742Y523752D01*
X293726Y523622D01*
X293733Y523491D01*
X293762Y523364D01*
X293813Y523243D01*
X293885Y523134D01*
X293974Y523038D01*
X294078Y522959D01*
X294195Y522900D01*
X294320Y522862D01*
X294450Y522846D01*
X294581Y522853D01*
X294613Y522860D01*
Y517139D01*
X294580Y517147D01*
X294450Y517154D01*
X294320Y517138D01*
X294195Y517100D01*
X294079Y517041D01*
X293974Y516962D01*
X293885Y516866D01*
X293814Y516757D01*
X293763Y516636D01*
X293734Y516509D01*
X293727Y516379D01*
X293743Y516249D01*
X293781Y516124D01*
X293876Y515853D01*
X293944Y515573D01*
X293986Y515288D01*
X294000Y515000D01*
X293986Y514713D01*
X293944Y514428D01*
X293876Y514148D01*
X293781Y513877D01*
X293780D01*
X293742Y513752D01*
X293726Y513622D01*
X293733Y513491D01*
X293762Y513364D01*
X293813Y513243D01*
X293885Y513134D01*
X293974Y513038D01*
X294078Y512959D01*
X294195Y512900D01*
X294320Y512862D01*
X294450Y512846D01*
X294581Y512853D01*
X294613Y512860D01*
Y509000D01*
X291000D01*
Y510500D01*
X291431Y510521D01*
X291858Y510583D01*
X292278Y510686D01*
X292685Y510828D01*
Y510829D01*
X292801Y510888D01*
X292906Y510967D01*
X292995Y511063D01*
X293066Y511172D01*
X293117Y511293D01*
X293146Y511420D01*
X293153Y511550D01*
X293137Y511680D01*
X293099Y511805D01*
X293040Y511921D01*
X292961Y512026D01*
X292865Y512115D01*
X292756Y512186D01*
X292635Y512237D01*
X292508Y512266D01*
X292378Y512273D01*
X292248Y512257D01*
X292123Y512219D01*
X291852Y512124D01*
X291572Y512056D01*
X291287Y512014D01*
X291000Y512000D01*
Y518000D01*
X291287Y517987D01*
X291572Y517945D01*
X291852Y517877D01*
X292123Y517782D01*
Y517781D01*
X292248Y517743D01*
X292378Y517727D01*
X292509Y517734D01*
X292636Y517763D01*
X292757Y517814D01*
X292866Y517886D01*
X292962Y517975D01*
X293041Y518079D01*
X293100Y518196D01*
X293138Y518321D01*
X293154Y518451D01*
X293147Y518582D01*
X293118Y518709D01*
X293067Y518830D01*
X292995Y518939D01*
X292906Y519035D01*
X292802Y519114D01*
X292685Y519173D01*
X292278Y519315D01*
X291858Y519418D01*
X291431Y519480D01*
X291000Y519500D01*
Y520500D01*
X291431Y520521D01*
X291858Y520583D01*
X292278Y520686D01*
X292685Y520828D01*
Y520829D01*
X292801Y520888D01*
X292906Y520967D01*
X292995Y521063D01*
X293066Y521172D01*
X293117Y521293D01*
X293146Y521420D01*
X293153Y521550D01*
X293137Y521680D01*
X293099Y521805D01*
X293040Y521921D01*
X292961Y522026D01*
X292865Y522115D01*
X292756Y522186D01*
X292635Y522237D01*
X292508Y522266D01*
X292378Y522273D01*
X292248Y522257D01*
X292123Y522219D01*
X291852Y522124D01*
X291572Y522056D01*
X291287Y522014D01*
X291000Y522000D01*
Y528000D01*
X291287Y527987D01*
X291572Y527945D01*
X291852Y527877D01*
X292123Y527782D01*
Y527781D01*
X292248Y527743D01*
X292378Y527727D01*
X292509Y527734D01*
X292636Y527763D01*
X292757Y527814D01*
X292866Y527886D01*
X292962Y527975D01*
X293041Y528079D01*
X293100Y528196D01*
X293138Y528321D01*
X293154Y528451D01*
X293147Y528582D01*
X293118Y528709D01*
X293067Y528830D01*
X292995Y528939D01*
X292906Y529035D01*
X292802Y529114D01*
X292685Y529173D01*
X292278Y529315D01*
X291858Y529418D01*
X291431Y529480D01*
X291000Y529500D01*
Y531000D01*
G37*
G36*
X287387D02*X291000D01*
Y529500D01*
X290568Y529480D01*
X290141Y529418D01*
X289721Y529315D01*
X289314Y529173D01*
Y529172D01*
X289198Y529113D01*
X289093Y529034D01*
X289004Y528938D01*
X288933Y528829D01*
X288882Y528708D01*
X288853Y528581D01*
X288846Y528451D01*
X288862Y528321D01*
X288900Y528196D01*
X288959Y528080D01*
X289038Y527975D01*
X289134Y527886D01*
X289243Y527815D01*
X289364Y527764D01*
X289491Y527735D01*
X289621Y527728D01*
X289751Y527744D01*
X289876Y527782D01*
X290147Y527877D01*
X290427Y527945D01*
X290712Y527987D01*
X291000Y528000D01*
Y522000D01*
X290999D01*
X290712Y522014D01*
X290427Y522056D01*
X290147Y522124D01*
X289876Y522219D01*
Y522220D01*
X289751Y522258D01*
X289621Y522274D01*
X289490Y522267D01*
X289363Y522238D01*
X289242Y522187D01*
X289133Y522115D01*
X289037Y522026D01*
X288958Y521922D01*
X288899Y521805D01*
X288861Y521680D01*
X288845Y521550D01*
X288852Y521419D01*
X288881Y521292D01*
X288932Y521171D01*
X289004Y521062D01*
X289093Y520966D01*
X289197Y520887D01*
X289314Y520828D01*
X289721Y520686D01*
X290141Y520583D01*
X290568Y520521D01*
X290999Y520500D01*
X291000D01*
Y519500D01*
X290568Y519480D01*
X290141Y519418D01*
X289721Y519315D01*
X289314Y519173D01*
Y519172D01*
X289198Y519113D01*
X289093Y519034D01*
X289004Y518938D01*
X288933Y518829D01*
X288882Y518708D01*
X288853Y518581D01*
X288846Y518451D01*
X288862Y518321D01*
X288900Y518196D01*
X288959Y518080D01*
X289038Y517975D01*
X289134Y517886D01*
X289243Y517815D01*
X289364Y517764D01*
X289491Y517735D01*
X289621Y517728D01*
X289751Y517744D01*
X289876Y517782D01*
X290147Y517877D01*
X290427Y517945D01*
X290712Y517987D01*
X291000Y518000D01*
Y512000D01*
X290999D01*
X290712Y512014D01*
X290427Y512056D01*
X290147Y512124D01*
X289876Y512219D01*
Y512220D01*
X289751Y512258D01*
X289621Y512274D01*
X289490Y512267D01*
X289363Y512238D01*
X289242Y512187D01*
X289133Y512115D01*
X289037Y512026D01*
X288958Y511922D01*
X288899Y511805D01*
X288861Y511680D01*
X288845Y511550D01*
X288852Y511419D01*
X288881Y511292D01*
X288932Y511171D01*
X289004Y511062D01*
X289093Y510966D01*
X289197Y510887D01*
X289314Y510828D01*
X289721Y510686D01*
X290141Y510583D01*
X290568Y510521D01*
X290999Y510500D01*
X291000D01*
Y509000D01*
X287387D01*
Y512861D01*
X287419Y512854D01*
X287549Y512847D01*
X287679Y512863D01*
X287804Y512901D01*
X287920Y512960D01*
X288025Y513039D01*
X288114Y513135D01*
X288185Y513244D01*
X288236Y513365D01*
X288265Y513492D01*
X288272Y513622D01*
X288256Y513752D01*
X288218Y513877D01*
X288123Y514148D01*
X288055Y514428D01*
X288013Y514713D01*
X288000Y515001D01*
X288013Y515288D01*
X288055Y515573D01*
X288123Y515853D01*
X288218Y516124D01*
X288219D01*
X288257Y516249D01*
X288273Y516379D01*
X288266Y516510D01*
X288237Y516637D01*
X288186Y516758D01*
X288114Y516867D01*
X288025Y516963D01*
X287921Y517042D01*
X287804Y517101D01*
X287679Y517139D01*
X287549Y517155D01*
X287418Y517148D01*
X287387Y517141D01*
Y522861D01*
X287419Y522854D01*
X287549Y522847D01*
X287679Y522863D01*
X287804Y522901D01*
X287920Y522960D01*
X288025Y523039D01*
X288114Y523135D01*
X288185Y523244D01*
X288236Y523365D01*
X288265Y523492D01*
X288272Y523622D01*
X288256Y523752D01*
X288218Y523877D01*
X288123Y524148D01*
X288055Y524428D01*
X288013Y524713D01*
X288000Y525001D01*
X288013Y525288D01*
X288055Y525573D01*
X288123Y525853D01*
X288218Y526124D01*
X288219D01*
X288257Y526249D01*
X288273Y526379D01*
X288266Y526510D01*
X288237Y526637D01*
X288186Y526758D01*
X288114Y526867D01*
X288025Y526963D01*
X287921Y527042D01*
X287804Y527101D01*
X287679Y527139D01*
X287549Y527155D01*
X287418Y527148D01*
X287387Y527141D01*
Y531000D01*
G37*
G36*
X281000D02*X287387D01*
Y527141D01*
X287291Y527119D01*
X287170Y527068D01*
X287061Y526996D01*
X286965Y526907D01*
X286886Y526803D01*
X286827Y526686D01*
X286685Y526279D01*
X286582Y525859D01*
X286520Y525432D01*
X286500Y525001D01*
X286520Y524569D01*
X286582Y524142D01*
X286685Y523722D01*
X286827Y523315D01*
X286828D01*
X286887Y523199D01*
X286966Y523094D01*
X287062Y523005D01*
X287171Y522934D01*
X287292Y522883D01*
X287387Y522861D01*
Y517141D01*
X287291Y517119D01*
X287170Y517068D01*
X287061Y516996D01*
X286965Y516907D01*
X286886Y516803D01*
X286827Y516686D01*
X286685Y516279D01*
X286582Y515859D01*
X286520Y515432D01*
X286500Y515001D01*
X286520Y514569D01*
X286582Y514142D01*
X286685Y513722D01*
X286827Y513315D01*
X286828D01*
X286887Y513199D01*
X286966Y513094D01*
X287062Y513005D01*
X287171Y512934D01*
X287292Y512883D01*
X287387Y512861D01*
Y509000D01*
X281000D01*
Y510500D01*
X281781Y510568D01*
X282539Y510771D01*
X283250Y511103D01*
X283893Y511553D01*
X284447Y512107D01*
X284897Y512750D01*
X285229Y513461D01*
X285432Y514219D01*
X285500Y515000D01*
X285432Y515781D01*
X285229Y516539D01*
X284897Y517250D01*
X284447Y517893D01*
X283893Y518447D01*
X283250Y518897D01*
X282539Y519229D01*
X281781Y519432D01*
X281000Y519500D01*
Y520500D01*
X281781Y520568D01*
X282539Y520771D01*
X283250Y521103D01*
X283893Y521553D01*
X284447Y522107D01*
X284897Y522750D01*
X285229Y523461D01*
X285432Y524219D01*
X285500Y525000D01*
X285432Y525781D01*
X285229Y526539D01*
X284897Y527250D01*
X284447Y527893D01*
X283893Y528447D01*
X283250Y528897D01*
X282539Y529229D01*
X281781Y529432D01*
X281000Y529500D01*
Y531000D01*
G37*
G36*
X274613D02*X281000D01*
Y529500D01*
X280219Y529432D01*
X279461Y529229D01*
X278750Y528897D01*
X278107Y528447D01*
X277553Y527893D01*
X277103Y527250D01*
X276771Y526539D01*
X276568Y525781D01*
X276500Y525000D01*
X276568Y524219D01*
X276771Y523461D01*
X277103Y522750D01*
X277553Y522107D01*
X278107Y521553D01*
X278750Y521103D01*
X279461Y520771D01*
X280219Y520568D01*
X281000Y520500D01*
Y519500D01*
X280219Y519432D01*
X279461Y519229D01*
X278750Y518897D01*
X278107Y518447D01*
X277553Y517893D01*
X277103Y517250D01*
X276771Y516539D01*
X276568Y515781D01*
X276500Y515000D01*
X276568Y514219D01*
X276771Y513461D01*
X277103Y512750D01*
X277553Y512107D01*
X278107Y511553D01*
X278750Y511103D01*
X279461Y510771D01*
X280219Y510568D01*
X281000Y510500D01*
Y509000D01*
X274613D01*
Y512860D01*
X274708Y512882D01*
X274829Y512933D01*
X274938Y513005D01*
X275034Y513094D01*
X275113Y513198D01*
X275172Y513315D01*
X275314Y513722D01*
X275417Y514142D01*
X275479Y514569D01*
X275500Y515000D01*
X275479Y515432D01*
X275417Y515859D01*
X275314Y516279D01*
X275172Y516686D01*
X275171D01*
X275112Y516802D01*
X275033Y516907D01*
X274937Y516996D01*
X274828Y517067D01*
X274707Y517118D01*
X274613Y517139D01*
Y522860D01*
X274708Y522882D01*
X274829Y522933D01*
X274938Y523005D01*
X275034Y523094D01*
X275113Y523198D01*
X275172Y523315D01*
X275314Y523722D01*
X275417Y524142D01*
X275479Y524569D01*
X275500Y525000D01*
X275479Y525432D01*
X275417Y525859D01*
X275314Y526279D01*
X275172Y526686D01*
X275171D01*
X275112Y526802D01*
X275033Y526907D01*
X274937Y526996D01*
X274828Y527067D01*
X274707Y527118D01*
X274613Y527139D01*
Y531000D01*
G37*
G36*
X271000D02*X274613D01*
Y527139D01*
X274580Y527147D01*
X274450Y527154D01*
X274320Y527138D01*
X274195Y527100D01*
X274079Y527041D01*
X273974Y526962D01*
X273885Y526866D01*
X273814Y526757D01*
X273763Y526636D01*
X273734Y526509D01*
X273727Y526379D01*
X273743Y526249D01*
X273781Y526124D01*
X273876Y525853D01*
X273944Y525573D01*
X273986Y525288D01*
X274000Y525000D01*
X273986Y524713D01*
X273944Y524428D01*
X273876Y524148D01*
X273781Y523877D01*
X273780D01*
X273742Y523752D01*
X273726Y523622D01*
X273733Y523491D01*
X273762Y523364D01*
X273813Y523243D01*
X273885Y523134D01*
X273974Y523038D01*
X274078Y522959D01*
X274195Y522900D01*
X274320Y522862D01*
X274450Y522846D01*
X274581Y522853D01*
X274613Y522860D01*
Y517139D01*
X274580Y517147D01*
X274450Y517154D01*
X274320Y517138D01*
X274195Y517100D01*
X274079Y517041D01*
X273974Y516962D01*
X273885Y516866D01*
X273814Y516757D01*
X273763Y516636D01*
X273734Y516509D01*
X273727Y516379D01*
X273743Y516249D01*
X273781Y516124D01*
X273876Y515853D01*
X273944Y515573D01*
X273986Y515288D01*
X274000Y515000D01*
X273986Y514713D01*
X273944Y514428D01*
X273876Y514148D01*
X273781Y513877D01*
X273780D01*
X273742Y513752D01*
X273726Y513622D01*
X273733Y513491D01*
X273762Y513364D01*
X273813Y513243D01*
X273885Y513134D01*
X273974Y513038D01*
X274078Y512959D01*
X274195Y512900D01*
X274320Y512862D01*
X274450Y512846D01*
X274581Y512853D01*
X274613Y512860D01*
Y509000D01*
X271000D01*
Y510500D01*
X271431Y510521D01*
X271858Y510583D01*
X272278Y510686D01*
X272685Y510828D01*
Y510829D01*
X272801Y510888D01*
X272906Y510967D01*
X272995Y511063D01*
X273066Y511172D01*
X273117Y511293D01*
X273146Y511420D01*
X273153Y511550D01*
X273137Y511680D01*
X273099Y511805D01*
X273040Y511921D01*
X272961Y512026D01*
X272865Y512115D01*
X272756Y512186D01*
X272635Y512237D01*
X272508Y512266D01*
X272378Y512273D01*
X272248Y512257D01*
X272123Y512219D01*
X271852Y512124D01*
X271572Y512056D01*
X271287Y512014D01*
X271000Y512000D01*
Y518000D01*
X271287Y517987D01*
X271572Y517945D01*
X271852Y517877D01*
X272123Y517782D01*
Y517781D01*
X272248Y517743D01*
X272378Y517727D01*
X272509Y517734D01*
X272636Y517763D01*
X272757Y517814D01*
X272866Y517886D01*
X272962Y517975D01*
X273041Y518079D01*
X273100Y518196D01*
X273138Y518321D01*
X273154Y518451D01*
X273147Y518582D01*
X273118Y518709D01*
X273067Y518830D01*
X272995Y518939D01*
X272906Y519035D01*
X272802Y519114D01*
X272685Y519173D01*
X272278Y519315D01*
X271858Y519418D01*
X271431Y519480D01*
X271000Y519500D01*
Y520500D01*
X271431Y520521D01*
X271858Y520583D01*
X272278Y520686D01*
X272685Y520828D01*
Y520829D01*
X272801Y520888D01*
X272906Y520967D01*
X272995Y521063D01*
X273066Y521172D01*
X273117Y521293D01*
X273146Y521420D01*
X273153Y521550D01*
X273137Y521680D01*
X273099Y521805D01*
X273040Y521921D01*
X272961Y522026D01*
X272865Y522115D01*
X272756Y522186D01*
X272635Y522237D01*
X272508Y522266D01*
X272378Y522273D01*
X272248Y522257D01*
X272123Y522219D01*
X271852Y522124D01*
X271572Y522056D01*
X271287Y522014D01*
X271000Y522000D01*
Y528000D01*
X271287Y527987D01*
X271572Y527945D01*
X271852Y527877D01*
X272123Y527782D01*
Y527781D01*
X272248Y527743D01*
X272378Y527727D01*
X272509Y527734D01*
X272636Y527763D01*
X272757Y527814D01*
X272866Y527886D01*
X272962Y527975D01*
X273041Y528079D01*
X273100Y528196D01*
X273138Y528321D01*
X273154Y528451D01*
X273147Y528582D01*
X273118Y528709D01*
X273067Y528830D01*
X272995Y528939D01*
X272906Y529035D01*
X272802Y529114D01*
X272685Y529173D01*
X272278Y529315D01*
X271858Y529418D01*
X271431Y529480D01*
X271000Y529500D01*
Y531000D01*
G37*
G36*
X267387D02*X271000D01*
Y529500D01*
X270568Y529480D01*
X270141Y529418D01*
X269721Y529315D01*
X269314Y529173D01*
Y529172D01*
X269198Y529113D01*
X269093Y529034D01*
X269004Y528938D01*
X268933Y528829D01*
X268882Y528708D01*
X268853Y528581D01*
X268846Y528451D01*
X268862Y528321D01*
X268900Y528196D01*
X268959Y528080D01*
X269038Y527975D01*
X269134Y527886D01*
X269243Y527815D01*
X269364Y527764D01*
X269491Y527735D01*
X269621Y527728D01*
X269751Y527744D01*
X269876Y527782D01*
X270147Y527877D01*
X270427Y527945D01*
X270712Y527987D01*
X271000Y528000D01*
Y522000D01*
X270999D01*
X270712Y522014D01*
X270427Y522056D01*
X270147Y522124D01*
X269876Y522219D01*
Y522220D01*
X269751Y522258D01*
X269621Y522274D01*
X269490Y522267D01*
X269363Y522238D01*
X269242Y522187D01*
X269133Y522115D01*
X269037Y522026D01*
X268958Y521922D01*
X268899Y521805D01*
X268861Y521680D01*
X268845Y521550D01*
X268852Y521419D01*
X268881Y521292D01*
X268932Y521171D01*
X269004Y521062D01*
X269093Y520966D01*
X269197Y520887D01*
X269314Y520828D01*
X269721Y520686D01*
X270141Y520583D01*
X270568Y520521D01*
X270999Y520500D01*
X271000D01*
Y519500D01*
X270568Y519480D01*
X270141Y519418D01*
X269721Y519315D01*
X269314Y519173D01*
Y519172D01*
X269198Y519113D01*
X269093Y519034D01*
X269004Y518938D01*
X268933Y518829D01*
X268882Y518708D01*
X268853Y518581D01*
X268846Y518451D01*
X268862Y518321D01*
X268900Y518196D01*
X268959Y518080D01*
X269038Y517975D01*
X269134Y517886D01*
X269243Y517815D01*
X269364Y517764D01*
X269491Y517735D01*
X269621Y517728D01*
X269751Y517744D01*
X269876Y517782D01*
X270147Y517877D01*
X270427Y517945D01*
X270712Y517987D01*
X271000Y518000D01*
Y512000D01*
X270999D01*
X270712Y512014D01*
X270427Y512056D01*
X270147Y512124D01*
X269876Y512219D01*
Y512220D01*
X269751Y512258D01*
X269621Y512274D01*
X269490Y512267D01*
X269363Y512238D01*
X269242Y512187D01*
X269133Y512115D01*
X269037Y512026D01*
X268958Y511922D01*
X268899Y511805D01*
X268861Y511680D01*
X268845Y511550D01*
X268852Y511419D01*
X268881Y511292D01*
X268932Y511171D01*
X269004Y511062D01*
X269093Y510966D01*
X269197Y510887D01*
X269314Y510828D01*
X269721Y510686D01*
X270141Y510583D01*
X270568Y510521D01*
X270999Y510500D01*
X271000D01*
Y509000D01*
X267387D01*
Y512861D01*
X267419Y512854D01*
X267549Y512847D01*
X267679Y512863D01*
X267804Y512901D01*
X267920Y512960D01*
X268025Y513039D01*
X268114Y513135D01*
X268185Y513244D01*
X268236Y513365D01*
X268265Y513492D01*
X268272Y513622D01*
X268256Y513752D01*
X268218Y513877D01*
X268123Y514148D01*
X268055Y514428D01*
X268013Y514713D01*
X268000Y515001D01*
X268013Y515288D01*
X268055Y515573D01*
X268123Y515853D01*
X268218Y516124D01*
X268219D01*
X268257Y516249D01*
X268273Y516379D01*
X268266Y516510D01*
X268237Y516637D01*
X268186Y516758D01*
X268114Y516867D01*
X268025Y516963D01*
X267921Y517042D01*
X267804Y517101D01*
X267679Y517139D01*
X267549Y517155D01*
X267418Y517148D01*
X267387Y517141D01*
Y522861D01*
X267419Y522854D01*
X267549Y522847D01*
X267679Y522863D01*
X267804Y522901D01*
X267920Y522960D01*
X268025Y523039D01*
X268114Y523135D01*
X268185Y523244D01*
X268236Y523365D01*
X268265Y523492D01*
X268272Y523622D01*
X268256Y523752D01*
X268218Y523877D01*
X268123Y524148D01*
X268055Y524428D01*
X268013Y524713D01*
X268000Y525001D01*
X268013Y525288D01*
X268055Y525573D01*
X268123Y525853D01*
X268218Y526124D01*
X268219D01*
X268257Y526249D01*
X268273Y526379D01*
X268266Y526510D01*
X268237Y526637D01*
X268186Y526758D01*
X268114Y526867D01*
X268025Y526963D01*
X267921Y527042D01*
X267804Y527101D01*
X267679Y527139D01*
X267549Y527155D01*
X267418Y527148D01*
X267387Y527141D01*
Y531000D01*
G37*
G36*
X261000D02*X267387D01*
Y527141D01*
X267291Y527119D01*
X267170Y527068D01*
X267061Y526996D01*
X266965Y526907D01*
X266886Y526803D01*
X266827Y526686D01*
X266685Y526279D01*
X266582Y525859D01*
X266520Y525432D01*
X266500Y525001D01*
X266520Y524569D01*
X266582Y524142D01*
X266685Y523722D01*
X266827Y523315D01*
X266828D01*
X266887Y523199D01*
X266966Y523094D01*
X267062Y523005D01*
X267171Y522934D01*
X267292Y522883D01*
X267387Y522861D01*
Y517141D01*
X267291Y517119D01*
X267170Y517068D01*
X267061Y516996D01*
X266965Y516907D01*
X266886Y516803D01*
X266827Y516686D01*
X266685Y516279D01*
X266582Y515859D01*
X266520Y515432D01*
X266500Y515001D01*
X266520Y514569D01*
X266582Y514142D01*
X266685Y513722D01*
X266827Y513315D01*
X266828D01*
X266887Y513199D01*
X266966Y513094D01*
X267062Y513005D01*
X267171Y512934D01*
X267292Y512883D01*
X267387Y512861D01*
Y509000D01*
X261000D01*
Y510500D01*
X261781Y510568D01*
X262539Y510771D01*
X263250Y511103D01*
X263893Y511553D01*
X264447Y512107D01*
X264897Y512750D01*
X265229Y513461D01*
X265432Y514219D01*
X265500Y515000D01*
X265432Y515781D01*
X265229Y516539D01*
X264897Y517250D01*
X264447Y517893D01*
X263893Y518447D01*
X263250Y518897D01*
X262539Y519229D01*
X261781Y519432D01*
X261000Y519500D01*
Y520500D01*
X261781Y520568D01*
X262539Y520771D01*
X263250Y521103D01*
X263893Y521553D01*
X264447Y522107D01*
X264897Y522750D01*
X265229Y523461D01*
X265432Y524219D01*
X265500Y525000D01*
X265432Y525781D01*
X265229Y526539D01*
X264897Y527250D01*
X264447Y527893D01*
X263893Y528447D01*
X263250Y528897D01*
X262539Y529229D01*
X261781Y529432D01*
X261000Y529500D01*
Y531000D01*
G37*
G36*
X254613D02*X261000D01*
Y529500D01*
X260219Y529432D01*
X259461Y529229D01*
X258750Y528897D01*
X258107Y528447D01*
X257553Y527893D01*
X257103Y527250D01*
X256771Y526539D01*
X256568Y525781D01*
X256500Y525000D01*
X256568Y524219D01*
X256771Y523461D01*
X257103Y522750D01*
X257553Y522107D01*
X258107Y521553D01*
X258750Y521103D01*
X259461Y520771D01*
X260219Y520568D01*
X261000Y520500D01*
Y519500D01*
X260219Y519432D01*
X259461Y519229D01*
X258750Y518897D01*
X258107Y518447D01*
X257553Y517893D01*
X257103Y517250D01*
X256771Y516539D01*
X256568Y515781D01*
X256500Y515000D01*
X256568Y514219D01*
X256771Y513461D01*
X257103Y512750D01*
X257553Y512107D01*
X258107Y511553D01*
X258750Y511103D01*
X259461Y510771D01*
X260219Y510568D01*
X261000Y510500D01*
Y509000D01*
X254613D01*
Y512860D01*
X254708Y512882D01*
X254829Y512933D01*
X254938Y513005D01*
X255034Y513094D01*
X255113Y513198D01*
X255172Y513315D01*
X255314Y513722D01*
X255417Y514142D01*
X255479Y514569D01*
X255500Y515000D01*
X255479Y515432D01*
X255417Y515859D01*
X255314Y516279D01*
X255172Y516686D01*
X255171D01*
X255112Y516802D01*
X255033Y516907D01*
X254937Y516996D01*
X254828Y517067D01*
X254707Y517118D01*
X254613Y517139D01*
Y522860D01*
X254708Y522882D01*
X254829Y522933D01*
X254938Y523005D01*
X255034Y523094D01*
X255113Y523198D01*
X255172Y523315D01*
X255314Y523722D01*
X255417Y524142D01*
X255479Y524569D01*
X255500Y525000D01*
X255479Y525432D01*
X255417Y525859D01*
X255314Y526279D01*
X255172Y526686D01*
X255171D01*
X255112Y526802D01*
X255033Y526907D01*
X254937Y526996D01*
X254828Y527067D01*
X254707Y527118D01*
X254613Y527139D01*
Y531000D01*
G37*
G36*
X250999D02*X254613D01*
Y527139D01*
X254580Y527147D01*
X254450Y527154D01*
X254320Y527138D01*
X254195Y527100D01*
X254079Y527041D01*
X253974Y526962D01*
X253885Y526866D01*
X253814Y526757D01*
X253763Y526636D01*
X253734Y526509D01*
X253727Y526379D01*
X253743Y526249D01*
X253781Y526124D01*
X253876Y525853D01*
X253944Y525573D01*
X253986Y525288D01*
X254000Y525000D01*
X253986Y524713D01*
X253944Y524428D01*
X253876Y524148D01*
X253781Y523877D01*
X253780D01*
X253742Y523752D01*
X253726Y523622D01*
X253733Y523491D01*
X253762Y523364D01*
X253813Y523243D01*
X253885Y523134D01*
X253974Y523038D01*
X254078Y522959D01*
X254195Y522900D01*
X254320Y522862D01*
X254450Y522846D01*
X254581Y522853D01*
X254613Y522860D01*
Y517139D01*
X254580Y517147D01*
X254450Y517154D01*
X254320Y517138D01*
X254195Y517100D01*
X254079Y517041D01*
X253974Y516962D01*
X253885Y516866D01*
X253814Y516757D01*
X253763Y516636D01*
X253734Y516509D01*
X253727Y516379D01*
X253743Y516249D01*
X253781Y516124D01*
X253876Y515853D01*
X253944Y515573D01*
X253986Y515288D01*
X254000Y515000D01*
X253986Y514713D01*
X253944Y514428D01*
X253876Y514148D01*
X253781Y513877D01*
X253780D01*
X253742Y513752D01*
X253726Y513622D01*
X253733Y513491D01*
X253762Y513364D01*
X253813Y513243D01*
X253885Y513134D01*
X253974Y513038D01*
X254078Y512959D01*
X254195Y512900D01*
X254320Y512862D01*
X254450Y512846D01*
X254581Y512853D01*
X254613Y512860D01*
Y509000D01*
X250999D01*
Y510500D01*
X251431Y510521D01*
X251858Y510583D01*
X252278Y510686D01*
X252685Y510828D01*
Y510829D01*
X252801Y510888D01*
X252906Y510967D01*
X252995Y511063D01*
X253066Y511172D01*
X253117Y511293D01*
X253146Y511420D01*
X253153Y511550D01*
X253137Y511680D01*
X253099Y511805D01*
X253040Y511921D01*
X252961Y512026D01*
X252865Y512115D01*
X252756Y512186D01*
X252635Y512237D01*
X252508Y512266D01*
X252378Y512273D01*
X252248Y512257D01*
X252123Y512219D01*
X251852Y512124D01*
X251572Y512056D01*
X251287Y512014D01*
X250999Y512000D01*
Y518000D01*
X251000D01*
X251287Y517987D01*
X251572Y517945D01*
X251852Y517877D01*
X252123Y517782D01*
Y517781D01*
X252248Y517743D01*
X252378Y517727D01*
X252509Y517734D01*
X252636Y517763D01*
X252757Y517814D01*
X252866Y517886D01*
X252962Y517975D01*
X253041Y518079D01*
X253100Y518196D01*
X253138Y518321D01*
X253154Y518451D01*
X253147Y518582D01*
X253118Y518709D01*
X253067Y518830D01*
X252995Y518939D01*
X252906Y519035D01*
X252802Y519114D01*
X252685Y519173D01*
X252278Y519315D01*
X251858Y519418D01*
X251431Y519480D01*
X251000Y519500D01*
X250999D01*
Y520500D01*
X251431Y520521D01*
X251858Y520583D01*
X252278Y520686D01*
X252685Y520828D01*
Y520829D01*
X252801Y520888D01*
X252906Y520967D01*
X252995Y521063D01*
X253066Y521172D01*
X253117Y521293D01*
X253146Y521420D01*
X253153Y521550D01*
X253137Y521680D01*
X253099Y521805D01*
X253040Y521921D01*
X252961Y522026D01*
X252865Y522115D01*
X252756Y522186D01*
X252635Y522237D01*
X252508Y522266D01*
X252378Y522273D01*
X252248Y522257D01*
X252123Y522219D01*
X251852Y522124D01*
X251572Y522056D01*
X251287Y522014D01*
X250999Y522000D01*
Y528000D01*
X251000D01*
X251287Y527987D01*
X251572Y527945D01*
X251852Y527877D01*
X252123Y527782D01*
Y527781D01*
X252248Y527743D01*
X252378Y527727D01*
X252509Y527734D01*
X252636Y527763D01*
X252757Y527814D01*
X252866Y527886D01*
X252962Y527975D01*
X253041Y528079D01*
X253100Y528196D01*
X253138Y528321D01*
X253154Y528451D01*
X253147Y528582D01*
X253118Y528709D01*
X253067Y528830D01*
X252995Y528939D01*
X252906Y529035D01*
X252802Y529114D01*
X252685Y529173D01*
X252278Y529315D01*
X251858Y529418D01*
X251431Y529480D01*
X251000Y529500D01*
X250999D01*
Y531000D01*
G37*
G36*
X247387D02*X250999D01*
Y529500D01*
X250568Y529480D01*
X250141Y529418D01*
X249721Y529315D01*
X249314Y529173D01*
Y529172D01*
X249198Y529113D01*
X249093Y529034D01*
X249004Y528938D01*
X248933Y528829D01*
X248882Y528708D01*
X248853Y528581D01*
X248846Y528451D01*
X248862Y528321D01*
X248900Y528196D01*
X248959Y528080D01*
X249038Y527975D01*
X249134Y527886D01*
X249243Y527815D01*
X249364Y527764D01*
X249491Y527735D01*
X249621Y527728D01*
X249751Y527744D01*
X249876Y527782D01*
X250147Y527877D01*
X250427Y527945D01*
X250712Y527987D01*
X250999Y528000D01*
Y522000D01*
X250712Y522014D01*
X250427Y522056D01*
X250147Y522124D01*
X249876Y522219D01*
Y522220D01*
X249751Y522258D01*
X249621Y522274D01*
X249490Y522267D01*
X249363Y522238D01*
X249242Y522187D01*
X249133Y522115D01*
X249037Y522026D01*
X248958Y521922D01*
X248899Y521805D01*
X248861Y521680D01*
X248845Y521550D01*
X248852Y521419D01*
X248881Y521292D01*
X248932Y521171D01*
X249004Y521062D01*
X249093Y520966D01*
X249197Y520887D01*
X249314Y520828D01*
X249721Y520686D01*
X250141Y520583D01*
X250568Y520521D01*
X250999Y520500D01*
Y519500D01*
X250568Y519480D01*
X250141Y519418D01*
X249721Y519315D01*
X249314Y519173D01*
Y519172D01*
X249198Y519113D01*
X249093Y519034D01*
X249004Y518938D01*
X248933Y518829D01*
X248882Y518708D01*
X248853Y518581D01*
X248846Y518451D01*
X248862Y518321D01*
X248900Y518196D01*
X248959Y518080D01*
X249038Y517975D01*
X249134Y517886D01*
X249243Y517815D01*
X249364Y517764D01*
X249491Y517735D01*
X249621Y517728D01*
X249751Y517744D01*
X249876Y517782D01*
X250147Y517877D01*
X250427Y517945D01*
X250712Y517987D01*
X250999Y518000D01*
Y512000D01*
X250712Y512014D01*
X250427Y512056D01*
X250147Y512124D01*
X249876Y512219D01*
Y512220D01*
X249751Y512258D01*
X249621Y512274D01*
X249490Y512267D01*
X249363Y512238D01*
X249242Y512187D01*
X249133Y512115D01*
X249037Y512026D01*
X248958Y511922D01*
X248899Y511805D01*
X248861Y511680D01*
X248845Y511550D01*
X248852Y511419D01*
X248881Y511292D01*
X248932Y511171D01*
X249004Y511062D01*
X249093Y510966D01*
X249197Y510887D01*
X249314Y510828D01*
X249721Y510686D01*
X250141Y510583D01*
X250568Y510521D01*
X250999Y510500D01*
Y509000D01*
X247387D01*
Y512861D01*
X247419Y512854D01*
X247549Y512847D01*
X247679Y512863D01*
X247804Y512901D01*
X247920Y512960D01*
X248025Y513039D01*
X248114Y513135D01*
X248185Y513244D01*
X248236Y513365D01*
X248265Y513492D01*
X248272Y513622D01*
X248256Y513752D01*
X248218Y513877D01*
X248123Y514148D01*
X248055Y514428D01*
X248013Y514713D01*
X248000Y515001D01*
X248013Y515288D01*
X248055Y515573D01*
X248123Y515853D01*
X248218Y516124D01*
X248219D01*
X248257Y516249D01*
X248273Y516379D01*
X248266Y516510D01*
X248237Y516637D01*
X248186Y516758D01*
X248114Y516867D01*
X248025Y516963D01*
X247921Y517042D01*
X247804Y517101D01*
X247679Y517139D01*
X247549Y517155D01*
X247418Y517148D01*
X247387Y517141D01*
Y522861D01*
X247419Y522854D01*
X247549Y522847D01*
X247679Y522863D01*
X247804Y522901D01*
X247920Y522960D01*
X248025Y523039D01*
X248114Y523135D01*
X248185Y523244D01*
X248236Y523365D01*
X248265Y523492D01*
X248272Y523622D01*
X248256Y523752D01*
X248218Y523877D01*
X248123Y524148D01*
X248055Y524428D01*
X248013Y524713D01*
X248000Y525001D01*
X248013Y525288D01*
X248055Y525573D01*
X248123Y525853D01*
X248218Y526124D01*
X248219D01*
X248257Y526249D01*
X248273Y526379D01*
X248266Y526510D01*
X248237Y526637D01*
X248186Y526758D01*
X248114Y526867D01*
X248025Y526963D01*
X247921Y527042D01*
X247804Y527101D01*
X247679Y527139D01*
X247549Y527155D01*
X247418Y527148D01*
X247387Y527141D01*
Y531000D01*
G37*
G36*
X241000D02*X247387D01*
Y527141D01*
X247291Y527119D01*
X247170Y527068D01*
X247061Y526996D01*
X246965Y526907D01*
X246886Y526803D01*
X246827Y526686D01*
X246685Y526279D01*
X246582Y525859D01*
X246520Y525432D01*
X246500Y525001D01*
X246520Y524569D01*
X246582Y524142D01*
X246685Y523722D01*
X246827Y523315D01*
X246828D01*
X246887Y523199D01*
X246966Y523094D01*
X247062Y523005D01*
X247171Y522934D01*
X247292Y522883D01*
X247387Y522861D01*
Y517141D01*
X247291Y517119D01*
X247170Y517068D01*
X247061Y516996D01*
X246965Y516907D01*
X246886Y516803D01*
X246827Y516686D01*
X246685Y516279D01*
X246582Y515859D01*
X246520Y515432D01*
X246500Y515001D01*
X246520Y514569D01*
X246582Y514142D01*
X246685Y513722D01*
X246827Y513315D01*
X246828D01*
X246887Y513199D01*
X246966Y513094D01*
X247062Y513005D01*
X247171Y512934D01*
X247292Y512883D01*
X247387Y512861D01*
Y509000D01*
X241000D01*
Y510500D01*
X244000D01*
X244260Y510523D01*
X244513Y510590D01*
X244750Y510701D01*
X244964Y510851D01*
X245149Y511036D01*
X245299Y511250D01*
X245410Y511487D01*
X245477Y511740D01*
X245500Y512000D01*
Y518000D01*
X245477Y518260D01*
X245410Y518513D01*
X245299Y518750D01*
X245149Y518964D01*
X244964Y519149D01*
X244750Y519299D01*
X244513Y519410D01*
X244260Y519477D01*
X244000Y519500D01*
X241000D01*
Y520500D01*
X244000D01*
X244260Y520523D01*
X244513Y520590D01*
X244750Y520701D01*
X244964Y520851D01*
X245149Y521036D01*
X245299Y521250D01*
X245410Y521487D01*
X245477Y521740D01*
X245500Y522000D01*
Y528000D01*
X245477Y528260D01*
X245410Y528513D01*
X245299Y528750D01*
X245149Y528964D01*
X244964Y529149D01*
X244750Y529299D01*
X244513Y529410D01*
X244260Y529477D01*
X244000Y529500D01*
X241000D01*
Y531000D01*
G37*
G36*
X235000Y509000D02*Y531000D01*
X241000D01*
Y529500D01*
X238000D01*
X237740Y529477D01*
X237487Y529410D01*
X237250Y529299D01*
X237036Y529149D01*
X236851Y528964D01*
X236701Y528750D01*
X236590Y528513D01*
X236523Y528260D01*
X236500Y528000D01*
Y522000D01*
X236523Y521740D01*
X236590Y521487D01*
X236701Y521250D01*
X236851Y521036D01*
X237036Y520851D01*
X237250Y520701D01*
X237487Y520590D01*
X237740Y520523D01*
X238000Y520500D01*
X241000D01*
Y519500D01*
X238000D01*
X237740Y519477D01*
X237487Y519410D01*
X237250Y519299D01*
X237036Y519149D01*
X236851Y518964D01*
X236701Y518750D01*
X236590Y518513D01*
X236523Y518260D01*
X236500Y518000D01*
Y512000D01*
X236523Y511740D01*
X236590Y511487D01*
X236701Y511250D01*
X236851Y511036D01*
X237036Y510851D01*
X237250Y510701D01*
X237487Y510590D01*
X237740Y510523D01*
X238000Y510500D01*
X241000D01*
Y509000D01*
X235000D01*
G37*
G36*
X394613Y531000D02*X397000D01*
Y509000D01*
X394613D01*
Y512860D01*
X394708Y512882D01*
X394829Y512933D01*
X394938Y513005D01*
X395034Y513094D01*
X395113Y513198D01*
X395172Y513315D01*
X395314Y513722D01*
X395417Y514142D01*
X395479Y514569D01*
X395500Y515000D01*
X395479Y515432D01*
X395417Y515859D01*
X395314Y516279D01*
X395172Y516686D01*
X395171D01*
X395112Y516802D01*
X395033Y516907D01*
X394937Y516996D01*
X394828Y517067D01*
X394707Y517118D01*
X394613Y517139D01*
Y522860D01*
X394708Y522882D01*
X394829Y522933D01*
X394938Y523005D01*
X395034Y523094D01*
X395113Y523198D01*
X395172Y523315D01*
X395314Y523722D01*
X395417Y524142D01*
X395479Y524569D01*
X395500Y525000D01*
X395479Y525432D01*
X395417Y525859D01*
X395314Y526279D01*
X395172Y526686D01*
X395171D01*
X395112Y526802D01*
X395033Y526907D01*
X394937Y526996D01*
X394828Y527067D01*
X394707Y527118D01*
X394613Y527139D01*
Y531000D01*
G37*
G36*
X391000D02*X394613D01*
Y527139D01*
X394580Y527147D01*
X394450Y527154D01*
X394320Y527138D01*
X394195Y527100D01*
X394079Y527041D01*
X393974Y526962D01*
X393885Y526866D01*
X393814Y526757D01*
X393763Y526636D01*
X393734Y526509D01*
X393727Y526379D01*
X393743Y526249D01*
X393781Y526124D01*
X393876Y525853D01*
X393944Y525573D01*
X393986Y525288D01*
X394000Y525000D01*
X393986Y524713D01*
X393944Y524428D01*
X393876Y524148D01*
X393781Y523877D01*
X393780D01*
X393742Y523752D01*
X393726Y523622D01*
X393733Y523491D01*
X393762Y523364D01*
X393813Y523243D01*
X393885Y523134D01*
X393974Y523038D01*
X394078Y522959D01*
X394195Y522900D01*
X394320Y522862D01*
X394450Y522846D01*
X394581Y522853D01*
X394613Y522860D01*
Y517139D01*
X394580Y517147D01*
X394450Y517154D01*
X394320Y517138D01*
X394195Y517100D01*
X394079Y517041D01*
X393974Y516962D01*
X393885Y516866D01*
X393814Y516757D01*
X393763Y516636D01*
X393734Y516509D01*
X393727Y516379D01*
X393743Y516249D01*
X393781Y516124D01*
X393876Y515853D01*
X393944Y515573D01*
X393986Y515288D01*
X394000Y515000D01*
X393986Y514713D01*
X393944Y514428D01*
X393876Y514148D01*
X393781Y513877D01*
X393780D01*
X393742Y513752D01*
X393726Y513622D01*
X393733Y513491D01*
X393762Y513364D01*
X393813Y513243D01*
X393885Y513134D01*
X393974Y513038D01*
X394078Y512959D01*
X394195Y512900D01*
X394320Y512862D01*
X394450Y512846D01*
X394581Y512853D01*
X394613Y512860D01*
Y509000D01*
X391000D01*
Y510500D01*
X391431Y510521D01*
X391858Y510583D01*
X392278Y510686D01*
X392685Y510828D01*
Y510829D01*
X392801Y510888D01*
X392906Y510967D01*
X392995Y511063D01*
X393066Y511172D01*
X393117Y511293D01*
X393146Y511420D01*
X393153Y511550D01*
X393137Y511680D01*
X393099Y511805D01*
X393040Y511921D01*
X392961Y512026D01*
X392865Y512115D01*
X392756Y512186D01*
X392635Y512237D01*
X392508Y512266D01*
X392378Y512273D01*
X392248Y512257D01*
X392123Y512219D01*
X391852Y512124D01*
X391572Y512056D01*
X391287Y512014D01*
X391000Y512000D01*
Y518000D01*
X391287Y517987D01*
X391572Y517945D01*
X391852Y517877D01*
X392123Y517782D01*
Y517781D01*
X392248Y517743D01*
X392378Y517727D01*
X392509Y517734D01*
X392636Y517763D01*
X392757Y517814D01*
X392866Y517886D01*
X392962Y517975D01*
X393041Y518079D01*
X393100Y518196D01*
X393138Y518321D01*
X393154Y518451D01*
X393147Y518582D01*
X393118Y518709D01*
X393067Y518830D01*
X392995Y518939D01*
X392906Y519035D01*
X392802Y519114D01*
X392685Y519173D01*
X392278Y519315D01*
X391858Y519418D01*
X391431Y519480D01*
X391000Y519500D01*
Y520500D01*
X391431Y520521D01*
X391858Y520583D01*
X392278Y520686D01*
X392685Y520828D01*
Y520829D01*
X392801Y520888D01*
X392906Y520967D01*
X392995Y521063D01*
X393066Y521172D01*
X393117Y521293D01*
X393146Y521420D01*
X393153Y521550D01*
X393137Y521680D01*
X393099Y521805D01*
X393040Y521921D01*
X392961Y522026D01*
X392865Y522115D01*
X392756Y522186D01*
X392635Y522237D01*
X392508Y522266D01*
X392378Y522273D01*
X392248Y522257D01*
X392123Y522219D01*
X391852Y522124D01*
X391572Y522056D01*
X391287Y522014D01*
X391000Y522000D01*
Y528000D01*
X391287Y527987D01*
X391572Y527945D01*
X391852Y527877D01*
X392123Y527782D01*
Y527781D01*
X392248Y527743D01*
X392378Y527727D01*
X392509Y527734D01*
X392636Y527763D01*
X392757Y527814D01*
X392866Y527886D01*
X392962Y527975D01*
X393041Y528079D01*
X393100Y528196D01*
X393138Y528321D01*
X393154Y528451D01*
X393147Y528582D01*
X393118Y528709D01*
X393067Y528830D01*
X392995Y528939D01*
X392906Y529035D01*
X392802Y529114D01*
X392685Y529173D01*
X392278Y529315D01*
X391858Y529418D01*
X391431Y529480D01*
X391000Y529500D01*
Y531000D01*
G37*
G36*
X387387D02*X391000D01*
Y529500D01*
X390568Y529480D01*
X390141Y529418D01*
X389721Y529315D01*
X389314Y529173D01*
Y529172D01*
X389198Y529113D01*
X389093Y529034D01*
X389004Y528938D01*
X388933Y528829D01*
X388882Y528708D01*
X388853Y528581D01*
X388846Y528451D01*
X388862Y528321D01*
X388900Y528196D01*
X388959Y528080D01*
X389038Y527975D01*
X389134Y527886D01*
X389243Y527815D01*
X389364Y527764D01*
X389491Y527735D01*
X389621Y527728D01*
X389751Y527744D01*
X389876Y527782D01*
X390147Y527877D01*
X390427Y527945D01*
X390712Y527987D01*
X391000Y528000D01*
Y522000D01*
X390999D01*
X390712Y522014D01*
X390427Y522056D01*
X390147Y522124D01*
X389876Y522219D01*
Y522220D01*
X389751Y522258D01*
X389621Y522274D01*
X389490Y522267D01*
X389363Y522238D01*
X389242Y522187D01*
X389133Y522115D01*
X389037Y522026D01*
X388958Y521922D01*
X388899Y521805D01*
X388861Y521680D01*
X388845Y521550D01*
X388852Y521419D01*
X388881Y521292D01*
X388932Y521171D01*
X389004Y521062D01*
X389093Y520966D01*
X389197Y520887D01*
X389314Y520828D01*
X389721Y520686D01*
X390141Y520583D01*
X390568Y520521D01*
X390999Y520500D01*
X391000D01*
Y519500D01*
X390568Y519480D01*
X390141Y519418D01*
X389721Y519315D01*
X389314Y519173D01*
Y519172D01*
X389198Y519113D01*
X389093Y519034D01*
X389004Y518938D01*
X388933Y518829D01*
X388882Y518708D01*
X388853Y518581D01*
X388846Y518451D01*
X388862Y518321D01*
X388900Y518196D01*
X388959Y518080D01*
X389038Y517975D01*
X389134Y517886D01*
X389243Y517815D01*
X389364Y517764D01*
X389491Y517735D01*
X389621Y517728D01*
X389751Y517744D01*
X389876Y517782D01*
X390147Y517877D01*
X390427Y517945D01*
X390712Y517987D01*
X391000Y518000D01*
Y512000D01*
X390999D01*
X390712Y512014D01*
X390427Y512056D01*
X390147Y512124D01*
X389876Y512219D01*
Y512220D01*
X389751Y512258D01*
X389621Y512274D01*
X389490Y512267D01*
X389363Y512238D01*
X389242Y512187D01*
X389133Y512115D01*
X389037Y512026D01*
X388958Y511922D01*
X388899Y511805D01*
X388861Y511680D01*
X388845Y511550D01*
X388852Y511419D01*
X388881Y511292D01*
X388932Y511171D01*
X389004Y511062D01*
X389093Y510966D01*
X389197Y510887D01*
X389314Y510828D01*
X389721Y510686D01*
X390141Y510583D01*
X390568Y510521D01*
X390999Y510500D01*
X391000D01*
Y509000D01*
X387387D01*
Y512861D01*
X387419Y512854D01*
X387549Y512847D01*
X387679Y512863D01*
X387804Y512901D01*
X387920Y512960D01*
X388025Y513039D01*
X388114Y513135D01*
X388185Y513244D01*
X388236Y513365D01*
X388265Y513492D01*
X388272Y513622D01*
X388256Y513752D01*
X388218Y513877D01*
X388123Y514148D01*
X388055Y514428D01*
X388013Y514713D01*
X388000Y515001D01*
X388013Y515288D01*
X388055Y515573D01*
X388123Y515853D01*
X388218Y516124D01*
X388219D01*
X388257Y516249D01*
X388273Y516379D01*
X388266Y516510D01*
X388237Y516637D01*
X388186Y516758D01*
X388114Y516867D01*
X388025Y516963D01*
X387921Y517042D01*
X387804Y517101D01*
X387679Y517139D01*
X387549Y517155D01*
X387418Y517148D01*
X387387Y517141D01*
Y522861D01*
X387419Y522854D01*
X387549Y522847D01*
X387679Y522863D01*
X387804Y522901D01*
X387920Y522960D01*
X388025Y523039D01*
X388114Y523135D01*
X388185Y523244D01*
X388236Y523365D01*
X388265Y523492D01*
X388272Y523622D01*
X388256Y523752D01*
X388218Y523877D01*
X388123Y524148D01*
X388055Y524428D01*
X388013Y524713D01*
X388000Y525001D01*
X388013Y525288D01*
X388055Y525573D01*
X388123Y525853D01*
X388218Y526124D01*
X388219D01*
X388257Y526249D01*
X388273Y526379D01*
X388266Y526510D01*
X388237Y526637D01*
X388186Y526758D01*
X388114Y526867D01*
X388025Y526963D01*
X387921Y527042D01*
X387804Y527101D01*
X387679Y527139D01*
X387549Y527155D01*
X387418Y527148D01*
X387387Y527141D01*
Y531000D01*
G37*
G36*
X381000D02*X387387D01*
Y527141D01*
X387291Y527119D01*
X387170Y527068D01*
X387061Y526996D01*
X386965Y526907D01*
X386886Y526803D01*
X386827Y526686D01*
X386685Y526279D01*
X386582Y525859D01*
X386520Y525432D01*
X386500Y525001D01*
X386520Y524569D01*
X386582Y524142D01*
X386685Y523722D01*
X386827Y523315D01*
X386828D01*
X386887Y523199D01*
X386966Y523094D01*
X387062Y523005D01*
X387171Y522934D01*
X387292Y522883D01*
X387387Y522861D01*
Y517141D01*
X387291Y517119D01*
X387170Y517068D01*
X387061Y516996D01*
X386965Y516907D01*
X386886Y516803D01*
X386827Y516686D01*
X386685Y516279D01*
X386582Y515859D01*
X386520Y515432D01*
X386500Y515001D01*
X386520Y514569D01*
X386582Y514142D01*
X386685Y513722D01*
X386827Y513315D01*
X386828D01*
X386887Y513199D01*
X386966Y513094D01*
X387062Y513005D01*
X387171Y512934D01*
X387292Y512883D01*
X387387Y512861D01*
Y509000D01*
X381000D01*
Y510500D01*
X381781Y510568D01*
X382539Y510771D01*
X383250Y511103D01*
X383893Y511553D01*
X384447Y512107D01*
X384897Y512750D01*
X385229Y513461D01*
X385432Y514219D01*
X385500Y515000D01*
X385432Y515781D01*
X385229Y516539D01*
X384897Y517250D01*
X384447Y517893D01*
X383893Y518447D01*
X383250Y518897D01*
X382539Y519229D01*
X381781Y519432D01*
X381000Y519500D01*
Y520500D01*
X381781Y520568D01*
X382539Y520771D01*
X383250Y521103D01*
X383893Y521553D01*
X384447Y522107D01*
X384897Y522750D01*
X385229Y523461D01*
X385432Y524219D01*
X385500Y525000D01*
X385432Y525781D01*
X385229Y526539D01*
X384897Y527250D01*
X384447Y527893D01*
X383893Y528447D01*
X383250Y528897D01*
X382539Y529229D01*
X381781Y529432D01*
X381000Y529500D01*
Y531000D01*
G37*
G36*
X374613D02*X381000D01*
Y529500D01*
X380219Y529432D01*
X379461Y529229D01*
X378750Y528897D01*
X378107Y528447D01*
X377553Y527893D01*
X377103Y527250D01*
X376771Y526539D01*
X376568Y525781D01*
X376500Y525000D01*
X376568Y524219D01*
X376771Y523461D01*
X377103Y522750D01*
X377553Y522107D01*
X378107Y521553D01*
X378750Y521103D01*
X379461Y520771D01*
X380219Y520568D01*
X381000Y520500D01*
Y519500D01*
X380219Y519432D01*
X379461Y519229D01*
X378750Y518897D01*
X378107Y518447D01*
X377553Y517893D01*
X377103Y517250D01*
X376771Y516539D01*
X376568Y515781D01*
X376500Y515000D01*
X376568Y514219D01*
X376771Y513461D01*
X377103Y512750D01*
X377553Y512107D01*
X378107Y511553D01*
X378750Y511103D01*
X379461Y510771D01*
X380219Y510568D01*
X381000Y510500D01*
Y509000D01*
X374613D01*
Y512860D01*
X374708Y512882D01*
X374829Y512933D01*
X374938Y513005D01*
X375034Y513094D01*
X375113Y513198D01*
X375172Y513315D01*
X375314Y513722D01*
X375417Y514142D01*
X375479Y514569D01*
X375500Y515000D01*
X375479Y515432D01*
X375417Y515859D01*
X375314Y516279D01*
X375172Y516686D01*
X375171D01*
X375112Y516802D01*
X375033Y516907D01*
X374937Y516996D01*
X374828Y517067D01*
X374707Y517118D01*
X374613Y517139D01*
Y522860D01*
X374708Y522882D01*
X374829Y522933D01*
X374938Y523005D01*
X375034Y523094D01*
X375113Y523198D01*
X375172Y523315D01*
X375314Y523722D01*
X375417Y524142D01*
X375479Y524569D01*
X375500Y525000D01*
X375479Y525432D01*
X375417Y525859D01*
X375314Y526279D01*
X375172Y526686D01*
X375171D01*
X375112Y526802D01*
X375033Y526907D01*
X374937Y526996D01*
X374828Y527067D01*
X374707Y527118D01*
X374613Y527139D01*
Y531000D01*
G37*
G36*
X371000D02*X374613D01*
Y527139D01*
X374580Y527147D01*
X374450Y527154D01*
X374320Y527138D01*
X374195Y527100D01*
X374079Y527041D01*
X373974Y526962D01*
X373885Y526866D01*
X373814Y526757D01*
X373763Y526636D01*
X373734Y526509D01*
X373727Y526379D01*
X373743Y526249D01*
X373781Y526124D01*
X373876Y525853D01*
X373944Y525573D01*
X373986Y525288D01*
X374000Y525000D01*
X373986Y524713D01*
X373944Y524428D01*
X373876Y524148D01*
X373781Y523877D01*
X373780D01*
X373742Y523752D01*
X373726Y523622D01*
X373733Y523491D01*
X373762Y523364D01*
X373813Y523243D01*
X373885Y523134D01*
X373974Y523038D01*
X374078Y522959D01*
X374195Y522900D01*
X374320Y522862D01*
X374450Y522846D01*
X374581Y522853D01*
X374613Y522860D01*
Y517139D01*
X374580Y517147D01*
X374450Y517154D01*
X374320Y517138D01*
X374195Y517100D01*
X374079Y517041D01*
X373974Y516962D01*
X373885Y516866D01*
X373814Y516757D01*
X373763Y516636D01*
X373734Y516509D01*
X373727Y516379D01*
X373743Y516249D01*
X373781Y516124D01*
X373876Y515853D01*
X373944Y515573D01*
X373986Y515288D01*
X374000Y515000D01*
X373986Y514713D01*
X373944Y514428D01*
X373876Y514148D01*
X373781Y513877D01*
X373780D01*
X373742Y513752D01*
X373726Y513622D01*
X373733Y513491D01*
X373762Y513364D01*
X373813Y513243D01*
X373885Y513134D01*
X373974Y513038D01*
X374078Y512959D01*
X374195Y512900D01*
X374320Y512862D01*
X374450Y512846D01*
X374581Y512853D01*
X374613Y512860D01*
Y509000D01*
X371000D01*
Y510500D01*
X371431Y510521D01*
X371858Y510583D01*
X372278Y510686D01*
X372685Y510828D01*
Y510829D01*
X372801Y510888D01*
X372906Y510967D01*
X372995Y511063D01*
X373066Y511172D01*
X373117Y511293D01*
X373146Y511420D01*
X373153Y511550D01*
X373137Y511680D01*
X373099Y511805D01*
X373040Y511921D01*
X372961Y512026D01*
X372865Y512115D01*
X372756Y512186D01*
X372635Y512237D01*
X372508Y512266D01*
X372378Y512273D01*
X372248Y512257D01*
X372123Y512219D01*
X371852Y512124D01*
X371572Y512056D01*
X371287Y512014D01*
X371000Y512000D01*
Y518000D01*
X371287Y517987D01*
X371572Y517945D01*
X371852Y517877D01*
X372123Y517782D01*
Y517781D01*
X372248Y517743D01*
X372378Y517727D01*
X372509Y517734D01*
X372636Y517763D01*
X372757Y517814D01*
X372866Y517886D01*
X372962Y517975D01*
X373041Y518079D01*
X373100Y518196D01*
X373138Y518321D01*
X373154Y518451D01*
X373147Y518582D01*
X373118Y518709D01*
X373067Y518830D01*
X372995Y518939D01*
X372906Y519035D01*
X372802Y519114D01*
X372685Y519173D01*
X372278Y519315D01*
X371858Y519418D01*
X371431Y519480D01*
X371000Y519500D01*
Y520500D01*
X371431Y520521D01*
X371858Y520583D01*
X372278Y520686D01*
X372685Y520828D01*
Y520829D01*
X372801Y520888D01*
X372906Y520967D01*
X372995Y521063D01*
X373066Y521172D01*
X373117Y521293D01*
X373146Y521420D01*
X373153Y521550D01*
X373137Y521680D01*
X373099Y521805D01*
X373040Y521921D01*
X372961Y522026D01*
X372865Y522115D01*
X372756Y522186D01*
X372635Y522237D01*
X372508Y522266D01*
X372378Y522273D01*
X372248Y522257D01*
X372123Y522219D01*
X371852Y522124D01*
X371572Y522056D01*
X371287Y522014D01*
X371000Y522000D01*
Y528000D01*
X371287Y527987D01*
X371572Y527945D01*
X371852Y527877D01*
X372123Y527782D01*
Y527781D01*
X372248Y527743D01*
X372378Y527727D01*
X372509Y527734D01*
X372636Y527763D01*
X372757Y527814D01*
X372866Y527886D01*
X372962Y527975D01*
X373041Y528079D01*
X373100Y528196D01*
X373138Y528321D01*
X373154Y528451D01*
X373147Y528582D01*
X373118Y528709D01*
X373067Y528830D01*
X372995Y528939D01*
X372906Y529035D01*
X372802Y529114D01*
X372685Y529173D01*
X372278Y529315D01*
X371858Y529418D01*
X371431Y529480D01*
X371000Y529500D01*
Y531000D01*
G37*
G36*
X367387D02*X371000D01*
Y529500D01*
X370568Y529480D01*
X370141Y529418D01*
X369721Y529315D01*
X369314Y529173D01*
Y529172D01*
X369198Y529113D01*
X369093Y529034D01*
X369004Y528938D01*
X368933Y528829D01*
X368882Y528708D01*
X368853Y528581D01*
X368846Y528451D01*
X368862Y528321D01*
X368900Y528196D01*
X368959Y528080D01*
X369038Y527975D01*
X369134Y527886D01*
X369243Y527815D01*
X369364Y527764D01*
X369491Y527735D01*
X369621Y527728D01*
X369751Y527744D01*
X369876Y527782D01*
X370147Y527877D01*
X370427Y527945D01*
X370712Y527987D01*
X371000Y528000D01*
Y522000D01*
X370999D01*
X370712Y522014D01*
X370427Y522056D01*
X370147Y522124D01*
X369876Y522219D01*
Y522220D01*
X369751Y522258D01*
X369621Y522274D01*
X369490Y522267D01*
X369363Y522238D01*
X369242Y522187D01*
X369133Y522115D01*
X369037Y522026D01*
X368958Y521922D01*
X368899Y521805D01*
X368861Y521680D01*
X368845Y521550D01*
X368852Y521419D01*
X368881Y521292D01*
X368932Y521171D01*
X369004Y521062D01*
X369093Y520966D01*
X369197Y520887D01*
X369314Y520828D01*
X369721Y520686D01*
X370141Y520583D01*
X370568Y520521D01*
X370999Y520500D01*
X371000D01*
Y519500D01*
X370568Y519480D01*
X370141Y519418D01*
X369721Y519315D01*
X369314Y519173D01*
Y519172D01*
X369198Y519113D01*
X369093Y519034D01*
X369004Y518938D01*
X368933Y518829D01*
X368882Y518708D01*
X368853Y518581D01*
X368846Y518451D01*
X368862Y518321D01*
X368900Y518196D01*
X368959Y518080D01*
X369038Y517975D01*
X369134Y517886D01*
X369243Y517815D01*
X369364Y517764D01*
X369491Y517735D01*
X369621Y517728D01*
X369751Y517744D01*
X369876Y517782D01*
X370147Y517877D01*
X370427Y517945D01*
X370712Y517987D01*
X371000Y518000D01*
Y512000D01*
X370999D01*
X370712Y512014D01*
X370427Y512056D01*
X370147Y512124D01*
X369876Y512219D01*
Y512220D01*
X369751Y512258D01*
X369621Y512274D01*
X369490Y512267D01*
X369363Y512238D01*
X369242Y512187D01*
X369133Y512115D01*
X369037Y512026D01*
X368958Y511922D01*
X368899Y511805D01*
X368861Y511680D01*
X368845Y511550D01*
X368852Y511419D01*
X368881Y511292D01*
X368932Y511171D01*
X369004Y511062D01*
X369093Y510966D01*
X369197Y510887D01*
X369314Y510828D01*
X369721Y510686D01*
X370141Y510583D01*
X370568Y510521D01*
X370999Y510500D01*
X371000D01*
Y509000D01*
X367387D01*
Y512861D01*
X367419Y512854D01*
X367549Y512847D01*
X367679Y512863D01*
X367804Y512901D01*
X367920Y512960D01*
X368025Y513039D01*
X368114Y513135D01*
X368185Y513244D01*
X368236Y513365D01*
X368265Y513492D01*
X368272Y513622D01*
X368256Y513752D01*
X368218Y513877D01*
X368123Y514148D01*
X368055Y514428D01*
X368013Y514713D01*
X368000Y515001D01*
X368013Y515288D01*
X368055Y515573D01*
X368123Y515853D01*
X368218Y516124D01*
X368219D01*
X368257Y516249D01*
X368273Y516379D01*
X368266Y516510D01*
X368237Y516637D01*
X368186Y516758D01*
X368114Y516867D01*
X368025Y516963D01*
X367921Y517042D01*
X367804Y517101D01*
X367679Y517139D01*
X367549Y517155D01*
X367418Y517148D01*
X367387Y517141D01*
Y522861D01*
X367419Y522854D01*
X367549Y522847D01*
X367679Y522863D01*
X367804Y522901D01*
X367920Y522960D01*
X368025Y523039D01*
X368114Y523135D01*
X368185Y523244D01*
X368236Y523365D01*
X368265Y523492D01*
X368272Y523622D01*
X368256Y523752D01*
X368218Y523877D01*
X368123Y524148D01*
X368055Y524428D01*
X368013Y524713D01*
X368000Y525001D01*
X368013Y525288D01*
X368055Y525573D01*
X368123Y525853D01*
X368218Y526124D01*
X368219D01*
X368257Y526249D01*
X368273Y526379D01*
X368266Y526510D01*
X368237Y526637D01*
X368186Y526758D01*
X368114Y526867D01*
X368025Y526963D01*
X367921Y527042D01*
X367804Y527101D01*
X367679Y527139D01*
X367549Y527155D01*
X367418Y527148D01*
X367387Y527141D01*
Y531000D01*
G37*
G36*
X361000D02*X367387D01*
Y527141D01*
X367291Y527119D01*
X367170Y527068D01*
X367061Y526996D01*
X366965Y526907D01*
X366886Y526803D01*
X366827Y526686D01*
X366685Y526279D01*
X366582Y525859D01*
X366520Y525432D01*
X366500Y525001D01*
X366520Y524569D01*
X366582Y524142D01*
X366685Y523722D01*
X366827Y523315D01*
X366828D01*
X366887Y523199D01*
X366966Y523094D01*
X367062Y523005D01*
X367171Y522934D01*
X367292Y522883D01*
X367387Y522861D01*
Y517141D01*
X367291Y517119D01*
X367170Y517068D01*
X367061Y516996D01*
X366965Y516907D01*
X366886Y516803D01*
X366827Y516686D01*
X366685Y516279D01*
X366582Y515859D01*
X366520Y515432D01*
X366500Y515001D01*
X366520Y514569D01*
X366582Y514142D01*
X366685Y513722D01*
X366827Y513315D01*
X366828D01*
X366887Y513199D01*
X366966Y513094D01*
X367062Y513005D01*
X367171Y512934D01*
X367292Y512883D01*
X367387Y512861D01*
Y509000D01*
X361000D01*
Y510500D01*
X361781Y510568D01*
X362539Y510771D01*
X363250Y511103D01*
X363893Y511553D01*
X364447Y512107D01*
X364897Y512750D01*
X365229Y513461D01*
X365432Y514219D01*
X365500Y515000D01*
X365432Y515781D01*
X365229Y516539D01*
X364897Y517250D01*
X364447Y517893D01*
X363893Y518447D01*
X363250Y518897D01*
X362539Y519229D01*
X361781Y519432D01*
X361000Y519500D01*
Y520500D01*
X361781Y520568D01*
X362539Y520771D01*
X363250Y521103D01*
X363893Y521553D01*
X364447Y522107D01*
X364897Y522750D01*
X365229Y523461D01*
X365432Y524219D01*
X365500Y525000D01*
X365432Y525781D01*
X365229Y526539D01*
X364897Y527250D01*
X364447Y527893D01*
X363893Y528447D01*
X363250Y528897D01*
X362539Y529229D01*
X361781Y529432D01*
X361000Y529500D01*
Y531000D01*
G37*
G36*
X354613D02*X361000D01*
Y529500D01*
X360219Y529432D01*
X359461Y529229D01*
X358750Y528897D01*
X358107Y528447D01*
X357553Y527893D01*
X357103Y527250D01*
X356771Y526539D01*
X356568Y525781D01*
X356500Y525000D01*
X356568Y524219D01*
X356771Y523461D01*
X357103Y522750D01*
X357553Y522107D01*
X358107Y521553D01*
X358750Y521103D01*
X359461Y520771D01*
X360219Y520568D01*
X361000Y520500D01*
Y519500D01*
X360219Y519432D01*
X359461Y519229D01*
X358750Y518897D01*
X358107Y518447D01*
X357553Y517893D01*
X357103Y517250D01*
X356771Y516539D01*
X356568Y515781D01*
X356500Y515000D01*
X356568Y514219D01*
X356771Y513461D01*
X357103Y512750D01*
X357553Y512107D01*
X358107Y511553D01*
X358750Y511103D01*
X359461Y510771D01*
X360219Y510568D01*
X361000Y510500D01*
Y509000D01*
X354613D01*
Y512860D01*
X354708Y512882D01*
X354829Y512933D01*
X354938Y513005D01*
X355034Y513094D01*
X355113Y513198D01*
X355172Y513315D01*
X355314Y513722D01*
X355417Y514142D01*
X355479Y514569D01*
X355500Y515000D01*
X355479Y515432D01*
X355417Y515859D01*
X355314Y516279D01*
X355172Y516686D01*
X355171D01*
X355112Y516802D01*
X355033Y516907D01*
X354937Y516996D01*
X354828Y517067D01*
X354707Y517118D01*
X354613Y517139D01*
Y522860D01*
X354708Y522882D01*
X354829Y522933D01*
X354938Y523005D01*
X355034Y523094D01*
X355113Y523198D01*
X355172Y523315D01*
X355314Y523722D01*
X355417Y524142D01*
X355479Y524569D01*
X355500Y525000D01*
X355479Y525432D01*
X355417Y525859D01*
X355314Y526279D01*
X355172Y526686D01*
X355171D01*
X355112Y526802D01*
X355033Y526907D01*
X354937Y526996D01*
X354828Y527067D01*
X354707Y527118D01*
X354613Y527139D01*
Y531000D01*
G37*
G36*
X351000D02*X354613D01*
Y527139D01*
X354580Y527147D01*
X354450Y527154D01*
X354320Y527138D01*
X354195Y527100D01*
X354079Y527041D01*
X353974Y526962D01*
X353885Y526866D01*
X353814Y526757D01*
X353763Y526636D01*
X353734Y526509D01*
X353727Y526379D01*
X353743Y526249D01*
X353781Y526124D01*
X353876Y525853D01*
X353944Y525573D01*
X353986Y525288D01*
X354000Y525000D01*
X353986Y524713D01*
X353944Y524428D01*
X353876Y524148D01*
X353781Y523877D01*
X353780D01*
X353742Y523752D01*
X353726Y523622D01*
X353733Y523491D01*
X353762Y523364D01*
X353813Y523243D01*
X353885Y523134D01*
X353974Y523038D01*
X354078Y522959D01*
X354195Y522900D01*
X354320Y522862D01*
X354450Y522846D01*
X354581Y522853D01*
X354613Y522860D01*
Y517139D01*
X354580Y517147D01*
X354450Y517154D01*
X354320Y517138D01*
X354195Y517100D01*
X354079Y517041D01*
X353974Y516962D01*
X353885Y516866D01*
X353814Y516757D01*
X353763Y516636D01*
X353734Y516509D01*
X353727Y516379D01*
X353743Y516249D01*
X353781Y516124D01*
X353876Y515853D01*
X353944Y515573D01*
X353986Y515288D01*
X354000Y515000D01*
X353986Y514713D01*
X353944Y514428D01*
X353876Y514148D01*
X353781Y513877D01*
X353780D01*
X353742Y513752D01*
X353726Y513622D01*
X353733Y513491D01*
X353762Y513364D01*
X353813Y513243D01*
X353885Y513134D01*
X353974Y513038D01*
X354078Y512959D01*
X354195Y512900D01*
X354320Y512862D01*
X354450Y512846D01*
X354581Y512853D01*
X354613Y512860D01*
Y509000D01*
X351000D01*
Y510500D01*
X351431Y510521D01*
X351858Y510583D01*
X352278Y510686D01*
X352685Y510828D01*
Y510829D01*
X352801Y510888D01*
X352906Y510967D01*
X352995Y511063D01*
X353066Y511172D01*
X353117Y511293D01*
X353146Y511420D01*
X353153Y511550D01*
X353137Y511680D01*
X353099Y511805D01*
X353040Y511921D01*
X352961Y512026D01*
X352865Y512115D01*
X352756Y512186D01*
X352635Y512237D01*
X352508Y512266D01*
X352378Y512273D01*
X352248Y512257D01*
X352123Y512219D01*
X351852Y512124D01*
X351572Y512056D01*
X351287Y512014D01*
X351000Y512000D01*
Y518000D01*
X351287Y517987D01*
X351572Y517945D01*
X351852Y517877D01*
X352123Y517782D01*
Y517781D01*
X352248Y517743D01*
X352378Y517727D01*
X352509Y517734D01*
X352636Y517763D01*
X352757Y517814D01*
X352866Y517886D01*
X352962Y517975D01*
X353041Y518079D01*
X353100Y518196D01*
X353138Y518321D01*
X353154Y518451D01*
X353147Y518582D01*
X353118Y518709D01*
X353067Y518830D01*
X352995Y518939D01*
X352906Y519035D01*
X352802Y519114D01*
X352685Y519173D01*
X352278Y519315D01*
X351858Y519418D01*
X351431Y519480D01*
X351000Y519500D01*
Y520500D01*
X351431Y520521D01*
X351858Y520583D01*
X352278Y520686D01*
X352685Y520828D01*
Y520829D01*
X352801Y520888D01*
X352906Y520967D01*
X352995Y521063D01*
X353066Y521172D01*
X353117Y521293D01*
X353146Y521420D01*
X353153Y521550D01*
X353137Y521680D01*
X353099Y521805D01*
X353040Y521921D01*
X352961Y522026D01*
X352865Y522115D01*
X352756Y522186D01*
X352635Y522237D01*
X352508Y522266D01*
X352378Y522273D01*
X352248Y522257D01*
X352123Y522219D01*
X351852Y522124D01*
X351572Y522056D01*
X351287Y522014D01*
X351000Y522000D01*
Y528000D01*
X351287Y527987D01*
X351572Y527945D01*
X351852Y527877D01*
X352123Y527782D01*
Y527781D01*
X352248Y527743D01*
X352378Y527727D01*
X352509Y527734D01*
X352636Y527763D01*
X352757Y527814D01*
X352866Y527886D01*
X352962Y527975D01*
X353041Y528079D01*
X353100Y528196D01*
X353138Y528321D01*
X353154Y528451D01*
X353147Y528582D01*
X353118Y528709D01*
X353067Y528830D01*
X352995Y528939D01*
X352906Y529035D01*
X352802Y529114D01*
X352685Y529173D01*
X352278Y529315D01*
X351858Y529418D01*
X351431Y529480D01*
X351000Y529500D01*
Y531000D01*
G37*
G36*
X347387D02*X351000D01*
Y529500D01*
X350568Y529480D01*
X350141Y529418D01*
X349721Y529315D01*
X349314Y529173D01*
Y529172D01*
X349198Y529113D01*
X349093Y529034D01*
X349004Y528938D01*
X348933Y528829D01*
X348882Y528708D01*
X348853Y528581D01*
X348846Y528451D01*
X348862Y528321D01*
X348900Y528196D01*
X348959Y528080D01*
X349038Y527975D01*
X349134Y527886D01*
X349243Y527815D01*
X349364Y527764D01*
X349491Y527735D01*
X349621Y527728D01*
X349751Y527744D01*
X349876Y527782D01*
X350147Y527877D01*
X350427Y527945D01*
X350712Y527987D01*
X351000Y528000D01*
Y522000D01*
X350999D01*
X350712Y522014D01*
X350427Y522056D01*
X350147Y522124D01*
X349876Y522219D01*
Y522220D01*
X349751Y522258D01*
X349621Y522274D01*
X349490Y522267D01*
X349363Y522238D01*
X349242Y522187D01*
X349133Y522115D01*
X349037Y522026D01*
X348958Y521922D01*
X348899Y521805D01*
X348861Y521680D01*
X348845Y521550D01*
X348852Y521419D01*
X348881Y521292D01*
X348932Y521171D01*
X349004Y521062D01*
X349093Y520966D01*
X349197Y520887D01*
X349314Y520828D01*
X349721Y520686D01*
X350141Y520583D01*
X350568Y520521D01*
X350999Y520500D01*
X351000D01*
Y519500D01*
X350568Y519480D01*
X350141Y519418D01*
X349721Y519315D01*
X349314Y519173D01*
Y519172D01*
X349198Y519113D01*
X349093Y519034D01*
X349004Y518938D01*
X348933Y518829D01*
X348882Y518708D01*
X348853Y518581D01*
X348846Y518451D01*
X348862Y518321D01*
X348900Y518196D01*
X348959Y518080D01*
X349038Y517975D01*
X349134Y517886D01*
X349243Y517815D01*
X349364Y517764D01*
X349491Y517735D01*
X349621Y517728D01*
X349751Y517744D01*
X349876Y517782D01*
X350147Y517877D01*
X350427Y517945D01*
X350712Y517987D01*
X351000Y518000D01*
Y512000D01*
X350999D01*
X350712Y512014D01*
X350427Y512056D01*
X350147Y512124D01*
X349876Y512219D01*
Y512220D01*
X349751Y512258D01*
X349621Y512274D01*
X349490Y512267D01*
X349363Y512238D01*
X349242Y512187D01*
X349133Y512115D01*
X349037Y512026D01*
X348958Y511922D01*
X348899Y511805D01*
X348861Y511680D01*
X348845Y511550D01*
X348852Y511419D01*
X348881Y511292D01*
X348932Y511171D01*
X349004Y511062D01*
X349093Y510966D01*
X349197Y510887D01*
X349314Y510828D01*
X349721Y510686D01*
X350141Y510583D01*
X350568Y510521D01*
X350999Y510500D01*
X351000D01*
Y509000D01*
X347387D01*
Y512861D01*
X347419Y512854D01*
X347549Y512847D01*
X347679Y512863D01*
X347804Y512901D01*
X347920Y512960D01*
X348025Y513039D01*
X348114Y513135D01*
X348185Y513244D01*
X348236Y513365D01*
X348265Y513492D01*
X348272Y513622D01*
X348256Y513752D01*
X348218Y513877D01*
X348123Y514148D01*
X348055Y514428D01*
X348013Y514713D01*
X348000Y515001D01*
X348013Y515288D01*
X348055Y515573D01*
X348123Y515853D01*
X348218Y516124D01*
X348219D01*
X348257Y516249D01*
X348273Y516379D01*
X348266Y516510D01*
X348237Y516637D01*
X348186Y516758D01*
X348114Y516867D01*
X348025Y516963D01*
X347921Y517042D01*
X347804Y517101D01*
X347679Y517139D01*
X347549Y517155D01*
X347418Y517148D01*
X347387Y517141D01*
Y522861D01*
X347419Y522854D01*
X347549Y522847D01*
X347679Y522863D01*
X347804Y522901D01*
X347920Y522960D01*
X348025Y523039D01*
X348114Y523135D01*
X348185Y523244D01*
X348236Y523365D01*
X348265Y523492D01*
X348272Y523622D01*
X348256Y523752D01*
X348218Y523877D01*
X348123Y524148D01*
X348055Y524428D01*
X348013Y524713D01*
X348000Y525001D01*
X348013Y525288D01*
X348055Y525573D01*
X348123Y525853D01*
X348218Y526124D01*
X348219D01*
X348257Y526249D01*
X348273Y526379D01*
X348266Y526510D01*
X348237Y526637D01*
X348186Y526758D01*
X348114Y526867D01*
X348025Y526963D01*
X347921Y527042D01*
X347804Y527101D01*
X347679Y527139D01*
X347549Y527155D01*
X347418Y527148D01*
X347387Y527141D01*
Y531000D01*
G37*
G36*
X341000D02*X347387D01*
Y527141D01*
X347291Y527119D01*
X347170Y527068D01*
X347061Y526996D01*
X346965Y526907D01*
X346886Y526803D01*
X346827Y526686D01*
X346685Y526279D01*
X346582Y525859D01*
X346520Y525432D01*
X346500Y525001D01*
X346520Y524569D01*
X346582Y524142D01*
X346685Y523722D01*
X346827Y523315D01*
X346828D01*
X346887Y523199D01*
X346966Y523094D01*
X347062Y523005D01*
X347171Y522934D01*
X347292Y522883D01*
X347387Y522861D01*
Y517141D01*
X347291Y517119D01*
X347170Y517068D01*
X347061Y516996D01*
X346965Y516907D01*
X346886Y516803D01*
X346827Y516686D01*
X346685Y516279D01*
X346582Y515859D01*
X346520Y515432D01*
X346500Y515001D01*
X346520Y514569D01*
X346582Y514142D01*
X346685Y513722D01*
X346827Y513315D01*
X346828D01*
X346887Y513199D01*
X346966Y513094D01*
X347062Y513005D01*
X347171Y512934D01*
X347292Y512883D01*
X347387Y512861D01*
Y509000D01*
X341000D01*
Y510500D01*
X344000D01*
X344260Y510523D01*
X344513Y510590D01*
X344750Y510701D01*
X344964Y510851D01*
X345149Y511036D01*
X345299Y511250D01*
X345410Y511487D01*
X345477Y511740D01*
X345500Y512000D01*
Y518000D01*
X345477Y518260D01*
X345410Y518513D01*
X345299Y518750D01*
X345149Y518964D01*
X344964Y519149D01*
X344750Y519299D01*
X344513Y519410D01*
X344260Y519477D01*
X344000Y519500D01*
X341000D01*
Y520500D01*
X344000D01*
X344260Y520523D01*
X344513Y520590D01*
X344750Y520701D01*
X344964Y520851D01*
X345149Y521036D01*
X345299Y521250D01*
X345410Y521487D01*
X345477Y521740D01*
X345500Y522000D01*
Y528000D01*
X345477Y528260D01*
X345410Y528513D01*
X345299Y528750D01*
X345149Y528964D01*
X344964Y529149D01*
X344750Y529299D01*
X344513Y529410D01*
X344260Y529477D01*
X344000Y529500D01*
X341000D01*
Y531000D01*
G37*
G36*
X335000Y509000D02*Y531000D01*
X341000D01*
Y529500D01*
X338000D01*
X337740Y529477D01*
X337487Y529410D01*
X337250Y529299D01*
X337036Y529149D01*
X336851Y528964D01*
X336701Y528750D01*
X336590Y528513D01*
X336523Y528260D01*
X336500Y528000D01*
Y522000D01*
X336523Y521740D01*
X336590Y521487D01*
X336701Y521250D01*
X336851Y521036D01*
X337036Y520851D01*
X337250Y520701D01*
X337487Y520590D01*
X337740Y520523D01*
X338000Y520500D01*
X341000D01*
Y519500D01*
X338000D01*
X337740Y519477D01*
X337487Y519410D01*
X337250Y519299D01*
X337036Y519149D01*
X336851Y518964D01*
X336701Y518750D01*
X336590Y518513D01*
X336523Y518260D01*
X336500Y518000D01*
Y512000D01*
X336523Y511740D01*
X336590Y511487D01*
X336701Y511250D01*
X336851Y511036D01*
X337036Y510851D01*
X337250Y510701D01*
X337487Y510590D01*
X337740Y510523D01*
X338000Y510500D01*
X341000D01*
Y509000D01*
X335000D01*
G37*
G36*
X287500Y593000D02*Y596000D01*
X307500D01*
Y593000D01*
X287500D01*
G37*
G36*
Y605000D02*Y611000D01*
X307500D01*
Y605000D01*
X287500D01*
G37*
G36*
X364000Y590500D02*Y629000D01*
X370000D01*
Y590500D01*
X364000D01*
G37*
G36*
X287613Y591500D02*X290500D01*
Y586932D01*
X290315Y586238D01*
X290250Y585500D01*
X290315Y584762D01*
X290500Y584068D01*
Y571932D01*
X290315Y571238D01*
X290250Y570500D01*
X290315Y569762D01*
X290500Y569068D01*
Y556932D01*
X290315Y556238D01*
X290250Y555500D01*
X290315Y554762D01*
X290500Y554068D01*
Y550000D01*
X287613D01*
Y553360D01*
X287708Y553382D01*
X287829Y553433D01*
X287938Y553505D01*
X288034Y553594D01*
X288113Y553698D01*
X288172Y553815D01*
X288314Y554222D01*
X288417Y554642D01*
X288479Y555069D01*
X288500Y555500D01*
X288479Y555932D01*
X288417Y556359D01*
X288314Y556779D01*
X288172Y557186D01*
X288171D01*
X288112Y557302D01*
X288033Y557407D01*
X287937Y557496D01*
X287828Y557567D01*
X287707Y557618D01*
X287613Y557639D01*
Y568360D01*
X287708Y568382D01*
X287829Y568433D01*
X287938Y568505D01*
X288034Y568594D01*
X288113Y568698D01*
X288172Y568815D01*
X288314Y569222D01*
X288417Y569642D01*
X288479Y570069D01*
X288500Y570500D01*
X288479Y570932D01*
X288417Y571359D01*
X288314Y571779D01*
X288172Y572186D01*
X288171D01*
X288112Y572302D01*
X288033Y572407D01*
X287937Y572496D01*
X287828Y572567D01*
X287707Y572618D01*
X287613Y572639D01*
Y583360D01*
X287708Y583382D01*
X287829Y583433D01*
X287938Y583505D01*
X288034Y583594D01*
X288113Y583698D01*
X288172Y583815D01*
X288314Y584222D01*
X288417Y584642D01*
X288479Y585069D01*
X288500Y585500D01*
X288479Y585932D01*
X288417Y586359D01*
X288314Y586779D01*
X288172Y587186D01*
X288171D01*
X288112Y587302D01*
X288033Y587407D01*
X287937Y587496D01*
X287828Y587567D01*
X287707Y587618D01*
X287613Y587639D01*
Y591500D01*
G37*
G36*
X283999D02*X287613D01*
Y587639D01*
X287580Y587647D01*
X287450Y587654D01*
X287320Y587638D01*
X287195Y587600D01*
X287079Y587541D01*
X286974Y587462D01*
X286885Y587366D01*
X286814Y587257D01*
X286763Y587136D01*
X286734Y587009D01*
X286727Y586879D01*
X286743Y586749D01*
X286781Y586624D01*
X286876Y586353D01*
X286944Y586073D01*
X286986Y585788D01*
X287000Y585500D01*
X286986Y585213D01*
X286944Y584928D01*
X286876Y584648D01*
X286781Y584377D01*
X286780D01*
X286742Y584252D01*
X286726Y584122D01*
X286733Y583991D01*
X286762Y583864D01*
X286813Y583743D01*
X286885Y583634D01*
X286974Y583538D01*
X287078Y583459D01*
X287195Y583400D01*
X287320Y583362D01*
X287450Y583346D01*
X287581Y583353D01*
X287613Y583360D01*
Y572639D01*
X287580Y572647D01*
X287450Y572654D01*
X287320Y572638D01*
X287195Y572600D01*
X287079Y572541D01*
X286974Y572462D01*
X286885Y572366D01*
X286814Y572257D01*
X286763Y572136D01*
X286734Y572009D01*
X286727Y571879D01*
X286743Y571749D01*
X286781Y571624D01*
X286876Y571353D01*
X286944Y571073D01*
X286986Y570788D01*
X287000Y570500D01*
X286986Y570213D01*
X286944Y569928D01*
X286876Y569648D01*
X286781Y569377D01*
X286780D01*
X286742Y569252D01*
X286726Y569122D01*
X286733Y568991D01*
X286762Y568864D01*
X286813Y568743D01*
X286885Y568634D01*
X286974Y568538D01*
X287078Y568459D01*
X287195Y568400D01*
X287320Y568362D01*
X287450Y568346D01*
X287581Y568353D01*
X287613Y568360D01*
Y557639D01*
X287580Y557647D01*
X287450Y557654D01*
X287320Y557638D01*
X287195Y557600D01*
X287079Y557541D01*
X286974Y557462D01*
X286885Y557366D01*
X286814Y557257D01*
X286763Y557136D01*
X286734Y557009D01*
X286727Y556879D01*
X286743Y556749D01*
X286781Y556624D01*
X286876Y556353D01*
X286944Y556073D01*
X286986Y555788D01*
X287000Y555500D01*
X286986Y555213D01*
X286944Y554928D01*
X286876Y554648D01*
X286781Y554377D01*
X286780D01*
X286742Y554252D01*
X286726Y554122D01*
X286733Y553991D01*
X286762Y553864D01*
X286813Y553743D01*
X286885Y553634D01*
X286974Y553538D01*
X287078Y553459D01*
X287195Y553400D01*
X287320Y553362D01*
X287450Y553346D01*
X287581Y553353D01*
X287613Y553360D01*
Y550000D01*
X283999D01*
Y551000D01*
X284431Y551021D01*
X284858Y551083D01*
X285278Y551186D01*
X285685Y551328D01*
Y551329D01*
X285801Y551388D01*
X285906Y551467D01*
X285995Y551563D01*
X286066Y551672D01*
X286117Y551793D01*
X286146Y551920D01*
X286153Y552050D01*
X286137Y552180D01*
X286099Y552305D01*
X286040Y552421D01*
X285961Y552526D01*
X285865Y552615D01*
X285756Y552686D01*
X285635Y552737D01*
X285508Y552766D01*
X285378Y552773D01*
X285248Y552757D01*
X285123Y552719D01*
X284852Y552624D01*
X284572Y552556D01*
X284287Y552514D01*
X283999Y552500D01*
Y558500D01*
X284000D01*
X284287Y558487D01*
X284572Y558445D01*
X284852Y558377D01*
X285123Y558282D01*
Y558281D01*
X285248Y558243D01*
X285378Y558227D01*
X285509Y558234D01*
X285636Y558263D01*
X285757Y558314D01*
X285866Y558386D01*
X285962Y558475D01*
X286041Y558579D01*
X286100Y558696D01*
X286138Y558821D01*
X286154Y558951D01*
X286147Y559082D01*
X286118Y559209D01*
X286067Y559330D01*
X285995Y559439D01*
X285906Y559535D01*
X285802Y559614D01*
X285685Y559673D01*
X285278Y559815D01*
X284858Y559918D01*
X284431Y559980D01*
X284000Y560000D01*
X283999D01*
Y566000D01*
X284431Y566021D01*
X284858Y566083D01*
X285278Y566186D01*
X285685Y566328D01*
Y566329D01*
X285801Y566388D01*
X285906Y566467D01*
X285995Y566563D01*
X286066Y566672D01*
X286117Y566793D01*
X286146Y566920D01*
X286153Y567050D01*
X286137Y567180D01*
X286099Y567305D01*
X286040Y567421D01*
X285961Y567526D01*
X285865Y567615D01*
X285756Y567686D01*
X285635Y567737D01*
X285508Y567766D01*
X285378Y567773D01*
X285248Y567757D01*
X285123Y567719D01*
X284852Y567624D01*
X284572Y567556D01*
X284287Y567514D01*
X283999Y567500D01*
Y573500D01*
X284000D01*
X284287Y573487D01*
X284572Y573445D01*
X284852Y573377D01*
X285123Y573282D01*
Y573281D01*
X285248Y573243D01*
X285378Y573227D01*
X285509Y573234D01*
X285636Y573263D01*
X285757Y573314D01*
X285866Y573386D01*
X285962Y573475D01*
X286041Y573579D01*
X286100Y573696D01*
X286138Y573821D01*
X286154Y573951D01*
X286147Y574082D01*
X286118Y574209D01*
X286067Y574330D01*
X285995Y574439D01*
X285906Y574535D01*
X285802Y574614D01*
X285685Y574673D01*
X285278Y574815D01*
X284858Y574918D01*
X284431Y574980D01*
X284000Y575000D01*
X283999D01*
Y581000D01*
X284431Y581021D01*
X284858Y581083D01*
X285278Y581186D01*
X285685Y581328D01*
Y581329D01*
X285801Y581388D01*
X285906Y581467D01*
X285995Y581563D01*
X286066Y581672D01*
X286117Y581793D01*
X286146Y581920D01*
X286153Y582050D01*
X286137Y582180D01*
X286099Y582305D01*
X286040Y582421D01*
X285961Y582526D01*
X285865Y582615D01*
X285756Y582686D01*
X285635Y582737D01*
X285508Y582766D01*
X285378Y582773D01*
X285248Y582757D01*
X285123Y582719D01*
X284852Y582624D01*
X284572Y582556D01*
X284287Y582514D01*
X283999Y582500D01*
Y588500D01*
X284000D01*
X284287Y588487D01*
X284572Y588445D01*
X284852Y588377D01*
X285123Y588282D01*
Y588281D01*
X285248Y588243D01*
X285378Y588227D01*
X285509Y588234D01*
X285636Y588263D01*
X285757Y588314D01*
X285866Y588386D01*
X285962Y588475D01*
X286041Y588579D01*
X286100Y588696D01*
X286138Y588821D01*
X286154Y588951D01*
X286147Y589082D01*
X286118Y589209D01*
X286067Y589330D01*
X285995Y589439D01*
X285906Y589535D01*
X285802Y589614D01*
X285685Y589673D01*
X285278Y589815D01*
X284858Y589918D01*
X284431Y589980D01*
X284000Y590000D01*
X283999D01*
Y591500D01*
G37*
G36*
X280387D02*X283999D01*
Y590000D01*
X283568Y589980D01*
X283141Y589918D01*
X282721Y589815D01*
X282314Y589673D01*
Y589672D01*
X282198Y589613D01*
X282093Y589534D01*
X282004Y589438D01*
X281933Y589329D01*
X281882Y589208D01*
X281853Y589081D01*
X281846Y588951D01*
X281862Y588821D01*
X281900Y588696D01*
X281959Y588580D01*
X282038Y588475D01*
X282134Y588386D01*
X282243Y588315D01*
X282364Y588264D01*
X282491Y588235D01*
X282621Y588228D01*
X282751Y588244D01*
X282876Y588282D01*
X283147Y588377D01*
X283427Y588445D01*
X283712Y588487D01*
X283999Y588500D01*
Y582500D01*
X283712Y582514D01*
X283427Y582556D01*
X283147Y582624D01*
X282876Y582719D01*
Y582720D01*
X282751Y582758D01*
X282621Y582774D01*
X282490Y582767D01*
X282363Y582738D01*
X282242Y582687D01*
X282133Y582615D01*
X282037Y582526D01*
X281958Y582422D01*
X281899Y582305D01*
X281861Y582180D01*
X281845Y582050D01*
X281852Y581919D01*
X281881Y581792D01*
X281932Y581671D01*
X282004Y581562D01*
X282093Y581466D01*
X282197Y581387D01*
X282314Y581328D01*
X282721Y581186D01*
X283141Y581083D01*
X283568Y581021D01*
X283999Y581000D01*
Y575000D01*
X283568Y574980D01*
X283141Y574918D01*
X282721Y574815D01*
X282314Y574673D01*
Y574672D01*
X282198Y574613D01*
X282093Y574534D01*
X282004Y574438D01*
X281933Y574329D01*
X281882Y574208D01*
X281853Y574081D01*
X281846Y573951D01*
X281862Y573821D01*
X281900Y573696D01*
X281959Y573580D01*
X282038Y573475D01*
X282134Y573386D01*
X282243Y573315D01*
X282364Y573264D01*
X282491Y573235D01*
X282621Y573228D01*
X282751Y573244D01*
X282876Y573282D01*
X283147Y573377D01*
X283427Y573445D01*
X283712Y573487D01*
X283999Y573500D01*
Y567500D01*
X283712Y567514D01*
X283427Y567556D01*
X283147Y567624D01*
X282876Y567719D01*
Y567720D01*
X282751Y567758D01*
X282621Y567774D01*
X282490Y567767D01*
X282363Y567738D01*
X282242Y567687D01*
X282133Y567615D01*
X282037Y567526D01*
X281958Y567422D01*
X281899Y567305D01*
X281861Y567180D01*
X281845Y567050D01*
X281852Y566919D01*
X281881Y566792D01*
X281932Y566671D01*
X282004Y566562D01*
X282093Y566466D01*
X282197Y566387D01*
X282314Y566328D01*
X282721Y566186D01*
X283141Y566083D01*
X283568Y566021D01*
X283999Y566000D01*
Y560000D01*
X283568Y559980D01*
X283141Y559918D01*
X282721Y559815D01*
X282314Y559673D01*
Y559672D01*
X282198Y559613D01*
X282093Y559534D01*
X282004Y559438D01*
X281933Y559329D01*
X281882Y559208D01*
X281853Y559081D01*
X281846Y558951D01*
X281862Y558821D01*
X281900Y558696D01*
X281959Y558580D01*
X282038Y558475D01*
X282134Y558386D01*
X282243Y558315D01*
X282364Y558264D01*
X282491Y558235D01*
X282621Y558228D01*
X282751Y558244D01*
X282876Y558282D01*
X283147Y558377D01*
X283427Y558445D01*
X283712Y558487D01*
X283999Y558500D01*
Y552500D01*
X283712Y552514D01*
X283427Y552556D01*
X283147Y552624D01*
X282876Y552719D01*
Y552720D01*
X282751Y552758D01*
X282621Y552774D01*
X282490Y552767D01*
X282363Y552738D01*
X282242Y552687D01*
X282133Y552615D01*
X282037Y552526D01*
X281958Y552422D01*
X281899Y552305D01*
X281861Y552180D01*
X281845Y552050D01*
X281852Y551919D01*
X281881Y551792D01*
X281932Y551671D01*
X282004Y551562D01*
X282093Y551466D01*
X282197Y551387D01*
X282314Y551328D01*
X282721Y551186D01*
X283141Y551083D01*
X283568Y551021D01*
X283999Y551000D01*
Y550000D01*
X280387D01*
Y553361D01*
X280419Y553354D01*
X280549Y553347D01*
X280679Y553363D01*
X280804Y553401D01*
X280920Y553460D01*
X281025Y553539D01*
X281114Y553635D01*
X281185Y553744D01*
X281236Y553865D01*
X281265Y553992D01*
X281272Y554122D01*
X281256Y554252D01*
X281218Y554377D01*
X281123Y554648D01*
X281055Y554928D01*
X281013Y555213D01*
X281000Y555501D01*
X281013Y555788D01*
X281055Y556073D01*
X281123Y556353D01*
X281218Y556624D01*
X281219D01*
X281257Y556749D01*
X281273Y556879D01*
X281266Y557010D01*
X281237Y557137D01*
X281186Y557258D01*
X281114Y557367D01*
X281025Y557463D01*
X280921Y557542D01*
X280804Y557601D01*
X280679Y557639D01*
X280549Y557655D01*
X280418Y557648D01*
X280387Y557641D01*
Y568361D01*
X280419Y568354D01*
X280549Y568347D01*
X280679Y568363D01*
X280804Y568401D01*
X280920Y568460D01*
X281025Y568539D01*
X281114Y568635D01*
X281185Y568744D01*
X281236Y568865D01*
X281265Y568992D01*
X281272Y569122D01*
X281256Y569252D01*
X281218Y569377D01*
X281123Y569648D01*
X281055Y569928D01*
X281013Y570213D01*
X281000Y570501D01*
X281013Y570788D01*
X281055Y571073D01*
X281123Y571353D01*
X281218Y571624D01*
X281219D01*
X281257Y571749D01*
X281273Y571879D01*
X281266Y572010D01*
X281237Y572137D01*
X281186Y572258D01*
X281114Y572367D01*
X281025Y572463D01*
X280921Y572542D01*
X280804Y572601D01*
X280679Y572639D01*
X280549Y572655D01*
X280418Y572648D01*
X280387Y572641D01*
Y583361D01*
X280419Y583354D01*
X280549Y583347D01*
X280679Y583363D01*
X280804Y583401D01*
X280920Y583460D01*
X281025Y583539D01*
X281114Y583635D01*
X281185Y583744D01*
X281236Y583865D01*
X281265Y583992D01*
X281272Y584122D01*
X281256Y584252D01*
X281218Y584377D01*
X281123Y584648D01*
X281055Y584928D01*
X281013Y585213D01*
X281000Y585501D01*
X281013Y585788D01*
X281055Y586073D01*
X281123Y586353D01*
X281218Y586624D01*
X281219D01*
X281257Y586749D01*
X281273Y586879D01*
X281266Y587010D01*
X281237Y587137D01*
X281186Y587258D01*
X281114Y587367D01*
X281025Y587463D01*
X280921Y587542D01*
X280804Y587601D01*
X280679Y587639D01*
X280549Y587655D01*
X280418Y587648D01*
X280387Y587641D01*
Y591500D01*
G37*
G36*
X278500Y550000D02*Y591500D01*
X280387D01*
Y587641D01*
X280291Y587619D01*
X280170Y587568D01*
X280061Y587496D01*
X279965Y587407D01*
X279886Y587303D01*
X279827Y587186D01*
X279685Y586779D01*
X279582Y586359D01*
X279520Y585932D01*
X279500Y585501D01*
X279520Y585069D01*
X279582Y584642D01*
X279685Y584222D01*
X279827Y583815D01*
X279828D01*
X279887Y583699D01*
X279966Y583594D01*
X280062Y583505D01*
X280171Y583434D01*
X280292Y583383D01*
X280387Y583361D01*
Y572641D01*
X280291Y572619D01*
X280170Y572568D01*
X280061Y572496D01*
X279965Y572407D01*
X279886Y572303D01*
X279827Y572186D01*
X279685Y571779D01*
X279582Y571359D01*
X279520Y570932D01*
X279500Y570501D01*
X279520Y570069D01*
X279582Y569642D01*
X279685Y569222D01*
X279827Y568815D01*
X279828D01*
X279887Y568699D01*
X279966Y568594D01*
X280062Y568505D01*
X280171Y568434D01*
X280292Y568383D01*
X280387Y568361D01*
Y557641D01*
X280291Y557619D01*
X280170Y557568D01*
X280061Y557496D01*
X279965Y557407D01*
X279886Y557303D01*
X279827Y557186D01*
X279685Y556779D01*
X279582Y556359D01*
X279520Y555932D01*
X279500Y555501D01*
X279520Y555069D01*
X279582Y554642D01*
X279685Y554222D01*
X279827Y553815D01*
X279828D01*
X279887Y553699D01*
X279966Y553594D01*
X280062Y553505D01*
X280171Y553434D01*
X280292Y553383D01*
X280387Y553361D01*
Y550000D01*
X278500D01*
G37*
G36*
X368613Y591500D02*X371500D01*
Y586932D01*
X371315Y586238D01*
X371250Y585500D01*
X371315Y584762D01*
X371500Y584068D01*
Y571932D01*
X371315Y571238D01*
X371250Y570500D01*
X371315Y569762D01*
X371500Y569068D01*
Y556932D01*
X371315Y556238D01*
X371250Y555500D01*
X371315Y554762D01*
X371500Y554068D01*
Y550000D01*
X368613D01*
Y553360D01*
X368708Y553382D01*
X368829Y553433D01*
X368938Y553505D01*
X369034Y553594D01*
X369113Y553698D01*
X369172Y553815D01*
X369314Y554222D01*
X369417Y554642D01*
X369479Y555069D01*
X369500Y555500D01*
X369479Y555932D01*
X369417Y556359D01*
X369314Y556779D01*
X369172Y557186D01*
X369171D01*
X369112Y557302D01*
X369033Y557407D01*
X368937Y557496D01*
X368828Y557567D01*
X368707Y557618D01*
X368613Y557639D01*
Y568360D01*
X368708Y568382D01*
X368829Y568433D01*
X368938Y568505D01*
X369034Y568594D01*
X369113Y568698D01*
X369172Y568815D01*
X369314Y569222D01*
X369417Y569642D01*
X369479Y570069D01*
X369500Y570500D01*
X369479Y570932D01*
X369417Y571359D01*
X369314Y571779D01*
X369172Y572186D01*
X369171D01*
X369112Y572302D01*
X369033Y572407D01*
X368937Y572496D01*
X368828Y572567D01*
X368707Y572618D01*
X368613Y572639D01*
Y583360D01*
X368708Y583382D01*
X368829Y583433D01*
X368938Y583505D01*
X369034Y583594D01*
X369113Y583698D01*
X369172Y583815D01*
X369314Y584222D01*
X369417Y584642D01*
X369479Y585069D01*
X369500Y585500D01*
X369479Y585932D01*
X369417Y586359D01*
X369314Y586779D01*
X369172Y587186D01*
X369171D01*
X369112Y587302D01*
X369033Y587407D01*
X368937Y587496D01*
X368828Y587567D01*
X368707Y587618D01*
X368613Y587639D01*
Y591500D01*
G37*
G36*
X364999D02*X368613D01*
Y587639D01*
X368580Y587647D01*
X368450Y587654D01*
X368320Y587638D01*
X368195Y587600D01*
X368079Y587541D01*
X367974Y587462D01*
X367885Y587366D01*
X367814Y587257D01*
X367763Y587136D01*
X367734Y587009D01*
X367727Y586879D01*
X367743Y586749D01*
X367781Y586624D01*
X367876Y586353D01*
X367944Y586073D01*
X367986Y585788D01*
X368000Y585500D01*
X367986Y585213D01*
X367944Y584928D01*
X367876Y584648D01*
X367781Y584377D01*
X367780D01*
X367742Y584252D01*
X367726Y584122D01*
X367733Y583991D01*
X367762Y583864D01*
X367813Y583743D01*
X367885Y583634D01*
X367974Y583538D01*
X368078Y583459D01*
X368195Y583400D01*
X368320Y583362D01*
X368450Y583346D01*
X368581Y583353D01*
X368613Y583360D01*
Y572639D01*
X368580Y572647D01*
X368450Y572654D01*
X368320Y572638D01*
X368195Y572600D01*
X368079Y572541D01*
X367974Y572462D01*
X367885Y572366D01*
X367814Y572257D01*
X367763Y572136D01*
X367734Y572009D01*
X367727Y571879D01*
X367743Y571749D01*
X367781Y571624D01*
X367876Y571353D01*
X367944Y571073D01*
X367986Y570788D01*
X368000Y570500D01*
X367986Y570213D01*
X367944Y569928D01*
X367876Y569648D01*
X367781Y569377D01*
X367780D01*
X367742Y569252D01*
X367726Y569122D01*
X367733Y568991D01*
X367762Y568864D01*
X367813Y568743D01*
X367885Y568634D01*
X367974Y568538D01*
X368078Y568459D01*
X368195Y568400D01*
X368320Y568362D01*
X368450Y568346D01*
X368581Y568353D01*
X368613Y568360D01*
Y557639D01*
X368580Y557647D01*
X368450Y557654D01*
X368320Y557638D01*
X368195Y557600D01*
X368079Y557541D01*
X367974Y557462D01*
X367885Y557366D01*
X367814Y557257D01*
X367763Y557136D01*
X367734Y557009D01*
X367727Y556879D01*
X367743Y556749D01*
X367781Y556624D01*
X367876Y556353D01*
X367944Y556073D01*
X367986Y555788D01*
X368000Y555500D01*
X367986Y555213D01*
X367944Y554928D01*
X367876Y554648D01*
X367781Y554377D01*
X367780D01*
X367742Y554252D01*
X367726Y554122D01*
X367733Y553991D01*
X367762Y553864D01*
X367813Y553743D01*
X367885Y553634D01*
X367974Y553538D01*
X368078Y553459D01*
X368195Y553400D01*
X368320Y553362D01*
X368450Y553346D01*
X368581Y553353D01*
X368613Y553360D01*
Y550000D01*
X364999D01*
Y551000D01*
X365431Y551021D01*
X365858Y551083D01*
X366278Y551186D01*
X366685Y551328D01*
Y551329D01*
X366801Y551388D01*
X366906Y551467D01*
X366995Y551563D01*
X367066Y551672D01*
X367117Y551793D01*
X367146Y551920D01*
X367153Y552050D01*
X367137Y552180D01*
X367099Y552305D01*
X367040Y552421D01*
X366961Y552526D01*
X366865Y552615D01*
X366756Y552686D01*
X366635Y552737D01*
X366508Y552766D01*
X366378Y552773D01*
X366248Y552757D01*
X366123Y552719D01*
X365852Y552624D01*
X365572Y552556D01*
X365287Y552514D01*
X364999Y552500D01*
Y558500D01*
X365000D01*
X365287Y558487D01*
X365572Y558445D01*
X365852Y558377D01*
X366123Y558282D01*
Y558281D01*
X366248Y558243D01*
X366378Y558227D01*
X366509Y558234D01*
X366636Y558263D01*
X366757Y558314D01*
X366866Y558386D01*
X366962Y558475D01*
X367041Y558579D01*
X367100Y558696D01*
X367138Y558821D01*
X367154Y558951D01*
X367147Y559082D01*
X367118Y559209D01*
X367067Y559330D01*
X366995Y559439D01*
X366906Y559535D01*
X366802Y559614D01*
X366685Y559673D01*
X366278Y559815D01*
X365858Y559918D01*
X365431Y559980D01*
X365000Y560000D01*
X364999D01*
Y566000D01*
X365431Y566021D01*
X365858Y566083D01*
X366278Y566186D01*
X366685Y566328D01*
Y566329D01*
X366801Y566388D01*
X366906Y566467D01*
X366995Y566563D01*
X367066Y566672D01*
X367117Y566793D01*
X367146Y566920D01*
X367153Y567050D01*
X367137Y567180D01*
X367099Y567305D01*
X367040Y567421D01*
X366961Y567526D01*
X366865Y567615D01*
X366756Y567686D01*
X366635Y567737D01*
X366508Y567766D01*
X366378Y567773D01*
X366248Y567757D01*
X366123Y567719D01*
X365852Y567624D01*
X365572Y567556D01*
X365287Y567514D01*
X364999Y567500D01*
Y573500D01*
X365000D01*
X365287Y573487D01*
X365572Y573445D01*
X365852Y573377D01*
X366123Y573282D01*
Y573281D01*
X366248Y573243D01*
X366378Y573227D01*
X366509Y573234D01*
X366636Y573263D01*
X366757Y573314D01*
X366866Y573386D01*
X366962Y573475D01*
X367041Y573579D01*
X367100Y573696D01*
X367138Y573821D01*
X367154Y573951D01*
X367147Y574082D01*
X367118Y574209D01*
X367067Y574330D01*
X366995Y574439D01*
X366906Y574535D01*
X366802Y574614D01*
X366685Y574673D01*
X366278Y574815D01*
X365858Y574918D01*
X365431Y574980D01*
X365000Y575000D01*
X364999D01*
Y581000D01*
X365431Y581021D01*
X365858Y581083D01*
X366278Y581186D01*
X366685Y581328D01*
Y581329D01*
X366801Y581388D01*
X366906Y581467D01*
X366995Y581563D01*
X367066Y581672D01*
X367117Y581793D01*
X367146Y581920D01*
X367153Y582050D01*
X367137Y582180D01*
X367099Y582305D01*
X367040Y582421D01*
X366961Y582526D01*
X366865Y582615D01*
X366756Y582686D01*
X366635Y582737D01*
X366508Y582766D01*
X366378Y582773D01*
X366248Y582757D01*
X366123Y582719D01*
X365852Y582624D01*
X365572Y582556D01*
X365287Y582514D01*
X364999Y582500D01*
Y588500D01*
X365000D01*
X365287Y588487D01*
X365572Y588445D01*
X365852Y588377D01*
X366123Y588282D01*
Y588281D01*
X366248Y588243D01*
X366378Y588227D01*
X366509Y588234D01*
X366636Y588263D01*
X366757Y588314D01*
X366866Y588386D01*
X366962Y588475D01*
X367041Y588579D01*
X367100Y588696D01*
X367138Y588821D01*
X367154Y588951D01*
X367147Y589082D01*
X367118Y589209D01*
X367067Y589330D01*
X366995Y589439D01*
X366906Y589535D01*
X366802Y589614D01*
X366685Y589673D01*
X366278Y589815D01*
X365858Y589918D01*
X365431Y589980D01*
X365000Y590000D01*
X364999D01*
Y591500D01*
G37*
G36*
X361387D02*X364999D01*
Y590000D01*
X364568Y589980D01*
X364141Y589918D01*
X363721Y589815D01*
X363314Y589673D01*
Y589672D01*
X363198Y589613D01*
X363093Y589534D01*
X363004Y589438D01*
X362933Y589329D01*
X362882Y589208D01*
X362853Y589081D01*
X362846Y588951D01*
X362862Y588821D01*
X362900Y588696D01*
X362959Y588580D01*
X363038Y588475D01*
X363134Y588386D01*
X363243Y588315D01*
X363364Y588264D01*
X363491Y588235D01*
X363621Y588228D01*
X363751Y588244D01*
X363876Y588282D01*
X364147Y588377D01*
X364427Y588445D01*
X364712Y588487D01*
X364999Y588500D01*
Y582500D01*
X364712Y582514D01*
X364427Y582556D01*
X364147Y582624D01*
X363876Y582719D01*
Y582720D01*
X363751Y582758D01*
X363621Y582774D01*
X363490Y582767D01*
X363363Y582738D01*
X363242Y582687D01*
X363133Y582615D01*
X363037Y582526D01*
X362958Y582422D01*
X362899Y582305D01*
X362861Y582180D01*
X362845Y582050D01*
X362852Y581919D01*
X362881Y581792D01*
X362932Y581671D01*
X363004Y581562D01*
X363093Y581466D01*
X363197Y581387D01*
X363314Y581328D01*
X363721Y581186D01*
X364141Y581083D01*
X364568Y581021D01*
X364999Y581000D01*
Y575000D01*
X364568Y574980D01*
X364141Y574918D01*
X363721Y574815D01*
X363314Y574673D01*
Y574672D01*
X363198Y574613D01*
X363093Y574534D01*
X363004Y574438D01*
X362933Y574329D01*
X362882Y574208D01*
X362853Y574081D01*
X362846Y573951D01*
X362862Y573821D01*
X362900Y573696D01*
X362959Y573580D01*
X363038Y573475D01*
X363134Y573386D01*
X363243Y573315D01*
X363364Y573264D01*
X363491Y573235D01*
X363621Y573228D01*
X363751Y573244D01*
X363876Y573282D01*
X364147Y573377D01*
X364427Y573445D01*
X364712Y573487D01*
X364999Y573500D01*
Y567500D01*
X364712Y567514D01*
X364427Y567556D01*
X364147Y567624D01*
X363876Y567719D01*
Y567720D01*
X363751Y567758D01*
X363621Y567774D01*
X363490Y567767D01*
X363363Y567738D01*
X363242Y567687D01*
X363133Y567615D01*
X363037Y567526D01*
X362958Y567422D01*
X362899Y567305D01*
X362861Y567180D01*
X362845Y567050D01*
X362852Y566919D01*
X362881Y566792D01*
X362932Y566671D01*
X363004Y566562D01*
X363093Y566466D01*
X363197Y566387D01*
X363314Y566328D01*
X363721Y566186D01*
X364141Y566083D01*
X364568Y566021D01*
X364999Y566000D01*
Y560000D01*
X364568Y559980D01*
X364141Y559918D01*
X363721Y559815D01*
X363314Y559673D01*
Y559672D01*
X363198Y559613D01*
X363093Y559534D01*
X363004Y559438D01*
X362933Y559329D01*
X362882Y559208D01*
X362853Y559081D01*
X362846Y558951D01*
X362862Y558821D01*
X362900Y558696D01*
X362959Y558580D01*
X363038Y558475D01*
X363134Y558386D01*
X363243Y558315D01*
X363364Y558264D01*
X363491Y558235D01*
X363621Y558228D01*
X363751Y558244D01*
X363876Y558282D01*
X364147Y558377D01*
X364427Y558445D01*
X364712Y558487D01*
X364999Y558500D01*
Y552500D01*
X364712Y552514D01*
X364427Y552556D01*
X364147Y552624D01*
X363876Y552719D01*
Y552720D01*
X363751Y552758D01*
X363621Y552774D01*
X363490Y552767D01*
X363363Y552738D01*
X363242Y552687D01*
X363133Y552615D01*
X363037Y552526D01*
X362958Y552422D01*
X362899Y552305D01*
X362861Y552180D01*
X362845Y552050D01*
X362852Y551919D01*
X362881Y551792D01*
X362932Y551671D01*
X363004Y551562D01*
X363093Y551466D01*
X363197Y551387D01*
X363314Y551328D01*
X363721Y551186D01*
X364141Y551083D01*
X364568Y551021D01*
X364999Y551000D01*
Y550000D01*
X361387D01*
Y553361D01*
X361419Y553354D01*
X361549Y553347D01*
X361679Y553363D01*
X361804Y553401D01*
X361920Y553460D01*
X362025Y553539D01*
X362114Y553635D01*
X362185Y553744D01*
X362236Y553865D01*
X362265Y553992D01*
X362272Y554122D01*
X362256Y554252D01*
X362218Y554377D01*
X362123Y554648D01*
X362055Y554928D01*
X362013Y555213D01*
X362000Y555501D01*
X362013Y555788D01*
X362055Y556073D01*
X362123Y556353D01*
X362218Y556624D01*
X362219D01*
X362257Y556749D01*
X362273Y556879D01*
X362266Y557010D01*
X362237Y557137D01*
X362186Y557258D01*
X362114Y557367D01*
X362025Y557463D01*
X361921Y557542D01*
X361804Y557601D01*
X361679Y557639D01*
X361549Y557655D01*
X361418Y557648D01*
X361387Y557641D01*
Y568361D01*
X361419Y568354D01*
X361549Y568347D01*
X361679Y568363D01*
X361804Y568401D01*
X361920Y568460D01*
X362025Y568539D01*
X362114Y568635D01*
X362185Y568744D01*
X362236Y568865D01*
X362265Y568992D01*
X362272Y569122D01*
X362256Y569252D01*
X362218Y569377D01*
X362123Y569648D01*
X362055Y569928D01*
X362013Y570213D01*
X362000Y570501D01*
X362013Y570788D01*
X362055Y571073D01*
X362123Y571353D01*
X362218Y571624D01*
X362219D01*
X362257Y571749D01*
X362273Y571879D01*
X362266Y572010D01*
X362237Y572137D01*
X362186Y572258D01*
X362114Y572367D01*
X362025Y572463D01*
X361921Y572542D01*
X361804Y572601D01*
X361679Y572639D01*
X361549Y572655D01*
X361418Y572648D01*
X361387Y572641D01*
Y583361D01*
X361419Y583354D01*
X361549Y583347D01*
X361679Y583363D01*
X361804Y583401D01*
X361920Y583460D01*
X362025Y583539D01*
X362114Y583635D01*
X362185Y583744D01*
X362236Y583865D01*
X362265Y583992D01*
X362272Y584122D01*
X362256Y584252D01*
X362218Y584377D01*
X362123Y584648D01*
X362055Y584928D01*
X362013Y585213D01*
X362000Y585501D01*
X362013Y585788D01*
X362055Y586073D01*
X362123Y586353D01*
X362218Y586624D01*
X362219D01*
X362257Y586749D01*
X362273Y586879D01*
X362266Y587010D01*
X362237Y587137D01*
X362186Y587258D01*
X362114Y587367D01*
X362025Y587463D01*
X361921Y587542D01*
X361804Y587601D01*
X361679Y587639D01*
X361549Y587655D01*
X361418Y587648D01*
X361387Y587641D01*
Y591500D01*
G37*
G36*
X359500Y550000D02*Y591500D01*
X361387D01*
Y587641D01*
X361291Y587619D01*
X361170Y587568D01*
X361061Y587496D01*
X360965Y587407D01*
X360886Y587303D01*
X360827Y587186D01*
X360685Y586779D01*
X360582Y586359D01*
X360520Y585932D01*
X360500Y585501D01*
X360520Y585069D01*
X360582Y584642D01*
X360685Y584222D01*
X360827Y583815D01*
X360828D01*
X360887Y583699D01*
X360966Y583594D01*
X361062Y583505D01*
X361171Y583434D01*
X361292Y583383D01*
X361387Y583361D01*
Y572641D01*
X361291Y572619D01*
X361170Y572568D01*
X361061Y572496D01*
X360965Y572407D01*
X360886Y572303D01*
X360827Y572186D01*
X360685Y571779D01*
X360582Y571359D01*
X360520Y570932D01*
X360500Y570501D01*
X360520Y570069D01*
X360582Y569642D01*
X360685Y569222D01*
X360827Y568815D01*
X360828D01*
X360887Y568699D01*
X360966Y568594D01*
X361062Y568505D01*
X361171Y568434D01*
X361292Y568383D01*
X361387Y568361D01*
Y557641D01*
X361291Y557619D01*
X361170Y557568D01*
X361061Y557496D01*
X360965Y557407D01*
X360886Y557303D01*
X360827Y557186D01*
X360685Y556779D01*
X360582Y556359D01*
X360520Y555932D01*
X360500Y555501D01*
X360520Y555069D01*
X360582Y554642D01*
X360685Y554222D01*
X360827Y553815D01*
X360828D01*
X360887Y553699D01*
X360966Y553594D01*
X361062Y553505D01*
X361171Y553434D01*
X361292Y553383D01*
X361387Y553361D01*
Y550000D01*
X359500D01*
G37*
G36*
X298500Y256000D02*Y264000D01*
X321500D01*
Y256000D01*
X298500D01*
G37*
G36*
X294000Y225000D02*Y279500D01*
X300000D01*
Y225000D01*
X294000D01*
G37*
G36*
X379500Y244500D02*Y281000D01*
X397000D01*
Y244500D01*
X379500D01*
G37*
G36*
X312000Y227000D02*X314500Y229500D01*
Y234000D01*
X347000D01*
Y228000D01*
X363000D01*
Y233500D01*
X399500D01*
Y243000D01*
X405500Y249000D01*
X412000D01*
Y255000D01*
X426500D01*
Y264500D01*
X435000D01*
X444500Y274000D01*
X474500D01*
Y263500D01*
X445000D01*
X433000Y251500D01*
Y218500D01*
X300500D01*
Y227000D01*
X312000D01*
G37*
G36*
X218000Y218500D02*Y227000D01*
X303500D01*
Y218500D01*
X218000D01*
G37*
G36*
X203500Y255500D02*Y296500D01*
X219500D01*
Y255500D01*
X203500D01*
G37*
G36*
X199000Y293000D02*X202500Y296500D01*
X216500D01*
Y275500D01*
X187000D01*
Y262500D01*
X216500D01*
Y225500D01*
X180000D01*
Y254500D01*
X166000D01*
Y262500D01*
X180000D01*
Y275500D01*
X174500D01*
X170500Y279500D01*
Y293000D01*
X199000D01*
G37*
G36*
X104500Y333500D02*Y282000D01*
X151500D01*
X167000Y266500D01*
Y231500D01*
X171500Y227000D01*
X221000D01*
Y218500D01*
X147000D01*
Y259000D01*
X138000Y268000D01*
X98500D01*
Y333500D01*
X104500D01*
G37*
G36*
X180000Y291500D02*Y306500D01*
X187000D01*
Y291500D01*
X180000D01*
G37*
G36*
X137500Y471500D02*Y455500D01*
X106000D01*
X104500Y454000D01*
Y332000D01*
X98500D01*
Y471500D01*
X137500D01*
G37*
G36*
X382500Y446000D02*Y494500D01*
X396000D01*
Y446000D01*
X382500D01*
G37*
G36*
X424613Y533137D02*X424750Y533201D01*
X424964Y533351D01*
X425149Y533536D01*
X425299Y533750D01*
X425410Y533987D01*
X425477Y534240D01*
X425500Y534500D01*
Y537000D01*
X429000D01*
Y492000D01*
X424613D01*
Y499860D01*
X424708Y499882D01*
X424829Y499933D01*
X424938Y500005D01*
X425034Y500094D01*
X425113Y500198D01*
X425172Y500315D01*
X425314Y500722D01*
X425417Y501142D01*
X425479Y501569D01*
X425500Y502000D01*
X425479Y502432D01*
X425417Y502859D01*
X425314Y503279D01*
X425172Y503686D01*
X425171D01*
X425112Y503802D01*
X425033Y503907D01*
X424937Y503996D01*
X424828Y504067D01*
X424707Y504118D01*
X424613Y504139D01*
Y507637D01*
X424750Y507701D01*
X424964Y507851D01*
X425149Y508036D01*
X425299Y508250D01*
X425410Y508487D01*
X425477Y508740D01*
X425500Y509000D01*
Y515000D01*
X425477Y515260D01*
X425410Y515513D01*
X425299Y515750D01*
X425149Y515964D01*
X424964Y516149D01*
X424750Y516299D01*
X424613Y516363D01*
Y525360D01*
X424708Y525382D01*
X424829Y525433D01*
X424938Y525505D01*
X425034Y525594D01*
X425113Y525698D01*
X425172Y525815D01*
X425314Y526222D01*
X425417Y526642D01*
X425479Y527069D01*
X425500Y527500D01*
X425479Y527932D01*
X425417Y528359D01*
X425314Y528779D01*
X425172Y529186D01*
X425171D01*
X425112Y529302D01*
X425033Y529407D01*
X424937Y529496D01*
X424828Y529567D01*
X424707Y529618D01*
X424613Y529639D01*
Y533137D01*
G37*
G36*
Y492000D02*X421000D01*
Y497500D01*
X421431Y497521D01*
X421858Y497583D01*
X422278Y497686D01*
X422685Y497828D01*
Y497829D01*
X422801Y497888D01*
X422906Y497967D01*
X422995Y498063D01*
X423066Y498172D01*
X423117Y498293D01*
X423146Y498420D01*
X423153Y498550D01*
X423137Y498680D01*
X423099Y498805D01*
X423040Y498921D01*
X422961Y499026D01*
X422865Y499115D01*
X422756Y499186D01*
X422635Y499237D01*
X422508Y499266D01*
X422378Y499273D01*
X422248Y499257D01*
X422123Y499219D01*
X421852Y499124D01*
X421572Y499056D01*
X421287Y499014D01*
X421000Y499000D01*
Y505000D01*
X421287Y504987D01*
X421572Y504945D01*
X421852Y504877D01*
X422123Y504782D01*
Y504781D01*
X422248Y504743D01*
X422378Y504727D01*
X422509Y504734D01*
X422636Y504763D01*
X422757Y504814D01*
X422866Y504886D01*
X422962Y504975D01*
X423041Y505079D01*
X423100Y505196D01*
X423138Y505321D01*
X423154Y505451D01*
X423147Y505582D01*
X423118Y505709D01*
X423067Y505830D01*
X422995Y505939D01*
X422906Y506035D01*
X422802Y506114D01*
X422685Y506173D01*
X422278Y506315D01*
X421858Y506418D01*
X421431Y506480D01*
X421000Y506500D01*
Y507500D01*
X424000D01*
X424260Y507523D01*
X424513Y507590D01*
X424613Y507637D01*
Y504139D01*
X424580Y504147D01*
X424450Y504154D01*
X424320Y504138D01*
X424195Y504100D01*
X424079Y504041D01*
X423974Y503962D01*
X423885Y503866D01*
X423814Y503757D01*
X423763Y503636D01*
X423734Y503509D01*
X423727Y503379D01*
X423743Y503249D01*
X423781Y503124D01*
X423876Y502853D01*
X423944Y502573D01*
X423986Y502288D01*
X424000Y502000D01*
X423986Y501713D01*
X423944Y501428D01*
X423876Y501148D01*
X423781Y500877D01*
X423780D01*
X423742Y500752D01*
X423726Y500622D01*
X423733Y500491D01*
X423762Y500364D01*
X423813Y500243D01*
X423885Y500134D01*
X423974Y500038D01*
X424078Y499959D01*
X424195Y499900D01*
X424320Y499862D01*
X424450Y499846D01*
X424581Y499853D01*
X424613Y499860D01*
Y492000D01*
G37*
G36*
X421000Y533000D02*X424000D01*
X424260Y533023D01*
X424513Y533090D01*
X424613Y533137D01*
Y529639D01*
X424580Y529647D01*
X424450Y529654D01*
X424320Y529638D01*
X424195Y529600D01*
X424079Y529541D01*
X423974Y529462D01*
X423885Y529366D01*
X423814Y529257D01*
X423763Y529136D01*
X423734Y529009D01*
X423727Y528879D01*
X423743Y528749D01*
X423781Y528624D01*
X423876Y528353D01*
X423944Y528073D01*
X423986Y527788D01*
X424000Y527500D01*
X423986Y527213D01*
X423944Y526928D01*
X423876Y526648D01*
X423781Y526377D01*
X423780D01*
X423742Y526252D01*
X423726Y526122D01*
X423733Y525991D01*
X423762Y525864D01*
X423813Y525743D01*
X423885Y525634D01*
X423974Y525538D01*
X424078Y525459D01*
X424195Y525400D01*
X424320Y525362D01*
X424450Y525346D01*
X424581Y525353D01*
X424613Y525360D01*
Y516363D01*
X424513Y516410D01*
X424260Y516477D01*
X424000Y516500D01*
X421000D01*
Y523000D01*
X421431Y523021D01*
X421858Y523083D01*
X422278Y523186D01*
X422685Y523328D01*
Y523329D01*
X422801Y523388D01*
X422906Y523467D01*
X422995Y523563D01*
X423066Y523672D01*
X423117Y523793D01*
X423146Y523920D01*
X423153Y524050D01*
X423137Y524180D01*
X423099Y524305D01*
X423040Y524421D01*
X422961Y524526D01*
X422865Y524615D01*
X422756Y524686D01*
X422635Y524737D01*
X422508Y524766D01*
X422378Y524773D01*
X422248Y524757D01*
X422123Y524719D01*
X421852Y524624D01*
X421572Y524556D01*
X421287Y524514D01*
X421000Y524500D01*
Y530500D01*
X421287Y530487D01*
X421572Y530445D01*
X421852Y530377D01*
X422123Y530282D01*
Y530281D01*
X422248Y530243D01*
X422378Y530227D01*
X422509Y530234D01*
X422636Y530263D01*
X422757Y530314D01*
X422866Y530386D01*
X422962Y530475D01*
X423041Y530579D01*
X423100Y530696D01*
X423138Y530821D01*
X423154Y530951D01*
X423147Y531082D01*
X423118Y531209D01*
X423067Y531330D01*
X422995Y531439D01*
X422906Y531535D01*
X422802Y531614D01*
X422685Y531673D01*
X422278Y531815D01*
X421858Y531918D01*
X421431Y531980D01*
X421000Y532000D01*
Y533000D01*
G37*
G36*
X417387Y507637D02*X417487Y507590D01*
X417740Y507523D01*
X418000Y507500D01*
X421000D01*
Y506500D01*
X420568Y506480D01*
X420141Y506418D01*
X419721Y506315D01*
X419314Y506173D01*
Y506172D01*
X419198Y506113D01*
X419093Y506034D01*
X419004Y505938D01*
X418933Y505829D01*
X418882Y505708D01*
X418853Y505581D01*
X418846Y505451D01*
X418862Y505321D01*
X418900Y505196D01*
X418959Y505080D01*
X419038Y504975D01*
X419134Y504886D01*
X419243Y504815D01*
X419364Y504764D01*
X419491Y504735D01*
X419621Y504728D01*
X419751Y504744D01*
X419876Y504782D01*
X420147Y504877D01*
X420427Y504945D01*
X420712Y504987D01*
X421000Y505000D01*
Y499000D01*
X420999D01*
X420712Y499014D01*
X420427Y499056D01*
X420147Y499124D01*
X419876Y499219D01*
Y499220D01*
X419751Y499258D01*
X419621Y499274D01*
X419490Y499267D01*
X419363Y499238D01*
X419242Y499187D01*
X419133Y499115D01*
X419037Y499026D01*
X418958Y498922D01*
X418899Y498805D01*
X418861Y498680D01*
X418845Y498550D01*
X418852Y498419D01*
X418881Y498292D01*
X418932Y498171D01*
X419004Y498062D01*
X419093Y497966D01*
X419197Y497887D01*
X419314Y497828D01*
X419721Y497686D01*
X420141Y497583D01*
X420568Y497521D01*
X420999Y497500D01*
X421000D01*
Y492000D01*
X417387D01*
Y499861D01*
X417419Y499854D01*
X417549Y499847D01*
X417679Y499863D01*
X417804Y499901D01*
X417920Y499960D01*
X418025Y500039D01*
X418114Y500135D01*
X418185Y500244D01*
X418236Y500365D01*
X418265Y500492D01*
X418272Y500622D01*
X418256Y500752D01*
X418218Y500877D01*
X418123Y501148D01*
X418055Y501428D01*
X418013Y501713D01*
X418000Y502001D01*
X418013Y502288D01*
X418055Y502573D01*
X418123Y502853D01*
X418218Y503124D01*
X418219D01*
X418257Y503249D01*
X418273Y503379D01*
X418266Y503510D01*
X418237Y503637D01*
X418186Y503758D01*
X418114Y503867D01*
X418025Y503963D01*
X417921Y504042D01*
X417804Y504101D01*
X417679Y504139D01*
X417549Y504155D01*
X417418Y504148D01*
X417387Y504141D01*
Y507637D01*
G37*
G36*
Y533137D02*X417487Y533090D01*
X417740Y533023D01*
X418000Y533000D01*
X421000D01*
Y532000D01*
X420568Y531980D01*
X420141Y531918D01*
X419721Y531815D01*
X419314Y531673D01*
Y531672D01*
X419198Y531613D01*
X419093Y531534D01*
X419004Y531438D01*
X418933Y531329D01*
X418882Y531208D01*
X418853Y531081D01*
X418846Y530951D01*
X418862Y530821D01*
X418900Y530696D01*
X418959Y530580D01*
X419038Y530475D01*
X419134Y530386D01*
X419243Y530315D01*
X419364Y530264D01*
X419491Y530235D01*
X419621Y530228D01*
X419751Y530244D01*
X419876Y530282D01*
X420147Y530377D01*
X420427Y530445D01*
X420712Y530487D01*
X421000Y530500D01*
Y524500D01*
X420999D01*
X420712Y524514D01*
X420427Y524556D01*
X420147Y524624D01*
X419876Y524719D01*
Y524720D01*
X419751Y524758D01*
X419621Y524774D01*
X419490Y524767D01*
X419363Y524738D01*
X419242Y524687D01*
X419133Y524615D01*
X419037Y524526D01*
X418958Y524422D01*
X418899Y524305D01*
X418861Y524180D01*
X418845Y524050D01*
X418852Y523919D01*
X418881Y523792D01*
X418932Y523671D01*
X419004Y523562D01*
X419093Y523466D01*
X419197Y523387D01*
X419314Y523328D01*
X419721Y523186D01*
X420141Y523083D01*
X420568Y523021D01*
X420999Y523000D01*
X421000D01*
Y516500D01*
X418000D01*
X417740Y516477D01*
X417487Y516410D01*
X417387Y516363D01*
Y525361D01*
X417419Y525354D01*
X417549Y525347D01*
X417679Y525363D01*
X417804Y525401D01*
X417920Y525460D01*
X418025Y525539D01*
X418114Y525635D01*
X418185Y525744D01*
X418236Y525865D01*
X418265Y525992D01*
X418272Y526122D01*
X418256Y526252D01*
X418218Y526377D01*
X418123Y526648D01*
X418055Y526928D01*
X418013Y527213D01*
X418000Y527501D01*
X418013Y527788D01*
X418055Y528073D01*
X418123Y528353D01*
X418218Y528624D01*
X418219D01*
X418257Y528749D01*
X418273Y528879D01*
X418266Y529010D01*
X418237Y529137D01*
X418186Y529258D01*
X418114Y529367D01*
X418025Y529463D01*
X417921Y529542D01*
X417804Y529601D01*
X417679Y529639D01*
X417549Y529655D01*
X417418Y529648D01*
X417387Y529641D01*
Y533137D01*
G37*
G36*
X401500Y492000D02*Y537000D01*
X416500D01*
Y534500D01*
X416523Y534240D01*
X416590Y533987D01*
X416701Y533750D01*
X416851Y533536D01*
X417036Y533351D01*
X417250Y533201D01*
X417387Y533137D01*
Y529641D01*
X417291Y529619D01*
X417170Y529568D01*
X417061Y529496D01*
X416965Y529407D01*
X416886Y529303D01*
X416827Y529186D01*
X416685Y528779D01*
X416582Y528359D01*
X416520Y527932D01*
X416500Y527501D01*
X416520Y527069D01*
X416582Y526642D01*
X416685Y526222D01*
X416827Y525815D01*
X416828D01*
X416887Y525699D01*
X416966Y525594D01*
X417062Y525505D01*
X417171Y525434D01*
X417292Y525383D01*
X417387Y525361D01*
Y516363D01*
X417250Y516299D01*
X417036Y516149D01*
X416851Y515964D01*
X416701Y515750D01*
X416590Y515513D01*
X416523Y515260D01*
X416500Y515000D01*
Y509000D01*
X416523Y508740D01*
X416590Y508487D01*
X416701Y508250D01*
X416851Y508036D01*
X417036Y507851D01*
X417250Y507701D01*
X417387Y507637D01*
Y504141D01*
X417291Y504119D01*
X417170Y504068D01*
X417061Y503996D01*
X416965Y503907D01*
X416886Y503803D01*
X416827Y503686D01*
X416685Y503279D01*
X416582Y502859D01*
X416520Y502432D01*
X416500Y502001D01*
X416520Y501569D01*
X416582Y501142D01*
X416685Y500722D01*
X416827Y500315D01*
X416828D01*
X416887Y500199D01*
X416966Y500094D01*
X417062Y500005D01*
X417171Y499934D01*
X417292Y499883D01*
X417387Y499861D01*
Y492000D01*
X401500D01*
G37*
G36*
X435500Y531000D02*Y493500D01*
X446500Y482500D01*
X464000D01*
Y476000D01*
X431500D01*
Y486500D01*
X426000Y492000D01*
Y531000D01*
X435500D01*
G37*
G36*
X400500Y493500D02*Y532000D01*
X413000D01*
Y493500D01*
X400500D01*
G37*
G36*
X427000Y550500D02*Y544500D01*
X429000Y542500D01*
X435500D01*
Y530000D01*
X419000D01*
Y530526D01*
X419038Y530475D01*
X419134Y530386D01*
X419243Y530315D01*
X419364Y530264D01*
X419491Y530235D01*
X419621Y530228D01*
X419751Y530244D01*
X419876Y530282D01*
X420147Y530377D01*
X420427Y530445D01*
X420712Y530487D01*
X421000Y530500D01*
X421287Y530487D01*
X421572Y530445D01*
X421852Y530377D01*
X422123Y530282D01*
Y530281D01*
X422248Y530243D01*
X422378Y530227D01*
X422509Y530234D01*
X422636Y530263D01*
X422757Y530314D01*
X422866Y530386D01*
X422962Y530475D01*
X423041Y530579D01*
X423100Y530696D01*
X423138Y530821D01*
X423154Y530951D01*
X423147Y531082D01*
X423118Y531209D01*
X423067Y531330D01*
X422995Y531439D01*
X422906Y531535D01*
X422802Y531614D01*
X422685Y531673D01*
X422278Y531815D01*
X421858Y531918D01*
X421431Y531980D01*
X421000Y532000D01*
X420568Y531980D01*
X420141Y531918D01*
X419721Y531815D01*
X419314Y531673D01*
Y531672D01*
X419198Y531613D01*
X419093Y531534D01*
X419004Y531438D01*
X419000Y531432D01*
Y533000D01*
X424000D01*
X424260Y533023D01*
X424513Y533090D01*
X424750Y533201D01*
X424964Y533351D01*
X425149Y533536D01*
X425299Y533750D01*
X425410Y533987D01*
X425477Y534240D01*
X425500Y534500D01*
Y540500D01*
X425477Y540760D01*
X425410Y541013D01*
X425299Y541250D01*
X425149Y541464D01*
X424964Y541649D01*
X424750Y541799D01*
X424513Y541910D01*
X424260Y541977D01*
X424000Y542000D01*
X419000D01*
Y550500D01*
X427000D01*
G37*
G36*
X373000Y628500D02*X378000D01*
Y613000D01*
X384500Y606500D01*
Y547000D01*
X380500D01*
Y589500D01*
X376000Y594000D01*
X372500D01*
Y628500D01*
X373000D01*
G37*
G36*
X413500Y534500D02*Y550500D01*
X420500D01*
Y542000D01*
X418000D01*
X417740Y541977D01*
X417487Y541910D01*
X417250Y541799D01*
X417036Y541649D01*
X416851Y541464D01*
X416701Y541250D01*
X416590Y541013D01*
X416523Y540760D01*
X416500Y540500D01*
Y534500D01*
X413500D01*
G37*
G36*
Y549500D02*Y594500D01*
X420500D01*
Y549500D01*
X413500D01*
G37*
G36*
X464500Y630500D02*Y621000D01*
X446000D01*
X427000Y602000D01*
Y593500D01*
X422500D01*
X420500Y591500D01*
Y589000D01*
X413500D01*
Y607500D01*
X418500Y612500D01*
Y618500D01*
X420500Y620500D01*
X442000D01*
X449000Y627500D01*
Y630500D01*
X464500D01*
G37*
G36*
X279000Y590500D02*Y617000D01*
X285000D01*
Y590500D01*
X279000D01*
G37*
G36*
Y615500D02*Y666000D01*
X285000D01*
Y615500D01*
X279000D01*
G37*
G36*
Y664500D02*Y719500D01*
X285000D01*
Y664500D01*
X279000D01*
G37*
G36*
Y799500D02*X285000D01*
Y718000D01*
X279000D01*
Y799500D01*
G37*
G36*
X200000Y665000D02*Y645000D01*
X192000D01*
Y660000D01*
X194000Y662000D01*
Y665000D01*
X200000D01*
G37*
G36*
X194000Y663500D02*Y720000D01*
X200000D01*
Y663500D01*
X194000D01*
G37*
G36*
Y799500D02*X200000D01*
Y718000D01*
X194000D01*
Y799500D01*
G37*
G36*
X203000Y554000D02*Y644500D01*
X209000D01*
Y554000D01*
X203000D01*
G37*
G36*
Y630000D02*Y648000D01*
X208000D01*
Y630000D01*
X203000D01*
G37*
G36*
X202500Y645500D02*Y665000D01*
X208000D01*
Y645500D01*
X202500D01*
G37*
G36*
Y663500D02*Y720500D01*
X208000D01*
Y663500D01*
X202500D01*
G37*
G36*
Y803500D02*X208000D01*
Y718000D01*
X202500D01*
Y803500D01*
G37*
G36*
X193000Y554000D02*Y632500D01*
X201500D01*
Y554000D01*
X193000D01*
G37*
G36*
X115000Y660500D02*Y644000D01*
X113500D01*
Y635500D01*
X126500Y622500D01*
Y615500D01*
X98500D01*
Y660500D01*
X115000D01*
G37*
G36*
X123000Y660000D02*Y651500D01*
X121500Y650000D01*
X117500D01*
Y660000D01*
X123000D01*
G37*
G36*
X99000Y716500D02*X115000D01*
Y692000D01*
X106000D01*
Y673000D01*
X115000D01*
Y659000D01*
X98500D01*
Y716500D01*
X99000D01*
G37*
G36*
X117500Y659500D02*Y716500D01*
X123000D01*
Y659500D01*
X117500D01*
G37*
G36*
X115000Y826500D02*Y806500D01*
X106000D01*
Y787500D01*
X115000D01*
Y768000D01*
X98500D01*
Y826500D01*
X115000D01*
G37*
G36*
X117500Y766500D02*Y826500D01*
X123000D01*
Y766500D01*
X117500D01*
G37*
G36*
X99000Y772000D02*X115000D01*
Y747500D01*
X106000D01*
Y728500D01*
X115000D01*
Y714500D01*
X98500D01*
Y772000D01*
X99000D01*
G37*
G36*
X117500Y715000D02*Y772000D01*
X123000D01*
Y715000D01*
X117500D01*
G37*
G36*
X304500Y593000D02*Y626000D01*
X320500D01*
Y593000D01*
X304500D01*
G37*
G36*
X302000Y626000D02*X307500D01*
Y610500D01*
X302000D01*
Y613500D01*
X302130Y613511D01*
X302257Y613545D01*
X302375Y613600D01*
X302482Y613675D01*
X302575Y613768D01*
X302650Y613875D01*
X302705Y613993D01*
X302739Y614120D01*
X302750Y614250D01*
Y616750D01*
X302739Y616880D01*
X302705Y617007D01*
X302650Y617125D01*
X302575Y617232D01*
X302482Y617325D01*
X302375Y617400D01*
X302257Y617455D01*
X302130Y617489D01*
X302000Y617500D01*
Y626000D01*
G37*
G36*
X298500D02*X302000D01*
Y617500D01*
X301870Y617489D01*
X301743Y617455D01*
X301625Y617400D01*
X301518Y617325D01*
X301425Y617232D01*
X301350Y617125D01*
X301295Y617007D01*
X301261Y616880D01*
X301250Y616750D01*
Y614250D01*
X301261Y614120D01*
X301295Y613993D01*
X301350Y613875D01*
X301425Y613768D01*
X301518Y613675D01*
X301625Y613600D01*
X301743Y613545D01*
X301870Y613511D01*
X302000Y613500D01*
Y610500D01*
X298500D01*
Y611250D01*
X299750D01*
X299880Y611261D01*
X300007Y611295D01*
X300125Y611350D01*
X300232Y611425D01*
X300325Y611518D01*
X300400Y611625D01*
X300455Y611743D01*
X300489Y611870D01*
X300500Y612000D01*
X300489Y612130D01*
X300455Y612257D01*
X300400Y612375D01*
X300325Y612482D01*
X300232Y612575D01*
X300125Y612650D01*
X300007Y612705D01*
X299880Y612739D01*
X299750Y612750D01*
X298500D01*
Y618250D01*
X299750D01*
X299880Y618261D01*
X300007Y618295D01*
X300125Y618350D01*
X300232Y618425D01*
X300325Y618518D01*
X300400Y618625D01*
X300455Y618743D01*
X300489Y618870D01*
X300500Y619000D01*
X300489Y619130D01*
X300455Y619257D01*
X300400Y619375D01*
X300325Y619482D01*
X300232Y619575D01*
X300125Y619650D01*
X300007Y619705D01*
X299880Y619739D01*
X299750Y619750D01*
X298500D01*
Y626000D01*
G37*
G36*
X295000D02*X298500D01*
Y619750D01*
X297250D01*
X297120Y619739D01*
X296993Y619705D01*
X296875Y619650D01*
X296768Y619575D01*
X296675Y619482D01*
X296600Y619375D01*
X296545Y619257D01*
X296511Y619130D01*
X296500Y619000D01*
X296511Y618870D01*
X296545Y618743D01*
X296600Y618625D01*
X296675Y618518D01*
X296768Y618425D01*
X296875Y618350D01*
X296993Y618295D01*
X297120Y618261D01*
X297250Y618250D01*
X298500D01*
Y612750D01*
X297250D01*
X297120Y612739D01*
X296993Y612705D01*
X296875Y612650D01*
X296768Y612575D01*
X296675Y612482D01*
X296600Y612375D01*
X296545Y612257D01*
X296511Y612130D01*
X296500Y612000D01*
X296511Y611870D01*
X296545Y611743D01*
X296600Y611625D01*
X296675Y611518D01*
X296768Y611425D01*
X296875Y611350D01*
X296993Y611295D01*
X297120Y611261D01*
X297250Y611250D01*
X298500D01*
Y610500D01*
X295000D01*
Y613500D01*
X295130Y613511D01*
X295257Y613545D01*
X295375Y613600D01*
X295482Y613675D01*
X295575Y613768D01*
X295650Y613875D01*
X295705Y613993D01*
X295739Y614120D01*
X295750Y614250D01*
Y616750D01*
X295739Y616880D01*
X295705Y617007D01*
X295650Y617125D01*
X295575Y617232D01*
X295482Y617325D01*
X295375Y617400D01*
X295257Y617455D01*
X295130Y617489D01*
X295000Y617500D01*
Y626000D01*
G37*
G36*
X287500Y610500D02*Y626000D01*
X295000D01*
Y617500D01*
X294870Y617489D01*
X294743Y617455D01*
X294625Y617400D01*
X294518Y617325D01*
X294425Y617232D01*
X294350Y617125D01*
X294295Y617007D01*
X294261Y616880D01*
X294250Y616750D01*
Y614250D01*
X294261Y614120D01*
X294295Y613993D01*
X294350Y613875D01*
X294425Y613768D01*
X294518Y613675D01*
X294625Y613600D01*
X294743Y613545D01*
X294870Y613511D01*
X295000Y613500D01*
Y610500D01*
X287500D01*
G37*
G36*
Y624000D02*Y665500D01*
X293000D01*
Y624000D01*
X287500D01*
G37*
G36*
Y663500D02*Y720500D01*
X293000D01*
Y663500D01*
X287500D01*
G37*
G36*
X466500Y615000D02*Y627500D01*
X474500D01*
Y615000D01*
X466500D01*
G37*
G36*
Y625500D02*Y826500D01*
X474500D01*
Y625500D01*
X466500D01*
G37*
G36*
X449000Y721000D02*X464500D01*
Y655500D01*
X456500D01*
Y635500D01*
X464500D01*
Y625500D01*
X449000D01*
Y721000D01*
G37*
G36*
X464500Y826500D02*Y807000D01*
X456500D01*
Y787000D01*
X464500D01*
Y748000D01*
X456500D01*
Y728000D01*
X464500D01*
Y718500D01*
X449000D01*
Y826500D01*
X464500D01*
G37*
G36*
X370000Y719000D02*Y716000D01*
X374500Y711500D01*
Y687000D01*
X370000Y682500D01*
Y627000D01*
X364000D01*
Y683000D01*
X369000Y688000D01*
Y711000D01*
X364000Y716000D01*
Y719000D01*
X370000D01*
G37*
G36*
X378000Y719500D02*X383500Y714000D01*
Y680500D01*
X378000Y675000D01*
Y627000D01*
X372500D01*
Y678500D01*
X377000Y683000D01*
Y712500D01*
X372500Y717000D01*
Y719500D01*
X378000D01*
G37*
G36*
X364000Y799500D02*X370000D01*
Y718000D01*
X364000D01*
Y799500D01*
G37*
G36*
X372500Y803500D02*X378000D01*
Y718000D01*
X372500D01*
Y803500D01*
G37*
G36*
X287500D02*X293000D01*
Y718000D01*
X287500D01*
Y803500D01*
G37*
G54D13*X423500Y765500D02*Y753000D01*
X393500D02*Y769000D01*
X433500Y765500D02*X438500Y760500D01*
Y758000D01*
G54D38*Y748500D01*
G54D13*X433500Y723000D01*
G54D12*X443500D02*X451500D01*
G54D13*X443500Y753000D02*X438500Y727500D01*
G54D38*Y718500D01*
G54D12*X454500Y733000D02*X461500D01*
Y724000D01*
Y743000D02*X470500D01*
G54D13*X438500Y656000D02*Y634500D01*
G54D12*X443500Y630500D02*X451500D01*
G54D38*X438500Y634500D02*Y627000D01*
G54D12*X461500Y640500D02*Y631000D01*
Y640500D02*X454500D01*
G54D38*X438500Y667000D02*Y656000D01*
X428500Y666000D02*Y656500D01*
G54D13*X423500Y630500D01*
X433500Y660500D02*Y630500D01*
X418500Y657500D02*X413500Y630500D01*
G54D38*X418500Y665000D02*Y657500D01*
G54D13*X408500Y627000D02*X413500Y620000D01*
X408500Y634000D02*X413500Y660500D01*
X438500Y627000D02*Y624500D01*
G54D15*X448500Y617000D02*X432000Y600500D01*
G54D13*X393500Y723000D02*Y686500D01*
X423500Y723000D02*X417500Y717000D01*
X413000D01*
X413500Y723000D02*X398500Y708000D01*
X413000Y717000D02*X405000Y709000D01*
X408000Y702000D02*X414500Y708500D01*
X398500Y708000D02*Y683000D01*
X405000Y709000D02*Y692500D01*
X408000Y693000D02*X413000Y688000D01*
X412500Y684500D02*X405000Y692500D01*
X408000Y693000D02*Y702000D01*
X413000Y688000D02*X419500D01*
X403500Y678000D02*X406000Y680500D01*
X415000D01*
X418500Y673500D02*Y665500D01*
X408500Y677000D02*Y665500D01*
X415500Y684500D02*X428500Y676500D01*
G54D38*X408500Y665000D02*Y657500D01*
G54D13*X403500Y661000D02*Y678000D01*
G54D38*X398500Y664500D02*Y657000D01*
G54D13*Y670000D02*Y665000D01*
X423500Y675500D02*Y661000D01*
G54D12*X461500Y650500D02*X470500D01*
G54D13*X438500Y718500D02*X421500Y701500D01*
Y692500D01*
X438500Y680000D01*
Y667000D01*
X428500Y676500D02*Y666500D01*
G54D12*X441000Y698000D02*X452500D01*
G54D13*X415000Y680500D02*X423500Y675500D01*
X415500Y684500D02*X412500D01*
X323500Y765500D02*Y757500D01*
X328500Y762000D02*Y753000D01*
Y713500D02*Y723000D01*
Y683000D02*X322000Y691000D01*
X321500D02*X317000D01*
G54D38*X323500Y757500D02*Y748500D01*
G54D13*X353500Y772500D02*Y757500D01*
G54D38*Y748500D01*
G54D13*X348500Y723000D01*
X338500Y753000D02*Y723000D01*
X348500Y769000D02*Y753000D01*
G54D12*X298500D02*X290500D01*
X383500D02*X375500D01*
G54D13*X323500Y748500D02*X318500Y723000D01*
X308500Y753000D02*Y723000D01*
X313500Y713500D02*Y718500D01*
G54D38*Y726500D01*
G54D13*X318500Y753000D01*
G54D15*X371500Y702000D02*X358000D01*
X355000Y705000D01*
X305000D01*
X296500Y696500D01*
G54D12*X351500Y698000D02*Y705000D01*
G54D13*X304500Y696500D02*Y686000D01*
G54D12*X273500Y667500D02*X281500D01*
G54D13*X273500Y706500D02*Y697500D01*
X298500Y723000D02*Y713500D01*
X317000Y691000D02*X304000Y678000D01*
G54D12*X273500Y619000D02*X281500D01*
G54D13*X308500Y672500D02*Y660500D01*
X303500Y669500D02*Y664500D01*
G54D38*Y656500D01*
G54D13*X298500Y636000D01*
Y630500D01*
G54D38*X388500Y666000D02*Y656000D01*
G54D13*X383500Y638000D01*
G54D12*X364500Y693500D02*X343500Y672500D01*
Y665500D01*
G54D13*X353500Y669000D02*Y664000D01*
X383500Y638000D02*Y630500D01*
X408500Y657500D02*X403500Y630500D01*
X398500Y657000D02*X393500Y630500D01*
X413500Y613000D02*X397000Y600500D01*
G54D12*X392500Y602500D02*X408500Y615500D01*
G54D38*Y634000D02*Y627000D01*
G54D13*X413500Y620000D02*Y613000D01*
G54D12*X408500Y600500D02*Y541500D01*
G54D13*X403000Y597000D02*Y541000D01*
G54D12*X397000D02*Y600500D01*
X392500Y602500D02*Y544500D01*
X390500Y541000D02*X392500Y544500D01*
G54D15*X393000Y414500D02*Y400500D01*
G54D39*X432000Y600500D02*Y547500D01*
G54D13*X425500Y484000D02*X418000Y476500D01*
Y448000D01*
X413000Y424500D01*
Y414500D01*
G54D12*X461500Y454000D02*Y479500D01*
G54D14*Y436000D02*X470500D01*
X441500D02*X447000Y430500D01*
X455000Y418000D02*X449000Y424000D01*
X447000Y430500D01*
G54D12*X420500Y261000D02*X430000D01*
X420500D02*Y250000D01*
G54D14*X412000Y284500D02*Y245000D01*
X455000Y318000D02*Y336000D01*
X377000Y301000D02*X403000Y286000D01*
X436000Y312000D02*Y325000D01*
X441500Y330500D01*
G54D38*X343500Y665500D02*Y656500D01*
G54D12*X328500Y630500D01*
G54D38*X353500Y664000D02*Y656000D01*
G54D13*X338500Y630500D01*
Y676000D02*Y660500D01*
X328500Y683000D02*Y660500D01*
X323500Y669500D02*Y664000D01*
G54D38*Y656500D01*
G54D13*X318500Y630500D01*
G54D12*X358500D02*X367000D01*
G54D13*X358500Y615500D02*X367500D01*
X348500Y630500D02*X332500Y611500D01*
G54D12*X337500Y589500D02*X348500Y600500D01*
X384000Y541000D02*X388000Y545000D01*
Y615500D01*
G54D13*X318500Y686500D02*Y660500D01*
X332500Y541000D02*Y611500D01*
G54D12*X337500Y541000D02*Y589500D01*
G54D13*X327000Y615500D02*Y541000D01*
G54D38*X273500Y412000D02*Y405000D01*
X283500Y442500D02*Y435000D01*
G54D13*X288500Y409000D01*
G54D38*X283500Y412000D02*Y405500D01*
G54D13*Y412000D02*X278500Y433500D01*
Y439000D01*
X283500Y442500D02*Y447500D01*
G54D14*X307500Y463000D02*X318000Y452500D01*
G54D15*X344500Y414500D02*Y446500D01*
G54D14*X334500Y414500D02*Y427000D01*
X325500Y439500D02*X344500D01*
Y446500D02*Y454000D01*
G54D12*X298000Y608000D02*Y594500D01*
X291000Y608000D02*Y594500D01*
X322000Y588500D02*X297500Y577000D01*
G54D15*X323000Y323500D02*X368500D01*
G54D12*X319500Y301000D02*X335000D01*
G54D14*X353500D02*X377000D01*
G54D15*X319000Y319500D02*X323000Y323500D01*
G54D14*X300000Y283500D02*X308500D01*
X383000Y227000D02*Y258500D01*
X373000Y266000D02*X385000D01*
G54D12*X363500Y271000D02*X373000Y276000D01*
X356000Y261000D02*X373000Y256000D01*
X356000Y271000D02*X363500D01*
G54D14*X308500Y283500D02*X325000Y291000D01*
X335000D01*
Y311000D02*X353500Y301000D01*
X375500Y439500D02*X385500D01*
X346500Y470000D02*X360500Y456000D01*
X365000Y460000D02*X386500D01*
X303500Y476500D02*X390000D01*
X395500Y447000D02*X363500D01*
G54D38*X133500Y719000D02*Y727000D01*
G54D13*X148500Y713500D02*Y723000D01*
G54D12*X128500Y697500D02*X120000D01*
G54D13*X133500Y762000D02*Y757500D01*
Y719000D02*Y710000D01*
X110500Y733000D02*X103000D01*
X110500D02*Y724500D01*
Y743000D02*X121000D01*
X218500Y750000D02*X213500Y729500D01*
Y723000D01*
X228500Y749500D02*X223500Y723000D01*
X228500Y703000D02*Y717000D01*
G54D38*X218500Y757500D02*Y750000D01*
G54D13*Y765500D02*Y757500D01*
G54D38*X228500Y749500D02*Y757500D01*
G54D13*X223500Y776000D01*
X229000Y771000D02*X233500Y758500D01*
X248500Y769000D02*Y756500D01*
X233500Y758500D02*Y753000D01*
X248500Y748500D02*Y727500D01*
G54D38*Y756500D02*Y748500D01*
G54D12*X213500Y753000D02*X205500D01*
X213500Y697500D02*X205500D01*
X188500Y723000D02*X196500D01*
G54D38*X248500Y727500D02*Y718500D01*
G54D13*X183500Y710000D02*Y701000D01*
X229000Y771000D02*Y781500D01*
X217000Y802000D01*
Y808000D01*
Y858000D02*Y840500D01*
X191000Y814500D01*
G54D12*X197000Y805500D02*X201000Y814500D01*
X197000Y798000D02*Y805500D01*
G54D13*X157000Y858000D02*Y840500D01*
Y808000D02*Y777500D01*
Y840500D02*X131000Y814500D01*
G54D12*X141000Y798000D02*Y814500D01*
G54D13*X175000Y808000D02*X168500Y801500D01*
G54D38*X133500Y757500D02*Y749500D01*
G54D12*X128500Y753000D02*X120500D01*
G54D13*X133500Y749500D02*X128500Y729000D01*
Y723000D01*
X133500Y727000D02*X148500Y753000D01*
X178500Y776000D02*X168500Y753000D01*
Y772500D02*X153500Y758000D01*
X168500Y780000D02*X138500Y753000D01*
X168500Y801500D02*Y780000D01*
X157000Y777500D02*X148500Y769000D01*
X178500Y762000D02*Y753000D01*
X153500Y749000D02*X158500Y723000D01*
G54D38*X153500Y758000D02*Y749000D01*
G54D13*X158500Y753000D02*X168500Y723000D01*
X183500Y727000D02*X188500Y753000D01*
X110500Y792000D02*X102500D01*
X110500D02*Y782000D01*
X238500Y749500D02*X243500Y723000D01*
G54D38*X238500Y758000D02*Y749500D01*
G54D13*X268500Y748000D02*X263500Y723000D01*
G54D38*X268500Y758000D02*Y748000D01*
X258500Y758000D02*Y748500D01*
G54D13*X253500Y723000D01*
G54D12*X273500D02*X281500D01*
X358500D02*X366500D01*
G54D13*X233500Y785000D02*X235000Y802000D01*
X273500Y776000D02*Y753000D01*
X263500Y779500D02*Y753000D01*
X268500Y783000D02*Y758000D01*
X258500Y772500D02*Y758000D01*
X233500Y772500D02*Y785000D01*
X235000Y802000D02*Y808000D01*
X251000Y854500D02*X244000D01*
X235000Y858000D01*
X277000D02*Y840500D01*
X251000Y814500D01*
G54D12*X253000Y797500D02*X261000Y814500D01*
G54D13*X238500Y758000D02*Y779500D01*
X253500Y787000D02*Y753000D01*
X248500Y776000D02*Y788500D01*
X271000Y802000D01*
X277000Y808000D02*X271000Y802000D01*
X296000Y793500D02*Y807000D01*
X295000Y808000D01*
X311000Y854500D02*X304000D01*
X295000Y858000D01*
X371000Y854500D02*X364000D01*
X355000Y858000D01*
X191000Y854500D02*X184000D01*
X175000Y858000D01*
X415000Y830500D02*X431000Y814500D01*
X397000Y840500D02*X371000Y814500D01*
X415000Y858000D02*Y830500D01*
X397000Y858000D02*Y840500D01*
X337000Y858000D02*Y840500D01*
X311000Y814500D01*
X337000Y808000D02*Y796500D01*
X330500Y790000D01*
X355000Y808000D02*Y793000D01*
X321000Y797500D02*Y814500D01*
X355000Y793000D02*X348500Y786500D01*
X397000Y808000D02*Y783500D01*
X382000Y798000D02*Y809000D01*
X381000Y814500D01*
X397000Y783500D02*X393500Y780000D01*
X415000Y808000D02*Y781000D01*
X441000Y797500D02*Y814500D01*
G54D12*X461500Y802000D02*X470500D01*
X461500Y792000D02*X453000D01*
X461500D02*Y783000D01*
G54D13*X415000Y781000D02*X403000Y769000D01*
X233500Y697500D02*X228500Y671500D01*
G54D38*Y663500D01*
G54D13*X233500Y667500D02*X238500Y672500D01*
X223500Y697500D02*Y667500D01*
X263500Y697500D02*X258500Y671500D01*
Y662500D02*X248500Y654000D01*
Y672500D02*X253500Y667500D01*
X235000Y658500D02*X243500Y667500D01*
G54D38*X258500Y671500D02*Y662500D01*
G54D13*X238500Y672500D02*X248500D01*
G54D38*X268500Y701500D02*Y693500D01*
G54D13*X248500Y718500D02*X268500Y701500D01*
Y693500D02*X263500Y667500D01*
X268500Y662000D02*Y653000D01*
X228500Y663500D02*X218500Y655000D01*
G54D12*X213500Y649000D02*X205500D01*
G54D38*X183500Y717000D02*Y727000D01*
G54D13*X178500Y706500D02*Y723000D01*
X188500Y713500D02*Y697500D01*
X178500D02*X153500Y676000D01*
G54D12*X188500Y667500D02*X197000D01*
G54D13*X153500Y676000D02*Y671500D01*
X183500Y692500D02*X178500Y667500D01*
G54D38*X183500Y701000D02*Y692500D01*
G54D13*X153500Y662500D02*X148500Y638000D01*
X173500Y662000D02*X158500Y638000D01*
Y667500D02*Y655000D01*
G54D38*X198500Y647000D02*Y630500D01*
G54D13*X173500Y655000D02*X168500Y638000D01*
X178500Y651500D02*Y638000D01*
G54D38*X153500Y671500D02*Y662500D01*
X143500Y671500D02*Y664500D01*
G54D13*X138500Y697500D02*Y667500D01*
X143500Y671500D02*X148500Y697500D01*
X167500Y624500D02*X168500Y638000D01*
X228500Y622500D02*X233500Y649000D01*
X164500Y624500D02*X158500Y638000D01*
X170500Y623000D02*X178500Y638000D01*
G54D15*X448500Y617000D02*X471000D01*
G54D13*X213500Y619000D02*X219500Y613000D01*
G54D38*X228500Y622500D02*Y614000D01*
G54D13*X138500Y638000D02*X143500Y664500D01*
X128500Y667500D02*Y658500D01*
X118500Y638000D01*
X132000Y655000D02*X128500Y638000D01*
X148500D02*X158500Y619000D01*
X153500Y615000D02*X138500Y638000D01*
X150000Y613500D02*X128500Y638000D01*
X146500Y611500D02*X118500Y638000D01*
X110500Y677500D02*X103000D01*
X110500D02*Y669000D01*
Y687500D02*X121000D01*
X263500Y649000D02*X258500Y623000D01*
X248500Y645000D02*Y623000D01*
G54D38*Y654000D02*Y645000D01*
G54D13*X253500Y649000D02*Y619000D01*
G54D38*X258500Y623500D02*Y614500D01*
X248500Y613500D02*Y623000D01*
G54D13*X268500Y644500D02*X263500Y619000D01*
X248500Y610000D02*Y613500D01*
G54D38*X238500Y655000D02*Y645000D01*
G54D13*X233500Y619000D01*
G54D38*X268500Y653000D02*Y644500D01*
G54D13*X182500Y556000D02*Y561500D01*
X187000Y574000D01*
X179500Y562000D02*X182500Y571000D01*
X179500Y562000D02*Y556500D01*
X173500Y548000D02*X176500Y557000D01*
X179500Y547000D02*X182500Y556000D01*
X176500Y547500D02*X179500Y556500D01*
X182500Y576500D02*Y571000D01*
X176500Y562500D02*X179500Y571500D01*
X173500Y563000D02*X176500Y572000D01*
X173500Y563000D02*Y557500D01*
X179500Y577000D02*Y571500D01*
X176500Y577500D02*Y572000D01*
X182500Y546500D02*X187000Y559000D01*
X182500Y482500D02*Y546500D01*
X188500Y478500D02*X194500Y464000D01*
X182500Y482500D02*X188000Y471000D01*
X182500Y591500D02*X187000Y604000D01*
X179500Y592000D02*X182500Y601000D01*
Y606500D02*Y601000D01*
X175000Y610000D02*X188500Y638000D01*
X182500Y606500D02*X187000Y619000D01*
X182500Y576500D02*X187000Y589000D01*
X179500Y577000D02*X182500Y586000D01*
Y591500D02*Y586000D01*
X176500Y577500D02*X179500Y586500D01*
Y592000D02*Y586500D01*
X173500Y581000D02*X175000Y610000D01*
X193500Y643000D02*Y646000D01*
G54D38*Y643000D02*Y633500D01*
G54D13*Y634000D02*Y628000D01*
X223500Y649000D02*Y619000D01*
G54D15*X221500Y462000D02*X221000Y454000D01*
X215500Y465000D02*X213500Y454500D01*
G54D38*X204000Y454000D02*X200500Y446500D01*
X198500Y439000D01*
G54D13*X199500Y491500D02*Y518500D01*
G54D15*X215500Y465000D02*Y507000D01*
X221500Y462000D02*Y515500D01*
X205500Y507000D02*X215500D01*
G54D13*X222000Y555500D02*X258500Y614500D01*
X213500Y570500D02*X243500Y619000D01*
G54D12*X234000Y585500D02*X240500Y600500D01*
G54D13*X222000Y555500D02*X213500D01*
X219500Y613000D02*Y595500D01*
X213500Y585500D01*
X228500Y614000D02*X224000Y607000D01*
X153500Y608500D02*Y615000D01*
X150000Y613500D02*Y605500D01*
X146500Y611500D02*Y603500D01*
X150000Y605500D02*X153500Y598500D01*
X146500Y603500D02*X153500Y590500D01*
Y598500D02*X158500Y589000D01*
X153500Y590500D02*Y586000D01*
X170500Y623000D02*Y573000D01*
X167500Y624500D02*Y573500D01*
X164500Y624500D02*Y574500D01*
X153500Y608500D02*X158500Y604000D01*
X153500Y586000D02*X158500Y574000D01*
X173500Y581000D02*Y572500D01*
X164500Y574500D02*X158500Y559000D01*
X164500Y564500D02*X167500Y573500D01*
X164500Y564500D02*Y559500D01*
X158500Y544000D01*
X167500Y549000D02*X170500Y558000D01*
X164500Y549500D02*X167500Y558500D01*
X164500Y549500D02*Y544500D01*
X167500Y549000D02*Y543500D01*
Y564000D02*X170500Y573000D01*
Y563500D02*X173500Y572500D01*
X167500Y564000D02*Y558500D01*
X170500Y563500D02*Y558000D01*
X173500Y548000D02*Y538000D01*
X170500Y548500D02*Y539000D01*
Y548500D02*X173500Y557500D01*
X170500Y539000D02*X167500Y531000D01*
X173500Y538000D02*X170500Y530000D01*
Y525000D01*
X167500Y518000D01*
X164500Y544500D02*X158500Y529000D01*
X164500Y529500D02*X158500Y514000D01*
X164500Y534500D02*Y529500D01*
Y534500D02*X167500Y543500D01*
Y531000D02*Y526000D01*
X164500Y519000D01*
X167500Y506000D02*X158500Y484000D01*
X167500Y518000D02*Y506000D01*
X154000Y487500D02*X158500Y499000D01*
X164500Y510000D02*X158500Y499000D01*
X164500Y519000D02*Y510000D01*
X170000Y499000D02*X165000Y474500D01*
X169000Y474000D02*X172000Y484000D01*
X176500Y562500D02*Y557000D01*
Y547500D02*Y476500D01*
X179500Y547000D02*Y480000D01*
X199500Y518500D02*X194500Y533000D01*
X188500Y537500D01*
Y544000D01*
X233500Y443000D02*Y457500D01*
X228500Y469000D01*
Y454000D02*Y439000D01*
X253500Y469000D02*Y444000D01*
X256500Y476000D02*X268500Y439000D01*
X248500Y454000D02*Y439000D01*
X243000Y484000D02*X256500Y476000D01*
X228500Y484000D02*X243000D01*
X249500Y388000D02*X273500Y333000D01*
X265500Y304000D02*Y311000D01*
X219500Y304000D02*Y310500D01*
X193500Y452000D02*X208500Y469000D01*
X193500Y443500D02*Y452000D01*
G54D38*X253500Y444000D02*Y435500D01*
G54D13*X248500Y409000D01*
G54D38*X243500Y412000D02*Y405000D01*
G54D13*Y412000D02*X248500Y439000D01*
X273500Y412000D02*X268500Y439000D01*
G54D38*X233500Y443000D02*Y435500D01*
G54D13*X228500Y416000D01*
Y409000D01*
G54D15*X221000Y410500D02*Y454000D01*
G54D13*X238500Y439000D02*X233500Y413000D01*
G54D15*X213500Y415500D02*Y454500D01*
G54D38*X193500Y412000D02*Y404500D01*
X233500Y413000D02*Y404500D01*
G54D15*X221000Y410500D02*X216000Y397000D01*
X204500D02*X213500Y415500D01*
G54D13*X173500Y444000D02*Y469000D01*
X179500Y480000D02*X184000Y469000D01*
X188000Y471000D02*X190500Y459500D01*
X188500Y523500D02*Y529000D01*
X194500Y517500D02*X188500Y523500D01*
X194500Y476000D02*Y517500D01*
X188500Y478500D02*Y514000D01*
X193500Y404500D02*Y364000D01*
X188500Y409000D02*Y394000D01*
G54D38*X193500Y443500D02*Y434500D01*
G54D13*X198500Y409000D01*
X183500Y412000D02*X178500Y439000D01*
X193500Y412000D02*X188500Y439000D01*
X183500Y384000D02*X188500Y379000D01*
X173500Y334000D02*Y319000D01*
G54D15*X204500Y397000D02*Y357000D01*
X201500Y304500D01*
Y300500D01*
G54D13*X176500Y476500D02*X185000Y454000D01*
X178500D02*Y439000D01*
G54D38*X173500Y444000D02*Y435000D01*
G54D13*Y394000D02*Y379000D01*
Y435000D02*X178500Y409000D01*
X167000Y397500D02*X178500Y409000D01*
G54D38*X143500Y444000D02*Y435000D01*
G54D13*X138500Y445000D02*Y439000D01*
X154000Y487500D02*X138500Y445000D01*
X143500Y444000D02*X153000Y473000D01*
X158500Y484000D01*
X165000Y474500D02*Y450500D01*
X158500Y445000D01*
Y439000D01*
G54D38*X163500Y444000D02*Y435500D01*
G54D13*Y444000D02*X169000Y449000D01*
Y474000D01*
X143500Y435000D02*X138500Y415000D01*
X148500Y439000D02*X144000Y413000D01*
G54D12*X110500Y409000D02*X101000D01*
G54D13*X110500D02*X121000D01*
X163500Y435500D02*X158500Y409000D01*
X153500Y412000D02*X158500Y439000D01*
X138500Y415000D02*Y409000D01*
G54D38*X144000Y413000D02*Y404500D01*
G54D13*Y358000D01*
G54D38*X153500Y412000D02*Y405000D01*
G54D13*X158500Y409000D02*X160000Y394000D01*
X153500Y405000D02*Y392500D01*
X160000Y379000D01*
X148500Y409000D02*Y383000D01*
X144000Y358000D02*X160000Y334000D01*
X148500Y383000D02*X160000Y364000D01*
X110000Y379000D02*Y364000D01*
G54D12*Y394000D02*X110500D01*
X116500Y388000D01*
G54D13*X167000Y363500D02*X160000Y349000D01*
X173500Y364000D02*Y349000D01*
X167000Y397500D02*Y363500D01*
G54D12*X110000Y349000D02*X116500D01*
Y388000D02*Y325500D01*
X122500Y341500D02*Y316500D01*
G54D13*X128000Y319000D02*Y346000D01*
G54D12*X122500Y316500D02*X110000Y304000D01*
X116500Y325500D02*X110000Y319000D01*
G54D13*X101500Y289000D02*X110000D01*
Y277000D01*
G54D38*X183500Y412000D02*Y405000D01*
G54D13*Y384000D01*
G54D12*X193500Y299000D02*Y290500D01*
G54D13*Y278500D02*Y259000D01*
G54D12*X160000Y282500D02*X173500Y269000D01*
X160000Y289000D02*Y282500D01*
X168500Y304000D02*X173500Y299000D01*
X160000Y304000D02*X168500D01*
G54D14*X162000Y296000D02*X151000D01*
G54D12*X162500D02*X166000Y292500D01*
X172000D01*
G54D13*X238500Y379000D02*Y363500D01*
X268500Y377000D02*X288500Y349000D01*
X273500Y387500D02*X288500Y363500D01*
X233500Y404500D02*X229000Y400000D01*
Y362000D01*
X223500Y349000D01*
X233000Y352000D02*X223500Y334000D01*
X233000Y399000D02*Y352000D01*
X264500Y370000D02*X288500Y334000D01*
X273500Y333000D02*X288500Y319000D01*
Y304000D02*Y310500D01*
X238500Y349000D02*Y334000D01*
X244000Y330500D02*X239500Y326000D01*
G54D15*X220000Y311000D02*X291000D01*
G54D13*X244000Y399500D02*Y330500D01*
G54D15*X216000Y397000D02*Y315000D01*
G54D13*X209500Y304000D02*Y385000D01*
X248500Y409000D02*X264500Y370000D01*
X268500Y409000D02*Y377000D01*
X244000Y399500D02*X243500Y405000D01*
X236500Y402500D02*X238500Y409000D01*
X236500Y402500D02*X233000Y399000D01*
X273500Y405000D02*Y387500D01*
X278500Y409000D02*Y396500D01*
X288500Y379000D01*
Y409000D02*Y394000D01*
X283500Y405500D02*Y399500D01*
X233500Y326000D02*X223500Y319000D01*
X239500Y326000D02*X233500D01*
G54D15*X216000Y315000D02*X220000Y311000D01*
G54D12*X232500Y304000D02*X237500Y299000D01*
G54D13*X242500Y304000D02*Y311500D01*
G54D14*X265000Y289000D02*X265500Y289500D01*
G54D13*X260000Y285000D02*Y279000D01*
G54D12*X255000Y272000D01*
X277000Y249000D02*X255000Y272000D01*
X276500Y234500D02*X245000Y272000D01*
G54D14*X265000Y282000D02*Y289000D01*
G54D13*X240000Y285000D02*Y279000D01*
X230000Y286500D02*Y277000D01*
G54D12*Y291500D02*Y286500D01*
X240000Y279000D02*X235000Y272000D01*
X224000Y271500D02*Y248500D01*
X231500Y254000D02*Y242000D01*
X223500Y234000D01*
X231500Y254000D02*X235000Y272000D01*
X230000Y277000D02*X225000Y272000D01*
X240000Y285000D02*X237500Y299000D01*
X305500Y294000D02*X296000D01*
G54D14*X305500Y304000D02*Y312000D01*
X285000Y282000D02*X300000Y283500D01*
G54D13*X250000Y285000D02*Y279000D01*
G54D12*X245000Y272000D01*
X250000Y285000D02*X248500Y298500D01*
X255500Y298000D02*X260000Y285000D01*
X255500Y304000D02*Y298000D01*
X242500Y304000D02*X245000Y282000D01*
X288500Y249000D02*X277000D01*
X288500Y234500D02*X276500D01*
X335000Y253500D02*X324500D01*
X305500Y234500D01*
X335000Y263500D02*X305500Y274500D01*
G54D14*X356000Y234500D02*Y223000D01*
X335000Y243500D02*Y226500D01*
G54D15*X345500Y281000D02*Y224000D01*
G54D16*X421000Y502000D03*
G54D11*G36*
X362750Y471750D02*Y466250D01*
X368250D01*
Y471750D01*
X362750D01*
G37*
G36*
X372750Y486750D02*Y481250D01*
X378250D01*
Y486750D01*
X372750D01*
G37*
G54D17*X425500Y484000D03*
G54D11*G36*
X362750Y486750D02*Y481250D01*
X368250D01*
Y486750D01*
X362750D01*
G37*
G36*
X372750Y471750D02*Y466250D01*
X378250D01*
Y471750D01*
X372750D01*
G37*
G54D17*X425500Y469000D03*
Y454000D03*
G54D16*X461500Y436000D03*
G54D18*X451500Y454000D03*
X441500D03*
G54D11*G36*
X457900Y457600D02*Y450400D01*
X465100D01*
Y457600D01*
X457900D01*
G37*
G36*
Y472600D02*Y465400D01*
X465100D01*
Y472600D01*
X457900D01*
G37*
G54D18*X451500Y469000D03*
X441500D03*
G54D11*G36*
X438500Y439000D02*Y433000D01*
X444500D01*
Y439000D01*
X438500D01*
G37*
G54D16*X451500Y436000D03*
G54D11*G36*
X422750Y442250D02*Y436750D01*
X428250D01*
Y442250D01*
X422750D01*
G37*
G54D17*X385500Y439500D03*
G54D16*X263500Y619000D03*
X273500D03*
G54D11*G36*
X295500Y633500D02*Y627500D01*
X301500D01*
Y633500D01*
X295500D01*
G37*
G36*
X260250Y609750D02*Y604250D01*
X265750D01*
Y609750D01*
X260250D01*
G37*
G36*
X295750Y618250D02*Y612750D01*
X301250D01*
Y618250D01*
X295750D01*
G37*
G54D16*X308500Y630500D03*
X318500D03*
X328500D03*
G54D11*G36*
X287750Y603250D02*Y597750D01*
X293250D01*
Y603250D01*
X287750D01*
G37*
G36*
X295750D02*Y597750D01*
X301250D01*
Y603250D01*
X295750D01*
G37*
G36*
X422750Y588250D02*Y582750D01*
X428250D01*
Y588250D01*
X422750D01*
G37*
G36*
Y573250D02*Y567750D01*
X428250D01*
Y573250D01*
X422750D01*
G37*
G36*
Y558250D02*Y552750D01*
X428250D01*
Y558250D01*
X422750D01*
G37*
G36*
X418000Y540500D02*Y534500D01*
X424000D01*
Y540500D01*
X418000D01*
G37*
G54D16*X421000Y527500D03*
G54D11*G36*
X418000Y515000D02*Y509000D01*
X424000D01*
Y515000D01*
X418000D01*
G37*
G54D17*X375500Y585500D03*
G54D16*X365000Y570500D03*
Y585500D03*
G54D17*X375500Y570500D03*
G54D11*G36*
X341750Y573250D02*Y567750D01*
X347250D01*
Y573250D01*
X341750D01*
G37*
G36*
X352000Y573500D02*Y567500D01*
X358000D01*
Y573500D01*
X352000D01*
G37*
G36*
Y588500D02*Y582500D01*
X358000D01*
Y588500D01*
X352000D01*
G37*
G36*
X341750Y588250D02*Y582750D01*
X347250D01*
Y588250D01*
X341750D01*
G37*
G54D17*X375500Y555500D03*
G54D11*G36*
X352000Y558500D02*Y552500D01*
X358000D01*
Y558500D01*
X352000D01*
G37*
G54D16*X365000Y555500D03*
G54D11*G36*
X341750Y558250D02*Y552750D01*
X347250D01*
Y558250D01*
X341750D01*
G37*
G36*
X338000Y528000D02*Y522000D01*
X344000D01*
Y528000D01*
X338000D01*
G37*
G54D16*X351000Y525000D03*
X361000D03*
X371000D03*
X381000D03*
X391000D03*
G54D11*G36*
X338000Y518000D02*Y512000D01*
X344000D01*
Y518000D01*
X338000D01*
G37*
G54D16*X291000Y515000D03*
X301000D03*
X311000D03*
X351000D03*
X361000D03*
X371000D03*
X381000D03*
X391000D03*
G54D11*G36*
X301750Y456750D02*Y451250D01*
X307250D01*
Y456750D01*
X301750D01*
G37*
G54D17*X344500Y454000D03*
G54D16*X338500Y630500D03*
X348500D03*
X358500D03*
G54D17*X348500Y615500D03*
G54D11*G36*
X355750Y618250D02*Y612750D01*
X361250D01*
Y618250D01*
X355750D01*
G37*
G54D17*X408500Y615500D03*
Y600500D03*
G54D11*G36*
X355750Y603250D02*Y597750D01*
X361250D01*
Y603250D01*
X355750D01*
G37*
G54D17*X348500Y600500D03*
G54D11*G36*
X380500Y633500D02*Y627500D01*
X386500D01*
Y633500D01*
X380500D01*
G37*
G54D16*X393500Y630500D03*
X403500D03*
X413500D03*
X423500D03*
X433500D03*
X443500D03*
G54D17*X315500Y469000D03*
Y484000D03*
X278500D03*
G54D11*G36*
X185900Y516600D02*Y511400D01*
X191100D01*
Y516600D01*
X185900D01*
G37*
G54D19*X158500Y514000D03*
G54D11*G36*
X185900Y546600D02*Y541400D01*
X191100D01*
Y546600D01*
X185900D01*
G37*
G54D19*X158500Y544000D03*
G54D11*G36*
X225750Y486750D02*Y481250D01*
X231250D01*
Y486750D01*
X225750D01*
G37*
G54D17*X208500Y469000D03*
X204000Y454000D03*
G54D11*G36*
X205750Y486750D02*Y481250D01*
X211250D01*
Y486750D01*
X205750D01*
G37*
G54D17*X158500Y484000D03*
G54D11*G36*
X205750Y501750D02*Y496250D01*
X211250D01*
Y501750D01*
X205750D01*
G37*
G54D17*X158500Y499000D03*
X240500Y600500D03*
G54D11*G36*
X185900Y561600D02*Y556400D01*
X191100D01*
Y561600D01*
X185900D01*
G37*
G54D19*X158500Y559000D03*
G54D11*G36*
X185900Y606600D02*Y601400D01*
X191100D01*
Y606600D01*
X185900D01*
G37*
G54D19*X158500Y604000D03*
G54D11*G36*
X185900Y621600D02*Y616400D01*
X191100D01*
Y621600D01*
X185900D01*
G37*
G54D19*X158500Y619000D03*
G54D11*G36*
X352000Y316000D02*Y308000D01*
X360000D01*
Y316000D01*
X352000D01*
G37*
G54D20*X335000Y311000D03*
G54D11*G36*
X330500Y295500D02*Y286500D01*
X339500D01*
Y295500D01*
X330500D01*
G37*
G54D17*X305500Y274500D03*
G54D20*X335000Y301000D03*
G54D16*X288500Y304000D03*
G54D11*G36*
X302500Y307000D02*Y301000D01*
X308500D01*
Y307000D01*
X302500D01*
G37*
G54D16*X305500Y294000D03*
G54D11*G36*
X372750Y456750D02*Y451250D01*
X378250D01*
Y456750D01*
X372750D01*
G37*
G36*
X322750Y442250D02*Y436750D01*
X328250D01*
Y442250D01*
X322750D01*
G37*
G54D17*X375500Y439500D03*
G54D11*G36*
X275750Y456750D02*Y451250D01*
X281250D01*
Y456750D01*
X275750D01*
G37*
G54D17*X288500Y394000D03*
Y349000D03*
Y379000D03*
Y363500D03*
G54D11*G36*
X408500Y419000D02*Y410000D01*
X417500D01*
Y419000D01*
X408500D01*
G37*
G36*
X451000Y422000D02*Y414000D01*
X459000D01*
Y422000D01*
X451000D01*
G37*
G54D20*X403000Y414500D03*
X393000D03*
G54D11*G36*
X340000Y419000D02*Y410000D01*
X349000D01*
Y419000D01*
X340000D01*
G37*
G54D20*X334500Y414500D03*
X324500D03*
G54D21*X403000Y347500D03*
X334500D03*
G54D22*X436000Y312000D03*
X455000Y318000D03*
G54D11*G36*
X330500Y248000D02*Y239000D01*
X339500D01*
Y248000D01*
X330500D01*
G37*
G36*
X353000Y247500D02*Y241500D01*
X359000D01*
Y247500D01*
X353000D01*
G37*
G54D16*X356000Y234500D03*
G54D11*G36*
X380000Y242500D02*Y236500D01*
X386000D01*
Y242500D01*
X380000D01*
G37*
G54D16*X393000Y239500D03*
G54D20*X335000Y253500D03*
Y263500D03*
G54D11*G36*
X353000Y274000D02*Y268000D01*
X359000D01*
Y274000D01*
X353000D01*
G37*
G54D16*X356000Y261000D03*
G54D11*G36*
X417500Y274000D02*Y268000D01*
X423500D01*
Y274000D01*
X417500D01*
G37*
G54D16*X420500Y261000D03*
X403000Y256000D03*
Y266000D03*
Y276000D03*
Y286000D03*
G54D11*G36*
X370000Y289000D02*Y283000D01*
X376000D01*
Y289000D01*
X370000D01*
G37*
G54D16*X373000Y276000D03*
Y266000D03*
Y256000D03*
G54D11*G36*
X155750Y471750D02*Y466250D01*
X161250D01*
Y471750D01*
X155750D01*
G37*
G36*
X151250Y456750D02*Y451250D01*
X156750D01*
Y456750D01*
X151250D01*
G37*
G54D16*X168500Y409000D03*
Y439000D03*
X178500Y409000D03*
Y439000D03*
X188500Y409000D03*
X198500D03*
Y439000D03*
X188500D03*
G54D11*G36*
X135500Y412000D02*Y406000D01*
X141500D01*
Y412000D01*
X135500D01*
G37*
G54D16*X148500Y409000D03*
X158500D03*
Y439000D03*
X148500D03*
X138500D03*
G54D11*G36*
X107500Y452000D02*Y446000D01*
X113500D01*
Y452000D01*
X107500D01*
G37*
G54D16*X110500Y439000D03*
G54D11*G36*
X122000Y442000D02*Y436000D01*
X128000D01*
Y442000D01*
X122000D01*
G37*
G54D16*X125000Y449000D03*
G54D11*G36*
X225500Y412000D02*Y406000D01*
X231500D01*
Y412000D01*
X225500D01*
G37*
G54D16*X238500Y409000D03*
X248500D03*
X258500D03*
X268500D03*
X278500D03*
X288500D03*
G54D11*G36*
X170750Y366750D02*Y361250D01*
X176250D01*
Y366750D01*
X170750D01*
G37*
G54D17*X160000Y364000D03*
G54D11*G36*
X170750Y351750D02*Y346250D01*
X176250D01*
Y351750D01*
X170750D01*
G37*
G54D17*X160000Y349000D03*
G54D11*G36*
X170750Y336750D02*Y331250D01*
X176250D01*
Y336750D01*
X170750D01*
G37*
G36*
X107250Y396750D02*Y391250D01*
X112750D01*
Y396750D01*
X107250D01*
G37*
G36*
X107500Y422000D02*Y416000D01*
X113500D01*
Y422000D01*
X107500D01*
G37*
G54D16*X110500Y409000D03*
G54D17*X160000Y394000D03*
G54D11*G36*
X107250Y381750D02*Y376250D01*
X112750D01*
Y381750D01*
X107250D01*
G37*
G54D17*X160000Y379000D03*
G54D11*G36*
X170750Y381750D02*Y376250D01*
X176250D01*
Y381750D01*
X170750D01*
G37*
G36*
Y396750D02*Y391250D01*
X176250D01*
Y396750D01*
X170750D01*
G37*
G36*
X235750Y321750D02*Y316250D01*
X241250D01*
Y321750D01*
X235750D01*
G37*
G54D17*X288500Y319000D03*
G54D11*G36*
X170750Y321750D02*Y316250D01*
X176250D01*
Y321750D01*
X170750D01*
G37*
G54D16*X193500Y299000D03*
X265500Y304000D03*
G54D11*G36*
X275500Y307000D02*Y301000D01*
X281500D01*
Y307000D01*
X275500D01*
G37*
G54D17*X223500Y364000D03*
Y349000D03*
G54D11*G36*
X107250Y366750D02*Y361250D01*
X112750D01*
Y366750D01*
X107250D01*
G37*
G36*
Y321750D02*Y316250D01*
X112750D01*
Y321750D01*
X107250D01*
G37*
G36*
Y336750D02*Y331250D01*
X112750D01*
Y336750D01*
X107250D01*
G37*
G36*
Y351750D02*Y346250D01*
X112750D01*
Y351750D01*
X107250D01*
G37*
G54D17*X160000Y319000D03*
Y334000D03*
Y304000D03*
G54D11*G36*
X107250Y306750D02*Y301250D01*
X112750D01*
Y306750D01*
X107250D01*
G37*
G36*
Y291750D02*Y286250D01*
X112750D01*
Y291750D01*
X107250D01*
G37*
G54D17*X160000Y289000D03*
G54D11*G36*
X170500Y302000D02*Y296000D01*
X176500D01*
Y302000D01*
X170500D01*
G37*
G54D17*X173500Y234000D03*
Y249000D03*
G54D11*G36*
X170500Y272000D02*Y266000D01*
X176500D01*
Y272000D01*
X170500D01*
G37*
G54D16*X193500Y269000D03*
X288500Y439000D03*
X278500D03*
X268500D03*
X258500D03*
X248500D03*
X238500D03*
X228500D03*
G54D17*Y469000D03*
Y454000D03*
G54D11*G36*
X235750Y396750D02*Y391250D01*
X241250D01*
Y396750D01*
X235750D01*
G37*
G36*
Y351750D02*Y346250D01*
X241250D01*
Y351750D01*
X235750D01*
G37*
G36*
Y381750D02*Y376250D01*
X241250D01*
Y381750D01*
X235750D01*
G37*
G36*
Y366250D02*Y360750D01*
X241250D01*
Y366250D01*
X235750D01*
G37*
G36*
Y336750D02*Y331250D01*
X241250D01*
Y336750D01*
X235750D01*
G37*
G54D17*X288500Y334000D03*
X223500Y394000D03*
Y379000D03*
Y334000D03*
Y319000D03*
G54D11*G36*
X275750Y471750D02*Y466250D01*
X281250D01*
Y471750D01*
X275750D01*
G37*
G36*
X238000Y528000D02*Y522000D01*
X244000D01*
Y528000D01*
X238000D01*
G37*
G54D16*X251000Y525000D03*
X261000D03*
G54D11*G36*
X238000Y518000D02*Y512000D01*
X244000D01*
Y518000D01*
X238000D01*
G37*
G54D16*X251000Y515000D03*
X261000D03*
X271000Y525000D03*
X281000D03*
X271000Y515000D03*
X281000D03*
X291000Y525000D03*
X301000D03*
X311000D03*
G54D11*G36*
X302750Y237250D02*Y231750D01*
X308250D01*
Y237250D01*
X302750D01*
G37*
G36*
X285750D02*Y231750D01*
X291250D01*
Y237250D01*
X285750D01*
G37*
G54D17*X238500Y234500D03*
G54D11*G36*
X220750Y236750D02*Y231250D01*
X226250D01*
Y236750D01*
X220750D01*
G37*
G36*
X285750Y251750D02*Y246250D01*
X291250D01*
Y251750D01*
X285750D01*
G37*
G54D17*X238500Y249000D03*
G54D11*G36*
X220750Y251750D02*Y246250D01*
X226250D01*
Y251750D01*
X220750D01*
G37*
G36*
X222000Y275000D02*Y269000D01*
X228000D01*
Y275000D01*
X222000D01*
G37*
G54D16*X235000Y272000D03*
X245000D03*
X255000D03*
X265000D03*
X275000D03*
X285000D03*
G54D11*G36*
X222000Y285000D02*Y279000D01*
X228000D01*
Y285000D01*
X222000D01*
G37*
G54D16*X235000Y282000D03*
X245000D03*
X255000D03*
X265000D03*
X275000D03*
X285000D03*
G54D11*G36*
X229500Y307000D02*Y301000D01*
X235500D01*
Y307000D01*
X229500D01*
G37*
G54D16*X242500Y304000D03*
G54D11*G36*
X206500Y307000D02*Y301000D01*
X212500D01*
Y307000D01*
X206500D01*
G37*
G54D16*X219500Y304000D03*
G54D11*G36*
X252500Y307000D02*Y301000D01*
X258500D01*
Y307000D01*
X252500D01*
G37*
G36*
X185900Y531600D02*Y526400D01*
X191100D01*
Y531600D01*
X185900D01*
G37*
G36*
Y576600D02*Y571400D01*
X191100D01*
Y576600D01*
X185900D01*
G37*
G54D19*X158500Y529000D03*
Y574000D03*
G54D11*G36*
X185900Y591600D02*Y586400D01*
X191100D01*
Y591600D01*
X185900D01*
G37*
G54D19*X158500Y589000D03*
G54D17*X213500Y585500D03*
Y570500D03*
Y555500D03*
G54D16*X223500Y619000D03*
X233500D03*
X243500D03*
X253500D03*
G54D11*G36*
X210500Y622000D02*Y616000D01*
X216500D01*
Y622000D01*
X210500D01*
G37*
G36*
X195500Y641000D02*Y635000D01*
X201500D01*
Y641000D01*
X195500D01*
G37*
G54D16*X188500Y638000D03*
X178500D03*
X168500D03*
G54D17*X213000Y607000D03*
G54D16*X158500Y638000D03*
X148500D03*
X138500D03*
X128500D03*
X118500D03*
G54D11*G36*
X271000Y573500D02*Y567500D01*
X277000D01*
Y573500D01*
X271000D01*
G37*
G36*
X260750Y573250D02*Y567750D01*
X266250D01*
Y573250D01*
X260750D01*
G37*
G54D16*X284000Y570500D03*
G54D11*G36*
X260750Y588250D02*Y582750D01*
X266250D01*
Y588250D01*
X260750D01*
G37*
G36*
Y558250D02*Y552750D01*
X266250D01*
Y558250D01*
X260750D01*
G37*
G54D17*X294500Y585500D03*
G54D11*G36*
X271000Y588500D02*Y582500D01*
X277000D01*
Y588500D01*
X271000D01*
G37*
G54D16*X284000Y585500D03*
G54D11*G36*
X271000Y558500D02*Y552500D01*
X277000D01*
Y558500D01*
X271000D01*
G37*
G54D16*X284000Y555500D03*
G54D17*X294500Y570500D03*
Y555500D03*
X415000Y858000D03*
G54D11*G36*
X427750Y817750D02*Y811250D01*
X434250D01*
Y817750D01*
X427750D01*
G37*
G54D23*X441000Y814500D03*
G54D11*G36*
X458500Y805000D02*Y799000D01*
X464500D01*
Y805000D01*
X458500D01*
G37*
G54D16*X461500Y792000D03*
G54D17*X397000Y858000D03*
G54D11*G36*
X127750Y817750D02*Y811250D01*
X134250D01*
Y817750D01*
X127750D01*
G37*
G54D23*X141000Y814500D03*
G54D11*G36*
X187750Y817750D02*Y811250D01*
X194250D01*
Y817750D01*
X187750D01*
G37*
G54D23*X201000Y814500D03*
G54D11*G36*
X172250Y810750D02*Y805250D01*
X177750D01*
Y810750D01*
X172250D01*
G37*
G36*
X154250D02*Y805250D01*
X159750D01*
Y810750D01*
X154250D01*
G37*
G36*
X187750Y857750D02*Y851250D01*
X194250D01*
Y857750D01*
X187750D01*
G37*
G54D23*X201000Y854500D03*
G54D17*X175000Y858000D03*
X157000D03*
G54D11*G36*
X214250Y810750D02*Y805250D01*
X219750D01*
Y810750D01*
X214250D01*
G37*
G54D17*X217000Y858000D03*
G54D11*G36*
X107500Y805000D02*Y799000D01*
X113500D01*
Y805000D01*
X107500D01*
G37*
G54D16*X110500Y792000D03*
G54D11*G36*
X247750Y817750D02*Y811250D01*
X254250D01*
Y817750D01*
X247750D01*
G37*
G36*
X232250Y810750D02*Y805250D01*
X237750D01*
Y810750D01*
X232250D01*
G37*
G54D23*X261000Y814500D03*
G54D11*G36*
X292250Y810750D02*Y805250D01*
X297750D01*
Y810750D01*
X292250D01*
G37*
G36*
X274250D02*Y805250D01*
X279750D01*
Y810750D01*
X274250D01*
G37*
G36*
X307750Y857750D02*Y851250D01*
X314250D01*
Y857750D01*
X307750D01*
G37*
G54D23*X321000Y854500D03*
G54D17*X295000Y858000D03*
G54D11*G36*
X247750Y857750D02*Y851250D01*
X254250D01*
Y857750D01*
X247750D01*
G37*
G54D23*X261000Y854500D03*
G54D17*X277000Y858000D03*
X235000D03*
G54D11*G36*
X307750Y817750D02*Y811250D01*
X314250D01*
Y817750D01*
X307750D01*
G37*
G54D23*X321000Y814500D03*
G54D11*G36*
X367750Y857750D02*Y851250D01*
X374250D01*
Y857750D01*
X367750D01*
G37*
G54D23*X381000Y854500D03*
G54D11*G36*
X412250Y810750D02*Y805250D01*
X417750D01*
Y810750D01*
X412250D01*
G37*
G36*
X367750Y817750D02*Y811250D01*
X374250D01*
Y817750D01*
X367750D01*
G37*
G54D23*X381000Y814500D03*
G54D11*G36*
X394250Y810750D02*Y805250D01*
X399750D01*
Y810750D01*
X394250D01*
G37*
G36*
X352250D02*Y805250D01*
X357750D01*
Y810750D01*
X352250D01*
G37*
G54D17*X355000Y858000D03*
G54D11*G36*
X334250Y810750D02*Y805250D01*
X339750D01*
Y810750D01*
X334250D01*
G37*
G54D17*X337000Y858000D03*
G54D11*G36*
X125500Y726000D02*Y720000D01*
X131500D01*
Y726000D01*
X125500D01*
G37*
G54D16*X138500Y723000D03*
X148500D03*
X158500D03*
X168500D03*
X178500D03*
X188500D03*
X178500Y753000D03*
X168500D03*
X158500D03*
X148500D03*
X138500D03*
X128500D03*
G54D11*G36*
X107500Y746000D02*Y740000D01*
X113500D01*
Y746000D01*
X107500D01*
G37*
G54D16*X110500Y733000D03*
X188500Y753000D03*
X223500D03*
X213500D03*
G54D11*G36*
X210500Y726000D02*Y720000D01*
X216500D01*
Y726000D01*
X210500D01*
G37*
G54D16*X223500Y723000D03*
X233500D03*
X243500D03*
Y753000D03*
X233500D03*
X243500Y697500D03*
X233500D03*
X188500D03*
X223500D03*
X213500D03*
X178500D03*
X168500D03*
X158500D03*
X148500D03*
X138500D03*
X128500D03*
G54D11*G36*
X125500Y670500D02*Y664500D01*
X131500D01*
Y670500D01*
X125500D01*
G37*
G54D16*X138500Y667500D03*
X148500D03*
X158500D03*
X168500D03*
X178500D03*
X188500D03*
G54D11*G36*
X210500Y670500D02*Y664500D01*
X216500D01*
Y670500D01*
X210500D01*
G37*
G36*
X107500Y690500D02*Y684500D01*
X113500D01*
Y690500D01*
X107500D01*
G37*
G54D16*X110500Y677500D03*
X253500Y723000D03*
Y753000D03*
X263500Y723000D03*
Y753000D03*
X273500Y723000D03*
Y753000D03*
Y697500D03*
Y649000D03*
X263500Y697500D03*
Y649000D03*
X253500Y697500D03*
Y649000D03*
X243500D03*
X233500D03*
X223500D03*
X213500D03*
G54D11*G36*
X295500Y726000D02*Y720000D01*
X301500D01*
Y726000D01*
X295500D01*
G37*
G54D16*X308500Y723000D03*
X318500D03*
X328500D03*
X338500D03*
Y753000D03*
X328500D03*
X318500D03*
X308500D03*
X298500D03*
X348500Y723000D03*
X358500D03*
Y753000D03*
X348500D03*
G54D11*G36*
X338250Y701250D02*Y694750D01*
X344750D01*
Y701250D01*
X338250D01*
G37*
G54D17*X364500Y708500D03*
G54D11*G36*
X361750Y696250D02*Y690750D01*
X367250D01*
Y696250D01*
X361750D01*
G37*
G54D23*X351500Y698000D03*
G54D11*G36*
X307750Y701250D02*Y694750D01*
X314250D01*
Y701250D01*
X307750D01*
G37*
G54D23*X321000Y698000D03*
G54D11*G36*
X380500Y726000D02*Y720000D01*
X386500D01*
Y726000D01*
X380500D01*
G37*
G54D16*X393500Y723000D03*
X403500D03*
X413500Y753000D03*
X403500D03*
X393500D03*
X383500D03*
X413500Y723000D03*
G54D11*G36*
X411750Y711250D02*Y705750D01*
X417250D01*
Y711250D01*
X411750D01*
G37*
G54D17*X414500Y693500D03*
G54D16*X223500Y667500D03*
X233500D03*
X243500D03*
X253500D03*
X263500D03*
X273500D03*
X423500Y723000D03*
X433500D03*
X443500D03*
G54D11*G36*
X427750Y701250D02*Y694750D01*
X434250D01*
Y701250D01*
X427750D01*
G37*
G54D23*X441000Y698000D03*
G54D16*X443500Y660500D03*
X433500D03*
X423500D03*
X443500Y753000D03*
X433500D03*
X423500D03*
G54D11*G36*
X458500Y746000D02*Y740000D01*
X464500D01*
Y746000D01*
X458500D01*
G37*
G54D16*X461500Y733000D03*
G54D11*G36*
X458500Y653500D02*Y647500D01*
X464500D01*
Y653500D01*
X458500D01*
G37*
G54D16*X461500Y640500D03*
X358500Y660500D03*
X348500D03*
X338500D03*
X328500D03*
X318500D03*
X308500D03*
X298500D03*
X413500D03*
X403500D03*
X393500D03*
X383500D03*
G54D24*X328500Y762000D03*
X323500Y765500D03*
X423500D03*
X348500Y769000D03*
X393500D03*
X403000D03*
X353500Y772500D03*
X376000Y746000D03*
Y741000D03*
X366000Y730000D03*
Y735000D03*
X433500Y765500D03*
X451000Y730000D03*
Y735000D03*
X348500Y786500D03*
X375000Y802000D03*
X367000Y798000D03*
X382000D03*
X321000Y797500D03*
X330500Y790000D03*
X328500Y713500D03*
X452000Y797000D03*
X441000Y797500D03*
X452000Y776000D03*
Y792000D03*
X393500Y780000D03*
X282000Y798000D03*
X290000Y802000D03*
X248500Y776000D03*
X273500D03*
X263500Y779500D03*
X258500Y772500D03*
X253500Y787000D03*
X268500Y783000D03*
X296000Y793500D03*
X291000Y746000D03*
Y741000D03*
X253000Y797500D03*
X248500Y769000D03*
X281500Y696500D03*
X282000Y603000D03*
X281500Y611000D03*
X133500Y762000D03*
X148500Y769000D03*
X119500Y746000D03*
X120000Y802000D03*
X141000Y798000D03*
X110500Y785500D03*
Y781000D03*
X238500Y779500D03*
X205000Y802000D03*
X197000Y798000D03*
X218500Y765500D03*
X233500Y772500D03*
X223500Y776000D03*
X206000Y746000D03*
Y741000D03*
X196000Y730000D03*
Y735000D03*
X178500Y762000D03*
X168500Y772500D03*
X178500Y776000D03*
Y706500D03*
X183500Y717000D03*
Y710000D03*
X188500Y713500D03*
X148500D03*
X133500Y710000D03*
X119500Y741000D03*
X110500Y726500D03*
Y722000D03*
X223500Y706500D03*
X206000Y691000D03*
Y685500D03*
X196000Y674000D03*
Y679500D03*
X218500Y655000D03*
X238500D03*
X235000Y658500D03*
X228500Y717000D03*
Y703000D03*
X234000Y585500D03*
X224000Y607000D03*
X206000Y637000D03*
Y642500D03*
X199500Y630500D03*
Y625500D03*
X206000Y591500D03*
X195000Y625500D03*
Y630500D03*
X173500Y662000D03*
Y655000D03*
X178500Y651500D03*
X158500Y655000D03*
X132000D03*
X119500Y652500D03*
Y657500D03*
Y685500D03*
Y690500D03*
X110500Y671000D03*
Y666500D03*
G54D16*X102000Y629500D03*
Y619000D03*
X122500D03*
X111500D03*
Y629500D03*
G54D24*X170000Y499000D03*
X172000Y484000D03*
X173500Y469000D03*
X178500Y454000D03*
X185000D03*
X213500Y421000D03*
Y415500D03*
X184000Y469000D03*
X135000Y458000D03*
Y468500D03*
X194500Y464000D03*
X190500Y459500D03*
X101000Y468500D03*
Y458000D03*
X175000Y610000D03*
X197500Y603000D03*
Y597000D03*
X194500Y476000D03*
X199500Y491500D03*
X206000Y547500D03*
X211000D03*
X205500Y507000D03*
X210500D03*
X215500D03*
G54D16*X196500Y551500D03*
G54D24*X193500Y364000D03*
X188500Y379000D03*
Y394000D03*
X209500Y385000D03*
X128000Y346000D03*
X122500Y341500D03*
X116500Y331500D03*
X128000Y319000D03*
X201500Y304500D03*
Y300500D03*
X230000Y291500D03*
X217000Y277000D03*
Y287000D03*
Y267000D03*
X298500Y713500D03*
X273500Y706500D03*
X291000Y691000D03*
Y685500D03*
X296500Y696500D03*
X281000Y730000D03*
Y735000D03*
Y626500D03*
X283000Y632000D03*
X281000Y674000D03*
Y679500D03*
X268500Y662000D03*
X248500Y610000D03*
X289500Y647500D03*
X291000Y652500D03*
X290500Y432000D03*
X338500Y676000D03*
X353500Y669000D03*
X332500Y541000D03*
X337500D03*
X322000Y588500D03*
X297500Y577000D03*
X451000Y637500D03*
Y642500D03*
X438500Y624500D03*
X388500Y666000D03*
X388000Y615500D03*
Y585500D03*
X403000Y597000D03*
X428500Y666000D03*
G54D16*X432000Y547500D03*
G54D24*X418500Y673500D03*
X417000Y591500D03*
X419500Y688000D03*
X398500Y683000D03*
X393500Y686500D03*
X398500Y670000D03*
X408500Y677000D03*
G54D16*X470500Y619000D03*
G54D24*X408500Y555500D03*
X403000Y541000D03*
X408500D03*
X392500Y570500D03*
X397000Y541000D03*
X390500D03*
G54D16*X382500Y547500D03*
G54D24*X384000Y541000D03*
X313500Y713500D03*
X313000Y597000D03*
X327000Y615500D03*
Y541000D03*
X318500Y686500D03*
X303500Y669500D03*
X308500Y673500D03*
X328500Y683000D03*
X323500Y669500D03*
X304500Y686000D03*
X376000Y653500D03*
X375000Y608000D03*
X380500Y700000D03*
X376000Y648500D03*
X366000Y637500D03*
Y642500D03*
X304000Y678000D03*
X304500Y696500D03*
X371500Y710000D03*
X253500Y469000D03*
X248500Y454000D03*
X249500Y388000D03*
X283500Y399500D03*
Y447500D03*
X268500Y394000D03*
X248500Y298500D03*
X290500Y427500D03*
G54D16*X325500Y427000D03*
G54D24*X291000Y311000D03*
X319500Y310500D03*
Y314500D03*
Y301000D03*
G54D25*X373500Y307500D03*
Y311000D03*
G54D24*X297000Y266000D03*
Y277000D03*
Y271500D03*
X319500Y262000D03*
Y258000D03*
X345500Y273500D03*
G54D16*X334500Y427000D03*
G54D24*X345500Y281000D03*
G54D26*G54D27*G54D28*G54D27*G54D29*G54D27*G54D14*G54D30*G54D28*G54D30*G54D28*G54D26*G54D28*G54D27*G54D28*G54D27*G54D14*G54D30*G54D28*G54D30*G54D28*G54D31*G54D28*G54D26*G54D31*G54D32*G54D16*G54D14*G54D16*G54D28*G54D16*G54D32*G54D16*G54D33*G54D32*G54D16*G54D26*G54D28*G54D16*G54D28*G54D30*G54D28*G54D30*G54D28*G54D27*G54D30*G54D28*G54D26*G54D28*G54D30*G54D28*G54D27*G54D14*G54D28*G54D27*G54D28*G54D26*G54D31*G54D28*G54D30*G54D27*G54D28*G54D27*G54D28*G54D26*G54D34*G54D28*G54D34*G54D28*G54D34*G54D28*G54D26*G54D28*G54D34*G54D28*G54D34*G54D28*G54D34*G54D28*G54D34*G54D28*G54D34*G54D28*G54D34*G54D28*G54D30*G54D28*G54D30*G54D28*G54D30*G54D34*G54D28*G54D34*G54D30*G54D28*G54D30*G54D34*G54D30*G54D28*G54D30*G54D11*G54D35*G54D11*G54D35*G54D11*G54D35*G54D11*G54D35*G54D11*G54D35*G54D11*G54D35*G54D11*G54D36*G54D11*G54D35*G54D11*G54D37*X480500Y873000D02*Y572000D01*
X459500Y569500D02*X478000D01*
X92500Y873000D02*Y572000D01*
X122000Y884000D02*X451000D01*
X119500Y563500D02*Y531500D01*
X95000Y569500D02*X113500D01*
X95000Y875500D02*X113500D01*
X453500Y563500D02*Y531500D01*
X459500Y875500D02*X478000D01*
X95000Y525400D02*X113500D01*
X95000Y219500D02*X113500D01*
X459500Y525400D02*X478000D01*
X480500Y523000D02*Y222000D01*
X122000Y211000D02*X451000D01*
X459500Y219500D02*X478000D01*
X92500Y523000D02*Y222000D01*
X480500Y572000D02*G75*G02X478000Y569500I-2500J0D01*G01*
Y525400D02*G75*G02X480500Y522900I0J-2500D01*G01*
X453500Y563500D02*G75*G02X459500Y569500I6000J0D01*G01*
Y525400D02*G75*G02X453500Y531400I0J6000D01*G01*
X119500Y881500D02*G75*G02X122000Y884000I2500J0D01*G01*
X92500Y873000D02*G75*G02X95000Y875500I2500J0D01*G01*
X113500Y569500D02*G75*G02X119500Y563500I0J-6000D01*G01*
Y881500D02*G75*G02X113500Y875500I-6000J0D01*G01*
X95000Y569500D02*G75*G02X92500Y572000I0J2500D01*G01*
X119500Y531400D02*G75*G02X113500Y525400I-6000J0D01*G01*
X451000Y884000D02*G75*G02X453500Y881500I0J-2500D01*G01*
X478000Y875500D02*G75*G02X480500Y873000I0J-2500D01*G01*
X459500Y875500D02*G75*G02X453500Y881500I0J6000D01*G01*
X92500Y522900D02*G75*G02X95000Y525400I2500J0D01*G01*
X122000Y211000D02*G75*G02X119500Y213500I0J2500D01*G01*
X95100Y219500D02*G75*G02X92600Y222000I0J2500D01*G01*
X113500Y219500D02*G75*G02X119500Y213500I0J-6000D01*G01*
X453500D02*G75*G02X451000Y211000I-2500J0D01*G01*
X480500Y222000D02*G75*G02X478000Y219500I-2500J0D01*G01*
X453500Y213500D02*G75*G02X459500Y219500I6000J0D01*G01*
M02*
